<svg xmlns="http://www.w3.org/2000/svg" xmlns:xlink="http://www.w3.org/1999/xlink" fill="none" version="1.1" width="16" height="16" viewBox="0 0 16 16"><defs><clipPath id="master_svg0_153_42327"><rect x="0" y="16" width="16" height="16" rx="0"/></clipPath></defs><g><g transform="matrix(1,0,0,-1,0,32)" clip-path="url(#master_svg0_153_42327)"><g><path d="M13.7259755625,19.986328125L12.0306635625,19.986328125L12.0306635625,18.292578325C12.0306635625,17.611328185,11.4759745625,17.056640625,10.7947273625,17.056640625L2.2681642625,17.056640625C1.5869141225,17.056640625,1.0322265625,17.611328185,1.0322265625,18.292578325L1.0322265625,26.820702525C1.0322265625,27.501952625,1.5869141225,28.056640625,2.2681642625,28.056640625L3.9619140625,28.056640625L3.9619140625,29.750389625C3.9619140625,30.431640625,4.5166015625,30.986328625,5.1978511625,30.986328625L13.7259755625,30.986328625C14.4072265625,30.986328625,14.9619145625,30.431640625,14.9619145625,29.750389625L14.9619145625,21.222265225C14.9603505625,20.541015625,14.4056635625,19.986328125,13.7259755625,19.986328125ZM2.2681642625,27.055076624999998C2.1384764625,27.055076624999998,2.0322265625,26.948827725,2.0322265625,26.819141424999998L2.0322265625,18.292578325C2.0322265625,18.162890525,2.1384764625,18.056640625,2.2681642625,18.056640625L10.7962884625,18.056640625C10.9259767625,18.056640625,11.0322255625,18.162890525,11.0322255625,18.292578325L11.0322255625,26.820702525C11.0322255625,26.950390825,10.9259767625,27.056639625000003,10.7962884625,27.056639625000003L2.2681642625,27.056639625000003L2.2681642625,27.055076624999998ZM13.9603505625,29.750389625C13.9603505625,29.880076625,13.8541025625,29.986328625,13.7244135625,29.986328625L5.1978511625,29.986328625C5.0681638625,29.986328625,4.9619140625,29.880076625,4.9619140625,29.750389625L4.9619140625,28.055077625L10.7962884625,28.055077625C11.4775385625,28.055077625,12.0322265625,27.500388625,12.0322265625,26.819141424999998L12.0322265625,20.986328125L13.7259755625,20.986328125C13.8556625625,20.986328125,13.9619145625,21.092577925,13.9619145625,21.222265225L13.9619145625,29.750389625L13.9603505625,29.750389625Z" fill="#0064FF" fill-opacity="1"/></g></g></g></svg>