<svg xmlns="http://www.w3.org/2000/svg" xmlns:xlink="http://www.w3.org/1999/xlink" fill="none" version="1.1" width="14" height="14" viewBox="0 0 14 14"><defs><clipPath id="master_svg0_628_40616"><rect x="0" y="0" width="14" height="14" rx="0"/></clipPath><clipPath id="master_svg1_628_40618"><rect x="0" y="0" width="14" height="14" rx="0"/></clipPath></defs><g clip-path="url(#master_svg0_628_40616)"><g clip-path="url(#master_svg1_628_40618)"><g><path d="M12.25,0L12.25,5.25L11.375,5.25L11.375,0.875L0.875,0.875L0.875,13.125L6.125,13.125L6.125,14L0,14L0,0L12.25,0ZM5.25,8.75L5.25,9.625L2.625,9.625L2.625,8.75L5.25,8.75ZM6.125,6.125L6.125,7L2.625,7L2.625,6.125L6.125,6.125ZM9.625,3.5L9.625,4.375L2.625,4.375L2.625,3.5L9.625,3.5Z" fill="#FFFFFF" fill-opacity="1" style="mix-blend-mode:passthrough"/></g><g><path d="M10.0625,6.125C12.2371216,6.125,14,7.8878788,14,10.0625C14,12.2371216,12.2371216,14,10.0625,14C7.8878788,14,6.125,12.2371216,6.125,10.0625C6.125,7.8878788,7.8878788,6.125,10.0625,6.125ZM10.0625,7C8.3711278,6.99999946,6.99999946,8.3711278,6.99999946,10.0625C6.99999946,11.753872399999999,8.3711278,13.125,10.0625,13.125C11.753872399999999,13.125,13.125,11.753872399999999,13.125,10.0625C13.125,8.3711278,11.753872399999999,6.99999946,10.0625,7ZM11.5106249,8.4437499L12.1283746,9.0632505L9.4351254,11.7503753L7.9213754000000005,10.1412501L8.5583754,9.5418751L9.454375,10.49475L11.5106249,8.4437499Z" fill="#FFFFFF" fill-opacity="1" style="mix-blend-mode:passthrough"/></g></g></g></svg>