<svg xmlns="http://www.w3.org/2000/svg" xmlns:xlink="http://www.w3.org/1999/xlink" fill="none" version="1.1" width="12.000000953674316" height="12" viewBox="0 0 12.000000953674316 12"><g><path d="M11.3306,9L0.669434,9C0.299615,9,0,8.68247,0,8.29079L0,0.709224C0,0.317549,0.299794,0,0.66963,0L11.3304,0C11.7002,0,12,0.317513,12,0.709224L12,8.29078C12,8.68247,11.7004,9,11.3306,9ZM11,1.14185C11,1.0635,10.9401,1,10.8662,1L1.13428,1C1.06033,1,1,1.0635,1,1.14185L1,7.85822C1,7.93654,1.06033,8,1.13428,8L10.9155,8.0071C10.9895,8.0071,11.0493,7.94361,11.0493,7.86531L11,1.14185ZM9.03125,3.13126L9.45068,3.13126C9.72683,3.13126,9.95068,3.35511,9.95068,3.63126L9.95068,7C9.95068,7.27614,9.72683,7.5,9.45068,7.5L9.03125,7.5C8.75511,7.5,8.53125,7.27614,8.53125,7L8.53125,3.63126C8.53125,3.35511,8.75511,3.13126,9.03125,3.13126M6.76807,1.78373L7.20068,1.78373C7.47683,1.78373,7.70068,2.00759,7.70068,2.28373L7.70068,7C7.70068,7.27614,7.47683,7.5,7.20068,7.5L6.76807,7.5C6.49192,7.5,6.26807,7.27614,6.26807,7L6.26807,2.28373C6.26807,2.00759,6.49192,1.78373,6.76807,1.78373M4.53125,4.49297L4.95068,4.49297C5.22683,4.49297,5.45068,4.71682,5.45068,4.99297L5.45068,7C5.45068,7.27614,5.22683,7.5,4.95068,7.5L4.53125,7.5C4.25511,7.5,4.03125,7.27614,4.03125,7L4.03125,4.99297C4.03125,4.71682,4.25511,4.49297,4.53125,4.49297M2.54932,5.82628L2.96875,5.82628C3.24489,5.82628,3.46875,6.05014,3.46875,6.32628L3.46875,7.00004C3.46875,7.27618,3.24489,7.50004,2.96875,7.50004L2.54932,7.50004C2.27317,7.50004,2.04932,7.27618,2.04932,7.00004L2.04932,6.32628C2.04932,6.05014,2.27317,5.82628,2.54932,5.82628M4.11163,9.94326C4.11163,9.86494,4.17159,9.80146,4.24557,9.80146L7.72766,9.80146C7.80166,9.80146,7.86157,9.86498,7.86157,9.94326L7.86133,11L9.65181,11C9.92797,11,10.1518,11.2239,10.1518,11.5C10.1518,11.7762,9.92794,12,9.65181,12L2.29453,12C2.01842,12,1.79458,11.7762,1.79453,11.5001C1.79448,11.2239,2.01835,11,2.29453,11L4.11182,11L4.11163,9.94326Z" fill="#0064FF" fill-opacity="1" style="mix-blend-mode:passthrough"/></g></svg>