<svg xmlns="http://www.w3.org/2000/svg" xmlns:xlink="http://www.w3.org/1999/xlink" fill="none" version="1.1" width="16" height="16" viewBox="0 0 16 16"><g><g></g><g><g><path d="M5.571230943908692,9.098125554656983C4.592180943908692,9.098125554656983,3.7959909439086914,8.283745554656981,3.7959909439086914,7.282325554656983C3.7959909439086914,6.280907554656983,4.592180943908692,5.466525554656982,5.571230943908692,5.466525554656982C6.5502809439086915,5.466525554656982,7.346470943908692,6.280907554656983,7.346470943908692,7.282325554656983C7.346470943908692,8.283745554656981,6.5502809439086915,9.098125554656983,5.571230943908692,9.098125554656983ZM5.571230943908692,6.397803554656982C5.095040943908692,6.397803554656982,4.710276943908691,6.795255554656983,4.710276943908691,7.278425554656982C4.710276943908691,7.761605554656983,5.098850943908691,8.159045554656982,5.571230943908692,8.159045554656982C6.043610943908691,8.159045554656982,6.432180943908691,7.761605554656983,6.432180943908691,7.278425554656982C6.432180943908691,6.795255554656983,6.0474209439086914,6.397803554656982,5.571230943908692,6.397803554656982Z" fill="#0064FF" fill-opacity="1" style="mix-blend-mode:passthrough"/></g><g><path d="M7.864665736732483,11.443856550827025C7.6132357367324826,11.443856550827025,7.407525736732483,11.233436550827026,7.407525736732483,10.976266550827027C7.407525736732483,9.939776550827027,6.584665736732482,9.098126550827025,5.5713357367324825,9.098126550827025C4.557995736732483,9.098126550827025,3.735141736732483,9.939776550827027,3.735141736732483,10.976266550827027C3.735141736732483,11.233436550827026,3.529426736732483,11.443856550827025,3.2779987367324828,11.443856550827025C3.026569736732483,11.443856550827025,2.820855736732483,11.233436550827026,2.820855736732483,10.976266550827027C2.820855736732483,9.425436550827026,4.055145736732483,8.162946550827026,5.5713357367324825,8.162946550827026C7.087525736732483,8.162946550827026,8.321805736732482,9.425436550827026,8.321805736732482,10.976266550827027C8.321805736732482,11.233436550827026,8.116095736732483,11.443856550827025,7.864665736732483,11.443856550827025ZM12.538945736732483,6.8653915508270265L9.418945736732482,6.8653915508270265C9.167525736732482,6.8653915508270265,8.961805736732483,6.654977550827026,8.961805736732483,6.3978045508270265C8.961805736732483,6.140631550827027,9.167525736732482,5.930216550827026,9.418945736732482,5.930216550827026L12.538945736732483,5.930216550827026C12.790375736732482,5.930216550827026,12.996055736732483,6.140631550827027,12.996055736732483,6.3978045508270265C12.996055736732483,6.654977550827026,12.790375736732482,6.8653915508270265,12.538945736732483,6.8653915508270265ZM12.538945736732483,8.930566550827027L9.418945736732482,8.930566550827027C9.167525736732482,8.930566550827027,8.961805736732483,8.720156550827026,8.961805736732483,8.462986550827026C8.961805736732483,8.205806550827026,9.167525736732482,7.995396550827026,9.418945736732482,7.995396550827026L12.538945736732483,7.995396550827026C12.790375736732482,7.995396550827026,12.996055736732483,8.205806550827026,12.996055736732483,8.462986550827026C12.996055736732483,8.720156550827026,12.790375736732482,8.930566550827027,12.538945736732483,8.930566550827027ZM12.538945736732483,10.995746550827025L9.418945736732482,10.995746550827025C9.167525736732482,10.995746550827025,8.961805736732483,10.785336550827026,8.961805736732483,10.528166550827027C8.961805736732483,10.270986550827025,9.167525736732482,10.060576550827026,9.418945736732482,10.060576550827026L12.538945736732483,10.060576550827026C12.790375736732482,10.060576550827026,12.996055736732483,10.270986550827025,12.996055736732483,10.528166550827027C12.996055736732483,10.785336550827026,12.790375736732482,10.995746550827025,12.538945736732483,10.995746550827025Z" fill="#0064FF" fill-opacity="1" style="mix-blend-mode:passthrough"/></g><g><path d="M13.4762,14L2.52381,14C1.681905,14,1,13.3025,1,12.44137L1,4.55863C1,3.697485,1.681905,3,2.52381,3L13.4762,3C14.3181,3,15,3.697485,15,4.55863L15,12.44137C15,13.2986,14.3181,14,13.4762,14ZM2.52381,3.935175C2.18857,3.935175,1.9142860000000002,4.21573,1.9142860000000002,4.55863L1.9142860000000002,12.44137C1.9142860000000002,12.78427,2.18857,13.0648,2.52381,13.0648L13.4762,13.0648C13.8114,13.0648,14.0857,12.78427,14.0857,12.44137L14.0857,4.55863C14.0857,4.21573,13.8114,3.935175,13.4762,3.935175L2.52381,3.935175Z" fill="#0064FF" fill-opacity="1" style="mix-blend-mode:passthrough"/></g></g></g></svg>