<svg xmlns="http://www.w3.org/2000/svg" xmlns:xlink="http://www.w3.org/1999/xlink" fill="none" version="1.1" width="16" height="16" viewBox="0 0 16 16"><g><g></g><g transform="matrix(-1,0,0,-1,28,27.997196197509766)"><g><path d="M25.538518074264527,25.997198098754883L18.154763074264526,25.997198098754883C17.899892074264525,25.997198098754883,17.693278074264526,25.790598098754884,17.693278074264526,25.535698098754885L17.693278074264526,23.689778098754882C17.693278074264526,23.43490809875488,17.899892074264525,23.22828809875488,18.154763074264526,23.22828809875488C18.409633074264526,23.22828809875488,18.616247074264525,23.43490809875488,18.616247074264525,23.689778098754882L18.616247074264525,25.074198098754884L25.077028074264526,25.074198098754884L25.077028074264526,14.921567098754883L18.616247074264525,14.921567098754883L18.616247074264525,16.306018098754883C18.616247074264525,16.560888098754884,18.409633074264526,16.76750809875488,18.154763074264526,16.76750809875488C17.899892074264525,16.76750809875488,17.693278074264526,16.560888098754884,17.693278074264526,16.306018098754883L17.693278074264526,14.460083098754883C17.693278074264526,14.205212098754883,17.899892074264525,13.998598098754883,18.154763074264526,13.998598098754883L25.538518074264527,13.998598098754883C25.793388074264527,13.998598098754883,25.999998074264525,14.205212098754883,25.999998074264525,14.460083098754883L25.999998074264525,25.535698098754885C25.999998074264525,25.790598098754884,25.793388074264527,25.997198098754883,25.538518074264527,25.997198098754883Z" fill="#FFFFFF" fill-opacity="1"/></g><g><path d="M21.385150765686035,20.459381715911864L15.385855765686035,20.459381715911864C15.130984765686035,20.459381715911864,14.924370765686035,20.252767715911865,14.924370765686035,19.997897715911865C14.924370765686035,19.743026715911864,15.130984765686035,19.536412715911865,15.385855765686035,19.536412715911865L21.385150765686035,19.536412715911865C21.640020765686035,19.536412715911865,21.846640765686036,19.743026715911864,21.846640765686036,19.997897715911865C21.846640765686036,20.252767715911865,21.640020765686035,20.459381715911864,21.385150765686035,20.459381715911864Z" fill="#FFFFFF" fill-opacity="1"/></g><g><path d="M16.30882,22.305322705230715C16.18644,22.306812705230712,16.06911,22.25653270523071,15.98579,22.166872705230713L14.139847,20.320932705230714C14.0506169,20.23719270523071,14,20.12027270523071,14,19.99789270523071C14,19.875522705230715,14.0506169,19.758602705230714,14.139847,19.674862705230712L15.98579,17.828919705230714C16.16419,17.650510305230714,16.45345,17.650510305230714,16.63186,17.828919705230714C16.81027,18.007329705230713,16.81027,18.296588705230715,16.63186,18.474998705230714L15.11819,19.99789270523071L16.63186,21.52079270523071C16.72109,21.604542705230713,16.77171,21.721462705230714,16.77171,21.843832705230714C16.77171,21.966212705230713,16.72109,22.083132705230714,16.63186,22.166872705230713C16.54854,22.25653270523071,16.43121,22.306812705230712,16.30882,22.305322705230715L16.30882,22.305322705230715Z" fill="#FFFFFF" fill-opacity="1"/></g></g></g></svg>