<svg xmlns="http://www.w3.org/2000/svg" xmlns:xlink="http://www.w3.org/1999/xlink" fill="none" version="1.1" width="229" height="69" viewBox="0 0 229 69"><defs><mask id="master_svg0_425_93914" style="mask-type:alpha" maskUnits="objectBoundingBox"><g><path d="M8.000001,0L206.5248,0C207.53998,0,208.05345,0.00082992017,208.50703,0.15000443C208.90445,0.28070813,209.27051,0.49328053,209.58101,0.77367598C209.93538,1.0936871,210.1906,1.5392395,210.69376,2.4209471L227.64236,32.120949C228.13724,32.988148,228.38676,33.427044,228.48277,33.887661C228.56693,34.291424,228.56693,34.708576,228.48277,35.112339C228.38676,35.572956,228.13724,36.011852,227.64236,36.879051L210.69376,66.579056C210.1906,67.460762,209.93538,67.906319,209.58101,68.226326C209.27051,68.506721,208.90445,68.719292,208.50703,68.849998C208.05345,68.999176,207.53998,69,206.52481,69L7.9999976,69C5.1997337,69,3.7679453,68.994331,2.7022123,68.44191C1.7848924,67.966415,1.033583,67.215103,0.55809098,66.297791C0.0056651831,65.232056,0,63.800266,0,61L0,8.0000019C0,5.1997337,0.0056686401,3.7679462,0.55809098,2.7022123C1.033583,1.7848924,1.7848924,1.033583,2.7022123,0.55809098C3.7679462,0.0056686401,5.1997337,0,8.000001,0" fill-rule="evenodd" fill="#FFFFFF" fill-opacity="1"/></g></mask></defs><g mask="url(#master_svg0_425_93914)"><g><path d="M8.000001,0L206.5248,0C207.53998,0,208.05345,0.00082992017,208.50703,0.15000443C208.90445,0.28070813,209.27051,0.49328053,209.58101,0.77367598C209.93538,1.0936871,210.1906,1.5392395,210.69376,2.4209471L227.64236,32.120949C228.13724,32.988148,228.38676,33.427044,228.48277,33.887661C228.56693,34.291424,228.56693,34.708576,228.48277,35.112339C228.38676,35.572956,228.13724,36.011852,227.64236,36.879051L210.69376,66.579056C210.1906,67.460762,209.93538,67.906319,209.58101,68.226326C209.27051,68.506721,208.90445,68.719292,208.50703,68.849998C208.05345,68.999176,207.53998,69,206.52481,69L7.9999976,69C5.1997337,69,3.7679453,68.994331,2.7022123,68.44191C1.7848924,67.966415,1.033583,67.215103,0.55809098,66.297791C0.0056651831,65.232056,0,63.800266,0,61L0,8.0000019C0,5.1997337,0.0056686401,3.7679462,0.55809098,2.7022123C1.033583,1.7848924,1.7848924,1.033583,2.7022123,0.55809098C3.7679462,0.0056686401,5.1997337,0,8.000001,0" fill-rule="evenodd" fill="#F4F6FA" fill-opacity="1"/></g><g style="opacity:0.9520787000656128;"><path d="M-6 0C-6 0 -6 0 -6 0L4 0C4 0 4 0 4 0L4 69C4 69 4 69 4 69L-6 69C-6 69 -6 69 -6 69Z" fill="#C3C3C3" fill-opacity="1"/></g></g></svg>