<svg xmlns="http://www.w3.org/2000/svg" xmlns:xlink="http://www.w3.org/1999/xlink" fill="none" version="1.1" width="11.980224609375" height="12.0093994140625" viewBox="0 0 11.980224609375 12.0093994140625"><g><g><path d="M11.980286,0.85628569C11.980286,0.384,11.597143,0.00085714285,11.125714,0.00085714285L11.125714,0L0.8545714,0C0.38228571,0,0,0.38314286,0,0.85542858L0,8.554286C0.00047247999,9.0260563,0.38280052,9.4083843,0.8545714,9.4088573L5.6082859,9.4088573L5.6082859,11.246572L1.8762857,11.246572C1.6656286,11.246572,1.4948572,11.417343,1.4948572,11.628C1.4948572,11.838657,1.6656286,12.009429,1.8762857,12.009429L10.104,12.009429C10.314657,12.009429,10.485429,11.838657,10.485429,11.628C10.485429,11.417343,10.314657,11.246572,10.104,11.246572L6.3720002,11.246572L6.3720002,9.408L11.125714,9.408C11.597486,9.4075279,11.979814,9.0251999,11.980286,8.5534286L11.980286,0.85628569ZM11.125755,8.1257553L11.124898,8.1257553L11.124898,1.284041C11.125126,1.170307,11.080047,1.0611656,10.999624,0.98074335C10.919202,0.90032113,10.810061,0.85524148,10.696327,0.85546958L1.2831839,0.85546958C1.1695983,0.85546941,1.0606774,0.90064967,0.9804408,0.98104715C0.90020412,1.0614445,0.85524195,1.1704557,0.85546958,1.284041L0.85546958,8.1257553C0.85546958,8.3614693,1.0474696,8.5534697,1.284041,8.5534697L10.698898,8.5534697C10.812484,8.5534697,10.921405,8.5082893,11.001641,8.4278927C11.081878,8.3474941,11.12684,8.2384834,11.126613,8.124898L11.125755,8.1257553ZM8.2242641,2.9305966C8.340663,2.8240275,8.5062122,2.7900517,8.6551762,2.8421595C8.8041401,2.8942676,8.9124146,3.0240269,8.937006,3.1799145C8.9615965,3.3358018,8.8985252,3.4925909,8.7728357,3.5880251L5.3271217,6.4568825C5.1574678,6.5988693,4.9074478,6.587708,4.7511215,6.4311681L3.1791215,4.8583107C3.0188398,4.6901245,3.0221267,4.4247456,3.1865244,4.260581C3.3509221,4.0964155,3.6163056,4.0935054,3.7842643,4.254025L5.0811214,5.5508823L8.2251215,2.9305966L8.2242641,2.9305966Z" fill-rule="evenodd" fill="#05975B" fill-opacity="1"/></g></g></svg>