<svg xmlns="http://www.w3.org/2000/svg" xmlns:xlink="http://www.w3.org/1999/xlink" fill="none" version="1.1" width="14" height="14" viewBox="0 0 14 14"><defs><clipPath id="master_svg0_1005_021534"><rect x="0" y="0" width="14" height="14" rx="0"/></clipPath></defs><g clip-path="url(#master_svg0_1005_021534)"><g><path d="M10.325910546875,13.986381875C8.301786446875,13.982338875,6.663722046875,12.339061875,6.666109546875,10.314933875C6.668498046875,8.290805775,8.310436246875,6.651397675,10.334564546875,6.652131575C12.358694546875,6.652865375,13.999443546875,8.293461775,14.000363546875,10.317588875C13.987437546875,12.340633875,12.348974546875,13.976571875,10.325910546875,13.986381875ZM10.325910546875,7.524377775C8.797724746875,7.517236275,7.530337846875,8.705549275,7.439149846875,10.231028875C7.351592046875,11.715858875,8.751193046875,13.114127875,10.238685546875,13.114127875L10.325910546875,13.114127875C11.893281546875,13.117443875,13.137123546875,11.795279875,13.038220546875,10.231028875C13.125780546875,8.832758875,11.900961546875,7.610937575,10.325910546875,7.524377775ZM11.113269546875,10.317588875L11.812404546875,10.317588875L11.812404546875,10.843603875L10.849929546875,10.843603875L10.675145546875,11.103282875L10.675145546875,11.193171875L11.812404546875,11.193171875L11.812404546875,11.715858875L10.675145546875,11.715858875L10.675145546875,12.588111875L9.976010346875,12.588111875L9.976010346875,11.715858875L8.838750846875,11.715858875L8.838750846875,11.193171875L9.976010346875,11.193171875L9.976010346875,11.016723875L9.801226646875,10.757043875L8.838750846875,10.757043875L8.838750846875,10.231028875L9.537884746875,10.231028875L8.925642946875,9.272213975C8.859918546875,9.091566075,8.737074846875,8.937280675,8.575742746875,8.832757975L9.365430846875,8.832757975C9.399773646875,8.987662275,9.458788846875,9.136039775,9.540215446875,9.272213975L10.239350546875,10.407476875L10.938485546875,9.272213975C11.020054546875,9.136107475,11.079078546875,8.987707175,11.113269546875,8.832757975L11.900961546875,8.832757975C11.812117546875,8.999458275,11.693403546875,9.148416475,11.550728546875,9.272213975L11.113269546875,10.317588875ZM2.364762546875,8.659639375L5.427639046875,8.659639375C5.674861446875,8.643959075,5.879880946875,8.848509775,5.864764646875,9.095766975C5.822627046875,9.317213075,5.649180446875,9.490263975,5.427639046875,9.531894675L2.364762546875,9.531894675C2.117497946875,9.547553075,1.912398646875,9.343077675,1.927304046875,9.095766975C1.970003946875,8.874498375,2.143364646875,8.701664875,2.364762546875,8.659639375ZM1.927304046875,3.769024875C1.912399546875,3.521713975,2.117498446875,3.317239275,2.364762546875,3.332897875L9.365433646875,3.332897875C9.606417646875,3.332731475,9.801860846875,3.528040675,9.801860846875,3.769024575C9.801860846875,4.0100085750000005,9.606417646875,4.205317975,9.365433646875,4.205152075L2.364762546875,4.205152075C2.129712546875,4.191147775,1.942024446875,4.004031375,1.927304046875,3.769024875ZM6.826575246875,6.738683675L2.365429146875,6.738683675C2.124562746875,6.738683675,1.929301946875,6.543423175,1.929301946875,6.302556475C1.929301946875,6.061690375,2.124562746875,5.866429775,2.365429146875,5.866429775L6.826575246875,5.866429775C7.067441446875,5.866429775,7.262701946875,6.061690375,7.262701946875,6.302556475C7.262701946875,6.543423175,7.067441446875,6.738683675,6.826575246875,6.738683675ZM11.375944546875,5.866429775C11.206359546875,5.891735075,11.048874546875,5.773357875,11.026044546875,5.603421675L11.026044546875,1.411941575C11.038338546875,1.116884575,10.796107546875,0.874191225,10.501028546875,0.885925765L1.402619846875,0.885925765C1.096527146875,0.843914035,0.835009456875,1.105929275,0.877602936875,1.411941575L0.877602936875,12.328432875C0.865593076875,12.622862875,1.108246346875,12.864438875,1.402619846875,12.851118875L6.476674546875,12.851118875C6.631690046875,12.896967875,6.738307046875,13.039033875,6.739016546875,13.200686875C6.764729946875,13.370072875,6.646500146875,13.527613875,6.476674546875,13.550253875L1.139944946875,13.550253875C0.516870976875,13.540127875,0.013907396875,13.038046875,0.002685546875,12.414991875L0.002685546875,1.148933775C0.013907173875,0.525878545,0.516870976875,0.0237982,1.139944946875,0.013671875L10.676143546875,0.013671875C11.299217546875,0.023798476,11.802180546875,0.525878605,11.813404546875,1.148933775L11.813404546875,5.603421675C11.713554546875,5.751366175,11.553437546875,5.847631475,11.375944546875,5.866429775Z" fill="#FFFFFF" fill-opacity="1" style="mix-blend-mode:passthrough"/></g></g></svg>