<svg xmlns="http://www.w3.org/2000/svg" xmlns:xlink="http://www.w3.org/1999/xlink" fill="none" version="1.1" width="13.995699882507324" height="12.62838077545166" viewBox="0 0 13.995699882507324 12.62838077545166"><g><path d="M13.995656,4.8905883C13.996847,4.6011343,13.951649,4.3133597,13.861777,4.0382085C13.862167,4.0312524,13.862167,4.0242796,13.861777,4.0173235C13.856024,3.9882858,13.847383,3.9598951,13.835985,3.932575L12.653205,0.98484576C12.425729,0.37001494,11.826879,-0.027232829,11.17198,0.0022738099L2.8655415,0.0022738099C2.2267723,-0.033546615,1.6411334,0.35687765,1.4285154,0.96028697L0.15731263,3.9645071C0.14984721,3.9874773,0.1436934,4.0108538,0.138881,4.0345225C-0.19659784,5.0549994,0.087122686,6.1774325,0.8672201,6.9159222L0.8672201,11.330144C0.86448336,12.048265,1.4473261,12.631108,2.165448,12.628371L11.660807,12.628371C12.373569,12.625674,12.950325,12.047815,12.951662,11.335051L12.951662,7.0780468C13.616443,6.5473719,14.001206,5.7411871,13.995656,4.8905883ZM11.66204,11.604029L2.1691341,11.604029C2.0131176,11.604712,1.8860888,11.478786,1.8854103,11.32277L1.8854103,7.5152893C2.1770749,7.6045089,2.4807088,7.6484175,2.7856998,7.6454821C3.6029503,7.6450663,4.3781428,7.2830982,4.9031305,6.6567702C5.9967189,7.9703398,8.0137405,7.9703398,9.1073294,6.6567702C9.6338549,7.2831025,10.411458,7.6431026,11.229692,7.6393428C11.471565,7.6396594,11.712667,7.6120448,11.948204,7.5570478L11.948204,11.316632C11.953145,11.479306,11.821063,11.613067,11.65834,11.610182L11.66204,11.604029ZM12.071037,6.4455147C11.809554,6.5783086,11.519204,6.6441393,11.226018,6.637105C10.612586,6.6388593,10.04288,6.3197703,9.7239084,5.7957845C9.6903429,5.7182879,9.6447487,5.6465793,9.588809,5.5833092C9.4653502,5.4474683,9.2883368,5.3728857,9.1048899,5.3794146C8.9182758,5.372776,8.7383308,5.4492536,8.6135979,5.5882158C8.5595436,5.6510577,8.5148621,5.721386,8.4809389,5.7970176C7.8096209,6.9221635,6.1799817,6.9221635,5.5086632,5.7970176C5.4766836,5.7282052,5.4353528,5.6641393,5.3858433,5.6066356C5.1208019,5.3354578,4.6876888,5.3256402,4.4106317,5.5845299C4.3516169,5.6507955,4.3039002,5.726315,4.2693925,5.8080645C3.7707129,6.5871959,2.7677317,6.8696218,1.9357737,6.4651799C1.3594446,6.1588354,0.99941212,5.5592551,0.99986607,4.9065666C1.0003501,4.7101293,1.03313,4.5151072,1.0968941,4.3293056C1.0968941,4.315793,1.1054873,4.3010602,1.1091737,4.2850943L2.3619573,1.3238528C2.3877494,1.2476975,2.4651377,1.0180233,2.8532498,1.0180233L11.168294,1.0180233C11.397965,0.99857271,11.613724,1.1303151,11.701344,1.343505L12.874287,4.2629762C12.874287,4.2838616,12.884112,4.3047342,12.889032,4.3207121C13.171828,5.1356287,12.823711,6.0355277,12.066118,6.4479809L12.071037,6.4455147Z" fill="#FFFFFF" fill-opacity="1" style="mix-blend-mode:passthrough"/></g></svg>