<svg xmlns="http://www.w3.org/2000/svg" xmlns:xlink="http://www.w3.org/1999/xlink" fill="none" version="1.1" width="14" height="14" viewBox="0 0 14 14"><defs><clipPath id="master_svg0_1005_64498"><rect x="0" y="0" width="14" height="14" rx="0"/></clipPath></defs><g><g clip-path="url(#master_svg0_1005_64498)"><g><path d="M13.995656,5.5751586125C13.996847,5.2857046125,13.951649,4.9979300125,13.861777,4.7227788125C13.862167,4.7158227125,13.862167,4.7088499125,13.861777,4.7018938125C13.856024,4.6728561125,13.847383,4.6444654125,13.835985,4.6171453125L12.653205,1.6694160725C12.425729,1.0545852525,11.826879,0.6573374835,11.17198,0.6868441224L2.8655415,0.6868441224C2.2267723,0.6510236975,1.6411334,1.0414479625,1.4285154,1.6448572824999999L0.15731263,4.6490774125000005C0.14984721,4.6720476125,0.1436934,4.6954241125,0.138881,4.7190928125C-0.19659784,5.7395697125,0.087122686,6.8620028125,0.8672201,7.6004925125L0.8672201,12.0147143125C0.86448336,12.7328353125,1.4473261,13.3156783125,2.165448,13.3129413125L11.660807,13.3129413125C12.373569,13.3102443125,12.950325,12.7323853125,12.951662,12.0196213125L12.951662,7.7626171125C13.616443,7.2319422125,14.001206,6.4257574125,13.995656,5.5751586125ZM11.66204,12.2885993125L2.1691341,12.2885993125C2.0131176,12.2892823125,1.8860888,12.1633563125,1.8854103,12.0073403125L1.8854103,8.1998596125C2.1770749,8.289079212499999,2.4807088,8.3329878125,2.7856998,8.330052412499999C3.6029503,8.3296366125,4.3781428,7.9676685125,4.9031305,7.3413405125C5.9967189,8.6549101125,8.0137405,8.6549101125,9.1073294,7.3413405125C9.6338549,7.9676728125,10.411458,8.327672912499999,11.229692,8.3239131125C11.471565,8.3242297125,11.712667,8.2966151125,11.948204,8.2416181125L11.948204,12.0012023125C11.953145,12.1638763125,11.821063,12.2976373125,11.65834,12.2947523125L11.66204,12.2885993125ZM12.071037,7.1300850125C11.809554,7.2628789125,11.519204,7.3287096125,11.226018,7.3216753125C10.612586,7.3234296125,10.04288,7.0043406125,9.7239084,6.4803548125C9.6903429,6.4028582125,9.6447487,6.3311496125,9.588809,6.2678795125C9.4653502,6.1320386125,9.2883368,6.0574560125,9.1048899,6.0639849125C8.9182758,6.0573463125,8.7383308,6.1338239125,8.6135979,6.2727861125C8.5595436,6.3356280125,8.5148621,6.4059563125,8.4809389,6.4815879125C7.8096209,7.6067338125,6.1799817,7.6067338125,5.5086632,6.4815879125C5.4766836,6.4127755125,5.4353528,6.3487096125,5.3858433,6.2912059125C5.1208019,6.0200281125,4.6876888,6.0102105125,4.4106317,6.2691002125C4.3516169,6.3353658125,4.3039002,6.4108853125,4.2693925,6.4926348125C3.7707129,7.2717662125,2.7677317,7.5541921125,1.9357737,7.1497502125C1.3594446,6.8434057125,0.99941212,6.2438254125,0.99986607,5.5911369125C1.0003501,5.3946996125,1.03313,5.1996775125,1.0968941,5.0138759125C1.0968941,5.0003633125,1.1054873,4.9856305125,1.1091737,4.9696646125L2.3619573,2.0084231125C2.3877494,1.9322678125,2.4651377,1.7025936125,2.8532498,1.7025936125L11.168294,1.7025936125C11.397965,1.6831430225,11.613724,1.8148854125,11.701344,2.0280753125L12.874287,4.9475465125C12.874287,4.9684319125,12.884112,4.9893045125,12.889032,5.0052824125C13.171828,5.8201990125,12.823711,6.7200980125,12.066118,7.1325512125L12.071037,7.1300850125Z" fill="#666666" fill-opacity="1" style="mix-blend-mode:passthrough"/></g></g></g></svg>