<svg xmlns="http://www.w3.org/2000/svg" xmlns:xlink="http://www.w3.org/1999/xlink" fill="none" version="1.1" width="22" height="22" viewBox="0 0 22 22"><defs><clipPath id="master_svg0_337_15180"><rect x="6" y="6" width="10" height="10" rx="0"/></clipPath></defs><g><g><path d="M11,19C6.582,19,3,15.4185,3,11C3,6.5815000999999995,6.582,3,11,3C15.4185,3,19,6.5815000999999995,19,11C19,15.4185,15.4185,19,11,19L11,19Z" fill-rule="evenodd" fill="#DB6A0F" fill-opacity="1"/><path d="M3.22197485,18.778302Q6.4438105,22,11,22Q15.556514,22,18.778256,18.778258Q22,15.556517,22,11Q22,6.4434848,18.778257,3.22174215Q15.556516,0,11,0Q6.4438107,2.0000000011677344e-7,3.22197556,3.22169638Q0,6.4435325,0,10.9999962Q2.0000000011677344e-7,15.556465,3.22197485,18.778302ZM3,11C3,15.4185,6.582,19,11,19C15.4185,19,19,15.4185,19,11C19,6.5815000999999995,15.4185,3,11,3C6.582,3,3,6.5815000999999995,3,11Z" fill-rule="evenodd" fill="#FBFBFB" fill-opacity="1"/></g><g clip-path="url(#master_svg0_337_15180)"><g><path d="M6.95873302,9.8058848C7.6126261,7.76921099,9.8102925,6.57998499,11.949812900000001,7.13725631C14.1444511,7.70887589,15.4468508,9.9016848,14.8588037,12.0350175C14.2707453,14.168350199999999,12.0149212,15.4343662,9.820282,14.862747200000001C8.8429418,14.6081758,8.0144894,14.0228558,7.4641012,13.2213125C7.3239554,13.0172129,7.3805513000000005,12.7413025,7.5905159,12.6050596C7.8004926,12.4688277,8.0843322,12.5238438,8.2244782,12.727943400000001C8.652810800000001,13.351728399999999,9.2960243,13.8061852,10.0568976,14.004364500000001C11.763835,14.448957400000001,13.5183716,13.4642777,13.9757414,11.8050227C14.4331112,10.1457679,13.4201341,8.4402437,11.7131968,7.99565065C10.0726881,7.56836027,8.388224600000001,8.461253899999999,7.8535652,10.00437L7.9947402,9.9251904C8.2133627,9.8024955,8.492928,9.8753073,8.619149,10.0878224C8.7453821,10.3003495,8.6704655,10.5721049,8.4518433,10.6948006L7.3321774,11.3231883C7.113543,11.4458833,6.83398974,11.3730717,6.70775676,11.1605449L6.061322469,10.0721562C5.935089394,9.8596292,6.0099937553,9.5878849,6.22862816,9.4651783C6.44726261,9.3424833,6.72681588,9.4152951,6.85303676,9.6278222L6.95873302,9.8058848Z" fill="#FFFFFF" fill-opacity="1" style="mix-blend-mode:passthrough"/></g></g></g></svg>