<svg xmlns="http://www.w3.org/2000/svg" xmlns:xlink="http://www.w3.org/1999/xlink" fill="none" version="1.1" width="22" height="22" viewBox="0 0 22 22"><g><g><g><g><ellipse cx="11" cy="11" rx="11" ry="11" fill="#FCFCFC" fill-opacity="1"/></g><g style="opacity:0.5;"><ellipse cx="11" cy="11" rx="8" ry="8" fill="#E5E5E5" fill-opacity="1"/></g></g><g><path d="" fill="#4181FF" fill-opacity="1"/><path d="M10.86432,13.87688L14.804020000000001,9.501878Q14.89704,9.398576,14.94687,9.268796Q14.996690000000001,9.139017,14.996690000000001,9.00000229712Q14.996690000000001,8.9803811,14.99566,8.960789Q14.987860000000001,8.811809,14.92365,8.677154Q14.85943,8.542499,14.74857,8.442669Q14.64527,8.349644,14.51549,8.299822Q14.38571,8.25,14.246690000000001,8.25Q14.227070000000001,8.25,14.20748,8.251026Q14.0585,8.258825,13.92384,8.323043Q13.78919,8.387261,13.68936,8.498122L13.689160000000001,8.498344L10.306989999999999,12.25421L8.557565,10.31149L8.557331,10.31123Q8.457501,10.20037,8.322846,10.13616Q8.188191,10.07194,8.0392109,10.06414Q8.0196191,10.06311,8.000000479255,10.06311Q7.9834186,10.06311,7.9668534,10.063839999999999Q7.836523,10.06961,7.715794,10.11905Q7.595066,10.16848,7.498122,10.25578Q7.387262,10.35561,7.323043,10.49027Q7.258825,10.62492,7.2510259999999995,10.7739Q7.25,10.79349,7.25,10.81311Q7.25,10.82969,7.250733,10.846260000000001Q7.256498,10.97659,7.305934,11.09732Q7.35537,11.21805,7.442669,11.31499L9.74966,13.87688Q9.77593,13.90606,9.805109999999999,13.93233Q9.86,13.981760000000001,9.92348,14.01953Q9.98696,14.057310000000001,10.05659,14.08197Q10.12622,14.10663,10.19933,14.11723Q10.27243,14.127839999999999,10.3462,14.12397Q10.41997,14.12011,10.49156,14.10193Q10.56316,14.08375,10.62983,14.051960000000001Q10.69651,14.02016,10.755700000000001,13.97596Q10.81489,13.93177,10.86432,13.87688Z" fill-rule="evenodd" fill="#999999" fill-opacity="0.699999988079071"/></g></g></g></svg>