<svg xmlns="http://www.w3.org/2000/svg" xmlns:xlink="http://www.w3.org/1999/xlink" fill="none" version="1.1" width="10" height="11.826171875" viewBox="0 0 10 11.826171875"><g><g><path d="M0.216261,11.7657C0.284698,11.8054,0.361347,11.8259,0.437996,11.8259C0.511908,11.8259,0.58582,11.8067,0.651519,11.7698L5.04243,9.31289L9.34574,11.7684C9.48125,11.8464,9.64687,11.8451,9.78237,11.767C9.91651,11.6877,10,11.5439,10,11.3879L10,1.20449C10,0.540652,9.45935,0,8.79551,0L1.20449,0C0.540652,0,0,0.540652,0,1.20449L0,11.3879C0,11.5439,0.0821243,11.6877,0.216261,11.7657ZM0.875977,1.20545C0.875977,1.02478,1.0238,0.876953,1.20447,0.876953L8.79413,0.876953C8.9748,0.876953,9.12262,1.02478,9.12262,1.20545L9.12262,10.6333L5.26141,8.42965C5.12728,8.35437,4.9644,8.353,4.83026,8.42828L0.875977,10.6415L0.875977,1.20545Z" fill-rule="evenodd" fill="#8C8C8C" fill-opacity="1"/></g><g><path d="M7.072272294616699,4.056939281433105L2.831919294616699,4.056939281433105C2.619764294616699,4.056939281433105,2.448672294616699,3.8858472814331053,2.448672294616699,3.6736932814331054C2.448672294616699,3.4615382814331053,2.619764294616699,3.2904462814331055,2.831919294616699,3.2904462814331055L7.072272294616699,3.2904462814331055C7.284422294616699,3.2904462814331055,7.4555122946167,3.4615382814331053,7.4555122946167,3.6736932814331054C7.4555122946167,3.8858472814331053,7.2830522946167,4.056939281433105,7.072272294616699,4.056939281433105Z" fill="#8C8C8C" fill-opacity="1"/></g></g></svg>