<svg xmlns="http://www.w3.org/2000/svg" xmlns:xlink="http://www.w3.org/1999/xlink" fill="none" version="1.1" width="9" height="12.47663688659668" viewBox="0 0 9 12.47663688659668"><g transform="matrix(1,0,0,-1,0,24.95327377319336)"><path d="M4.70121,12.56729618659668L8.93432,17.41806688659668C9.0029,17.49636688659668,9.01931,17.60755688659668,8.97629,17.70234688659668C8.93327,17.79712688659668,8.83876,17.85797688659668,8.73467,17.85790688659668L6.65399,17.85790688659668C6.52168,17.85676688659668,6.40928,17.954446886596678,6.39196,18.08562688659668C6.23598,19.21487688659668,5.2939,24.20913688659668,0.833072,24.94843688659668C0.713167,24.971636886596677,0.592961,24.90983688659668,0.541928,24.798936886596678C0.490894,24.68793688659668,0.522232,24.55653688659668,0.617829,24.48053688659668C1.3821,23.88163688659668,2.38033,22.721136886596682,2.66108,20.65606688659668C2.76886,19.81713688659668,2.82097,18.971996886596678,2.81705,18.12617688659668C2.81709,17.97869688659668,2.69934,17.85817688659668,2.5519,17.854786886596678L0.265329,17.854786886596678C0.161238,17.85485688659668,0.0667351,17.79400688659668,0.0237124,17.69922688659668C-0.0193104,17.60443688659668,-0.00289434,17.49324688659668,0.0656837,17.41494688659668L4.30191,12.56729618659668C4.40757,12.44641708659668,4.59555,12.44641708659668,4.70121,12.56729618659668Z" fill="#20C25F" fill-opacity="1"/></g></svg>