<svg xmlns="http://www.w3.org/2000/svg" xmlns:xlink="http://www.w3.org/1999/xlink" fill="none" version="1.1" width="9" height="12.47663688659668" viewBox="0 0 9 12.47663688659668"><g><path d="M4.70121,0.0906593L8.93432,4.94143C9.0029,5.01973,9.01931,5.13092,8.97629,5.22571C8.93327,5.32049,8.83876,5.38134,8.73467,5.38127L6.65399,5.38127C6.52168,5.38013,6.40928,5.47781,6.39196,5.60899C6.23598,6.73824,5.2939,11.7325,0.833072,12.4718C0.713167,12.495,0.592961,12.4332,0.541928,12.3223C0.490894,12.2113,0.522232,12.0799,0.617829,12.0039C1.3821,11.405,2.38033,10.2445,2.66108,8.17943C2.76886,7.3405,2.82097,6.49536,2.81705,5.64954C2.81709,5.50206,2.69934,5.38154,2.5519,5.37815L0.265329,5.37815C0.161238,5.37822,0.0667351,5.31737,0.0237124,5.22259C-0.0193104,5.1278,-0.00289434,5.01661,0.0656837,4.93831L4.30191,0.0906593C4.40757,-0.0302198,4.59555,-0.0302198,4.70121,0.0906593Z" fill="#EB3737" fill-opacity="1"/></g></svg>