<svg xmlns="http://www.w3.org/2000/svg" xmlns:xlink="http://www.w3.org/1999/xlink" fill="none" version="1.1" width="14" height="14" viewBox="0 0 14 14"><defs><clipPath id="master_svg0_69_16877"><rect x="-0.5" y="-0.5" width="15" height="15" rx="3.5"/></clipPath></defs><g clip-path="url(#master_svg0_69_16877)"><rect x="0" y="0" width="14" height="14" rx="3" fill="#D0D8EB" fill-opacity="1"/><g><path d="M7,11.375C4.58375,11.375,2.625,9.41622,2.625,7C2.625,4.58375,4.58375,2.625,7,2.625C9.41622,2.625,11.375,4.58375,11.375,7C11.375,9.41622,9.41622,11.375,7,11.375ZM6.39708,5.43138C6.36834,5.41222,6.33456,5.40199,6.3,5.40199C6.20336,5.40199,6.125,5.48034,6.125,5.57699L6.125,8.42301C6.125,8.45757,6.13524,8.49135,6.1544,8.52009C6.207990000000001,8.60051,6.31667,8.622250000000001,6.39708,8.56861L8.531600000000001,7.1456C8.55081,7.13278,8.5673,7.11629,8.58012,7.09708C8.633759999999999,7.01667,8.61201,6.90799,8.531600000000001,6.8544L6.39708,5.43138Z" fill="#FFFFFF" fill-opacity="1" style="mix-blend-mode:passthrough"/></g></g></svg>