<svg xmlns="http://www.w3.org/2000/svg" xmlns:xlink="http://www.w3.org/1999/xlink" fill="none" version="1.1" width="18" height="18" viewBox="0 0 18 18"><defs><clipPath id="master_svg0_54_0612"><rect x="18" y="18" width="18" height="18" rx="0"/></clipPath></defs><g transform="matrix(-1,0,0,-1,36,36)" clip-path="url(#master_svg0_54_0612)"><g><path d="M33.24205134375,20.4814453125L20.74365234375,20.4814453125C20.43304687375,20.4814453125,20.18115234375,20.7333398425,20.18115234375,21.0439453125C20.18115234375,21.3545508425,20.43304687375,21.6064453125,20.74365234375,21.6064453125L33.24205134375,21.6064453125C33.55265634375,21.6064453125,33.80455134375,21.3545508425,33.80455134375,21.0439453125C33.80455134375,20.7333398425,33.55265634375,20.4814453125,33.24205134375,20.4814453125ZM33.25646534375,24.4602537125L25.08755874375,24.4602537125C24.77695324375,24.4602537125,24.52505874375,24.7121482125,24.52505874375,25.0227542125C24.52505874375,25.3333592125,24.77695324375,25.5852542125,25.08755874375,25.5852542125L33.25664134375,25.5852542125C33.56724634375,25.5852542125,33.81914134375,25.3333592125,33.81914134375,25.0227542125C33.81914134375,24.7121482125,33.56724634375,24.4602537125,33.25646534375,24.4602537125ZM33.25646534375,28.0874996125L25.08755874375,28.0874996125C24.77695324375,28.0874996125,24.52505874375,28.3393950125,24.52505874375,28.6499996125C24.52505874375,28.9606056125,24.77695324375,29.2125006125,25.08755874375,29.2125006125L33.25664134375,29.2125006125C33.56724634375,29.2125006125,33.81914134375,28.9606056125,33.81914134375,28.6499996125C33.81914134375,28.3393950125,33.56724634375,28.0874996125,33.25646534375,28.0874996125ZM33.25646534375,32.066309312499996L20.75806641375,32.066309312499996C20.44746092375,32.066309312499996,20.19556640775,32.3182033125,20.19556640775,32.628809312499996C20.19556640775,32.9394143125,20.44746092375,33.191309312499996,20.75806641375,33.191309312499996L33.25646534375,33.191309312499996C33.567070343750004,33.191309312499996,33.81896534375,32.9394143125,33.81896534375,32.628809312499996C33.81896534375,32.3180273125,33.56724634375,32.066309312499996,33.25646534375,32.066309312499996ZM20.41652344375,29.2125006125L20.41652344375,24.4602537125L23.484609643749998,27.0644536125L20.41652344375,29.2125006125Z" fill="#666666" fill-opacity="1" style="mix-blend-mode:passthrough"/></g></g></svg>