<svg xmlns="http://www.w3.org/2000/svg" xmlns:xlink="http://www.w3.org/1999/xlink" fill="none" version="1.1" width="13.9296875" height="13.9296875" viewBox="0 0 13.9296875 13.9296875"><g transform="matrix(1,0,0,-1,0,27.859375)"><path d="M12.693749,16.859375L10.998437,16.859375L10.998437,15.165625200000001C10.998437,14.48437506,10.443748,13.9296875,9.7625008,13.9296875L1.2359377,13.9296875C0.55468756,13.9296875,0,14.48437506,0,15.165625200000001L0,23.6937494C0,24.3749995,0.55468756,24.9296875,1.2359377,24.9296875L2.9296875,24.9296875L2.9296875,26.6234365C2.9296875,27.3046875,3.484375,27.8593755,4.1656246,27.8593755L12.693749,27.8593755C13.375,27.8593755,13.929688,27.3046875,13.929688,26.6234365L13.929688,18.0953121C13.928124,17.4140625,13.373437,16.859375,12.693749,16.859375ZM1.2359377,23.928123499999998C1.1062499,23.928123499999998,1,23.8218746,1,23.692188299999998L1,15.165625200000001C1,15.0359374,1.1062499,14.9296875,1.2359377,14.9296875L9.7640619,14.9296875C9.8937502,14.9296875,9.999999,15.0359374,9.999999,15.165625200000001L9.999999,23.6937494C9.999999,23.8234377,9.8937502,23.929686500000003,9.7640619,23.929686500000003L1.2359377,23.929686500000003L1.2359377,23.928123499999998ZM12.928124,26.6234365C12.928124,26.7531235,12.821876,26.8593755,12.692187,26.8593755L4.1656246,26.8593755C4.0359373,26.8593755,3.9296875,26.7531235,3.9296875,26.6234365L3.9296875,24.9281245L9.7640619,24.9281245C10.445312,24.9281245,11,24.3734355,11,23.692188299999998L11,17.859375L12.693749,17.859375C12.823436,17.859375,12.929688,17.9656248,12.929688,18.0953121L12.929688,26.6234365L12.928124,26.6234365Z" fill="#0064FF" fill-opacity="1"/></g></svg>