<svg xmlns="http://www.w3.org/2000/svg" xmlns:xlink="http://www.w3.org/1999/xlink" fill="none" version="1.1" width="54" height="54" viewBox="0 0 54 54"><defs><clipPath id="master_svg0_319_15239"><rect x="0" y="0" width="54" height="54" rx="0"/></clipPath></defs><g><g clip-path="url(#master_svg0_319_15239)"><g><path d="M44.198997,42.36318171875L44.198997,11.772184818749999C44.198997,8.991185218750001,43.659,8.37018491875,40.877998,8.37018491875L3.3209999,8.37018491875C0.56699991,8.370185418750001,0,8.85618521875,0,11.772184818749999L0,42.36318171875C0,45.22518571875,0.56699991,45.76518271875,3.3209999,45.76518271875L40.878002,45.76518271875C43.632,45.76518271875,44.199001,45.22518571875,44.198997,42.36318171875ZM33.129002,14.39118381875C35.369999,14.39118381875,37.179001,16.28118371875,37.179001,18.57618471875C37.179001,20.87118371875,35.342999,22.76118471875,33.129002,22.76118471875C30.887999,22.76118471875,29.078997,20.87118371875,29.078997,18.57618471875C29.078997,16.22718471875,30.887999,14.39118381875,33.129002,14.39118381875ZM5.2109995,37.80018571875C8.9099998,32.26518271875,15.443999,23.08518371875,17.118,23.08518371875C18.711,23.08518371875,24.192001,30.51018371875,26.703001,33.12918271875C26.703001,33.12918271875,29.889,28.75518371875,31.535999,28.75518371875C33.209999,28.75518371875,38.906998,37.77318171875,38.960999,37.80018571875L5.2109995,37.80018571875ZM14.256,5.04918570875C12.122999,4.64418570875,11.258999,4.80618581875,10.745999,6.31818591875L20.736,6.31818591875L14.256,5.04918570875Z" fill="#9CC5FF" fill-opacity="1" style="mix-blend-mode:passthrough"/></g><g><path d="M51.164976445312504,12.257888201875L46.115976345312504,11.285888671875L46.115976345312504,42.389886671875004C46.115976345312504,43.820884671875,46.034976045312504,45.413886671875,44.9279785453125,46.520885671875C43.8749804453125,47.573882671875,42.308979545312496,47.654884671875,40.9589796453125,47.654884671875L37.8809814453125,47.654884671875L44.360981445312504,48.923885671875C47.0339794453125,49.463886671875,47.708979645312496,49.058887671875,48.2489794453125,46.223884671875L53.8109804453125,16.145886371875C54.3239784453125,13.472886071875,53.891981445312496,12.770886571875,51.164976445312504,12.257888201875Z" fill="#5299E8" fill-opacity="1" style="mix-blend-mode:passthrough"/></g></g></g></svg>