<svg xmlns="http://www.w3.org/2000/svg" xmlns:xlink="http://www.w3.org/1999/xlink" fill="none" version="1.1" width="16" height="16" viewBox="0 0 16 16"><g><g><path d="M15.411787,1.9870174L11.701931,1.9870174L11.701931,1.3966519C11.701931,0.62530231,11.090439,0,10.336126,0L5.637331,0C4.8842349,0.0029965511,4.274457,0.62654698,4.2715263,1.3966519L4.2715263,1.9870174L0.55097872,1.9870174C0.24086678,2.0083852,0,2.2718472,0,2.5896823C0,2.9075174,0.24086678,3.1709793,0.55097872,3.192347L2.307013,3.192347L2.307013,13.797062C2.307013,14.381317,2.5339816,14.941644,2.9379878,15.354774C3.3419943,15.767905,3.8899446,16,4.4612956,16L11.50147,16C12.072822,16,12.620771,15.767905,13.024778,15.354774C13.428784,14.941644,13.655753,14.381317,13.655753,13.797062L13.655753,3.1896141L15.411787,3.1896141C15.73654,3.1896141,15.999804,2.9204035,15.999804,2.5883157C16.002737,2.4279411,15.941728,2.2732501,15.830811,2.1598284C15.719893,2.0464065,15.56862,1.9840189,15.411787,1.9870174ZM5.4944544,1.2508857C5.4567018,1.2894906,5.4358153,1.3420628,5.4365416,1.3966534L5.4365416,1.9870189L10.536259,1.9870189L10.536259,1.3966534C10.536984,1.3420628,10.516098,1.2894906,10.478346,1.2508857C10.440594,1.2122808,10.389182,1.1909225,10.335797,1.1916653L5.6370025,1.1916653C5.5836177,1.1909225,5.5322065,1.2122808,5.4944544,1.2508857ZM11.501821,14.797403C12.042091,14.797403,12.480067,14.349535,12.480067,13.797061L12.480067,3.1896133L3.4833984,3.1896133L3.4833984,13.797061C3.4848669,14.348911,3.9219842,14.795901,4.4616461,14.797403L11.501821,14.797403ZM4.6488023,5.9829197C4.6339765,5.7579212,4.7429519,5.5432143,4.9314137,5.4261088C5.1198759,5.3090034,5.3564367,5.3090034,5.5448985,5.4261088C5.7333608,5.5432143,5.8423362,5.7579212,5.8275104,5.9829197L5.8275104,12.386745C5.8275104,12.720344,5.5630493,12.990778,5.2368197,12.990778C4.9151874,12.980742,4.6571579,12.715685,4.6488023,12.386745L4.6488023,5.9829197ZM10.136106,5.9829197C10.121281,5.7579212,10.230256,5.5432143,10.418718,5.4261088C10.607181,5.3090034,10.843741,5.3090034,11.032204,5.4261088C11.220665,5.5432143,11.329641,5.7579212,11.314815,5.9829197L11.314815,12.386745C11.314818,12.719278,11.051982,12.989273,10.726797,12.990778C10.400568,12.990778,10.136106,12.720344,10.136106,12.386745L10.136106,5.9829197ZM7.3935609,12.386747C7.3928499,12.546694,7.4544873,12.70034,7.5648394,12.813697C7.6751909,12.927053,7.8251624,12.99078,7.9815784,12.990778C8.1379948,12.99078,8.2879658,12.927053,8.3983173,12.813697C8.5086689,12.70034,8.5703068,12.546694,8.5695963,12.386747L8.5695963,5.9829206C8.5695963,5.6508327,8.3063316,5.3816223,7.9815784,5.3816223C7.6568251,5.3816223,7.3935609,5.6508327,7.3935609,5.9829206L7.3935609,12.386747Z" fill-rule="evenodd" fill="#EB3737" fill-opacity="1"/></g></g></svg>