<svg xmlns="http://www.w3.org/2000/svg" xmlns:xlink="http://www.w3.org/1999/xlink" fill="none" version="1.1" width="16" height="16" viewBox="0 0 16 16"><defs><clipPath id="master_svg0_253_24504"><rect x="0" y="0" width="16" height="16" rx="0"/></clipPath></defs><g clip-path="url(#master_svg0_253_24504)"><g><path d="M4.3333335,2.333333L4.3333335,1L11.000002,1L11.000002,2.333333L14.333334,2.333333L14.333334,3.666666L13.000001,3.666666L13.000001,13.666665C13.000001,14.034867,12.701531,14.333334,12.333334,14.333334L3,14.333334C2.6318134,14.333334,2.333333,14.034867,2.333333,13.666665L2.333333,3.666666L1,3.666666L1,2.333333L4.3333335,2.333333ZM3.666666,3.666666L3.666666,13.000001L11.666664,13.000001L11.666664,3.666666L3.666666,3.666666ZM5.6666665,5.6666665L7.0000005,5.6666665L7.0000005,11.000002L5.6666665,11.000002L5.6666665,5.6666665ZM8.333332500000001,5.6666665L9.6666651,5.6666665L9.6666651,11.000002L8.333332500000001,11.000002L8.333332500000001,5.6666665Z" fill="#EB3737" fill-opacity="1"/></g></g></svg>