<svg xmlns="http://www.w3.org/2000/svg" xmlns:xlink="http://www.w3.org/1999/xlink" fill="none" version="1.1" width="16" height="16" viewBox="0 0 16 16"><g><g><path d="M8,16C3.582,16,0,12.4185,0,8C0,3.5815001,3.582,0,8,0C12.4185,0,16,3.5815001,16,8C16,12.4185,12.4185,16,8,16L8,16Z" fill-rule="evenodd" fill="#5DB300" fill-opacity="1"/></g><g><path d="M7.8643196,10.876878699999999L11.804020399999999,6.5018784400000005Q11.8970447,6.39857578,11.946867000000001,6.26879621Q11.996688800000001,6.1390166,11.9966893,6.000002297121Q11.996688800000001,5.980381062,11.9956632,5.960788954Q11.9878635,5.81180876,11.923645,5.67715377Q11.859427499999999,5.54249877,11.748567600000001,5.44266891Q11.6452646,5.34964448,11.5154853,5.29982245Q11.3857055,5.25000036,11.2466912,5.24999994Q11.2270699,5.25,11.207478,5.25102568Q11.0584974,5.25882518,10.9238424,5.32304335Q10.7891874,5.3872614500000005,10.6893578,5.4981215L10.689157999999999,5.49834365L7.3069880000000005,9.2542107L5.55756515,7.3114934L5.55733114,7.3112335Q5.45750132,7.2003734,5.32284626,7.1361554Q5.18819119,7.0719370999999995,5.039210901,7.0641376000000005Q5.019619109,7.0631118,5.00000047925465,7.0631118Q4.983418608,7.0631119,4.966853417,7.0638447Q4.83652294,7.0696104,4.71579444,7.1190462Q4.59506589,7.1684821,4.4981215599999995,7.2557807Q4.38726151,7.3556104,4.32304341,7.4902655Q4.2588253,7.6249204,4.25102568,7.7739007Q4.25,7.7934928,4.25,7.8131118Q4.25,7.8296928,4.2507328399999995,7.8462583Q4.2564984599999995,7.9765887,4.30593431,8.097317199999999Q4.35537016,8.2180457,4.44266886,8.3149903L6.749657,10.876878699999999Q6.7759317,10.9060569,6.8051096,10.932331600000001Q6.8600018,10.9817619,6.9234829,11.019533599999999Q6.9869637,11.0573053,7.0565939,11.081966900000001Q7.126224000000001,11.1066284,7.1993276999999996,11.117232300000001Q7.2724314,11.1278358,7.346199,11.1239738Q7.4199667,11.120111900000001,7.4915633,11.1019325Q7.5631599000000005,11.0837536,7.6298344,11.0519562Q7.6965088999999995,11.0201588,7.7556989000000005,10.975965Q7.814889,10.931771300000001,7.8643196,10.876878699999999Z" fill-rule="evenodd" fill="#FFFFFF" fill-opacity="1"/></g></g></svg>