<svg xmlns="http://www.w3.org/2000/svg" xmlns:xlink="http://www.w3.org/1999/xlink" fill="none" version="1.1" width="16" height="16" viewBox="0 0 16 16"><defs><clipPath id="master_svg0_6_2699"><rect x="0" y="0" width="16" height="16" rx="0"/></clipPath></defs><g clip-path="url(#master_svg0_6_2699)"><g><path d="M3.0055,8.999500000000001L3.0055,12.4995C3.0055,12.7756,3.22936,12.9995,3.5055,12.9995L12.5,12.9995C12.7761,12.9995,13,12.7756,13,12.4995L13,8.999500000000001L14,8.999500000000001L14,12.4995C14,13.3275,13.3275,14,12.501,14L3.505,14C2.677111,13.9989,2.0063266,13.3279,2.00550003,12.5L2,8.999500000000001L3.0055,8.999500000000001ZM8.5405,2.5L8.5405,9.721L10.9945,7.2585L11.7395,8.006499999999999L8.0135,11.745L4.2875,8.006499999999999L5.032500000000001,7.2585L7.486,9.720500000000001L7.4865,2.5L8.5405,2.5Z" fill="#0064FF" fill-opacity="1"/></g></g></svg>