<svg xmlns="http://www.w3.org/2000/svg" xmlns:xlink="http://www.w3.org/1999/xlink" fill="none" version="1.1" width="12" height="12" viewBox="0 0 12 12"><g><path d="M6,12C2.6863124,12,0,9.3136873,0,6C0,2.6863124,2.6863124,0,6,0C9.3136873,0,12,2.6863124,12,6C12,9.3136873,9.3136873,12,6,12ZM6.5625,2.8125C6.5625,2.5018125,6.3106875,2.25,6,2.25C5.6893129,2.25,5.4375,2.5018125,5.4375,2.8125L5.4375,6.9375C5.4375,7.2481875,5.6893129,7.5,6,7.5C6.3106875,7.5,6.5625,7.2481875,6.5625,6.9375L6.5625,2.8125ZM6,8.625C5.6893129,8.625,5.4375,8.876811,5.4375,9.1875C5.4375,9.498188,5.6893129,9.75,6,9.75C6.3106875,9.75,6.5625,9.498188,6.5625,9.1875C6.5625,8.876811,6.3106875,8.625,6,8.625Z" fill="#DB6A0F" fill-opacity="1"/></g></svg>