<svg xmlns="http://www.w3.org/2000/svg" xmlns:xlink="http://www.w3.org/1999/xlink" fill="none" version="1.1" width="16" height="16" viewBox="0 0 16 16"><g><g><path d="M16,8Q16,8.1963882,15.990363,8.3925409Q15.980727,8.5886936,15.961478,8.7841368Q15.942228,8.9795799,15.913412,9.1738424Q15.884595,9.3681059,15.846281,9.5607214Q15.807967,9.7533369,15.760248,9.94384Q15.71253,10.134344,15.655521,10.322277Q15.598513,10.510208,15.532351,10.695117Q15.466188,10.880026,15.391034,11.061466Q15.31588,11.242905,15.231913,11.420439Q15.147945,11.597973,15.055368,11.771173Q14.962791,11.944372,14.861827,12.11282Q14.760862,12.281267,14.651754,12.444559Q14.542646,12.607851,14.425658,12.765593Q14.30867,12.923334,14.184082,13.075146Q14.059494,13.226955,13.927608,13.37247Q13.795721,13.517984,13.656853,13.656853Q13.517984,13.795721,13.372471,13.927608Q13.226955,14.059494,13.075146,14.184082Q12.923334,14.30867,12.765593,14.425658Q12.607851,14.542646,12.444559,14.651754Q12.281267,14.760862,12.11282,14.861827Q11.944372,14.962791,11.771173,15.055369Q11.597973,15.147945,11.420439,15.231914Q11.242905,15.31588,11.061466,15.391035Q10.880026,15.46619,10.695118,15.532351Q10.510208,15.598513,10.322277,15.655522Q10.134344,15.71253,9.94384,15.760249Q9.7533369,15.807968,9.5607214,15.846281Q9.3681059,15.884595,9.1738434,15.913411Q8.9795799,15.942228,8.7841377,15.961478Q8.5886936,15.980727,8.3925409,15.990364Q8.1963882,16,8,16Q7.8036108,16,7.6074586,15.990363Q7.4113064,15.980727,7.2158632,15.961478Q7.0204191,15.942228,6.8261557,15.913412Q6.6318922,15.884595,6.4392772,15.846281Q6.2466617,15.807967,6.0561581,15.760248Q5.8656549,15.71253,5.6777225,15.655521Q5.4897895,15.598513,5.3048806,15.532351Q5.1199713,15.466188,4.9385319,15.391034Q4.757092,15.31588,4.5795584,15.231913Q4.4020252,15.147945,4.2288256,15.055368Q4.0556259,14.962791,3.8871777,14.861827Q3.7187293,14.760862,3.5554378,14.651754Q3.3921463,14.542646,3.2344055,14.425658Q3.0766644,14.30867,2.9248538,14.184082Q2.7730432,14.059494,2.6275284,13.927608Q2.4820137,13.795721,2.3431456,13.656853Q2.2042775,13.517984,2.072391,13.372471Q1.9405042,13.226955,1.8159164,13.075146Q1.6913285,12.923334,1.5743396,12.765593Q1.4573509,12.607851,1.348243,12.444559Q1.239135,12.281267,1.138171,12.11282Q1.0372069,11.944372,0.94462985,11.771173Q0.85205269,11.597973,0.76808554,11.420439Q0.68411845,11.242905,0.60896367,11.061466Q0.53380889,10.880026,0.46764743,10.695118Q0.40148598,10.510208,0.3444773,10.322277Q0.28746858,10.134344,0.23974995,9.94384Q0.19203132,9.7533369,0.15371774,9.5607214Q0.11540415,9.3681059,0.086587913,9.1738434Q0.057771668,8.9795799,0.038522184,8.7841377Q0.019272698,8.5886936,0.009636349,8.3925409Q0,8.1963882,0,8Q0,7.8036108,0.009636349,7.6074586Q0.019272698,7.4113064,0.038522184,7.2158632Q0.057771668,7.0204191,0.086587906,6.8261557Q0.11540415,6.6318922,0.15371774,6.4392772Q0.19203132,6.2466617,0.23974994,6.0561581Q0.28746858,5.8656549,0.3444773,5.6777225Q0.40148598,5.4897895,0.46764743,5.3048806Q0.53380889,5.1199713,0.60896367,4.9385319Q0.68411845,4.757092,0.76808554,4.5795584Q0.85205263,4.4020252,0.94462979,4.2288256Q1.0372069,4.0556259,1.138171,3.8871777Q1.239135,3.7187293,1.348243,3.5554378Q1.4573509,3.3921463,1.5743396,3.2344055Q1.6913284,3.0766644,1.8159163,2.9248538Q1.9405041,2.7730432,2.0723908,2.6275284Q2.2042775,2.4820137,2.3431456,2.3431456Q2.4820137,2.2042775,2.6275284,2.072391Q2.7730432,1.9405042,2.9248538,1.8159164Q3.0766644,1.6913285,3.2344055,1.5743396Q3.3921466,1.4573509,3.555438,1.348243Q3.7187295,1.239135,3.8871777,1.138171Q4.0556259,1.0372069,4.2288256,0.94462985Q4.4020252,0.85205269,4.5795584,0.76808554Q4.757092,0.68411845,4.9385319,0.60896367Q5.1199713,0.53380889,5.3048801,0.46764743Q5.4897895,0.40148598,5.6777225,0.3444773Q5.8656549,0.28746858,6.0561581,0.23974995Q6.2466617,0.19203132,6.4392772,0.15371774Q6.6318922,0.11540415,6.8261557,0.086587913Q7.0204191,0.057771668,7.2158632,0.038522184Q7.4113064,0.019272698,7.6074591,0.009636349Q7.8036108,0,8,0Q8.1963882,0,8.3925409,0.009636349Q8.5886936,0.019272698,8.7841368,0.038522184Q8.9795799,0.057771668,9.1738424,0.086587906Q9.3681059,0.11540415,9.5607214,0.15371774Q9.7533369,0.19203132,9.94384,0.23974994Q10.134344,0.28746858,10.322277,0.3444773Q10.510208,0.40148598,10.695117,0.46764743Q10.880026,0.53380889,11.061466,0.60896367Q11.242905,0.68411845,11.420439,0.76808554Q11.597973,0.85205263,11.771173,0.94462979Q11.944372,1.0372069,12.11282,1.138171Q12.281267,1.239135,12.444559,1.348243Q12.607851,1.4573509,12.765593,1.5743396Q12.923334,1.6913284,13.075146,1.8159163Q13.226955,1.9405041,13.37247,2.0723908Q13.517984,2.2042775,13.656853,2.3431456Q13.795721,2.4820137,13.927608,2.6275284Q14.059494,2.7730432,14.184082,2.9248538Q14.30867,3.0766644,14.425658,3.2344055Q14.542646,3.3921466,14.651754,3.555438Q14.760862,3.7187295,14.861827,3.8871777Q14.962791,4.0556259,15.055369,4.2288256Q15.147945,4.4020252,15.231914,4.5795584Q15.31588,4.757092,15.391035,4.9385319Q15.46619,5.1199713,15.532351,5.3048801Q15.598513,5.4897895,15.655522,5.6777225Q15.71253,5.8656549,15.760249,6.0561581Q15.807968,6.2466617,15.846281,6.4392772Q15.884595,6.6318922,15.913411,6.8261557Q15.942228,7.0204191,15.961478,7.2158632Q15.980727,7.4113064,15.990364,7.6074591Q16,7.8036108,16,8Z" fill="#E43636" fill-opacity="1"/></g><g><path d="M11.231854389703368,6.03079188L11.232316489703368,6.03033006Q11.337805289703368,5.92484084,11.394895989703368,5.78701255Q11.451985789703368,5.64918426,11.451985789703368,5.5Q11.451985789703368,5.35081567,11.394895989703368,5.2129873Q11.337805789703369,5.07515895,11.232316489703368,4.96966976Q11.228884189703368,4.96623749,11.225408089703368,4.96284997Q11.120367989703368,4.86049473,10.984508989703368,4.80524743Q10.84864948970337,4.75,10.70198678970337,4.75Q10.552802589703369,4.75,10.414974189703369,4.80709028Q10.27714588970337,4.8641806800000005,10.17165708970337,4.96966976L10.17119498970337,4.97013211L5.172118899703369,9.9692082L5.171656729703369,9.9696703Q5.066167529703369,10.0751591,5.009077189703369,10.2129874Q4.951986789703369,10.3508158,4.951986789703369,10.5Q4.951986789703369,10.6491842,5.009077189703369,10.7870121Q5.066167589703369,10.9248405,5.171656729703369,11.0303297Q5.277145949703369,11.1358185,5.414974239703369,11.192909199999999Q5.552802529703369,11.249998999999999,5.701986789703369,11.249998999999999Q5.851171049703369,11.249998999999999,5.988999339703369,11.1929088Q6.126827629703369,11.1358185,6.232316849703369,11.0303297L6.232778669703369,11.0298676L11.231854389703368,6.03079188Z" fill-rule="evenodd" fill="#FFFFFF" fill-opacity="1"/></g><g><path d="M6.232471109703369,4.96982419L6.232316849703369,4.96966994Q6.126827629703369,4.86418074,5.988999339703369,4.8070904Q5.851171049703369,4.75000006,5.701986789703369,4.75000006Q5.552802519703369,4.75000006,5.414974209703369,4.8070904Q5.277145919703369,4.86418074,5.171656729703369,4.96966994Q5.066167529703369,5.07515913,5.009077189703369,5.21298742Q4.951986789703369,5.35081573,4.951986789703369,5.5Q4.951986789703369,5.64918426,5.009077129703369,5.78701255Q5.066167529703369,5.92484084,5.171656729703369,6.03033006L5.171810979703369,6.03048432L10.171022389703369,11.029695L10.17165708970337,11.0303297Q10.27714588970337,11.1358185,10.414974189703369,11.192909199999999Q10.552802589703369,11.249998999999999,10.70198678970337,11.249998999999999Q10.85117098970337,11.249998999999999,10.98899888970337,11.1929088Q11.12682728970337,11.1358185,11.232316489703368,11.0303297Q11.337805289703368,10.9248405,11.394895989703368,10.7870121Q11.451985789703368,10.6491842,11.451985789703368,10.5Q11.45198628970337,10.3508158,11.394895989703368,10.2129869Q11.337806189703368,10.0751591,11.232316989703369,9.9696698L11.23168178970337,9.9690356L6.232471109703369,4.96982419Z" fill-rule="evenodd" fill="#FFFFFF" fill-opacity="1"/></g></g></svg>