<svg xmlns="http://www.w3.org/2000/svg" xmlns:xlink="http://www.w3.org/1999/xlink" fill="none" version="1.1" width="16" height="16" viewBox="0 0 16 16"><defs><clipPath id="master_svg0_232_29861"><rect x="0" y="0" width="16" height="16" rx="0"/></clipPath></defs><g clip-path="url(#master_svg0_232_29861)"><g><path d="M16,0L0,0L0,16L16,16L16,0Z" fill="#FFFFFF" fill-opacity="1" style="mix-blend-mode:passthrough"/></g><g><path d="M13.718,4.7099998L9.9629998,1.26300001C9.7835217,1.10006927,9.549396999999999,1.010488052,9.307000200000001,1.012000046L3.4070001000000003,1C3.4070001000000003,1,2,1.088000029,2,2.3129999999999997L2,13.687C2,13.687,2.061999969,15,3.4070001000000003,15L12.591999,15C12.591999,15,14,14.938,14,13.686999L14,5.335C13.997926,5.0963125,13.895587,4.8694963,13.718,4.7099998ZM9.9819999,2.4860001L12.441999,4.7620001L10.4499998,4.7620001C10.4499998,4.7620001,9.98,4.7420001,9.98,4.3240001C9.9819999,3.9070001,9.9819999,2.4860002000000003,9.9819999,2.4860001ZM13.061999,13.684999C13.061999,14.125,12.591999,14.123,12.591999,14.123L3.4070001000000003,14.123C2.96800017,14.123,2.9370001,13.684999,2.9370001,13.684999L2.9370001,2.3099999C2.9370001,1.90199995,3.4070001000000003,1.87199998,3.4070001000000003,1.87199998L9.0429997,1.87199998L9.0429997,4.322C9.0429997,5.5349998,10.4509993,5.6349998,10.4509993,5.6349998L13.061,5.6349998L13.061,13.684999L13.061999,13.684999Z" fill="#666666" fill-opacity="1"/></g><g><path d="M4.85400390625,7.5C4.85400390625,7.77700013,5.06400389625,8,5.32400420625,8L10.384003606250001,8C10.64400390625,8,10.85400390625,7.7749999800000005,10.85400390625,7.5C10.85400390625,7.22499999,10.64400390625,7,10.384003606250001,7L5.32400420625,7C5.06400421625,7,4.85400421142577,7.22499999,4.85400390625,7.5ZM10.384003606250001,9L5.32400420625,9C5.06400421625,9,4.85400421142577,9.2249999,4.85400421142577,9.5C4.85400421142577,9.774999900000001,5.06400421625,10,5.32400420625,10L10.384003606250001,10C10.64400390625,10,10.85400390625,9.774999900000001,10.85400390625,9.5C10.85400390625,9.2249999,10.64400390625,9,10.384003606250001,9ZM10.384003606250001,11L5.32400420625,11C5.06400421625,11,4.85400421142577,11.2249999,4.85400421142577,11.5C4.85400421142577,11.7750001,5.06400421625,12,5.32400420625,12L10.384003606250001,12C10.64400390625,12,10.85400390625,11.7750001,10.85400390625,11.5C10.85400390625,11.2249999,10.64400390625,11,10.384003606250001,11Z" fill="#666666" fill-opacity="1"/></g></g></svg>