<svg xmlns="http://www.w3.org/2000/svg" xmlns:xlink="http://www.w3.org/1999/xlink" fill="none" version="1.1" width="24" height="24" viewBox="0 0 24 24"><defs><clipPath id="master_svg0_471_32854"><rect x="0" y="0" width="24" height="24" rx="0"/></clipPath></defs><g clip-path="url(#master_svg0_471_32854)"><g><path d="M20.58126075,10.9440012L17.54885975,5.0124011C17.152600749999998,4.2373132,16.35536575,3.7497029,15.48485975,3.7500012L8.58125875,3.7500012C7.71725845,3.7500012,6.92525865,4.2300012,6.52685885,4.995601199999999L3.43085875,10.9272013C3.07979535,11.5993214,3.07979535,12.400682,3.43085875,13.072802L6.52685885,19.004402C6.92613175,19.769907,7.71788315,20.249952,8.58125875,20.250002L15.48485975,20.250002C16.356057749999998,20.250002,17.15285875,19.762802,17.54885975,18.987602L20.58126075,13.054802C20.91991975,12.392376,20.91991975,11.607626,20.58126075,10.9440012L20.58126075,10.9440012ZM18.88445675,19.670401C18.23177175,20.947075,16.918695749999998,21.750307,15.48485975,21.750002L8.58125875,21.750002C7.15907475,21.749802,5.85492375,20.958986,5.19725895,19.698002L2.10125881,13.7664C1.5235388,12.659656,1.5235388,11.3403435,2.10125881,10.2335997L5.19725895,4.3008001C5.85525085,3.04027951,7.15933605,2.249966689516,8.58125875,2.25L15.48485975,2.25C16.91885975,2.25,18.23166075,3.05399996,18.88446075,4.3295999L21.91686075,10.2623997C22.47485775,11.3543997,22.47485775,12.646801,21.91686075,13.7376L18.88445675,19.670401Z" fill="#5A5A68" fill-opacity="1" style="mix-blend-mode:passthrough"/></g><g><path d="M12.000390525,16.3500242140625C9.597951925,16.3500242140625,7.650390625,14.402463914062501,7.650390625,12.0000243140625C7.650390625,9.5975857140625,9.597951925,7.6500244140625,12.000390525,7.6500244140625C14.402829125,7.6500244140625,16.350389525,9.5975857140625,16.350389525,12.0000243140625C16.350389525,14.402463914062501,14.402829125,16.3500242140625,12.000390525,16.3500242140625ZM12.000390525,14.8500242140625C13.574401824999999,14.8500242140625,14.850389525,13.574035614062499,14.850389525,12.0000243140625C14.850389525,10.4260120140625,13.574401824999999,9.1500236140625,12.000390525,9.1500244140625C10.426378225,9.1500236140625,9.150389825,10.4260120140625,9.150389825,12.0000243140625C9.150389825,13.574035614062499,10.426378225,14.8500242140625,12.000390525,14.8500242140625Z" fill="#5A5A68" fill-opacity="1" style="mix-blend-mode:passthrough"/></g></g></svg>