<svg xmlns="http://www.w3.org/2000/svg" xmlns:xlink="http://www.w3.org/1999/xlink" fill="none" version="1.1" width="4" height="7" viewBox="0 0 4 7"><g transform="matrix(0,1,-1,0,4,-3)"><path d="M6.8535533,3.8535533L9.8531017,0.85400444L9.8535528,0.8535533799999999Q9.9238787,0.78322726,9.9619389,0.69134173Q9.999999500000001,0.599456184,9.999999500000001,0.5Q9.999999500000001,0.40054372,9.961939300000001,0.30865811Q9.9238791,0.21677249999999998,9.8535533,0.14644632000000002Q9.783227,0.07612032000000002,9.6913409,0.038060189999999994Q9.5994549,2.9999999984209325e-8,9.499998999999999,2.9999999984209325e-8Q9.400543200000001,6.00000000239298e-8,9.3086576,0.03806028Q9.216772599999999,0.07612047,9.1464467,0.14644656L9.1462593,0.14663416L6.5,2.7928934L3.85361293,0.14650616L3.85355338,0.14644662000000003Q3.78322726,0.07612047,3.69134173,0.03806025000000002Q3.599456184,0,3.5,0Q3.400543816,0,3.30865827,0.03806021999999998Q3.21677274,0.07612047,3.14644662,0.14644662000000003Q3.07612047,0.21677274000000002,3.03806025,0.30865827Q3,0.400543816,3,0.5Q3,0.599456184,3.03806022,0.69134173Q3.07612047,0.78322726,3.14644662,0.8535533799999999L3.14650616,0.8536129299999999L6.1464467,3.8535533Q6.2167726000000005,3.9238794,6.308658100000001,3.9619396Q6.4005437,3.9999998,6.499999799999999,3.9999998Q6.599455799999999,3.9999998,6.691341400000001,3.9619396Q6.7832272,3.9238794,6.8535533,3.8535533Z" fill-rule="evenodd" fill="#666666" fill-opacity="1"/></g></svg>