<svg xmlns="http://www.w3.org/2000/svg" xmlns:xlink="http://www.w3.org/1999/xlink" fill="none" version="1.1" width="200" height="200" viewBox="0 0 200 200"><defs><clipPath id="master_svg0_98_1481"><rect x="0" y="0" width="200" height="200" rx="0"/></clipPath><linearGradient x1="0.5" y1="0" x2="0.5" y2="1" id="master_svg1_98_00467"><stop offset="0.7142857182770967%" stop-color="#F3F8FC" stop-opacity="1"/><stop offset="100%" stop-color="#F9FAFF" stop-opacity="0.49000000953674316"/></linearGradient></defs><g clip-path="url(#master_svg0_98_1481)"><g><path d="M0,38.823631349121094L0,123.5291003491211C0,139.9994103491211,13.333203,153.3328203491211,29.803711,153.3328203491211L74.509766,153.3328203491211L76.078514,190.9798803491211L120,153.3328203491211L170.19589,153.3328203491211C186.6662,153.3328203491211,199.9996,139.9996003491211,199.9996,123.5291003491211L199.9996,38.823631349121094C199.9996,22.353319349121094,186.6664,9.019920349121094,170.19589,9.019920349121094L29.804493,9.019922256469695C13.334181,9.019922256469695,0.00078201294,22.353126349121094,0,38.823631349121094L0,38.823631349121094ZM128.62695,85.8822253491211C128.62695,78.0388643491211,134.90137,71.7646483491211,142.74454,71.7646483491211C150.58771,71.7646483491211,156.86212,78.0390623491211,156.86212,85.8822253491211C156.86212,93.72558634912109,150.58771,99.9998013491211,142.74454,99.9998013491211C134.90117,99.9998013491211,128.62695,93.72538734912109,128.62695,85.8822253491211ZM85.489845,85.8822253491211C85.489845,78.0388643491211,91.764259,71.7646483491211,99.607422,71.7646483491211C107.45058,71.7646483491211,113.725,78.0390623491211,113.725,85.8822253491211C113.725,93.72558634912109,107.45058,99.9998013491211,99.607422,99.9998013491211C91.764061,99.9998013491211,85.489845,93.72538734912109,85.489845,85.8822253491211ZM43.137501,85.8822253491211C43.137501,78.0388643491211,49.411915,71.7646483491211,57.255081,71.7646483491211C65.098251,71.7646483491211,71.372658,78.0390623491211,71.372658,85.8822253491211C71.372658,93.72558634912109,65.098244,99.9998013491211,57.255081,99.9998013491211C49.411522,99.9998013491211,43.137501,93.72538734912109,43.137501,85.8822253491211Z" fill="url(#master_svg1_98_00467)" fill-opacity="1" style="mix-blend-mode:passthrough"/></g></g></svg>