<svg xmlns="http://www.w3.org/2000/svg" xmlns:xlink="http://www.w3.org/1999/xlink" fill="none" version="1.1" width="11.995999336242676" height="11.994001388549805" viewBox="0 0 11.995999336242676 11.994001388549805"><g><path d="M9.0047493,0C9.4167147,0,9.7546864,0.34497124,9.7546864,0.75693691L9.7536869,2.2528121L11.246562,2.2528121C11.62453,2.2528121,11.939505,2.5367885,11.9895,2.900758L11.996499,3.0027497L11.996499,11.244063C11.996499,11.656029,11.658527,11.994001,11.246561,11.994001L2.9912505,11.994001C2.5775275,11.992902,2.2424121,11.657786,2.241313,11.244063L2.241313,9.7471876L0.74943745,9.7471876C0.37571886,9.7458782,0.059678938,9.4703007,0.0074993698,9.1002407L0.00049995701,8.9992504L0.00049995701,0.75693691C0.00049995701,0.34497124,0.33747184,0,0.75043738,0L9.0047493,0ZM11.243562,3.0027497L2.9962499,3.0027497L2.9962499,11.241062L11.243562,11.241062L11.243562,3.0017495L11.243562,3.0027497ZM7.4928751,4.4976249L7.4928751,6.7474375L9.7416878,6.7474375L9.7416878,7.497375L7.493875,7.497375L7.493875,9.7441883L6.7419376,9.7441883L6.7419376,7.497375L4.4941254,7.497375L4.4941254,6.7474375L6.736938,6.7474375L6.736938,4.4976249L7.4928751,4.4976249ZM8.9957495,0.75693691L0.74943745,0.75693691L0.74943745,8.9992504L2.241313,8.99825L2.241313,3.0027497C2.241313,2.6247811,2.5252893,2.3098075,2.890259,2.2598116L2.9912505,2.2528121L8.99475,2.2528121L8.99475,0.75693691L8.9957495,0.75693691Z" fill="#FFFFFF" fill-opacity="1" style="mix-blend-mode:passthrough"/></g></svg>