<svg xmlns="http://www.w3.org/2000/svg" xmlns:xlink="http://www.w3.org/1999/xlink" fill="none" version="1.1" width="11.10009765625" height="12.0999755859375" viewBox="0 0 11.10009765625 12.0999755859375"><g><g><path d="M2.036465350126953,0.04998779296875C1.802066330126953,0.05049705504875,1.612458467536953,0.24225734296875,1.612965504328313,0.47829556296875C1.612965504328313,0.71552628296875,1.802715570126953,0.90660333296875,2.036465350126953,0.90660333296875L9.780465130126952,0.90660333296875C10.014214530126953,0.90660333296875,10.203965230126952,1.09860329296875,10.203965230126952,1.33583429296875L10.203965230126952,10.02752689296875C10.221753130126952,10.24951579296875,10.405843730126954,10.42053879296875,10.627006530126954,10.42053879296875C10.848170330126953,10.42053879296875,11.032261830126954,10.24951479296875,11.050048830126952,10.02752689296875L11.050048830126952,1.33583389296875C11.050047830126953,0.62506473296875,10.481714230126952,0.04998779296875,9.781380630126954,0.04998779296875L2.036465350126953,0.04998779296875L2.036465350126953,0.04998779296875Z" fill="#FFFFFF" fill-opacity="1" style="mix-blend-mode:passthrough"/><path d="M10.713923430126954,0.39124652296875Q10.327693930126953,-0.00001221103125000067,9.781381630126953,-0.00001221103125000067L2.036465380126953,-0.00001221103125000067Q1.8397451001269531,0.00041507196874999985,1.7010713441269532,0.14066310196874998Q1.562541086126953,0.28076604296874996,1.5629656651269532,0.47840303296875Q1.5629655011269532,0.67664087296875,1.701528400126953,0.81658995296875Q1.840155010126953,0.95660340296875,2.036465380126953,0.95660340296875L9.780465130126952,0.95660340296875Q9.934931730126953,0.95660340296875,10.044288630126953,1.06738329296875Q10.153965030126953,1.17848749296875,10.153965030126953,1.33583429296875L10.153965030126953,10.02952769296875L10.154125230126953,10.03152089296875Q10.169019730126953,10.21740779296875,10.305189130126953,10.34391079296875Q10.441493030126953,10.47053979296875,10.627007530126953,10.47053979296875Q10.812521030126954,10.47053979296875,10.948824930126953,10.34390979296875Q11.084996230126952,10.21740579296875,11.099889730126954,10.03152089296875L11.100049030126954,10.02952769296875L11.100049030126954,1.33583389296875Q11.100048030126953,0.78239983296875,10.713923430126954,0.39124652296875ZM2.036465380126953,0.09998779696875L9.781380630126954,0.09998779696875Q10.285892530126953,0.09998779696875,10.642756430126953,0.46149832296875Q11.000047730126953,0.82344311296875,11.000048630126953,1.33583389296875L11.000048630126953,10.02547929296875Q10.987710930126953,10.17129279296875,10.880763030126953,10.27064779296875Q10.773238230126953,10.37053979296875,10.627007530126953,10.37053979296875Q10.480774830126952,10.37053979296875,10.373251930126953,10.27064879296875Q10.266301130126953,10.17128979296875,10.253965330126952,10.02546789296875L10.253965330126952,1.33583429296875Q10.253965330126952,1.13744469296875,10.115454630126953,0.99713123296875Q9.976731330126952,0.85660338296875,9.780465130126952,0.85660338296875L2.036465380126953,0.85660338296875Q1.881868240126953,0.85660338296875,1.772590130126953,0.74623209296875Q1.662965506126953,0.63551080296875,1.662965439126953,0.47818818296875Q1.662629414126953,0.32176780296875,1.7721800101269531,0.21097356296875Q1.8815871201269532,0.10032440696875,2.036465380126953,0.09998779696875Z" fill-rule="evenodd" fill="#FFFFFF" fill-opacity="1"/></g><g><path d="M2.1647985246440418,6.905680136334229C2.1647985246440418,6.669372836334229,2.3545485850378416,6.477372436334228,2.5882983850378416,6.477372436334228L4.280464845037842,6.477372436334228L4.280464845037842,4.335834266334229C4.280464845037842,4.0986035163342285,4.4692981450378415,3.9066033363342285,4.7030479450378415,3.9066033363342285C4.936797845037842,3.9066033363342285,5.126547845037842,4.0986035163342285,5.126547845037842,4.3349111063342285L5.126547845037842,6.477372436334228L6.818714145037842,6.477372436334228C7.0524640450378415,6.477372436334228,7.2412977450378415,6.669372836334229,7.2412977450378415,6.905680136334229C7.242311445037842,7.1417191363342285,7.053113445037842,7.333893036334229,6.818714145037842,7.334911136334228L5.126548545037842,7.334911136334228L5.126548545037842,9.476449936334228C5.1275637450378415,9.712848636334229,4.937807345037841,9.905172836334229,4.703048745037842,9.905681136334229C4.469007945037841,9.90466353633423,4.279957745037842,9.713052736334228,4.280465345037841,9.477373636334228L4.280465345037841,7.334911136334228L2.5882986750378416,7.334911136334228C2.353540645037842,7.334402336334229,2.163784451037842,7.142078836334228,2.1647985246440418,6.905680136334229Z" fill="#FFFFFF" fill-opacity="1" style="mix-blend-mode:passthrough"/><path d="M2.252541915037842,7.243871736334229Q2.3912776150378416,7.384484536334229,2.588190315037842,7.384911336334229L4.230465445037842,7.384911336334229L4.230465145037842,9.47726583633423Q4.230040345037842,9.674602536334229,4.368208845037842,9.814642436334228Q4.506520545037842,9.95482733633423,4.703157145037842,9.955681336334228Q4.900070445037842,9.955255536334228,5.038805945037842,9.81464193633423Q5.177398445037841,9.674174336334229,5.176548745037842,9.476450436334229L5.176548745037842,7.384911336334229L6.818931545037842,7.384910836334228Q7.015542945037842,7.384056836334229,7.153916345037842,7.2435071363342285Q7.292146645037842,7.103102636334229,7.291298345037842,6.905680436334229Q7.291298345037842,6.7078452363342285,7.153271645037842,6.567811736334228Q7.014844845037842,6.427372436334228,6.818714145037842,6.427372436334228L5.176548045037842,6.427372436334228L5.176548045037842,4.334911136334228Q5.176548045037842,4.137120516334228,5.038011345037842,3.9969894143342284Q4.899222845037842,3.8566033323342284,4.7030479450378415,3.8566033023342285Q4.506824945037842,3.8566032943342283,4.368464445037842,3.9971845593342286Q4.230464945037841,4.137399436334229,4.230464945037841,4.3358342963342285L4.230464945037841,6.427372436334228L2.588298465037842,6.427372436334228Q2.392124015037842,6.427372436334228,2.253335245037842,6.567758536334228Q2.114798523037842,6.707889836334228,2.114798877037842,6.905465836334228Q2.1139498540378416,7.103404236334228,2.252541915037842,7.243871736334229ZM2.588407065037842,7.284911436334228L2.5882986750378416,7.284911436334228Q2.433144425037842,7.284536336334229,2.323726165037842,7.173637436334229Q2.214125987037842,7.062554136334228,2.214797959037842,6.905894736334229Q2.2147985290378416,6.748976436334228,2.3244493650378417,6.638063436334228Q2.433880895037842,6.527372336334229,2.588298465037842,6.527372336334229L4.330464845037842,6.527372336334229L4.330464845037842,4.3358342963342285Q4.330464845037842,4.178355066334229,4.439735845037841,4.0673299863342285Q4.548712945037842,3.9566033143342283,4.7030479450378415,3.9566033073342286Q4.8574657450378425,3.9566033403342287,4.966897245037842,4.067294346334228Q5.076547845037842,4.178207066334228,5.076547845037842,4.334911136334228L5.076547845037842,6.527372336334229L6.818714145037842,6.527372336334229Q6.973001045037842,6.527372336334229,7.082052745037842,6.638010536334228Q7.191298045037842,6.748844136334228,7.191298045037842,6.905680436334229Q7.191970845037842,7.062316136334228,7.082655445037842,7.173350336334229Q6.973484045037842,7.284238836334229,6.818497145037842,7.284911836334229L5.076548845037841,7.284911436334228L5.076548845037841,9.476450436334229Q5.077221845037842,9.633324136334227,4.967621845037842,9.744407636334229Q4.858165545037842,9.855345236334228,4.702940445037841,9.85568143633423Q4.548515545037842,9.855009036334229,4.439393745037842,9.744409536334228Q4.330128945037842,9.633664636334228,4.330465045037842,9.477481836334228L4.330465345037842,7.284911436334228L2.588407065037842,7.284911436334228Z" fill-rule="evenodd" fill="#FFFFFF" fill-opacity="1"/></g><g><path d="M1.318715328125,1.643218755722046C0.618382098125,1.643218755722046,0.050048828125,2.219218675722046,0.050048828125,2.929987755722046L0.050048828125,10.765064955722046C0.050048828125,11.474911455722046,0.618382098125,12.049987755722047,1.318715328125,12.049987755722047L8.217547428125,12.049987755722047C8.918797528125,12.049987755722047,9.487130128125,11.474911455722046,9.487130128125,10.764141755722045L9.487130128125,2.929987755722046C9.487130128125,2.2192184357220457,8.918796528125,1.644141619032046,8.217547428125,1.644141619032046L1.318715328125,1.643218755722046L1.318715328125,1.643218755722046ZM0.896131988125,2.929987755722046C0.896131988125,2.693680155722046,1.085882028125,2.501680015722046,1.318715328125,2.501680015722046L8.217547428125,2.501680015722046C8.451296828125,2.501680015722046,8.641047428125,2.693679955722046,8.641047428125,2.929987755722046L8.641047428125,10.765064955722046C8.642062228125,11.001463655722047,8.452305828125,11.193789255722045,8.217547428125,11.194296555722046L1.318715328125,11.194296555722046C1.084315528125,11.193278055722045,0.895117048125,11.001105055722046,0.896131988125,10.765064955722046L0.896131988125,2.929987755722046Z" fill="#FFFFFF" fill-opacity="1" style="mix-blend-mode:passthrough"/><path d="M9.150882728125,1.9853915557220458Q8.764470128125,1.5941417177220458,8.217548328125,1.594141911722046L1.318722128125,1.593218751722046Q0.772474948125,1.593218751722046,0.386156348125,1.9849565957220459Q0.00004876012499999832,2.376480455722046,0.00004882412499999933,2.929987755722046L0.00004882412499999933,10.765065955722045Q0.00004882412499999933,11.317887055722046,0.386182548125,11.708854755722045Q0.772479768125,12.099987755722045,1.318715328125,12.099987755722045L8.217548328125,12.099987755722045Q8.764470128125,12.099987755722045,9.150882728125,11.708737755722046Q9.537130328125,11.317655355722046,9.537130328125,10.764141755722045L9.537130328125,2.929987755722046Q9.537130328125,2.376474435722046,9.150882728125,1.9853915557220458ZM1.318708628125,1.6932187597220458L8.217541728125,1.6941416227220458Q8.722683928125,1.6941417567220458,9.079733828125,2.055661025722046Q9.437129928125,2.417531425722046,9.437129928125,2.929987755722046L9.437129928125,10.764141755722045Q9.437129928125,11.276598655722045,9.079733828125,11.638468455722046Q8.722683928125,11.999988755722045,8.217548328125,11.999988755722045L1.318715328125,11.999988755722045Q0.814266388125,11.999988755722045,0.457331748125,11.638584855722046Q0.100048832125,11.276828555722046,0.100048832125,10.765065955722045L0.100048832125,2.929987755722046Q0.100048799125,2.417494355722046,0.457357828125,2.0551730957220458Q0.814304948125,1.6932187597220458,1.318708628125,1.6932187597220458ZM0.846132038125,10.764979155722045L0.846132038125,10.765065955722045Q0.845357718125,10.962564255722047,0.983513118125,11.102892655722046Q1.121886928125,11.243443255722045,1.318715328125,11.244297755722046L8.217655228125,11.244297755722046Q8.414567928125,11.243871455722045,8.553304628125,11.103257855722045Q8.691898328125,10.962788355722045,8.691047628125,10.765065955722045L8.691047628125,2.929987755722046Q8.691047628125,2.732197055722046,8.552511228125,2.592065985722046Q8.413722028125,2.451680065722046,8.217548328125,2.451680065722046L1.318715328125,2.4516801257220457Q1.123135428125,2.451680065722046,0.984527948125,2.592092695722046Q0.846132038125,2.732290955722046,0.846132038125,2.929987755722046L0.846132038125,10.764979155722045ZM1.054773328125,11.032736555722046Q0.945459008125,10.921703055722046,0.946131708125,10.765280455722046L0.946132068125,10.765065955722045L0.946132068125,2.929987755722046Q0.946132068125,2.773333755722046,1.055694628125,2.662344455722046Q1.164936328125,2.551680025722046,1.318715328125,2.551680145722046L8.217548328125,2.551680025722046Q8.371965428125,2.551680025722046,8.481396628125,2.662371055722046Q8.591047328125,2.773283755722046,8.591047328125,2.929987755722046L8.591047328125,10.765065955722045Q8.591719628125,10.921940555722045,8.482120528125,11.033024555722045Q8.372663528125,11.143961655722046,8.217438728125,11.144297355722045L1.318715328125,11.144297355722045Q1.163943328125,11.143623155722047,1.054773328125,11.032736555722046Z" fill-rule="evenodd" fill="#FFFFFF" fill-opacity="1"/></g></g></svg>