<svg xmlns="http://www.w3.org/2000/svg" xmlns:xlink="http://www.w3.org/1999/xlink" fill="none" version="1.1" width="16" height="16" viewBox="0 0 16 16"><defs><mask id="master_svg0_6_2668" style="mask-type:alpha" maskUnits="objectBoundingBox"><g><path d="M0 0C0 0 0 0 0 0L16 0C16 0 16 0 16 0L16 16C16 16 16 16 16 16L0 16C0 16 0 16 0 16Z" fill="#FFFFFF" fill-opacity="1"/></g></mask></defs><g mask="url(#master_svg0_6_2668)"><g><g><path d="M12.37559681186676,4.8799073696136475L5.49238481186676,4.8799073696136475C5.14852981186676,4.8799073696136475,4.86799681186676,5.160450369613647,4.86799681186676,5.504295369613647L4.86799681186676,12.376347369613647C4.86799681186676,12.720197369613647,5.14977981186676,13.000737369613647,5.49238481186676,13.000737369613647L12.37559681186676,13.000737369613647C12.71945681186676,13.000737369613647,12.99999681186676,12.718957369613648,12.99999681186676,12.376347369613647L12.99999681186676,5.504286369613648C13.001236811866761,5.160431369613647,12.71945681186676,4.879897546453647,12.37559681186676,4.8799073696136475ZM12.37311681186676,12.373857369613647L5.49611581186676,12.373857369613647L5.49611581186676,5.504295369613647L12.37311681186676,5.504295369613647L12.37311681186676,12.373857369613647Z" fill="#FFFFFF" fill-opacity="1" style="mix-blend-mode:passthrough"/></g><g><path d="M5.4925999999999995,10.503879999999999L3.623148,10.503879999999999L3.623148,3.631849L10.49892,3.631849L10.49892,4.8855900000000005L11.132,4.8855900000000005L11.132,3.630599C11.132,3.286744,10.85022,3,10.5076,3L3.624388,3C3.280533,3,3,3.287994,3,3.630599L3,10.50264C3,10.846499999999999,3.281783,11.12704,3.624388,11.12704L5.4925999999999995,11.12704L5.4925999999999995,10.503879999999999Z" fill="#FFFFFF" fill-opacity="1" style="mix-blend-mode:passthrough"/></g><g><path d="M11.120667208633423,8.62615279762268L9.246237208633422,8.62615279762268L9.246237208633422,6.750482797622681L8.616887208633424,6.750482797622681L8.616887208633424,8.62615279762268L6.744957208633423,8.62615279762268L6.744957208633423,9.251772797622682L8.619387208633423,9.251772797622682L8.619387208633423,11.126202797622682L9.246247208633424,11.126202797622682L9.246247208633424,9.251772797622682L11.120677208633424,9.251772797622682L11.120667208633423,8.62615279762268Z" fill="#FFFFFF" fill-opacity="1" style="mix-blend-mode:passthrough"/></g></g></g></svg>