<?xml version="1.0" standalone="no"?><!DOCTYPE svg PUBLIC "-//W3C//DTD SVG 1.1//EN" "http://www.w3.org/Graphics/SVG/1.1/DTD/svg11.dtd"><svg t="1763629130221" class="icon" viewBox="0 0 1113 1024" version="1.1" xmlns="http://www.w3.org/2000/svg" p-id="1340" xmlns:xlink="http://www.w3.org/1999/xlink" width="69.5625" height="64"><path d="M1015.969076 181.166038a83.167293 83.167293 0 0 0-69.067175 48.355798 73.455179 73.455179 0 0 0 13.807584 82.87476l-6.903792 34.51896a162.063596 162.063596 0 0 1-158.845726 124.326766 170.98587 170.98587 0 0 1-165.749519-151.941934l-6.903792-96.682344a113.239744 113.239744 0 0 0 48.355798-124.326766A110.051128 110.051128 0 0 0 580.883903 8.571233 115.024198 115.024198 0 0 0 435.875014 126.02346a120.845616 120.845616 0 0 0 48.355798 96.682344l-6.903792 103.586136a164.345358 164.345358 0 0 1-158.845726 151.941934 163.614024 163.614024 0 0 1-158.845727-124.326765l-13.866091-41.3935a73.455179 73.455179 0 0 0 13.807584-82.874759 83.167293 83.167293 0 0 0-69.037921-48.472812 88.608417 88.608417 0 0 0-89.807805 96.799357 110.226648 110.226648 0 0 0 48.355798 62.163383l76.058728 517.989186H981.450115l76.058727-517.989186a110.226648 110.226648 0 0 0 48.268039-62.163383 88.608417 88.608417 0 0 0-89.807805-96.799357z m0 0" fill="#FCB556" p-id="1341"></path><path d="M850.219557 1023.896736H249.355612a123.800205 123.800205 0 0 1-124.326766-124.326766h856.392016a125.4969 125.4969 0 0 1-131.201305 124.326766z m0 0" fill="#FCB556" p-id="1342"></path><path d="M0.819094 264.15781a79.803157 79.803157 0 0 0 82.874759 82.87476 82.874759 82.874759 0 0 0 0-165.749519A79.803157 79.803157 0 0 0 0.819094 264.15781z m0 0" fill="#FFC474" p-id="1343"></path><path d="M1015.969076 181.224544a83.167293 83.167293 0 0 0-69.067175 48.355799 73.455179 73.455179 0 0 0 13.807584 82.874759l-6.903792 34.518961a162.034342 162.034342 0 0 1-158.845726 124.326766 170.98587 170.98587 0 0 1-165.749519-151.941935l-6.903792-96.682343a113.239744 113.239744 0 0 0 48.355798-124.326766A110.051128 110.051128 0 0 0 580.883903 8.571233h-27.556662v849.546731h428.181381l76.058727-517.989186a110.226648 110.226648 0 0 0 48.355799-62.163383 88.608417 88.608417 0 0 0-89.954072-96.740851z m0 0" fill="#FCA52E" p-id="1344"></path><path d="M939.998109 264.15781a82.874759 82.874759 0 1 0 82.845506-82.786999 79.803157 79.803157 0 0 0-82.845506 82.786999zM429.000475 119.148922a124.326766 124.326766 0 1 0 248.653531 0A114.088091 114.088091 0 0 0 615.490624 15.562786a131.903385 131.903385 0 0 0-124.326766 0 128.363729 128.363729 0 0 0-62.163383 103.586136z m0 0" fill="#FFC474" p-id="1345"></path><path d="M553.327241 899.540717V1023.867482h303.883869a123.800205 123.800205 0 0 0 124.326765-124.326765z m0 0" fill="#FCA52E" p-id="1346"></path><path d="M145.769476 208.839713a202.901282 202.901282 0 0 1-110.431421 117.48148 74.596059 74.596059 0 0 0 48.355798 20.711377A79.803157 79.803157 0 0 0 166.568613 264.15781a78.428249 78.428249 0 0 0-20.711377-55.25959z m939.266775 0a202.901282 202.901282 0 0 1-110.489928 117.39372 78.428249 78.428249 0 0 0 55.259591 20.711377 79.803157 79.803157 0 0 0 82.874759-82.87476 138.807177 138.807177 0 0 0-27.615169-55.25959z m-448.922011-172.594804c0 6.903792 6.903792 13.807584 6.903792 20.711376 0 55.259591-69.067175 103.586136-158.845726 103.586136a117.539987 117.539987 0 0 1-48.355799-6.903792 118.388334 118.388334 0 0 0 117.30596 89.807805 123.800205 123.800205 0 0 0 124.326766-124.326766 98.437545 98.437545 0 0 0-41.334993-82.874759z m0 0" fill="#FCA52E" p-id="1347"></path><path d="M42.241847 229.63885a9.565848 9.565848 0 0 0 13.807584 0c6.903792 0 13.807584-6.903792 20.711377-13.807585s6.903792-6.903792 6.903792-13.807584a9.565848 9.565848 0 0 0-13.807584 0c-6.903792 0-13.807584 6.903792-20.711377 13.807584s-6.903792 6.903792-6.903792 13.807585z m0 0l994.614126-6.903793a25.36266 25.36266 0 0 0 20.711376 6.903793 6.757525 6.757525 0 0 0 6.903792-6.903793c0-6.903792-6.903792-6.903792-13.807584-13.807584a25.36266 25.36266 0 0 0-20.711377-6.903792 6.757525 6.757525 0 0 0-6.903792 6.903792 14.860705 14.860705 0 0 0 13.632065 13.807584z m462.641835-193.393941c0 6.903792 20.711376 13.807584 48.355799 13.807584s48.355799-6.903792 48.355798-13.807584a80.505237 80.505237 0 0 0-48.355798-13.807584c-27.615169 0-48.355799 6.903792-48.355799 13.807584z m0 0" fill="#F7EAD0" p-id="1348"></path><path d="M587.699935 657.849484h-69.067175a27.644422 27.644422 0 1 1 0-55.259591h69.067175a29.72141 29.72141 0 0 1 27.615169 27.615169 25.304153 25.304153 0 0 1-27.615169 27.644422z m0 0" fill="#DA3329" p-id="1349"></path><path d="M587.787695 602.589893h-34.460454v55.259591h34.518961a29.72141 29.72141 0 0 0 27.615168-27.615169 25.304153 25.304153 0 0 0-27.673675-27.644422z m0 0" fill="#C11B16" p-id="1350"></path></svg>