<?xml version="1.0" standalone="no"?><!DOCTYPE svg PUBLIC "-//W3C//DTD SVG 1.1//EN" "http://www.w3.org/Graphics/SVG/1.1/DTD/svg11.dtd"><svg t="1763630165494" class="icon" viewBox="0 0 1024 1024" version="1.1" xmlns="http://www.w3.org/2000/svg" p-id="1523" xmlns:xlink="http://www.w3.org/1999/xlink" width="64" height="64"><path d="M259.60156269 433.88281277h-93.75000019a10.82812473 10.82812473 0 0 0-10.82812473 10.85156186v390.2812501c0 5.97656223 4.8515625 10.82812473 10.82812473 10.82812554h93.75000018V433.88281277z m64.9218749-3.3281249v415.2890624h447.09374982a10.82812473 10.82812473 0 0 0 10.80468759-10.82812554V830.74999963l86.484375-324.93749936a97.57031232 97.57031232 0 0 0-97.28906259-93.6093749h-181.12500028l7.54687574-38.71875064c5.15625018-26.62500009 11.32031277-45.28125027 11.32031195-81.56249946V247.53125009c0-53.7890625-43.6640625-71.78906223-97.35937482-71.78906222-53.67187518 0-97.35937481 17.99999973-97.35937481 71.78906222v44.43750028c0 50.85937463-28.42968741 82.03125037-84.49218732 133.42968732l-5.62500028 5.15625018z m447.09374982 480.32812463H165.82812537A75.89062491 75.89062491 0 0 1 90.125 835.01562473V444.73437463a75.89062491 75.89062491 0 0 1 75.70312537-75.8906249h129.515625c26.60156213-26.13281287 54.39843787-41.29687491 54.39843704-76.89843732V247.50781213C349.74218741 157.85937463 422.51562491 110.67968769 512 110.67968769s162.25781259 47.15624981 162.25781259 136.82812444v44.43750028c0 25.71093787-2.62500019 31.68750009-5.97656222 55.21874991h103.33593704c89.48437509 0 162.25781259 72.93749991 162.25781259 162.60937536v4.26562509l-86.6953125 325.78124936a75.91406287 75.91406287 0 0 1-75.56250009 71.06250037z" fill="#999999" p-id="1524"></path></svg>