<svg xmlns="http://www.w3.org/2000/svg" xmlns:xlink="http://www.w3.org/1999/xlink" fill="none" version="1.1" width="11.9399995803833" height="11.9399995803833" viewBox="0 0 11.9399995803833 11.9399995803833"><g><path d="M5.9699998,0C2.6699998,0,0,2.6699998,0,5.9699998C0,9.2699995,2.6759999,11.94,5.9699998,11.94C9.2699995,11.94,11.94,9.263999,11.94,5.9699998C11.94,2.6699998,9.2699995,0,5.9699998,0ZM5.9699998,11.021999C3.1799998,11.021999,0.91800016,8.7600002,0.91800016,5.9699998C0.91800016,3.1799998,3.1799998,0.91799998,5.9699998,0.91799998C8.7600002,0.91799998,11.021999,3.1799998,11.021999,5.9699998C11.021999,8.7600002,8.7600002,11.021999,5.9699998,11.021999ZM3.3359997,5.1659999C2.9219997,5.1659999,2.586,5.526,2.586,5.9699998C2.586,6.414,2.9219997,6.7740002,3.3359997,6.7740002C3.75,6.7740002,4.086,6.414,4.086,5.9699998C4.086,5.526,3.75,5.1659999,3.3359997,5.1659999ZM5.9699998,5.1659999C5.5499997,5.1659999,5.2139997,5.526,5.2139997,5.9699998C5.2139997,6.414,5.5499997,6.7740002,5.9699998,6.7740002C6.3899999,6.7740002,6.7259998,6.414,6.7259998,5.9699998C6.7259998,5.526,6.3899999,5.1659999,5.9699998,5.1659999ZM8.6099997,5.1659999C8.1960001,5.1659999,7.8599997,5.526,7.8599997,5.9699998C7.8599997,6.414,8.1960001,6.7740002,8.6099997,6.7740002C9.0239992,6.7740002,9.3599997,6.414,9.3599997,5.9699998C9.3599997,5.526,9.0239992,5.1659999,8.6099997,5.1659999Z" fill="#DB6A0F" fill-opacity="1"/></g></svg>