<svg xmlns="http://www.w3.org/2000/svg" xmlns:xlink="http://www.w3.org/1999/xlink" fill="none" version="1.1" width="16" height="16" viewBox="0 0 16 16"><defs><clipPath id="master_svg0_1005_028565"><rect x="4" y="4" width="8" height="8" rx="0"/></clipPath></defs><g><g><g><g><g><ellipse cx="8" cy="8" rx="8" ry="8" fill="#EB3737" fill-opacity="0.20000000298023224"/></g></g></g><g><ellipse cx="8" cy="8.000001430511475" rx="5.599999904632568" ry="5.600001335144043" fill="#EB3737" fill-opacity="1"/></g></g><g clip-path="url(#master_svg0_1005_028565)"><g><path d="M10.7665009,10.000000499999999L11.371000800000001,10.6045008C11.5661922,10.7997508,11.5661922,11.1162505,11.371000800000001,11.311500500000001L11.311500500000001,11.371000800000001C11.1162505,11.5661926,10.7997508,11.5661926,10.6045008,11.371000800000001L10.000000499999999,10.7660003L9.3955007,11.371000800000001C9.2002501,11.5661922,8.8837504,11.5661922,8.688500900000001,11.371000800000001L8.6290011,11.311500500000001C8.4338093,11.1162505,8.4338093,10.7997508,8.6290011,10.6045003L9.2340012,10.000000499999999L8.6290011,9.3955007C8.43381,9.2002501,8.43381,8.8837504,8.6290011,8.688500900000001L8.688500900000001,8.6290011C8.883750899999999,8.4338093,9.2002511,8.4338093,9.3955016,8.6290011L10.000000499999999,9.2340012L10.6045008,8.6290011C10.7997508,8.43381,11.1162505,8.43381,11.311500500000001,8.6290011L11.371000800000001,8.688500900000001C11.5661922,8.883750899999999,11.5661922,9.2002511,11.371000800000001,9.3955016L10.7660003,10.000000499999999L10.7665009,10.000000499999999ZM7.8480003,8.726500999999999C7.5952938,8.6458178,7.4495828,8.381826199999999,7.5160005000000005,8.125000700000001C7.5054276,8.084173700000001,7.5000515,8.0421746,7.5000007,8.000000700000001L7.5000007,7.0000007C7.5000007,6.7238584,7.7238584,6.5000007,8.000000700000001,6.5000007C8.2761428,6.5000007,8.500001000000001,6.7238584,8.500001000000001,7.0000007L8.500001000000001,7.7500007L8.909000899999999,7.7500007C8.4674695,7.9647675,8.0985901,8.3042686,7.8480003,8.726500999999999ZM8.000000700000001,11.500001000000001C6.0670036,11.500001000000001,4.5,9.932997199999999,4.5,8.0000005C4.5,6.0670034,6.0670034,4.5,8.0000005,4.5C9.932997199999999,4.5,11.500001000000001,6.0670036,11.500001000000001,8.000000700000001C11.1927238,7.7688682,10.8360577,7.6120996000000005,10.4580007,7.5420008C10.21738,6.2759762,9.054156800000001,5.40004629,7.7709317,5.5185852C6.4877068,5.6371244,5.5046282,6.7113211,5.5000004,8.000000700000001C5.5002507000000005,9.2040544,6.3583983,10.2370243,7.5420008,10.4580007C7.6135006,10.8440013,7.7730005,11.1980004,8.000000700000001,11.500001000000001Z" fill="#FFFFFF" fill-opacity="1" style="mix-blend-mode:passthrough"/></g></g></g></svg>