<svg xmlns="http://www.w3.org/2000/svg" xmlns:xlink="http://www.w3.org/1999/xlink" fill="none" version="1.1" width="16" height="16" viewBox="0 0 16 16"><defs><clipPath id="master_svg0_1034_76815"><rect x="2.3999998569488525" y="2.3999998569488525" width="11.20000171661377" height="11.20000171661377" rx="0"/></clipPath></defs><g><g><g><g><ellipse cx="8" cy="8" rx="8" ry="8" fill="#DB6A0F" fill-opacity="0.20000000298023224"/></g><g><g clip-path="url(#master_svg0_1034_76815)"><g><g><ellipse cx="8.000097513198853" cy="8.000097513198853" rx="5" ry="5" fill="#FFFFFF" fill-opacity="1"/></g><g><path d="M8.000000756948854,2.3999998569488525C4.895271756948853,2.3999998569488525,2.3999998569488525,4.895271756948853,2.3999998569488525,8.000000756948854C2.3999998569488525,11.104727056948853,4.895271756948853,13.600001856948852,8.000000756948854,13.600001856948852C11.104727056948853,13.600001856948852,13.600001856948852,11.104727056948853,13.600001856948852,8.000000756948854C13.600001856948852,4.895271756948853,11.104727056948853,2.3999998569488525,8.000000756948854,2.3999998569488525ZM5.098839556948853,10.035682956948852C4.895271756948853,10.188044356948852,4.6404995569488525,10.086885656948851,4.539340056948852,9.883318156948853C4.436931356948852,9.730953956948852,4.386975556948853,9.577341756948853,4.335771356948852,9.424977056948853C4.233363156948853,9.221408156948852,4.386975556948853,8.966637356948851,4.590543756948852,8.915431256948853C4.794112656948853,8.864228956948853,4.997680856948852,8.966637356948851,5.048885356948853,9.118999256948854C5.100089556948852,9.271364456948852,5.151293756948853,9.424977056948853,5.252453056948852,9.526137556948854C5.3536119569488525,9.679750656948853,5.302408656948852,9.883318156948853,5.098839556948853,10.035682956948852ZM6.829795556948852,11.308297356948852C6.727387156948852,11.511865856948852,6.523818756948852,11.614272356948852,6.320249356948853,11.511865856948852C6.065476856948853,11.409454556948852,5.861908456948853,11.257093656948852,5.6583409569488525,11.104727056948853C5.454772756948852,10.952362256948852,5.403568256948852,10.697590156948852,5.5559315569488525,10.545229156948853C5.708296256948852,10.392863056948853,5.911864556948853,10.392863056948853,6.065476856948853,10.494021656948853C6.217841356948853,10.646388256948853,6.4214103569488525,10.748796656948853,6.624977856948853,10.849955756948853C6.778589956948853,10.901158556948852,6.879749556948853,11.104727056948853,6.829795556948852,11.308297356948852ZM6.217841356948853,7.490455356948853C6.370204956948852,7.3380911569488525,6.624977856948853,7.3380911569488525,6.777341156948853,7.490455356948853L7.846385256948852,8.457092556948853L9.271364456948852,6.726137356948852C9.423729156948852,6.573772656948853,9.627297656948851,6.522568956948852,9.830866056948853,6.674932756948852C10.034434056948854,6.827296456948853,10.034434056948854,7.0308635569488525,9.882067456948853,7.234431956948852L8.202318856948853,9.270114656948852C8.049954656948852,9.422480356948853,7.795183456948853,9.473684056948851,7.642817256948852,9.321320256948852L6.2690458569488525,8.051203456948851C6.065476856948853,7.897592256948853,6.065476856948853,7.644067956948852,6.217841356948853,7.490455356948853ZM7.389293456948852,11.869047356948853C7.695270256948852,11.359499256948853,7.9487941569488525,10.902406956948852,8.254770956948853,10.444067256948852L8.916681956948853,10.851206056948852C8.865477356948853,10.953612556948853,8.814272656948852,11.003568856948853,8.764316356948854,11.105975356948852C10.189295556948853,10.799999456948852,11.207137356948852,9.527384556948853,11.207137356948852,8.000000756948854C11.207137356948852,6.217841356948853,9.782159056948853,4.844067056948853,8.051203456948851,4.844067056948853C6.320249356948853,4.844067056948853,4.844067056948853,6.217841356948853,4.844067056948853,8.000000756948854C4.844067056948853,8.203568656948853,4.691704056948852,8.407136656948852,4.436931356948852,8.407136656948852C4.233363156948853,8.407136656948852,4.029794356948853,8.254770956948853,4.029794356948853,8.000000756948854L4.029794356948853,7.9487941569488525C4.080998756948853,5.810703956948853,5.861908456948853,4.029794356948853,8.000000756948854,4.029794356948853C10.189295556948853,4.029794356948853,11.970204556948852,5.811953556948852,11.970204556948852,8.000000756948854C11.970204556948852,10.188044356948852,10.035682956948852,12.276182456948852,7.389293456948852,11.869047356948853Z" fill="#DB6A0F" fill-opacity="1" style="mix-blend-mode:passthrough"/></g></g></g></g></g></g></g></svg>