<svg xmlns="http://www.w3.org/2000/svg" xmlns:xlink="http://www.w3.org/1999/xlink" fill="none" version="1.1" width="20" height="20" viewBox="0 0 20 20"><defs><clipPath id="master_svg0_918_64605"><rect x="3" y="3" width="14" height="14" rx="0"/></clipPath></defs><g><g><ellipse cx="10" cy="10" rx="10" ry="10" fill="#DB6A0F" fill-opacity="0.20000000298023224"/></g><g><g clip-path="url(#master_svg0_918_64605)"><g><g><rect x="8.163713455200195" y="4.961252689361572" width="3.447695732116699" height="10.984519004821777" rx="0" fill="#FFFFFF" fill-opacity="1"/></g><g><path d="M10,3C6.1335568,3,3,6.1335568,3,10C3,13.866443,6.1335568,17,10,17C13.866443,17,17,13.866443,17,10C17,6.1335568,13.864877,3,10,3ZM9.292169999999999,6.199328700000001C9.292169999999999,5.8093958,9.606935,5.4946307999999995,9.9968677,5.4946307999999995C10.3868008,5.4946307999999995,10.7015657,5.8093958,10.7015657,6.199328700000001L10.7015657,11.3123035C10.7015657,11.7022371,10.3868008,12.0170021,9.9968677,12.0170021C9.606935,12.0170021,9.292169999999999,11.7022371,9.292169999999999,11.3123035L9.292169999999999,6.199328700000001ZM10,14.591498C9.5677853,14.591498,9.2170019,14.240716,9.2170019,13.808501C9.2170019,13.376287,9.5677853,13.025503,10,13.025503C10.4322147,13.025503,10.7829976,13.376287,10.7829976,13.808501C10.7829976,14.242282,10.4322147,14.591498,10,14.591498Z" fill="#DB6A0F" fill-opacity="1" style="mix-blend-mode:passthrough"/></g></g></g></g></g></svg>