<svg xmlns="http://www.w3.org/2000/svg" xmlns:xlink="http://www.w3.org/1999/xlink" fill="none" version="1.1" width="14" height="14" viewBox="0 0 14 14"><defs><clipPath id="master_svg0_35_9175"><rect x="0" y="0" width="14" height="14" rx="0"/></clipPath></defs><g clip-path="url(#master_svg0_35_9175)"><g><path d="M7.23438234375,0.101666L11.98140234375,5.54136C12.05830234375,5.62918,12.07670234375,5.75387,12.02850234375,5.86016C11.98020234375,5.96645,11.87427234375,6.03468,11.75754234375,6.03461L9.42425234375,6.03461C9.275872343749999,6.03333,9.149832343749999,6.14287,9.13040234375,6.28997C8.955492343749999,7.55632,7.89904234375,13.1569,2.89661734375,13.986C2.76215534375,14.012,2.62735534375,13.9427,2.57012534375,13.8183C2.51289534375,13.6939,2.54803734375,13.5465,2.65524234375,13.4613C3.51230234375,12.7896,4.63172234375,11.4883,4.94656234375,9.17249C5.06743234375,8.23171,5.125862343750001,7.28395,5.12147234375,6.33545C5.12151234375,6.17006,4.98947234375,6.03491,4.82412234375,6.03111L2.25994534375,6.03111C2.14321534375,6.03118,2.03723974375,5.96295,1.98899364375,5.85666C1.94074754375,5.75037,1.95915660375,5.62568,2.03606064375,5.53786L6.78661234375,0.101666C6.90509234375,-0.0338887,7.11590234375,-0.0338887,7.23438234375,0.101666Z" fill="#EB3737" fill-opacity="1"/></g></g></svg>