<svg xmlns="http://www.w3.org/2000/svg" xmlns:xlink="http://www.w3.org/1999/xlink" fill="none" version="1.1" width="224" height="224" viewBox="0 0 224 224"><defs><linearGradient x1="0.5" y1="0" x2="0.5" y2="1" id="master_svg0_113_6421"><stop offset="0%" stop-color="#2D73AD" stop-opacity="0.6203417181968689"/><stop offset="100%" stop-color="#FFFFFF" stop-opacity="1"/></linearGradient><linearGradient x1="0.5" y1="0" x2="0.5057127409375332" y2="0.7660000008582064" id="master_svg1_71_1868"><stop offset="0%" stop-color="#F8F8F8" stop-opacity="0.7099999785423279"/><stop offset="100%" stop-color="#E2E7F2" stop-opacity="0"/></linearGradient><linearGradient x1="0.5" y1="0" x2="0.5" y2="0.6386448740959167" id="master_svg2_113_5971"><stop offset="0%" stop-color="#2D73AD" stop-opacity="0.6203417181968689"/><stop offset="100%" stop-color="#FFFFFF" stop-opacity="1"/></linearGradient><linearGradient x1="0.6847118139266968" y1="0.46299999952316284" x2="-0.004625069298605622" y2="0.6050000506813135" id="master_svg3_71_1872"><stop offset="0%" stop-color="#EAEEF2" stop-opacity="1"/><stop offset="100%" stop-color="#E1E6ED" stop-opacity="1"/></linearGradient><linearGradient x1="0.9760614037513733" y1="0.47099998593330383" x2="-0.07032155274771908" y2="0.45400002141736895" id="master_svg4_71_1873"><stop offset="0%" stop-color="#EAEEF2" stop-opacity="1"/><stop offset="100%" stop-color="#E1E6ED" stop-opacity="1"/></linearGradient><linearGradient x1="0.7310000061988831" y1="0.953000009059906" x2="0.7310000061988831" y2="0.21700000762939453" id="master_svg5_71_1874"><stop offset="0%" stop-color="#F8F8F8" stop-opacity="1"/><stop offset="100%" stop-color="#E2E7F2" stop-opacity="1"/></linearGradient><linearGradient x1="0.3050000071525574" y1="0.9589743614196777" x2="0.324999959333121" y2="0.12609865093043285" id="master_svg6_71_1875"><stop offset="0%" stop-color="#F8F8F8" stop-opacity="1"/><stop offset="100%" stop-color="#E2E7F2" stop-opacity="1"/></linearGradient><linearGradient x1="0.5" y1="0" x2="0.5" y2="1" id="master_svg7_71_1876"><stop offset="0%" stop-color="#F8F8F8" stop-opacity="1"/><stop offset="100%" stop-color="#E2E7F2" stop-opacity="1"/></linearGradient><linearGradient x1="0.5" y1="0" x2="0.5" y2="1" id="master_svg8_71_1876"><stop offset="0%" stop-color="#F8F8F8" stop-opacity="1"/><stop offset="100%" stop-color="#E2E7F2" stop-opacity="1"/></linearGradient><linearGradient x1="0.5" y1="0" x2="0.5" y2="1" id="master_svg9_113_6421"><stop offset="0%" stop-color="#2D73AD" stop-opacity="0.6203417181968689"/><stop offset="100%" stop-color="#FFFFFF" stop-opacity="1"/></linearGradient><linearGradient x1="0.5" y1="0" x2="0.5" y2="1" id="master_svga_113_6395"><stop offset="0%" stop-color="#0064FF" stop-opacity="1"/><stop offset="100%" stop-color="#50AEE8" stop-opacity="1"/></linearGradient></defs><g><g><g><path d="" fill="#FFFFFF" fill-opacity="0" style="mix-blend-mode:passthrough"/><g><path d="M135.87217665673828,119.77875327111816L133.8093666567383,119.63438627111816L131.8406166567383,119.29749827111817L129.95061365673828,118.77251227111816L128.13936965673827,118.06593927111817L126.39154765673828,117.17125927111817L124.76623725673828,116.13438627111816L123.25030045673829,114.95312727111816L121.83936075673829,113.61657127111816L120.56186815673829,112.15094527111816L119.42874505673828,110.58250627111816L118.44654655673828,108.90030827111816L117.60655365673828,107.09344627111815L116.94155871673829,105.22750627111816L116.45811647673828,103.28063427111817L116.16061971673828,101.25938227111817L116.05561065673828,99.13750627111816L116.16061971673828,97.02219227111817L116.45811647673828,94.99438327111817L116.94155871673829,93.05407127111816L117.60655365673828,91.18594327111816L118.44654655673828,89.37906627111816L119.42874505673828,87.69687627111816L120.56186815673829,86.12406127111817L121.83936075673829,84.65844327111816L123.25030045673829,83.32625627111817L124.76623725673828,82.14062927111817L126.39154765673828,81.10812727111816L128.13936965673827,80.21562927111816L129.95061365673828,79.50906527111816L131.8406166567383,78.98187827111816L133.8093666567383,78.64719027111816L135.87217665673828,78.50281327111816L138.40092665673828,78.66687627111816L140.85748265673828,79.15687527111817L143.25937065673827,79.97281427111817L143.20468365673827,78.50281327111816L143.30967665673828,76.31531327111816L143.64654565673828,74.20874927111817L144.22624065673827,72.16562627111816L145.0312366567383,70.20562727111816L146.04405165673828,68.37250237111816L147.26685565673827,66.65969177111816L148.6777916567383,65.09562447111816L150.2637286567383,63.71312907111816L152.0399816567383,62.494690171118165L153.94968065673828,61.510315071118164L155.90747865673828,60.77750116111817L157.9265516567383,60.287503241118166L159.98498165673828,60.044687271118164L162.0390476567383,60.044687271118164L164.10405365673827,60.287503241118166L166.11874365673827,60.77750116111817L168.0765456567383,61.510315071118164L169.9862406567383,62.494690171118165L171.7624896567383,63.71312907111816L173.3484266567383,65.09562447111816L174.75936465673828,66.65969177111816L175.98217365673827,68.37250237111816L176.9949876567383,70.20562727111816L177.7999766567383,72.16562627111816L178.37967265673828,74.20874927111817L178.7209286567383,76.31531327111816L178.8215446567383,78.50281327111816L178.6749766567383,80.89156527111817L178.2374766567383,83.20812827111817L177.5068626567383,85.48312927111816L178.9287376567383,84.68469027111817L180.39218165673827,84.02844027111817L181.9124836567383,83.51218827111816L183.47873665673828,83.14688127111816L185.06467465673828,82.91937827111816L186.6812366567383,82.84719227111816L189.1334156567383,83.04843727111816L191.4456026567383,83.54937927111817L193.63091265673827,84.35437627111816L195.70466565673829,85.44375627111816L197.58810465673827,86.75843827111817L199.29874465673828,88.32250627111816L200.80590865673827,90.09656127111816L202.07466865673828,92.03687527111816L203.11154165673827,94.17407027111815L203.87059765673828,96.42281527111817L204.33872965673828,98.79625927111817L204.50498165673827,101.30969427111816L204.33872965673828,103.82750927111817L203.87059765673828,106.20093727111816L203.11154165673827,108.45187527111815L202.07466865673828,110.58687027111816L200.80590865673827,112.52718127111817L199.29874465673828,114.30344927111815L197.58810465673827,115.86750227111816L195.70466565673829,117.18219527111816L193.63091265673827,118.27156227111817L191.4456026567383,119.07656327111816L189.1334156567383,119.57750927111817L186.6812366567383,119.77875327111816L135.87217665673828,119.77875327111816Z" fill="url(#master_svg0_113_6421)" fill-opacity="0.20000000298023224" style="mix-blend-mode:passthrough"/><path d="M19.80343744213066,170.42375599047853L19.58906334213066,169.4350009904785L19.03562474213066,166.7246889904785L18.28093764213066,162.67781099047852L17.46937524213066,157.68156799047853L17.08437474213066,154.96905499047853L16.732187182130662,152.11875499047852L16.436875042130662,149.24437699047851L16.21375078213066,146.37656799047852L16.07593723913066,143.53062399047852L16.04750034213066,140.83781799047853L16.09562560513066,139.0571819904785L16.20718689213066,137.4099879904785L16.37343737213066,135.88968999047853L16.627188172130662,134.3803099904785L16.950937182130662,133.0634289904785L17.333749642130662,131.9193709904785L17.70562574213066,131.08374399047852L18.11906284213066,130.3793769904785L18.571875542130662,129.7909369904785L19.064063042130662,129.3074969904785L19.77281234213066,128.78031499047853L20.45312524213066,128.37561999047853L21.10937474213066,128.08031299047852L21.75031254213066,127.88781399047852L22.64062474213066,127.74780699047852L23.50687434213066,127.74561699047851L24.355623942130663,127.87906499047851L25.18906284213066,128.1262439904785L26.000624342130664,128.4696809904785L26.79687534213066,128.90936999047852L27.925626342130663,129.69250099047852L28.98437434213066,130.59593799047852L29.96656434213066,131.58031299047852L30.83500134213066,132.5668769904785L31.626874342130662,133.5643769904785L32.26124734213066,134.44156599047852L33.17999834213066,135.84155699047852L33.505937342130665,136.39281099047852L33.26093634213066,135.49811899047853L32.64187434213066,133.05687499047852L31.82812534213066,129.43437599047851L31.40374934213066,127.32999999047851L30.98374934213066,124.99156199047852L30.609684342130663,122.58967799047852L30.28812734213066,120.09155799047852L30.05187634213066,117.57593499047852L29.914062342130663,115.09968099047852L29.89218634213066,113.45031099047851L29.933748342130663,111.87749899047851L30.036560342130663,110.37906549047851L30.222501342130663,108.88718269047851L30.48937634213066,107.52874759047852L30.828434342130663,106.29062129047851L31.16093734213066,105.38062049047852L31.54593834213066,104.56906009047852L31.97906234213066,103.84499809047851L32.460311342130666,103.20187279047852L33.01812534213066,102.62655929047851L33.64156134213066,102.14968574047852L34.33500034213066,101.76468372047852L35.109374342130664,101.47374915047851L35.92093834213066,101.30968666047852L36.70187334213066,101.26593399047852L37.46749834213066,101.34249782547852L38.21999934213066,101.53499889047852L38.94406134213066,101.82593346047851L39.66156134213066,102.21312523047851L40.381252342130665,102.70093329047852L41.100936342130666,103.30031279047851L41.98249834213066,104.17749569047851L42.85749834213066,105.19468879047852L43.73249834213066,106.36937479047852L44.53312434213066,107.59436939047852L45.32062334213066,108.91562129047851L46.086246342130664,110.33750249047851L47.149371342130664,112.52500299047851L48.14031234213066,114.80218499047851L49.05687334213066,117.10780399047852L49.87718534213066,119.35875099047851L50.62750234213066,121.58124499047852L51.266246342130664,123.60468299047852L52.28781134213066,127.13531099047852L52.91781234213066,129.5503039904785L53.13437234213066,130.44499799047853L53.03593834213066,129.55249399047852L52.86312434213066,127.17906199047852L52.80624734213066,125.63249799047851L52.79968234213066,123.79062699047851L52.86312434213066,121.88092999047852L53.02718734213066,119.84655999047851L53.200000342130664,118.48375099047851L53.43624834213066,117.13843399047852L53.73593834213066,115.80842799047852L54.114375342130664,114.50468799047852L54.569377342130664,113.28405899047851L55.10531234213066,112.14000099047851L55.57781234213066,111.32187799047851L56.104995342130664,110.57812309047851L56.68468834213066,109.90655899047852L57.321246342130664,109.30281349047851L58.01687634213066,108.77999739047851L58.78686834213066,108.34906009047852L59.63343034213066,108.00781059047851L60.56969034213066,107.75624939047852L61.32656034213066,107.68843749047852L62.08343434213066,107.75843189047852L62.85343134213066,107.97062019047851L63.64968834213066,108.33812479047852L64.38249934213067,108.79531149047851L65.13937334213065,109.37280849047852L65.91593134213066,110.08374599047852L66.71874934213066,110.94124129047852L67.69437334213066,112.13343199047851L68.68968934213066,113.50718899047851L69.70468534213066,115.07781199047852L70.64968834213066,116.68561699047851L71.59249834213065,118.40936999047852L72.53094034213066,120.25562099047852L73.85656734213066,123.0731239904785L75.12312334213067,125.98468399047852L76.31968634213067,128.92249499047853L77.41125034213067,131.77500199047853L78.43500534213067,134.58374399047852L79.32093434213067,137.13218699047852L80.77562734213066,141.5662379904785L81.70093534213066,144.58717699047853L82.02906034213066,145.70281199047852L19.80343744213066,170.42375599047853Z" fill="url(#master_svg1_71_1868)" fill-opacity="1" style="mix-blend-mode:passthrough"/><g><path d="M223.9999928051758,178.23749934057616L223.94530280517577,179.40999634057619L223.7812428051758,180.58031834057618L223.51436280517578,181.75281934057617L223.12717280517577,182.94062834057615L222.61965280517578,184.14593934057618L221.97873280517578,185.3709333405762L221.15842280517577,186.67907334057617L220.1740528051758,188.00906034057618L219.01249280517578,189.36531434057616L217.64966280517578,190.75000034057618L216.06810280517578,192.16750334057616L214.5324828051758,193.39687734057617L212.82186280517578,194.63938534057615L210.9209228051758,195.89281834057618L208.81655280517577,197.15718834057617L206.4956028051758,198.43250634057617L203.6824828051758,199.83470134057617L200.5893528051758,201.22813434057616L197.19436280517579,202.60845234057618L193.4821728051758,203.97563934057618L189.5578128051758,205.27937334057617L185.39061280517578,206.52187734057617L180.96966280517577,207.70531834057618L176.54218280517577,208.76844434057617L171.9068528051758,209.75938834057615L167.06810280517578,210.67594534057616L162.22281280517578,211.48530934057618L157.2199828051758,212.21156734057615L152.05530280517578,212.85032234057616L146.88624280517578,213.38625734057615L141.60344280517577,213.83031834057618L136.20904280517578,214.18469634057618L130.81029280517578,214.43626034057615L125.34592280517577,214.58718534057618L119.81156280517578,214.63750834057618L114.27935780517578,214.58718534057618L108.81279780517578,214.43626034057615L103.41624480517578,214.18469634057618L98.01748680517578,213.83031834057618L92.73686980517579,213.38625734057615L87.56999180517577,212.85032234057616L82.40312180517579,212.21156734057615L77.40029880517578,211.48530934057618L72.55499280517577,210.67594534057616L67.71405380517578,209.75938834057615L63.08312580517578,208.76844434057617L58.65124080517578,207.70531834057618L54.23249780517578,206.52187734057617L50.06531180517578,205.27937334057617L46.14093380517578,203.97563934057618L42.42874680517578,202.60845234057618L39.03593680517578,201.22813434057616L35.942809805175784,199.83470134057617L33.129684805175785,198.43250634057617L30.80656080517578,197.15718834057617L28.70218580517578,195.89281834057618L26.80124880517578,194.63938534057615L25.090623905175782,193.39687734057617L23.55718800517578,192.16750334057616L21.97562460517578,190.75000034057618L20.61281350517578,189.36531434057616L19.44906330517578,188.00906034057618L18.46468830517578,186.67907334057617L17.646562105175782,185.3709333405762L17.00343830517578,184.14593934057618L16.498124775175782,182.94062834057615L16.11093801517578,181.75281934057617L15.84187482517578,180.58031834057618L15.68000029817578,179.40999634057619L15.625312805175781,178.23749934057616L15.68000029817578,177.06500634057616L15.84187482517578,175.89469534057616L16.11093801517578,174.72218734057617L16.498124775175782,173.53437634057616L17.00343830517578,172.32906134057617L17.646562105175782,171.10406734057617L18.46468830517578,169.79594434057617L19.44906330517578,168.46594034057617L20.61281350517578,167.10968934057618L21.97562460517578,165.72499834057618L23.55718800517578,164.30750034057618L25.090623905175782,163.07812834057617L26.80124880517578,161.83562834057616L28.70218580517578,160.58219334057617L30.80656080517578,159.31781434057618L33.129684805175785,158.04249734057618L35.942809805175784,156.64031634057616L39.03593680517578,155.24687934057619L42.42874680517578,153.86656634057618L46.14093380517578,152.49937934057618L50.06531180517578,151.19562534057616L54.23249780517578,149.95312594057617L58.65124080517578,148.76969434057617L63.08312580517578,147.70655874057618L67.71405380517578,146.71562864057617L72.55499280517577,145.79906534057616L77.40029880517578,144.98968744057618L82.40312180517579,144.26343584057616L87.56999180517577,143.62468934057617L92.73686980517579,143.08874904057618L98.01748680517578,142.64469343057618L103.41624480517578,142.29030612057616L108.81279780517578,142.03875162057616L114.27935780517578,141.88781357157617L119.81156280517578,141.83750534057617L125.34592280517577,141.88781357157617L130.81029280517578,142.03875162057616L136.20904280517578,142.29030612057616L141.60344280517577,142.64469343057618L146.88624280517578,143.08874904057618L152.05530280517578,143.62468934057617L157.2199828051758,144.26343584057616L162.22281280517578,144.98968744057618L167.06810280517578,145.79906534057616L171.9068528051758,146.71562864057617L176.54218280517577,147.70655874057618L180.96966280517577,148.76969434057617L185.39061280517578,149.95312594057617L189.5599728051758,151.19562534057616L193.4821728051758,152.49937934057618L197.19436280517579,153.86656634057618L200.5893528051758,155.24687934057619L203.6824828051758,156.64031634057616L206.4956028051758,158.04249734057618L208.81655280517577,159.31781434057618L210.9209228051758,160.58219334057617L212.82186280517578,161.83562834057616L214.5324828051758,163.07812834057617L216.06810280517578,164.30750034057618L217.64966280517578,165.72499834057618L219.01249280517578,167.10968934057618L220.1740528051758,168.46594034057617L221.15842280517577,169.79594434057617L221.97873280517578,171.10406734057617L222.61965280517578,172.32906134057617L223.12717280517577,173.53437634057616L223.51436280517578,174.72218734057617L223.7812428051758,175.89469534057616L223.94530280517577,177.06500634057616L223.9999928051758,178.23749934057616Z" fill="url(#master_svg2_113_5971)" fill-opacity="0.0617784820497036" style="mix-blend-mode:passthrough"/></g><g><path d="M110.93905258178711,80.34469223022461L110.93905258178711,108.5678122302246L157.8259205817871,107.2684382302246L157.8259205817871,86.07593823022461L110.93905258178711,80.34469223022461Z" fill="#DBDFE6" fill-opacity="1" style="mix-blend-mode:passthrough"/><path d="M110.93905092102051,80.34469223022461L110.93905092102051,108.5678122302246L73.28561592102051,107.2684382302246L73.28561592102051,88.67468933022461L110.93905092102051,80.34469223022461Z" fill="#D0D7E0" fill-opacity="1" style="mix-blend-mode:passthrough"/><path d="M116.36186599731445,94.69906471932984L116.36186599731445,156.07374321932983L157.82591999731446,147.74811321932984L157.82591999731446,86.26406621932983L116.36186599731445,94.69906471932984Z" fill="url(#master_svg3_71_1872)" fill-opacity="1" style="mix-blend-mode:passthrough"/><path d="M116.3596779210205,156.07373715667723L73.28561592102051,148.36937215667723L73.28561592102051,88.50843715667725L116.3596779210205,94.56344075667725L116.3596779210205,156.07373715667723Z" fill="url(#master_svg4_71_1873)" fill-opacity="1" style="mix-blend-mode:passthrough"/><path d="M73.28561610766602,88.50843715667725L61.151554107666016,100.40406415667725L103.45999110766601,108.08219015667724L116.54562010766602,94.56562565667724L73.28561610766602,88.50843715667725Z" fill="url(#master_svg5_71_1874)" fill-opacity="1" style="mix-blend-mode:passthrough"/><path d="M128.70591783251953,107.26843826428222L170.27715683251952,98.18594126428222L157.93091183251954,86.29250526428223L116.14966583251953,94.50875476428223L128.70591783251953,107.26843826428222Z" fill="url(#master_svg6_71_1875)" fill-opacity="1" style="mix-blend-mode:passthrough"/></g><path d="M27.55156135559082,154.71968802856446L28.09187412559082,154.89687602856446L29.52687515559082,155.27313202856445L30.460936755590822,155.45251002856446L31.57218745559082,155.60344702856446L32.72281075559082,155.67781402856446L33.94999835559082,155.64937602856446L34.76593545559082,155.56188502856446L35.573123955590816,155.40437702856445L36.373748755590825,155.17250202856445L37.14375015559082,154.85969302856446L37.87437335559082,154.44625102856446L38.57000035559082,153.93219302856446L39.18687235559082,153.32625202856445L39.74906335559082,152.58251102856445L40.25218535559082,151.68562702856445L40.54749935559082,150.98344802856445L40.796874355590816,150.17626002856446L40.99812435559082,149.25312802856445L41.14031335559082,148.19438552856445L41.55812235559082,146.72875832856445L41.98906035559082,145.56500622856444L42.42656135559082,144.65937832856446L42.955935355590825,143.79750272856444L43.45906135559082,143.14782152856446L43.93156235559082,142.67312432856446L44.46531135559082,142.25969695856446L44.94218635559082,141.97532462856447L45.36437635559082,141.79812430856444L46.00093435559082,141.63188552856445L46.43624835559082,141.59468841556446L46.85843835559082,141.62312698356445L46.38812235559082,141.57719802856445L45.90031235559082,141.59032249456445L45.19593635559082,141.70188712856447L44.71468735559082,141.83532142856444L44.185312355590824,142.05843734856444L43.59906035559082,142.38438605856444L43.06093835559082,142.77594372856444L42.50093535559082,143.31188402856446L41.92343435559082,144.01625272856444L41.43343735559082,144.78187772856444L40.95218835559082,145.75969692856447L40.49062535559082,146.99126052856445L39.29843535559082,146.76813122856444L38.21781335559082,146.64344212856446L37.23562525559082,146.60406872856444L36.34312435559082,146.64563222856447L35.14656115559082,146.81407402856445L34.08999825559082,147.08532142856444L33.16468665559082,147.44844102856445L32.27874895559082,147.91437962856446L31.50218585559082,148.43281602856445L30.82624915559082,148.99938392856444L30.20062375559082,149.63157562856446L29.66687485559082,150.26594252856447L29.21406265559082,150.90251252856444L28.62999895559082,151.88906402856446L28.21218728559082,152.75750702856445L27.88406225559082,153.58437602856446L27.69812512559082,154.16187902856444L27.55156135559082,154.71968802856446Z" fill="url(#master_svg7_71_1876)" fill-opacity="1" style="mix-blend-mode:passthrough"/><path d="M155.33435821533203,172.12125693188477L155.85279458533202,172.23937693188478L157.19373301533204,172.43843293188476L158.05124281533205,172.49531093188477L159.03342771533204,172.48656593188477L160.02873801533204,172.38156893188477L161.03717181533204,172.14968193188477L161.68686581533203,171.91344193188476L162.30155281533203,171.59625093188475L162.88342281533204,171.19374373188475L163.39749331533204,170.71250533188476L163.85248281533202,170.11530973188476L164.24405381533202,169.38905713188475L164.46061421533204,168.81812283188478L164.62905601533203,168.15531783188476L164.74279781533204,167.38750263188476L164.79311851533203,166.49937823188478L165.00749011533202,165.40781783188476L165.24810881533205,164.53499413188476L165.50842321533204,163.84812953188475L165.83873721533203,163.18968963188476L166.16248221533203,162.68437753188476L166.47748321533203,162.30812073188477L167.00686621533202,161.84437179188475L167.46404621533202,161.57969284188476L167.91686121533203,161.41999626188476L168.22967121533202,161.36311912538477L168.53811621533202,161.35656356808477L168.19467721533204,161.35437393188477L167.84030421533203,161.39593696588477L167.33280321533204,161.52281570188475L166.81217621533204,161.73937607188478L166.21717021533203,162.12218857188478L165.84967121533202,162.44156833188475L165.47779321533204,162.86812033188477L165.10373971533204,163.41499543188476L164.79311851533203,164.00343343188476L164.50436781533205,164.74499893188477L164.24624351533203,165.66813133188475L163.22030641533203,165.57843593188477L162.30810881533202,165.57188033188476L161.50310991533203,165.63969233188476L160.78998371533203,165.77312703188477L159.84061571533204,166.06187823188478L159.03780701533202,166.42718743188476L158.35311841533203,166.86249733188475L157.72530701533202,167.38312343188477L157.20030191533203,167.92561913188476L156.76718131533204,168.48999783188478L156.22467219533203,169.38905713188475L155.85279458533202,170.20936963188475L155.57935711533204,171.00343323188477L155.43279837033202,171.56781093188476L155.33435821533203,172.12125693188477Z" fill="url(#master_svg8_71_1876)" fill-opacity="1" style="mix-blend-mode:passthrough"/><path d="M38.53499840083008,60.407813762939455L37.74749760083008,60.350942762939454L37.01031110083008,60.19344376293945L36.31031200083008,59.93750376293946L35.647499800830076,59.589690762939455L35.04374770083008,59.16531776293945L34.494686400830076,58.657813762939455L34.011247600830075,58.084689762939455L33.60437238083008,57.45468776293946L33.26968524083008,56.76125476293945L33.026872600830075,56.030629762939455L32.87593459383008,55.25843676293945L32.82124710083008,54.43812476293945L32.87593459383008,53.617810762939456L33.026872600830075,52.845628762939455L33.26968524083008,52.112813962939455L33.60437238083008,51.41937636293945L34.011247600830075,50.78937576293946L34.494686400830076,50.21625136293945L35.04374770083008,49.710939862939455L35.647499800830076,49.284377562939454L36.31031200083008,48.93656636293945L37.01031110083008,48.68062596293945L37.74749760083008,48.52531526293945L38.53499840083008,48.468440562939456L39.25906040083008,48.514376662939455L39.96343610083008,48.65656276293945L40.65249680083008,48.892813162939454L40.637186500830076,48.468440562939456L40.66124920083008,47.83625026293945L40.75749970083008,47.228125562939454L40.92156220083008,46.63969066293945L41.15124610083008,46.07531546293945L41.442183500830076,45.54594066293945L41.79218670083008,45.049377062939456L42.19468500083008,44.598752662939454L42.651870700830074,44.19843986293945L43.163749100830074,43.84625208293945L43.712810100830076,43.561876322939455L44.274995100830076,43.349688542939454L44.859061100830075,43.20750237293945L45.45187210083008,43.13750076293945L46.04249610083008,43.13750076293945L46.637497100830075,43.20750237293945L47.21937210083008,43.349688542939454L47.78374710083008,43.561876322939455L48.33062210083008,43.84625208293945L48.84249710083007,44.19843986293945L49.297495100830076,44.598752662939454L49.70437210083008,45.049377062939456L50.05437310083008,45.54594066293945L50.34312210083008,46.07531546293945L50.57280910083008,46.63969066293945L50.73687210083008,47.228125562939454L50.83312210083008,47.83625026293945L50.859371100830074,48.468440562939456L50.81562410083008,49.15750216293945L50.69093110083008,49.82906346293945L50.48093610083008,50.487502562939454L51.09562310083008,50.15718846293945L51.74531210083008,49.91875126293945L52.41905810083008,49.772189162939455L53.11249910083008,49.72406386293945L53.81687210083008,49.78968956293945L54.47968710083008,49.93843846293945L55.10530810083008,50.174688362939456L55.70030810083008,50.49187896293945L56.24062310083008,50.87469146293945L56.73062110083008,51.327502262939454L57.16155810083008,51.83718966293945L57.524683100830075,52.39937596293945L57.82218210083008,53.011877062939455L58.03874810083008,53.65937476293945L58.17218210083008,54.341880762939454L58.22030610083008,55.06594176293945L58.17218210083008,55.79000476293945L58.03874810083008,56.47250376293945L57.82218210083008,57.12000176293945L57.524683100830075,57.732505762939454L57.16155810083008,58.29468876293945L56.73062110083008,58.804379762939455L56.24062310083008,59.257192762939454L55.70030810083008,59.640004762939455L55.10530810083008,59.95719176293945L54.47968710083008,60.19344376293945L53.81687210083008,60.34219176293945L53.11249910083008,60.407813762939455L38.53499840083008,60.407813762939455Z" fill="url(#master_svg9_113_6421)" fill-opacity="0.20000000298023224" style="mix-blend-mode:passthrough"/></g></g><g><g style="opacity:0.5;"><path d="M143.22218740600584,37.87875330444336C143.22218740600584,37.87875330444336,128.49156950600587,31.79968880444336,126.77875330600585,45.069064104443356C124.32875010600586,53.83875130444336,119.70437240600586,52.65094230444336,119.70437240600586,52.65094230444336C119.70437240600586,52.65094230444336,124.85813470600586,53.937193304443355,127.50281480600586,46.53031730444336C140.37187940600586,49.92312930444336,143.22218740600584,37.87875330444336,143.22218740600584,37.87875330444336Z" fill="url(#master_svga_113_6395)" fill-opacity="1" style="mix-blend-mode:passthrough"/></g><path d="M125.11377674658203,57.49904039616699Q125.54551274658203,56.52036979616699,125.95898074658203,55.45357745616699Q125.99457174658204,55.361742466166994,126.01156274658203,55.26472812616699Q126.02855674658204,55.16771379816699,126.02629474658204,55.06924833316699Q126.02403674658203,54.97078286616699,126.00260974658204,54.87465023616699Q125.98118574658203,54.77851760616699,125.94141774658203,54.688412126166995Q125.90164974658202,54.59830665616699,125.84506274658203,54.51769107616699Q125.78848274658203,54.43707549616699,125.71725874658203,54.369047706166995Q125.64603374658203,54.301020026166995,125.56291174658203,54.248194396166994Q125.47978574658202,54.19536876616699,125.38795074658202,54.15977531616699Q125.29611574658203,54.124181986166995,125.19910074658203,54.107188706166994Q125.10208474658202,54.09019539616699,125.00361974658203,54.09245508616699Q124.90515174658202,54.09471481616699,124.80902074658204,54.11614072616699Q124.71289074658203,54.13756668616699,124.62278374658203,54.17733549616699Q124.53267674658204,54.217104316166996,124.45206074658203,54.27368771616699Q124.37144474658203,54.33027112616699,124.30341674658203,54.40149462616699Q124.23538974658203,54.47271805616699,124.18256374658203,54.555844546166995Q124.12973774658204,54.638970966166994,124.09414674658203,54.730805936166995Q123.69721974658202,55.75492405616699,123.28392074658203,56.69180909616699Q123.20363574658202,56.87379919616699,123.19910474658204,57.07265949616699Q123.19457674658203,57.27151989616699,123.26649474658203,57.456975896166995Q123.33841674658203,57.642432896166994,123.47582974658204,57.78625109616699Q123.61324274658203,57.93006949616699,123.79523474658203,58.01035359616699Q123.97722674658203,58.09063769616699,124.17608274658204,58.095165696166994Q124.37494674658203,58.09969379616699,124.56040174658203,58.02777619616699Q124.74585674658204,57.955858896166994,124.88967474658203,57.81844519616699Q125.03349274658203,57.681030996166996,125.11377674658203,57.49904039616699ZM120.62277174658203,64.924299196167Q122.00391774658203,63.28716369616699,123.17598674658203,61.30422349616699Q123.27719874658203,61.13298699616699,123.30517574658202,60.93605229616699Q123.33315674658203,60.73911759616699,123.28364574658204,60.54646639616699Q123.23413074658203,60.35381509616699,123.11466574658203,60.19477609616699Q122.99519774658202,60.03573699616699,122.82396274658203,59.93452359616699Q122.73917374658203,59.884406996166994,122.64623674658203,59.85179519616699Q122.55329874658203,59.81918339616699,122.45578774658203,59.80532879616699Q122.35827674658202,59.791474296166996,122.25993374658202,59.79691029616699Q122.16159474658204,59.80234579616699,122.06620374658203,59.82686229616699Q121.97080974658203,59.85137839616699,121.88203474658204,59.894033896166995Q121.79325874658204,59.93668889616699,121.71451174658203,59.99584389616699Q121.63576474658203,60.05499889616699,121.57007174658203,60.128380796166994Q121.50437974658203,60.201762196166996,121.45426174658203,60.28654999616699Q120.36734774658203,62.12542489616699,119.09410074658203,63.63466069616699Q119.03058974658202,63.70994089616699,118.98298674658203,63.796164496166995Q118.93538274658204,63.88238809616699,118.90551774658203,63.97624209616699Q118.87565274658203,64.070095996167,118.86466974658202,64.167973496167Q118.85368774658204,64.26585099616699,118.86201074658203,64.36399079616699Q118.87033474658203,64.46212959616699,118.89764374658203,64.556758896167Q118.92495374658203,64.65138819616699,118.97019974658204,64.73887159616699Q119.01544774658203,64.826354996167,119.07689274658203,64.903330796167Q119.13833774658204,64.980305696167,119.21361874658203,65.043815596167Q119.36565574658204,65.172077696167,119.55520274658203,65.23239469616699Q119.74475074658203,65.29271269616699,119.94294774658204,65.275901696167Q120.14115174658204,65.25909269616699,120.31782874658202,65.16771269616699Q120.49451074658202,65.07633499616699,120.62277174658203,64.924299196167ZM101.44695274658203,65.833938696167Q100.17842874658203,65.60730069616699,99.14729474658203,66.55088569616699Q99.07463474658203,66.61737669616699,99.01634174658203,66.696763696167Q98.95804874658204,66.77615369616699,98.91636474658203,66.86538869616699Q98.87467974658203,66.95462369616699,98.85120574658202,67.05027769616699Q98.82773174658203,67.145931696167,98.82336974658203,67.244325696167Q98.81900774658203,67.342719696167,98.83392474658203,67.44007469616699Q98.84884174658202,67.537430696167,98.88246574658203,67.63000469616699Q98.91608874658203,67.72257969616699,98.96712774658204,67.80681569616699Q99.01816574658203,67.891052696167,99.08465774658202,67.963712696167Q99.15114774658203,68.03637269616699,99.23053574658204,68.09466469616699Q99.30992474658203,68.152956696167,99.39916074658203,68.194640696167Q99.48839574658203,68.23632569616699,99.58404874658203,68.259799696167Q99.67970274658202,68.28327369616699,99.77809674658204,68.287636696167Q99.87649174658203,68.29199869616698,99.97384874658204,68.27708169616699Q100.07120274658203,68.262162696167,100.16377774658203,68.22853969616699Q100.25635174658203,68.19491569616699,100.34058774658203,68.143877696167Q100.42482374658204,68.09283969616699,100.49748374658203,68.02634969616699Q100.79954074658204,67.74993969616699,101.09519774658203,67.802761696167Q101.58513274658203,67.89029469616699,102.16009674658203,68.67192669616699Q102.30143774658202,68.86423869616699,102.42389674658203,69.05894969616699Q102.47633174658203,69.14232169616699,102.54402574658204,69.21386269616698Q102.61171774658203,69.285403696167,102.69206774658203,69.34236369616698Q102.77241674658202,69.39932369616699,102.86233574658203,69.439513696167Q102.95225474658203,69.47970469616699,103.04828574658202,69.501580696167Q103.14431674658204,69.52345669616699,103.24276974658203,69.526177696167Q103.34122374658203,69.52889869616699,103.43831674658203,69.512360696167Q103.53540974658203,69.49582069616699,103.62741074658203,69.46065869616699Q103.71941174658204,69.42549669616699,103.80278574658203,69.37306169616699Q103.88615774658203,69.32062569616699,103.95770074658203,69.252932696167Q104.02924174658203,69.185237696167,104.08620074658202,69.104887696167Q104.14315974658203,69.02453769616699,104.18334974658202,68.93461969616699Q104.22353974658203,68.844701696167,104.24541674658204,68.748670696167Q104.26729174658203,68.65263869616699,104.27001174658203,68.554184696167Q104.27273374658203,68.455730696167,104.25619474658203,68.35863869616699Q104.23965674658203,68.26154569616699,104.20449474658203,68.16954569616699Q104.16933274658203,68.077544696167,104.11689774658203,67.994172696167Q103.95588474658203,67.73815969616699,103.77116774658202,67.486832696167Q102.72301074658203,66.06192169616699,101.44695274658203,65.833938696167ZM114.34235974658203,70.443027696167Q116.35824374658203,69.008367696167,117.65520874658203,67.89726269616699Q117.73000374658203,67.833183696167,117.79086274658204,67.75574369616699Q117.85171874658204,67.67830469616699,117.89630174658203,67.59048069616699Q117.94088174658204,67.502656696167,117.96747174658204,67.40782369616699Q117.99406474658203,67.312989696167,118.00164374658203,67.21479069616699Q118.00922174658203,67.116590696167,117.99749774658203,67.018798696167Q117.98577474658202,66.921006696167,117.95519874658203,66.82738269616699Q117.92462174658203,66.73375869616699,117.87636774658203,66.64789869616699Q117.82811374658203,66.562038696167,117.76403574658204,66.48724169616699Q117.63462474658203,66.33618169616699,117.45725674658203,66.24614569616699Q117.27988774658203,66.156108696167,117.08156574658203,66.140803696167Q116.88323974658203,66.125495696167,116.69415674658202,66.18724869616699Q116.50507374658203,66.249002696167,116.35401574658204,66.378414696167Q115.12533374658203,67.431020696167,113.18269774658204,68.81355369616699Q113.02063374658204,68.928888696167,112.91504274658203,69.09746269616699Q112.80945574658203,69.26603669616699,112.77641674658203,69.46218769616699Q112.74337774658203,69.658336696167,112.78791474658203,69.852197696167Q112.83245474658203,70.04606069616699,112.94778974658203,70.20812069616699Q113.00489574658204,70.288364696167,113.07656074658203,70.35592569616699Q113.14822774658202,70.42348669616699,113.23169674658203,70.475768696167Q113.31516674658204,70.52805069616699,113.40723374658202,70.563043696167Q113.49929774658203,70.59803669616699,113.59642174658202,70.61439669616699Q113.69354674658203,70.630756696167,113.79199374658202,70.627853696167Q113.89044374658204,70.62495169616699,113.98643474658203,70.60289869616699Q114.08242374658204,70.58084569616699,114.17226774658204,70.540490696167Q114.26211374658203,70.50013569616699,114.34235974658203,70.443027696167ZM101.66561974658202,74.67750169616698Q98.75735374658203,74.07808869616699,97.96302774658203,71.515422696167Q97.93386774658202,71.42134669616699,97.92361974658203,71.323388696167Q97.91337374658204,71.22543169616699,97.92243474658203,71.127357696167Q97.93149574658203,71.029283696167,97.95951674658203,70.93486169616699Q97.98753774658203,70.840440696167,98.03343974658203,70.75329969616699Q98.07934174658203,70.66615869616699,98.14136174658204,70.58964769616699Q98.20338274658204,70.51313469616699,98.27913874658203,70.45019369616699Q98.35489474658203,70.387252696167,98.44147474658203,70.340299696167Q98.52805374658203,70.29334869616699,98.62213074658203,70.264188696167Q98.71620574658203,70.23502869616699,98.81416274658203,70.22478169616699Q98.91211874658202,70.214534696167,99.01019274658204,70.223595696167Q99.10826674658203,70.232656696167,99.20268774658203,70.260677696167Q99.29710974658204,70.28869869616699,99.38425174658204,70.33460069616699Q99.47139174658203,70.38050269616699,99.54790274658203,70.44252369616699Q99.62441474658203,70.50454469616699,99.68735574658203,70.58030069616699Q99.75029774658204,70.65605569616699,99.79724974658203,70.74263569616699Q99.84420274658203,70.829215696167,99.87336374658203,70.92329169616698Q100.32917974658203,72.39385269616699,102.17033774658204,72.738523696167Q102.36198474658204,72.77440069616699,102.52611574658204,72.87964469616699Q102.69024674658203,72.984887696167,102.80281874658203,73.144084696167Q102.99267374658203,72.735528696167,103.08991174658203,72.30002569616698Q103.13325474658203,72.105890696167,103.24759174658203,71.943122696167Q103.36192874658204,71.78035569616699,103.52985174658203,71.67373469616699Q103.69777474658203,71.56711169616699,103.89371674658203,71.532865696167Q104.08965874658203,71.498620696167,104.28379074658203,71.54196769616699Q104.37991374658203,71.563428696167,104.47000274658203,71.603231696167Q104.56009274658203,71.643033696167,104.64068774658203,71.69964769616699Q104.72128274658203,71.75626169616699,104.78928374658203,71.82750869616699Q104.85728474658202,71.89875969616699,104.91007974658203,71.98190669616699Q104.96287374658203,72.06505369616698,104.99843174658203,72.15690069616699Q105.03398874658203,72.248750696167,105.05094674658203,72.345769696167Q105.06790574658203,72.44279269616699,105.06560874658203,72.541257696167Q105.06331274658203,72.63972269616698,105.04184874658203,72.73584769616699Q104.53022774658203,75.027263696167,102.37440074658203,76.69877469616699Q102.21720274658203,76.820655696167,102.02532974658203,76.873103696167Q101.83345574658203,76.92555269616699,101.63611774658203,76.900581696167Q101.43877974658203,76.87561069616699,101.26601874658203,76.777021696167Q101.09325774658203,76.678432696167,100.97137674658202,76.521234696167Q100.91102574658203,76.44339569616699,100.86702174658203,76.35528369616699Q100.82301474658203,76.267167696167,100.79704574658203,76.17216269616699Q100.77107574658203,76.077155696167,100.76413974658203,75.97891069616699Q100.75720374658204,75.880662696167,100.76956974658204,75.78295169616699Q100.78193374658203,75.68523969616699,100.81312374658204,75.59181569616699Q100.84431274658203,75.49839169616699,100.89312974658203,75.412851696167Q100.94194574658204,75.327306696167,101.00651274658203,75.252931696167Q101.07107974658203,75.17855669616699,101.14891674658203,75.11820769616699Q101.42606974658203,74.90331869616699,101.66561974658202,74.67750169616698ZM106.40786174658203,74.422408696167Q108.30900574658203,73.96105769616699,110.55361174658204,72.988269696167Q110.73611974658203,72.909169696167,110.87446574658203,72.76625269616699Q111.01281374658203,72.62333069616699,111.08593774658203,72.438348696167Q111.15906174658204,72.25336269616699,111.15582874658203,72.054477696167Q111.15259574658202,71.85559069616698,111.07349774658204,71.673082696167Q111.03433074658203,71.582711696167,110.97828674658203,71.50171869616699Q110.92224274658203,71.420726696167,110.85147674658202,71.35222469616699Q110.78070974658203,71.283719696167,110.69793874658203,71.23034069616699Q110.61516974658203,71.17696169616698,110.52357474658203,71.140754696167Q110.43197974658203,71.10454769616699,110.33507874658203,71.086905696167Q110.23818174658203,71.06926369616698,110.13970174658203,71.070863696167Q110.04122374658203,71.07246469616699,109.94494974658204,71.093248696167Q109.84867674658203,71.11403069616699,109.75830874658203,71.15319669616699Q107.67088274658204,72.05786469616699,105.93621074658203,72.478818696167Q105.74290874658203,72.52572469616699,105.58227174658202,72.64303569616699Q105.42163474658203,72.76034769616699,105.31811874658203,72.93020269616699Q105.21460374658203,73.100057696167,105.18396574658203,73.296596696167Q105.15333174658203,73.49313569616699,105.20024074658204,73.68643969616699Q105.24714674658203,73.879739696167,105.36445974658203,74.04037669616699Q105.48176974658203,74.201013696167,105.65162674658202,74.304528696167Q105.82147974658203,74.408044696167,106.01801874658203,74.43868069616698Q106.21455774658203,74.469316696167,106.40786174658203,74.422408696167ZM87.33124288658203,78.08380669616699Q88.42503136658203,78.43332469616699,89.51018304658203,78.67330569616699Q89.70440294658204,78.716256696167,89.90027524658203,78.68161369616699Q90.09614774658203,78.64697069616699,90.26385304658203,78.54000869616699Q90.43155814658203,78.433046696167,90.54556464658204,78.27004769616698Q90.65957144658204,78.107047696167,90.70252324658203,77.91283069616699Q90.74547484658203,77.71861069616699,90.71083214658204,77.52273769616698Q90.67618944658203,77.32686569616699,90.56922674658203,77.15916069616699Q90.46226404658204,76.991454696167,90.29926534658203,76.877448696167Q90.13626674658204,76.763440696167,89.94204684658203,76.72049169616699Q88.94647314658204,76.50032269616699,87.94001260658203,76.17870869616699Q87.75053866658203,76.118161696167,87.55231766358203,76.13473369616699Q87.35409667658203,76.15130469616699,87.17730596658203,76.24246969616699Q87.00051551658203,76.333635696167,86.87207001658203,76.485515696167Q86.74362450658204,76.63739569616699,86.68307858658203,76.82687169616699Q86.62253234658203,77.01634769616699,86.63910388658203,77.21457069616699Q86.65567546658203,77.41279269616699,86.74684184658203,77.58958069616699Q86.83800780658203,77.76636869616699,86.98988866658203,77.89481369616699Q87.14176949658203,78.02325969616699,87.33124288658203,78.08380669616699ZM93.86426924658203,79.186412696167Q96.20580574658203,79.20868869616699,98.26345474658203,78.660775696167Q98.45567074658203,78.609594696167,98.61366674658203,78.48875069616699Q98.77166274658202,78.36790469616699,98.87138574658204,78.19579469616698Q98.97110974658203,78.023685696167,98.99737974658203,77.826515696167Q99.02364874658203,77.62934669616699,98.97246774658203,77.43713569616699Q98.94712374658204,77.34195869616698,98.90369974658203,77.253557696167Q98.86027574658203,77.16515569616699,98.80043774658203,77.08692369616699Q98.74060274658203,77.00869169616699,98.66665374658203,76.943635696167Q98.59270574658203,76.878579696167,98.50748674658203,76.82920269616699Q98.42226674658203,76.779825696167,98.32905174658202,76.74801969616699Q98.23583674658204,76.71621469616699,98.13820874658202,76.703208696167Q98.04057974658203,76.69020269616699,97.94228974658203,76.69648969616699Q97.84399974658203,76.702779696167,97.74882474658203,76.72812269616699Q95.95344544658204,77.206197696167,93.88329454658204,77.18650469616699Q93.68439104658204,77.184610696167,93.49990364658203,77.25897969616699Q93.31541724658203,77.33334969616699,93.17343334658203,77.472656696167Q93.03144934658204,77.611963696167,92.95358374658203,77.79500169616699Q92.87571904658203,77.978040696167,92.87382694658203,78.176944696167Q92.87288954658203,78.27543069616699,92.89118484658204,78.37220569616699Q92.90947964658203,78.46898269616699,92.94630334658203,78.560331696167Q92.98312664658204,78.651679696167,93.03706454658203,78.73409069616699Q93.09100154658204,78.816499696167,93.15997984658203,78.88680469616699Q93.22895814658203,78.95710569616699,93.31032654658203,79.012601696167Q93.39169504658203,79.06809769616699,93.48232654658203,79.106653696167Q93.57295794658204,79.14520869616699,93.66936974658203,79.16534269616699Q93.76578184658203,79.18547469616699,93.86426924658203,79.186412696167Z" fill-rule="evenodd" fill="#BCC2C9" fill-opacity="1" style="mix-blend-mode:passthrough"/></g></g></g></svg>