<svg xmlns="http://www.w3.org/2000/svg" xmlns:xlink="http://www.w3.org/1999/xlink" fill="none" version="1.1" width="280" height="177.837890625" viewBox="0 0 280 177.837890625"><defs><mask id="master_svg0_113_5789" style="mask-type:alpha" maskUnits="objectBoundingBox"><path d="M0 0C0 0 0 0 0 0L280 0C280 0 280 0 280 0L280 177.83782958984375C280 177.83782958984375 280 177.83782958984375 280 177.83782958984375L0 177.83782958984375C0 177.83782958984375 0 177.83782958984375 0 177.83782958984375Z" fill="#FFFFFF" fill-opacity="1"/></mask><linearGradient x1="0.5" y1="0" x2="0.5" y2="0.34943687915802" id="master_svg1_113_3458"><stop offset="0%" stop-color="#5991F6" stop-opacity="0.6277503967285156"/><stop offset="99.91992712020874%" stop-color="#597AF6" stop-opacity="0"/></linearGradient><linearGradient x1="0.11182737350463867" y1="0.10655854642391205" x2="0.8974149317595141" y2="0.48935480005696563" id="master_svg2_113_3374"><stop offset="0%" stop-color="#D7DFFF" stop-opacity="1"/><stop offset="100%" stop-color="#9CB8FF" stop-opacity="1"/></linearGradient><linearGradient x1="1.0464541912078857" y1="0.2496887445449829" x2="-0.17177307806835018" y2="0.6144785747539109" id="master_svg3_113_3409"><stop offset="0%" stop-color="#FFFFFF" stop-opacity="1"/><stop offset="100%" stop-color="#FFFFFF" stop-opacity="0"/></linearGradient><linearGradient x1="0.11182737350463867" y1="0.10655854642391205" x2="1.2239221309921613" y2="0.9442790329280202" id="master_svg4_113_3405"><stop offset="0%" stop-color="#D7DFFF" stop-opacity="1"/><stop offset="100%" stop-color="#9CB8FF" stop-opacity="1"/></linearGradient><linearGradient x1="0.11182737350463867" y1="0.10655854642391205" x2="1.554781732143886" y2="0.6161159251176862" id="master_svg5_113_3405"><stop offset="0%" stop-color="#D7DFFF" stop-opacity="1"/><stop offset="100%" stop-color="#9CB8FF" stop-opacity="1"/></linearGradient><linearGradient x1="0.11182737350463867" y1="0.10655854642391205" x2="1.3442010432748865" y2="0.8675983535371823" id="master_svg6_113_3405"><stop offset="0%" stop-color="#D7DFFF" stop-opacity="1"/><stop offset="100%" stop-color="#9CB8FF" stop-opacity="1"/></linearGradient><linearGradient x1="0.3326454162597656" y1="0" x2="0.12837873913415657" y2="1.0422534939606705" id="master_svg7_113_3394"><stop offset="0%" stop-color="#A2BBFF" stop-opacity="1"/><stop offset="100%" stop-color="#5E8CFF" stop-opacity="1"/></linearGradient><linearGradient x1="0.5" y1="0" x2="1.133980933839801" y2="1.001678189599892" id="master_svg8_113_3391"><stop offset="0%" stop-color="#A2BBFF" stop-opacity="1"/><stop offset="100%" stop-color="#5E8CFF" stop-opacity="1"/></linearGradient><linearGradient x1="1" y1="0.11841905117034912" x2="0.3741519754884874" y2="1.1548090942598361" id="master_svg9_113_3398"><stop offset="0%" stop-color="#D7DFFF" stop-opacity="1"/><stop offset="100%" stop-color="#9CB8FF" stop-opacity="1"/></linearGradient><linearGradient x1="0.5" y1="0" x2="1.2817116436297449" y2="0.13041929270004182" id="master_svga_113_3391"><stop offset="0%" stop-color="#A2BBFF" stop-opacity="1"/><stop offset="100%" stop-color="#5E8CFF" stop-opacity="1"/></linearGradient><linearGradient x1="1.0415881872177124" y1="0" x2="-0.04875201108686934" y2="0.0012579982035632042" id="master_svgb_113_3385"><stop offset="0%" stop-color="#D7E0FF" stop-opacity="1"/><stop offset="100%" stop-color="#A6BFFF" stop-opacity="1"/></linearGradient><linearGradient x1="1.0415881872177124" y1="0" x2="-0.04875201108686934" y2="0.0012579982035632042" id="master_svgc_113_3385"><stop offset="0%" stop-color="#D7E0FF" stop-opacity="1"/><stop offset="100%" stop-color="#A6BFFF" stop-opacity="1"/></linearGradient><linearGradient x1="1.0415881872177124" y1="0" x2="-0.052386879677001806" y2="0.009388204301453484" id="master_svgd_113_3385"><stop offset="0%" stop-color="#D7E0FF" stop-opacity="1"/><stop offset="100%" stop-color="#A6BFFF" stop-opacity="1"/></linearGradient><linearGradient x1="1.0415881872177124" y1="0" x2="-0.05900015684999188" y2="0.025082911782115858" id="master_svge_113_3385"><stop offset="0%" stop-color="#D7E0FF" stop-opacity="1"/><stop offset="100%" stop-color="#A6BFFF" stop-opacity="1"/></linearGradient><linearGradient x1="0.5" y1="1" x2="0.5" y2="0" id="master_svgf_113_3382"><stop offset="0%" stop-color="#6994FF" stop-opacity="1"/><stop offset="100%" stop-color="#9CB6FF" stop-opacity="1"/></linearGradient><linearGradient x1="0.11182737350463867" y1="0.10655854642391205" x2="0.7677559147362989" y2="0.18292659204736683" id="master_svgg_113_3374"><stop offset="0%" stop-color="#D7DFFF" stop-opacity="1"/><stop offset="100%" stop-color="#9CB8FF" stop-opacity="1"/></linearGradient><linearGradient x1="0.11182737350463867" y1="0.10655854642391205" x2="0.2961507997706648" y2="1.0132560591481712" id="master_svgh_113_3374"><stop offset="0%" stop-color="#D7DFFF" stop-opacity="1"/><stop offset="100%" stop-color="#9CB8FF" stop-opacity="1"/></linearGradient><linearGradient x1="0.11182737350463867" y1="0.10655854642391205" x2="0.24842065476572378" y2="1.0011138727011009" id="master_svgi_113_3374"><stop offset="0%" stop-color="#D7DFFF" stop-opacity="1"/><stop offset="100%" stop-color="#9CB8FF" stop-opacity="1"/></linearGradient></defs><g style="opacity:0.7997002005577087;"><g><g><g><g mask="url(#master_svg0_113_5789)"><g><g style="opacity:0.4207349419593811;"><ellipse cx="140.90625762939453" cy="107.97290802001953" rx="100.97559356689453" ry="101.13306427001953" fill="url(#master_svg1_113_3458)" fill-opacity="1"/></g><g><path d="M85.05254558459472,48.57406496264649C84.54316358459472,42.18589016264649,79.21357558459472,37.161067962646484,72.71399458459473,37.161067962646484C65.87759358459473,37.161067962646484,60.33559608459473,42.72017146264648,60.33559608459473,49.577673962646486C60.33559608459473,50.625030962646484,60.46487378459473,51.642098962646486,60.708295784594725,52.613699962646486Q60.556286784594725,52.401614962646484,60.380360584594726,52.20903396264649Q60.204435384594724,52.016451962646485,60.00705718459473,51.846070962646486Q59.80967858459473,51.675687962646485,59.59361318459473,51.529892962646485Q59.37754818459473,51.384097962646486,59.14582298459473,51.26493396264648Q58.914097284594725,51.14576696264648,58.669958084594725,51.054900962646485Q58.425818884594726,50.96403496264649,58.17268658459473,50.90274096264648Q57.919553784594726,50.84144596264648,57.66097498459472,50.810582962646485Q57.40239618459473,50.77971996264648,57.14199308459472,50.77971996264648Q57.03416728459473,50.77971996264648,56.926471184594725,50.785026962646484Q56.81877518459473,50.79033496264648,56.71146868459473,50.800935962646484Q56.604161984594725,50.811536962646485,56.49750328459473,50.827406962646485Q56.390844584594724,50.843276962646485,56.28509068459473,50.864377962646486Q56.179336784594724,50.88547896264649,56.07474258459472,50.91175896264649Q55.970148084594726,50.938039962646485,55.86696528459473,50.96943696264648Q55.76378248459473,51.00083396264648,55.662259784594724,51.037269962646484Q55.56073708459473,51.07370796264648,55.46111918459473,51.11509796264649Q55.36150118459473,51.15648796264648,55.264027784594724,51.20273196264648Q55.16655448459473,51.24897596264648,55.07146098459473,51.299961962646485Q54.976366984594726,51.35094696264648,54.88388178459473,51.406550962646484Q54.79139658459473,51.462155962646484,54.70174268459473,51.52224496264648Q54.612088784594725,51.582334962646485,54.525482384594724,51.646765962646484Q54.43887588459473,51.711195962646485,54.35552548459473,51.779811962646484Q54.27217508459473,51.84842596264649,54.19228148459473,51.921060962646486Q54.112387884594725,51.99369496264649,54.036143584594726,52.07017496264648Q53.959899184594725,52.14665396264648,53.88748788459473,52.22679396264648Q53.81507658459473,52.30693396264648,53.746672634594724,52.390542962646485Q53.678268674594726,52.474149962646486,53.61403691459473,52.56102396264649Q53.54980516459473,52.64789796264648,53.489900354594724,52.73782696264648Q53.42999559459473,52.82775796264649,53.37456208459473,52.92052796264649Q53.31912857459473,53.01329896264649,53.268299874594724,53.10868596264648Q53.217471124594724,53.204072962646485,53.17136967459473,53.30184696264648Q53.12526822459473,53.399621962646485,53.084005114594724,53.49954796264649Q53.04274198459473,53.59947196264648,53.006416584594724,53.701308962646486Q52.97009119459473,53.80314596264648,52.93879103459473,53.906646962646484Q52.90749086459473,54.01014696264649,52.88129134459473,54.115064962646485Q52.85509181459473,54.219981962646486,52.83405604959473,54.32606296264649Q52.81302028859473,54.432143962646485,52.79719896659473,54.53913096264648Q52.78137764359472,54.64611996264648,52.770808873594724,54.75375896264649Q52.76024010259473,54.86139696264648,52.75494934339473,54.969424962646485Q52.74965858459473,55.07745396264649,52.74965858459473,55.18561196264648Q52.74965858459473,55.29376996264648,52.75494934339473,55.401797962646484Q52.76024010259473,55.509826962646486,52.770808873594724,55.61746396264648Q52.78137764359472,55.725101962646484,52.79719896659473,55.83208896264648Q52.81302028859473,55.93907696264648,52.83405604959473,56.045157962646485Q52.85509181459473,56.15123796264648,52.88129133459473,56.256154962646484Q52.90749086459473,56.36107296264649,52.93879103459473,56.46457496264648Q52.97009119459473,56.56807696264649,53.006416584594724,56.66991196264648Q53.04274198459473,56.77174796264649,53.084005114594724,56.87167396264648Q53.12526822459473,56.97159996264648,53.17136967459473,57.069371962646485Q53.217471124594724,57.16714896264648,53.268299874594724,57.262534962646484Q53.31912857459473,57.357921962646486,53.37456208459473,57.45069096264648Q53.42999559459473,57.543460962646485,53.489900354594724,57.633391962646485Q53.54980516459473,57.72332396264649,53.61403691459473,57.810197962646484Q53.678268674594726,57.897071962646486,53.746672634594724,57.98068096264649Q53.81507658459473,58.064288962646486,53.88748788459473,58.14442796264649Q53.959899184594725,58.224566962646485,54.036143584594726,58.301047962646486Q54.112387884594725,58.37752896264648,54.19228148459473,58.45016296264649Q54.27217508459473,58.52279896264648,54.35552548459473,58.591413962646484Q54.43887588459473,58.660026962646484,54.525482384594724,58.724456962646485Q54.612088784594725,58.78888696264649,54.70174268459473,58.848975962646485Q54.79139658459473,58.90906496264648,54.883881584594725,58.964671962646484Q54.976366984594726,59.02027496264648,55.071460684594726,59.07126196264649Q55.16655448459473,59.12224596264649,55.264027784594724,59.168488962646485Q55.36150118459473,59.21473296264648,55.46111918459473,59.25612296264649Q55.56073708459473,59.297513962646484,55.662259784594724,59.33395396264648Q55.76378248459473,59.37039196264648,55.86696528459473,59.401788962646485Q55.970148084594726,59.43318596264648,56.07474228459473,59.45946696264649Q56.179336784594724,59.485744962646486,56.28509068459473,59.50684596264648Q56.390844584594724,59.52794696264648,56.49750328459473,59.543815962646484Q56.604161984594725,59.55968696264648,56.71146868459473,59.570289962646484Q56.81877518459473,59.580890962646485,56.92647078459473,59.58619696264648Q57.03416728459473,59.59150496264648,57.14199308459472,59.59150496264648Q57.17096568459473,59.59150496264648,57.199935484594725,59.59112196264648L94.66589558459472,59.59112196264648C96.43557158459473,59.59112196264648,97.87018058459472,58.15651496264648,97.87018058459472,56.386836962646484C97.87018058459472,54.617158962646485,96.43557158459473,53.182551962646485,94.66589558459472,53.182551962646485L93.67722558459474,53.182551962646485Q93.87676858459473,52.49609196264649,93.87676858459473,51.78104496264648Q93.87677158459474,51.65813696264648,93.87075658459473,51.535377962646486Q93.86474458459472,51.412618962646484,93.85273158459472,51.290302962646486Q93.84072258459473,51.167987962646485,93.82274058459473,51.046409962646486Q93.80476158459473,50.924832962646484,93.78085558459472,50.804286962646486Q93.75695258459473,50.68374096264648,93.72717858459472,50.564516962646486Q93.69740458459472,50.445292962646484,93.66184058459473,50.32767796264648Q93.62627258459472,50.210061962646485,93.58499358459473,50.09433896264648Q93.54371458459472,49.978616962646484,93.49682458459472,49.865064962646485Q93.44993058459472,49.75151296264649,93.39754258459473,49.64040596264648Q93.34515558459472,49.529298962646486,93.28739758459473,49.42090496264648Q93.22963858459472,49.312510962646485,93.16664358459472,49.20708896264648Q93.10365058459473,49.10166696264648,93.03557758459473,48.99947396264648Q92.96750458459474,48.897279962646486,92.89451358459473,48.79855896264648Q92.82152758459472,48.699839962646486,92.74379558459472,48.60483096264649Q92.66606358459472,48.509821962646484,92.58378058459473,48.418753962646484Q92.50148958459474,48.32768396264648,92.41485058459472,48.24077596264648Q92.32821058459473,48.15386796264649,92.23742058459473,48.07132696264648Q92.14663158459473,47.98878896264648,92.05191258459473,47.910816962646486Q91.95719758459472,47.83284496264648,91.85877758459472,47.75962896264649Q91.76036258459473,47.686412962646486,91.65848358459473,47.61812896264648Q91.55660458459474,47.54984496264648,91.45150958459473,47.48665796264648Q91.34641458459473,47.42347096264648,91.23835158459472,47.36553296264648Q91.13028858459472,47.307593962646486,91.01952558459473,47.25504496264649Q90.90876158459473,47.20249496264648,90.79555658459472,47.15546036264649Q90.68235158459473,47.10842516264648,90.56698758459473,47.06702046264648Q90.45162058459474,47.025613762646486,90.33436758459473,46.98993586264648Q90.21711558459472,46.95425796264648,90.09825658459474,46.92439266264648Q89.97940258459472,46.89452936264648,89.85922858459472,46.870551062646484Q89.73905358459473,46.84657286264648,89.61785358459473,46.82853886264648Q89.49665258459473,46.81050496264648,89.37471158459473,46.79845806264648Q89.25277158459473,46.78641126264648,89.13038858459473,46.78038026264649Q89.00800558459473,46.77434916264649,88.88548058459472,46.77434916264649Q88.61205858459473,46.77434916264649,88.34027258459473,46.804306962646486Q88.06849058459473,46.834264762646484,87.80159558459474,46.89382366264648Q87.53470058459473,46.953381562646484,87.27588858459472,47.04182626264648Q87.01707658459472,47.13027186264648,86.76944158459472,47.246545962646486Q86.52180658459473,47.36281996264648,86.28831658459472,47.50552896264649Q86.05482658459474,47.64824096264648,85.83827758459472,47.81568096264648Q85.62172458459472,47.983119962646484,85.42469958459472,48.173284962646484Q85.22767858459473,48.363449962646484,85.05254558459472,48.57406496264649Z" fill-rule="evenodd" fill="#FFFFFF" fill-opacity="1"/></g><g><path d="M207.05295590820313,31.64240263017578C206.55299590820312,26.693008930175782,202.38634890820313,22.83039093017578,197.32031190820314,22.83039093017578C192.66577480820314,22.83039093017578,188.77045110820313,26.090995830175782,187.78059170820313,30.45932723017578C186.07074980820312,30.640306030175783,184.73855590820312,32.08698083017578,184.73855590820312,33.84480693017578C184.73855590820312,35.725089930175784,186.26282610820311,37.249359930175785,188.14310880820312,37.249359930175785L194.32254030820312,37.249359930175785L194.32254030820312,37.24990293017578L207.49091490820314,37.24990293017578C209.03938290820312,37.24990293017578,210.29466590820311,35.994620930175785,210.29466590820311,34.446152930175785C210.29466590820311,32.89768393017578,209.03938290820312,31.64240263017578,207.49091490820314,31.64240263017578L207.05295590820313,31.64240263017578Z" fill-rule="evenodd" fill="#FFFFFF" fill-opacity="1"/></g></g></g></g></g></g><g style="opacity:0.119309201836586;"><ellipse cx="139.52491760253906" cy="168.85197162628174" rx="43.04054260253906" ry="4.256756782531738" fill="#618DFA" fill-opacity="1"/></g><g><path d="M73.4417758125,146.02811099375C74.6098928125,142.82038676375,80.0050348125,141.90754769375,83.3138028125,142.02263622455C82.4688878125,151.98861499375,71.9450807125,151.78007889375,67.1611328125,151.04479119375C68.7370387125,150.70837779375,72.2853942125,149.20435719375,73.4417758125,146.02811099375Z" fill="url(#master_svg2_113_3374)" fill-opacity="1"/><path d="M77.36254215,147.255697759375Q73.27279135,149.933876559375,68.584622269,150.883561159375L68.626315231,151.089380259375Q73.35405825,150.131679559375,77.47758765,147.431379759375Q80.58505775,145.396448659375,82.36051975,143.150815099375L82.19578575,143.020572692375Q80.44147775,145.239452359375,77.36254215,147.255697759375Z" fill-rule="evenodd" fill="url(#master_svg3_113_3409)" fill-opacity="1"/><path d="M106.02327,114.72367501562499Q99.331802,131.517879015625,85.23818608,140.207500015625L85.60556392,140.80334501562498Q99.896351,131.99216101562502,106.673552,114.982775015625Q109.271912,108.461426015625,110.443979,101.442523015625Q111.419062,95.603255715625,111.227638,90.796866247625L110.528194,90.824722904625Q110.716749,95.559066315625,109.75353799999999,101.327229015625Q108.593838,108.272078015625,106.02327,114.72367501562499Z" fill-rule="evenodd" fill="url(#master_svg4_113_3405)" fill-opacity="1"/><path d="M86.40138145,120.774210421875Q83.82134915,124.739912421875,76.775305405,126.061838421875L76.904382095,126.749836421875Q84.24477815,125.372686421875,86.98813475,121.155942421875Q87.82945375,119.862774421875,88.02134475,118.57877042187499Q92.62640775,116.174548421875,93.53701775,104.606322353875L92.83917575,104.551390708875Q91.99931675,115.220792421875,88.07733175,117.734304421875Q88.05167775,116.190544421875,87.10303375,115.370882421875Q86.17605205,114.570327721875,85.09990695,115.077667421875Q84.20921565,115.497576421875,83.75612495,116.516030421875Q83.27347275,117.600933421875,83.74516205,118.391353421875Q84.29774474999999,119.317328421875,85.87830635,119.188346421875Q86.59256365,119.130020421875,87.24210775,118.911168421875Q87.01368175,119.83305942187499,86.40138145,120.774210421875ZM87.36830475,118.111329421875Q87.37798875,117.966661421875,87.37804475,117.82247742187499Q87.37854775,116.534037421875,86.64537815,115.900552421875Q86.06293395,115.397546421875,85.39840795,115.710831421875Q84.74303295,116.019803421875,84.39568905,116.800560421875Q84.06055545,117.553872421875,84.34626485,118.032641421875Q84.67540165,118.584182421875,85.82137205000001,118.490666421875Q86.64121155,118.423718421875,87.36830475,118.111329421875Z" fill-rule="evenodd" fill="url(#master_svg5_113_3405)" fill-opacity="1"/><path d="M113.75028705,127.28067728125001Q110.58962105,134.04635228125,106.18880785,135.89276128125L106.45962965,136.53825028125Q111.10950895,134.58734128125,114.38449475,127.57695528125Q116.78921375,122.42944618125,117.64182375,116.89755155125L116.94999175,116.79092239225Q116.11263375,122.22387118125,113.75028705,127.28067728125001Z" fill-rule="evenodd" fill="url(#master_svg6_113_3405)" fill-opacity="1"/></g><g transform="matrix(-1,0,0,1,355.6767578125,0)"><g><g><path d="M177.83837890625 79.19639015197754C177.83837890625 74.2755257414602 181.8275276945852 70.286376953125 186.74839210510254 70.286376953125L239.12104606628418 70.286376953125C244.04191047680152 70.286376953125 248.03105926513672 74.2755257414602 248.03105926513672 79.19639015197754L248.03105926513672 148.11712455749512C248.03105926513672 153.03798896801246 244.04191047680152 157.02713775634766 239.12104606628418 157.02713775634766L186.74839210510254 157.02713775634766C181.8275276945852 157.02713775634766 177.83837890625 153.03798896801246 177.83837890625 148.11712455749512Z" fill="url(#master_svg7_113_3394)" fill-opacity="1"/><ellipse cx="214.18765926361084" cy="70.28611660003662" rx="8.77408504486084" ry="8.799788475036621" fill="url(#master_svg8_113_3391)" fill-opacity="1"/><path d="M216.66366946875002,61.789306640625C221.41600046874998,61.789306640625,225.26853546875,65.653124340625,225.26853546875,70.419384940625L247.31906146875,70.419384940625C249.69558746875,70.419384940625,251.62213146875,72.351574640625,251.62213146875,74.735053640625L251.62213146875,152.40827964062498C251.62213146875,153.552863640625,251.16877746875,154.65056564062502,250.36179346875,155.459899640625C249.55480946875,156.269248640625,248.46031146875,156.723937640625,247.31906146875,156.723937640625L185.47054286875,156.723937640625C184.32929946875,156.723937640625,183.23479886875,156.269248640625,182.42781816875,155.459899640625C181.62083750875,154.65056564062502,181.16748046874997,153.552863640625,181.16748046875,152.40827964062498L181.16748046875,74.737564640625C181.16748046875,72.354089640625,183.09402706875,70.421898840625,185.47054286875,70.421898840625L208.05879746875002,70.421898840625C208.05813046875,68.132625140625,208.96442446875,65.936883940625,210.57821446875,64.317886840625C212.19201646875,62.698889490625,214.38108046874999,61.7893065434741,216.66366946875002,61.789306640625Z" fill="url(#master_svg9_113_3398)" fill-opacity="1"/><path d="M247.85742603125,149.49281884375C241.40554603125,150.55885084375,229.84255803125,150.99129784375,213.16845703125,150.79015784375L244.77897303125,139.53271484375C245.47062303125,142.94759724375,246.50192603125,146.28432134375,247.85742603125,149.49281884375L247.85742603125,149.49281884375Z" fill-rule="evenodd" fill="url(#master_svga_113_3391)" fill-opacity="1"/><path d="M186.00732421875,79.05078125L247.31938521875,79.05078125C246.76034521875,105.37639425,246.48083521875,121.21936425,246.48083521875,126.57970025C246.41250221875,133.38185925,247.37699521874998,140.15480825,249.34117921875,146.66583225C242.35449621875,148.75264025,228.10037221875,150.79167925000002,216.66397521875,150.79167925000002C207.18578321875,150.67169225,197.72118121875,150.03297425,188.31240151875,148.87835725C186.77568345875,148.11989625,186.00732421875,140.40374025,186.00732421875,125.72988525L186.00732421875,79.05078125Z" fill-rule="evenodd" fill="#FFFFFF" fill-opacity="1"/><path d="M192.88232421875 90.25657391548157C192.88232421875 89.6414658641669 193.3809678172919 89.142822265625 193.99607586860657 89.142822265625L241.90620303153992 89.142822265625C242.5213110828546 89.142822265625 243.01995468139648 89.6414658641669 243.01995468139648 90.25657391548157L243.01995468139648 90.54329586029053C243.01995468139648 91.15840391160519 242.5213110828546 91.6570475101471 241.90620303153992 91.6570475101471L193.99607586860657 91.6570475101471C193.3809678172919 91.6570475101471 192.88232421875 91.15840391160519 192.88232421875 90.54329586029053Z" fill="url(#master_svgb_113_3385)" fill-opacity="1"/><path d="M192.88232421875 97.79881024360657C192.88232421875 97.1837021922919 193.3809678172919 96.68505859375 193.99607586860657 96.68505859375L241.90620303153992 96.68505859375C242.5213110828546 96.68505859375 243.01995468139648 97.1837021922919 243.01995468139648 97.79881024360657L243.01995468139648 98.08553218841553C243.01995468139648 98.70064023973019 242.5213110828546 99.1992838382721 241.90620303153992 99.1992838382721L193.99607586860657 99.1992838382721C193.3809678172919 99.1992838382721 192.88232421875 98.70064023973019 192.88232421875 98.08553218841553Z" fill="url(#master_svgc_113_3385)" fill-opacity="1"/><path d="M192.88232421875 104.64133071899414C192.88232421875 103.71866857618467 193.63028966993465 102.970703125 194.55295181274414 102.970703125L218.78739166259766 102.970703125C219.71005380540714 102.970703125 220.4580192565918 103.71866857618467 220.4580192565918 104.64133071899414L220.4580192565918 105.07141304016113C220.4580192565918 105.9940751829706 219.71005380540714 106.74204063415527 218.78739166259766 106.74204063415527L194.55295181274414 106.74204063415527C193.63028966993465 106.74204063415527 192.88232421875 105.9940751829706 192.88232421875 105.07141304016113Z" fill="url(#master_svgd_113_3385)" fill-opacity="1"/><path d="M192.88232421875 138.02732586860657C192.88232421875 137.4122178172919 193.3809678172919 136.91357421875 193.99607586860657 136.91357421875L203.04953837394714 136.91357421875C203.66464642526182 136.91357421875 204.1632900238037 137.4122178172919 204.1632900238037 138.02732586860657L204.1632900238037 138.31404781341553C204.1632900238037 138.9291558647302 203.66464642526182 139.4277994632721 203.04953837394714 139.4277994632721L193.99607586860657 139.4277994632721C193.3809678172919 139.4277994632721 192.88232421875 138.9291558647302 192.88232421875 138.31404781341553Z" fill="url(#master_svge_113_3385)" fill-opacity="1"/><ellipse cx="217.16430473327637" cy="70.78653144836426" rx="4.720457077026367" ry="4.734285354614258" fill="url(#master_svgf_113_3382)" fill-opacity="1"/><ellipse cx="216.69491529464722" cy="70.28601884841919" rx="5.013762950897217" ry="5.0284504890441895" fill="#FFFFFF" fill-opacity="1"/></g></g></g><g transform="matrix(0.9612616896629333,0.27563735842704773,-0.27563735842704773,0.9612616896629333,19.885214883222943,-45.78166307354695)"><g style="opacity:0.598800003528595;"><ellipse cx="185.47942733764648" cy="69.42490470409393" rx="4.924739837646484" ry="1.391671061515808" fill="url(#master_svgg_113_3374)" fill-opacity="1"/></g><g style="opacity:0.5764999985694885;"><path d="M181.16858631,69.40275778710938C182.52386835,69.95426578710938,189.13086705,60.34222598710937,190.06262305,57.82103488710938C190.99437775,55.299845687109375,189.97791865,52.46350608710937,187.77558565,51.59684696710937C185.57325225,50.730187837109376,183.03209875,52.06957018710938,182.10034265,54.66954778710937C181.16858631,57.26952508710937,179.72859955,68.85124378710938,181.16858631,69.40275778710938Z" fill="url(#master_svgh_113_3374)" fill-opacity="1"/></g><path d="M181.5024757125,68.7164001875C183.0759058125,68.2593861875,182.8398918125,55.0821265875,182.0531769125,52.1115312875C181.2664614125,49.1409356875,178.6703024125,47.3128767575,176.1528141125,47.9983989175C173.6353265025,48.6839210375,172.2979111625,51.6545166875,173.0059546425,54.6251129875C173.7139982025,57.5957078875,179.9290457125,69.1734141875,181.5024757125,68.7164001875Z" fill="url(#master_svgi_113_3374)" fill-opacity="1"/></g></g></svg>