<svg xmlns="http://www.w3.org/2000/svg" xmlns:xlink="http://www.w3.org/1999/xlink" fill="none" version="1.1" width="50" height="50" viewBox="0 0 50 50"><defs><clipPath id="master_svg0_1049_76901"><rect x="10" y="10" width="30" height="30" rx="0"/></clipPath></defs><g><g><rect x="0" y="0" width="50" height="50" rx="8" fill="#EFF3FF" fill-opacity="1"/></g><g clip-path="url(#master_svg0_1049_76901)"><g><g><path d="M35.192626812499995,25.70752474093628L24.8695068125,25.70752474093628C24.310668812499998,25.70752374093628,23.8569338125,25.253789740936277,23.8569338125,24.69751374093628L23.8569338125,14.51538464093628C23.8569338125,13.946292670936279,24.3234868125,13.48999386593628,24.8900148125,13.502811249376279C30.0067138125,13.610477330936279,34.4876728125,17.037845840936278,35.8181148125,21.99817414093628C36.053954812499995,22.877446640936277,36.1821288125,23.772099740936277,36.2051998125,24.66931674093628C36.2180178125,25.23840874093628,35.7617188125,25.70752474093628,35.192626812499995,25.70752474093628ZM34.2742958125,27.49938374093628C34.428104812499996,26.96361774093628,34.9920688125,26.65343574093628,35.5278358125,26.80980874093628C36.0661658125,26.96618174093628,36.3737828125,27.527582740936282,36.2174108125,28.063348740936277C34.7895548125,32.980096740936276,30.3188498125,36.420283740936284,25.1816418125,36.420283740936284C18.8242192125,36.420283740936284,13.6767578125,31.19847974093628,13.6767578125,24.76671774093628C13.6767578125,19.92687364093628,16.6170657125,15.64330384093628,20.9929209125,13.90782940093628C21.5133071125,13.702751250936279,22.1029072125,13.95653558093628,22.3079853125,14.47692132093628C22.5130634125,14.99730704093628,22.259279212499997,15.586906640936279,21.7388935125,15.79198484093628C18.1295180125,17.21984144093628,15.7019060125,20.76256654093628,15.7019060125,24.76671774093628C15.7019060125,30.08849474093628,19.9495873125,34.39513574093628,25.1816428125,34.39513574093628C29.408815812500002,34.39513574093628,33.0950968125,31.55993074093628,34.2742958125,27.49938374093628ZM33.864745812500004,22.52625034093628C32.8675538125,18.80408194093628,29.7119138125,16.12781214093628,25.9615488125,15.61511684093628L25.882079812500002,15.60486224093628L25.882079812500002,23.68494174093628L34.0954588125,23.68494174093628L34.0544438125,23.40039494093628C34.0288088125,23.25427774093628,34.0006118125,23.10815854093628,33.969848812500004,22.96204134093628L33.864745812500004,22.52625034093628Z" fill-rule="evenodd" fill="#5D87FF" fill-opacity="1" style="mix-blend-mode:passthrough"/></g></g></g></g></svg>