<svg xmlns="http://www.w3.org/2000/svg" xmlns:xlink="http://www.w3.org/1999/xlink" fill="none" version="1.1" width="38" height="38" viewBox="0 0 38 38"><defs><clipPath id="master_svg0_113_00028"><rect x="0" y="0" width="38" height="38" rx="0"/></clipPath></defs><g><g clip-path="url(#master_svg0_113_00028)"><g><g><path d="M28.9999733125,31.71431885559082L28.9999733125,21.82516685559082L22.4000623125,17.43022585559082L22.4000623125,31.71431885559082L22.9936253125,31.71431885559082C23.6600453125,31.71431885559082,24.2000373125,32.27145385559082,24.2000373125,32.95715885559082C24.2000373125,33.64286385559082,23.6600433125,34.19999885559082,22.9936253125,34.19999885559082L4.4067360125,34.19999885559082C3.7306143025000003,34.18942785559082,3.1907822043,33.63329485559082,3.20032389648,32.95715885559082C3.20032389648,32.27145385559082,3.7403165725000003,31.71431885559082,4.4067361125,31.71431885559082L5.0002994125,31.71431885559082L5.0002994125,10.85602995559082C5.0002994125,9.77604485559082,5.6731474125000005,8.81820055559082,6.6717052125,8.486062055590821L19.2715343125,4.31826154559082C19.8779543125,4.11683571359082,20.5358033125,4.17469206459082,21.1036533125,4.4768307755908205C21.6693593125,4.78111237559082,22.0957833125,5.3039624555908205,22.2864933125,5.929668155590821C22.3614923125,6.17395055559082,22.4000623125,6.4289472555908205,22.4000623125,6.68608645559082L22.4000623125,14.58455085559082L22.4493483125,14.505265855590821L30.2985263125,19.733766855590822C30.9842323125,20.192330855590818,31.3999403125,20.98089185559082,31.3999403125,21.82516685559082L31.3999403125,31.71431885559082L31.9935033125,31.71431885559082C32.6599233125,31.71431885559082,33.199915312499996,32.27145385559082,33.199915312499996,32.95715885559082C33.199915312499996,33.64286385559082,32.6599213125,34.19999885559082,31.9935033125,34.19999885559082L26.6064343125,34.19999885559082C25.9303133125,34.18942785559082,25.3904803125,33.63329485559082,25.4000223125,32.95715885559082C25.4000223125,32.27145385559082,25.9400153125,31.71431885559082,26.6064343125,31.71431885559082L28.9999733125,31.71431885559082ZM20.0000953125,31.71431885559082L20.0000953125,6.68608665559082L7.4002666125,10.85602995559082L7.4002666125,31.71217585559082L20.0000953125,31.71217585559082L20.0000953125,31.71431885559082ZM10.4002261125,14.30812585559082C10.4002261125,13.62242035559082,10.9402189125,13.06528475559082,11.6066379125,13.06528475559082L15.7937243125,13.06528475559082C16.4601443125,13.06528475559082,17.0001363125,13.62242035559082,17.0001363125,14.30812485559082C17.0001363125,14.993829855590821,16.4601443125,15.55096385559082,15.7937243125,15.55096385559082L11.6066379125,15.55096385559082C10.9305172125,15.54039285559082,10.3906855125,14.98426085559082,10.4002261125,14.30812585559082ZM10.4002261125,19.90090685559082C10.4002261125,19.21520185559082,10.9402189125,18.65806585559082,11.6066379125,18.65806585559082L15.7937243125,18.65806585559082C16.4601443125,18.65806585559082,17.0001363125,19.21520185559082,17.0001363125,19.90090585559082C17.0001363125,20.58875285559082,16.4601443125,21.14588885559082,15.7937243125,21.14588885559082L11.6066379125,21.14588885559082C10.930516712500001,21.13531685559082,10.3906855125,20.579185855590822,10.4002256125,19.903049855590822L10.4002261125,19.90090685559082ZM10.4002261125,25.49797285559082C10.4002261125,24.81226685559082,10.9402189125,24.25513285559082,11.6066379125,24.25513285559082L15.7937243125,24.25513285559082C16.4601443125,24.25513285559082,17.0001363125,24.81226685559082,17.0001363125,25.49797285559082C17.0001363125,26.18367785559082,16.4601443125,26.74081185559082,15.7937243125,26.74081185559082L11.6066379125,26.74081185559082C11.2847242125,26.74004185559082,10.9769244125,26.60856985559082,10.7537923125,26.37653185559082C10.5265608125,26.14054685559082,10.3998027125,25.82557285559082,10.4002261125,25.49797285559082ZM23.6000463125,25.49797285559082C23.6000463125,24.81226685559082,24.1400393125,24.25513285559082,24.8064573125,24.25513285559082L25.9935833125,24.25513285559082C26.6600033125,24.25513285559082,27.1999953125,24.81226685559082,27.1999953125,25.49797285559082C27.1999953125,26.18367785559082,26.6600013125,26.74081185559082,25.9935833125,26.74081185559082L24.8064573125,26.74081185559082C24.4845433125,26.74004185559082,24.1767443125,26.60856985559082,23.9536113125,26.37653185559082C23.7263793125,26.14054685559082,23.5996213125,25.82557285559082,23.6000463125,25.49797285559082Z" fill="#5D87FF" fill-opacity="1" style="mix-blend-mode:passthrough"/></g></g></g></g></svg>