<svg xmlns="http://www.w3.org/2000/svg" xmlns:xlink="http://www.w3.org/1999/xlink" fill="none" version="1.1" width="13" height="15.6357421875" viewBox="0 0 13 15.6357421875"><g><path d="M10.8514,0.466727L12.835,3.15041C12.9517,3.26709,13.0684,3.61713,12.9517,3.8505L12.9517,14.4685C12.9517,15.1686,12.4849,15.6353,11.7849,15.6353L1.16682,15.6353C0.466727,15.6353,0,15.1686,0,14.4685L0,1.16682C0,0.466727,0.466727,0,1.16682,0L9.91794,0C10.268,0,10.618,0.116682,10.8514,0.466727ZM9.21782,6.65112L3.85046,6.65112C3.38374,6.65112,3.03369,6.30108,3.03369,5.83435C3.03369,5.36762,3.38374,5.01758,3.85046,5.01758L9.21782,5.01758C9.68455,5.01758,10.0346,5.36762,10.0346,5.83435C10.0346,6.30108,9.68455,6.65112,9.21782,6.65112ZM9.21782,10.6179L3.85046,10.6179C3.38374,10.6179,3.03369,10.2679,3.03369,9.80115C3.03369,9.33442,3.38374,8.98438,3.85046,8.98438L9.21782,8.98438C9.68455,8.98438,10.0346,9.33442,10.0346,9.80115C10.0346,10.2679,9.68455,10.6179,9.21782,10.6179Z" fill-rule="evenodd" fill="#2956FF" fill-opacity="1"/></g></svg>