<svg xmlns="http://www.w3.org/2000/svg" xmlns:xlink="http://www.w3.org/1999/xlink" fill="none" version="1.1" width="14" height="14" viewBox="0 0 14 14"><g><g><path d="M14,12.25C14,13.2125,13.2125,14,12.25,14L1.75,14C0.7875,14,0,13.2125,0,12.25L0,1.75C0,0.7875,0.7875,0,1.75,0L12.25,0C13.2125,0,14,0.7875,14,1.75L14,12.25ZM1.75,0.875C1.225,0.875,0.875,1.225,0.875,1.75L0.875,12.25C0.875,12.775,1.225,13.125,1.75,13.125L12.25,13.125C12.775,13.125,13.125,12.775,13.125,12.25L13.125,1.75C13.125,1.225,12.775,0.875,12.25,0.875L1.75,0.875ZM7,10.9375C6.7375,10.9375,6.5625,10.7625,6.5625,10.5L6.5625,7.4375L3.5,7.4375C3.2375,7.4375,3.0625,7.2625,3.0625,7C3.0625,6.7375,3.2375,6.5625,3.5,6.5625L6.5625,6.5625L6.5625,3.5C6.5625,3.2375,6.7375,3.0625,7,3.0625C7.2625,3.0625,7.4375,3.2375,7.4375,3.5L7.4375,6.5625L10.5,6.5625C10.7625,6.5625,10.9375,6.7375,10.9375,7C10.9375,7.2625,10.7625,7.4375,10.5,7.4375L7.4375,7.4375L7.4375,10.5C7.4375,10.7625,7.2625,10.9375,7,10.9375Z" fill-rule="evenodd" fill="#666666" fill-opacity="1"/></g></g></svg>