<svg xmlns="http://www.w3.org/2000/svg" xmlns:xlink="http://www.w3.org/1999/xlink" fill="none" version="1.1" width="8" height="4.559999942779541" viewBox="0 0 8 4.559999942779541"><g><path d="M4.35655,4.41054L7.85655,0.850536Q7.9255,0.780402,7.96275,0.689377Q8,0.5983523,8,0.5000000000000103L7.99998,0.49575089Q7.99914,0.396298,7.9603,0.30474Q7.92146,0.213181,7.85054,0.143455Q7.7804,0.07450299999999999,7.68938,0.03725099999999998Q7.59835,0,7.5,0L7.49575,0.000018000000000018Q7.3963,0.0008630000000000027,7.30474,0.03970299999999999Q7.21318,0.07854299999999997,7.14346,0.14946399999999999L7.14319,0.149731L4,3.34681L0.856545,0.14946399999999999Q0.786045,0.07775500000000002,0.693303,0.038878000000000024Q0.600561,0,0.500000307359,0Q0.4891816,0,0.4783734,0.00046800000000002395Q0.385714,0.004479000000000011,0.300657,0.04145599999999999Q0.215601,0.07843299999999997,0.14946399999999999,0.143455Q0.07775500000000002,0.213955,0.038876999999999995,0.306697Q0,0.399439,0,0.5Q0,0.5108182,0.00046800000000002395,0.5216267Q0.004479000000000011,0.614286,0.04145599999999999,0.699343Q0.07843299999999997,0.7843990000000001,0.143455,0.850536L3.64346,4.41054Q3.64643,4.41357,3.64946,4.41655Q3.72039,4.48627,3.81259,4.52355Q3.9048,4.56083,4.00425,4.55998Q4.1037,4.55914,4.19526,4.5203Q4.2868200000000005,4.48146,4.35655,4.41054Z" fill-rule="evenodd" fill="#666666" fill-opacity="1"/></g></svg>