<svg xmlns="http://www.w3.org/2000/svg" xmlns:xlink="http://www.w3.org/1999/xlink" fill="none" version="1.1" width="15" height="14.0625" viewBox="0 0 15 14.0625"><g><g><path d="M2.71875,5.625000074993896C2.4375,5.625000074993896,2.25,5.8124997749938965,2.25,6.0937497749938965L2.25,11.531250774993897C2.25,11.812500774993897,2.53125,12.093750774993897,2.8125,12.093750774993897C3.09375,12.093750774993897,3.375,11.812500774993897,3.375,11.531250774993897L3.375,6.0937497749938965C3.28125,5.8124997749938965,3,5.531250074993896,2.71875,5.625000074993896ZM6.28125,7.687280774993896C6.28125,7.406030774993896,6.5625,7.124780774993896,6.84375,7.124780774993896C7.125,7.031030774993896,7.3125,7.312280774993896,7.40625,7.687280774993896L7.40625,11.624780774993896C7.40625,11.906030774993896,7.125,12.187280774993896,6.84375,12.187280774993896C6.5625,12.187280774993896,6.28125,11.906030774993896,6.28125,11.624780774993896L6.28125,7.687280774993896ZM4.78125,7.687500774993897C4.5,7.687500774993897,4.21875,7.968750774993897,4.21875,8.250000774993897L4.21875,11.625000774993897C4.21875,11.906250774993897,4.5,12.187500774993897,4.78125,12.187500774993897C5.0625,12.187500774993897,5.34375,11.906250774993897,5.34375,11.625000774993897L5.34375,8.156250774993897C5.34375,7.875000774993897,5.0625,7.593750774993897,4.78125,7.687500774993897Z" fill-rule="evenodd" fill="#999999" fill-opacity="1"/></g><g><path d="M13.2188,0C14.1562,0,15,0.75,15,1.78125L15,12.1875C15,13.2188,14.1562,14.0625,13.125,14.0625L1.875,14.0625C0.84375,14.0625,0,13.2188,0,12.1875L0,1.78125C0,0.75,0.84375,0,1.78125,0L13.2188,0ZM13.0312,1.125C13.5,1.125,13.9688,1.5,13.9688,2.0625L13.9688,3.28125L1.03125,3.28125L1.03125,1.96875C1.03125,1.5,1.40625,1.03125,1.96875,1.03125L13.0312,1.03125L13.0312,1.125ZM13.6875,12.6562C13.5,12.8438,13.3125,12.9375,13.0312,12.9375L1.96875,12.9375C1.6875,12.9375,1.5,12.8438,1.3125,12.6562C1.125,12.4688,1.03125,12.2812,1.03125,12L1.03125,4.3125L13.875,4.3125L13.875,12.0938C13.9688,12.2812,13.875,12.5625,13.6875,12.6562Z" fill-rule="evenodd" fill="#999999" fill-opacity="1"/></g></g></svg>