<svg xmlns="http://www.w3.org/2000/svg" xmlns:xlink="http://www.w3.org/1999/xlink" fill="none" version="1.1" width="16" height="16" viewBox="0 0 16 16"><defs><clipPath id="master_svg0_21_17373"><rect x="0" y="0" width="16" height="16" rx="0"/></clipPath></defs><g clip-path="url(#master_svg0_21_17373)"><g><path d="M1.33349609375,14.666015625C1.33349609375,11.720515625,3.72130609375,9.332685625,6.66682609375,9.332685625C9.61236609375,9.332685625,12.00019609375,11.720515625,12.00019609375,14.666015625L10.66682609375,14.666015625C10.66682609375,12.456915625,8.87596609375,10.666015625,6.66682609375,10.666015625C4.4576860937500005,10.666015625,2.66682609375,12.456915625,2.66682609375,14.666015625L1.33349609375,14.666015625ZM6.66682609375,8.666015625C4.45682609375,8.666015625,2.66682609375,6.876015625,2.66682609375,4.666015625C2.66682609375,2.456015625,4.45682609375,0.666015625,6.66682609375,0.666015625C8.876826093750001,0.666015625,10.66682609375,2.456015625,10.66682609375,4.666015625C10.66682609375,6.876015625,8.876826093750001,8.666015625,6.66682609375,8.666015625ZM6.66682609375,7.332685625C8.14016609375,7.332685625,9.33349609375,6.139345625,9.33349609375,4.666015625C9.33349609375,3.192685625,8.14016609375,1.999345625,6.66682609375,1.999345625C5.193496093749999,1.999345625,4.00016609375,3.192685625,4.00016609375,4.666015625C4.00016609375,6.139345625,5.193496093749999,7.332685625,6.66682609375,7.332685625ZM12.18929609375,9.801215625C14.04309609375,10.636745625,15.33349609375,12.500715625,15.33349609375,14.666015625L14.00019609375,14.666015625C14.00019609375,13.042015625,13.03239609375,11.644115625,11.64199609375,11.017415625L12.18929609375,9.801215625ZM11.73099609375,2.274825625C13.06309609375,2.824035625,14.00019609375,4.135085625,14.00019609375,5.666015625C14.00019609375,7.579485625,12.53629609375,9.149485625,10.66682609375,9.317745625L10.66682609375,7.975745625C11.79799609375,7.814145625,12.66679609375,6.842015625,12.66679609375,5.666015625C12.66679609375,4.745585625,12.13459609375,3.950035625,11.36079609375,3.570245625L11.73099609375,2.274825625Z" fill="#000000" fill-opacity="0.45098039507865906" style="mix-blend-mode:passthrough"/></g></g></svg>