<svg xmlns="http://www.w3.org/2000/svg" xmlns:xlink="http://www.w3.org/1999/xlink" fill="none" version="1.1" width="18" height="12" viewBox="0 0 18 12"><g><g><path d="M14.1225,0.881658C14.088,0.385983,13.6642,0.000810052,13.1524,0L0.983885,0L0.851435,0.00882442C0.344224,0.0765752,-0.0223464,0.514026,0.0125508,1.00992C0.0474481,1.50581,0.471895,1.89079,0.983885,1.89095L13.1524,1.89095L13.2836,1.88212C13.7905,1.81441,14.157,1.37733,14.1225,0.881658ZM17.7425,0.180575L15.3415,0.167969L15.3415,0.169229C15.2369,0.169142,15.1424,0.229995,15.1019,0.323608C15.0613,0.417221,15.0826,0.525319,15.1558,0.597844L16.3634,1.77023C16.4647,1.86799,16.6283,1.86799,16.7296,1.77023L17.9243,0.61045C17.9979,0.538526,18.02,0.430757,17.9803,0.336935C17.9407,0.243113,17.8469,0.181505,17.7425,0.180575ZM14.1225,5.94806C14.0879,5.45239,13.6641,5.06722,13.1524,5.06641L0.983834,5.06641L0.851384,5.07397C0.339545,5.137,-0.0328482,5.57661,0.00229483,6.07633C0.0374379,6.57605,0.46792,6.96245,0.983834,6.95735L13.1524,6.95735L13.2835,6.94853C13.7905,6.88082,14.157,6.44374,14.1225,5.94806ZM15.3416,5.23439L17.7426,5.247C17.8465,5.24841,17.9396,5.30982,17.9791,5.4031C18.0187,5.49638,17.9972,5.60358,17.9244,5.67561L16.7298,6.83539C16.6285,6.93315,16.4649,6.93315,16.3636,6.83539L15.1559,5.66553C15.0809,5.59323,15.0584,5.48396,15.0992,5.38924C15.14,5.29452,15.2359,5.23328,15.3416,5.23439ZM14.1225,10.991C14.0879,10.4954,13.6641,10.1102,13.1524,10.1094L0.983834,10.1094L0.851384,10.1169C0.339545,10.18,-0.0328482,10.6196,0.00229483,11.1193C0.0374379,11.619,0.46792,12.0054,0.983834,12.0003L13.1524,12.0003L13.2835,11.9915C13.7905,11.9238,14.157,11.4867,14.1225,10.991ZM15.3416,10.2774L17.7426,10.29C17.8465,10.2914,17.9396,10.3528,17.9791,10.4461C18.0187,10.5394,17.9972,10.6465,17.9244,10.7186L16.7298,11.8784C16.6285,11.9761,16.4649,11.9761,16.3636,11.8784L15.1559,10.7085C15.0809,10.6362,15.0584,10.5269,15.0992,10.4322C15.14,10.3375,15.2359,10.2762,15.3416,10.2774Z" fill-rule="evenodd" fill="#FFFFFF" fill-opacity="1"/></g></g></svg>