<svg xmlns="http://www.w3.org/2000/svg" xmlns:xlink="http://www.w3.org/1999/xlink" fill="none" version="1.1" width="100" height="38" viewBox="0 0 100 38"><g><path d="M23.05,30.5L18,30.5L18,27.325L19.85,27.325L19.85,11.675L9.825,11.675L9.825,8.55L23.075,8.55L23.05,30.5ZM1.95,13.3L5.15,13.3L5.15,30.5L1.95,30.5L1.95,13.3ZM6.75,8L8.85,12.65L5.3,12.65L3.2,8L6.75,8ZM7.525,15.075L17.475,15.075L17.475,25.975L7.525,25.975L7.525,15.075ZM14.325,22.8L14.325,18.225L10.675,18.225L10.675,22.8L14.325,22.8ZM30.9,22.1Q28.975,24.2,26,25.4L26,22.1Q28.95,20.725,30.225,17.825L26.25,17.825L26.25,14.85L35.9,14.85L35.9,13.25L27.525,13.25L27.525,10.275L30.125,10.275L29.45,8L32.525,8L33.2,10.275L35.9,10.275L35.9,7.75L39.1,7.75L39.1,10.275L41.8,10.275L42.475,8L45.55,8L44.875,10.275L47.475,10.275L47.475,13.25L39.1,13.25L39.1,14.85L48.75,14.85L48.75,17.825L44.775,17.825Q46.05,20.725,49,22.1L49,25.4Q45.525,24,43.45,21.325L43.825,26.55L37.45,26.55L37.45,24L40.625,24L40.475,22.375L34.075,22.375L33.275,27.6L47.725,27.6L47.725,30.5L29.55,30.5L30.9,22.1ZM42.35,19.575Q41.975,18.825,41.6,17.825L33.4,17.825Q33.025,18.825,32.65,19.575L42.35,19.575ZM51.25,14.2L60.85,14.2L60.85,12.9L62.025,12.9L62.025,11.15L62.075,11.125L59.7,11.125L60.6,13.45L57.225,13.45L56.325,11.15Q55.375,12.275,54.075,13.075Q52.775,13.875,51.25,14.175L51.25,11.15Q53.625,10.1,54.7,8.125L62.425,8.125L62.425,10.95Q64.5,9.925,65.475,8.125L73.75,8.125L73.75,11.125L70.5,11.125L71.4,13.45L68.025,13.45L67.125,11.125Q65.875,12.6,64.15,13.45L64.15,14.2L73.75,14.2L73.75,19.575L70.675,19.575L70.675,23.8L56.875,23.8L56.875,24.675L72.3,24.675L72.3,30.5L53.625,30.5L53.625,19.575L51.25,19.575L51.25,14.2ZM70.5,17.975L70.5,16.9L54.5,16.9L54.5,17.975L70.5,17.975ZM69.05,28.175L69.05,27L56.875,27L56.875,28.175L69.05,28.175ZM67.425,21.45L67.425,20.35L56.875,20.35L56.875,21.45L67.425,21.45ZM93.3,20.85L93.3,22.525L98.225,22.525L98.225,25.45L93.3,25.45L93.3,27.25L98.925,27.25L98.925,30.225L84.375,30.225L84.375,28L76.125,29.375L76.125,26.175L78.725,25.75L78.725,19.75L76.6,19.75L76.6,16.6L78.725,16.6L78.725,11.775L76.25,11.775L76.25,8.575L84.025,8.575L84.025,11.775L81.925,11.775L81.925,16.6L83.825,16.6L83.825,19.75L81.925,19.75L81.925,25.2L84.375,24.8L84.375,27.25L90,27.25L90,25.45L85.05,25.45L85.05,22.525L90,22.525L90,20.85L85.45,20.85L85.45,8.4L97.825,8.4L97.825,20.85L93.3,20.85ZM90.225,17.9L90.225,16L88.55,16L88.55,17.9L90.225,17.9ZM90.225,13.225L90.225,11.325L88.55,11.325L88.55,13.225L90.225,13.225ZM94.725,17.9L94.725,16L93.075,16L93.075,17.9L94.725,17.9ZM94.725,13.225L94.725,11.325L93.075,11.325L93.075,13.225L94.725,13.225Z" fill="#3D3D3D" fill-opacity="1"/></g></svg>