<svg xmlns="http://www.w3.org/2000/svg" xmlns:xlink="http://www.w3.org/1999/xlink" fill="none" version="1.1" width="68.38385009765625" height="56.7919921875" viewBox="0 0 68.38385009765625 56.7919921875"><defs><linearGradient x1="0.7406927943229675" y1="0" x2="0.23623585997784183" y2="0.9138571134416912" id="master_svg0_1_04615"><stop offset="0%" stop-color="#3176F1" stop-opacity="1"/><stop offset="100%" stop-color="#0C5CF8" stop-opacity="1"/></linearGradient><linearGradient x1="0.7406927943229675" y1="0" x2="0.41158176398232665" y2="0.6441688991650397" id="master_svg1_1_04695"><stop offset="0%" stop-color="#A2C6FF" stop-opacity="1"/><stop offset="100%" stop-color="#0A59F5" stop-opacity="1"/></linearGradient><filter id="master_svg2_120_01662" filterUnits="objectBoundingBox" color-interpolation-filters="sRGB" x="-0.12683634678017916" y="-0.109803253118287" width="1.2536726935603584" height="1.2928086749820986"><feFlood flood-opacity="0" result="BackgroundImageFix"/><feColorMatrix in="SourceAlpha" type="matrix" values="0 0 0 0 0 0 0 0 0 0 0 0 0 0 0 0 0 0 127 0"/><feOffset dy="1.1980063915252686" dx="0"/><feGaussianBlur stdDeviation="1.1980063915252686"/><feColorMatrix type="matrix" values="0 0 0 0 0.4347345232963562 0 0 0 0 0.5656070709228516 0 0 0 0 0.7797619104385376 0 0 0 0.550000011920929 0"/><feBlend mode="normal" in2="BackgroundImageFix" result="effect1_dropShadow"/><feBlend mode="normal" in="SourceGraphic" in2="effect1_dropShadow" result="shape"/></filter><linearGradient x1="0" y1="0" x2="1.1170542987026506" y2="0.8236519951011276" id="master_svg3_1_00994"><stop offset="0%" stop-color="#FFFFFF" stop-opacity="1"/><stop offset="100%" stop-color="#DFECFF" stop-opacity="1"/></linearGradient><filter id="master_svg4_120_01666" filterUnits="objectBoundingBox" color-interpolation-filters="sRGB" x="-0.19054409582671752" y="-0.2964687739175604" width="1.326647023738906" height="1.7905833971134943"><feFlood flood-opacity="0" result="BackgroundImageFix"/><feColorMatrix in="SourceAlpha" type="matrix" values="0 0 0 0 0 0 0 0 0 0 0 0 0 0 0 0 0 0 127 0"/><feOffset dy="1.1980063915252686" dx="-0.7986708879470825"/><feGaussianBlur stdDeviation="1.1980063915252686"/><feColorMatrix type="matrix" values="0 0 0 0 0.4347345232963562 0 0 0 0 0.5656070709228516 0 0 0 0 0.7797619104385376 0 0 0 0.550000011920929 0"/><feBlend mode="normal" in2="BackgroundImageFix" result="effect1_dropShadow"/><feBlend mode="normal" in="SourceGraphic" in2="effect1_dropShadow" result="shape"/></filter><linearGradient x1="0" y1="0" x2="1.1328927887651163" y2="0.18999437904392558" id="master_svg5_1_00994"><stop offset="0%" stop-color="#FFFFFF" stop-opacity="1"/><stop offset="100%" stop-color="#DFECFF" stop-opacity="1"/></linearGradient></defs><g><g><ellipse cx="20.371647834777832" cy="45.83730888366699" rx="5.827946662902832" ry="5.960355758666992" fill="url(#master_svg0_1_04615)" fill-opacity="1"/></g><g><ellipse cx="56.04254341125488" cy="24.016852378845215" rx="11.957338333129883" ry="12.021735191345215" fill="url(#master_svg1_1_04695)" fill-opacity="1"/></g><g><path d="M10.8332,42.2876Q6.05246,42.2876,3.02623,39.908Q0,37.5285,0,32.6036L0,26.4001L8.61946,26.4001L8.61946,29.9754Q8.61946,31.0882,8.74899,32.13Q8.87851,33.1718,9.34952,33.8348Q9.82053,34.4978,10.8332,34.4978Q12.1756,34.4978,12.5995,33.5862Q13.0234,32.6746,13.0234,31.254L13.0234,23.0617Q13.0234,22.0435,12.8939,21.0491Q12.7643,20.0546,12.3169,19.3917Q11.8694,18.7287,10.8803,18.7287Q8.52526,18.7287,8.52526,22.1619L0.918467,22.1619L0.918467,0L20.6773,0L20.6773,7.8135L8.78431,7.8135L8.78431,13.6855Q9.39662,12.9278,10.4446,12.3477Q11.4926,11.7676,12.9056,11.7676Q15.7317,11.7676,17.5097,12.8568Q19.2878,13.9459,20.2416,15.8874Q21.1954,17.829,21.5604,20.3861Q21.9255,22.9433,21.9255,25.8792Q21.9255,29.6439,21.5369,32.6628Q21.1483,35.6816,20.0061,37.8363Q18.8639,39.9909,16.6619,41.1392Q14.46,42.2876,10.8332,42.2876Z" fill="#FD8B32" fill-opacity="1"/></g><g filter="url(#master_svg2_120_01662)"><rect x="20.974609375" y="17.248046875" width="37.78116989135742" height="32.7314453125" rx="2.396012783050537" fill="url(#master_svg3_1_00994)" fill-opacity="1"/></g><g><rect x="23.989013671875" y="38.2607421875" width="31.953224182128906" height="2.424551486968994" rx="1.212275743484497" fill="#CADEFF" fill-opacity="1"/></g><g><rect x="23.989013671875" y="43.513671875" width="31.953224182128906" height="2.424551486968994" rx="1.212275743484497" fill="#CADEFF" fill-opacity="1"/></g><g><path d="M49.6084849609375,31.9184734375L47.155384960937496,34.4964434375L42.8318849609375,29.6851834375L38.2112849609375,34.5186734375L32.0114649609375,26.9070984375L26.6985499609375,33.9474834375Q26.6574409609375,34.0090434375,26.6026039609375,34.0587634375Q26.5477659609375,34.1084834375,26.4824889609375,34.1433834375Q26.4172119609375,34.1782934375,26.3454089609375,34.1962834375Q26.2736069609375,34.2142734375,26.1995849609375,34.2142734375Q26.1404901609375,34.2142734375,26.0825309609375,34.202743437500004Q26.0245709609375,34.1912134375,25.9699749609375,34.1685934375Q25.9153779609375,34.1459834375,25.866242960937498,34.1131534375Q25.8171069609375,34.0803234375,25.7753209609375,34.0385334375Q25.7335349609375,33.9967434375,25.7007029609375,33.947613437499996Q25.6678719609375,33.8984734375,25.6452569609375,33.8438834375Q25.6226429609375,33.7892834375,25.6111139609375,33.7313234375Q25.5995849609375,33.6733634375,25.5995849609375,33.6142734375Q25.5995849609375,33.5075534375,25.6363849609375,33.4073734375Q25.6731849609375,33.3072034375,25.7422709609375,33.2258534375L31.9754749609375,24.9659484375L38.2830849609375,32.7098634375L42.8590849609375,27.9230534375L47.1804849609375,32.7321034375L48.7406849609375,31.092623437500002L46.6535849609375,29.1065934375L53.3296849609375,27.1390634375L51.695584960937495,33.9045134375L49.6084849609375,31.9184734375Z" fill-rule="evenodd" fill="#1764F9" fill-opacity="1"/></g><g filter="url(#master_svg4_120_01666)"><rect x="36.247802734375" y="39.876953125" width="29.340696334838867" height="12.122757911682129" rx="2.396012783050537" fill="url(#master_svg5_1_00994)" fill-opacity="1"/></g><g><rect x="38.25732421875" y="43.7158203125" width="15.273239135742188" height="4.849102973937988" rx="0" fill="#CBDEFF" fill-opacity="1"/></g><g><rect x="56.14306640625" y="43.7158203125" width="2.612527847290039" height="3.0306894779205322" rx="0" fill="#C7DBFF" fill-opacity="1"/></g><g><rect x="59.96142578125" y="43.7158203125" width="2.612527847290039" height="3.0306894779205322" rx="0" fill="#0A5CF9" fill-opacity="1"/></g></g></svg>