<svg xmlns="http://www.w3.org/2000/svg" xmlns:xlink="http://www.w3.org/1999/xlink" fill="none" version="1.1" width="100" height="38" viewBox="0 0 100 38"><g><path d="M14.9,23.5L9.1,23.5L9.1,20.425L15,20.425L15,11.45L9.6,11.45L9.6,8.425L23.5,8.425L23.5,11.45L18.1,11.45L18.1,20.425L24,20.425L24,23.5L18.2,23.5L18.2,30.5L14.9,30.5L14.9,23.5ZM0.875,15.125L7.4,15.125L7.4,25.45L10.2,24.35L10.2,28.075L4.05,30.5L4.05,18.45L0.875,18.45L0.875,15.125ZM6,8L7.725,13.425L4.325,13.425L2.6,8L6,8ZM12.45,13.025L13.8,19.1L11.1,19.1L9.75,13.025L12.45,13.025ZM20.65,13.025L23.35,13.025L22,19.1L19.3,19.1L20.65,13.025ZM26,16.275Q28.9,12.95,30.05,8L33.325,8Q32.825,11.025,31.65,13.8L31.65,30.625L28.4,30.625L28.4,19.05Q27.275,20.375,26,21.425L26,16.275ZM32.825,14.375Q35.975,11.675,37.425,8L44.15,8Q45.6,11.675,48.75,14.375L48.75,18.225Q44.525,15.55,42.35,11.25L39.225,11.25Q37.05,15.55,32.825,18.225L32.825,14.375ZM33.2,30.5Q34.55,28.35,35.1,26.275Q35.65,24.2,35.65,21.55L35.65,16.625L38.875,16.625L38.875,21.55Q38.875,24.125,38.4625,26.2625Q38.05,28.4,37.1,30.5L33.2,30.5ZM43.05,16.625L46.275,16.625L46.275,30.5L43.05,30.5L43.05,16.625ZM56.775,15.125Q56.775,18.35,56.55,20.9Q56.325,23.45,55.775,25.975Q56.9,26.65,58.3125,26.9375Q59.725,27.225,61.75,27.225L74,27.225L74,30.25L61.75,30.25Q59.4,30.25,57.825,29.9625Q56.25,29.675,55.025,29.025L54.575,30.5L51.15,30.5Q52.35,27.25,52.9125,24.4375Q53.475,21.625,53.6,18.375L50.75,18.375L50.75,15.125L56.775,15.125ZM55.15,8L56.875,13.425L53.5,13.425L51.775,8L55.15,8ZM57.425,26.325Q58.35,24.725,58.75,23.1875Q59.15,21.65,59.2,19.775L57.575,19.775L57.575,17.1L60.625,17.1L60.625,16.275L58,16.275L58,8.525L60.4,8.525L60.625,7.55L63.7,7.55L63.475,8.525L65.675,8.525L65.675,16.275L63.6,16.275L63.6,17.1L66.55,17.1L66.55,19.775L61.85,19.775Q61.85,20.35,61.825,20.625L66.05,20.625L66.05,25.35Q67.8,22.525,68.625,20.4L67.5,16.625L65.725,16.625Q66.775,12.625,67.175,7.65L69.95,7.65L69.9,8.225Q69.85,9.025,69.8,9.425L73.775,9.425L73.775,12.475L73.15,12.475Q72.825,17.075,71.875,20.175L73.95,26.075L71.225,26.075L70.325,23.45Q69.85,24.425,68.975,26.075L66.05,26.075L66.05,26.325L63.4,26.325L63.4,23.35L61.475,23.35Q61.1,25,60.575,26.325L57.425,26.325ZM63,14.225L63,13.375L60.675,13.375L60.675,14.225L63,14.225ZM63,11.4L63,10.625L60.675,10.625L60.675,11.4L63,11.4ZM70.075,16.55Q70.425,14.775,70.625,12.475L69.45,12.475Q69.35,13.15,69.275,13.575L70.075,16.55ZM84.25,18.525L97.8,18.525L97.8,30.5L94.55,30.5L94.55,28.275L87.5,28.275L87.5,30.5L84.25,30.5L84.25,18.525ZM75.875,15.125L81.1,15.125L81.1,25.5L82.8,24.85L82.8,28.575L77.85,30.5L77.85,18.45L75.875,18.45L75.875,15.125ZM80.325,8L82.05,13.425L78.65,13.425L76.925,8L80.325,8ZM82.95,15.25L89.35,15.25L89.35,14.375L84.05,14.375L84.05,11.9L89.35,11.9L89.35,11.025L83.375,11.025L83.375,8.5L89.35,8.5L89.35,7.5L92.6,7.5L92.6,8.5L98.675,8.5L98.675,11.025L92.6,11.025L92.6,11.9L97.975,11.9L97.975,14.375L92.6,14.375L92.6,15.25L99.1,15.25L99.1,17.825L82.95,17.825L82.95,15.25ZM94.55,25.85L94.55,24.725L87.5,24.725L87.5,25.85L94.55,25.85ZM94.55,22.3L94.55,21.175L87.5,21.175L87.5,22.3L94.55,22.3Z" fill="#3D3D3D" fill-opacity="1"/></g></svg>