<svg xmlns="http://www.w3.org/2000/svg" xmlns:xlink="http://www.w3.org/1999/xlink" fill="none" version="1.1" width="74.12860107421875" height="60.6103515625" viewBox="0 0 74.12860107421875 60.6103515625"><defs><linearGradient x1="0.7406927943229675" y1="0" x2="0.23020728807243263" y2="0.9106283691107221" id="master_svg0_1_00534"><stop offset="0%" stop-color="#98C1FD" stop-opacity="1"/><stop offset="100%" stop-color="#0A59F5" stop-opacity="1"/></linearGradient><filter id="master_svg1_120_01613" filterUnits="objectBoundingBox" color-interpolation-filters="sRGB" x="-0.11784888498557827" y="-0.12523495413604432" width="1.2356977699711567" height="1.3339598776961181"><feFlood flood-opacity="0" result="BackgroundImageFix"/><feColorMatrix in="SourceAlpha" type="matrix" values="0 0 0 0 0 0 0 0 0 0 0 0 0 0 0 0 0 0 127 0"/><feOffset dy="1.4025568962097168" dx="0"/><feGaussianBlur stdDeviation="1.4025568962097168"/><feColorMatrix type="matrix" values="0 0 0 0 0.4347345232963562 0 0 0 0 0.5656070709228516 0 0 0 0 0.7797619104385376 0 0 0 0.550000011920929 0"/><feBlend mode="normal" in2="BackgroundImageFix" result="effect1_dropShadow"/><feBlend mode="normal" in="SourceGraphic" in2="effect1_dropShadow" result="shape"/></filter><linearGradient x1="0" y1="0" x2="1.194662686760992" y2="0.584598327177277" id="master_svg2_1_00994"><stop offset="0%" stop-color="#FFFFFF" stop-opacity="1"/><stop offset="100%" stop-color="#DFECFF" stop-opacity="1"/></linearGradient></defs><g><g><g><path d="M0.111155,41.8795L0.111155,39.8886Q0.111155,36.7838,1.2366,34.307Q2.36205,31.8303,4.14053,29.7091Q5.91901,27.5878,7.89202,25.5496Q9.80945,23.5587,11.5462,21.4611Q13.283,19.3636,14.3807,16.9106Q15.4784,14.4575,15.4784,11.4001Q15.4784,9.93067,14.9643,8.87598Q14.4502,7.82129,12.8384,7.82129Q10.393,7.82129,10.393,11.5423L10.393,16.638L0.111155,16.638Q0.0833664,16.0929,0.0416832,15.4056Q0,14.7182,0,14.0783Q0,9.57516,1.11155,6.43479Q2.2231,3.29442,5.04367,1.64721Q7.86423,0,12.9774,0Q19.0631,0,22.4395,2.91521Q25.8158,5.83042,25.8158,11.2342Q25.8158,14.9079,24.7042,17.669Q23.5927,20.4302,21.7586,22.6936Q19.9246,24.957,17.7292,27.2086Q16.1731,28.7966,14.7142,30.4556Q13.2553,32.1147,12.1437,34.0108L25.4823,34.0108L25.4823,41.8795L0.111155,41.8795Z" fill="#FD8B32" fill-opacity="1"/></g><g><ellipse cx="65.53938341140747" cy="20.928606510162354" rx="7.460525989532471" ry="7.5714287757873535" fill="url(#master_svg0_1_00534)" fill-opacity="1"/></g><g filter="url(#master_svg1_120_01613)"><rect x="22.315673828125" y="21.4017333984375" width="47.60526657104492" height="33.59821319580078" rx="2.8051137924194336" fill="url(#master_svg2_1_00994)" fill-opacity="1"/></g><g><rect x="25.157958984375" y="27.080322265625" width="41.44736862182617" height="2.8392858505249023" rx="1.4196429252624512" fill="#CADEFF" fill-opacity="1"/></g><g><rect x="25.157958984375" y="33.705322265625" width="14.921051979064941" height="2.8392858505249023" rx="1.4196429252624512" fill="#CADEFF" fill-opacity="1"/></g><g><rect x="25.157958984375" y="39.857177734375" width="14.921051979064941" height="2.8392858505249023" rx="1.4196429252624512" fill="#CADEFF" fill-opacity="1"/></g><g><path d="M59.275773828125,38.5982688671875C59.184373828125004,38.6882288671875,59.162473828125,38.826768867187496,59.224573828125,38.9383188671875C59.544373828125,39.5122588671875,59.725273828125,40.1707588671875,59.725273828125,40.8706388671875C59.725273828125,41.8817888671875,59.346973828125,42.8065388671875,58.722073828125,43.5154388671875C58.639773828125,43.6072388671875,58.628873828125,43.7421388671875,58.689173828125,43.8465388671875L59.405473828125,45.0681388671875C59.465773828125,45.1707388671875,59.580873828125,45.2246388671875,59.699673828125,45.208438867187496C59.809273828125,45.1940388671875,59.920773828125,45.186838867187504,60.034073828125,45.186838867187504C61.315073828125,45.195838867187504,62.373173828125005,46.2610388671875,62.356673828125,47.5204388671875C62.340273828125,48.7744388671875,61.307773828125,49.7856388671875,60.034073828125,49.7946388671875C58.738473828125,49.8036388671875,57.678573828124996,48.7672388671875,57.678573828124996,47.491638867187504C57.678573828124996,46.8061388671875,57.983773828125,46.1908388671875,58.466173828125,45.7680388671875L57.790073828125,44.6165388671875C57.713373828125,44.4852388671875,57.547073828125,44.4366388671875,57.408173828125,44.5014388671875C56.872773828125,44.7568388671875,56.269673828125,44.9008388671875,55.631973828125,44.9008388671875C55.144073828125,44.9008388671875,54.676233828125,44.8162388671875,54.243143828125,44.6633388671875C54.109743828125,44.6165388671875,53.961733828125,44.6687388671875,53.890463828125,44.7892388671875L53.435443828125,45.5647388671875C53.378793828125,45.6618388671875,53.384283828125,45.7824388671875,53.450063828124996,45.8741388671875C53.724173828125004,46.2556388671875,53.883153828125,46.7216388671875,53.879493828125,47.2253388671875C53.866703828125,48.4758388671875,52.828763828125,49.495938867187505,51.558733828125,49.5067388671875C50.250333828125,49.5175388671875,49.186803828125,48.4686388671875,49.199593828125,47.1785388671875C49.214213828125,45.9245388671875,50.259473828125,44.9026388671875,51.534983828125,44.9008388671875C51.754263828125,44.9008388671875,51.968063828125,44.9296388671875,52.170903828125,44.9853388671875C52.298823828125,45.0213388671875,52.435873828125,44.9656388671875,52.503483828125,44.8522388671875L52.900023828125,44.1757388671875C52.967643828125,44.0606388671875,52.945713828125,43.9130388671875,52.847033828125,43.8231388671875C52.233033828125,43.2617388671875,51.796293828125,42.5168988671875,51.622693828125,41.6784788671875C51.595283828125,41.5435388671875,51.476503828125,41.4463788671875,51.335793828125,41.4463788671875L49.654613828125,41.4463788671875C49.528523828125,41.4463788671875,49.415233828125,41.5273488671875,49.376853828125,41.6460888671875C49.069853828125,42.5654388671875,48.190893828125,43.2275388671875,47.154773828125,43.2275388671875C45.857333828125,43.2275388671875,44.806595998125,42.1876488671875,44.815732856525,40.908428867187496C44.823042348125,39.6381988671875,45.886573828125,38.6090688671875,47.176693828124996,38.6216588671875C48.167133828125,38.6306588671875,49.011383828125,39.2477788671875,49.342133828125,40.1113888671875C49.384163828125,40.2229388671875,49.493803828125,40.2948988671875,49.614413828125,40.2948988671875L51.333973828124996,40.2948988671875C51.472853828125,40.2948988671875,51.593453828125,40.1995488671875,51.620863828124996,40.0664088671875C51.821883828125,39.0912488671875,52.379223828125,38.2438288671875,53.155863828125,37.6626988671875C53.272813828125,37.5745388671875,53.305703828125004,37.414408867187504,53.232613828125,37.288468867187504L53.192403828125,37.2200988671875C53.128453828125004,37.1121488671875,53.004183828125,37.0581688671875,52.879923828125,37.081558867187496C52.719113828125,37.1139488671875,52.551003828125,37.1301388671875,52.379223828125,37.1265388671875C51.109203828125,37.1085488671875,50.060293828125,36.0452288671875,50.076733828125,34.7947988671875C50.093183828125,33.5299688671875,51.143923828125,32.5116287671875,52.434043828125,32.5224239067875C53.700413828125,32.5332190671875,54.736533828125,33.5479588671875,54.754813828125,34.7929988671875C54.762123828125,35.3615388671875,54.561113828125,35.8850988671875,54.219393828125,36.2899188671875C54.140813828125,36.3834788671875,54.128023828125,36.5148188671875,54.190153828125,36.6191688671875L54.310763828125,36.8242788671875C54.376543828125,36.9358288671875,54.508113828125,36.9915988671875,54.634203828125,36.9592188671875C54.953973828125,36.8800488671875,55.288373828125,36.8386688671875,55.631973828125,36.8386688671875C56.587673828125,36.8386688671875,57.466673828124996,37.1607188671875,58.164673828125004,37.7022788671875C58.281673828125,37.7922388671875,58.447973828125,37.7832388671875,58.552073828125,37.6806888671875L58.994273828125,37.2452888671875C59.080173828125,37.1607188671875,59.103973828125,37.0329788671875,59.054573828125,36.9250288671875C58.921173828125,36.6353588671875,58.848173828125,36.3133088671875,58.848173828125,35.9750588671875C58.848173828125,34.7030388671875,59.895173828124996,33.6720988671875,61.187173828125,33.6720988671875C62.477273828125,33.6720988671875,63.526173828124996,34.7048388671875,63.526173828124996,35.9750588671875C63.526173828124996,37.2470888671875,62.479073828124996,38.2780188671875,61.187173828125,38.2780188671875C60.808873828125,38.2780188671875,60.452573828125,38.189858867187496,60.136373828125,38.0333288671875C60.023173828124996,37.9775488671875,59.886073828125,37.9973488671875,59.794673828125,38.0855088671875L59.275773828125,38.5982688671875Z" fill="#CADEFF" fill-opacity="1" style="mix-blend-mode:passthrough"/></g><g><ellipse cx="55.65447998046875" cy="40.83758544921875" rx="4.14178466796875" ry="4.14178466796875" fill="#0064FF" fill-opacity="1"/></g></g></g></svg>