<svg xmlns="http://www.w3.org/2000/svg" xmlns:xlink="http://www.w3.org/1999/xlink" fill="none" version="1.1" width="70.5802001953125" height="62.1064453125" viewBox="0 0 70.5802001953125 62.1064453125"><defs><linearGradient x1="0.7406927943229675" y1="0" x2="0.24087939730394514" y2="0.9162753854679972" id="master_svg0_1_00534"><stop offset="0%" stop-color="#98C1FD" stop-opacity="1"/><stop offset="100%" stop-color="#0A59F5" stop-opacity="1"/></linearGradient><linearGradient x1="0" y1="0" x2="1.1999362033663514" y2="0.5281947125425308" id="master_svg1_1_00994"><stop offset="0%" stop-color="#FFFFFF" stop-opacity="1"/><stop offset="100%" stop-color="#DFECFF" stop-opacity="1"/></linearGradient><filter id="master_svg2_120_01630" filterUnits="objectBoundingBox" color-interpolation-filters="sRGB" x="-0.13358461468625665" y="-0.22100902256102736" width="1.2671692293725134" height="1.589357393496073"><feFlood flood-opacity="0" result="BackgroundImageFix"/><feColorMatrix in="SourceAlpha" type="matrix" values="0 0 0 0 0 0 0 0 0 0 0 0 0 0 0 0 0 0 127 0"/><feOffset dy="1.526734471321106" dx="0"/><feGaussianBlur stdDeviation="1.526734471321106"/><feColorMatrix type="matrix" values="0 0 0 0 0.4347345232963562 0 0 0 0 0.5656070709228516 0 0 0 0 0.7797619104385376 0 0 0 0.550000011920929 0"/><feBlend mode="normal" in2="BackgroundImageFix" result="effect1_dropShadow"/><feBlend mode="normal" in="SourceGraphic" in2="effect1_dropShadow" result="shape"/></filter><linearGradient x1="0" y1="0" x2="1.1514044104485819" y2="0.2324519535763514" id="master_svg3_1_00994"><stop offset="0%" stop-color="#FFFFFF" stop-opacity="1"/><stop offset="100%" stop-color="#DFECFF" stop-opacity="1"/></linearGradient></defs><g><g><ellipse cx="53.42811727523804" cy="15.063312530517578" rx="5.968461513519287" ry="6.140460968017578" fill="url(#master_svg0_1_00534)" fill-opacity="1"/></g><g><path d="M12.0662,43Q5.74837,43,2.87419,40.0337Q0,37.0673,0,31.0864L0,26.6489L9.7885,26.6489L9.7885,31.1105Q9.7885,32.7987,10.263,33.9683Q10.7375,35.138,12.3915,35.138Q14.0727,35.138,14.5336,33.8718Q14.9946,32.6057,14.9946,29.7358L14.9946,28.6747Q14.9946,26.4801,14.1676,24.8402Q13.3406,23.2002,10.9273,23.2002Q10.6291,23.2002,10.3986,23.2123Q10.1681,23.2243,10.0054,23.2485L10.0054,15.6276Q12.4729,15.6276,13.7744,14.6509Q15.0759,13.6741,15.0759,11.3831Q15.0759,7.78968,12.744,7.78968Q11.2256,7.78968,10.6969,8.83876Q10.1681,9.88783,10.1681,11.5036L10.1681,12.7818L0.298265,12.7818Q0.27115,12.4924,0.257592,12.0824Q0.244035,11.6725,0.244035,11.2866Q0.244035,5.45037,3.30803,2.72518Q6.37202,0,12.6898,0Q24.8915,0,24.8915,11.2866Q24.8915,14.4218,23.9425,16.4596Q22.9935,18.4975,20.4176,19.3174Q22.4512,20.1856,23.4273,21.5362Q24.4035,22.8867,24.7017,24.8884Q25,26.8901,25,29.7358Q25,36.1026,22.0038,39.5513Q19.0076,43,12.0662,43Z" fill="#FD8B32" fill-opacity="1"/></g><g><g><path d="M23.839797973632812,20.9313996875L23.839797973632812,34.4314296875C23.839797973632812,35.7080296875,24.63397597363281,36.8499296875,25.830807973632812,37.2941296875L43.142097973632815,43.7190296875L60.453297973632814,37.2941296875C61.65009797363281,36.8499296875,62.444297973632814,35.7080296875,62.444297973632814,34.4314296875L62.444297973632814,20.9313996875C62.444297973632814,19.2450096875,61.07719797363281,17.8779296875,59.390797973632814,17.8779296875L26.893267973632813,17.8779296875C25.206877973632814,17.8779296875,23.839797973632812,19.2450096875,23.839797973632812,20.9313996875Z" fill="url(#master_svg1_1_00994)" fill-opacity="1"/></g><g filter="url(#master_svg2_120_01630)"><path d="M20.28411865234375,52.94650370178223C20.28411865234375,54.632903701782226,21.65119865234375,56.00000370178223,23.33758865234375,56.00000370178223L62.94651865234375,56.00000370178223C64.63291865234375,56.00000370178223,66.00001865234375,54.632903701782226,66.00001865234375,52.94650370178223L66.00001865234375,38.329373701782224C66.00001865234375,36.64298370178223,64.63291865234375,35.27590370178223,62.94651865234375,35.27590370178223L62.19031865234375,35.27590370178223L43.14201865234375,42.95148370178222L24.09377865234375,35.27590370178223L23.33758865234375,35.27590370178223C21.65119865234375,35.27590370178223,20.28411865234375,36.64298370178223,20.28411865234375,38.329373701782224L20.28411865234375,52.94650370178223Z" fill="url(#master_svg3_1_00994)" fill-opacity="1"/></g><g><rect x="30.18922519683838" y="22.483275413513184" width="24.38180160522461" height="3.070230484008789" rx="1.5351152420043945" fill="#CADEFF" fill-opacity="1"/></g><g><rect x="30.18922519683838" y="29.391294479370117" width="17.270442962646484" height="3.070230484008789" rx="1.5351152420043945" fill="#CADEFF" fill-opacity="1"/></g></g><g><path d="M24.314846,35.3285029375L43.14265,42.9152459375L62.09725,35.3279939375Q62.20165,35.2780859375,62.31735,35.2780859375Q62.36755,35.2780859375,62.41675,35.2878859375Q62.46605,35.2976849375,62.51245,35.3169069375Q62.55885,35.3361299375,62.60065,35.3640369375Q62.64245,35.3919429375,62.67795,35.4274619375Q62.71345,35.4629799375,62.74135,35.5047449375Q62.76925,35.5465099375,62.78845,35.5929169375Q62.80765,35.6393249375,62.81755,35.6885899375Q62.82735,35.7378553375,62.82735,35.7880859375Q62.82735,35.8687829375,62.80235,35.9455379375Q62.77745,36.0222929375,62.73005,36.0876069375Q62.68265,36.1529209375,62.61745,36.2004119375Q62.55225,36.2479039375,62.47545,36.2729339375L43.14145,44.012085937500004L23.934433,36.2725629375Q23.85792,36.2474019375,23.792884,36.1998859375Q23.727848,36.1523709375,23.680621,36.0871249375Q23.633393,36.0218789375,23.608572,35.9452549375Q23.58375,35.8686304375,23.58375,35.7880859375Q23.58375,35.7378553375,23.59355,35.6885899375Q23.603349,35.6393249375,23.622571,35.5929169375Q23.641794,35.5465099375,23.669701,35.5047449375Q23.697607,35.4629799375,23.733126,35.4274619375Q23.768644,35.3919429375,23.810409,35.3640369375Q23.852174,35.3361299375,23.898581,35.3169079375Q23.944989,35.2976849375,23.994254,35.2878859375Q24.0435194,35.2780859375,24.09375,35.2780859375Q24.210046,35.2780859375,24.314846,35.3285029375Z" fill-rule="evenodd" fill="#0064FF" fill-opacity="1"/></g></g></svg>