<svg xmlns="http://www.w3.org/2000/svg" xmlns:xlink="http://www.w3.org/1999/xlink" fill="none" version="1.1" width="62.764892578125" height="61.8115234375" viewBox="0 0 62.764892578125 61.8115234375"><defs><linearGradient x1="0.7406927943229675" y1="0" x2="0.22643638644414169" y2="0.9085566905762277" id="master_svg0_1_00534"><stop offset="0%" stop-color="#98C1FD" stop-opacity="1"/><stop offset="100%" stop-color="#0A59F5" stop-opacity="1"/></linearGradient><filter id="master_svg1_120_01597" filterUnits="objectBoundingBox" color-interpolation-filters="sRGB" x="-0.15970471583551557" y="-0.1072724284272905" width="1.3194094316710312" height="1.2860598091394413"><feFlood flood-opacity="0" result="BackgroundImageFix"/><feColorMatrix in="SourceAlpha" type="matrix" values="0 0 0 0 0 0 0 0 0 0 0 0 0 0 0 0 0 0 127 0"/><feOffset dy="1.5046842098236084" dx="0"/><feGaussianBlur stdDeviation="1.5046842098236084"/><feColorMatrix type="matrix" values="0 0 0 0 0.4347345232963562 0 0 0 0 0.5656070709228516 0 0 0 0 0.7797619104385376 0 0 0 0.550000011920929 0"/><feBlend mode="normal" in2="BackgroundImageFix" result="effect1_dropShadow"/><feBlend mode="normal" in="SourceGraphic" in2="effect1_dropShadow" result="shape"/></filter><linearGradient x1="0" y1="0" x2="0.8812428860636762" y2="1.0793624755922246" id="master_svg2_1_00994"><stop offset="0%" stop-color="#FFFFFF" stop-opacity="1"/><stop offset="100%" stop-color="#DFECFF" stop-opacity="1"/></linearGradient><filter id="master_svg3_120_01602" filterUnits="objectBoundingBox" color-interpolation-filters="sRGB" x="-0.29132952667733547" y="-0.23200778537435418" width="1.582659053354671" height="1.6186874276649446"><feFlood flood-opacity="0" result="BackgroundImageFix"/><feColorMatrix in="SourceAlpha" type="matrix" values="0 0 0 0 0 0 0 0 0 0 0 0 0 0 0 0 0 0 127 0"/><feOffset dy="1.5046842098236084" dx="0"/><feGaussianBlur stdDeviation="1.5046842098236084"/><feColorMatrix type="matrix" values="0 0 0 0 0.4347345232963562 0 0 0 0 0.5656070709228516 0 0 0 0 0.7797619104385376 0 0 0 0.550000011920929 0"/><feBlend mode="normal" in2="BackgroundImageFix" result="effect1_dropShadow"/><feBlend mode="normal" in="SourceGraphic" in2="effect1_dropShadow" result="shape"/></filter><linearGradient x1="0.21193082630634308" y1="0.05617789179086685" x2="0.8012488701477777" y2="0.9148889381314216" id="master_svg4_1_01385"><stop offset="0%" stop-color="#F6F9FF" stop-opacity="1"/><stop offset="100%" stop-color="#D9E7FF" stop-opacity="1"/></linearGradient></defs><g><g><path d="M5.16413,42L5.16413,9.65929Q4.31134,10.6848,2.81895,11.3169Q1.32657,11.9489,0,11.9489L0,5.24702Q1.2555,5.05622,2.70051,4.42419Q4.14552,3.79216,5.38917,2.68313Q6.63283,1.57411,7.29611,0L14,0L14,42L5.16413,42Z" fill="#FD8B32" fill-opacity="1"/></g><g><ellipse cx="47.72950458526611" cy="9.776894569396973" rx="8.400036811828613" ry="8.483925819396973" fill="url(#master_svg0_1_00534)" fill-opacity="1"/></g><g filter="url(#master_svg1_120_01597)"><rect x="14.18359375" y="10.251953125" width="37.6866569519043" height="42.08026885986328" rx="3.009368419647217" fill="url(#master_svg2_1_00994)" fill-opacity="1"/></g><g><rect x="22.1295166015625" y="16.361328125" width="21.794689178466797" height="2.7148561477661133" rx="1.3574280738830566" fill="#CADEFF" fill-opacity="1"/></g><g><rect x="22.1295166015625" y="22.46875" width="21.794689178466797" height="2.7148561477661133" rx="1.3574280738830566" fill="#CADEFF" fill-opacity="1"/></g><g><rect x="22.1295166015625" y="28.578125" width="21.794689178466797" height="2.7148561477661133" rx="1.3574280738830566" fill="#CADEFF" fill-opacity="1"/></g><g><rect x="22.1295166015625" y="34.6865234375" width="12.713569641113281" height="2.7148561477661133" rx="1.3574280738830566" fill="#CADEFF" fill-opacity="1"/></g><g filter="url(#master_svg3_120_01602)"><path d="M40.7844941015625,38.1404953125C41.8332841015625,37.2103453125,43.0749741015625,36.4894253125,44.442744101562496,36.0439453125C45.1999241015625,36.9814573125,46.3643341015625,37.5818853125,47.6702541015625,37.5818853125C48.9761541015625,37.5818853125,50.1404541015625,36.9814573125,50.8977541015625,36.0439453125C52.2655541015625,36.4894253125,53.5071541015625,37.2103453125,54.5559541015625,38.1404953125C54.1165541015625,39.2585653125,54.1744541015625,40.5570353125,54.8269541015625,41.6770353125C55.4797541015625,42.7976653125,56.5862541015625,43.4968253125,57.783654101562504,43.6781653125C57.9255541015625,44.3541453125,57.9999541015625,45.0545253125,57.9999541015625,45.7721953125C57.9999541015625,46.4897453125,57.9255541015625,47.1902453125,57.783654101562504,47.8661453125C56.5862541015625,48.0475453125,55.4797541015625,48.746745312499996,54.8269541015625,49.8673453125C54.1744541015625,50.9872453125,54.1165541015625,52.2858453125,54.5559541015625,53.403845312499996C53.5071541015625,54.334045312499995,52.2655541015625,55.054945312499996,50.8977541015625,55.5004453125C50.1404541015625,54.5629453125,48.9761541015625,53.9624453125,47.6702541015625,53.9624453125C46.3643341015625,53.9624453125,45.1999241015625,54.5629453125,44.442744101562496,55.5004453125C43.0749741015625,55.054945312499996,41.8332841015625,54.334045312499995,40.7844941015625,53.403845312499996C41.2239541015625,52.2858453125,41.1659841015625,50.9872453125,40.5135541015625,49.8673453125C39.8607441015625,48.746745312499996,38.7542041015625,48.0475453125,37.5567081015625,47.8661453125C37.4149524015625,47.1902453125,37.3404541015625,46.4897453125,37.3404541015625,45.7721953125C37.3404541015625,45.0545253125,37.4149524015625,44.3541453125,37.5567081015625,43.6781653125C38.7542041015625,43.4968253125,39.8607441015625,42.7976653125,40.5135541015625,41.6770353125C41.1659841015625,40.5570353125,41.2239541015625,39.2585653125,40.7844941015625,38.1404953125ZM49.2196541015625,48.4320453125C50.7019541015625,47.5838453125,51.2097541015625,45.7055453125,50.3540541015625,44.2365153125C49.4981541015625,42.7674853125,47.6029541015625,42.2641653125,46.1207641015625,43.1122953125C44.6385641015625,43.9604053125,44.1307341015625,45.8388453125,44.9864741015625,47.3078453125C45.8422741015625,48.776945312500004,47.7374541015625,49.2802453125,49.2196541015625,48.4320453125Z" fill="url(#master_svg4_1_01385)" fill-opacity="1" style="mix-blend-mode:passthrough"/><path d="M40.5510941015625,38.2322353125Q41.2275241015625,39.9531853125,40.2968641015625,41.5507953125Q39.3648541015625,43.1507053125,37.5191591015625,43.430215312499996L37.3470019715625,43.4562853125L37.3112659015625,43.6266953125Q37.0896731015625,44.6833953125,37.0896731015625,45.7721953125Q37.0896731015625,46.861045312499996,37.3112672015625,47.9176453125L37.3470042415625,48.0880453125L37.5191441015625,48.1141453125Q39.3648841015625,48.3937453125,40.2968641015625,49.993545312500004Q41.227554101562504,51.591145312500004,40.5510941015625,53.312045312500004L40.4869941015625,53.475145312500004L40.6180941015625,53.5914453125Q42.2699841015625,55.0565453125,44.3650841015625,55.738845312500004L44.5293141015625,55.792345312500004L44.637834101562504,55.657945312500004Q45.8047041015625,54.2132453125,47.6702541015625,54.2132453125Q49.5356541015625,54.2132453125,50.7026541015625,55.6580453125L50.8112541015625,55.792345312500004L50.9754541015625,55.738845312500004Q53.070454101562504,55.0565453125,54.7223541015625,53.5914453125L54.853454101562505,53.475145312500004L54.789354101562495,53.312045312500004Q54.1129541015625,51.591145312500004,55.0435541015625,49.993545312500004Q55.9756541015625,48.3937453125,57.8212541015625,48.1141453125L57.9933541015625,48.0880453125L58.0291541015625,47.9176453125Q58.2507541015625,46.8613453125,58.2507541015625,45.7721953125Q58.2507541015625,44.683105312500004,58.0291541015625,43.6266653125L57.9933541015625,43.4562853125L57.8212541015625,43.430215312499996Q55.9756541015625,43.1507053125,55.0435541015625,41.5507953125Q54.1129541015625,39.9532153125,54.789354101562495,38.2322253125L54.853454101562505,38.0691453125L54.7223541015625,37.9528753125Q53.070454101562504,36.4878493125,50.9754541015625,35.8054933125L50.8112541015625,35.7520063125L50.7026541015625,35.8863643125Q49.5356541015625,37.3311053125,47.6702541015625,37.3311053125Q45.8046741015625,37.3311053125,44.6378441015625,35.8863753125L44.5293141015625,35.7520023125L44.3650841015625,35.8054933125Q42.2699641015625,36.4878713125,40.6180941015625,37.9528753125L40.4869941015625,38.0691453125L40.5510941015625,38.2322353125ZM37.7686021015625,43.8967653125Q39.7219041015625,43.5342253125,40.7302541015625,41.8032653125Q41.7380541015625,40.0732253125,41.0801441015625,38.2153653125Q42.541934101562504,36.9609603125,44.3600541015625,36.3360623125Q45.6537341015625,37.8326653125,47.6702541015625,37.8326653125Q49.686654101562496,37.8326653125,50.9804541015625,36.3360603125Q52.7985541015625,36.9609383125,54.2603541015625,38.2153653125Q53.6024541015625,40.0732553125,54.610254101562504,41.8032653125Q55.618554101562495,43.5342253125,57.5718541015625,43.8967753125Q57.7492541015625,44.8212053125,57.7492541015625,45.7721953125Q57.7492541015625,46.7232453125,57.5718541015625,47.6475453125Q55.618554101562495,48.010245312500004,54.610254101562504,49.7411453125Q53.6023541015625,51.471045312499996,54.2603541015625,53.3289453125Q52.7984541015625,54.583445312500004,50.9804541015625,55.2083453125Q49.6865541015625,53.7117453125,47.6702541015625,53.7117453125Q45.6537641015625,53.7117453125,44.3600541015625,55.2083453125Q42.5419541015625,54.583445312500004,41.0801441015625,53.3289453125Q41.7380941015625,51.4711453125,40.7302441015625,49.7411453125Q39.721934101562496,48.010245312500004,37.7686001015625,47.6475453125Q37.5912351015625,46.7229453125,37.5912351015625,45.7721953125Q37.5912351015625,44.8214553125,37.7686021015625,43.8967653125ZM44.4348041015625,44.9117853125Q44.0752241015625,46.2417453125,44.7697741015625,47.4341453125Q45.4637941015625,48.6254453125,46.8038041015625,48.9812453125Q48.1431541015625,49.3369453125,49.3442541015625,48.6497453125Q50.546254101562496,47.9618453125,50.905654101562504,46.6325453125Q51.2652541015625,45.3026053125,50.5707541015625,44.1102853125Q49.8766541015625,42.9189653125,48.5366541015625,42.563095312499996Q47.197264101562496,42.2073853125,45.9962141015625,42.8946353125Q44.7942041015625,43.582415312500004,44.4348041015625,44.9117853125ZM46.9325441015625,48.496545312500004Q45.7928441015625,48.1938453125,45.2031641015625,47.1816453125Q44.6141041015625,46.1704453125,44.9189841015625,45.0426853125Q45.2240341015625,43.9143253125,46.2453141015625,43.3299653125Q47.2675941015625,42.7450053125,48.4079541015625,43.0478453125Q49.5476541015625,43.3505253125,50.1373541015625,44.362745312499996Q50.7263541015625,45.3739853125,50.4214541015625,46.5016453125Q50.116454101562496,47.6299453125,49.0951541015625,48.214445312500004Q48.0728541015625,48.7993453125,46.9325441015625,48.496545312500004Z" fill-rule="evenodd" fill="#FFFFFF" fill-opacity="1"/></g><g><ellipse cx="47.67017960548401" cy="45.88461875915527" rx="3.518934488296509" ry="3.5066890716552734" fill="#0064FF" fill-opacity="1"/><path d="M47.6701751171875,49.3913096875Q47.8430551171875,49.3913096875,48.0150951171875,49.3744196875Q48.1871351171875,49.3575396875,48.3566851171875,49.3239296875Q48.5262451171875,49.2903196875,48.6916751171875,49.2403096875Q48.8571051171875,49.1902996875,49.0168151171875,49.1243796875Q49.1765351171875,49.0584496875,49.3289951171875,48.9772396875Q49.4814551171875,48.8960296875,49.6251951171875,48.8003196875Q49.768935117187496,48.704609687499996,49.9025651171875,48.5953296875Q50.0362051171875,48.486039687499996,50.1584451171875,48.3642196875Q50.2806851171875,48.2424096875,50.3903551171875,48.1092396875Q50.5000251171875,47.9760696875,50.5960651171875,47.8328296875Q50.6921051171875,47.6895896875,50.7736051171875,47.537659687499996Q50.8550951171875,47.3857296875,50.9212551171875,47.2265696875Q50.9874051171875,47.0674096875,51.0375851171875,46.9025596875Q51.0877751171875,46.7376996875,51.1214951171875,46.5687396875Q51.1552251171875,46.3997796875,51.172165117187504,46.2283296875Q51.1891151171875,46.056889687500004,51.1891151171875,45.8846196875Q51.1891151171875,45.7123496875,51.172165117187504,45.5408996875Q51.1552251171875,45.3694596875,51.1214951171875,45.2004996875Q51.0877751171875,45.0315396875,51.0375851171875,44.8666796875Q50.9874051171875,44.7018296875,50.9212551171875,44.5426696875Q50.8550951171875,44.3835096875,50.7736051171875,44.2315796875Q50.6921051171875,44.0796496875,50.5960651171875,43.9364096875Q50.5000251171875,43.7931696875,50.3903551171875,43.6599996875Q50.2806851171875,43.5268296875,50.1584451171875,43.4050196875Q50.0362051171875,43.2831996875,49.9025651171875,43.1739116875Q49.768935117187496,43.0646226875,49.6251951171875,42.9689136875Q49.4814551171875,42.8732036875,49.3289951171875,42.7919946875Q49.1765351171875,42.7107866875,49.0168151171875,42.6448606875Q48.8571051171875,42.5789346875,48.6916751171875,42.5289266875Q48.5262451171875,42.4789186875,48.3566851171875,42.4453096875Q48.1871351171875,42.4117009875,48.0150951171875,42.3948153875Q47.8430551171875,42.3779296875,47.6701751171875,42.3779296875Q47.4973051171875,42.3779296875,47.3252651171875,42.3948153875Q47.1532251171875,42.4117009875,46.9836651171875,42.4453096875Q46.8141151171875,42.4789186875,46.6486851171875,42.5289266875Q46.4832551171875,42.5789346875,46.3235451171875,42.6448606875Q46.1638251171875,42.7107866875,46.0113651171875,42.7919946875Q45.8589051171875,42.8732036875,45.7151651171875,42.9689136875Q45.5714251171875,43.0646226875,45.4377951171875,43.1739116875Q45.3041551171875,43.2831996875,45.1819151171875,43.4050196875Q45.0596771171875,43.5268296875,44.9500061171875,43.6599996875Q44.8403361171875,43.7931696875,44.7442921171875,43.9364096875Q44.6482491171875,44.0796496875,44.5667561171875,44.2315796875Q44.4852641171875,44.3835096875,44.4191081171875,44.5426696875Q44.3529521171875,44.7018296875,44.3027691171875,44.8666796875Q44.2525861171875,45.0315396875,44.2188604171875,45.2004996875Q44.1851344171875,45.3694596875,44.1681897171875,45.5408996875Q44.1512451171875,45.7123496875,44.1512451171875,45.8846196875Q44.1512451171875,46.056889687500004,44.1681897171875,46.2283296875Q44.1851344171875,46.3997796875,44.2188604171875,46.5687396875Q44.2525861171875,46.7376996875,44.3027691171875,46.9025596875Q44.3529521171875,47.0674096875,44.4191081171875,47.2265696875Q44.4852641171875,47.3857296875,44.5667561171875,47.537659687499996Q44.6482491171875,47.6895896875,44.7442921171875,47.8328296875Q44.8403361171875,47.9760696875,44.9500061171875,48.1092396875Q45.0596771171875,48.2424096875,45.1819151171875,48.3642196875Q45.3041551171875,48.486039687499996,45.4377951171875,48.5953296875Q45.5714251171875,48.704609687499996,45.7151651171875,48.8003196875Q45.8589051171875,48.8960296875,46.0113651171875,48.9772396875Q46.1638251171875,49.0584496875,46.3235451171875,49.1243796875Q46.4832551171875,49.1902996875,46.6486851171875,49.2403096875Q46.8141151171875,49.2903196875,46.9836651171875,49.3239296875Q47.1532251171875,49.3575396875,47.3252651171875,49.3744196875Q47.4973051171875,49.3913096875,47.6701751171875,49.3913096875ZM49.8044051171875,43.7602896875Q50.6875551171875,44.6403696875,50.6875551171875,45.8846196875Q50.6875551171875,47.1288696875,49.8044051171875,48.0089496875Q48.9205251171875,48.8897496875,47.6701751171875,48.8897496875Q46.4198351171875,48.8897496875,45.5359551171875,48.0089496875Q44.6528061171875,47.1288696875,44.6528061171875,45.8846196875Q44.6528061171875,44.6403696875,45.5359551171875,43.7602896875Q46.4198351171875,42.8794906875,47.6701751171875,42.8794906875Q48.9205251171875,42.8794906875,49.8044051171875,43.7602896875Z" fill-rule="evenodd" fill="#FFFFFF" fill-opacity="1"/></g></g></svg>