<svg xmlns="http://www.w3.org/2000/svg" xmlns:xlink="http://www.w3.org/1999/xlink" fill="none" version="1.1" width="74.97442626953125" height="63.2998046875" viewBox="0 0 74.97442626953125 63.2998046875"><defs><linearGradient x1="0.7406927943229675" y1="0" x2="0.2186561971902847" y2="0.9041529893875122" id="master_svg0_1_00534"><stop offset="0%" stop-color="#98C1FD" stop-opacity="1"/><stop offset="100%" stop-color="#0A59F5" stop-opacity="1"/></linearGradient><filter id="master_svg1_120_01642" filterUnits="objectBoundingBox" color-interpolation-filters="sRGB" x="-0.14437778037382692" y="-0.09610306844506793" width="1.2887555607476537" height="1.2562748491868478"><feFlood flood-opacity="0" result="BackgroundImageFix"/><feColorMatrix in="SourceAlpha" type="matrix" values="0 0 0 0 0 0 0 0 0 0 0 0 0 0 0 0 0 0 127 0"/><feOffset dy="1.324772596359253" dx="0"/><feGaussianBlur stdDeviation="1.324772596359253"/><feColorMatrix type="matrix" values="0 0 0 0 0.4347345232963562 0 0 0 0 0.5656070709228516 0 0 0 0 0.7797619104385376 0 0 0 0.550000011920929 0"/><feBlend mode="normal" in2="BackgroundImageFix" result="effect1_dropShadow"/><feBlend mode="normal" in="SourceGraphic" in2="effect1_dropShadow" result="shape"/></filter><linearGradient x1="0" y1="0" x2="0.8707642892767629" y2="1.0860235882105127" id="master_svg2_1_00994"><stop offset="0%" stop-color="#FFFFFF" stop-opacity="1"/><stop offset="100%" stop-color="#DFECFF" stop-opacity="1"/></linearGradient><linearGradient x1="0.5" y1="0" x2="0.5" y2="1" id="master_svg3_1_04400"><stop offset="0%" stop-color="#F1F6FF" stop-opacity="1"/><stop offset="100%" stop-color="#D5E6FF" stop-opacity="1"/></linearGradient><filter id="master_svg4_120_01649" filterUnits="objectBoundingBox" color-interpolation-filters="sRGB" x="-0.23966709624012658" y="-0.5585990797011904" width="1.4793341924802532" height="2.489597545869841"><feFlood flood-opacity="0" result="BackgroundImageFix"/><feColorMatrix in="SourceAlpha" type="matrix" values="0 0 0 0 0 0 0 0 0 0 0 0 0 0 0 0 0 0 127 0"/><feOffset dy="1.324772596359253" dx="0"/><feGaussianBlur stdDeviation="1.324772596359253"/><feColorMatrix type="matrix" values="0 0 0 0 0.4347345232963562 0 0 0 0 0.5656070709228516 0 0 0 0 0.7797619104385376 0 0 0 0.550000011920929 0"/><feBlend mode="normal" in2="BackgroundImageFix" result="effect1_dropShadow"/><feBlend mode="normal" in="SourceGraphic" in2="effect1_dropShadow" result="shape"/></filter><linearGradient x1="0.5" y1="0" x2="0.5" y2="1" id="master_svg5_1_04463"><stop offset="0%" stop-color="#F9FBFF" stop-opacity="1"/><stop offset="100%" stop-color="#DAE7FF" stop-opacity="1"/></linearGradient><filter id="master_svg6_120_01650" filterUnits="objectBoundingBox" color-interpolation-filters="sRGB" x="-0.4132191941372764" y="-0.30819258287672496" width="1.8264383882745527" height="1.8218468876712666"><feFlood flood-opacity="0" result="BackgroundImageFix"/><feColorMatrix in="SourceAlpha" type="matrix" values="0 0 0 0 0 0 0 0 0 0 0 0 0 0 0 0 0 0 127 0"/><feOffset dy="1.324772596359253" dx="0"/><feGaussianBlur stdDeviation="1.324772596359253"/><feColorMatrix type="matrix" values="0 0 0 0 0.4347345232963562 0 0 0 0 0.5656070709228516 0 0 0 0 0.7797619104385376 0 0 0 0.550000011920929 0"/><feBlend mode="normal" in2="BackgroundImageFix" result="effect1_dropShadow"/><feBlend mode="normal" in="SourceGraphic" in2="effect1_dropShadow" result="shape"/></filter><linearGradient x1="0.2750970125198364" y1="0.05831172689795494" x2="0.7359744091998105" y2="0.9137046786012495" id="master_svg7_1_04272"><stop offset="0%" stop-color="#F5F8FF" stop-opacity="1"/><stop offset="100%" stop-color="#D6E6FF" stop-opacity="1"/></linearGradient></defs><g><g><path d="M12.9628,44L12.9628,37.0329L0,37.0329L0,30.1657L8.26935,0L21.8778,0L21.8778,29.6913L24.2121,29.6913L24.2121,37.0329L21.8778,37.0329L21.8778,44L12.9628,44ZM7.79753,29.6913L12.9628,29.6913L12.9628,7.54143L7.79753,29.6913Z" fill="#FD8B32" fill-opacity="1"/></g><g><ellipse cx="60" cy="14" rx="6" ry="6" fill="url(#master_svg0_1_00534)" fill-opacity="1"/></g><g filter="url(#master_svg1_120_01642)"><rect x="25.689697265625" y="14.05859375" width="36.70294952392578" height="41.35474395751953" rx="2.6496126651763916" fill="url(#master_svg2_1_00994)" fill-opacity="1"/></g><g><rect x="33.42822265625" y="20.0625" width="21.22580337524414" height="2.668048143386841" rx="1.3340240716934204" fill="#CADEFF" fill-opacity="1"/></g><g><rect x="33.42822265625" y="26.0654296875" width="21.22580337524414" height="2.668048143386841" rx="1.3340240716934204" fill="#CADEFF" fill-opacity="1"/></g><g><rect x="33.42822265625" y="32.068359375" width="21.22580337524414" height="2.668048143386841" rx="1.3340240716934204" fill="#CADEFF" fill-opacity="1"/></g><g><rect x="33.42822265625" y="38.0712890625" width="12.38171672821045" height="2.668048143386841" rx="1.3340240716934204" fill="#CADEFF" fill-opacity="1"/></g><g><g><path d="M53.09083271026611,53.553638679504395L66.35693271026611,53.553638679504395L61.824362710266115,42.659138679504395L57.95508271026611,42.659138679504395L53.09083271026611,53.553638679504395Z" fill="url(#master_svg3_1_04400)" fill-opacity="1"/><path d="M66.68793271026611,53.77443867950439L61.97165271026611,42.43833767950439L57.811852710266116,42.43833767950439L52.75043871026611,53.77443867950439L66.68793271026611,53.77443867950439ZM61.67708271026611,42.879939679504396L66.02593271026612,53.33283867950439L53.43122671026612,53.33283867950439L58.09830271026611,42.879939679504396L61.67708271026611,42.879939679504396Z" fill-rule="evenodd" fill="#FFFFFF" fill-opacity="1"/></g><g filter="url(#master_svg4_120_01649)"><path d="M48.889892578125,55.3016401171875L48.889892578125,58.0004101171875L71.00009257812499,58.0004101171875L71.00009257812499,55.3016401171875C71.00009257812499,52.8627401171875,69.022992578125,50.8856201171875,66.584092578125,50.8856201171875L53.305912578125,50.8856201171875C50.867012578125,50.8856201171875,48.889892578125,52.8627401171875,48.889892578125,55.3016401171875Z" fill="url(#master_svg5_1_04463)" fill-opacity="1"/><path d="M48.889892578125,55.3016401171875L48.889892578125,58.0004101171875L71.00009257812499,58.0004101171875L71.00009257812499,55.3016401171875C71.00009257812499,52.8627401171875,69.022992578125,50.8856201171875,66.584092578125,50.8856201171875L53.305912578125,50.8856201171875C50.867012578125,50.8856201171875,48.889892578125,52.8627401171875,48.889892578125,55.3016401171875ZM70.558492578125,57.5588101171875L49.331494578125,57.5588101171875L49.331494578125,55.3016401171875Q49.331494578125,53.6553801171875,50.495572578125,52.4913001171875Q51.659652578125,51.3272221171875,53.305912578125,51.3272221171875L66.584092578125,51.3272231171875Q68.23039257812499,51.3272231171875,69.39439257812501,52.4913001171875Q70.558492578125,53.6553801171875,70.558492578125,55.3016401171875L70.558492578125,57.5588101171875Z" fill-rule="evenodd" fill="#FFFFFF" fill-opacity="1"/></g><g filter="url(#master_svg6_120_01650)"><ellipse cx="59.94499731063843" cy="39.54641580581665" rx="6.411960601806641" ry="6.44778299331665" fill="url(#master_svg7_1_04272)" fill-opacity="1"/><path d="M59.94499670883179,45.9942328125Q60.102406708831786,45.9942328125,60.259616708831786,45.9864328125Q60.41683670883179,45.9786328125,60.57347670883179,45.9631328125Q60.73012670883179,45.947632812500004,60.885826708831786,45.9244328125Q61.04152670883179,45.9012328125,61.195906708831785,45.870332812499996Q61.35028670883179,45.8394328125,61.50297670883179,45.8009328125Q61.65566670883179,45.7625328125,61.80628670883179,45.7165328125Q61.956916708831784,45.6706328125,62.10511670883179,45.6173328125Q62.253326708831786,45.5639328125,62.39874670883179,45.5034328125Q62.54416670883179,45.4428328125,62.68646670883179,45.3751328125Q62.82875670883179,45.3074328125,62.967576708831785,45.2328328125Q63.106386708831785,45.1582328125,63.24140670883179,45.0768328125Q63.37641670883178,44.9955328125,63.507286708831785,44.9075328125Q63.63813670883179,44.819632812500004,63.76463670883179,44.7253328125Q63.89103670883179,44.6310328125,64.01273670883178,44.5306328125Q64.13433670883178,44.4302328125,64.25103670883179,44.323932812500004Q64.36763670883178,44.2176328125,64.47893670883178,44.1057328125Q64.59023670883178,43.9937328125,64.6959367088318,43.8764328125Q64.80163670883178,43.7592328125,64.90153670883178,43.6368328125Q65.00133670883179,43.5145328125,65.09513670883179,43.3873328125Q65.18893670883179,43.2602328125,65.27633670883179,43.1286328125Q65.36383670883178,42.9970028125,65.44473670883178,42.8612328125Q65.52563670883178,42.7254728125,65.59983670883179,42.5858828125Q65.67403670883179,42.4462828125,65.74133670883178,42.3031928125Q65.80863670883178,42.1601128125,65.8688367088318,42.0138728125Q65.92913670883179,41.8676428125,65.98213670883179,41.7186028125Q66.03513670883179,41.5695728125,66.08083670883178,41.4181128125Q66.1265367088318,41.2666428125,66.16483670883179,41.1131028125Q66.20303670883179,40.9595528125,66.23373670883178,40.8043128125Q66.2644367088318,40.6490728125,66.2875367088318,40.4925028125Q66.3106367088318,40.3359328125,66.3260367088318,40.1784128125Q66.34153670883178,40.0208828125,66.34923670883178,39.862792812500004Q66.35693670883178,39.7047028125,66.35693670883178,39.5464128125Q66.35693670883178,39.388132812500004,66.34923670883178,39.2300328125Q66.34153670883178,39.0719428125,66.3260367088318,38.9144228125Q66.3106367088318,38.7569028125,66.2875367088318,38.6003328125Q66.2644367088318,38.4437528125,66.23373670883178,38.2885128125Q66.20303670883179,38.133272812499996,66.16483670883179,37.9797328125Q66.1265367088318,37.8261928125,66.08083670883178,37.6747228125Q66.03513670883179,37.5232528125,65.98213670883179,37.3742228125Q65.92913670883179,37.2251928125,65.8688367088318,37.0789528125Q65.80863670883178,36.9327228125,65.74133670883178,36.7896328125Q65.67403670883179,36.6465428125,65.59983670883179,36.5069528125Q65.52563670883178,36.3673528125,65.44473670883178,36.2315928125Q65.36383670883178,36.0958228125,65.27633670883179,35.9642228125Q65.18893670883179,35.8326128125,65.09513670883179,35.7054728125Q65.00133670883179,35.5783428125,64.90153670883178,35.4559828125Q64.80163670883178,35.3336328125,64.6959367088318,35.2163528125Q64.59023670883178,35.0990728125,64.47893670883178,34.9871428125Q64.36763670883178,34.8752228125,64.25103670883179,34.7689228125Q64.13433670883178,34.6626228125,64.01273670883178,34.5622128125Q63.89103670883179,34.4617928125,63.76463670883179,34.3675028125Q63.63813670883179,34.2732228125,63.507286708831785,34.1852828125Q63.37641670883178,34.0973418125,63.24140670883179,34.0159678125Q63.106386708831785,33.9345938125,62.967576708831785,33.8599788125Q62.82875670883179,33.7853638125,62.68646670883179,33.7176888125Q62.54416670883179,33.6500138125,62.39874670883179,33.5894408125Q62.253326708831786,33.5288678125,62.10511670883179,33.4755438125Q61.956916708831784,33.4222198125,61.80628670883179,33.3762718125Q61.65566670883179,33.3303248125,61.50297670883179,33.2918648125Q61.35028670883179,33.2534048125,61.195906708831785,33.2225248125Q61.04152670883179,33.1916454125,60.885826708831786,33.1684203125Q60.73012670883179,33.1451952125,60.57347670883179,33.1296806125Q60.41683670883179,33.1141661125,60.259616708831786,33.1063994525Q60.102406708831786,33.0986328125,59.94499670883179,33.0986328125Q59.787596708831785,33.0986328125,59.63037670883179,33.1063994525Q59.47316670883178,33.1141661125,59.316516708831784,33.1296806125Q59.159866708831785,33.1451952125,59.00416670883179,33.1684203125Q58.848466708831786,33.1916454125,58.69408670883179,33.2225248125Q58.53970670883179,33.2534048125,58.38701670883179,33.2918648125Q58.23432670883179,33.3303248125,58.083706708831784,33.3762718125Q57.933076708831784,33.4222198125,57.78487670883179,33.4755438125Q57.63666670883179,33.5288678125,57.49124670883179,33.5894408125Q57.34582670883179,33.6500138125,57.20352670883179,33.7176888125Q57.061236708831785,33.7853638125,56.92241670883179,33.8599788125Q56.78359670883179,33.9345938125,56.648586708831786,34.0159678125Q56.513576708831785,34.0973418125,56.38270670883179,34.1852828125Q56.251826708831786,34.2732228125,56.125396708831786,34.3675028125Q55.99896670883179,34.4617928125,55.877296708831786,34.5622128125Q55.75561670883179,34.6626228125,55.63898670883179,34.7689228125Q55.522356708831786,34.8752228125,55.41105670883179,34.9871428125Q55.29975670883179,35.0990728125,55.194046708831785,35.2163528125Q55.08833670883179,35.3336328125,54.988486708831786,35.4559828125Q54.88862670883179,35.5783428125,54.79486670883179,35.7054728125Q54.701096708831784,35.8326128125,54.61364670883179,35.9642228125Q54.52619770883179,36.0958228125,54.44527470883179,36.2315928125Q54.36435270883179,36.3673528125,54.29015270883179,36.5069528125Q54.215952708831786,36.6465428125,54.14865370883179,36.7896328125Q54.08135470883179,36.9327228125,54.02111770883179,37.0789528125Q53.960881708831785,37.2251928125,53.90785370883179,37.3742228125Q53.85482570883179,37.5232528125,53.80913370883179,37.6747228125Q53.763441708831785,37.8261928125,53.725194708831786,37.9797328125Q53.686948708831785,38.133272812499996,53.65624070883179,38.2885128125Q53.62553260883179,38.4437628125,53.60243650883179,38.6003328125Q53.57934040883179,38.7569028125,53.563912008831785,38.9144228125Q53.54848370883179,39.0719428125,53.540760198831784,39.2300328125Q53.53303670883179,39.388132812500004,53.53303670883179,39.5464128125Q53.53303670883179,39.7047028125,53.540760198831784,39.862792812500004Q53.54848370883179,40.0208828125,53.563912008831785,40.1784128125Q53.57934040883179,40.3359328125,53.60243650883179,40.4925028125Q53.62553260883179,40.6490728125,53.65624070883179,40.8043128125Q53.686948708831785,40.9595528125,53.725194708831786,41.1131028125Q53.763441708831785,41.2666428125,53.80913370883179,41.4181128125Q53.85482570883179,41.5695728125,53.90785370883179,41.7186028125Q53.960881708831785,41.8676428125,54.02111770883179,42.0138728125Q54.08135470883179,42.1601128125,54.14865370883179,42.3031928125Q54.215952708831786,42.4462828125,54.29015270883179,42.5858828125Q54.36435270883179,42.7254728125,54.44527570883179,42.8612328125Q54.52619770883179,42.9970028125,54.61364670883179,43.1286328125Q54.701096708831784,43.2602328125,54.79486670883179,43.3873328125Q54.88862670883179,43.5145328125,54.988486708831786,43.6368328125Q55.08833670883179,43.7592328125,55.194046708831785,43.8764328125Q55.29975670883179,43.9937328125,55.41105670883179,44.1057328125Q55.522356708831786,44.2176328125,55.63898670883179,44.323932812500004Q55.75561670883179,44.4302328125,55.877296708831786,44.5306328125Q55.99896670883179,44.6310328125,56.125396708831786,44.7253328125Q56.251826708831786,44.819632812500004,56.38270670883179,44.9075328125Q56.513576708831785,44.9955328125,56.648586708831786,45.0768328125Q56.78359670883179,45.1582328125,56.92241670883179,45.2328328125Q57.061236708831785,45.3074328125,57.20352670883179,45.3751328125Q57.34582670883179,45.4428328125,57.49124670883179,45.5034328125Q57.63666670883179,45.5639328125,57.78487670883179,45.6173328125Q57.933076708831784,45.6706328125,58.083706708831784,45.7165328125Q58.23432670883179,45.7625328125,58.38701670883179,45.8009328125Q58.53970670883179,45.8394328125,58.69408670883179,45.870332812499996Q58.848466708831786,45.9012328125,59.00416670883179,45.9244328125Q59.159866708831785,45.947632812500004,59.316516708831784,45.9631328125Q59.47316670883178,45.9786328125,59.63037670883179,45.9864328125Q59.787596708831785,45.9942328125,59.94499670883179,45.9942328125ZM64.16583670883179,35.2985328125Q65.91533670883179,37.0578528125,65.91533670883179,39.5464128125Q65.91533670883179,42.0349728125,64.16583670883179,43.7943328125Q62.417276708831785,45.5526328125,59.94499670883179,45.5526328125Q57.47271670883179,45.5526328125,55.72418670883179,43.7943328125Q53.97463870883179,42.0349828125,53.97463870883179,39.5464128125Q53.97463870883179,37.0578528125,55.72418670883179,35.2985328125Q57.47271670883179,33.5402348125,59.94499670883179,33.5402348125Q62.417276708831785,33.5402348125,64.16583670883179,35.2985328125Z" fill-rule="evenodd" fill="#FFFFFF" fill-opacity="1"/></g><g><rect x="49.33209681510925" y="56.444053649902344" width="21.22580337524414" height="1.1116867065429688" rx="0" fill="#1764F9" fill-opacity="1"/></g></g></g></svg>