<svg xmlns="http://www.w3.org/2000/svg" xmlns:xlink="http://www.w3.org/1999/xlink" fill="none" version="1.1" width="100" height="38" viewBox="0 0 100 38"><g><path d="M0.75,27.2L2.625,27.2L2.625,21.4L22.375,21.4L22.375,27.2L24.25,27.2L24.25,30.3L0.75,30.3L0.75,27.2ZM1.25,14.4L3.325,14.4Q3.375,13.925,3.375,12.95L3.375,8.775L10.625,8.775L11,7.5L14.35,7.5L13.975,8.775L21.5,8.775L21.5,14.4L23.75,14.4L23.75,17.45L21.5,17.45L21.5,20.9L18.3,20.9L18.3,17.45L6.225,17.45Q5.925,19.075,5.1,20.95L1.475,20.95Q2.45,19.3,2.875,17.45L1.25,17.45L1.25,14.4ZM8.3,27.2L8.3,24.45L5.825,24.45L5.825,27.2L8.3,27.2ZM10.8,14.4L10.15,12.275L13.5,12.275L14.15,14.4L18.3,14.4L18.3,11.825L6.575,11.825L6.575,12.95Q6.575,13.95,6.55,14.4L10.8,14.4ZM13.55,17.9L14.5,20.9L11.15,20.9L10.2,17.9L13.55,17.9ZM13.725,27.2L13.725,24.45L11.275,24.45L11.275,27.2L13.725,27.2ZM19.175,27.2L19.175,24.45L16.7,24.45L16.7,27.2L19.175,27.2ZM34.275,13.55L34.275,7.5L37.575,7.5L37.575,8.95L47.725,8.95L47.725,12L37.575,12L37.575,13.55L46.825,13.55L46.825,23.825L28.175,23.825L28.175,13.55L34.275,13.55ZM27.9,24.8L31.475,24.8L29.475,30.5L25.9,30.5L27.9,24.8ZM43.575,20.85L43.575,16.7L31.425,16.7L31.425,20.85L43.575,20.85ZM33.45,24.8L36.775,24.8L35.875,30.5L32.55,30.5L33.45,24.8ZM41.55,24.8L42.45,30.5L39.125,30.5L38.225,24.8L41.55,24.8ZM47.1,24.8L49.1,30.5L45.525,30.5L43.525,24.8L47.1,24.8ZM74.2,30.725Q69.975,29.225,67.325,27Q64.675,29.275,60.525,30.75L60.525,27.275Q63.1,26.3,64.8,24.925Q62.625,22.15,61.975,18.15L65.025,18.15Q65.675,20.925,67.275,22.925Q68.825,21,69.5,18.15L72.575,18.15Q71.975,22.1,69.825,24.9Q71.625,26.325,74.2,27.275L74.2,30.725ZM50.825,29.2Q51.375,26.475,51.525,23.5Q51.675,20.525,51.675,16.25L51.675,14.7L54.325,14.7L54.35,19.625Q54.35,22.4,54.2,24.7125Q54.05,27.025,53.65,29.2L50.825,29.2ZM51.275,10.575L54.725,10.575L54.725,7.875L58.025,7.875L58.025,10.575L60.35,10.575L60.35,13.675L58.075,13.675L58.075,16.525L59.85,17.95L59.85,21.725L58.075,20.3L58.075,30.5L54.875,30.5L54.875,13.675L51.275,13.675L51.275,10.575ZM60.5,14.9L65.95,13.175L65.95,16.25L60.5,17.975L60.5,14.9ZM60.775,9.5L65.725,9.5L65.725,7.5L68.975,7.5L68.975,9.5L73.675,9.5L73.675,12.65L60.775,12.65L60.775,9.5ZM68.525,13.175L73.975,14.9L73.975,17.975L68.525,16.25L68.525,13.175ZM82.625,15.8Q84.575,12.725,85.475,7.975L88.4,7.975Q88.15,9.5,87.975,10.3L90.875,10.3L90.85,8.05L94.05,8.05L94.05,10.3L98.55,10.3L98.55,13.425L94.05,13.425L94.05,15.9L98.3,15.9L98.3,19.025L94.05,19.025L94.05,21.5L98.3,21.5L98.3,24.625L94.05,24.625L94.05,27.05L98.8,27.05L98.8,30.175L83.825,30.175L83.825,19.425Q83.35,20.025,82.625,20.75L82.625,15.8ZM76.025,29Q78.15,23.225,78.875,17.175L82.125,17.175Q81.325,24.125,79.575,29L76.025,29ZM79.575,8.775L82.05,15.7L78.725,15.7L76.25,8.775L79.575,8.775ZM91.075,27.05L91.05,24.625L87.025,24.625L87.025,27.05L91.075,27.05ZM91,21.5L90.975,19.025L87.025,19.025L87.025,21.5L91,21.5ZM90.95,15.9L90.925,13.425L87.1,13.425L87.025,13.675L87.025,15.9L90.95,15.9Z" fill="#3D3D3D" fill-opacity="1"/></g></svg>