<svg xmlns="http://www.w3.org/2000/svg" xmlns:xlink="http://www.w3.org/1999/xlink" fill="none" version="1.1" width="100" height="38" viewBox="0 0 100 38"><g><path d="M14.9,23.5L9.1,23.5L9.1,20.425L15,20.425L15,11.45L9.6,11.45L9.6,8.425L23.5,8.425L23.5,11.45L18.1,11.45L18.1,20.425L24,20.425L24,23.5L18.2,23.5L18.2,30.5L14.9,30.5L14.9,23.5ZM0.875,15.125L7.4,15.125L7.4,25.45L10.2,24.35L10.2,28.075L4.05,30.5L4.05,18.45L0.875,18.45L0.875,15.125ZM6,8L7.725,13.425L4.325,13.425L2.6,8L6,8ZM12.45,13.025L13.8,19.1L11.1,19.1L9.75,13.025L12.45,13.025ZM20.65,13.025L23.35,13.025L22,19.1L19.3,19.1L20.65,13.025ZM26,16.275Q28.9,12.95,30.05,8L33.325,8Q32.825,11.025,31.65,13.8L31.65,30.625L28.4,30.625L28.4,19.05Q27.275,20.375,26,21.425L26,16.275ZM32.825,14.375Q35.975,11.675,37.425,8L44.15,8Q45.6,11.675,48.75,14.375L48.75,18.225Q44.525,15.55,42.35,11.25L39.225,11.25Q37.05,15.55,32.825,18.225L32.825,14.375ZM33.2,30.5Q34.55,28.35,35.1,26.275Q35.65,24.2,35.65,21.55L35.65,16.625L38.875,16.625L38.875,21.55Q38.875,24.125,38.4625,26.2625Q38.05,28.4,37.1,30.5L33.2,30.5ZM43.05,16.625L46.275,16.625L46.275,30.5L43.05,30.5L43.05,16.625ZM73.775,30.75Q69.375,29.55,66.6875,27.65Q64,25.75,62.5,22.95Q61,25.75,58.3125,27.65Q55.625,29.55,51.225,30.75L51.225,27.275Q54.55,26.2,56.5375,24.8125Q58.525,23.425,59.8,21.1L51.075,21.1L51.075,17.85L60.875,17.85L60.85,13.725L51.85,13.725L51.85,10.5L55.725,10.5L54.65,7.625L58.125,7.625L59.2,10.5L65.8,10.5L66.875,7.625L70.35,7.625L69.275,10.5L73.15,10.5L73.15,13.725L64.15,13.725L64.15,17.85L73.925,17.85L73.925,21.1L65.2,21.1Q66.475,23.425,68.4625,24.8125Q70.45,26.2,73.775,27.275L73.775,30.75ZM76.55,29.8Q78.35,26.525,79.225,23.35L82.7,23.35Q81.85,26.65,80.325,29.8L76.55,29.8ZM76.7,19.325L82.625,19.325L84,17.9L78.075,16.2L78.075,12.525L80.9,13.4L82.95,11.25Q79.2,11.3,77.35,11.3L77.35,8.2Q87.2,8.2,97.65,7.55L97.65,10.625Q93.525,10.9,87.7,11.125L84.4,14.5L86.65,15.2L89.35,12.45L94.375,12.45L87.65,19.325L94.3,19.325L93.075,15.9L96.525,15.9L98.825,22.375L89.125,22.375L89.125,30.5L85.875,30.5L85.875,22.375L76.7,22.375L76.7,19.325ZM95.775,23.35Q96.65,26.525,98.45,29.8L94.675,29.8Q93.15,26.65,92.3,23.35L95.775,23.35Z" fill="#3D3D3D" fill-opacity="1"/></g></svg>