<svg xmlns="http://www.w3.org/2000/svg" xmlns:xlink="http://www.w3.org/1999/xlink" fill="none" version="1.1" width="9" height="9.75" viewBox="0 0 9 9.75"><g><path d="M8.625,7.5C8.418,7.5,8.25,7.332,8.25,7.125L8.25,0.75L2.625,0.75C2.41781,0.75,2.25,0.582,2.25,0.375C2.25,0.168,2.41781,0,2.625,0L8.25,0C8.66419,0,9,0.335812,9,0.75L9,7.125C9,7.332,8.83219,7.5,8.625,7.5ZM6.75,3L6.75,9C6.75,9.41419,6.41419,9.75,6,9.75L0.75,9.75C0.335812,9.75,0,9.41419,0,9L0,3C0,2.58581,0.335812,2.25,0.75,2.25L6,2.25C6.41419,2.25,6.75,2.58581,6.75,3ZM0.75,9L6,9L6,3L0.75,3L0.75,9Z" fill="#415A88" fill-opacity="1" style="mix-blend-mode:passthrough"/></g></svg>