<svg xmlns="http://www.w3.org/2000/svg" xmlns:xlink="http://www.w3.org/1999/xlink" fill="none" version="1.1" width="100" height="85.39306640625" viewBox="0 0 100 85.39306640625"><defs><mask id="master_svg0_266_49142" style="mask-type:alpha" maskUnits="objectBoundingBox"><g><path d="M0.16868944466114044,0.3859550654888153L93.97438444466114,0.3859550654888153L93.97438444466114,78.72162506548881L0.16868944466114044,78.72162506548881L0.16868944466114044,0.3859550654888153Z" fill-rule="evenodd" fill="#FFFFFF" fill-opacity="1"/></g></mask><linearGradient x1="0.516318678855896" y1="0.983681321144104" x2="0.516318678855896" y2="0.016318684443831444" id="master_svg1_262_76850"><stop offset="76.9245982170105%" stop-color="#0589CE" stop-opacity="1"/><stop offset="100%" stop-color="#3DA0DA" stop-opacity="1"/></linearGradient><mask id="master_svg2_266_49153" style="mask-type:alpha" maskUnits="objectBoundingBox"><g><path d="M0.00011235955025767908,16.45974498987198L99.93876435955026,16.45974498987198L99.93876435955026,84.83109098987198L0.00011235955025767908,84.83109098987198L0.00011235955025767908,16.45974498987198Z" fill-rule="evenodd" fill="#FFFFFF" fill-opacity="1"/></g></mask></defs><g><g mask="url(#master_svg0_266_49142)"><g><path d="M88.00303244466114,8.294101049071884C77.45471544466115,8.297471849071883,66.90696344466114,8.297471849071883,56.35864944466114,8.293539349071885C56.03056344466114,8.293539349071885,55.68898744466114,8.365449249071883,55.38000044466114,8.181741549071884C54.36820144466114,8.272190849071883,53.92101244466114,7.851966249071884,54.11426944466114,6.814325649071884C54.15921344466114,6.571629349071884,54.12157444466114,6.313763949071884,54.12044844466114,6.062640549071884C54.11090044466114,2.474999949071884,52.03224544466114,0.39578651547188415,48.42550644466114,0.39185393087188414C42.15415544466114,0.38511235791188414,35.88336944466114,0.3912921333718842,29.61258444466114,0.3912921333718842C24.13618044466114,0.3912921333718842,18.65921344466114,0.37556179607188417,13.182808444661141,0.39803370607188415C10.35696644466114,0.40926966107188417,8.17887654466114,2.358146049071884,7.93112344466114,4.957022549071884C7.83393254466114,5.976685349071884,8.40415734466114,7.322752849071884,7.62044924466114,7.935674049071884C6.8395506446611405,8.546348449071884,5.52325844466114,8.108707749071884,4.44235964466114,8.125561549071884C1.6946067446611404,8.168820249071885,0.18505618366114043,9.655337149071885,0.18449438766114043,12.400842449071884C0.18112360066114044,33.513201449071886,0.18168539866114045,54.62499844907188,0.18674157766114044,75.73680044907188C0.18674157766114044,76.22836944907188,0.07550562166114044,76.74690944907188,0.4052809046611404,77.19297644907188C0.7670786546611404,76.85983144907189,0.8165168346611404,76.39073044907188,0.9238202146611404,75.95533644907188C1.5979774446611403,77.57500344907189,3.1985392446611405,78.72163244907189,5.055280844661141,78.72163244907189L89.50134644466114,78.72163244907189C91.96145944466114,78.72163244907189,93.97438444466114,76.70870844907188,93.97438444466114,74.24859544907189L93.97438444466114,13.150280449071884C93.97438444466114,11.358146449071883,92.90415544466114,9.807584649071885,91.37269944466114,9.095225149071885C90.75752644466114,8.552528249071884,88.33168344466114,8.294101049071884,88.00303244466114,8.294101049071884Z" fill-rule="evenodd" fill="#F5A034" fill-opacity="1"/><path d="M88.00303244466114,8.294101049071884C77.45471544466115,8.297471849071883,66.90696344466114,8.297471849071883,56.35864944466114,8.293539349071885C56.03056344466114,8.293539349071885,55.68898744466114,8.365449249071883,55.38000044466114,8.181741549071884C54.36820144466114,8.272190849071883,53.92101244466114,7.851966249071884,54.11426944466114,6.814325649071884C54.15921344466114,6.571629349071884,54.12157444466114,6.313763949071884,54.12044844466114,6.062640549071884C54.11090044466114,2.474999949071884,52.03224544466114,0.39578651547188415,48.42550644466114,0.39185393087188414C42.15415544466114,0.38511235791188414,35.88336944466114,0.3912921333718842,29.61258444466114,0.3912921333718842C24.13618044466114,0.3912921333718842,18.65921344466114,0.37556179607188417,13.182808444661141,0.39803370607188415C10.35696644466114,0.40926966107188417,8.17887654466114,2.358146049071884,7.93112344466114,4.957022549071884C7.83393254466114,5.976685349071884,8.40415734466114,7.322752849071884,7.62044924466114,7.935674049071884C6.8395506446611405,8.546348449071884,5.52325844466114,8.108707749071884,4.44235964466114,8.125561549071884C1.6946067446611404,8.168820249071885,0.18505618366114043,9.655337149071885,0.18449438766114043,12.400842449071884C0.18112360066114044,33.513201449071886,0.18168539866114045,54.62499844907188,0.18674157766114044,75.73680044907188C0.18674157766114044,76.22836944907188,0.07550562166114044,76.74690944907188,0.4052809046611404,77.19297644907188C0.7670786546611404,76.85983144907189,0.8165168346611404,76.39073044907188,0.9238202146611404,75.95533644907188C1.5979774446611403,77.57500344907189,3.1985392446611405,78.72163244907189,5.055280844661141,78.72163244907189L89.50134644466114,78.72163244907189C91.96145944466114,78.72163244907189,93.97438444466114,76.70870844907188,93.97438444466114,74.24859544907189L93.97438444466114,13.150280449071884C93.97438444466114,11.358146449071883,92.90415544466114,9.807584649071885,91.37269944466114,9.095225149071885C90.75752644466114,8.552528249071884,88.33168344466114,8.294101049071884,88.00303244466114,8.294101049071884Z" fill-rule="evenodd" fill="url(#master_svg1_262_76850)" fill-opacity="1"/></g></g><g><path d="M84.99168533578491,15.507638475C86.10798033578492,16.909885674999998,86.46190833578491,18.519998075,86.2905593357849,20.273368875C85.74786533578491,20.286851875,85.20517133578491,20.312132875,84.6624693357849,20.312132875C61.43157333578491,20.314941875,38.20067333578491,20.321683375,14.969775635784913,20.306514775C13.033258435784912,20.304829575,11.624269935784913,21.062132875,10.723708135784912,22.770560275C9.729887735784912,23.299773175,10.323146335784912,24.150334875,10.297865435784912,24.875615875C9.179326035784912,29.442469875,8.060786635784911,34.009885874999995,6.941685495784912,38.577300875C6.245056308784912,38.349773875,6.335505749784912,37.726739875,6.3326967577849125,37.221120875C6.298427096784912,31.076177875,6.241685524784912,24.930109875,6.348988894784912,18.786851875C6.4006742957849125,15.808762075,8.806854035784912,13.597526152,11.846741635784912,13.580110421C18.326516335784913,13.544155365,24.80629333578491,13.5688744653,31.28550433578491,13.5683126678C47.589437335784915,13.5671890723,63.89336933578491,13.5677508698,80.19674033578491,13.5683126678C81.24280733578492,13.5683126678,82.28550833578491,13.558762106,83.2843793357849,13.963818285C84.04898933578491,14.273930665,84.69449733578492,14.691908075,84.99168533578491,15.507638475L84.99168533578491,15.507638475Z" fill-rule="evenodd" fill="#FEFEFE" fill-opacity="1"/></g><g><path d="M80.63606547799682,13.973151645495605C57.76808847799683,14.002926845495605,34.899550477996826,14.037758345495606,12.032134577996827,13.937196745495605C9.153482877996826,13.924275445495606,6.614718877996826,16.654050845495604,6.687190977996826,19.316971745495607C6.849550277996826,25.290567445495604,6.734943877996826,31.272028445495607,6.7439322779968265,37.250117445495604C6.745056177996826,37.695061445495604,6.601235877996826,38.17652244549561,6.941685177996826,38.5765214454956C5.609101077996826,43.913039445495606,4.275954977996826,49.2489954454956,2.942808897996826,54.584948445495606C2.942808897996826,54.58438744549561,2.854606627996826,54.596186445495604,2.854606627996826,54.596186445495604L2.765280787996826,54.587760445495604C2.4546066399968263,54.1753984454956,2.612471807996826,53.700118445495605,2.611910017996826,53.25742244549561C2.6017976579968263,41.332140445495604,2.213595387996826,15.998432645495605,2.7495504579968264,15.305736045495605C2.9737077379968264,12.973151645495605,4.075393177996826,11.248994445495605,6.246741577996826,10.268095615495605C7.360104577996826,9.736634925695606,10.087752777996826,9.736634925695606,10.546740977996826,9.736634925695606C32.91191047799683,9.734949532595605,55.277080477996826,9.734949532595605,77.64224547799682,9.734949532595605C78.35067347799682,9.734949532595605,79.06359447799683,9.699556272495606,79.74168747799682,9.971466395495606C83.33999947799683,10.571466385495606,85.07595347799682,12.401803445495606,84.99168747799682,15.507421445495606C83.75348247799683,14.388882145495606,82.31753147799682,13.970904345495605,80.63606547799682,13.973151645495605Z" fill-rule="evenodd" fill="#E1E1E1" fill-opacity="1"/></g><g><path d="M85.76668630865478,21.02428281375C86.19983030865478,21.05181090375,86.58972230865479,20.56922663375,87.12398630865478,20.94787831375C86.55320030865478,21.52315920375,85.86331230865478,21.17259740375,85.26443530865478,21.27540642375C84.81949730865479,21.69057494375,84.25994230865479,21.63439518375,83.72174130865479,21.63439518375C61.335225308654785,21.64001315375,38.949269308654785,21.64001315375,16.563314808654784,21.63439518375C16.025112608654787,21.63439518375,15.465562018654785,21.69057494375,15.020056410454785,21.27540642375L15.018932814954786,21.27484461375C14.999269893654786,21.00068730375,15.162191238654785,20.91810304375,15.399269878654785,20.90911427375C15.775112568654786,20.89506933075,16.150393508654787,20.90181090675,16.526236208654787,20.90181090675C39.113877308654786,20.90181090675,61.700955308654784,20.90068730675,84.28859830865478,20.90799068375C84.78073230865479,20.90799068375,85.29028430865479,20.78551876875,85.76668630865478,21.02428281375L85.76668630865478,21.02428281375Z" fill-rule="evenodd" fill="#FACD25" fill-opacity="1"/></g><g><path d="M85.76668490228272,21.02428403375C62.702078902282715,21.02428403375,39.637470902282715,21.02259865375,16.573426702282713,21.03383460375C16.053763902282714,21.03383460375,15.479044732282714,20.83158741375,15.018932372282714,21.27484583375C14.806011032282715,21.19394695375,14.400393052282714,21.10181212375,14.826235752282715,20.85855370375C15.115561602282714,20.69282336575,15.557134632282715,20.77596943075,15.930168402282714,20.77596943075C38.73297790228271,20.77316044275,61.535784902282714,20.77203684675,84.33915590228271,20.78158741075C84.81837390228272,20.78158741075,85.35039390228272,20.60012672375,85.76668490228272,21.02428403375L85.76668490228272,21.02428403375Z" fill-rule="evenodd" fill="#FBCA1E" fill-opacity="1"/></g><g><path d="M85.26460957122802,21.77685677875C85.42022657122803,21.79483431875,85.57527857122803,21.812811848750002,85.78539157122803,21.83696913875C85.56797657122803,22.14595788875,85.30393157122803,22.02067702875,85.09494657122802,22.02067702875C62.17078657122803,22.02798038875,39.246067571228025,22.02854215875,16.32191007122803,22.02123880875C15.881460551228027,22.02123880875,15.392134701228027,22.17910396875,15.020224571228027,21.77629500875C15.457865031228028,21.42910397775,15.978089751228028,21.53078937375,16.470224571228027,21.53078937375C38.918539571228024,21.52573319375,61.36629057122803,21.52573319375,83.81460457122803,21.53078937375C84.30673857122802,21.53078937375,84.82696457122803,21.42910397775,85.26460957122802,21.77685677875L85.26460957122802,21.77685677875Z" fill-rule="evenodd" fill="#FDCB1D" fill-opacity="1"/></g><g><path d="M15.019887924194336,21.2756683005C38.435056924194335,21.2756683005,61.849664924194336,21.2756683005,85.26482992419433,21.2751065045C85.26482992419433,21.3588143725,85.26482992419433,21.4425222325,85.26482992419433,21.5262300925C84.83112192419433,21.7576907825,84.36202092419434,21.6430840225,83.91145892419433,21.6430840225C61.398538924194334,21.6498256025,38.886180924194335,21.6498256025,16.373258724194336,21.6430840225C15.922135114194337,21.6430840225,15.453595784194336,21.7576907825,15.019887924194336,21.5262300925C15.019887924194336,21.4425222325,15.019887924194336,21.3593761625,15.019887924194336,21.2756683005L15.019887924194336,21.2756683005Z" fill-rule="evenodd" fill="#F6CC21" fill-opacity="1"/></g><g><path d="M15.019662857055664,21.52622344875C38.43483185705566,21.52622344875,61.85000085705566,21.52622344875,85.26516885705567,21.52622344875C85.26516885705567,21.60936951875,85.26460485705566,21.69307738875,85.26460485705566,21.77678525875C61.85000085705566,21.77678525875,38.43483185705566,21.77622344875,15.020224654815664,21.77622344875C15.020224654815664,21.69251557875,15.019662857055664,21.60936951875,15.019662857055664,21.52622344875L15.019662857055664,21.52622344875Z" fill-rule="evenodd" fill="#FECB25" fill-opacity="1"/></g><g><path d="M10.297977504277343,24.875028825C9.646853904277343,24.164354725,9.641797734277343,23.427837845,10.191235934277344,22.654242335C10.480561794277344,22.245815365,10.544606744277344,22.744691755,10.723820214277344,22.769972685C10.616516824277344,23.478961405,10.627752784277344,24.211545725,10.297977504277343,24.875028825L10.297977504277343,24.875028825Z" fill-rule="evenodd" fill="#FCFCF6" fill-opacity="1"/></g><g mask="url(#master_svg2_266_49153)"><g><path d="M93.19730135955025,16.45974498987198L6.741685259550258,16.45974498987198C3.0338202595502577,16.45974498987198,0.00011235955025767908,19.49345288987198,0.00011235955025767908,23.20131788987198L0.00011235955025767908,78.08952098987197C0.00011235955025767908,81.79738398987197,3.0338202595502577,84.83109098987198,6.741685259550258,84.83109098987198L93.19730135955025,84.83109098987198C96.90517235955026,84.83109098987198,99.93887835955026,81.79738398987197,99.93887835955026,78.08952098987197L99.93887835955026,23.20131788987198C99.93887835955026,19.49345288987198,96.90517235955026,16.45974498987198,93.19730135955025,16.45974498987198L93.19730135955025,16.45974498987198Z" fill-rule="evenodd" fill="#75D0FC" fill-opacity="1"/></g></g></g></svg>