<svg xmlns="http://www.w3.org/2000/svg" xmlns:xlink="http://www.w3.org/1999/xlink" fill="none" version="1.1" width="16" height="16" viewBox="0 0 16 16"><g><g><g><ellipse cx="8" cy="8" rx="8" ry="8" fill="#349B34" fill-opacity="0.20000000298023224"/></g></g><g><g><ellipse cx="8.58642578125" cy="8.5859375" rx="4.5" ry="4.5" fill="#FFFFFF" fill-opacity="1"/></g><g><path d="M8,2C4.6862864,2,2,4.6862864,2,8C2,11.313714,4.6862864,14.000013,8,14.000013C11.313714,14.000013,14,11.313714,14,8C14,4.6862862,11.313714,2,8,2ZM6.1611786,8.290905C6.334691,8.5560794,6.560226,8.7556233,6.8378119,8.8894405L6.8526969,9.8634939C6.5850072,9.789135,6.3371506,9.6738596,6.1091557,9.5177479C5.8811328,9.3616095,5.6840899,9.1757135,5.518028,8.9601016C5.3519654,8.7444487,5.2218456,8.504056,5.1276674,8.2388401C5.0334756,7.9736242,4.9864004,7.6948013,4.9864004,7.4023571C4.9864004,7.0504127,5.0533092,6.7182879,5.1871676,6.4060111C5.3209853,6.0937052,5.5044067000000005,5.821081599999999,5.7373784,5.5881107C5.9703488,5.3551395,6.2417364,5.1717181,6.5515256,5.0379004C6.8613567,4.9040420000000005,7.1947317,4.8371332,7.5516109,4.8371332C7.9035554,4.8371332,8.235679600000001,4.9040420000000005,8.547956899999999,5.0379009C8.860261900000001,5.1717181,9.1316495,5.3551397000000005,9.3621459,5.5881112C9.5926428,5.8210821,9.774786500000001,6.0937066,9.9086585,6.4060116C10.0424767,6.7183022,10.1093864,7.0504131,10.1093864,7.4023576C10.1093864,7.6204433,10.0846319,7.8212109,10.0350409,8.0046325L9.1948471,7.454422L9.1948471,7.4023576C9.1948471,7.1743212,9.1514688,6.9599462,9.0647264,6.7591925C8.977956800000001,6.5584249,8.8602481,6.3837037,8.7115455,6.2349868C8.562842400000001,6.0862699,8.389330900000001,5.9685478,8.1910648,5.8818057C7.9927578,5.7950499,7.7796478,5.7516716,7.5516109,5.7516716C7.3235741,5.7516716,7.1091857,5.7950358,6.9084601,5.8818057C6.7076921,5.9685614000000005,6.5329432,6.0862699,6.3842268,6.2349868C6.2355242,6.3836899,6.117815,6.5584111,6.0310459,6.7591925C5.9443035,6.9599323,5.9009259,7.1743202,5.9009259,7.4023576C5.9009383,7.7294931,5.9877081,8.0256753,6.1611786,8.290905ZM10.5406895,9.5140095C10.3820639,9.5239201,10.2023525,9.542501900000001,10.0016127,9.5697713C9.8008451,9.5970411,9.5963674,9.637958000000001,9.3881774,9.692455299999999L10.1986418,11.0308361C10.2680244,11.1646948,10.2804356,11.305975,10.2358208,11.4546652C10.1911926,11.6033821,10.0994883,11.71243,9.960681000000001,11.7818279C9.8268633,11.8561859,9.6855969,11.8698349,9.5368943,11.8227453C9.3881774,11.7756567,9.279113800000001,11.6851902,9.2096896,11.5513306L8.533097699999999,10.041954C8.3496761,10.1510181,8.1848512,10.2662516,8.0385947,10.3876877C7.8923926,10.5091343,7.7672071,10.6218948,7.6631331,10.7260237C7.5392113,10.849946,7.430162,10.9738388,7.3359709,11.0978012L7.3136353,6.5993586L11.0685358,9.499180800000001C10.9000425,9.4941764,10.7240705,9.499152200000001,10.5406895,9.5140095Z" fill="#349B34" fill-opacity="1"/></g></g></g></svg>