<svg xmlns="http://www.w3.org/2000/svg" xmlns:xlink="http://www.w3.org/1999/xlink" fill="none" version="1.1" width="20" height="20" viewBox="0 0 20 20"><defs><clipPath id="master_svg0_918_64575"><rect x="3" y="3" width="14" height="14" rx="0"/></clipPath></defs><g><g><ellipse cx="10" cy="10" rx="10" ry="10" fill="#DB6A0F" fill-opacity="0.20000000298023224"/></g><g><g clip-path="url(#master_svg0_918_64575)"><g><g><ellipse cx="10.5" cy="10" rx="5.5" ry="2" fill="#FFFFFF" fill-opacity="1"/></g><g><path d="M10.000063925,3.017333984375C6.1438708250000005,3.017333984375,3.017578125,6.1436266843750005,3.017578125,9.999819784375C3.017578125,13.856011984375,6.1438708250000005,16.982305984375,10.000063925,16.982305984375C13.856256125,16.982305984375,16.982550125,13.856011984375,16.982550125,9.999819784375C16.982550125,6.143626884375,13.856258125,3.017333984375,10.000063925,3.017333984375ZM6.318063925000001,11.164034884375C5.805122825,11.164034884375,5.388813925,10.747726484375,5.388813925,10.234784584375C5.388813925,9.721843684375,5.805122825,9.305534884375,6.318063925000001,9.305534884375C6.831005325,9.305534884375,7.247314025,9.721843684375,7.247314025,10.234784584375C7.247314025,10.747726484375,6.831019125,11.164034884375,6.318063925000001,11.164034884375ZM10.035063725,11.164034884375C9.522122425,11.164034884375,9.105813525,10.747726484375,9.105813525,10.234784584375C9.105813525,9.721843684375,9.522122425,9.305534884375,10.035063725,9.305534884375C10.548005125,9.305534884375,10.964313525,9.721843684375,10.964313525,10.234784584375C10.964313525,10.747726484375,10.548005125,11.164034884375,10.035063725,11.164034884375ZM13.752049125,11.164034884375C13.239110125,11.164034884375,12.822800625,10.747726484375,12.822800625,10.234784584375C12.822800625,9.721843684375,13.239110125,9.305534884375,13.752049125,9.305534884375C14.264991125,9.305534884375,14.681299125,9.721843684375,14.681299125,10.234784584375C14.681299125,10.747726484375,14.264991125,11.164034884375,13.752049125,11.164034884375Z" fill="#DB6A0F" fill-opacity="1"/></g></g></g></g></g></svg>