<svg xmlns="http://www.w3.org/2000/svg" xmlns:xlink="http://www.w3.org/1999/xlink" fill="none" version="1.1" width="13.964971542358398" height="13.964971542358398" viewBox="0 0 13.964971542358398 13.964971542358398"><g><path d="M6.9824858,0C3.1262927,0,0,3.1262927,0,6.9824858C0,10.838678,3.1262927,13.964972,6.9824858,13.964972C10.838678,13.964972,13.964972,10.838678,13.964972,6.9824858C13.964972,3.1262929,10.83868,0,6.9824858,0ZM3.3004858,8.1467009C2.7875447,8.1467009,2.3712358,7.7303925,2.3712358,7.2174506C2.3712358,6.7045097,2.7875447,6.2882009,3.3004858,6.2882009C3.8134272,6.2882009,4.2297359,6.7045097,4.2297359,7.2174506C4.2297359,7.7303925,3.813441,8.1467009,3.3004858,8.1467009ZM7.0174856,8.1467009C6.5045443,8.1467009,6.0882354,7.7303925,6.0882354,7.2174506C6.0882354,6.7045097,6.5045443,6.2882009,7.0174856,6.2882009C7.530427,6.2882009,7.9467354,6.7045097,7.9467354,7.2174506C7.9467354,7.7303925,7.530427,8.1467009,7.0174856,8.1467009ZM10.734471,8.1467009C10.221532,8.1467009,9.8052225,7.7303925,9.8052225,7.2174506C9.8052225,6.7045097,10.221532,6.2882009,10.734471,6.2882009C11.247413,6.2882009,11.663721,6.7045097,11.663721,7.2174506C11.663721,7.7303925,11.247413,8.1467009,10.734471,8.1467009Z" fill="#DB6A0F" fill-opacity="1"/></g></svg>