<svg xmlns="http://www.w3.org/2000/svg" xmlns:xlink="http://www.w3.org/1999/xlink" fill="none" version="1.1" width="20" height="20" viewBox="0 0 20 20"><g><g><ellipse cx="10" cy="10" rx="10" ry="10" fill="#D6EBD6" fill-opacity="1"/></g><g><g><ellipse cx="9.711537957191467" cy="9.711537957191467" rx="5.48076868057251" ry="5.48076868057251" fill="#FFFFFF" fill-opacity="1"/></g><g><path d="M10.000000499999999,2.5C14.125,2.5,17.500000999999997,5.874999799999999,17.500000999999997,10.000000499999999C17.500000999999997,14.125,14.125,17.500000999999997,10.000000499999999,17.500000999999997C5.874999799999999,17.500000999999997,2.5,14.125,2.5,10.000000499999999C2.5,5.874999799999999,5.874999799999999,2.5,10.000000499999999,2.5ZM6.7209086,9.6063633C6.421363400000001,9.3377266,6.1768177,9.4609089,6.0693181,9.5395455C5.7506819,9.7750001,6.0056818,10.1670451,6.0056818,10.1670451L8.1515913,13.065227C8.6043181,13.592729,8.985683,13.071136,8.985683,13.071136L13.959089,7.2447724C14.174998,6.9406815,14.079316,6.7465906,13.996136,6.6779542C13.717273,6.4500003,13.397499,6.741818,13.397499,6.741818L8.6338639,11.1304541L6.7209086,9.6063633Z" fill="#349B34" fill-opacity="1"/></g></g></g></svg>