<svg xmlns="http://www.w3.org/2000/svg" xmlns:xlink="http://www.w3.org/1999/xlink" fill="none" version="1.1" width="12" height="12" viewBox="0 0 12 12"><g><g><path d="M6,12C2.6865001,12,0,9.3138752,0,6C0,2.686125,2.6865001,0,6,0C9.3138752,0,12,2.686125,12,6C12,9.3138752,9.3138752,12,6,12ZM6,11Q8.0711927,11,9.5355968,9.5355968Q11,8.0711927,11,6Q11,3.9288075,9.5355968,2.4644036Q8.0711937,1,6,1Q3.9290109,1.0000001,2.464529,2.4644189Q1,3.9288845,0.99999928,6Q0.99999958,8.0711155,2.4645288,9.5355816Q3.9290109,11,6,11Z" fill-rule="evenodd" fill="#349B34" fill-opacity="1"/></g><g><path d="M6.0375721,8.283128L8.9923477,5.00187838Q9.0921774,4.89101836,9.1419835,4.75039387Q9.1917896,4.6097694,9.1839905,4.460789233Q9.1761904,4.31180891,9.1119723,4.1771538Q9.047754300000001,4.04249868,8.9368944,3.9426688Q8.826034499999999,3.842839,8.685409499999999,3.79303253Q8.544785000000001,3.74322617,8.3958049,3.75102574Q8.2468243,3.7588253,8.112169699999999,3.82304347Q7.9775147,3.88726151,7.8776851,3.99812162L5.4802409,6.6604602L4.30733114,5.35795546Q4.25790042,5.30306315,4.19871056,5.25886899Q4.13952065,5.21467483,4.07284623,5.18287718Q4.00617182,5.15107965,3.93457519,5.1329006Q3.86297851,5.11472154,3.78921099,5.11085963Q3.715443458,5.10699767,3.64233993,5.11760128Q3.5692364,5.12820482,3.49960619,5.15286648Q3.42997599,5.17752814,3.36649495,5.2153000800000004Q3.30301389,5.25307208,3.24812156,5.30250281Q3.13726151,5.40233266,3.07304335,5.5369878Q3.00882524,5.6716428,3.00102574,5.820623Q2.99322617,5.9696033,3.04303259,6.1102278000000005Q3.092839,6.2508523,3.19266886,6.3617125L4.9229097,8.283128Q4.9491847,8.3123062,4.9783624,8.338580799999999Q5.0892226,8.4384108,5.2298471,8.4882169Q5.3704716999999995,8.538023500000001,5.519452,8.5302238Q5.6684322,8.5224247,5.8030872,8.4582062Q5.937742200000001,8.3939881,6.0375721,8.283128Z" fill-rule="evenodd" fill="#349B34" fill-opacity="1"/></g></g></svg>