<svg xmlns="http://www.w3.org/2000/svg" xmlns:xlink="http://www.w3.org/1999/xlink" fill="none" version="1.1" width="16" height="16" viewBox="0 0 16 16"><g><g><g><g><ellipse cx="8" cy="8" rx="8" ry="8" fill="#0064FF" fill-opacity="0.20000000298023224"/></g></g></g><g><ellipse cx="8" cy="8.000001430511475" rx="5.599999904632568" ry="5.600001335144043" fill="#0064FF" fill-opacity="1"/></g><g><g><path d="M10.810434790734863,4.800000190734863L8.000000190734863,4.800000190734863C7.777391690734863,4.800000190734863,7.749565590734863,4.883478514734863,7.526956990734863,5.106087150734863L5.050434980734863,7.582608890734863C4.716521955734863,7.916521790734864,4.716521955734863,8.473043190734863,5.050434980734863,8.806956790734862L7.193043990734863,10.949564890734862C7.526956990734863,11.283478290734863,8.083478690734864,11.283478290734863,8.417391790734863,10.949564890734862L10.893913790734864,8.500869490734864C11.060869690734863,8.333912590734863,11.200000290734863,8.222608790734864,11.200000290734863,8.027826090734862L11.200000290734863,5.1895654807348635C11.200000290734863,4.966956660734863,11.033043390734864,4.800000190734863,10.810434790734863,4.800000190734863ZM9.725218290734864,6.970434890734863C9.335652390734865,6.970434890734863,9.029566290734863,6.664347890734863,9.029566290734863,6.2747824907348635C9.029566290734863,5.885217290734863,9.335653290734864,5.5791303507348635,9.725218290734864,5.5791303507348635C10.114783290734863,5.5791303507348635,10.420870290734864,5.885217290734863,10.420870290734864,6.2747824907348635C10.420870290734864,6.664347890734863,10.114783290734863,6.970434890734863,9.725218290734864,6.970434890734863Z" fill="#FFFFFF" fill-opacity="1" style="mix-blend-mode:passthrough"/></g></g></g></svg>