<svg xmlns="http://www.w3.org/2000/svg" xmlns:xlink="http://www.w3.org/1999/xlink" fill="none" version="1.1" width="14" height="14" viewBox="0 0 14 14"><g><path d="M7,0C3.1335568,0,0,3.1335568,0,7C0,10.866443,3.1335568,14,7,14C10.866443,14,14,10.866443,14,7C14,3.1335568,10.864877,0,7,0ZM6.29217,3.1993287C6.29217,2.8093958,6.606935,2.4946308,6.9968677,2.4946308C7.3868008,2.4946308,7.7015657,2.8093958,7.7015657,3.1993287L7.7015657,8.3123035C7.7015657,8.7022371,7.3868008,9.0170021,6.9968677,9.0170021C6.606935,9.0170021,6.29217,8.7022371,6.29217,8.3123035L6.29217,3.1993287ZM7,11.591498C6.5677853,11.591498,6.2170019,11.240716,6.2170019,10.808501C6.2170019,10.376287,6.5677853,10.025503,7,10.025503C7.4322147,10.025503,7.7829976,10.376287,7.7829976,10.808501C7.7829976,11.242282,7.4322147,11.591498,7,11.591498Z" fill="#DB6A0F" fill-opacity="1" style="mix-blend-mode:passthrough"/></g></svg>