<svg xmlns="http://www.w3.org/2000/svg" xmlns:xlink="http://www.w3.org/1999/xlink" fill="none" version="1.1" width="16" height="16" viewBox="0 0 16 16"><defs><mask id="master_svg0_125_3758" style="mask-type:alpha" maskUnits="objectBoundingBox"><g><path d="M0 0C0 0 0 0 0 0L15.79272174835205 0C15.79272174835205 0 15.79272174835205 0 15.79272174835205 0L15.79272174835205 16C15.79272174835205 16 15.79272174835205 16 15.79272174835205 16L0 16C0 16 0 16 0 16Z" fill="#FFFFFF" fill-opacity="1"/></g></mask></defs><g mask="url(#master_svg0_125_3758)"><g><path d="M14.282644228584289,10.91340551266098Q12.50242922858429,9.731749512660981,12.50242922858429,5.32998651266098Q12.50242922858429,3.4573220126609803,11.19123282858429,2.14639661266098Q9.874551928584289,0.8299864530563352,8.00489632858429,0.8299864530563352Q6.13524062858429,0.8299865126609802,4.818560228584289,2.1463968126609805Q3.5073639285842897,3.45732351266098,3.5073634285842896,5.32998651266098Q3.5073636285842897,9.73174851266098,1.7271476985842895,10.91340551266098Q1.6442846985842896,10.96840651266098,1.5887776015842896,11.05093251266098Q1.5332705225842895,11.13345851266098,1.5135698020842896,11.23094351266098Q1.4938690429842896,11.328428512660981,1.5129740396842895,11.42603251266098Q1.5320790375842896,11.52363651266098,1.5870812235842895,11.60650051266098Q1.6212931885842896,11.65804251266098,1.6670352985842896,11.69969151266098Q1.7127774085842895,11.74134151266098,1.7672910085842894,11.77058751266098Q1.8218045785842896,11.79983151266098,1.8818019585842896,11.81490851266098Q1.9417993685842896,11.82998651266098,2.0036622285842896,11.82998651266098L14.00613022858429,11.82998651266098Q14.055375228584289,11.82998651266098,14.103674228584289,11.82037851266098Q14.15197422858429,11.81077051266098,14.197472228584289,11.79192551266098Q14.24296722858429,11.77307851266098,14.28391422858429,11.74571951266098Q14.32486022858429,11.71836051266098,14.35968322858429,11.68353951266098Q14.394504228584289,11.64871751266098,14.42186322858429,11.60777051266098Q14.44922322858429,11.56682351266098,14.46806922858429,11.52132651266098Q14.486915228584289,11.47583051266098,14.496523228584289,11.42753151266098Q14.50613022858429,11.379231512660981,14.50613022858429,11.32998651266098Q14.50613022858429,11.26812351266098,14.49105322858429,11.20812551266098Q14.47597622858429,11.14812851266098,14.446731228584289,11.09361551266098Q14.41748522858429,11.03910151266098,14.37583522858429,10.993358512660981Q14.334185228584289,10.94761651266098,14.282644228584289,10.91340551266098ZM10.484199628584289,2.8535761126609804Q11.50242912858429,3.8715958126609804,11.50242912858429,5.32998651266098Q11.50242912858429,9.07483671266098,12.78323122858429,10.82998651266098L3.2265621285842894,10.82998651266098Q4.50736342858429,9.07483671266098,4.50736342858429,5.32998651266098Q4.50736362858429,3.8715972126609803,5.52559482858429,2.8535761126609804Q6.54939422858429,1.8299865126609802,8.00489632858429,1.8299864526609801Q9.460398828584289,1.8299865126609802,10.484199628584289,2.8535761126609804ZM7.58736002858429,14.049224512660981Q7.39279612858429,13.93768451266098,7.28179232858429,13.747730512660981Q7.231612828584289,13.66186151266098,7.15239252858429,13.60173151266098Q7.073171728584289,13.54160151266098,6.976970328584289,13.51636451266098Q6.9145895285842895,13.499999512660981,6.85009772858429,13.499999512660981Q6.84090342858429,13.499999512660981,6.83171472858429,13.50033751266098Q6.70623742858429,13.50495451266098,6.59782852858429,13.56830451266098Q6.511959228584289,13.61848451266098,6.45182902858429,13.69770551266098Q6.391698928584289,13.77692551266098,6.36646232858429,13.87312651266098Q6.35009772858429,13.93550851266098,6.35009772858429,13.999999512660981Q6.35009772858429,14.00919451266098,6.350435828584289,14.01838251266098Q6.35505212858429,14.14385951266098,6.41840322858429,14.25226951266098Q6.664005428584289,14.67255451266098,7.09001032858429,14.91677451266098Q7.51427902858429,15.15999951266098,8.00494062858429,15.15999951266098Q8.49560172858429,15.15999951266098,8.91987052858429,14.91677451266098Q9.34587582858429,14.67255451266098,9.59147842858429,14.25226851266098Q9.65978352858429,14.135381512660981,9.65978352858429,13.999999512660981Q9.65978352858429,13.98745251266098,9.65915402858429,13.97492051266098Q9.65602882858429,13.91269351266098,9.63772782858429,13.85313651266098Q9.61942782858429,13.79358051266098,9.58707062858429,13.74033651266098Q9.55471432858429,13.687091512660981,9.51027972858429,13.64341651266098Q9.46584572858429,13.599740512660981,9.41205222858429,13.56830451266098Q9.29516562858429,13.499999512660981,9.15978392858429,13.499999512660981L9.15340342858429,13.50004051266098Q9.092157028584289,13.50082151266098,9.03291042858429,13.51636451266098Q8.93670952858429,13.54160151266098,8.85748872858429,13.60173051266098Q8.77826802858429,13.66186151266098,8.72808852858429,13.74773151266098Q8.61708512858429,13.93768451266098,8.42252122858429,14.049224512660981Q8.22929112858429,14.15999951266098,8.00494062858429,14.15999951266098Q7.780590128584289,14.15999951266098,7.58736002858429,14.049224512660981Z" fill-rule="evenodd" fill="#666666" fill-opacity="1"/></g></g></svg>