<svg xmlns="http://www.w3.org/2000/svg" xmlns:xlink="http://www.w3.org/1999/xlink" fill="none" version="1.1" width="17.75" height="16.373414993286133" viewBox="0 0 17.75 16.373414993286133"><path d="M17.125,7.623415C16.736328,7.623415,16.5,7.8616486,16.5,8.248415L16.5,15.123415L1.25,15.123413L1.25,8.2484131C1.25,7.8616467,1.0136719,7.6234131,0.625,7.6234131C0.2363281,7.6234131,0,7.8616467,0,8.2484131L0,14.97406C0,15.747591,0.62890619,16.373413,1.40625,16.373413L16.34375,16.373415C17.119141,16.373415,17.75,15.745648,17.75,14.97406L17.75,8.248415C17.75,7.8616486,17.513672,7.6234145,17.125,7.623415ZM9,13.08979L12.869629,9.2396259C13.14502,8.9655867,13.14502,8.5224571,12.869629,8.2503605C12.594238,7.9763198,12.151368,7.9763198,11.875977,8.2503605L9.6762695,10.43685L9.6762695,0.69967747C9.6762695,0.31291151,9.3618164,0,8.9731445,0C8.5864258,0,8.2700195,0.31291151,8.2700195,0.69967747L8.2700195,10.380487L6.1264648,8.248415C5.8530273,7.9743748,5.4082031,7.9743748,5.1328125,8.248415C4.8574219,8.5224543,4.8574219,8.9655838,5.1328125,9.2376804L9,13.08979Z" fill="#666666" fill-opacity="1" style="mix-blend-mode:passthrough"/></svg>