<?xml version="1.0" encoding="UTF-8"?>
<svg width="42px" height="42px" viewBox="0 0 42 42" version="1.1" xmlns="http://www.w3.org/2000/svg" xmlns:xlink="http://www.w3.org/1999/xlink">
    <title>编组 9</title>
    <defs>
        <linearGradient x1="4.41098064%" y1="100%" x2="100%" y2="7.60861762%" id="linearGradient-1">
            <stop stop-color="#FF4500" offset="0%"></stop>
            <stop stop-color="#FFAA29" offset="100%"></stop>
        </linearGradient>
        <linearGradient x1="100%" y1="0.00376604954%" x2="50%" y2="99.996234%" id="linearGradient-2">
            <stop stop-color="#FFFFFF" offset="0%"></stop>
            <stop stop-color="#FFD7BD" offset="100%"></stop>
        </linearGradient>
        <linearGradient x1="85.7036494%" y1="0%" x2="50%" y2="100%" id="linearGradient-3">
            <stop stop-color="#FFFFFF" offset="0%"></stop>
            <stop stop-color="#FFD7BD" offset="100%"></stop>
        </linearGradient>
    </defs>
    <g id="页面-1" stroke="none" stroke-width="1" fill="none" fill-rule="evenodd">
        <g id="首页" transform="translate(-1112.000000, -458.000000)" fill-rule="nonzero">
            <g id="编组-17" transform="translate(1088.000000, 430.000000)">
                <g id="编组-21" transform="translate(24.000000, 28.000000)">
                    <rect id="矩形-1833备份-2" fill="url(#linearGradient-1)" x="0" y="0" width="42" height="42" rx="8"></rect>
                    <g id="编组-127" transform="translate(10.000000, 9.000000)">
                        <path d="M21.8320609,14.270296 C21.6776931,14.1933362 21.5703064,14.2134686 21.4463654,14.270296 L13.7298984,18.1088454 C13.5943263,18.1862535 13.4985707,18.2896137 13.4985707,18.4162445 C13.4985707,18.5424187 13.5553981,18.6654713 13.6529386,18.723627 L15.5053197,19.8757821 C15.6592393,19.9522853 15.8140472,19.9522853 15.9684067,19.7988224 L20.01234,16.1548807 C20.0382906,16.1315917 20.0774466,16.1310247 20.1040607,16.1535524 C20.116355,16.1638465 20.1238541,16.1787593 20.1247861,16.1947671 C20.1257181,16.2107748 20.1200003,16.2264572 20.1089838,16.2381085 L16.5080218,20.1039633 C16.4315103,20.1809231 16.4315103,20.2578829 16.4315103,20.3348426 L16.4315103,22.0239146 C16.4315103,22.1778342 16.5080218,22.3313054 16.6623896,22.4087135 C16.8171975,22.4847767 16.9711171,22.4087135 17.0480768,22.3313054 L17.9742674,21.4095897 L19.8266486,22.6377913 C19.9241974,22.7147511 20.1456705,22.7322019 20.2123441,22.7147511 C20.2790093,22.6973085 20.4132365,22.5626248 20.4432234,22.4073686 L21.9868688,14.7302697 C22.0235638,14.5611409 21.9868688,14.3472641 21.8320526,14.2703043 L21.8320609,14.270296 Z" id="路径" fill="url(#linearGradient-2)"></path>
                        <g id="编组" transform="translate(0.000000, 0.000000)" fill="url(#linearGradient-3)">
                            <path d="M17.0009356,2.59542678e-13 C18.5654319,2.59542678e-13 19.7906535,1.2872153 19.7906535,2.92384982 L19.7906535,12.0583444 C19.7906535,11.998605 19.2079124,11.9388656 18.6262985,11.9388656 L1.16435501,11.9388656 L1.16435501,20.4951277 C1.16435501,21.4937904 2.03677588,22.2534954 3.03205707,22.2534954 L13.8122034,22.2534954 L13.8122034,22.2523682 C14.2123448,22.7223934 14.6237577,23.1315521 15.0858928,23.4201047 L3.03205707,23.4201047 C1.39429538,23.4201047 2.72688506e-13,22.1306351 2.72688506e-13,20.4951277 L2.72688506e-13,2.92384982 C2.72688506e-13,1.34695474 1.40669413,2.59542678e-13 3.03205707,2.59542678e-13 L17.0009356,2.59542678e-13 Z M12.0651074,18.4493346 C12.3559143,18.4493346 12.6467213,18.7378872 12.6343225,19.0388386 C12.6343225,19.3645875 12.3683131,19.6283426 12.0527086,19.6283426 L12.0527086,19.6283426 L2.7389958,19.6283426 C2.38732227,19.6283426 2.15738187,19.3882578 2.15738187,19.0388386 C2.15795934,18.7165702 2.41676437,18.4542542 2.7389958,18.4493346 L2.7389958,18.4493346 Z M12.0651074,15.0430608 C12.3559143,15.0430608 12.6467213,15.3440122 12.6343225,15.633692 C12.6343225,15.9335162 12.3435156,16.223196 12.0527086,16.223196 L12.0527086,16.223196 L2.7389958,16.223196 C2.42547558,16.2075082 2.17997607,15.9475967 2.18217937,15.633692 C2.17518872,15.3177301 2.42317059,15.0546886 2.7389958,15.0430608 L2.7389958,15.0430608 Z M13.8606713,2.20246822 L10.9018795,2.20246822 L10.9018795,10.3270286 L13.6780715,10.3270286 C14.9630325,10.3270286 15.8850484,9.91786995 16.5883955,9.1592921 C17.230876,8.46045367 17.5836766,7.46291816 17.5836766,6.23431512 C17.5836766,5.00683923 17.2320031,4.06791598 16.7101286,3.37133187 C16.0676481,2.61275402 15.0847657,2.20246822 13.8606713,2.20246822 Z M6.35379392,2.16527198 L5.42163364,2.16527198 L2.22050275,10.2413645 L3.21465677,10.2413645 L4.08820483,7.9070187 L7.68722273,7.9070187 L8.57204237,10.2413645 L9.55492481,10.2413645 L6.35379392,2.16527198 Z M11.9445014,3.42881696 L11.9445014,3.42994412 L13.9700057,3.42994412 C14.8187562,3.42994412 15.5097045,3.71849678 15.9583137,4.24826136 C16.322386,4.74082973 16.5647251,5.39120034 16.5647251,6.2455867 C16.5647251,7.09997307 16.322386,7.79768432 15.8737768,8.29137985 C15.3890986,8.82114446 14.7330921,9.10969711 13.8482725,9.10969711 L11.9084323,9.10969711 L11.9084323,3.42881696 L11.9445014,3.42881696 Z M5.94238098,3.39387504 L7.34907511,7.13604211 L4.4387512,7.13604211 L5.94238098,3.39387504 Z" id="形状结合"></path>
                        </g>
                    </g>
                </g>
            </g>
        </g>
    </g>
</svg>