<svg xmlns="http://www.w3.org/2000/svg" xmlns:xlink="http://www.w3.org/1999/xlink" fill="none" version="1.1" width="42" height="42" viewBox="0 0 42 42"><defs><linearGradient x1="0.044109806418418884" y1="1" x2="1" y2="0.07608617842197418" id="master_svg0_2_0148"><stop offset="0%" stop-color="#16A581" stop-opacity="1"/><stop offset="100%" stop-color="#22CCA4" stop-opacity="1"/></linearGradient><clipPath id="master_svg1_98_02011"><rect x="10" y="10" width="22" height="22" rx="0"/></clipPath><linearGradient x1="0.5" y1="0" x2="0.5" y2="1" id="master_svg2_98_06783"><stop offset="0%" stop-color="#FFFFFF" stop-opacity="1"/><stop offset="100%" stop-color="#C5E5DB" stop-opacity="1"/></linearGradient></defs><g><g><g><path d="M0 8C4.90527396329193e-16 3.5817220013536524 3.5817220013536533 0 8 0L34 0C38.418277998646346 0 42 3.5817220013536533 42 8L42 34C42 38.418277998646346 38.418277998646346 42 34 42L8 42C3.5817220013536533 42 0 38.418277998646346 0 34Z" fill="url(#master_svg0_2_0148)" fill-opacity="1"/></g><g clip-path="url(#master_svg1_98_02011)"><g><path d="M24.498258931640628,13.569997264453125L17.504191831640625,13.569997264453125C17.022748431640625,13.569997264453125,16.630035431640625,13.174813764453125,16.630035431640625,12.695841064453125L16.630035431640625,10.947356644453125L19.252676531640624,10.947356644453125L19.252676531640624,10.625499244453126C19.252676531640624,10.321366454453125,19.501014731640623,10.073028564453125,19.805168131640627,10.073028564453125L22.197303931640626,10.073028564453125C22.501456931640625,10.073028564453125,22.749795931640627,10.321366424453124,22.749795931640627,10.625499244453126L22.749795931640627,10.947356704453124L25.372584931640624,10.947356704453124L25.372584931640624,12.695841064453125C25.372584931640624,13.177284464453125,24.979701931640626,13.569997264453125,24.498258931640628,13.569997264453125ZM27.121066931640627,10.947357234453126L28.872022931640625,10.947357234453126C29.832418931640625,10.947357174453124,30.618014931640626,11.732804464453125,30.615544931640624,12.693242064453125L30.615544931640624,30.180942564453126C30.615544931640624,31.141359564453126,29.829947931640625,31.926956564453125,28.869531931640626,31.926956564453125L13.130443531640624,31.926956564453125C12.170027731640625,31.926956564453125,11.384429931640625,31.141359564453126,11.384429931640625,30.180942564453126L11.384429931640625,12.693242064453125C11.384429931640625,11.732782964453126,12.170027491640624,10.947357234453126,13.130443531640624,10.947357234453126L14.881398631640625,10.947357234453126L14.881398631640625,14.005916164453126C14.881398631640625,14.728156564453126,15.471875631640625,15.318633064453124,16.194115631640624,15.318633064453124L25.808351931640622,15.318633064453124C26.530589931640627,15.318633064453124,27.121066931640627,14.728156064453124,27.121066931640627,14.005916164453126L27.121066931640627,10.947357234453126ZM20.692085231640625,25.890706564453126L25.020284931640624,21.565107564453125C25.359822931640625,21.225439564453126,25.359822931640625,20.668005564453125,25.020305931640625,20.325888564453123C24.680808931640627,19.986349064453123,24.123244931640627,19.986349064453123,23.783706931640623,20.325888564453123L20.073785831640627,24.035810564453126L18.218910731640626,22.180785564453124C17.879242431640627,21.841289564453128,17.321808831640624,21.841289564453128,16.982183931640627,22.180785564453124C16.642644931640625,22.520453564453128,16.642644931640625,23.077886564453124,16.982183931640627,23.417511564453125L19.455486331640625,25.890706564453126C19.795026731640625,26.230245564453124,20.352544831640625,26.230245564453124,20.692085231640625,25.890706564453126Z" fill-rule="evenodd" fill="url(#master_svg2_98_06783)" fill-opacity="1"/></g></g></g></g></svg>