<svg xmlns="http://www.w3.org/2000/svg" xmlns:xlink="http://www.w3.org/1999/xlink" fill="none" version="1.1" width="11.666666030883789" height="11.666666030883789" viewBox="0 0 11.666666030883789 11.666666030883789"><g><path d="M5.83333,11.6667C2.61167,11.6667,0,9.05497,0,5.83333C0,2.61167,2.61167,0,5.83333,0C9.05497,0,11.6667,2.61167,11.6667,5.83333C11.6667,9.05497,9.05497,11.6667,5.83333,11.6667ZM5.83333,10.5C8.41068,10.5,10.5,8.41068,10.5,5.83333C10.5,3.256,8.41068,1.16667,5.83333,1.16667C3.256,1.16667,1.16667,3.256,1.16667,5.83333C1.16667,8.41068,3.256,10.5,5.83333,10.5ZM5.25,7.58333L6.41667,7.58333L6.41667,8.75L5.25,8.75L5.25,7.58333ZM6.41667,6.62381L6.41667,7L5.25,7L5.25,6.125C5.25,5.80282,5.51116,5.54167,5.83333,5.54167C6.31657,5.54167,6.70833,5.1499,6.70833,4.66667C6.70833,4.18342,6.31657,3.79167,5.83333,3.79167C5.40884,3.79167,5.05493,4.09397,4.97513,4.49503L3.83093,4.26618C4.01705,3.33036,4.84283,2.625,5.83333,2.625C6.96092,2.625,7.875,3.53908,7.875,4.66667C7.875,5.59154,7.25999,6.3728,6.41667,6.62381Z" fill="#999999" fill-opacity="1"/></g></svg>