<svg xmlns="http://www.w3.org/2000/svg" xmlns:xlink="http://www.w3.org/1999/xlink" fill="none" version="1.1" width="12.188477516174316" height="12.188477516174316" viewBox="0 0 12.188477516174316 12.188477516174316"><g transform="matrix(1,0,0,-1,0,24.376955032348633)"><path d="M11.107032,14.751954316174317L9.6236334,14.751954316174317L9.6236334,13.269923116174317C9.6236334,12.673829166174317,9.1382799,12.188477516174316,8.5421896,12.188477516174316L1.0814456,12.188477516174316C0.48535165,12.188477516174316,0,12.673829166174317,0,13.269923116174317L0,20.732032816174318C0,21.32812501617432,0.48535165,21.813478516174314,1.0814456,21.813478516174314L2.5634768,21.813478516174314L2.5634768,23.295509516174317C2.5634768,23.891603516174314,3.0488284,24.376955516174316,3.6449218,24.376955516174316L11.107032,24.376955516174316C11.703126,24.376955516174316,12.188478,23.891603516174314,12.188478,23.295509516174317L12.188478,15.833399316174317C12.18711,15.237305916174316,11.701758,14.751954316174317,11.107032,14.751954316174317ZM1.0814456,20.93710901617432C0.96796876,20.93710901617432,0.87500006,20.844141916174316,0.87500006,20.730667116174317L0.87500006,13.269923116174317C0.87500006,13.156446276174316,0.96796876,13.063477576174316,1.0814456,13.063477576174316L8.5435553,13.063477576174316C8.657032,13.063477576174316,8.749999,13.156446276174316,8.749999,13.269923116174317L8.749999,20.732032816174318C8.749999,20.845509516174317,8.657032,20.93847651617432,8.5435553,20.93847651617432L1.0814456,20.93847651617432L1.0814456,20.93710901617432ZM11.31211,23.295509516174317C11.31211,23.408983516174317,11.219143,23.501955516174316,11.105665,23.501955516174316L3.6449218,23.501955516174316C3.531445,23.501955516174316,3.4384768,23.408983516174317,3.4384768,23.295509516174317L3.4384768,21.812110916174316L8.5435553,21.812110916174316C9.1396475,21.812110916174316,9.625001,21.326757416174317,9.625001,20.730667116174317L9.625001,15.626954316174317L11.107032,15.626954316174317C11.220506,15.626954316174317,11.313478,15.719922516174316,11.313478,15.833399316174317L11.313478,23.295509516174317L11.31211,23.295509516174317Z" fill="#0064FF" fill-opacity="1"/></g></svg>