<svg
  xmlns="http://www.w3.org/2000/svg"
  xmlns:xlink="http://www.w3.org/1999/xlink"
  fill="none"
  version="1.1"
  width="13"
  height="13.003702163696289"
  viewBox="0 0 13 13.003702163696289"
>
  <g>
    <path
      d="M12.8815,8.28972L11.177,8.28972L11.177,5.95402L7.04228,5.95402L7.04228,4.71028L8.72836,4.71028C8.79314,4.71028,8.84681,4.65846,8.84681,4.59183L8.84681,0.118451C8.84681,0.0536731,8.79499,0,8.72836,0L4.25313,0C4.18835,0,4.13468,0.0518223,4.13468,0.118451L4.13468,4.59368C4.13468,4.65846,4.1865,4.71213,4.25313,4.71213L5.97622,4.71213L5.97622,5.95587L1.82304,5.95587L1.82304,8.29157L0.118451,8.29157C0.0536731,8.29157,0,8.34339,0,8.41002L0,12.8853C0,12.95,0.0518223,13.0037,0.118451,13.0037L4.59368,13.0037C4.65846,13.0037,4.71213,12.9519,4.71213,12.8853L4.71213,8.40632C4.71213,8.34154,4.66031,8.28787,4.59368,8.28787L2.88909,8.28787L2.88909,7.01822L10.1109,7.01822L10.1109,8.28787L8.40632,8.28787C8.34154,8.28787,8.28787,8.33969,8.28787,8.40632L8.28787,12.8815C8.28787,12.9463,8.33969,13,8.40632,13L12.8815,13C12.9463,13,13,12.9482,13,12.8815L13,8.40632C12.9981,8.34154,12.9463,8.28972,12.8815,8.28972ZM5.31919,1.18451L7.66045,1.18451L7.66045,3.52577L5.31919,3.52577L5.31919,1.18451ZM3.52577,11.8155L1.18451,11.8155L1.18451,9.47423L3.52577,9.47423L3.52577,11.8155ZM11.8136,11.8155L9.47238,11.8155L9.47238,9.47423L11.8136,9.47423L11.8136,11.8155Z"
      fill="#000000"
      fill-opacity="0.44999998807907104"
      style="mix-blend-mode: passthrough"
    />
  </g>
</svg>
