<svg
  xmlns="http://www.w3.org/2000/svg"
  xmlns:xlink="http://www.w3.org/1999/xlink"
  fill="none"
  version="1.1"
  width="16"
  height="16"
  viewBox="0 0 16 16"
>
  <defs>
    <clipPath id="master_svg0_6_1086"><rect x="0" y="0" width="16" height="16" rx="0" /></clipPath>
  </defs>
  <g clip-path="url(#master_svg0_6_1086)">
    <g>
      <path
        d="M6,3.999996030883789L10,3.999996030883789C10,2.895436030883789,9.1046,1.999996030883789,8,1.999996030883789C6.8954,1.999996030883789,6,2.895436030883789,6,3.999996030883789ZM4.66667,3.999996030883789C4.66667,2.1590560308837894,6.15905,0.6666660308837891,8,0.6666660308837891C9.84093,0.6666660308837891,11.33333,2.1590560308837894,11.33333,3.999996030883789L13.3333,3.999996030883789C13.7015,3.999996030883789,14,4.298476030883789,14,4.666666030883789L14,13.999966030883789C14,14.368166030883788,13.7015,14.666666030883789,13.3333,14.666666030883789L2.666667,14.666666030883789C2.29848,14.666666030883789,2,14.368166030883788,2,13.999966030883789L2,4.666666030883789C2,4.298476030883789,2.29848,3.999996030883789,2.666667,3.999996030883789L4.66667,3.999996030883789ZM3.33333,5.333336030883789L3.33333,13.33336603088379L12.6667,13.33336603088379L12.6667,5.333336030883789L3.33333,5.333336030883789ZM6,6.666666030883789C6,7.771266030883789,6.8954,8.666666030883789,8,8.666666030883789C9.1046,8.666666030883789,10,7.771266030883789,10,6.666666030883789L11.33333,6.666666030883789C11.33333,8.50759603088379,9.84093,9.99999603088379,8,9.99999603088379C6.15905,9.99999603088379,4.66667,8.50759603088379,4.66667,6.666666030883789L6,6.666666030883789Z"
        fill="#0064ff"
        fill-opacity="1"
        style="mix-blend-mode: passthrough"
      />
    </g>
  </g>
</svg>
