<svg
  xmlns="http://www.w3.org/2000/svg"
  xmlns:xlink="http://www.w3.org/1999/xlink"
  fill="none"
  version="1.1"
  width="16"
  height="16"
  viewBox="0 0 16 16"
>
  <defs>
    <clipPath id="master_svg0_6_1062"><rect x="0" y="0" width="16" height="16" rx="0" /></clipPath>
  </defs>
  <g clip-path="url(#master_svg0_6_1062)">
    <g>
      <path
        d="M13.999967938232421,8.82813396911621L13.999967938232421,13.333333969116211L14.666667938232422,13.333333969116211L14.666667938232422,14.66663396911621L1.3333349382324218,14.66663396911621L1.3333349382324218,13.333333969116211L1.9999979382324218,13.333333969116211L1.9999979382324218,8.82813396911621C1.1960079382324218,8.29000396911621,0.6666679382324219,7.373463969116211,0.6666679382324219,6.333333969116211C0.6666679382324219,5.781903969116211,0.8162879382324219,5.250803969116211,1.088814938232422,4.798303969116211L2.896867938232422,1.666666969116211C3.0159579382324218,1.460400969116211,3.236037938232422,1.333333969116211,3.474217938232422,1.333333969116211L12.525767938232422,1.333333969116211C12.763967938232422,1.333333969116211,12.984067938232421,1.460400969116211,13.103167938232422,1.666666969116211L14.904967938232422,4.787813969116211C15.183767938232421,5.250803969116211,15.333367938232422,5.781903969116211,15.333367938232422,6.333333969116211C15.333367938232422,7.373463969116211,14.803967938232422,8.29000396911621,13.999967938232421,8.82813396911621ZM12.666667938232422,9.315003969116212C12.557167938232421,9.327133969116211,12.445967938232421,9.333333969116211,12.333367938232422,9.333333969116211C11.493967938232421,9.333333969116211,10.719267938232422,8.985333969116212,10.166667938232422,8.40880396911621C9.614067938232422,8.985333969116212,8.839397938232421,9.333333969116211,7.999997938232422,9.333333969116211C7.160597938232422,9.333333969116211,6.385937938232422,8.985333969116212,5.833337938232422,8.40880396911621C5.280737938232422,8.985333969116212,4.506077938232422,9.333333969116211,3.666667938232422,9.333333969116211C3.553997938232422,9.333333969116211,3.442777938232422,9.327133969116211,3.3333379382324217,9.315003969116212L3.3333379382324217,13.333333969116211L12.666667938232422,13.333333969116211L12.666667938232422,9.315003969116212ZM3.8590979382324218,2.666663969116211L2.237317938232422,5.475473969116211C2.0827279382324217,5.732283969116211,1.9999979382324218,6.025933969116211,1.9999979382324218,6.333333969116211C1.9999979382324218,7.253803969116211,2.746197938232422,8.00000396911621,3.666667938232422,8.00000396911621C4.353977938232422,8.00000396911621,4.963117938232422,7.580203969116211,5.214527938232422,6.953003969116211C5.438267938232422,6.394823969116211,6.228397938232422,6.394823969116211,6.452137938232422,6.953003969116211C6.703537938232422,7.580203969116211,7.312667938232422,8.00000396911621,7.999997938232422,8.00000396911621C8.687337938232423,8.00000396911621,9.296467938232421,7.580203969116211,9.547867938232422,6.953003969116211C9.771597938232421,6.394823969116211,10.561737938232422,6.394823969116211,10.785467938232422,6.953003969116211C11.036867938232422,7.580203969116211,11.645967938232422,8.00000396911621,12.333367938232422,8.00000396911621C13.253767938232421,8.00000396911621,13.999967938232421,7.253803969116211,13.999967938232421,6.333333969116211C13.999967938232421,6.025933969116211,13.917267938232422,5.732283969116211,13.756467938232422,5.464973969116211L12.140867938232422,2.666663969116211L3.8590979382324218,2.666663969116211Z"
        fill="#0064ff"
        fill-opacity="1"
        style="mix-blend-mode: passthrough"
      />
    </g>
  </g>
</svg>
