<svg xmlns="http://www.w3.org/2000/svg" xmlns:xlink="http://www.w3.org/1999/xlink" fill="none" version="1.1" width="12" height="9" viewBox="0 0 12 9"><g><g><path d="M11.999,8.86625L11.651,5.8881C11.6451,5.84292,11.6152,5.80501,11.5735,5.79017C11.5318,5.77532,11.4857,5.78608,11.4542,5.81796L10.595,6.70557L6.66251,2.65112C6.57172,2.55893,6.42629,2.55893,6.33551,2.65112L4.85949,4.17185L0.849644,0.0348501C0.804282,-0.0116167,0.731205,-0.0116167,0.685843,0.0348501L0.0336354,0.710798C-0.0112118,0.757514,-0.0112118,0.832914,0.0336354,0.87963L4.69569,5.69196C4.78569,5.78631,4.93389,5.78631,5.02389,5.69196L6.49931,4.17123L9.77534,7.55035L8.91613,8.43734C8.88517,8.46985,8.87476,8.51774,8.88929,8.56084C8.90381,8.60394,8.94075,8.63475,8.98454,8.64031L11.8718,8.99908C11.9069,9.00365,11.9421,8.99108,11.967,8.96506C11.9919,8.93905,12.0037,8.90254,11.999,8.86625Z" fill="#FF6666" fill-opacity="1"/></g></g></svg>