<svg xmlns="http://www.w3.org/2000/svg" xmlns:xlink="http://www.w3.org/1999/xlink" fill="none" version="1.1" width="30" height="30" viewBox="0 0 30 30"><g><g><path d="M15,0C23.2733,0,30,6.72474,30,15C30,23.2733,23.2753,30,15,30C6.72667,30,0,23.2733,0,15C0,6.72667,6.72667,0,15,0ZM2,15C2.00645,7.82297,7.82297,2.00645,15,2C22.177,2.00645,27.9935,7.82297,28,15C27.9935,22.177,22.177,27.9935,15,28C7.82297,27.9935,2.00645,22.177,2,15ZM16,19L16,7L14,7L14,19L16,19ZM16,23L16,21.0018L14,21.0018L14,23L16,23Z" fill-rule="evenodd" fill="#FF6666" fill-opacity="1"/></g></g></svg>