<svg xmlns="http://www.w3.org/2000/svg" xmlns:xlink="http://www.w3.org/1999/xlink" fill="none" version="1.1" width="26" height="26" viewBox="0 0 26 26"><defs><clipPath id="master_svg0_1_0832"><rect x="0" y="0" width="26" height="26" rx="0"/></clipPath></defs><g clip-path="url(#master_svg0_1_0832)"><g><rect x="5" y="4" width="17" height="16" rx="0" fill="#FFFFFF" fill-opacity="1"/></g><g><path d="M13,0C20.1797,-4.25066e-7,26,5.8203,26,13C26,20.1797,20.1797,26,13,26C5.8203,26,0,20.1797,0,13C0,5.8203,5.8203,-4.25066e-7,13,0ZM18.2,11.7011L7.8,11.7011C7.08262,11.7011,6.50106,12.2826,6.50106,13C6.50106,13.7174,7.08262,14.2989,7.8,14.2989L18.2,14.2989C18.9174,14.2989,19.4989,13.7174,19.4989,13C19.4989,12.2826,18.9174,11.7011,18.2,11.7011Z" fill="#979797" fill-opacity="1" style="mix-blend-mode:passthrough"/></g></g></svg>