<svg xmlns="http://www.w3.org/2000/svg" xmlns:xlink="http://www.w3.org/1999/xlink" fill="none" version="1.1" width="12" height="9" viewBox="0 0 12 9"><g><g transform="matrix(1,0,0,-1,0,18)"><path d="M11.999,17.86625L11.651,14.8881C11.6451,14.84292,11.6152,14.80501,11.5735,14.79017C11.5318,14.77532,11.4857,14.78608,11.4542,14.81796L10.595,15.70557L6.66251,11.65112C6.57172,11.55893,6.42629,11.55893,6.33551,11.65112L4.85949,13.17185L0.849644,9.0348501C0.804282,8.9883833,0.731205,8.9883833,0.685843,9.0348501L0.0336354,9.710798C-0.0112118,9.757514,-0.0112118,9.832914,0.0336354,9.87963L4.69569,14.69196C4.78569,14.78631,4.93389,14.78631,5.02389,14.69196L6.49931,13.171230000000001L9.77534,16.55035L8.91613,17.43734C8.88517,17.46985,8.87476,17.51774,8.88929,17.56084C8.90381,17.60394,8.94075,17.63475,8.98454,17.64031L11.8718,17.99908C11.9069,18.00365,11.9421,17.99108,11.967,17.96506C11.9919,17.93905,12.0037,17.902540000000002,11.999,17.86625Z" fill="#59F4C1" fill-opacity="1"/></g></g></svg>