<svg xmlns="http://www.w3.org/2000/svg" xmlns:xlink="http://www.w3.org/1999/xlink" fill="none" version="1.1" width="48" height="48" viewBox="0 0 48 48"><defs><clipPath id="master_svg0_580_038651"><rect x="0" y="0" width="48" height="48" rx="0"/></clipPath></defs><g clip-path="url(#master_svg0_580_038651)"><g><path d="M31.3593755,8.7841796875Q31.3593755,8.9245671875,31.3424205,9.0647854875Q31.3254685,9.2050037875,31.2916035,9.3447155875Q31.2577365,9.4844264875,31.2070425,9.6232943875Q31.1563455,9.7621621875,31.0889395,9.8998522875Q31.0215355,10.0375423875,30.9375875,10.1737222875Q30.8536375,10.3099021875,30.7533435,10.4442448875Q30.6530495,10.5785870875,30.5366515,10.710768187500001Q30.4202555,10.8429488875,30.2880365,10.972649587500001Q30.1558185,11.1023501875,30.0080965,11.2292594875Q29.8603745,11.3561687875,29.6975075,11.4799794875Q29.5346375,11.6037902875,29.3570135,11.7242040875Q29.1793895,11.8446178875,28.9874385,11.9613456875Q28.7954865,12.0780734875,28.5896725,12.1908340875Q28.3838575,12.3035945875,28.1646725,12.4121150875Q27.9454875,12.5206355875,27.7134625,12.6246566875Q27.4814375,12.7286767875,27.2371295,12.8279456875Q26.9928225,12.9272145875,26.7368225,13.0214938875Q26.4808215,13.1157726875,26.2137455,13.2048326875Q25.9466665,13.2938936875,25.6691555,13.3775226875Q25.3916455,13.4611506875,25.1043705,13.5391456875Q24.8170945,13.6171406875,24.5207485,13.6893146875Q24.2243995,13.7614876875,23.9196925,13.8276676875Q23.6149865,13.8938446875,23.3026545,13.9538676875Q22.9903255,14.0138916875,22.6711235,14.0676156875Q22.3519215,14.1213396875,22.0266155,14.1686346875Q21.7013095,14.2159286875,21.3706835,14.2566826875Q21.0400585,14.2974336875,20.7049085,14.3315446875Q20.3697605,14.3656566875,20.0308975,14.3930456875Q19.6920355,14.4204326875,19.3502715,14.4410326875Q19.0085105,14.4616316875,18.6646705,14.4753926875Q18.3208315,14.4891526875,17.975745500000002,14.4960416875Q17.6306595,14.5029296875,17.2851565,14.5029296875Q16.9396535,14.5029296875,16.5945675,14.4960416875Q16.2494805,14.4891526875,15.9056415,14.4753926875Q15.5618015,14.4616316875,15.2200385,14.4410326875Q14.8782745,14.4204326875,14.5394115,14.3930456875Q14.2005485,14.3656566875,13.8653995,14.3315446875Q13.5302515,14.2974336875,13.199626,14.2566826875Q12.8690004,14.2159286875,12.5436935,14.1686346875Q12.2183876,14.1213396875,11.8991852,14.0676156875Q11.5799828,14.0138916875,11.2676516,13.9538686875Q10.9553213,13.8938446875,10.6506152,13.8276676875Q10.3459091,13.7614876875,10.049561,13.6893136875Q9.7532139,13.6171416875,9.465938600000001,13.5391466875Q9.178663700000001,13.4611506875,8.9011536,13.3775226875Q8.6236429,13.2938936875,8.356566,13.2048336875Q8.089489,13.1157726875,7.833488,13.0214938875Q7.5774875,12.9272155875,7.3331804,12.8279466875Q7.0888731,12.7286777875,6.856847999999999,12.6246575875Q6.6248226,12.5206374875,6.405638,12.4121169875Q6.1864533,12.3035964875,5.9806373,12.1908359875Q5.7748215,12.0780753875,5.5828705,11.9613465875Q5.3909194,11.8446187875,5.2132957,11.7242049875Q5.0356719000000005,11.6037902875,4.8728032,11.4799804875Q4.7099344,11.3561696875,4.5622129000000005,11.2292613875Q4.4144915000000005,11.1023521875,4.2822734,10.972650487500001Q4.15005529,10.8429488875,4.03365898,10.710768187500001Q3.91726267,10.5785874875,3.81696856,10.4442453875Q3.71667445,10.3099026875,3.63272411,10.1737222875Q3.54877383,10.0375423875,3.48136961,9.8998522875Q3.4139654,9.7621621875,3.36326964,9.6232943875Q3.31257388,9.4844264875,3.278708704,9.3447150875Q3.24484352,9.2050037875,3.22789051,9.0647854875Q3.2109375,8.9245671875,3.2109375,8.7841796875Q3.2109375,8.6437921875,3.22789051,8.5035738875Q3.24484352,8.3633555875,3.278708704,8.2236442875Q3.31257388,8.0839328875,3.36326964,7.9450645875Q3.4139654,7.8061961875,3.48136961,7.6685065875Q3.54877383,7.5308169875,3.63272411,7.3946365875Q3.71667445,7.2584561875,3.81696856,7.1241139875Q3.91726267,6.9897715875,4.03365898,6.8575906875Q4.15005529,6.7254097875,4.2822734,6.5957085875Q4.4144915000000005,6.466007487500001,4.5622129000000005,6.3390986875Q4.7099344,6.2121901875,4.8728032,6.0883793875Q5.0356721,5.9645685875000005,5.2132959,5.8441543875Q5.3909196999999995,5.7237400874999995,5.5828707,5.6070122875Q5.7748218,5.4902844875,5.9806376,5.377524387499999Q6.1864533,5.2647640875,6.4056382,5.1562430875Q6.6248226,5.0477220875,6.856847800000001,4.9437018875Q7.0888731,4.8396815875,7.3331804,4.7404126875Q7.5774875,4.6411437875,7.833488,4.5468653875000005Q8.089489,4.4525868875,8.356566,4.3635260875Q8.6236429,4.2744652875,8.9011536,4.1908365875Q9.178663700000001,4.1072077875,9.465938600000001,4.0292127175Q9.7532139,3.9512176475,10.049561,3.8790441175Q10.3459091,3.8068705775,10.6506152,3.7406924375Q10.9553213,3.6745142375,11.2676516,3.6144908675Q11.5799828,3.5544674975,11.8991852,3.5007435675Q12.2183876,3.4470196375,12.5436945,3.3997245475Q12.8690004,3.3524294475,13.199626,3.3116771275Q13.5302515,3.2709248075,13.8653995,3.2368134375Q14.2005485,3.2027020775,14.5394115,3.1753138575Q14.8782745,3.1479256225,15.2200395,3.1273265105Q15.5618015,3.1067274025,15.9056415,3.0929670295Q16.2494805,3.0792066555,16.5945665,3.0723181716Q16.9396535,3.0654296875,17.2851565,3.0654296875Q17.6306595,3.0654296875,17.975745500000002,3.0723181716Q18.3208315,3.0792066555,18.6646705,3.0929670295Q19.0085105,3.1067274025,19.3502735,3.1273265105Q19.6920355,3.1479256225,20.0308995,3.1753138575Q20.3697625,3.2027020775,20.7049105,3.2368134375Q21.0400585,3.2709248075,21.3706855,3.3116771275Q21.7013095,3.3524294475,22.0266155,3.3997245475Q22.3519215,3.4470196375,22.6711235,3.5007435675Q22.9903255,3.5544674975,23.3026565,3.6144908675Q23.6149865,3.6745142375,23.9196945,3.7406924375Q24.2243995,3.8068705775,24.5207485,3.8790441175Q24.8170945,3.9512177075,25.1043705,4.0292127775Q25.3916455,4.1072078874999995,25.6691575,4.1908365875Q25.9466665,4.2744652875,26.2137455,4.3635260875Q26.4808215,4.4525868875,26.7368225,4.5468653875000005Q26.9928225,4.6411437875,27.2371295,4.7404126875Q27.4814375,4.8396815875,27.7134625,4.9437018875Q27.9454875,5.0477220875,28.1646725,5.1562430875Q28.3838575,5.2647640875,28.5896705,5.377524387499999Q28.7954865,5.4902844875,28.9874365,5.6070122875Q29.1793885,5.7237400874999995,29.3570135,5.8441545875Q29.5346375,5.9645685875000005,29.6975075,6.0883793875Q29.8603745,6.2121901875,30.0080965,6.3390986875Q30.1558185,6.4660071875,30.2880365,6.5957083875Q30.4202555,6.7254094875,30.5366535,6.8575901875Q30.6530495,6.989771387499999,30.7533435,7.1241139875Q30.8536375,7.2584561875,30.9375875,7.3946361875Q31.0215375,7.5308165875,31.0889415,7.6685065875Q31.1563455,7.8061961875,31.2070405,7.9450645875Q31.2577365,8.0839328875,31.2916035,8.2236442875Q31.3254685,8.3633555875,31.3424205,8.5035738875Q31.3593755,8.6437921875,31.3593755,8.7841796875Z" fill="#F5F3FC" fill-opacity="1" style="mix-blend-mode:passthrough"/></g><g><path d="M17.282766171875,21.623631312500002C19.326515171875,21.6283193125,21.365578171875,21.4408193125,23.371828171875,21.0564443125C25.392139171875,19.4861317125,27.787453171875,18.4736323125,30.323389171875,18.1220698125C30.984327171875,17.5689449125,31.382765171875,16.7626948125,31.434328171875,15.904882412500001L31.434328171875,11.1001953025C31.237451171875,14.1798825125,25.026516171875,16.6689448125,17.362453171875,16.6689448125C9.698391471875,16.6689448125,3.2155786895751,14.1048825125,3.2155786895751,10.9501953125L3.2155786895751,15.881444912500001C3.210891189475,19.059569312500003,9.520266071875,21.623631312500002,17.282766171875,21.623631312500002Z" fill="#F5F3FC" fill-opacity="1" style="mix-blend-mode:passthrough"/></g><g><path d="M17.2828125,23.6716794875C9.5203123,23.6716794875,3.2109375,21.1076171875,3.2109375,17.8544921875L3.2109375,22.7810544875C3.2109375,25.9357423875,9.5203123,28.4998041875,17.2828125,28.4998041875L18.2671875,28.4998041875C18.8062495,26.6669921875,19.7062495,24.9607419875,20.9062495,23.4701170875C19.7062495,23.6060547875,18.4968745,23.6716794875,17.2828125,23.6716794875Z" fill="#F5F3FC" fill-opacity="1" style="mix-blend-mode:passthrough"/></g><g><path d="M17.8499995,30.6468745L17.2828125,30.6468745C9.4921875,30.6468745,3.2109375,28.1812496,3.2109375,24.9281249L3.2109375,29.859375C3.2109375,33.0140615,9.5203123,35.5781245,17.2828125,35.5781245L17.9999995,35.5781245C17.6624995,33.9515615,17.6109375,32.2828125,17.8499995,30.6468745ZM32.3671875,20.3203125C27.3843745,20.3203125,22.8890625,23.325,20.9812485,27.9281249C19.0734365,32.5312505,20.1281245,37.8328115,23.6531235,41.3578125C27.1781255,44.8828125,32.4796865,45.9375005,37.0828135,44.0296875C41.6859355,42.1218735,44.6906245,37.6265625,44.6906245,32.643750499999996C44.6906245,25.8375001,39.1734355,20.3203125,32.3671875,20.3203125ZM36.8062475,33.084374499999996C37.1953125,33.1546865,37.4765625,33.4921875,37.4765625,33.8859365C37.4765625,34.2796865,37.1953125,34.6171875,36.8062475,34.6875005L33.1828115,34.6875005L33.1828115,38.3109375C33.1124995,38.6999985,32.7749995,38.9812485,32.3812485,38.9812485C31.9874995,38.9812485,31.6499995,38.6999985,31.5796875,38.3109375L31.5796875,34.6124995L27.8578125,34.6124995C27.5390625,34.668749500000004,27.2156235,34.528124500000004,27.0375005,34.256249499999996C26.8593755,33.9843745,26.8593755,33.6328125,27.0375005,33.3609375C27.2156235,33.0890625,27.5390625,32.9484375,27.8578125,33.0046875L31.5562495,33.0046875L31.5562495,31.4015625L27.8578125,31.4015625C27.5390625,31.4578125,27.2156235,31.3171875,27.0375005,31.0453115C26.8593755,30.7734375,26.8593755,30.4218745,27.0375005,30.1499996C27.2156235,29.8781252,27.5390625,29.7375002,27.8578125,29.7937498L29.7562485,29.7937498L28.0312495,27.3421874C27.8484365,26.9859371,27.9562495,26.5499997,28.2843745,26.3156247C28.6124995,26.0812497,29.0578115,26.1187501,29.3390615,26.4046874L31.8046875,29.6578121L32.9156245,29.6578121L35.2593725,26.4796872C35.4046855,26.1937499,35.7046855,26.0203123,36.0234375,26.0343747C36.3421855,26.0484376,36.6234355,26.25,36.7406235,26.5499997C36.8578105,26.8499999,36.7874985,27.1875,36.5624995,27.4171872L34.8374995,29.8828125L36.7359355,29.8828125C37.1249995,29.953125,37.4062495,30.2906246,37.4062495,30.6843745C37.4062495,31.0781245,37.1249995,31.4156245,36.7359355,31.4859375L33.1874995,31.4859375L33.1874995,33.0890625L36.8062475,33.0890625L36.8062475,33.084374499999996Z" fill="#F5F3FC" fill-opacity="1" style="mix-blend-mode:passthrough"/></g></g></svg>