<?xml version="1.0" encoding="UTF-8"?>
<svg width="12px" height="12px" viewBox="0 0 12 12" version="1.1" xmlns="http://www.w3.org/2000/svg" xmlns:xlink="http://www.w3.org/1999/xlink">
    <!-- Generator: Sketch 60 (88103) - https://sketch.com -->
    <title>编组</title>
    <desc>Created with Sketch.</desc>
    <g id="页面-2" stroke="none" stroke-width="1" fill="none" fill-rule="evenodd">
        <g id="评论风控-新增（空）" transform="translate(-1545.000000, -248.000000)" fill="#0064FF" fill-rule="nonzero">
            <g id="编组-112">
                <g id="编组-109">
                    <g id="编组-108">
                        <g id="编组-107" transform="translate(1182.000000, 0.000000)">
                            <g id="编组-188" transform="translate(363.000000, 244.000000)">
                                <g id="编组-111" transform="translate(0.000000, -0.000000)">
                                    <g id="编组" transform="translate(0.000000, 4.000000)">
                                        <path d="M11.4021867,5.40219603 L6.59780397,5.40219603 L6.59780397,0.597813311 C6.59780397,0.267652228 6.33015174,0 6,0 C5.66982958,0 5.40217735,0.267652228 5.40217735,0.597813311 L5.40217735,5.40219603 L0.597813311,5.40219603 C0.267652228,5.40219603 0,5.66984826 0,6 C0,6.33017042 0.267652228,6.59782265 0.597813311,6.59782265 L5.40217735,6.59782265 L5.40217735,11.4021867 C5.40217735,11.7323478 5.66982958,12 6,12 C6.33015174,12 6.59780397,11.7323478 6.59780397,11.4021867 L6.59780397,6.59782265 L11.4021867,6.59782265 C11.7323478,6.59782265 12,6.33017042 12,6 C12,5.66984826 11.7323478,5.40219603 11.4021867,5.40219603 Z" id="路径"></path>
                                    </g>
                                </g>
                            </g>
                        </g>
                    </g>
                </g>
            </g>
        </g>
    </g>
</svg>