<svg xmlns="http://www.w3.org/2000/svg" xmlns:xlink="http://www.w3.org/1999/xlink" fill="none" version="1.1" width="14" height="14" viewBox="0 0 14 14"><defs><clipPath id="master_svg0_580_93716"><rect x="0" y="0" width="14" height="14" rx="0"/></clipPath></defs><g clip-path="url(#master_svg0_580_93716)"><g><path d="M0.875,6.999991059303284C0.875,3.6175693593032836,3.6175783,0.8749910593032837,7,0.8749910593032837C10.3824215,0.8749910593032837,13.125,3.6175693593032836,13.125,6.999991059303284C13.125,10.382412559303283,10.3824215,13.124991059303284,7,13.124991059303284C3.6175783,13.124991059303284,0.875,10.382412559303283,0.875,6.999991059303284ZM1.9140625,6.999991059303284C1.9140625,9.808193759303284,4.191797,12.085929059303284,7,12.085929059303284C9.8082027,12.085929059303284,12.085938,9.808193759303284,12.085938,6.999991059303284C12.085938,4.191788059303284,9.8082027,1.9140535593032837,7,1.9140535593032837C4.191797,1.9140535593032837,1.9140625,4.191788059303284,1.9140625,6.999991059303284ZM7,3.7734285593032837C7.5742188,3.7734285593032837,8.1156249,3.9703038593032836,8.5257812,4.329873959303283C8.9523439,4.703115859303283,9.187501,5.204873659303284,9.1861334,5.742178559303284C9.1861334,6.532412659303284,8.6652341,7.243350159303284,7.8585935,7.553701959303283C7.7347779,7.601514459303283,7.6282439,7.685528359303284,7.5528851,7.7947870593032835C7.4775262,7.904045659303284,7.4368401,8.033476959303282,7.4361334,8.166201259303284L7.4361334,8.476553059303285C7.4361334,8.536709459303284,7.3869147,8.585928059303285,7.3267584,8.585928059303285L6.6705074,8.585928059303285C6.6103516,8.585928059303285,6.5611324,8.536709459303284,6.5611324,8.476553059303285L6.5611324,8.182607759303284C6.5611324,7.866787559303284,6.6541018,7.555068659303283,6.8332028,7.295302959303283C7.0095706,7.041006659303283,7.2556643,6.846866759303284,7.5455084,6.736124159303284C8.0117197,6.557022259303284,8.312499500000001,6.167373759303284,8.312499500000001,5.742178559303284C8.312499500000001,5.139248959303283,7.7232423,4.648428359303283,7,4.648428359303283C6.2767577,4.648428359303283,5.6875,5.139248959303283,5.6875,5.742178559303284L5.6875,5.846084759303284C5.6875,5.906241059303284,5.6382809,5.955459759303284,5.578125,5.955459759303284L4.921875,5.955459759303284C4.8617187,5.955459759303284,4.812499799999999,5.906241059303284,4.812499799999999,5.846084759303284L4.812499799999999,5.742178559303284C4.812499799999999,5.204873659303284,5.0476561,4.703115859303283,5.4742188,4.329873959303283C5.8843746,3.971670759303284,6.4257812,3.7734285593032837,7,3.7734285593032837ZM6.6133008,10.394503259303283C6.5107417,10.291944159303284,6.453125,10.152843159303284,6.453125,10.007803559303284C6.453125,9.862763059303283,6.5107417,9.723662959303283,6.6133008,9.621103859303284C6.7158599,9.518544759303284,6.85496,9.460928559303284,7,9.460928559303284C7.14504,9.460928559303284,7.2841406,9.518544759303284,7.3866997,9.621103859303284C7.4892588,9.723662959303283,7.546875,9.862763059303283,7.546875,10.007803559303284C7.546875,10.152843159303284,7.4892588,10.291944159303284,7.3866997,10.394503259303283C7.2841406,10.497062359303284,7.14504,10.554678559303284,7,10.554678559303284C6.85496,10.554678559303284,6.7158599,10.497062359303284,6.6133008,10.394503259303283Z" fill-rule="evenodd" fill="#999999" fill-opacity="1"/></g></g></svg>