<svg xmlns="http://www.w3.org/2000/svg" xmlns:xlink="http://www.w3.org/1999/xlink" fill="none" version="1.1" width="14" height="14.000001907348633" viewBox="0 0 14 14.000001907348633"><defs><clipPath id="master_svg0_792_64028"><rect x="0" y="0" width="14" height="14.000001907348633" rx="0"/></clipPath></defs><g clip-path="url(#master_svg0_792_64028)"><g><path d="M13.27380332421875,11.49999995859375L13.27378832421875,5.12744735859375C13.26901532421875,4.390062058593751,12.67242432421875,3.7934706585937503,11.93503832421875,3.7886968585937497L9.85253812421875,3.7886968585937497L9.52003862421875,2.6249469485937498C9.39492032421875,2.25274748859375,9.03717232421875,2.00947942759375,8.64503912421875,2.02994691859375L5.38128712421875,2.02994691859375C4.98915382421875,2.00947942759375,4.63140702421875,2.25274723859375,4.50628762421875,2.6249469485937498L4.147537424218751,3.7799467585937503L2.06503672421875,3.7799467585937503C1.3222346342187499,3.77993105859375,0.72143131121875,4.38466115859375,0.72628643036875,5.12744735859375L0.72625732421875,11.50872805859375C0.726257390973842,12.24809855859375,1.32569205421875,12.84747355859375,2.06506352421875,12.84747355859375L11.93505832421875,12.84747355859375C12.67584632421875,12.84266255859375,13.27381932421875,12.24079855859375,13.27380332421875,11.49999995859375ZM12.39880332421875,11.49999995859375C12.39880332421875,11.75612255859375,12.19118132421875,11.96374515859375,11.93505832421875,11.96374515859375L2.06506352421875,11.96374515859375C1.80894132421875,11.96374515859375,1.60125732421875,11.75612255859375,1.60125732421875,11.49999995859375L1.60128665421875,5.12744735859375C1.60128665421875,4.87132505859375,1.80891452421875,4.6636977585937505,2.06503672421875,4.663696758593749L4.48003722421875,4.663696758593749C4.6706154242187505,4.67119145859375,4.84408852421875,4.55436345859375,4.90878772421875,4.37494735859375L5.25003722421875,2.88744693859375C5.28160332421875,2.8792965985937498,5.31472202421875,2.8792965985937498,5.34628722421875,2.88744693859375L8.68003842421875,2.88744693859375L9.10003852421875,4.37494735859375C9.15123082421875,4.5650823585937506,9.32313442421875,4.69759225859375,9.52003862421875,4.6986970585937495L11.93503832421875,4.6986970585937495C12.19116132421875,4.6986970585937495,12.39878832421875,4.9063248585937504,12.39878832421875,5.16244725859375L12.39880332421875,11.49999995859375Z" fill="#FFFFFF" fill-opacity="1" style="mix-blend-mode:passthrough"/></g><g><path d="M3.8849561546875,5.78375006L2.8612060846875,5.78375006C2.7403939366875,5.78374946,2.6424560546875,5.88168716,2.6424560546875,6.0024994C2.6424560546875,6.12331194,2.7403936986875,6.22124964,2.8612060846875,6.2212499999999995L3.8849561546875,6.2212499999999995C4.0057686546875,6.22124964,4.1037062546875,6.12331194,4.1037062546875,6.0024994C4.1037062546875,5.88168716,4.0057684546875,5.78374946,3.8849561546875,5.78375006ZM6.9999561546875,5.25C5.5861031546875,5.25029479983,4.4374713546875,6.3915349,4.4280490546875,7.8053571999999996C4.4186273546875,9.2191794,5.5519471546875,10.3756275,6.9656705546875,10.3947649C8.3793940546875,10.4139009,9.5436043546875,9.2885585,9.5724573546875,7.8750005000000005C9.5968627546875,6.4357831,8.4393739546875,5.254672471,6.9999561546875,5.25ZM6.9999561546875,9.9749994C5.8163068546875,9.974841099999999,4.8587012546874995,9.0117729,4.8652758546875,7.8281415C4.8718504546875,6.6445101,5.8400945546875,5.69213831,7.0236740546875,5.70512825C8.207252054687501,5.71811807,9.154361254687501,6.6915095,9.1349573546875,7.8750005000000005C9.1112174546875,9.0384464,8.163635254687499,9.970491899999999,6.9999561546875,9.9749994Z" fill="#FFFFFF" fill-opacity="1" style="mix-blend-mode:passthrough"/></g></g></svg>