<svg xmlns="http://www.w3.org/2000/svg" xmlns:xlink="http://www.w3.org/1999/xlink" fill="none" version="1.1" width="14" height="17" viewBox="0 0 14 17"><g><g><path d="M0.83998895,0.000004339372C0.61761481,-0.00072914624,0.40482476,0.091552094,0.2519882,0.2550042C0.097998947,0.42500409,0.0000042883285,0.63750398,0.0000042883285,0.85000396L0.0000042883285,16.149996C-0.00072056934,16.375017,0.090475164,16.59034,0.25200459,16.744995C0.40641195,16.906153,0.61818957,16.997995,0.84000534,16.999996L13.159999,16.999996C13.382373,17.000729,13.595163,16.908447,13.748,16.744995C13.907261,16.588749,13.998021,16.374453,14,16.149996L14,4.8166795L9.2399998,0.000004339372L0.83998895,0.000004339372Z" fill="#276EF9" fill-opacity="1"/></g><g><path d="M13.99995565625,4.5769229L10.33150732625,4.5769229C9.90176555625,4.5661745,9.55587131625,4.2107778,9.54541015625,3.7692297L9.54541015625,0L13.99995565625,4.5769229Z" fill="#A5D2FF" fill-opacity="1"/></g><g><path d="M3.35473531625,7.7817296425L5.21206925625,7.7817296425L6.078649056250001,9.384799212499999C6.15806195625,9.5303097125,6.34873485625,9.5888846125,6.50556465625,9.5159666125C6.57976105625,9.4826906125,6.63726135625,9.4213836125,6.66511585625,9.345852412500001C6.69177725625,9.2716930125,6.68537235625,9.189873412499999,6.64748525625,9.1206268125L5.69294905625,7.3552320625C5.63577775625,7.2537790685,5.526879356249999,7.1913122525,5.40917445625,7.192451682844L2.86392682625,7.192451682844C2.75816000625,7.19149266992,2.65857615625,7.2414947305,2.59715617425,7.3263999325C2.53854950095,7.4082298625,2.52901532325,7.5147849625,2.57218611825,7.6054682725L5.11735125625,12.9018311125C5.16993955625,13.0058298125,5.276307356249999,13.0728526125,5.3941166562500005,13.0762224125C5.51219485625,13.0822368125,5.62419275625,13.0242472125,5.68620345625,12.9249878125L8.77859925625,7.7816157925L10.64737895625,7.7816157925L8.574022756249999,12.094694112500001L7.92127175625,10.8854031125C7.84176015625,10.7400067125,7.65120215625,10.6814644125,7.49435615625,10.7542360125C7.42017225625,10.787519012499999,7.36268475625,10.8488252125,7.33483795625,10.9243502125C7.30817465625,10.9985092125,7.31457905625,11.0803296125,7.35246895625,11.1495759125L8.30705405625,12.9148888125C8.36667205625,13.0172624125,8.478198056250001,13.0793967125,8.59789845625,13.0769272125C8.71759845625,13.0744572125,8.82639075625,13.007777212499999,8.88161275625,12.9030347125L11.42689415625,7.6065740625C11.47088715625,7.5157945125,11.46181485625,7.4086789525,11.40316005625,7.3263511525C11.34162995625,7.2412986015,11.24181265625,7.1912787838,11.13586235625,7.192402897492L8.59171965625,7.192402897492C8.47852995625,7.1911502708,8.37297865625,7.2485637965,8.31368445625,7.3436374025L5.44089005625,12.1244531125L3.35473531625,7.7817296425Z" fill="#FFFFFF" fill-opacity="1"/></g></g></svg>