<svg xmlns="http://www.w3.org/2000/svg" xmlns:xlink="http://www.w3.org/1999/xlink" fill="none" version="1.1" width="14.000007629394531" height="15" viewBox="0 0 14.000007629394531 15"><g><g><path d="M14,4.6155L8.9094448,0L1.5555556,0C1.1429965,0,0.7473349,0.15803528,0.45561168,0.43933985C0.16388842,0.72064441,0,1.1021752,0,1.5000001L0,13.5C0,13.897825,0.16388842,14.279357,0.45561168,14.56066C0.7473349,14.841965,1.1429965,15,1.5555556,15L12.444445,15C12.857004,15,13.252665,14.841965,13.544389,14.56066C13.836111,14.279357,14,13.897825,14,13.5L14,4.6155ZM7.641716,9.0666857L10.181938,12.114686L10.18116,12.115437L8.8449383,12.115437L6.9790497,9.8286858L5.1271605,12.114686L3.8173828,12.114686L6.3179383,9.0771856L4.0686049,6.3464355L5.3931608,6.3464355L6.9798269,8.3151855L8.5548277,6.3464355L9.8778267,6.3464355L7.641716,9.0666857Z" fill-rule="evenodd" fill="#68BE96" fill-opacity="1"/></g><g><path d="M13.99998379378662,4.616196259132385L8.908675193786621,0.0014501810123852539L8.908675193786621,3.1169286591323853C8.908675193786621,3.945355759132385,9.605229613786621,4.616928659132385,10.46433929378662,4.616928659132385L13.99998379378662,4.616928659132385L13.99998379378662,4.616196259132385Z" fill-rule="evenodd" fill="#AEEDD0" fill-opacity="1"/></g></g></svg>