<svg xmlns="http://www.w3.org/2000/svg" xmlns:xlink="http://www.w3.org/1999/xlink" fill="none" version="1.1" width="12" height="12" viewBox="0 0 12 12"><g><g><path d="M6,12C2.6865001,12,0,9.3138752,0,6C0,2.686125,2.6865001,0,6,0C9.3138752,0,12,2.686125,12,6C12,9.3138752,9.3138752,12,6,12L6,12Z" fill-rule="evenodd" fill="#EB3737" fill-opacity="1"/></g><g><path d="M8.366535200000001,8.3634014C8.1889877,8.5409489,7.8998151,8.5409489,7.7218633,8.3634014L3.63826691,4.27980447C3.460719239,4.1018523,3.460314777,3.8130846,3.63826691,3.63513248C3.81541008,3.457180358,4.10458243,3.457180358,4.28334337,3.63513248L8.366535200000001,7.7183251C8.5440831,7.8970852,8.5448923,8.1854491,8.366535200000001,8.3634014ZM8.3616824,4.27778232L4.27849007,8.360974299999999C4.10013348,8.5393305,3.81136572,8.5393305,3.63341361,8.360974299999999C3.455461487,8.1834269,3.455461487,7.8950634,3.63381808,7.7163019L7.71701,3.63351469C7.8953667,3.455562573,8.1845393,3.455562573,8.3616824,3.6331102299999998C8.540038599999999,3.81106243,8.539229899999999,4.09983021,8.3616824,4.27778232Z" fill="#FFFFFF" fill-opacity="1" style="mix-blend-mode:passthrough"/></g></g></svg>