<svg xmlns="http://www.w3.org/2000/svg" xmlns:xlink="http://www.w3.org/1999/xlink" fill="none" version="1.1" width="16" height="16" viewBox="0 0 16 16"><defs><clipPath id="master_svg0_1049_002777"><rect x="0" y="0" width="16" height="16" rx="0"/></clipPath></defs><g clip-path="url(#master_svg0_1049_002777)"><g><path d="M13.101444,9.40102484921875C13.63351,9.40027524921875,14.15696,9.53536124921875,14.622216,9.79348944921875C14.767618,9.20677564921875,14.840946,8.60452174921875,14.840572,8.00005914921875C14.840572,3.90189694921875,11.518451,0.57977294921875,7.4202862,0.57977294921875C3.3221247,0.57977294921875,0,3.90189694921875,0,8.00005914921875C0,12.09822394921875,3.322124,15.42034494921875,7.4202862,15.42034494921875C8.5790453,15.42203094921875,9.7219563,15.15116494921875,10.75671,14.62962294921875C9.9337339,13.70588194921875,9.7298985,12.38498894921875,10.236126,11.25612994921875C10.742356,10.12727264921875,11.864276,9.40090374921875,13.101444,9.40102484921875ZM8.6919775,8.55078504921875C8.6953497,8.89368054921875,8.4165154,9.17251114921875,8.0736198,9.16913984921875L3.8687916,9.16913984921875C3.5258951,9.17251114921875,3.2470629,8.89368054921875,3.2504337,8.55078504921875C3.2470632,8.20788814921875,3.5258951,7.92905614921875,3.8687916,7.93242694921875L7.4552631,7.93242694921875L7.4552631,4.345955149218749C7.4518919,4.00305864921875,7.7307248,3.72422644921875,8.0736198,3.72759774921875C8.4165154,3.72422644921875,8.6953497,4.00305894921875,8.6919775,4.345955149218749L8.6919775,8.55078504921875Z" fill="#EB3737" fill-opacity="1"/></g><g><path d="M13.1674011125,9.751495971679676C11.6020093125,9.751496582031224,10.3330078125,11.020498061328125,10.3330078125,12.585890961328126C10.3330078125,14.151284661328125,11.6020093125,15.420285661328126,13.1674025125,15.420285661328126C14.732794712499999,15.420285661328126,16.0017972125,14.151282761328126,16.0017958125,12.585890061328126C16.001902112499998,11.020452861328124,14.7328381125,9.751387939458125,13.1674011125,9.751495971679676ZM13.598898912500001,14.645019061328124C13.5549264125,14.723966161328125,13.4916293125,14.790454861328126,13.4149377125,14.838255361328125C13.3432581125,14.879373061328124,13.2607639125,14.897703661328125,13.178415812499999,14.890815261328125C13.0914609125,14.892094661328125,13.005654312499999,14.870858661328125,12.9293337125,14.829172561328125C12.855734612500001,14.787747861328125,12.796235512500001,14.725219261328125,12.7585120125,14.649655861328124C12.7182326125,14.572542661328125,12.6972780125,14.486802061328124,12.6974485125,14.399801261328125C12.6975636125,14.317455261328124,12.718360412500001,14.236459261328125,12.7579322125,14.164245561328125C12.7968812125,14.090249561328125,12.8582260125,14.030460361328124,12.9331984125,13.993424461328125C13.0097422125,13.955189261328126,13.093207812500001,13.932778861328124,13.1786086125,13.927530261328126C13.2615187125,13.926346761328125,13.3432188125,13.947506461328125,13.4151304125,13.988786661328124C13.487991812499999,14.032590861328124,13.5483508125,14.094414261328126,13.590396612500001,14.168302561328126C13.6340661125,14.239629761328125,13.6592383125,14.320728261328124,13.663632912499999,14.404245861328125C13.6652918125,14.489074261328124,13.6428442125,14.572633261328125,13.598898912500001,14.645211661328126L13.598898912500001,14.645019061328124ZM13.737642812499999,11.160577461328124L13.4630542125,13.278451161328125C13.4474704125,13.352425861328125,13.4171045125,13.422490361328125,13.3737790125,13.484441061328125Q13.304986512500001,13.584924961328126,13.1679823125,13.574295961328126C13.0939796125,13.575992061328126,13.0235093125,13.542692161328125,12.9778371125,13.484441061328125C12.929048012500001,13.426170561328124,12.8995433125,13.354197761328125,12.8933926125,13.278451161328125L12.6294312125,11.160577461328124Q12.5975478125,10.991688261328125,12.6398654125,10.864732661328125C12.6678843125,10.780095261328125,12.7279823125,10.701061491328126,12.8193824125,10.627051411328125C12.9107826125,10.553041281328126,13.0271118125,10.512655021328126,13.1672082125,10.505698861328124C13.2911439125,10.505142811328126,13.4123642125,10.541980561328124,13.5150342125,10.611399471328125Q13.6732948125,10.716906731328125,13.7156136125,10.859708261328125C13.7442126125,10.957366861328126,13.7517211125,11.059990261328124,13.737642812499999,11.160771461328125L13.737642812499999,11.160577461328124Z" fill="#FD5C5C" fill-opacity="1" style="mix-blend-mode:passthrough"/></g></g></svg>