<svg xmlns="http://www.w3.org/2000/svg" xmlns:xlink="http://www.w3.org/1999/xlink" fill="none" version="1.1" width="227" height="227" viewBox="0 0 227 227"><defs><linearGradient x1="0.5" y1="0" x2="0.5" y2="1" id="master_svg0_376_55399"><stop offset="0%" stop-color="#2DADAD" stop-opacity="0.6203417181968689"/><stop offset="100%" stop-color="#FFFFFF" stop-opacity="1"/></linearGradient><linearGradient x1="0.5" y1="0" x2="0.5057127418143283" y2="0.7660000008523121" id="master_svg1_376_55425"><stop offset="0%" stop-color="#F8F8F8" stop-opacity="0.7099999785423279"/><stop offset="100%" stop-color="#E2E7F2" stop-opacity="0"/></linearGradient><linearGradient x1="0.5" y1="0" x2="0.5" y2="0.6386448740959167" id="master_svg2_376_55430"><stop offset="0%" stop-color="#2DADAD" stop-opacity="0.6203417181968689"/><stop offset="100%" stop-color="#FFFFFF" stop-opacity="1"/></linearGradient><linearGradient x1="0.6847118139266968" y1="0.46299999952316284" x2="-0.00462506680140193" y2="0.605000057883393" id="master_svg3_376_55416"><stop offset="0%" stop-color="#EAEEF2" stop-opacity="1"/><stop offset="100%" stop-color="#E1E6ED" stop-opacity="1"/></linearGradient><linearGradient x1="0.9760614037513733" y1="0.47099998593330383" x2="-0.07032155280498105" y2="0.4540000236288684" id="master_svg4_376_55407"><stop offset="0%" stop-color="#EAEEF2" stop-opacity="1"/><stop offset="100%" stop-color="#E1E6ED" stop-opacity="1"/></linearGradient><linearGradient x1="0.7310000061988831" y1="0.953000009059906" x2="0.7310000061988831" y2="0.21700000762939453" id="master_svg5_376_55404"><stop offset="0%" stop-color="#F8F8F8" stop-opacity="1"/><stop offset="100%" stop-color="#E2E7F2" stop-opacity="1"/></linearGradient><linearGradient x1="0.3050000071525574" y1="0.9589743614196777" x2="0.32499996406707166" y2="0.12609865114080973" id="master_svg6_376_55413"><stop offset="0%" stop-color="#F8F8F8" stop-opacity="1"/><stop offset="100%" stop-color="#E2E7F2" stop-opacity="1"/></linearGradient><linearGradient x1="0.5" y1="0" x2="0.5" y2="1" id="master_svg7_376_55422"><stop offset="0%" stop-color="#F8F8F8" stop-opacity="1"/><stop offset="100%" stop-color="#E2E7F2" stop-opacity="1"/></linearGradient><linearGradient x1="0.5" y1="0" x2="0.5" y2="1" id="master_svg8_376_55422"><stop offset="0%" stop-color="#F8F8F8" stop-opacity="1"/><stop offset="100%" stop-color="#E2E7F2" stop-opacity="1"/></linearGradient><linearGradient x1="0.5" y1="0" x2="0.5" y2="1" id="master_svg9_376_55399"><stop offset="0%" stop-color="#2DADAD" stop-opacity="0.6203417181968689"/><stop offset="100%" stop-color="#FFFFFF" stop-opacity="1"/></linearGradient><linearGradient x1="0.03436868265271187" y1="0.5" x2="1.4808269739151" y2="0.5" id="master_svga_376_55391"><stop offset="0%" stop-color="#59DDAF" stop-opacity="1"/><stop offset="100%" stop-color="#26BA84" stop-opacity="1"/></linearGradient></defs><g><g><g><g><path d="" fill="#FFFFFF" fill-opacity="0" style="mix-blend-mode:passthrough"/></g><g><g><path d="M137.69188164068603,121.38291943554688L135.60144364068603,121.23661043554688L133.60632564068604,120.89521743554687L131.69101464068603,120.36319743554688L129.85551064068602,119.64715943554688L128.08428064068605,118.74050143554688L126.43720434068604,117.68973543554688L124.90096284068603,116.49265643554688L123.47112844068603,115.13820643554688L122.17652604068604,113.65295743554688L121.02822784068603,112.06350743554688L120.03287484068603,110.35877943554686L119.18163194068603,108.52771343554687L118.50773090068604,106.63678343554687L118.01781407068603,104.66384543554688L117.71633305068603,102.61552443554687L117.60991764068604,100.46522543554687L117.71633305068603,98.32157943554688L118.01781407068603,96.26661343554687L118.50773090068604,94.30031243554689L119.18163194068603,92.40717343554687L120.03287484068603,90.57609143554687L121.02822784068603,88.87137243554687L122.17652604068604,87.27749843554687L123.47112844068603,85.79224543554687L124.90096284068603,84.44221843554688L126.43720434068604,83.24071343554688L128.08428064068605,82.19438143554687L129.85551064068602,81.28993243554687L131.69101464068603,80.57390643554687L133.60632564068604,80.03965743554687L135.60144364068603,79.70048743554688L137.69188164068603,79.55418043554687L140.25450264068604,79.72043643554687L142.74395464068604,80.21699743554687L145.17801364068603,81.04386543554688L145.12259164068604,79.55418043554687L145.22898564068603,77.33738343554688L145.57036864068604,75.20260243554688L146.15782864068603,73.13211843554687L146.97360364068604,71.14586943554687L147.99998164068603,69.28819373554687L149.23916764068605,67.55244393554688L150.66899564068603,65.96742913554688L152.27618164068605,64.56641813554687L154.07621464068603,63.33166143554688L156.01149464068604,62.334103035546875L157.99551064068604,61.59147471554687L160.04162264068603,61.094914345546876L162.12762564068603,60.848846435546875L164.20920264068604,60.848846435546875L166.30185764068602,61.094914345546876L168.34352964068603,61.59147471554687L170.32754564068603,62.334103035546875L172.26282564068603,63.33166143554688L174.06286764068602,64.56641813554687L175.67004064068604,65.96742913554688L177.09987364068604,67.55244393554688L178.33906664068604,69.28819373554687L179.36544164068604,71.14586943554687L180.18120264068602,73.13211843554687L180.76867364068602,75.20260243554688L181.11449564068604,77.33738343554688L181.21645464068604,79.55418043554687L181.06793264068602,81.97492243554687L180.62456264068604,84.32250743554687L179.88416364068604,86.62797943554688L181.32508964068603,85.81884743554687L182.80814464068604,85.15380643554687L184.34878664068603,84.63064043554688L185.93603564068604,84.26044443554687L187.54320664068604,84.02989243554687L189.18141264068603,83.95673743554687L191.66643664068602,84.16067843554687L194.00959064068604,84.66832943554688L196.22416064068602,85.48410943554687L198.32569264068604,86.58807743554688L200.23435264068604,87.92036643554687L201.96791164068605,89.50538043554687L203.49526264068604,91.30319643554688L204.78100664068603,93.26949643554687L205.83175764068602,95.43531843554688L206.60099164068603,97.71417643554688L207.07537964068604,100.11940343554687L207.24386664068604,102.66650343554687L207.07537964068604,105.21803643554688L206.60099164068603,107.62325643554688L205.83175764068602,109.90433843554688L204.78100664068603,112.06792443554687L203.49526264068604,114.03422143554687L201.96791164068605,115.83428543554687L200.23435264068604,117.41927743554687L198.32569264068604,118.75157943554687L196.22416064068602,119.85554143554688L194.00959064068604,120.67132143554687L191.66643664068602,121.17897843554687L189.18141264068603,121.38291943554688L137.69188164068603,121.38291943554688Z" fill="url(#master_svg0_376_55399)" fill-opacity="0.20000000298023224" style="mix-blend-mode:passthrough"/></g><g><path d="M20.068661363622283,172.70619223583986L19.851416763622282,171.70418523583984L19.290566163622284,168.95756523583984L18.525771763622284,164.85649523583984L17.703339863622283,159.79333123583984L17.313183363622283,157.04449823583985L16.956278863622284,154.15603223583986L16.657011743622284,151.24315223583983L16.430899243622285,148.33693723583986L16.291240004622285,145.45287723583985L16.262422263622284,142.72401023583984L16.311192054622285,140.91952523583984L16.424247453622282,139.25027123583985L16.592724473622283,137.70961423583984L16.849873723622284,136.18002323583983L17.177958543622285,134.84550123583983L17.565898163622283,133.68612323583983L17.942754563622284,132.83930023583986L18.361729063622285,132.12550523583985L18.820605663622285,131.52918223583984L19.319384963622284,131.03926823583984L20.037626463622285,130.50502223583985L20.727050963622283,130.09491523583984L21.392088563622284,129.79564623583985L22.041610863622285,129.60057023583985L22.943846863622284,129.45868923583984L23.821697463622286,129.45647023583984L24.681813863622285,129.59170523583984L25.526414563622282,129.84219123583983L26.348845263622284,130.19022723583984L27.15576126362228,130.63580923583984L28.299629263622286,131.42942823583985L29.372554263622284,132.34496723583985L30.367898263622283,133.34252523583984L31.247967263622286,134.34229823583985L32.05044426362228,135.35316123583985L32.693319263622286,136.24210323583983L33.624372263622284,137.66083523583984L33.954675263622285,138.21947123583985L33.70639026362228,137.31280123583986L33.07904026362228,134.83885923583983L32.25439326362228,131.16784323583985L31.824333263622286,129.03528623583983L31.398709263622283,126.66553323583985L31.019632263622285,124.23147923583984L30.69376826362228,121.69990323583984L30.454355263622283,119.15058723583985L30.314697263622286,116.64117123583985L30.292529263622285,114.96971223583984L30.334647263622283,113.37583523583984L30.438834263622283,111.85733413583985L30.627265263622284,110.34547093583984L30.897718263622284,108.96884343583984L31.241311263622286,107.71413563583984L31.578270263622287,106.79194733583984L31.968428263622286,105.96951773583984L32.407352263622286,105.23575853583985L32.895046263622284,104.58402033583984L33.46033026362228,104.00100183583984L34.09211926362228,103.51774167583984L34.79484126362229,103.12758350583984L35.579585263622285,102.83275256583984L36.40202126362229,102.66649286783985L37.193412263622285,102.62215423583984L37.96929326362228,102.69974345683984L38.731870263622284,102.89482262583985L39.465631263622285,103.18965357583984L40.192739263622286,103.58203083583984L40.922069263622284,104.07637203583984L41.65139026362228,104.68377873583984L42.544761263622284,105.57270903583985L43.43147626362229,106.60352513583985L44.31819926362228,107.79394383583984L45.129547263622285,109.03534363583984L45.92759526362228,110.37429043583984L46.703468263622284,111.81521413583984L47.78082826362228,114.03201123583985L48.785043263622285,116.33969223583985L49.71387626362228,118.67618923583984L50.54517526362228,120.95728123583984L51.30554326362228,123.20954323583985L51.95284426362228,125.26007823583984L52.98808826362228,128.83799123583984L53.626527263622286,131.28532423583985L53.845987263622284,132.19200323583985L53.746236263622286,131.28754823583984L53.571111263622285,128.88232823583985L53.513471263622286,127.31505023583985L53.50682226362228,125.44851323583984L53.571111263622285,123.51324123583984L53.737371263622286,121.45162223583984L53.91249626362228,120.07056423583984L54.15190626362229,118.70722723583984L54.45561026362228,117.35940923583985L54.839120263622284,116.03821023583984L55.30021426362229,114.80123323583985L55.843324263622286,113.64185423583984L56.32215326362228,112.81277323583984L56.856397263622284,112.05905723583984L57.443857263622284,111.37849993583984L58.088937263622284,110.76666733583984L58.79387826362228,110.23685073583984L59.57418626362228,109.80014233583984L60.432084263622286,109.45432133583985L61.380884263622285,109.19939183583985L62.14789326362229,109.13067243583984L62.91490726362228,109.20160343583984L63.69520726362229,109.41663403583985L64.50213426362228,109.78905963583985L65.24476026362228,110.25237033583984L66.01177026362228,110.83760263583984L66.79873026362228,111.55806063583984L67.61229826362228,112.42704013583985L68.60099226362229,113.63519623583984L69.60963226362227,115.02735123583984L70.63822726362228,116.61901123583985L71.59588026362229,118.24834723583984L72.55132026362229,119.99518423583984L73.50232826362227,121.86616323583985L74.84570426362228,124.72140123583983L76.12922026362229,127.67195323583985L77.34181726362229,130.64910723583984L78.44799926362228,133.53981623583985L79.48547526362228,136.38618123583984L80.38325626362229,138.96875423583984L81.85743826362229,143.46218523583985L82.79512926362229,146.52358623583984L83.12766426362228,147.65416323583986L20.068661363622283,172.70619223583986Z" fill="url(#master_svg1_376_55425)" fill-opacity="1" style="mix-blend-mode:passthrough"/></g><g><g><path d="M226.99999042144776,180.62458469384765L226.94455042144776,181.81278969384766L226.77829042144776,182.99878269384766L226.50784042144775,184.18698469384765L226.11546042144775,185.39070469384765L225.60112042144775,186.61215969384767L224.95165042144777,187.85356569384766L224.12035042144777,189.17921869384764L223.12279042144775,190.52701169384767L221.94568042144775,191.90143169384766L220.56459042144775,193.30466469384766L218.96184042144776,194.74114969384766L217.40566042144775,195.98698769384765L215.67212042144774,197.24613169384764L213.74574042144775,198.51635369384766L211.61317042144776,199.79766069384766L209.26114042144775,201.09005769384765L206.41034042144776,202.51102869384766L203.27582042144775,203.92312669384765L199.83534042144777,205.32193369384765L196.07344042144774,206.70743569384766L192.09650042144776,208.02862569384766L187.87349042144774,209.28776569384766L183.39334042144776,210.48706069384764L178.90657042144775,211.56442269384766L174.20915042144776,212.56864169384767L169.30562042144774,213.49746669384766L164.39545042144775,214.31768069384765L159.32558042144777,215.05365769384764L154.09174042144775,215.70096569384765L148.85344042144774,216.24407169384767L143.49989042144776,216.69408369384766L138.03326042144775,217.05320769384764L132.56221042144776,217.30815169384766L127.02464042144776,217.46109769384765L121.41615042144775,217.51209269384765L115.80988442144775,217.46109769384765L110.27009642144776,217.30815169384766L104.80127842144775,217.05320769384764L99.33020842144775,216.69408369384766L93.97887542144775,216.24407169384767L88.74279842144776,215.70096569384765L83.50672242144775,215.05365769384764L78.43689842144775,214.31768069384765L73.52670042144776,213.49746669384766L68.62093042144775,212.56864169384767L63.927983421447756,211.56442269384766L59.43674542144775,210.48706069384764L54.95882142144775,209.28776569384766L50.735817421447756,208.02862569384766L46.75888742144775,206.70743569384766L42.99698342144775,205.32193369384765L39.55873542144775,203.92312669384765L36.42418342144775,202.51102869384766L33.573382421447754,201.09005769384765L31.219147421447754,199.79766069384766L29.086587421447753,198.51635369384766L27.160192421447753,197.24613169384764L25.426657721447754,195.98698769384765L23.872686421447753,194.74114969384766L22.269940821447754,193.30466469384766L20.888877421447752,191.90143169384766L19.709541521447754,190.52701169384767L18.711982921447753,189.17921869384764L17.882900021447753,187.85356569384766L17.231162621447755,186.61215969384767L16.719081761447754,185.39070469384765L16.326709421447752,184.18698469384765L16.054042811447754,182.99878269384766L15.890000324447755,181.81278969384766L15.834580421447754,180.62458469384765L15.890000324447755,179.43638569384765L16.054042811447754,178.25040469384766L16.326709421447752,177.06219069384764L16.719081761447754,175.85847869384764L17.231162621447755,174.63701869384766L17.882900021447753,173.39562269384766L18.711982921447753,172.06997669384765L19.709541521447754,170.72216069384766L20.888877421447752,169.34774969384765L22.269940821447754,167.94450969384766L23.872686421447753,166.50802769384765L25.426657721447754,165.26219169384765L27.160192421447753,164.00305169384765L29.086587421447753,162.73282969384766L31.219147421447754,161.45151569384765L33.573382421447754,160.15912269384765L36.42418342144775,158.73815869384765L39.55873542144775,157.32606169384766L42.99698342144775,155.92726369384766L46.75888742144775,154.54176369384766L50.735817421447756,153.22054959384766L54.95882142144775,151.96141049384767L59.43674542144775,150.76212789384766L63.927983421447756,149.68475439384767L68.62093042144775,148.68055339384765L73.52670042144776,147.75171469384765L78.43689842144775,146.93149689384765L83.50672242144775,146.19551899384766L88.74279842144776,145.54821799384766L93.97887542144775,145.00509999384767L99.33020842144775,144.55509728384766L104.80127842144775,144.19596368384765L110.27009642144776,143.94104021384766L115.80988442144775,143.78808068484764L121.41615042144775,143.73709869384766L127.02464042144776,143.78808068484764L132.56221042144776,143.94104021384766L138.03326042144775,144.19596368384765L143.49989042144776,144.55509728384766L148.85344042144774,145.00509999384767L154.09174042144775,145.54821799384766L159.32558042144777,146.19551899384766L164.39545042144775,146.93149689384765L169.30562042144774,147.75171469384765L174.20915042144776,148.68055339384765L178.90657042144775,149.68475439384767L183.39334042144776,150.76212789384766L187.87349042144774,151.96141049384767L192.09871042144775,153.22054959384766L196.07344042144774,154.54176369384766L199.83534042144777,155.92726369384766L203.27582042144775,157.32606169384766L206.41034042144776,158.73815869384765L209.26114042144775,160.15912269384765L211.61317042144776,161.45151569384765L213.74574042144775,162.73282969384766L215.67212042144774,164.00305169384765L217.40566042144775,165.26219169384765L218.96184042144776,166.50802769384765L220.56459042144775,167.94450969384766L221.94568042144775,169.34774969384765L223.12279042144775,170.72216069384766L224.12035042144777,172.06997669384765L224.95165042144777,173.39562269384766L225.60112042144775,174.63701869384766L226.11546042144775,175.85847869384764L226.50784042144775,177.06219069384764L226.77829042144776,178.25040469384766L226.94455042144776,179.43638569384765L226.99999042144776,180.62458469384765Z" fill="url(#master_svg2_376_55430)" fill-opacity="0.0617784820497036" style="mix-blend-mode:passthrough"/></g></g><g><g><path d="M112.42482852935791,81.42071914672852L112.42482852935791,110.02182214672851L159.93963752935792,108.70504914672851L159.93963752935792,87.22872204672852L112.42482852935791,81.42071914672852Z" fill="#DBDFE6" fill-opacity="1" style="mix-blend-mode:passthrough"/></g><g><path d="M112.42483363928223,81.42071914672852L112.42483363928223,110.02182214672851L74.26711463928223,108.70504914672851L74.26711463928223,89.86227704672851L112.42483363928223,81.42071914672852Z" fill="#D0D7E0" fill-opacity="1" style="mix-blend-mode:passthrough"/></g><g><path d="M117.92027378082275,95.9673346975708L117.92027378082275,158.1639906975708L159.93964478082276,149.7268496975708L159.93964478082276,87.4193696975708L117.92027378082275,95.9673346975708Z" fill="url(#master_svg3_376_55416)" fill-opacity="1" style="mix-blend-mode:passthrough"/></g><g><path d="M117.91805463928222,158.16397506518555L74.26711463928223,150.35644106518555L74.26711463928223,89.69379806518555L117.91805463928222,95.82989546518554L117.91805463928222,158.16397506518555Z" fill="url(#master_svg4_376_55407)" fill-opacity="1" style="mix-blend-mode:passthrough"/></g><g><path d="M74.26711486138916,89.69379806518555L61.97054386138916,101.74874006518554L104.84560486138916,109.52969706518554L118.10648786138916,95.83210946518555L74.26711486138916,89.69379806518555Z" fill="url(#master_svg5_376_55404)" fill-opacity="1" style="mix-blend-mode:passthrough"/></g><g><path d="M130.42965911065673,108.70504721224975L172.55765211065673,99.50091221224976L160.04605611065674,87.44819021224976L117.70524311065674,95.77447751224976L130.42965911065673,108.70504721224975Z" fill="url(#master_svg6_376_55413)" fill-opacity="1" style="mix-blend-mode:passthrough"/></g></g><g><path d="M27.920554161071777,156.79180011914062L28.468103231071776,156.97136111914062L29.922322761071776,157.35265711914062L30.868894061071778,157.53443711914062L31.995027561071776,157.68739611914063L33.16106076107178,157.76276011914064L34.40468356107178,157.73393911914062L35.231547861071775,157.6452781191406L36.04954716107178,157.48566011914062L36.86089606107178,157.2506801191406L37.64120866107178,156.93368011914063L38.38161716107177,156.51470111914062L39.08656016107177,155.99375811914064L39.71169516107177,155.37970111914063L40.28141416107178,154.62600211914062L40.79127516107178,153.71710511914063L41.09054516107177,153.00552181914063L41.34325816107177,152.18752481914063L41.54720616107178,151.25202891914063L41.69129516107178,150.17910671914063L42.11470416107178,148.69385151914062L42.551411161071776,147.51451301914062L42.99477316107178,146.59675571914062L43.53123416107178,145.72333761914064L44.041097161071775,145.06495561914062L44.51992716107178,144.58390081914064L45.06082416107178,144.16493653914063L45.54408716107177,143.87675571914062L45.97193216107178,143.69718220914064L46.61701716107178,143.52871704114062L47.05816016107178,143.49102175014062L47.48600316107178,143.51984118714063L47.00938916107178,143.47329711914062L46.51504616107178,143.48659735714062L45.80123816107178,143.59965616914062L45.31354016107178,143.73487752914062L44.777076161071776,143.96098154914063L44.18297316107178,144.29129564914064L43.637644161071776,144.68809721914062L43.07014016107178,145.23121531914063L42.48490516107178,145.94501731914062L41.98834716107178,146.72089601914064L41.50065116107178,147.7118110191406L41.032907161071776,148.95986841914063L39.824751161071774,148.73375081914062L38.72965616107177,148.60739231914062L37.734314961071775,148.56749101914062L36.82985976107177,148.60961151914063L35.61727236107178,148.78030921914063L34.546557861071776,149.05518961914063L33.608854761071775,149.42317151914062L32.711051961071774,149.8953509191406L31.924087961071777,150.42073011914061L31.239098561071778,150.9948864191406L30.605094661071778,151.63554481914062L30.06419756107178,152.2784061191406L29.605320961071776,152.92350291914062L29.013434961071777,153.92326711914063L28.59002769107178,154.80334211914064L28.257508131071777,155.64128311914064L28.069080801071777,156.22652011914062L27.920554161071777,156.79180011914062Z" fill="url(#master_svg7_376_55422)" fill-opacity="1" style="mix-blend-mode:passthrough"/></g><g><path d="M157.41470432281494,174.4264160830078L157.94008392281495,174.5461180830078L159.29898102281493,174.74783908300782L160.16797492281495,174.8054780830078L161.16331362281494,174.79661708300782L162.17195372281495,174.69021408300782L163.19389442281494,174.4552230830078L163.85228822281493,174.2158160830078L164.47520832281495,173.8943780830078L165.06486992281495,173.4864806830078L165.58582592281493,172.9987973830078L166.04690842281494,172.39360328300782L166.44372372281495,171.6576242830078L166.66318512281495,171.07904288300782L166.83388232281493,170.4073619830078L166.94914822281493,169.6292638830078L167.00014212281494,168.7292446830078L167.21738432281495,167.62306548300782L167.46122632281495,166.73855258300782L167.72502632281493,166.04248878300783L168.05976432281494,165.37523038300782L168.38784532281494,164.8631509830078L168.70706432281494,164.4818550330078L169.24353732281494,164.01189536300782L169.70684032281494,163.7436715930078L170.16572032281493,163.5818362760078L170.48271932281494,163.5241973987078L170.79529732281495,163.51755404450782L170.44725732281495,163.5153350830078L170.08813732281493,163.5574547570078L169.57384032281493,163.68603274300781L169.04624132281495,163.9054934430078L168.44326532281494,164.2934328330078L168.07084432281493,164.61708998300782L167.69398732281493,165.0493547830078L167.31492332281493,165.6035539830078L167.00014212281494,166.19987298300782L166.70752332281495,166.9513697830078L166.44594292281494,167.88686558300782L165.40626622281493,167.7959689830078L164.48185202281493,167.78932528300783L163.66607142281495,167.85804608300782L162.94339462281494,167.99326758300782L161.98131272281495,168.2858853830078L161.16775222281495,168.6560878830078L160.47389362281496,169.09722758300782L159.83767442281493,169.62482638300781L159.30563792281495,170.1745867830078L158.86671662281495,170.7465247830078L158.31694191281494,171.6576242830078L157.94008392281495,172.48892308300782L157.66298440281494,173.29362198300782L157.51446284381495,173.8655590830078L157.41470432281494,174.4264160830078Z" fill="url(#master_svg8_376_55422)" fill-opacity="1" style="mix-blend-mode:passthrough"/></g><g><path d="M39.05108741307373,61.21683521972656L38.25303981307373,61.15920021972656L37.50598101307373,60.99959421972656L36.79660651307373,60.74022721972656L36.12491771307373,60.38775621972656L35.51307961307373,59.95769721972656L34.95666501307373,59.44339821972656L34.46675141307373,58.862595219726565L34.05442720307373,58.224157219726564L33.71525770307373,57.521437219726565L33.46919308307373,56.78102921972656L33.31623361607373,55.998495219726564L33.26081371307373,55.167195219726565L33.31623361607373,54.33589521972657L33.46919308307373,53.55337141972656L33.71525770307373,52.810742419726566L34.05442720307373,52.10801891972656L34.46675141307373,51.469580219726566L34.95666501307373,50.88877871972656L35.51307961307373,50.37669941972656L36.12491771307373,49.94442511972656L36.79660651307373,49.59195661972656L37.50598101307373,49.33258771972656L38.25303981307373,49.17519811972656L39.05108741307373,49.11756131972656L39.78484631307373,49.164112519726565L40.49865531307373,49.308202719726566L41.19694571307373,49.54761741972656L41.18142941307373,49.11756131972656L41.20581391307373,48.47690391972656L41.30335521307373,47.860634319726564L41.46961401307373,47.26431921972656L41.70237441307373,46.69238521972656L41.99720861307373,46.155920519726564L42.35189911307373,45.65270671972656L42.75978751307373,45.196047219726566L43.22309681307373,44.79037321972656L43.74182871307373,44.433468579726565L44.29824471307373,44.14528434972656L44.86795871307373,43.93025478972656L45.45984971307373,43.78616433572656L46.06059671307373,43.71522521972656L46.65913071307373,43.71522521972656L47.26210071307373,43.78616433572656L47.85176871307373,43.93025478972656L48.42369971307373,44.14528434972656L48.97790071307373,44.433468579726565L49.49662871307373,44.79037321972656L49.957720713073726,45.196047219726566L50.370051713073735,45.65270671972656L50.72473671307373,46.155920519726564L51.01735371307373,46.69238521972656L51.250117713073735,47.26431921972656L51.416378713073726,47.860634319726564L51.513916713073726,48.47690391972656L51.54051671307373,49.11756131972656L51.496186713073726,49.81585071972656L51.36982071307373,50.49640701972656L51.15701371307373,51.16366341972656L51.779932713073734,50.82892561972656L52.438324713073726,50.58729551972656L53.12109271307373,50.43876981972656L53.82382071307373,50.390000819726566L54.53762871307373,50.45650481972656L55.20931871307373,50.60724541972656L55.843319713073726,50.846660119726565L56.446285713073735,51.16809941972656L56.99384071307373,51.55603791972656L57.49040171307373,52.01491161972656L57.92710971307373,52.53142741972656L58.29509471307373,53.10114191972656L58.59657771307373,53.721846219726565L58.81604671307373,54.378015219726564L58.951266713073736,55.069663219726564L59.00003571307373,55.80342021972656L58.951266713073736,56.53718121972656L58.81604671307373,57.22882221972657L58.59657771307373,57.88499021972656L58.29509471307373,58.505697219726564L57.92710971307373,59.07540821972656L57.49040171307373,59.591924219726565L56.99384071307373,60.05080221972656L56.446285713073735,60.43874321972656L55.843319713073726,60.76017721972656L55.20931871307373,60.99959421972656L54.53762871307373,61.150335219726564L53.82382071307373,61.21683521972656L39.05108741307373,61.21683521972656Z" fill="url(#master_svg9_376_55399)" fill-opacity="0.20000000298023224" style="mix-blend-mode:passthrough"/></g></g></g><g><g><g><path d="M145.14031026416015,38.38604889765625C145.14031026416015,38.38604889765625,130.21241286416014,32.22556879765625,128.47665786416016,45.67265799765625C125.99384356416016,54.559793097656254,121.30753326416016,53.35608109765625,121.30753326416016,53.35608109765625C121.30753326416016,53.35608109765625,126.53031826416016,54.65955709765625,129.21041536416016,47.153481097656254C142.25183126416016,50.59173209765625,145.14031026416015,38.38604889765625,145.14031026416015,38.38604889765625Z" fill="url(#master_svga_376_55391)" fill-opacity="1" style="mix-blend-mode:passthrough"/></g></g><g><path d="M126.82852191308594,57.64212051188965Q127.14247491308593,56.90466281188965,127.44693391308593,56.11913317188965Q127.50443991308595,55.97075739188965,127.50079391308594,55.81166873888965Q127.49714291308594,55.652580081889646,127.43288791308593,55.506998571889646Q127.36863691308594,55.361418251889646,127.25356291308594,55.25150806188965Q127.13848891308594,55.14159787188965,126.99011591308593,55.084090471889645Q126.84174391308593,55.026582721889646,126.68265491308594,55.03023338188965Q126.52356691308594,55.033884171889646,126.37798291308593,55.09813773188965Q126.23240291308593,55.16239095188965,126.12248991308593,55.27746427188965Q126.01258091308594,55.39253768188965,125.95507391308594,55.540912451889646Q125.66009491308594,56.30198186188965,125.35638091308593,57.01539101188965Q125.29405191308594,57.161805411889645,125.29248791308594,57.320927811889646Q125.29093191308593,57.480050611889645,125.35038391308593,57.62765631188965Q125.40983591308594,57.77526161188965,125.52125191308593,57.88887881188965Q125.63266791308594,58.002495811889645,125.77908291308594,58.06482791188965Q125.85157791308595,58.09569171188965,125.92870291308594,58.11181881188965Q126.00582891308594,58.12794591188965,126.08461791308594,58.12871721188965Q126.16340591308594,58.12948821188965,126.24082991308595,58.11487341188965Q126.31825991308594,58.100258811889645,126.39134591308593,58.07081981188965Q126.46443191308595,58.04138091188965,126.53037291308594,57.998248811889646Q126.59630991308595,57.95511671188965,126.65256891308593,57.89994931188965Q126.70882391308594,57.84478211188965,126.75324291308593,57.77969971188965Q126.79765291308594,57.714617211889646,126.82852191308594,57.64212051188965ZM123.91346391308593,63.186017011889646Q124.74491491308594,61.92030521188965,125.50221591308593,60.464549111889646Q125.53857791308593,60.394647611889646,125.56060791308593,60.31899641188965Q125.58263391308594,60.24334481188965,125.58947791308594,60.16484971188965Q125.59632091308595,60.08635421188965,125.58772291308594,60.00803181188965Q125.57912491308593,59.92970941188965,125.55540891308594,59.85457041188965Q125.53169291308595,59.77943061188965,125.49377491308593,59.710361011889646Q125.45585591308594,59.64129181188965,125.40518991308593,59.58094691188965Q125.35452691308595,59.520602211889646,125.29306391308594,59.47130131188965Q125.23160191308594,59.42200041188965,125.16170091308594,59.38563751188965Q125.02053091308593,59.31219911188965,124.86199991308594,59.298374911889645Q124.70347191308593,59.28455041188965,124.55171991308595,59.33244471188965Q124.39997091308594,59.38033891188965,124.27809891308594,59.48265981188965Q124.15623091308593,59.58498071188965,124.08278991308595,59.72615071188965Q123.36300291308594,61.10979791188965,122.57619091308594,62.30755281188965Q122.53292891308594,62.37340781188965,122.50334591308594,62.44643691188965Q122.47376291308593,62.51946591188965,122.45899591308594,62.59686281188965Q122.44422891308594,62.67426011188965,122.44484691308594,62.75305081188965Q122.44546491308594,62.83184151188965,122.46144491308593,62.90899801188965Q122.47741691308593,62.98615411188965,122.50814091308594,63.05871061188965Q122.53886391308595,63.13126751188965,122.58314891308594,63.19643691188965Q122.62743791308594,63.26160621188965,122.68358591308593,63.31688361188965Q122.73973891308594,63.37216091188965,122.80559491308594,63.41542151188965Q122.93859891308594,63.502791411889646,123.09490991308593,63.53261231188965Q123.25122091308594,63.56243321188965,123.40704391308594,63.53016571188965Q123.56286591308594,63.49789901188965,123.69448091308594,63.408457711889646Q123.82609591308594,63.31901641188965,123.91346391308593,63.186017011889646ZM119.79785891308595,68.02021981188965Q120.99763891308594,66.92322581188965,122.01041791308594,65.73260311188965Q122.11352191308595,65.61139301188965,122.16239191308594,65.45995421188965Q122.21126591308594,65.30851551188965,122.19846391308593,65.14990141188964Q122.18566091308594,64.99128821188965,122.11313591308594,64.84964661188965Q122.04061091308594,64.70800591188964,121.91939591308594,64.60490031188965Q121.79818691308594,64.50179581188965,121.64674391308594,64.45292471188965Q121.49530391308593,64.40405271188965,121.33668891308594,64.41685581188965Q121.17807391308594,64.42965891188965,121.03643391308594,64.50218491188964Q120.89479491308595,64.57471181188964,120.79169291308594,64.69592091188964Q119.84392691308594,65.81011391188964,118.71820091308594,66.83939981188965Q118.60075791308594,66.94677781188965,118.53334991308594,67.09092381188965Q118.46594191308594,67.23507081188964,118.45882991308594,67.39404181188965Q118.45171591308593,67.55301281188964,118.50597991308594,67.70260581188965Q118.56024191308595,67.85219881188965,118.66762191308594,67.96963881188965Q118.77500391308594,68.08707981188965,118.91915091308593,68.15448781188965Q119.06329691308594,68.22189681188965,119.22226491308594,68.22900981188965Q119.38123291308594,68.23612281188964,119.53082691308595,68.18185981188965Q119.68041791308593,68.12759781188964,119.79785891308595,68.02021981188965ZM104.98904991308594,68.51710381188965Q103.81812591308594,66.92529981188964,102.40839691308594,66.88895981188965Q102.32962991308594,66.88692981188964,102.25198091308593,66.90030481188965Q102.17432991308594,66.91367881188965,102.10078191308594,66.94194581188965Q102.02723291308594,66.97021281188965,101.96061191308594,67.01228481188964Q101.89399291308594,67.05435781188964,101.83686091308594,67.10861881188964Q101.77972791308594,67.16287881188964,101.73427991308594,67.22724381188965Q101.68882991308594,67.29160681188965,101.65681191308593,67.36360181188965Q101.62479291308594,67.43559681188965,101.60743491308594,67.51245381188964Q101.59007691308594,67.58931181188964,101.58804691308593,67.66807881188964Q101.58601591308593,67.74684481188964,101.59939091308594,67.82449481188965Q101.61276591308594,67.90214381188964,101.64103291308594,67.97569081188965Q101.66929991308594,68.04923881188965,101.71137191308594,68.11585981188965Q101.75344491308594,68.18247981188965,101.80770591308594,68.23961381188965Q101.86196591308594,68.29674481188965,101.92633091308593,68.34219481188964Q101.99069391308593,68.38764281188965,102.06268791308594,68.41966181188965Q102.13468191308594,68.45168081188964,102.21153991308594,68.46903781188965Q102.28839791308593,68.48639681188965,102.36716591308594,68.48842781188965Q102.99357691308593,68.50457581188965,103.70019291308594,69.46518181188965Q103.90027791308594,69.73741881188965,104.06413891308594,70.01415581188965Q104.10428291308594,70.08195281188965,104.15688291308594,70.14061781188965Q104.20948391308593,70.19928181188965,104.27251891308593,70.24655581188965Q104.33555391308593,70.29383081188965,104.40659991308594,70.32789981188965Q104.47764791308593,70.36197081188965,104.55397591308594,70.38152481188965Q104.63030291308594,70.40107881188965,104.70898091308594,70.40536681188965Q104.78765691308594,70.40965481188965,104.86565791308594,70.39851081188965Q104.94365891308594,70.38736681188965,105.01798591308594,70.36122181188965Q105.09231591308594,70.33507481188965,105.16011591308595,70.29493081188964Q105.22791291308593,70.25478381188965,105.28657691308594,70.20218281188964Q105.34524191308594,70.14958181188965,105.39251691308594,70.08654781188964Q105.43979291308594,70.02351281188965,105.47386191308594,69.95246581188965Q105.50793291308594,69.88141981188964,105.52748691308594,69.80509181188965Q105.54704291308593,69.72876381188965,105.55132891308594,69.65008781188965Q105.55561591308594,69.57141081188965,105.54447191308594,69.49340981188965Q105.53332891308594,69.41540881188965,105.50718291308594,69.34107981188964Q105.48103691308594,69.26675181188965,105.44089091308594,69.19895381188965Q105.23656491308594,68.85387581188965,104.98904991308594,68.51710381188965ZM114.90249291308594,71.81092081188964Q116.45257791308595,70.72299281188965,117.37209291308594,70.02557981188966Q117.43487191308594,69.97796481188965,117.48715391308593,69.91901581188965Q117.53943591308594,69.86006781188965,117.57921391308594,69.79205181188965Q117.61899191308594,69.72403681188965,117.64473691308594,69.64956881188965Q117.67048291308593,69.57510081188966,117.68120591308593,69.49704181188964Q117.69192691308594,69.41898181188965,117.68721391308594,69.34032781188965Q117.68250291308594,69.26167681188964,117.66253691308594,69.18545581188965Q117.64257091308593,69.10923381188965,117.60811791308593,69.03837281188964Q117.57366591308593,68.96751181188965,117.52605291308593,68.90473381188966Q117.47843591308595,68.84195481188965,117.41948691308593,68.78967081188965Q117.36053891308593,68.73738781188965,117.29252391308594,68.69760881188965Q117.22450991308594,68.65782981188966,117.15003991308593,68.63208481188965Q117.07557291308594,68.60634081188965,116.99751291308594,68.59561781188965Q116.91945291308593,68.58489581188965,116.84080091308594,68.58960681188965Q116.76214991308593,68.59431981188965,116.68592791308593,68.61428681188966Q116.60970691308594,68.63425281188965,116.53884491308594,68.66870481188965Q116.46798291308593,68.70315981188965,116.40520691308593,68.75077481188964Q115.50924491308594,69.43032481188965,113.98332791308593,70.50129081188965Q113.85307691308594,70.59270681188966,113.76772291308593,70.72700881188965Q113.68236891308594,70.86131081188965,113.65491091308594,71.01805381188964Q113.62744891308594,71.17479581188965,113.66206391308594,71.33011581188964Q113.69667591308594,71.48543681188966,113.78809591308594,71.61568881188965Q113.87951291308593,71.74593881188964,114.01381491308594,71.83129081188964Q114.14811691308594,71.91664281188964,114.30485691308594,71.94410281188965Q114.46160091308593,71.97156381188965,114.61692091308593,71.93695081188964Q114.77223991308594,71.90233781188965,114.90249291308594,71.81092081188964ZM99.49393891308594,69.46639481188964Q98.90045091308593,71.40283381188965,99.75357591308594,73.09101281188964Q99.82534791308593,73.23303581188965,99.94600691308594,73.33678281188965Q100.06666591308594,73.44053081188964,100.21784391308594,73.49020781188965Q100.36902191308593,73.53988481188965,100.52770091308594,73.52792581188965Q100.68638091308594,73.51596681188965,100.82840591308593,73.44419481188964Q100.89872891308593,73.40865481188965,100.96076791308593,73.36008081188965Q101.02280691308593,73.31150581188965,101.07417791308593,73.25176081188965Q101.12554791308594,73.19201681188964,101.16427591308593,73.12339981188964Q101.20300491308593,73.05478081188966,101.22760191308593,72.97992481188965Q101.25219891308593,72.90506981188965,101.26171991308594,72.82685281188965Q101.27123991308594,72.74863581188964,101.26531991308593,72.67006681188965Q101.25939791308593,72.59149781188965,101.23826191308594,72.51559281188965Q101.21712691308593,72.43968781188966,101.18158891308593,72.36936381188966Q100.61892591308595,71.25595681188965,101.02370391308594,69.93524381188965Q101.04679191308594,69.85990781188966,101.05473991308594,69.78151581188965Q101.06268791308594,69.70312381188965,101.05518991308594,69.62468781188964Q101.04769091308594,69.54625181188965,101.02503591308594,69.47078581188964Q101.00237991308593,69.39532081188965,100.96543691308594,69.32572581188965Q100.92849391308593,69.25612881188965,100.87868191308594,69.19507781188965Q100.82887191308593,69.13402581188964,100.76810791308594,69.08386481188965Q100.70734391308594,69.03370481188965,100.63796091308593,68.99636281188965Q100.56857891308594,68.95902081188964,100.49324491308593,68.93593281188964Q100.34110091308594,68.88930281188965,100.18269391308594,68.90444581188964Q100.02428591308593,68.91958781188964,99.88373191308594,68.99419881188965Q99.74317791308593,69.06881181188965,99.64187391308593,69.19152981188965Q99.54056991308593,69.31425081188965,99.49393891308594,69.46639481188964ZM106.16107391308594,73.98817681188964Q106.36049091308594,73.28576481188965,106.37523991308593,72.54496181188965Q106.37840891308593,72.38586381188965,106.32044991308594,72.23766481188964Q106.26249291308594,72.08946581188965,106.15223291308594,71.97472581188964Q106.04197491308594,71.85998681188966,105.89619791308594,71.79617481188964Q105.75042391308594,71.73236481188965,105.59132391308594,71.72919681188965Q105.43222791308594,71.72602981188965,105.28402691308594,71.78398681188965Q105.13582791308593,71.84194581188964,105.02108791308594,71.95220381188965Q104.90634491308595,72.06246381188964,104.84253491308594,72.20823881188964Q104.77872391308594,72.35401381188964,104.77555791308593,72.51311281188964Q104.76006391308594,73.29128981188964,104.45585191308594,74.02138881188965Q103.70185591308594,73.99965481188966,103.08579491308593,73.82626381188965Q103.00994791308594,73.80491681188965,102.93139391308594,73.79877681188965Q102.85283991308594,73.79263481188966,102.77459691308594,73.80193681188965Q102.69635591308594,73.81124081188965,102.62143191308594,73.83563081188964Q102.54650891308594,73.86001781188965,102.47778291308593,73.89855581188965Q102.40905691308593,73.93709181188964,102.34916891308593,73.98829681188965Q102.28928191308594,74.03949881188964,102.24053391308594,74.10140381188965Q102.19178691308593,74.16330681188964,102.15605391308594,74.23353181188965Q102.12031991308594,74.30375681188966,102.09897391308594,74.37960481188965Q102.07762591308594,74.45544981188965,102.07148691308593,74.53400181188965Q102.06534591308593,74.61255681188965,102.07464891308594,74.69079781188965Q102.08395191308594,74.76904081188965,102.10833991308594,74.84396381188965Q102.13272891308594,74.91888581188965,102.17126691308593,74.98761381188964Q102.20980291308594,75.05633881188965,102.26100691308594,75.11622581188965Q102.31221191308593,75.17611481188965,102.37411491308593,75.22486081188964Q102.43601991308594,75.27360881188964,102.50624491308594,75.30934381188965Q102.57646991308593,75.34507781188965,102.65231491308595,75.36642481188964Q103.19832091308594,75.52009981188965,103.81266791308593,75.58217081188965Q103.84504691308594,75.72827381188965,103.92805091308594,75.85279481188965Q104.01105391308593,75.97731181188965,104.13345591308594,76.06340781188965Q104.19790291308594,76.10873581188964,104.26995391308594,76.14062281188964Q104.34200691308594,76.17250981188965,104.41889591308593,76.18972781188965Q104.49578491308594,76.20694581188965,104.57455491308593,76.20883181188965Q104.65332591308594,76.21071781188965,104.73095091308593,76.19720281188965Q104.80857591308593,76.18368481188965,104.88207291308593,76.15528481188964Q104.95556791308593,76.12688281188964,105.02211191308594,76.08468981188965Q105.08865391308593,76.04249781188965,105.14568691308594,75.98813281188964Q105.20272091308594,75.93376781188965,105.24805491308594,75.86932181188965Q105.34357491308594,75.73352281188966,105.43102791308594,75.59600781188965Q105.71079091308593,75.57564781188965,106.00154691308595,75.54058881188965Q106.15953291308594,75.52153981188965,106.29820291308593,75.44348181188965Q106.43687091308594,75.36542281188964,106.53511191308594,75.24023981188965Q106.63335391308594,75.11505681188964,106.67621191308594,74.96180681188964Q106.71907091308594,74.80855781188964,106.70002191308593,74.65057181188965Q106.68097291308594,74.49258581188965,106.60291491308594,74.35391781188964Q106.52485691308594,74.21524581188964,106.39967191308594,74.11700481188964Q106.29145091308594,74.03207381188965,106.16107391308594,73.98817681188964ZM109.19514291308593,74.81364981188965Q110.59193791308594,74.36869581188965,112.15100291308593,73.68187481188966Q112.22310791308594,73.65010881188965,112.28762991308594,73.60488481188965Q112.35215391308594,73.55966381188965,112.40661591308594,73.50272181188964Q112.46107891308594,73.44577981188965,112.50338391308594,73.37930881188964Q112.54569091308593,73.31283781188965,112.57421691308593,73.23938981188965Q112.60274091308594,73.16594081188964,112.61638991308594,73.08833881188966Q112.63003691308595,73.01073681188964,112.62828491308593,72.93196281188965Q112.62653191308594,72.85318981188965,112.60944591308593,72.77627181188964Q112.59235791308593,72.69935381188965,112.56059291308594,72.62724881188964Q112.49644091308593,72.48162281188965,112.38144091308594,72.37163381188965Q112.26644491308593,72.26164281188964,112.11810891308593,72.20403281188965Q111.96977091308594,72.14642181188965,111.81067891308594,72.14996381188965Q111.65158891308593,72.15350381188965,111.50596591308593,72.21765881188965Q110.02497891308593,72.87008481188965,108.70950291308594,73.28913481188965Q108.55787991308594,73.33743481188965,108.43628091308594,73.44008081188964Q108.31468391308593,73.54272681188965,108.24162491308594,73.68409381188965Q108.16856391308593,73.82545881188965,108.15516491308594,73.98402381188964Q108.14176591308593,74.14258781188965,108.19006491308593,74.29421281188965Q108.23836691308594,74.44583681188965,108.34101291308593,74.56743381188966Q108.44366091308594,74.68903181188965,108.58502591308594,74.76209081188965Q108.72639291308593,74.83514981188965,108.88495591308595,74.84855081188965Q109.04352191308594,74.86194981188964,109.19514291308593,74.81364981188965ZM99.72045191308594,79.45437281188964Q101.40444991308594,78.97981081188965,102.74941491308594,78.15432781188964Q102.88503791308594,78.07108881188965,102.97848391308594,77.94228581188965Q103.07192891308594,77.81347881188965,103.10896891308593,77.65871781188964Q103.14600991308593,77.50396181188965,103.12100591308594,77.34680981188964Q103.09600391308594,77.18965681188965,103.01276391308593,77.05403281188964Q102.97154791308594,76.98687981188965,102.91802191308594,76.92905581188964Q102.86449591308593,76.87123281188966,102.80071891308594,76.82496281188965Q102.73694191308594,76.77869381188965,102.66536291308594,76.74575581188965Q102.59378491308594,76.71281981188964,102.51715691308594,76.69447881188965Q102.44052691308593,76.67613781188965,102.36179191308594,76.67309781188965Q102.28305691308594,76.67005881188965,102.20524291308594,76.68243981188965Q102.12742791308594,76.69481881188965,102.05352491308594,76.72214281188965Q101.97962191308594,76.74946581188965,101.91246891308595,76.79068381188965Q100.75674391308594,77.50002081188964,99.28646591308593,77.91435281188964Q99.21062691308593,77.93572381188964,99.14041291308594,77.97147981188965Q99.07019991308594,78.00723681188964,99.00831191308593,78.05600381188965Q98.94642491308593,78.10477281188965,98.89524091308594,78.16467681188965Q98.84405591308594,78.22458081188965,98.80554201308594,78.29331981188965Q98.76702691308594,78.36205881188965,98.74266341308594,78.43698881188965Q98.71829991308594,78.51191881188964,98.70902251308594,78.59016581188965Q98.69974521308593,78.66841081188964,98.70591161308593,78.74696581188965Q98.71207811308594,78.82551781188965,98.73344991308593,78.90135781188965Q98.75482181308594,78.97719781188965,98.79057791308594,79.04740881188965Q98.82633391308593,79.11762081188965,98.87510191308594,79.17950781188965Q98.92386991308594,79.24139581188965,98.98377391308594,79.29257981188965Q99.04367791308594,79.34376381188964,99.11241691308594,79.38227881188965Q99.18115591308595,79.42079381188965,99.25608691308594,79.44515581188965Q99.33101891308594,79.46952081188965,99.40926391308594,79.47879781188965Q99.48750891308593,79.48807481188965,99.56606091308593,79.48190881188965Q99.64461291308594,79.47574381188966,99.72045191308594,79.45437281188964ZM88.56580458308594,78.92629081188964Q89.36846935308594,79.18277781188965,90.16693071308593,79.38066881188965Q90.32138731308594,79.41895081188964,90.47873591308594,79.39520981188966Q90.63608441308594,79.37146981188965,90.77237011308594,79.28931781188965Q90.90865631308594,79.20716881188964,91.00313111308594,79.07911881188966Q91.09760621308594,78.95106681188965,91.13588671308594,78.79660981188965Q91.15484091308593,78.72012881188965,91.15851111308594,78.64142181188964Q91.16218091308593,78.56271381188965,91.15042541308594,78.48480181188965Q91.13867001308594,78.40689081188965,91.11194061308593,78.33276981188965Q91.08521131308594,78.25864981188965,91.04453511308594,78.19116781188964Q91.00385901308594,78.12368581188964,90.95079951308594,78.06543581188964Q90.89773991308594,78.00718481188964,90.83433581308594,77.96040581188964Q90.77093171308594,77.91362581188964,90.69962001308593,77.88011381188964Q90.62830821308594,77.84660481188965,90.55182901308594,77.82765181188965Q89.80490404308594,77.64253581188964,89.05281724308594,77.40220981188965Q88.90123835208594,77.35377281188966,88.74266195308594,77.36703081188965Q88.58408554308593,77.38028881188964,88.44265335308594,77.45321881188966Q88.30122071308594,77.52615181188965,88.19846421308594,77.64765781188964Q88.09570777308593,77.76916281188964,88.04727125308594,77.92074381188965Q88.02328801308593,77.99579781188964,88.01440799308594,78.07408681188966Q88.00552791308594,78.15237581188964,88.01209235308593,78.23089581188965Q88.01865673308593,78.30941581188965,88.04041338308593,78.38514481188965Q88.06216991308594,78.46087481188965,88.09828257308594,78.53090681188965Q88.13439536308594,78.60093681188965,88.18347633308593,78.66257681188965Q88.23255741308594,78.72421481188965,88.29272055308594,78.77509481188964Q88.35288369308594,78.82597581188965,88.42181700308593,78.86414181188965Q88.49075025308593,78.90230781188964,88.56580458308594,78.92629081188964ZM93.27342461308594,79.92832781188964Q94.93151761308593,80.09906981188965,96.50013681308593,79.99529881188965Q96.57875731308593,79.99009681188966,96.65485291308593,79.96965581188965Q96.73094891308594,79.94921681188964,96.80159471308593,79.91432381188964Q96.87224101308594,79.87943081188965,96.93472291308593,79.83142681188966Q96.99720381308593,79.78342481188965,97.04912091308594,79.72415381188965Q97.10103611308594,79.66488081188965,97.14039041308594,79.59662081188965Q97.17974571308594,79.52836081188966,97.20502761308593,79.45373381188965Q97.23030951308594,79.37910681188964,97.24054721308593,79.30098181188964Q97.25078391308594,79.22285681188964,97.24558351308593,79.14423581188964Q97.24038221308594,79.06561281188965,97.21994211308593,78.98951481188965Q97.19950291308594,78.91341981188965,97.16460991308594,78.84277581188965Q97.12971691308594,78.77212881188964,97.08171271308593,78.70964781188965Q97.03370861308593,78.64716481188965,96.97443771308593,78.59525081188966Q96.91516681308593,78.54333281188966,96.84690571308593,78.50397881188965Q96.77864451308594,78.46462481188965,96.70401761308594,78.43934281188965Q96.62939071308594,78.41406081188964,96.55126571308594,78.40382381188965Q96.47314071308594,78.39358681188965,96.39451981308594,78.39878881188964Q94.96088031308594,78.49363181188966,93.43731691308594,78.33674281188965Q93.35893821308593,78.32867081188965,93.28049091308594,78.33604581188965Q93.20204351308594,78.34341981188965,93.12654261308593,78.36595681188965Q93.05104161308594,78.38849481188964,92.98138811308594,78.42533081188965Q92.91173461308594,78.46216381188965,92.85060601308594,78.51188081188965Q92.78947641308594,78.56159381188965,92.73922061308593,78.62227981188965Q92.68896481308593,78.68296581188964,92.65151401308594,78.75228881188966Q92.61406351308594,78.82161181188965,92.59085681308594,78.89690981188966Q92.56765011308593,78.97220981188966,92.55957911308593,79.05059081188965Q92.54327871308594,79.20888181188965,92.58879521308594,79.36136281188965Q92.63431171308594,79.51384381188964,92.73471591308594,79.63730081188965Q92.83511971308593,79.76075581188965,92.97512531308594,79.83639181188965Q93.11513141308593,79.91202781188964,93.27342461308594,79.92832781188964Z" fill-rule="evenodd" fill="#BCC2C9" fill-opacity="1" style="mix-blend-mode:passthrough"/></g></g></g></g></svg>