<svg xmlns="http://www.w3.org/2000/svg" xmlns:xlink="http://www.w3.org/1999/xlink" fill="none" version="1.1" width="28" height="28" viewBox="0 0 28 28"><defs><clipPath id="master_svg0_342_67719"><rect x="0" y="0" width="28.000001907348633" height="28.000001907348633" rx="0"/></clipPath></defs><g><g clip-path="url(#master_svg0_342_67719)"><g><path d="M18.0253066875,17.18086884765625L9.8735074875,17.18086884765625C9.4232916875,17.18086884765625,9.0583338875,17.54582584765625,9.0583338875,17.99603884765625C9.0583338875,18.44625684765625,9.4232916875,18.81123884765625,9.8735074875,18.81123884765625L18.0253066875,18.81123884765625C18.4754356875,18.81123884765625,18.8404746875,18.44628284765625,18.8404746875,17.99606884765625C18.8404746875,17.54585284765625,18.4754656875,17.18086884765625,18.0253066875,17.18086884765625ZM24.5467606875,6.58352804765625L21.2860446875,6.58352804765625L21.2860446875,3.3228148476562502C21.2860446875,2.42235719765625,20.5561346875,1.69244398117067,19.6556756875,1.69244398117067L8.2431354875,1.69244384765625C7.3426780875,1.69244384765625,6.6127638875,2.42235684765625,6.6127638875,3.32281444765625L6.6127638875,6.58352804765625L3.3520506875000002,6.58352804765625C2.4515929775,6.58352804765625,1.7216796875,7.31344174765625,1.7216796875,8.21389964765625L1.7216796875,16.365696847656253C1.7216796875,17.26615584765625,2.4515929775,17.99606884765625,3.3520506875000002,17.99606884765625L5.7975930875,17.99606884765625L5.7975930875,24.51749584765625C5.7975930875,25.41786984765625,6.5275053875,26.14786884765625,7.4279632875,26.14786884765625L20.4708476875,26.14786884765625C21.3713036875,26.14786884765625,22.1012176875,25.41786984765625,22.1012176875,24.51749584765625L22.1012176875,17.99606884765625L24.5467606875,17.99606884765625C25.4472156875,17.99606884765625,26.1771316875,17.26615584765625,26.1771316875,16.365696847656253L26.1771316875,8.21389964765625C26.1771316875,7.31344174765625,25.4472156875,6.58352804765625,24.5467606875,6.58352804765625ZM8.2431354875,4.13798594765625C8.2431354875,3.68777094765625,8.608091787500001,3.32281444765625,9.058307187499999,3.32281444765625L18.8404746875,3.32281444765625C19.2906076875,3.32281444765625,19.6556476875,3.68777094765625,19.6556476875,4.13798594765625L19.6556476875,6.58352804765625L8.2431354875,6.58352804765625L8.2431354875,4.13798594765625ZM20.4708476875,23.70232384765625C20.4708476875,24.15253784765625,20.1058046875,24.51749384765625,19.6556756875,24.51749384765625L8.2431354875,24.51749584765625C7.7929205875,24.51749584765625,7.4279632875,24.15253784765625,7.4279632875,23.70232584765625L7.4279632875,15.55052584765625C7.4279632875,15.10030984765625,7.7929205875,14.73535284765625,8.2431354875,14.73535284765625L19.6556756875,14.73535584765625C20.1058086875,14.73535584765625,20.4708476875,15.10030984765625,20.4708476875,15.55052584765625L20.4708476875,23.70232384765625ZM24.5467606875,15.55052584765625C24.5467606875,16.00073784765625,24.1817206875,16.365696847656253,23.7315906875,16.365696847656253L22.1012176875,16.365696847656253L22.1012176875,14.73532484765625C22.1012176875,13.83486784765625,21.3713036875,13.10495384765625,20.4708476875,13.10495384765625L7.4279632875,13.10495584765625C6.5275053875,13.10495584765625,5.7975930875,13.83486784765625,5.7975930875,14.73532484765625L5.7975930875,16.365696847656253L4.1672217875,16.365696847656253C3.7170072875,16.365696847656253,3.3520506875000002,16.00073784765625,3.3520506875000002,15.55052584765625L3.3520506875000002,9.029070347656251C3.3520506875000002,8.57885554765625,3.7170072875,8.21389964765625,4.1672217875,8.21389964765625L23.7315616875,8.21389964765625C24.1816936875,8.21389964765625,24.5467316875,8.57885554765625,24.5467316875,9.029070347656251L24.5467606875,15.55052584765625ZM22.1012176875,9.84424114765625C21.6510026875,9.84424114765625,21.2860446875,10.20919894765625,21.2860446875,10.65941334765625C21.2860446875,11.10962674765625,21.6510026875,11.47461224765625,22.1012176875,11.47461224765625C22.5513496875,11.47461224765625,22.9163876875,11.10965634765625,22.9163876875,10.65944194765625C22.9163876875,10.20922754765625,22.5513496875,9.84424114765625,22.1012176875,9.84424114765625ZM18.0253066875,20.44160984765625L9.8735074875,20.44160984765625C9.4232916875,20.44160984765625,9.0583338875,20.80656584765625,9.0583338875,21.25678084765625C9.0583338875,21.70699884765625,9.4232916875,22.07195484765625,9.8735074875,22.07195484765625L18.0253066875,22.07195484765625C18.4754356875,22.07195484765625,18.8404746875,21.70699884765625,18.8404746875,21.25678284765625C18.8404746875,20.80656984765625,18.4754656875,20.44160984765625,18.0253066875,20.44160984765625Z" fill="#0064FF" fill-opacity="1"/></g></g></g></svg>