<svg xmlns="http://www.w3.org/2000/svg" xmlns:xlink="http://www.w3.org/1999/xlink" fill="none" version="1.1" width="12" height="12" viewBox="0 0 12 12"><defs><clipPath id="master_svg0_8_1391"><rect x="0" y="0" width="12" height="12" rx="0"/></clipPath></defs><g clip-path="url(#master_svg0_8_1391)"><g><path d="M5.336994640625,9.3147507L6.331494340625,9.3147507L6.331494340625,8.3210011L5.336994640625,8.3210011L5.336994640625,9.3155003L5.336994640625,9.3147507ZM6.862494940625,6.1992502C6.364494840625,6.5315003,6.132744740625,6.9289999,6.132744740625,7.36025L6.132744740625,7.6580005L5.336245040625,7.6580005L5.336245040625,7.2935009C5.303244640625,6.6965013,5.601745140625,6.1662507,6.131994740625,5.7680006C6.728994840625,5.3375006,7.027494940625,4.90625,6.960744840625,4.5080004C6.894744440625,3.9117506,6.563244340625,3.5802503,5.933244240625,3.5465004C5.203494540625,3.5135005,4.739994540625,3.9447505,4.574244540625,4.8402505L3.678744340625,4.6077504C3.944244640625,3.2817502,4.772994540625,2.6517503,6.098994740625,2.6847503C7.259994040625,2.7515004,7.856245040625,3.3147504,7.988993640625,4.4097509C8.021995040625,5.072,7.657494540625,5.6697507,6.861744440625,6.1992502L6.862494940625,6.1992502ZM5.999994740625,0.69500035C3.082494740625,0.69500035,0.695244490625,3.0822506,0.695244490625,5.9997506C0.695244490625,8.9172506,3.082494740625,11.305251,5.999994740625,11.305251C8.917494740625,11.305251,11.304746140625,8.9172506,11.304746140625,5.9997506C11.304746140625,3.0822506,8.917494740625,0.69500035,5.999994740625,0.69500035ZM5.999994740625,11.967501C2.717994640625,11.967501,0.03149450540545,9.2825003,0.03149450540545,5.9997506C0.03149450540545,2.7177505,2.717994640625,0.03125036478045,5.999994740625,0.03125036478045C9.281994840625,0.03125036478045,11.968495140625,2.7177505,11.968495140625,5.9997506C11.968495140625,9.2817507,9.281994840625,11.968251,5.999994740625,11.968251L5.999994740625,11.967501Z" fill="#999999" fill-opacity="1" style="mix-blend-mode:passthrough"/></g></g></svg>