<svg xmlns="http://www.w3.org/2000/svg" xmlns:xlink="http://www.w3.org/1999/xlink" fill="none" version="1.1" width="32" height="30.852294921875" viewBox="0 0 32 30.852294921875"><g><g><g><path d="M0.004389020614326,10.227295875549316L32.00000002061432,10.227295875549316L32.00000002061432,20.624709875549314L0.004389020614326,20.624709875549314L0.004389020614326,10.227295875549316Z" fill="#F95F5D" fill-opacity="1" style="mix-blend-mode:passthrough"/></g><g><path d="M31.999474,10.227472L31.999474,1.9427561C31.999474,0.91537416,31.080236,0,29.987194,0L2.0122781,0C0.91923648,0,0,0.91537416,0,1.9427561L0,10.227472L31.999474,10.227472Z" fill="#55C7F7" fill-opacity="1" style="mix-blend-mode:passthrough"/></g><g><path d="M0.004389020614326,20.624887466430664L0.004389020614326,28.909603166430664C0.004389020614326,29.936984966430664,0.915900920614326,30.852359466430663,2.001218020614326,30.852359466430663L30.003172020614326,30.852359466430663C31.088492020614325,30.852359466430663,32.00000002061432,29.936984966430664,32.00000002061432,28.909603166430664L32.00000002061432,20.624887466430664L0.004389020614326,20.624887466430664Z" fill="#7ECF3B" fill-opacity="1" style="mix-blend-mode:passthrough"/></g><g><path d="M12.513976097106934,0L19.655439897106934,0L19.655439897106934,30.852356L12.513976097106934,30.852356L12.513976097106934,0Z" fill="#FDAF42" fill-opacity="1" style="mix-blend-mode:passthrough"/></g><g><path d="M19.655263888134765,13.371240118847656L19.655263888134765,17.71250871884766L12.173914688134765,17.71250871884766L12.173914688134765,13.371240118847656L19.655263888134765,13.371240118847656ZM20.856450588134766,11.598426818847656L10.972727538134766,11.598426818847656C10.802784618134766,11.598426818847656,10.516971588134766,11.768369718847657,10.516971588134766,12.054182768847657L10.516971588134766,18.967768218847656C10.516971588134766,19.137711518847656,10.686914488134766,19.423524418847656,10.972727538134766,19.423524418847656L20.856450588134766,19.423524418847656C21.026393588134766,19.423524418847656,21.312207588134765,19.253582018847656,21.312207588134765,18.967768218847656L21.312207588134765,12.054182768847657C21.200199588134765,11.714296978847656,21.026393588134766,11.598426818847656,20.856450588134766,11.598426818847656Z" fill="#FFFFFF" fill-opacity="1" style="mix-blend-mode:passthrough"/></g></g></g></svg>