<svg xmlns="http://www.w3.org/2000/svg" xmlns:xlink="http://www.w3.org/1999/xlink" fill="none" version="1.1" width="38" height="38" viewBox="0 0 38 38"><defs><clipPath id="master_svg0_301_57224"><rect x="0" y="0" width="38" height="38" rx="0"/></clipPath></defs><g clip-path="url(#master_svg0_301_57224)"><path d="M29.93615115625,6.172284599999999L25.92866115625,6.172284599999999C25.62903615625,4.9363296,24.50544015625,4,23.19458015625,4L14.80506615625,4C13.49420455625,4,12.370609256249999,4.9363296,12.070983856249999,6.172284599999999L8.06349305625,6.172284599999999C6.41555285625,6.172284599999999,5.02978515625,7.5205994,5.02978515625,9.2059927L5.02978515625,30.966291C5.02978515625,32.614231000000004,6.37809965625,34,8.06349305625,34L29.93615315625,34C31.58409315625,34,32.93240715625,32.651686,32.93240715625,30.966291L32.93240715625,9.1685395C32.93240715625,7.5205994,31.58409315625,6.1722848,29.93615115625,6.172284599999999ZM14.39308075625,6.7715356C14.39308075625,6.5468166,14.58034705625,6.3595507,14.80506615625,6.3595507L23.19457815625,6.3595507C23.41929815625,6.3595507,23.60656315625,6.5468166,23.60656315625,6.7715356L23.60656315625,8.2696629C23.60656315625,8.4943819,23.41929815625,8.6816478,23.19457815625,8.6816478L14.80506615625,8.6816478C14.58034705625,8.6816478,14.39308075625,8.4943819,14.39308075625,8.2696629L14.39308075625,6.7715356ZM30.57285515625,30.928839C30.57285515625,31.303371,30.27322915625,31.565542,29.93615115625,31.565542L8.06349305625,31.565542C7.68896125625,31.565542,7.42678885625,31.265917,7.42678885625,30.928839L7.42678885625,9.1685395C7.42678885625,8.7940078,7.72641415625,8.5318356,8.06349305625,8.5318356L12.03353115625,8.5318356C12.14589115625,9.9550567,13.34439275625,11.0786524,14.80506705625,11.0786524L23.19458015625,11.0786524C24.65525415625,11.0786524,25.85375615625,9.955057100000001,25.96611615625,8.5318356L29.93615315625,8.5318356C30.31068615625,8.5318356,30.57285715625,8.831461000000001,30.57285715625,9.1685395L30.57285515625,30.928839Z" fill="#5D87FF" fill-opacity="1" style="mix-blend-mode:passthrough"/><path d="M21.546969382873534,25.64794061053467L19.000153582873537,24.63670441053467L16.453336682873534,25.64794061053467L16.640603082873536,22.913857410534668L14.880303382873535,20.77902701053467L17.539479282873536,20.10486891053467L19.000153582873537,17.782771110534668L20.460827782873537,20.10486891053467L23.120003682873538,20.77902701053467L21.359703982873533,22.913857410534668L21.546969382873534,25.64794061053467Z" fill="#FCE760" fill-opacity="1" style="mix-blend-mode:passthrough"/><path d="M21.958954875,18.007490155114745L19.843534475,14.687084055114745C19.450501475,14.070171235114746,18.549805175,14.070171235114746,18.156772175,14.687083955114746L16.041352275,18.007490155114745L12.205219075,19.000056255114746C11.497040625,19.183291455114748,11.218805195,20.039976155114747,11.684171735,20.604356755114747L14.206146275,23.662921555114746L13.965020375,27.601306555114746C13.920311475,28.331552555114747,14.649207575,28.861040555114748,15.329854475000001,28.592755555114746L19.000153575,27.146066555114746L22.670452875000002,28.592754555114745C23.351099875,28.861038555114746,24.079995875,28.331550555114745,24.035286875,27.601305555114745L23.794161875,23.662921555114746L26.316136874999998,20.604357255114746C26.781503875,20.039976555114748,26.503267875,19.183292355114745,25.795089875000002,19.000057255114747L21.958954875,18.007490155114745ZM21.546969875000002,25.647939555114746L19.000153575,24.636703555114746L16.453336675,25.647939555114746L16.640603075,22.913856555114748L14.880303375,20.779026055114745L17.539479274999998,20.104867955114745L19.000153575,17.782770155114747L20.460827875,20.104867955114745L23.120003875000002,20.779026055114745L21.359703875,22.913856555114748L21.546969875000002,25.647939555114746Z" fill="#5D87FF" fill-opacity="1" style="mix-blend-mode:passthrough"/></g></svg>