<svg xmlns="http://www.w3.org/2000/svg" xmlns:xlink="http://www.w3.org/1999/xlink" fill="none" version="1.1" width="24" height="24" viewBox="0 0 24 24"><defs><clipPath id="master_svg0_304_74410"><rect x="0" y="0" width="24" height="24" rx="0"/></clipPath></defs><g clip-path="url(#master_svg0_304_74410)"><g><g><path d="M18.3170609375,20.030114833129883L18.3170609375,13.784332833129882L14.1486939375,11.008582133129883L14.1486939375,20.030114833129883L14.5235769375,20.030114833129883C14.9444709375,20.030114833129883,15.2855189375,20.381986833129883,15.2855189375,20.815063833129884C15.2855189375,21.248140833129884,14.9444699375,21.600017833129883,14.5235769375,21.600017833129883L2.7844867075,21.600017833129883C2.3574624675,21.593339833129882,2.0165158161,21.242097833129883,2.022542148443,20.815063833129884C2.022542148443,20.381986833129883,2.3635901775,20.030114833129883,2.7844867675,20.030114833129883L3.1593691374999997,20.030114833129883L3.1593691374999997,6.856459133129883C3.1593691374999997,6.174363333129882,3.5843255375,5.5694091331298825,4.2149937375,5.359637733129883L12.1727809375,2.727343052129883C12.5557829375,2.6001267511298827,12.9712649375,2.636667602129883,13.3299089375,2.827492013129883C13.6871979375,3.019669833129883,13.9565169375,3.349890883129883,14.0769649375,3.7450734331298827C14.1243329375,3.8993569331298827,14.1486939375,4.060407433129883,14.1486939375,4.222811133129882L14.1486939375,9.211314233129883L14.1798219375,9.161239133129882L19.1372009375,12.463450433129882C19.5702759375,12.753069833129883,19.8328249375,13.251106833129883,19.8328249375,13.784332833129882L19.8328249375,20.030114833129883L20.2077099375,20.030114833129883C20.6286029375,20.030114833129883,20.9696539375,20.381986833129883,20.9696539375,20.815063833129884C20.9696539375,21.248140833129884,20.6286029375,21.600017833129883,20.2077099375,21.600017833129883L16.805350937500002,21.600017833129883C16.3783249375,21.593339833129882,16.0373769375,21.242097833129883,16.043405937499998,20.815063833129884C16.043405937499998,20.381986833129883,16.3844529375,20.030114833129883,16.805350937500002,20.030114833129883L18.3170609375,20.030114833129883ZM12.6329249375,20.030114833129883L12.6329249375,4.222811233129883L4.6751377375,6.856459133129883L4.6751377375,20.028756833129883L12.6329249375,20.028756833129883L12.6329249375,20.030114833129883ZM6.5698495375,9.036729833129883C6.5698495375,8.603652433129882,6.9108977375,8.251777633129883,7.3317933375,8.251777633129883L9.9762702375,8.251777633129883C10.3971643375,8.251777633129883,10.7382154375,8.603652433129882,10.7382154375,9.036728833129882C10.7382154375,9.469805733129883,10.3971643375,9.821681033129883,9.9762702375,9.821681033129883L7.3317933375,9.821681033129883C6.9047694375,9.815003833129882,6.5638237375,9.463762333129882,6.5698495375,9.036729833129883ZM6.5698495375,12.569012633129883C6.5698495375,12.135934833129882,6.9108977375,11.784060433129882,7.3317933375,11.784060433129882L9.9762702375,11.784060433129882C10.3971643375,11.784060433129882,10.7382154375,12.135934833129882,10.7382154375,12.569011733129884C10.7382154375,13.003440833129883,10.3971643375,13.355315833129882,9.9762702375,13.355315833129882L7.3317933375,13.355315833129882C6.9047689375,13.348638833129883,6.5638237375,12.997398833129882,6.5698490375,12.570365933129883L6.5698495375,12.569012633129883ZM6.5698495375,16.10400083312988C6.5698495375,15.670923833129883,6.9108977375,15.319047833129883,7.3317933375,15.319047833129883L9.9762702375,15.319047833129883C10.3971643375,15.319047833129883,10.7382154375,15.670923833129883,10.7382154375,16.10400083312988C10.7382154375,16.53707683312988,10.3971643375,16.88895183312988,9.9762702375,16.88895183312988L7.3317933375,16.88895183312988C7.1284790375,16.888463833129883,6.9340796375,16.805430833129883,6.7931532375,16.658880833129885C6.6496400375,16.50983683312988,6.5695805375,16.310905833129883,6.5698495375,16.10400083312988ZM14.9065779375,16.10400083312988C14.9065779375,15.670923833129883,15.2476249375,15.319047833129883,15.6685219375,15.319047833129883L16.4182839375,15.319047833129883C16.8391819375,15.319047833129883,17.1802289375,15.670923833129883,17.1802289375,16.10400083312988C17.1802289375,16.53707683312988,16.8391819375,16.88895183312988,16.4182839375,16.88895183312988L15.6685219375,16.88895183312988C15.4652089375,16.888463833129883,15.2708089375,16.805430833129883,15.1298829375,16.658880833129885C14.9863679375,16.50983683312988,14.9063099375,16.310905833129883,14.9065779375,16.10400083312988Z" fill="#5D87FF" fill-opacity="1" style="mix-blend-mode:passthrough"/></g></g></g></svg>