<svg xmlns="http://www.w3.org/2000/svg" xmlns:xlink="http://www.w3.org/1999/xlink" fill="none" version="1.1" width="20" height="20" viewBox="0 0 20 20"><defs><clipPath id="master_svg0_308_53223"><rect x="0" y="0" width="20" height="20" rx="0"/></clipPath></defs><g clip-path="url(#master_svg0_308_53223)"><path d="M15.548888,3.1244438L13.097776,3.1244438C12.763114,4.0344572,11.897375,4.6399884,10.927777,4.6422219L6.2255554,4.6422219C5.2561626,4.6393423,4.3907542,4.0340443,4.0555553,3.1244438L1.6044445,3.1244438L1.6044445,17.768885L7.7744446,17.768885C8.2174988,17.768885,8.5766668,18.128056,8.5766668,18.571108C8.5766668,19.014164,8.2174988,19.373333,7.7744446,19.373333L1.3211112,19.373333C0.59191525,19.373333,0.00061326864,18.782524,0,18.053333L0,2.8400002C0.00061259326,2.1106243,0.59173536,1.5195017,1.3211112,1.518889L4.0555553,1.518889C4.390655,0.60905772,5.255981,0.003373805,6.2255554,0L10.927778,0C11.924444,0,12.77,0.63555551,13.097778,1.5188888L15.832225,1.5188888C16.562223,1.5188888,17.153334,2.1099999,17.153334,2.8400002L17.153334,7.977777C16.689539,7.6225109,16.131664,7.4111834,15.548889,7.3700004L15.548888,3.1244438ZM10.927778,1.5188888L6.2255554,1.5188888C5.7830071,1.5201098,5.4245539,1.8785628,5.4233332,2.3211112C5.4233332,2.7622223,5.7844448,3.1244442,6.2255559,3.1244442L10.927778,3.1244442C11.370941,3.1232238,11.729892,2.7642736,11.731112,2.3211112C11.729889,1.87813,11.370761,1.5194993,10.927778,1.5188888ZM3.9311113,8.5022221C3.9311113,8.0177765,4.3288894,7.6211095,4.8133335,7.6211095L11.240001,7.6211095C11.724445,7.6211095,12.121112,8.0177765,12.121112,8.5022221C12.119894,8.9885206,11.726297,9.3826132,11.240001,9.3844442L4.813333,9.3844442C4.3268542,9.382616,3.9329388,8.9886999,3.9311113,8.5022221ZM3.9311113,13.089999C3.9311113,12.562222,4.3633332,12.13111,4.8899999,12.13111L8.9355564,12.13111C9.4622231,12.13111,9.8933334,12.562222,9.8933334,13.089999C9.8915081,13.618387,9.4639425,14.046451,8.9355564,14.048888L4.8899994,14.048888C4.3611803,14.047059,3.9329407,13.61882,3.9311113,13.089999Z" fill="#5D87FF" fill-opacity="1" style="mix-blend-mode:passthrough"/><g><path d="M12.102265655,17.9650049L19.032265625,17.9650049C19.257265525,17.9425049,19.234765525,18.010005,19.234765525,17.7625046L19.234765525,17.2000046C19.234765525,16.885005,19.167265425,16.8175049,18.852265325,16.8175049L17.502265425,16.8175049C17.322265625,16.6825047,17.299765625,16.5025048,17.254765525,16.4575047C16.467265125,15.5800052,16.917265425,14.9950051,17.412265825,14.1850047C17.502265425,14.072505,17.592265125,13.9600048,17.659765225,13.8250046C17.862265625,13.4650049,17.974765825,13.0600047,17.974765825,12.6100049C17.974765825,11.2150049,16.917500525,10,15.500000025,10C14.105000024999999,10,12.889765525,11.1925049,12.889765525,12.6100049C12.889765525,13.1950049,13.092265625,13.7350049,13.429765625,14.1625047C13.969765625,15.0175052,14.847265525000001,15.7150049,13.429765625,16.8175049L12.079765585,16.8175049C11.832265635,16.8175049,11.697265625,16.9525046,11.697265625,17.2000046L11.697265625,17.7850046C11.697265625,18.010005,11.854765605,17.9650049,12.102265655,17.9650049Z" fill="#FCE760" fill-opacity="1" style="mix-blend-mode:passthrough"/><path d="M11.197265685,17.2000046L11.197265625,17.7850046Q11.197265625,18.2430048,11.577951265,18.4082413Q11.731686849,18.474969899999998,12.010400385,18.4668064Q12.071905555,18.4650049,12.102265655,18.4650049L19.057203325,18.4650049L19.082016924999998,18.4625235Q19.109959625000002,18.459729199999998,19.154655925,18.4588699Q19.741152725,18.4475937,19.735110325,17.8190222Q19.734766025,17.7832112,19.734766025,17.7625046L19.734766025,17.2000046Q19.734766025,16.3175054,18.852266825,16.3175054L17.746898125,16.3175054Q17.692425225,16.197237,17.626837725,16.1235933L17.626886325,16.1235495Q17.287156625,15.7449932,17.334431625,15.4391146Q17.370890625,15.2032189,17.745925925,14.5967035Q17.793128525,14.5203657,17.822670025,14.4722352Q18.013416725,14.2308121,18.100953125,14.0604963Q18.474765825,13.3903646,18.474765825,12.610005600000001Q18.474765825,11.3507015,17.636287725,10.44267249Q16.765819525,9.50000012,15.499999725,9.50000021Q14.243642125000001,9.5,13.319270225,10.41882405Q12.389765855,11.3427501,12.389766035,12.6100049Q12.389765445,13.6389685,13.021124325,14.4516416Q13.108300425,14.5874124,13.275696325,14.823367600000001Q13.680861625,15.394473999999999,13.696609525,15.6205087Q13.717428925,15.919337299999999,13.252141125,16.3175054L12.079765585,16.3175054Q11.68703419,16.3175054,11.442150085,16.562388900000002Q11.197265625,16.8072729,11.197265685,17.2000046ZM12.197265685,17.4650049L18.734765525,17.4650049L18.734765525,17.3175049L17.335598425,17.3175049L17.202264825,17.2175045Q16.977836625000002,17.0491824,16.843340825,16.7468195Q16.230187925,16.0367627,16.346166125,15.2863717Q16.413623825000002,14.849910300000001,16.895392925,14.070781700000001Q16.955525425,13.9735339,16.985624825000002,13.9242797L17.002097625,13.8973248L17.021831525,13.8726573Q17.168738325,13.6890237,17.212552025,13.6013973L17.218002325,13.5904963L17.223977525,13.5798738Q17.474766225,13.1340282,17.474766225,12.610005600000001Q17.474766225,11.7417877,16.901604225,11.1210825Q16.328093525,10.50000018,15.499999725,10.50000024Q14.656093625,10.5,14.024245525,11.1280558Q13.389765825,11.7587276,13.389766025,12.6100049Q13.389765525,13.3049233,13.822206925,13.8526826L13.838483525000001,13.8732994L13.852510225,13.8955083Q13.925357625,14.01085,14.091295025,14.244749500000001Q14.658928125,15.0448647,14.694191425,15.5510068Q14.754761225,16.4203835,13.736736024999999,17.2121811L13.601319525000001,17.3175049L12.197265685,17.3175049L12.197265685,17.4650049Z" fill-rule="evenodd" fill="#5D87FF" fill-opacity="1"/><path d="M12,19.66666692C12,19.851852,12.07253886,20,12.16321243,20L18.836787700000002,20C18.9274616,20,19,19.851852,19,19.66666692L19,19.33333391C19,19.14814889,18.9274616,19,18.8549228,19L12.16321243,19C12.07253886,19,12,19.14814889,12,19.33333391L12,19.66666692Z" fill="#5D87FF" fill-opacity="1" style="mix-blend-mode:passthrough"/></g></g></svg>