<svg xmlns="http://www.w3.org/2000/svg" xmlns:xlink="http://www.w3.org/1999/xlink" fill="none" version="1.1" width="14" height="14.000020980834961" viewBox="0 0 14 14.000020980834961"><g><g><path d="M0.927598,0.936541C0.758924,0.597231,0.843261,0.25792,1.09627,0.0882647C1.43362,-0.0813906,1.77097,0.00343708,1.93965,0.25792C6.33523,7.38086,12.145,7.15485,12.7719,7.13046C12.7945,7.12958,12.8104,7.12896,12.8192,7.12896C13.1565,7.12896,13.4939,7.38344,13.4939,7.72275C13.4939,8.06206,13.2409,8.40137,12.9035,8.40137L12.3975,8.40137C10.7951,8.40137,5.14447,7.80758,0.927598,0.936541ZM0,4.32963L0,13.4062C0,13.7455,0.253012,14,0.590361,14C0.927711,14,1.18072,13.7455,1.18072,13.4062L1.18072,4.32963C1.18072,3.99032,0.927711,3.73584,0.590361,3.73584C0.253012,3.73584,0,3.99032,0,4.32963ZM2.53003,13.4062L2.53003,7.72276C2.53003,7.38345,2.78304,7.12897,3.12039,7.12897C3.45774,7.12897,3.71075,7.38345,3.71075,7.72276L3.71075,13.3214C3.71075,13.6607,3.45774,13.9152,3.12039,13.9152C2.86738,14,2.53003,13.7455,2.53003,13.4062ZM5.65063,13.4062L5.65063,9.67381C5.65063,9.3345,5.90365,9.08002,6.241,9.08002C6.57835,9.08002,6.83136,9.3345,6.83136,9.67381L6.83136,13.4062C6.83136,13.7455,6.57835,14,6.241,14C5.90365,14,5.65063,13.7455,5.65063,13.4062ZM8.68677,10.9462L8.68677,13.4062C8.68677,13.7455,8.93978,14,9.27713,14C9.61448,14,9.86749,13.7455,9.86749,13.4062L9.86749,10.9462C9.86749,10.6069,9.61448,10.3524,9.27713,10.3524C8.93978,10.3524,8.68677,10.6069,8.68677,10.9462Z" fill-rule="evenodd" fill="#349B34" fill-opacity="1"/></g><g><path d="M11.216867523840332,9.4295181640625C11.132530223840332,9.1750381640625,11.216867523840332,8.9205481640625,11.385542623840331,8.7508981640625L12.566261623840331,7.817788164062501L11.469879623840333,6.4605481640625C11.216867523840332,6.2060671640625,11.301204623840333,5.7819291640625,11.554216623840333,5.6122741640625C11.807228623840333,5.3577911640625,12.228911623840332,5.4426186640625,12.397591623840333,5.6971011640625004L13.831321623840331,7.5633081640625C13.915661623840332,7.6481381640625,14.000001623840332,7.9026181640625,14.000001623840332,7.9874481640625C14.000001623840332,8.1571081640625,13.915661623840332,8.3267581640625,13.746991623840332,8.4115881640625L12.060240623840333,9.7688281640625C11.807228623840333,10.023308164062499,11.385542623840331,9.9384881640625,11.216867523840332,9.683998164062501L11.216867523840332,9.4295181640625L11.216867523840332,9.4295181640625Z" fill="#349B34" fill-opacity="1"/></g></g></svg>