<svg xmlns="http://www.w3.org/2000/svg" xmlns:xlink="http://www.w3.org/1999/xlink" fill="none" version="1.1" width="14" height="14" viewBox="0 0 14 14"><g><g><g></g><g><path d="M1,8.51171875L1,11.51171875C1,12.33871885,1.6729999800000002,13.01171875,2.5,13.01171875L11.5,13.01171875C12.327,13.01171875,13,12.33871885,13,11.51171875L13,8.51171875C13,8.23521875,12.7765,8.01171875,12.5,8.01171875C12.2235,8.01171875,12,8.23521875,12,8.51171875L12,11.51171875C12,11.78771875,11.776,12.01171875,11.5,12.01171875L2.5,12.01171875C2.224,12.01171875,2,11.78771875,2,11.51171875L2,8.51171875C2,8.23521875,1.77649999,8.01171875,1.5,8.01171875C1.2235,8.01171875,1,8.23521875,1,8.51171875Z" fill="#FFFFFF" fill-opacity="1"/></g><g transform="matrix(1,0,0,-1,0,19.0234375)"><path d="M3.6507402225,12.653176049999999L6.6290336125,9.67478344C6.6343171125,9.66895148,6.6397622125,9.66321379,6.6453690125,9.65757616C6.7432527125,9.560227476,6.8712957125,9.51160840214,6.9993048125,9.51171875L7.0000000125,9.51171875L7.0026526125,9.511725730441C7.025466912500001,9.5118458254,7.0479324125,9.5135142554,7.0699487125000005,9.516630745C7.1735201125,9.531200703,7.273410312499999,9.578182474,7.353240212499999,9.65757616C7.3591323125,9.66346827,7.3648460125,9.66947418,7.3703811125000005,9.67558697L10.347868912500001,12.65287615C10.542345512499999,12.84842135,10.542345512499999,13.16433095,10.347868912500001,13.35987615C10.1533689125,13.55447625,9.8348694125,13.55447625,9.640869112499999,13.35987615L7.5000000125,11.21914995L7.5000000125,17.51171875C7.5000000125,17.78671835,7.2750001125,18.01171875,7.0000000125,18.01171875C6.7249999124999995,18.01171875,6.5000000125,17.78671835,6.5000000125,17.51171875L6.5000000125,11.21784495L4.3577402225,13.36017605C4.1621949625,13.554652650000001,3.8462854625,13.554652650000001,3.6507402225,13.36017605C3.4562636765,13.16463085,3.4562636765,12.84872155,3.6507402225,12.653176049999999Z" fill-rule="evenodd" fill="#FFFFFF" fill-opacity="1"/></g></g></g></svg>