<svg xmlns="http://www.w3.org/2000/svg" xmlns:xlink="http://www.w3.org/1999/xlink" fill="none" version="1.1" width="20" height="20" viewBox="0 0 20 20"><defs><mask id="master_svg0_628_39712" style="mask-type:alpha" maskUnits="objectBoundingBox"><g><ellipse cx="10.000001907348633" cy="10" rx="10.000001907348633" ry="10" fill="#FFFFFF" fill-opacity="1"/></g></mask><clipPath id="master_svg1_628_39713"><rect x="0" y="0" width="20" height="20" rx="0"/></clipPath></defs><g mask="url(#master_svg0_628_39712)"><g><ellipse cx="10.000001907348633" cy="10" rx="10.000001907348633" ry="10" fill="#FFFFFF" fill-opacity="1"/></g><g clip-path="url(#master_svg1_628_39713)"><g><path d="M20,10.01036C20,15.527033,15.522526,20,9.9989538,20C4.4758873,20,0,15.527009,0,10.01036C0,5.7758622,2.6358554,2.1581368,6.3584113,0.70425719C7.4831614,0.25055704,8.7119513,0,9.9992075,0C11.288052,0,12.515783,0.25030386,13.641591,0.70425719C17.363916,2.1581368,20,5.7758856,20,10.01036ZM10.03958,19.35264C12.961135,19.35264,15.567344,18.009125,17.275551,15.906571C17.073753,14.248007,15.4575,12.836086,13.170046,12.131806C12.306113,12.908932,11.202332,13.376534,9.9986792,13.376534C8.7683001,13.376534,7.6420074,12.883776,6.7696738,12.072838C4.5445504,12.707884,2.9147184,14.003203,2.5325742,15.55534C4.2276621,17.857885,6.9597096,19.35264,10.03958,19.35264Z" fill="#999999" fill-opacity="1" style="mix-blend-mode:passthrough"/></g><g><path d="M14,8.5Q14,8.6965075,13.980739100000001,8.8920684Q13.9614778,9.0876293,13.923140499999999,9.2803607Q13.8848038,9.473092600000001,13.827760699999999,9.6611385Q13.770717600000001,9.849184000000001,13.6955171,10.030733099999999Q13.620317499999999,10.2122822,13.5276842,10.3855863Q13.435051399999999,10.5588903,13.3258772,10.722279499999999Q13.216704400000001,10.8856702,13.092041,11.0375729Q12.9673786,11.1894751,12.8284264,11.3284264Q12.6894751,11.4673786,12.5375729,11.592041Q12.3856702,11.716704400000001,12.222279499999999,11.8258772Q12.0588903,11.935051399999999,11.885586700000001,12.0276847Q11.7122822,12.120317499999999,11.530733099999999,12.195517500000001Q11.349184000000001,12.2707181,11.1611385,12.327761200000001Q10.973092600000001,12.3848042,10.7803607,12.423140499999999Q10.5876293,12.4614778,10.3920689,12.480739100000001Q10.1965075,12.5,10,12.5Q9.8034928,12.5,9.6079316,12.480739100000001Q9.4123702,12.4614778,9.2196386,12.423140499999999Q9.026907,12.3848038,8.8388612,12.327760699999999Q8.6508152,12.270717600000001,8.4692659,12.1955171Q8.2877169,12.120317499999999,8.1144128,12.0276842Q7.9411089,11.935051399999999,7.7777189,11.8258772Q7.6143291,11.716704400000001,7.4624269000000005,11.592041Q7.3105247,11.4673786,7.1715728,11.3284264Q7.0326211,11.1894751,6.90795821,11.0375729Q6.78329521,10.8856702,6.6741215,10.722279499999999Q6.56494784,10.5588903,6.47231492,10.385586700000001Q6.37968194,10.2122822,6.30448183,10.030733099999999Q6.22928172,9.849184000000001,6.17223865,9.6611385Q6.11519556,9.473092600000001,6.076858871,9.2803607Q6.038522184,9.0876293,6.019261092,8.8920689Q6,8.6965075,6,8.5Q6,8.3034928,6.019261092,8.1079316Q6.038522184,7.9123702,6.076858871,7.7196386Q6.11519556,7.526907,6.17223865,7.3388612Q6.22928172,7.1508152,6.30448183,6.9692659Q6.37968194,6.7877168999999995,6.47231489,6.6144128Q6.56494784,6.4411089,6.6741215,6.2777189Q6.78329521,6.1143291,6.90795815,5.9624269000000005Q7.0326211,5.8105247,7.1715728,5.6715728Q7.3105247,5.5326211,7.4624269000000005,5.40795821Q7.6143292,5.28329521,7.777719,5.1741215Q7.9411089,5.06494784,8.1144128,4.97231492Q8.2877169,4.87968194,8.4692659,4.80448183Q8.6508152,4.72928172,8.8388612,4.67223865Q9.026907,4.61519556,9.2196386,4.576858871Q9.4123702,4.538522184,9.6079316,4.519261092Q9.8034928,4.5,10,4.5Q10.1965075,4.5,10.3920684,4.519261092Q10.5876293,4.538522184,10.7803607,4.576858871Q10.973092600000001,4.61519556,11.1611385,4.67223865Q11.349184000000001,4.72928172,11.530733099999999,4.80448183Q11.7122822,4.87968194,11.8855863,4.97231489Q12.0588903,5.06494784,12.222279499999999,5.1741215Q12.3856702,5.28329521,12.5375729,5.40795815Q12.6894751,5.5326211,12.8284264,5.6715728Q12.9673786,5.8105247,13.092041,5.9624269000000005Q13.216704400000001,6.1143292,13.3258772,6.277719Q13.435051399999999,6.4411089,13.5276847,6.6144128Q13.620317499999999,6.7877168999999995,13.695517500000001,6.9692659Q13.7707181,7.1508152,13.827761200000001,7.3388612Q13.8848042,7.526907,13.923140499999999,7.7196386Q13.9614778,7.9123702,13.980739100000001,8.1079316Q14,8.3034928,14,8.5Z" fill="#FFFFFF" fill-opacity="1"/></g></g></g></svg>