<svg xmlns="http://www.w3.org/2000/svg" xmlns:xlink="http://www.w3.org/1999/xlink" fill="none" version="1.1" width="13" height="13" viewBox="0 0 13 13"><g><path d="M6.5,0C2.9101491,0,0,2.9101491,0,6.5C0,10.08985,2.9101491,13,6.5,13C10.08985,13,13,10.08985,13,6.5C13,4.776093,12.315181,3.1227925,11.096194,1.903806C9.8772078,0.68481946,8.2239075,0,6.5,0ZM7.4615993,6.7915134C7.737639,6.5648961,8.0006828,6.322896,8.2494774,6.0666647L8.2494774,6.074544C8.5025377,5.7538147,8.6387129,5.3564062,8.6355381,4.9478769C8.6616764,4.4419923,8.4557343,3.9517927,8.0761442,3.6163619C7.6581779,3.2824247,7.1279716,3.1216707,6.5949326,3.1672709C5.9980822,3.1329761,5.4135852,3.3468163,4.9797807,3.7581799C4.580626,4.1831517,4.3703351,4.7515049,4.3967505,5.3339376L5.342205,5.3339376C5.3237877,5.0000167,5.4120865,4.6688952,5.594326,4.388483C5.8080664,4.1088014,6.1496072,3.9573355,6.5003872,3.9866648C6.7894917,3.9683022,7.0737128,4.0677795,7.2882657,4.2624226C7.4760747,4.4575243,7.5830441,4.7165022,7.5876598,4.9872708C7.5805244,5.2361159,7.4888196,5.4751043,7.3276596,5.6648464L7.170084,5.8381801C6.7619367,6.1673298,6.4105978,6.5612555,6.130084,7.0042405C5.9949245,7.2781754,5.9299474,7.5814004,5.9409928,7.8866649L5.9409928,8.044241L6.9258413,8.044241L6.9258413,7.8866649C6.921998,7.6723447,6.9735613,7.4606628,7.0755386,7.2721195C7.16786,7.0858231,7.2995906,6.9218321,7.4615993,6.7915134ZM6.909668,9.6907425C6.7797956,9.8133144,6.6076374,9.8810492,6.4290619,9.8798332C6.2485371,9.8833427,6.074595,9.8120546,5.9484553,9.6828632C5.8204818,9.5591497,5.7492189,9.3881178,5.7514858,9.2101364C5.7441559,9.0312128,5.8162479,8.8581915,5.9484553,8.7374096C6.0759277,8.6111069,6.249701,8.542737,6.4290619,8.5483179C6.6109657,8.5414877,6.787652,8.6098824,6.9175463,8.7374096C7.0497541,8.8581915,7.1218462,9.0312128,7.1145163,9.2101364C7.1172132,9.3943815,7.0429754,9.5714102,6.909668,9.6986217L6.909668,9.6907425Z" fill-rule="evenodd" fill="#AAAAAA" fill-opacity="1"/></g></svg>