<svg xmlns="http://www.w3.org/2000/svg" xmlns:xlink="http://www.w3.org/1999/xlink" fill="none" version="1.1" width="19.4404296875" height="19.44000244140625" viewBox="0 0 19.4404296875 19.44000244140625"><g><g><g><path d="M11.686479917602538,12.06057509552002C13.70549991760254,11.388745095520019,15.163199917602538,9.48686509552002,15.163199917602538,7.24283509552002C15.163199917602538,4.436125095520019,12.888699917602539,2.1624650955200195,10.082869917602538,2.1624650955200195C7.277049917602539,2.1624650955200195,5.002499917602539,4.437015095520019,5.002499917602539,7.24283509552002C5.002499917602539,9.379275095520018,6.3229899176025395,11.204525095520019,8.191009917602539,11.95520509552002C4.673269917602539,12.63326509552002,1.9761559176025392,15.60506509552002,1.706399917602539,19.253065095520018L17.73359991760254,19.253065095520018C17.47479991760254,15.75896509552002,14.98679991760254,12.89256509552002,11.686479917602538,12.06057509552002Z" fill="#0064FF" fill-opacity="1"/></g><g><path d="M3.9431399176025392,9.61051915802002L3.9431399176025392,6.4277991580200196C4.25677991760254,3.3315091580200193,6.862789917602539,0.9126141580200196,10.041719917602538,0.9126141580200196C13.121799917602539,0.9126141580200196,15.661599917602539,3.1847091580200195,16.10239991760254,6.14111915802002C16.09819991760254,6.14111915802002,16.094399917602537,6.139329158020019,16.09019991760254,6.13910915802002L16.09019991760254,9.61051915802002C16.99909991760254,9.54311915802002,17.702199917602538,8.78619915802002,17.702499917602537,7.874809158020019C17.702499917602537,7.244859158020019,17.36369991760254,6.69977915802002,16.86269991760254,6.39438915802002C16.530599917602537,2.9129491580200195,13.60999991760254,0.18687915802001953,10.041719917602538,0.18687915802001953C6.484549917602539,0.18687915802001953,3.572039917602539,2.8960191580200196,3.225428917602539,6.36163915802002C2.553598917602539,6.734159158020019,2.206604917602539,7.504029158020019,2.372460717602539,8.25410915802002C2.538315917602539,9.00418915802002,3.177553917602539,9.555989158020019,3.9438099176025387,9.61051915802002L3.9431399176025392,9.61051915802002Z" fill="#0064FF" fill-opacity="1"/></g></g></g></svg>