<svg xmlns="http://www.w3.org/2000/svg" xmlns:xlink="http://www.w3.org/1999/xlink" fill="none" version="1.1" width="36" height="27" viewBox="0 0 36 27"><defs><linearGradient x1="0.5" y1="0" x2="0.5" y2="0.931034505367279" id="master_svg0_310_19352"><stop offset="0%" stop-color="#FF2020" stop-opacity="0.11999999731779099"/><stop offset="100%" stop-color="#FFF7F7" stop-opacity="0.1599999964237213"/></linearGradient></defs><g><path d="M19.2857,27L19.2857,19.2857L24.4286,19.2857L18,11.5714L11.5714,19.2857L16.7143,19.2857L16.7143,27L9.64286,27C6.94286,26.8714,4.62857,25.9714,2.82857,24.1714C1.02857,22.3714,0.128572,20.0571,0,17.3571C0,14.7857,0.9,12.7286,2.44286,10.9286C3.98571,9.12857,6.04286,8.1,8.48571,7.84286C9,5.52857,10.0286,3.6,11.8286,2.18571C13.6286,0.771429,15.6857,0,18,0C20.3143,0,22.3714,0.771429,24.1714,2.18571C25.9714,3.6,27,5.52857,27.5143,7.84286C29.9571,8.1,32.0143,9.25714,33.5571,10.9286C35.1,12.7286,36,14.7857,36,17.3571C35.8714,20.0571,34.9714,22.3714,33.1714,24.1714C31.3714,25.9714,29.0571,26.8714,26.3571,27L19.2857,27Z" fill="url(#master_svg0_310_19352)" fill-opacity="1" style="mix-blend-mode:passthrough"/></g></svg>