<svg xmlns="http://www.w3.org/2000/svg" xmlns:xlink="http://www.w3.org/1999/xlink" fill="none" version="1.1" width="36" height="36" viewBox="0 0 36 36"><defs><linearGradient x1="0.5" y1="0" x2="0.5" y2="1" id="master_svg0_310_19380"><stop offset="0%" stop-color="#FF8C00" stop-opacity="0.20000000298023224"/><stop offset="99.28571581840515%" stop-color="#FFFAF5" stop-opacity="0.6299999952316284"/></linearGradient></defs><g><path d="M27.9815,18.7849C26.2289,19.9524,24.132,20.6307,21.8754,20.6307C19.6255,20.6307,17.5354,19.9568,15.7895,18.7982C11.0603,21.0843,7.79352,25.9434,7.79352,31.5675C7.79352,37.5186,36,37.4363,36,31.5675C35.9978,25.9301,32.7242,21.0643,27.9815,18.7849ZM12.3945,9.52471C12.3945,4.26533,16.6377,0,21.8754,0C27.113,0,31.3563,4.26312,31.3563,9.52475C31.3563,14.7842,27.113,19.0451,21.8754,19.0451C16.6377,19.0451,12.3945,14.7842,12.3945,9.52471ZM6.1219,32.0612C6.1219,32.2791,6.15561,32.4859,6.22086,32.6905C2.65935,32.1191,0,30.9916,0,29.2926C0,24.4245,2.82583,20.2192,6.92055,18.24C8.34924,19.1896,10.0501,19.7633,11.8838,19.8234C8.36499,22.73,6.12186,27.1332,6.1219,32.0612ZM10.8173,9.52471C10.8173,7.10738,11.5868,4.87019,12.8939,3.04661C12.6644,3.02662,12.4372,3.01772,12.2077,3.01772C7.89696,3.01772,4.40294,6.52695,4.40294,10.8568C4.40294,15.1867,7.89472,18.6958,12.2055,18.6958C13.1752,18.6958,14.1043,18.518,14.9593,18.191C12.435,16.1562,10.8173,13.0317,10.8173,9.52471Z" fill="url(#master_svg0_310_19380)" fill-opacity="1" style="mix-blend-mode:passthrough"/></g></svg>