<svg xmlns="http://www.w3.org/2000/svg" xmlns:xlink="http://www.w3.org/1999/xlink" fill="none" version="1.1" width="12.999999523162842" height="12.999999523162842" viewBox="0 0 12.999999523162842 12.999999523162842"><g transform="matrix(1,0,0,-1,0,19.999999046325684)"><ellipse cx="6.499999761581421" cy="13.499999284744263" rx="3.499999761581421" ry="3.499999761581421" fill="#24BC29" fill-opacity="1"/><path d="M13,13.499999523162842Q13,13.659569523162842,12.99217,13.818939523162841Q12.98434,13.978309523162842,12.9687,14.137109523162842Q12.95306,14.295909523162841,12.92965,14.453749523162841Q12.90623,14.611589523162841,12.8751,14.768089523162843Q12.84397,14.924589523162842,12.8052,15.079369523162843Q12.76643,15.234149523162841,12.72011,15.38684952316284Q12.67379,15.53953952316284,12.62004,15.68977952316284Q12.56628,15.840019523162841,12.50522,15.987439523162841Q12.44415,16.13485952316284,12.37593,16.27910952316284Q12.30771,16.42334952316284,12.23249,16.564079523162842Q12.15727,16.70479952316284,12.07524,16.841669523162842Q11.9932,16.97852952316284,11.90455,17.11120952316284Q11.8159,17.243879523162843,11.72085,17.37203952316284Q11.6258,17.50020952316284,11.52457,17.623559523162843Q11.42334,17.746899523162842,11.31618,17.865129523162842Q11.20902,17.983359523162843,11.09619,18.096189523162842Q10.983360000000001,18.209019523162844,10.86513,18.31617952316284Q10.7469,18.42333952316284,10.623560000000001,18.524569523162842Q10.50021,18.625789523162844,10.37204,18.72084952316284Q10.24388,18.81589952316284,10.11121,18.904549523162842Q9.97853,18.993199523162843,9.84167,19.07522952316284Q9.704799999999999,19.157269523162842,9.56408,19.23248952316284Q9.42335,19.307709523162842,9.27911,19.375929523162842Q9.13486,19.444149523162842,8.98744,19.505219523162843Q8.840019999999999,19.56627952316284,8.689779999999999,19.62003952316284Q8.539539999999999,19.673789523162842,8.386849999999999,19.72010952316284Q8.23415,19.76642952316284,8.07937,19.80519952316284Q7.92459,19.84396952316284,7.76809,19.87509952316284Q7.61159,19.906229523162843,7.45375,19.929649523162844Q7.29591,19.953059523162842,7.13711,19.96869952316284Q6.9783100000000005,19.98433952316284,6.81894,19.992169523162843Q6.65957,19.999999523162842,6.5,19.999999523162842Q6.34043,19.999999523162842,6.18106,19.992169523162843Q6.0216899999999995,19.98433952316284,5.86289,19.96869952316284Q5.70409,19.953059523162842,5.546250000000001,19.929649523162844Q5.38841,19.906229523162843,5.23191,19.87509952316284Q5.07541,19.84396952316284,4.92063,19.80519952316284Q4.76584,19.76642952316284,4.61315,19.72010952316284Q4.46045,19.673789523162842,4.31022,19.62003952316284Q4.15998,19.56627952316284,4.01256,19.505219523162843Q3.865138,19.444149523162842,3.720892,19.375929523162842Q3.576646,19.307709523162842,3.435921,19.23248952316284Q3.295197,19.157269523162842,3.158332,19.075239523162843Q3.0214679,18.993199523162843,2.888794,18.904549523162842Q2.756119,18.81589952316284,2.627955,18.72084952316284Q2.49979,18.62579952316284,2.3764440000000002,18.524569523162842Q2.253098,18.42333952316284,2.134867,18.31617952316284Q2.016636,18.209019523162844,1.90381,18.096189523162842Q1.79098,17.983359523162843,1.68382,17.865129523162842Q1.57666,17.746899523162842,1.47543,17.623559523162843Q1.3742,17.50020952316284,1.27915,17.37203952316284Q1.1841,17.243879523162843,1.09545,17.11120952316284Q1.0068,16.97852952316284,0.92476,16.841669523162842Q0.84273,16.70479952316284,0.7675100000000001,16.564079523162842Q0.6922899999999998,16.42334952316284,0.6240700000000001,16.27910952316284Q0.55585,16.13485952316284,0.49478,15.987439523162841Q0.4337200000000001,15.840019523162841,0.3799600000000001,15.68977952316284Q0.3262100000000001,15.53953952316284,0.27988999999999997,15.38684952316284Q0.23356999999999983,15.234149523162841,0.19479999999999986,15.079369523162843Q0.1560299999999999,14.924589523162842,0.12489999999999979,14.768089523162843Q0.09377000000000013,14.611589523162841,0.07034999999999991,14.453749523162841Q0.046940000000000204,14.295909523162841,0.031299999999999883,14.137109523162842Q0.015660000000000007,13.978309523162842,0.007829999999999782,13.818939523162841Q0,13.659569523162842,0,13.499999523162842Q0,13.340429523162841,0.007829999999999782,13.181059523162842Q0.015660000000000007,13.021689523162841,0.031299999999999883,12.862889523162842Q0.046940000000000204,12.704089523162843,0.07034999999999991,12.546249523162842Q0.09377000000000013,12.388409523162842,0.12489999999999979,12.231909523162841Q0.1560299999999999,12.075409523162842,0.19479999999999986,11.920629523162841Q0.23356999999999983,11.765839523162843,0.27988999999999997,11.613149523162843Q0.3262100000000001,11.460449523162842,0.3799600000000001,11.310219523162841Q0.4337200000000001,11.159979523162843,0.49478,11.012559523162842Q0.55585,10.865137523162842,0.6240700000000001,10.720891523162841Q0.6922899999999998,10.576645523162842,0.7675100000000001,10.435920523162842Q0.84273,10.295196523162842,0.92476,10.158331523162841Q1.0068,10.021467423162841,1.09545,9.888793523162843Q1.1841,9.756118523162842,1.27915,9.627954523162842Q1.3742,9.499789523162843,1.47543,9.376443523162841Q1.57666,9.253097523162841,1.68382,9.134866523162842Q1.79098,9.016635523162842,1.90381,8.903809523162842Q2.016636,8.790979523162841,2.134867,8.683819523162843Q2.253098,8.576659523162842,2.3764440000000002,8.475429523162841Q2.49979,8.374199523162842,2.627955,8.279149523162841Q2.756119,8.184099523162843,2.888794,8.095449523162841Q3.0214679,8.006799523162842,3.158332,7.924759523162842Q3.295197,7.842729523162841,3.435921,7.7675095231628415Q3.576646,7.692289523162842,3.720892,7.6240695231628415Q3.865138,7.555849523162841,4.01256,7.494779523162842Q4.15998,7.433719523162842,4.31022,7.379959523162842Q4.46045,7.3262095231628415,4.61315,7.279889523162842Q4.76584,7.233569523162842,4.92063,7.194799523162842Q5.07541,7.156029523162841,5.23191,7.124899523162842Q5.38841,7.093769523162842,5.546250000000001,7.070349523162841Q5.70409,7.046939523162842,5.86289,7.031299523162842Q6.0216899999999995,7.015659523162842,6.18106,7.007829523162842Q6.34043,6.999999523162842,6.5,6.999999523162842Q6.65957,6.999999523162842,6.81894,7.007829523162842Q6.9783100000000005,7.015659523162842,7.13711,7.031299523162842Q7.29591,7.046939523162842,7.45375,7.070349523162841Q7.61159,7.093769523162842,7.76809,7.124899523162842Q7.92459,7.156029523162841,8.07937,7.194799523162842Q8.23415,7.233569523162842,8.386849999999999,7.279889523162842Q8.539539999999999,7.3262095231628415,8.689779999999999,7.379959523162842Q8.840019999999999,7.433719523162842,8.98744,7.494779523162842Q9.13486,7.555849523162841,9.27911,7.6240695231628415Q9.42335,7.692289523162842,9.56408,7.7675095231628415Q9.704799999999999,7.842729523162841,9.84167,7.924759523162842Q9.97853,8.006799523162842,10.11121,8.095449523162841Q10.24388,8.184099523162843,10.37204,8.279149523162841Q10.50021,8.374199523162842,10.623560000000001,8.475429523162841Q10.7469,8.576659523162842,10.86513,8.683819523162843Q10.983360000000001,8.790979523162841,11.09619,8.903809523162842Q11.20902,9.016635523162842,11.31618,9.134866523162842Q11.42334,9.253097523162841,11.52457,9.376443523162841Q11.62579,9.499789523162843,11.72085,9.627954523162842Q11.8159,9.756118523162842,11.90455,9.888793523162843Q11.9932,10.021467423162841,12.07523,10.158331523162841Q12.15727,10.295196523162842,12.23249,10.435920523162842Q12.30771,10.576645523162842,12.37593,10.720891523162841Q12.44415,10.865137523162842,12.50522,11.012559523162842Q12.56628,11.159979523162843,12.62004,11.310219523162841Q12.67379,11.460449523162842,12.72011,11.613149523162843Q12.76643,11.765839523162843,12.8052,11.920629523162841Q12.84397,12.075409523162842,12.8751,12.231909523162841Q12.90623,12.388409523162842,12.92965,12.546249523162842Q12.95306,12.704089523162843,12.9687,12.862889523162842Q12.98434,13.021689523162841,12.99217,13.181059523162842Q13,13.340429523162841,13,13.499999523162842ZM10,13.499999523162842Q10,13.328059523162842,9.98315,13.156939523162842Q9.96629,12.985819523162842,9.93275,12.817179523162842Q9.8992,12.648539523162842,9.84929,12.483999523162842Q9.79938,12.319459523162841,9.73358,12.160609523162842Q9.66778,12.001749523162841,9.58672,11.850109523162843Q9.50567,11.698469523162842,9.41014,11.555499523162842Q9.31462,11.412539523162842,9.20554,11.279619523162841Q9.09646,11.146709523162842,8.97487,11.025129523162843Q8.853290000000001,10.903542523162841,8.720379999999999,10.794462523162842Q8.58746,10.685382523162842,8.4445,10.589855523162841Q8.30153,10.494328523162842,8.14989,10.413274523162842Q7.99825,10.332221523162842,7.83939,10.266421523162842Q7.68054,10.200620523162842,7.516,10.150708523162843Q7.35146,10.100795523162843,7.18282,10.067251023162841Q7.01418,10.033706423162842,6.8430599999999995,10.016853023162842Q6.67194,9.999999523162842,6.5,9.999999523162842Q6.32806,9.999999523162842,6.1569400000000005,10.016853023162842Q5.98582,10.033706423162842,5.8171800000000005,10.067251023162841Q5.648540000000001,10.100795523162843,5.484,10.150708523162843Q5.319459999999999,10.200620523162842,5.16061,10.266421523162842Q5.0017499999999995,10.332221523162842,4.85011,10.413275523162842Q4.69847,10.494328523162842,4.5555,10.589855523162841Q4.41254,10.685382523162842,4.2796199999999995,10.794462523162842Q4.14671,10.903542523162841,4.02513,11.025129523162843Q3.903543,11.146709523162842,3.794463,11.279619523162841Q3.685383,11.412539523162842,3.589856,11.555499523162842Q3.494329,11.698469523162842,3.413275,11.850109523162843Q3.332222,12.001749523162841,3.266422,12.160609523162842Q3.200621,12.319459523162841,3.150709,12.483999523162842Q3.100796,12.648539523162842,3.0672515,12.817179523162842Q3.0337069,12.985819523162842,3.0168535,13.156939523162842Q3,13.328059523162842,3,13.499999523162842Q3,13.671939523162841,3.0168535,13.843059523162841Q3.0337069,14.014179523162841,3.0672515,14.182819523162841Q3.100796,14.351459523162841,3.150709,14.515999523162842Q3.200621,14.680539523162842,3.266422,14.839389523162842Q3.332222,14.99824952316284,3.4132759999999998,15.149889523162841Q3.494329,15.301529523162841,3.589856,15.444499523162841Q3.685383,15.587459523162842,3.794463,15.72037952316284Q3.903543,15.853289523162843,4.02513,15.974869523162841Q4.14671,16.096459523162842,4.2796199999999995,16.20553952316284Q4.41254,16.31461952316284,4.5555,16.41013952316284Q4.69847,16.505669523162844,4.85011,16.58671952316284Q5.0017499999999995,16.667779523162842,5.16061,16.73357952316284Q5.319459999999999,16.79937952316284,5.484,16.84928952316284Q5.648540000000001,16.899199523162842,5.8171800000000005,16.93274952316284Q5.98582,16.966289523162843,6.1569400000000005,16.983149523162844Q6.32806,16.999999523162842,6.5,16.999999523162842Q6.67194,16.999999523162842,6.8430599999999995,16.983149523162844Q7.01418,16.966289523162843,7.18282,16.93274952316284Q7.35146,16.899199523162842,7.516,16.84928952316284Q7.68054,16.79937952316284,7.83939,16.73357952316284Q7.99825,16.667779523162842,8.14989,16.58671952316284Q8.30153,16.505669523162844,8.4445,16.41013952316284Q8.58746,16.31461952316284,8.720379999999999,16.20553952316284Q8.853290000000001,16.096459523162842,8.97487,15.974869523162841Q9.09646,15.853289523162843,9.20554,15.72037952316284Q9.31462,15.587459523162842,9.41014,15.444499523162841Q9.50567,15.301529523162841,9.58672,15.149889523162841Q9.66778,14.99824952316284,9.73358,14.839389523162842Q9.79938,14.680539523162842,9.84929,14.515999523162842Q9.8992,14.351459523162841,9.93275,14.182819523162841Q9.96629,14.014179523162841,9.98315,13.843059523162841Q10,13.671939523162841,10,13.499999523162842Z" fill="#EAF9EB" fill-opacity="1"/></g></svg>