<svg xmlns="http://www.w3.org/2000/svg" xmlns:xlink="http://www.w3.org/1999/xlink" fill="none" version="1.1" width="14" height="15.2412109375" viewBox="0 0 14 15.2412109375"><g><path d="M8.5607,11.4244C8.78411,11.4244,8.97198,11.3635,9.12431,11.2416L6.16919,14.3186L1.965,14.3186Q1.67558,14.3186,1.33285,14.1511Q0.990117,13.9835,0.693082,13.7093Q0.396047,13.4351,0.198023,13.0772Q0,12.7192,0,12.3384L0,1.965Q0,1.64512,0.144709,1.29477Q0.289419,0.944419,0.540756,0.662617Q0.792094,0.380814,1.11198,0.190407Q1.43186,0,1.78221,0L7.61628,0L7.61628,1.90407Q7.61628,2.19349,7.70768,2.52861C7.76861,2.75202,7.86254,2.95766,7.98948,3.14553C8.11642,3.33339,8.28144,3.4908,8.48454,3.61774Q8.78919,3.80814,9.2157,3.80814L11.4397,3.80814L11.4397,8.85012L9.3528,11.0131C9.4645,10.8507,9.52036,10.673,9.52036,10.48C9.52036,10.216,9.42642,9.99003,9.23855,9.80216C9.05068,9.61429,8.82473,9.52036,8.5607,9.52036L2.84849,9.52036Q2.45244,9.52036,2.17826,9.80216C1.99547,9.99003,1.90407,10.216,1.90407,10.48C1.90407,10.744,1.99547,10.9674,2.17826,11.1502Q2.45244,11.4244,2.84849,11.4244L8.5607,11.4244ZM9.20071,2.83326C9.089,2.83326,8.99507,2.79518,8.9189,2.71901Q8.80466,2.60477,8.7285,2.45244C8.67772,2.35089,8.63964,2.2468,8.61425,2.14018Q8.57617,1.98023,8.57617,1.87361L8.57617,0L8.60664,0Q8.74373,0,8.86559,0.0304651C8.94683,0.0507752,9.04584,0.0990117,9.16263,0.175175C9.27941,0.251337,9.42158,0.357965,9.58914,0.495058Q9.84048,0.700698,10.2213,1.03581Q10.6326,1.4014,10.8763,1.65273C11.0388,1.82029,11.1632,1.96246,11.2495,2.07925C11.3358,2.19603,11.3891,2.29504,11.4094,2.37628C11.4297,2.45752,11.4399,2.52861,11.4399,2.58954L11.4399,2.83326L9.20071,2.83326ZM2.17848,5.99372Q2.45267,5.71191,2.84872,5.71191L8.56093,5.71191C8.82496,5.71191,9.05091,5.80585,9.23878,5.99372Q9.52058,6.27552,9.52058,6.67157Q9.52058,7.06761,9.23878,7.3418C9.05091,7.52459,8.82496,7.61598,8.56093,7.61598L2.84872,7.61598Q2.45267,7.61598,2.17848,7.3418Q1.9043,7.06761,1.9043,6.67157Q1.9043,6.27552,2.17848,5.99372ZM13.9986,10.312C13.9885,10.1901,13.9682,10.0886,13.9377,10.0073C13.8768,9.86517,13.7879,9.73061,13.6711,9.60367C13.5543,9.47674,13.4452,9.38788,13.3436,9.3371Q13.2065,9.26094,12.9933,9.23809C12.8511,9.22286,12.7191,9.2711,12.5972,9.3828C12.5464,9.42342,12.483,9.47928,12.4068,9.55036C12.3306,9.62145,12.2621,9.68238,12.2012,9.73315L13.4959,11.0127Q13.5416,10.9822,13.6026,10.9213C13.633,10.8908,13.6686,10.8527,13.7092,10.807C13.7498,10.7614,13.7955,10.7131,13.8463,10.6623C13.958,10.5506,14.0088,10.4339,13.9986,10.312ZM8.59114,13.3438L8.78916,13.1457L9.16998,12.7649C9.3223,12.6126,9.48986,12.4425,9.67265,12.2546C9.85544,12.0668,10.0382,11.8814,10.221,11.6987C10.6577,11.262,11.1502,10.7745,11.6986,10.2363L12.9781,11.5159L11.5006,12.9934L10.9522,13.5418L10.4495,14.0445C10.3073,14.1866,10.188,14.3085,10.0915,14.4101C9.99507,14.5116,9.94176,14.5675,9.9316,14.5776C9.88083,14.6182,9.82498,14.6614,9.76405,14.7071C9.70312,14.7528,9.64219,14.7909,9.58125,14.8213C9.52032,14.8518,9.42639,14.8899,9.29945,14.9356C9.17251,14.9813,9.04304,15.0244,8.91102,15.0651C8.77901,15.1057,8.65207,15.1412,8.53021,15.1717C8.40835,15.2021,8.31695,15.2225,8.25602,15.2326C8.13416,15.2529,8.05292,15.2377,8.0123,15.1869C7.97168,15.1361,7.96152,15.0498,7.98183,14.928C7.99199,14.867,8.0123,14.7756,8.04276,14.6538C8.07323,14.5319,8.10877,14.4075,8.14939,14.2806C8.19001,14.1536,8.2281,14.0343,8.26364,13.9226C8.29918,13.8109,8.32711,13.7347,8.34742,13.6941Q8.43881,13.4961,8.59114,13.3438Z" fill-rule="evenodd" fill="#2956FF" fill-opacity="1"/></g></svg>