<svg
  xmlns="http://www.w3.org/2000/svg"
  xmlns:xlink="http://www.w3.org/1999/xlink"
  fill="none"
  version="1.1"
  width="16"
  height="16"
  viewBox="0 0 16 16"
>
  <defs>
    <clipPath id="master_svg0_415_15386">
      <rect x="0" y="0" width="16" height="16" rx="0" />
    </clipPath>
  </defs>
  <g clip-path="url(#master_svg0_415_15386)">
    <g>
      <path
        d="M12.939972265625,14.1766949609375L2.058002705625,14.1766949609375C1.776931195625,14.1766949609375,1.549072265625,13.9488359609375,1.549072265625,13.6677649609375C1.549072265625,13.3866929609375,1.776931195625,13.1588339609375,2.058002705625,13.1588339609375L12.940142265625,13.1588339609375C13.221213265625,13.1588339609375,13.449072265625,13.3866929609375,13.449072265625,13.6677649609375C13.449072265625,13.9488359609375,13.221213265625,14.1766949609375,12.939972265625,14.1766949609375ZM12.938948265625,12.1517179609375L2.081538975625,12.1517179609375C1.800467525625,12.1517179609375,1.572608591625,11.9238599609375,1.572608591625,11.6427879609375L1.572608591625,9.8431119609375C1.572608591625,8.9531659609375,2.296265305625,8.2291688609375,3.1856998656249997,8.2291688609375L5.2425701656250006,8.2291688609375C5.214940265625,7.6931195609375,5.031936665625,6.8340434609375,4.8673531656249995,6.6438770609375C4.322606365625,5.9430756609375,4.025673365625,5.1310720609375,3.991051165625,4.274042560937501C3.988151765625,3.3363416609375,4.372749065624999,2.4494656609375003,5.046433965625,1.8220008609375C5.709373465625,1.2042576109375,6.604948065625,0.8834472669375,7.511266665625,0.9407531032375C8.410252065625,0.8825945039375,9.301221365625,1.1999938209375,9.963308365625,1.8114265809374999C10.635629665625,2.4322397609374997,11.024319665625,3.3112702609375,11.029777565625,4.2230472609375C10.997542365625,5.1060004609375,10.700439465625,5.9219260609375,10.170530365625,6.6043090609375C9.993326165625,6.8115315609375,9.808958065625,7.6678781609375,9.778429065625,8.203926060937501L11.834958265625,8.203926060937501C12.724392265625,8.203926060937501,13.448048265625,8.9279241609375,13.448048265625,9.8177003609375L13.448048265625,11.6429589609375C13.447879265625,11.9240299609375,13.220019265625,12.1517179609375,12.938948265625,12.1517179609375ZM2.590469365625,11.1338579609375L12.429846265625,11.1338579609375L12.429846265625,9.8175296609375C12.429846265625,9.4890451609375,12.162761265625,9.2216167609375,11.834617265625,9.2216167609375L9.430500065625,9.2216167609375C9.264722865625,9.2216167609375,9.109178065624999,9.1407747609375,9.013840165625,9.0050144609375C8.872450865625,8.8035907609375,8.784786665624999,8.566180660937501,8.759716065625,8.3187088609375C8.757498265625,8.297048060937499,8.756816365625,8.275217560937499,8.757327565625001,8.2530460609375C8.766537665625,7.9318942609375,8.906903265625001,6.5140867609375,9.382233665625,5.9604711609375C9.764955565625,5.4667200609375,9.988039065625,4.8535821609375,10.012086865625,4.206844560937499C10.007993665625,3.5977997609375,9.738519665625,2.9890956609375,9.272738965624999,2.5589607609375C8.808152665625,2.1300196609375,8.181710765624999,1.9115411609375,7.549300665625,1.9581022609375C7.524058365625,1.9601489609375,7.498986765625,1.9599783609375,7.473745865625,1.9582728609375C6.839117065625,1.9093241109374999,6.205683265625,2.1329191609375,5.740243465625,2.5664652609375C5.273439865625,3.0015461609375,5.006865265625001,3.6158783609375,5.008571165625,4.252041060937501C5.034154165625,4.8769476609375,5.257407865625,5.4873571609375,5.653943965625,5.9986748609375C6.119724265625,6.5352353609375,6.255314365625,7.9586710609375,6.262988565625,8.281186560937499C6.263500665625,8.299777060937501,6.262818365625,8.3185381609375,6.261283365625,8.3369574609375C6.239964465625,8.5837483609375,6.151788265625,8.8237166609375,6.006135965625,9.0307674609375C5.910737465625,9.1661872609375,5.755464065625,9.2467813609375,5.589816065625,9.2468585609375L3.1858702656249998,9.2468585609375C2.857725965625,9.2468585609375,2.590639965625,9.5142850609375,2.590639965625,9.8429412609375L2.590639965625,11.1338579609375L2.590469365625,11.1338579609375Z"
        fill="#0064FF"
        fill-opacity="1"
      />
    </g>
  </g>
</svg>
