<svg xmlns="http://www.w3.org/2000/svg" xmlns:xlink="http://www.w3.org/1999/xlink" fill="none" version="1.1" width="66" height="74" viewBox="0 0 66 74"><defs><clipPath id="master_svg0_527_59442"><rect x="0" y="0" width="66" height="74" rx="0"/></clipPath><linearGradient x1="0.5" y1="0" x2="0.5" y2="1" id="master_svg1_527_76800"><stop offset="0%" stop-color="#B7CDEE" stop-opacity="1"/><stop offset="100%" stop-color="#98BEF7" stop-opacity="0.4399999976158142"/></linearGradient></defs><g clip-path="url(#master_svg0_527_59442)"><g><path d="M4.28955078125,24.60546875L62.03956178125,24.60546875L62.03956178125,70.11545575L4.28955078125,70.11545575L4.28955078125,24.60546875Z" fill="#FFFFFF" fill-opacity="1" style="mix-blend-mode:passthrough"/></g><g><path d="M60.852013,74L5.1480012,74C2.3100007,74,0,71.409981,0,68.227989L0,13.171997C0,9.9899969,2.3100007,7.3999987,5.1480012,7.3999987L14.849999,7.3999987L14.849999,11.099998C14.849999,13.134998,16.334999,14.799997,18.150003,14.799997C19.965006,14.799997,21.449999,13.134998,21.449999,11.099998L21.449999,7.3999987L44.550011,7.3999987L44.550011,11.099998C44.550011,13.134998,46.035007,14.799997,47.850002,14.799997C49.665005,14.799997,51.149998,13.134998,51.149998,11.099998L51.149998,7.3999987L60.852013,7.3999987C63.69001,7.3999987,66,9.9899969,66,13.171997L66,68.227989C66,71.409981,63.69001,74,60.852013,74ZM59.399998,25.899996L6.6000013,25.899996L6.6000013,66.599983L59.399998,66.599983L59.399998,25.899996ZM14.849999,3.6999993C14.849999,1.6649997,16.334999,0,18.150003,0C19.965006,0,21.449999,1.6649997,21.449999,3.6999993L21.449999,7.3999987L14.849999,7.3999987L14.849999,3.6999993ZM44.550011,3.6999993C44.550011,1.6649997,46.035007,0,47.850002,0C49.665005,0,51.149998,1.6649997,51.149998,3.6999993L51.149998,7.3999987L44.550011,7.3999987L44.550011,3.6999993Z" fill="url(#master_svg1_527_76800)" fill-opacity="1" style="mix-blend-mode:passthrough"/></g><g><path d="M16.5,33.2999267578125L23.1000013,33.2999267578125L23.1000013,40.6999254578125L16.5,40.6999254578125L16.5,33.2999267578125ZM29.700003000000002,33.2999267578125L36.300001,33.2999267578125L36.300001,40.6999254578125L29.700003000000002,40.6999254578125L29.700003000000002,33.2999267578125ZM42.900005,33.2999267578125L49.5,33.2999267578125L49.5,40.6999254578125L42.900005,40.6999254578125L42.900005,33.2999267578125ZM16.5,48.0999237578125L23.1000013,48.0999237578125L23.1000013,55.499923757812496L16.5,55.499923757812496L16.5,48.0999237578125ZM29.700003000000002,48.0999237578125L36.300001,48.0999237578125L36.300001,55.499923757812496L29.700003000000002,55.499923757812496L29.700003000000002,48.0999237578125Z" fill="#C5D6F0" fill-opacity="1" style="mix-blend-mode:passthrough"/></g></g></svg>