<svg xmlns="http://www.w3.org/2000/svg" xmlns:xlink="http://www.w3.org/1999/xlink" fill="none" version="1.1" width="384" height="243.8919677734375" viewBox="0 0 384 243.8919677734375"><defs><mask id="master_svg0_218_47266" style="mask-type:alpha" maskUnits="objectBoundingBox"><g><path d="M0 0C0 0 0 0 0 0L384.0000305175781 0C384.0000305175781 0 384.0000305175781 0 384.0000305175781 0L384.0000305175781 243.89198303222656C384.0000305175781 243.89198303222656 384.0000305175781 243.89198303222656 384.0000305175781 243.89198303222656L0 243.89198303222656C0 243.89198303222656 0 243.89198303222656 0 243.89198303222656Z" fill="#FFFFFF" fill-opacity="1"/></g></mask><linearGradient x1="0.5" y1="0" x2="0.5" y2="0.34943687915802" id="master_svg1_218_47235"><stop offset="0%" stop-color="#5991F6" stop-opacity="0.6277503967285156"/><stop offset="99.91992712020874%" stop-color="#597AF6" stop-opacity="0"/></linearGradient><linearGradient x1="0.11182737350463867" y1="0.10655854642391205" x2="0.897414914106982" y2="0.489354519230893" id="master_svg2_218_47143"><stop offset="0%" stop-color="#D7DFFF" stop-opacity="1"/><stop offset="100%" stop-color="#9CB8FF" stop-opacity="1"/></linearGradient><linearGradient x1="1.0464541912078857" y1="0.2496887445449829" x2="-0.17177305373081828" y2="0.6144784127771199" id="master_svg3_218_47278"><stop offset="0%" stop-color="#FFFFFF" stop-opacity="1"/><stop offset="100%" stop-color="#FFFFFF" stop-opacity="0"/></linearGradient><linearGradient x1="0.11182737350463867" y1="0.10655854642391205" x2="1.223922012211818" y2="0.9442790940394548" id="master_svg4_218_47274"><stop offset="0%" stop-color="#D7DFFF" stop-opacity="1"/><stop offset="100%" stop-color="#9CB8FF" stop-opacity="1"/></linearGradient><linearGradient x1="0.11182737350463867" y1="0.10655854642391205" x2="1.554781922728527" y2="0.6161155620192957" id="master_svg5_218_47274"><stop offset="0%" stop-color="#D7DFFF" stop-opacity="1"/><stop offset="100%" stop-color="#9CB8FF" stop-opacity="1"/></linearGradient><linearGradient x1="0.11182737350463867" y1="0.10655854642391205" x2="1.3442013925819778" y2="0.8675980824739349" id="master_svg6_218_47274"><stop offset="0%" stop-color="#D7DFFF" stop-opacity="1"/><stop offset="100%" stop-color="#9CB8FF" stop-opacity="1"/></linearGradient><linearGradient x1="0.3326454162597656" y1="0" x2="0.1283786379507793" y2="1.0422534841902251" id="master_svg7_218_47157"><stop offset="0%" stop-color="#A2BBFF" stop-opacity="1"/><stop offset="100%" stop-color="#5E8CFF" stop-opacity="1"/></linearGradient><linearGradient x1="0.5" y1="0" x2="1.1339811313531003" y2="1.001678065321007" id="master_svg8_218_47164"><stop offset="0%" stop-color="#A2BBFF" stop-opacity="1"/><stop offset="100%" stop-color="#5E8CFF" stop-opacity="1"/></linearGradient><linearGradient x1="1" y1="0.11841905117034912" x2="0.37415194036833443" y2="1.1548090850985975" id="master_svg9_218_47154"><stop offset="0%" stop-color="#D7DFFF" stop-opacity="1"/><stop offset="100%" stop-color="#9CB8FF" stop-opacity="1"/></linearGradient><linearGradient x1="0.5" y1="0" x2="1.2817116109745395" y2="0.13041925175561087" id="master_svga_218_47164"><stop offset="0%" stop-color="#A2BBFF" stop-opacity="1"/><stop offset="100%" stop-color="#5E8CFF" stop-opacity="1"/></linearGradient><linearGradient x1="1.0415881872177124" y1="0" x2="-0.04875201136687179" y2="0.0012579988175787093" id="master_svgb_218_47151"><stop offset="0%" stop-color="#D7E0FF" stop-opacity="1"/><stop offset="100%" stop-color="#A6BFFF" stop-opacity="1"/></linearGradient><linearGradient x1="1.0415881872177124" y1="0" x2="-0.04875201136687179" y2="0.0012579988175787093" id="master_svgc_218_47151"><stop offset="0%" stop-color="#D7E0FF" stop-opacity="1"/><stop offset="100%" stop-color="#A6BFFF" stop-opacity="1"/></linearGradient><linearGradient x1="1.0415881872177124" y1="0" x2="-0.052386881996320946" y2="0.009388209594300534" id="master_svgd_218_47151"><stop offset="0%" stop-color="#D7E0FF" stop-opacity="1"/><stop offset="100%" stop-color="#A6BFFF" stop-opacity="1"/></linearGradient><linearGradient x1="1.0415881872177124" y1="0" x2="-0.05900015615308634" y2="0.0250829100602612" id="master_svge_218_47151"><stop offset="0%" stop-color="#D7E0FF" stop-opacity="1"/><stop offset="100%" stop-color="#A6BFFF" stop-opacity="1"/></linearGradient><linearGradient x1="0.5" y1="1" x2="0.5" y2="0" id="master_svgf_218_47161"><stop offset="0%" stop-color="#6994FF" stop-opacity="1"/><stop offset="100%" stop-color="#9CB6FF" stop-opacity="1"/></linearGradient><linearGradient x1="0.11182737350463867" y1="0.10655854642391205" x2="0.7677559132580022" y2="0.18292659042117432" id="master_svgg_218_47143"><stop offset="0%" stop-color="#D7DFFF" stop-opacity="1"/><stop offset="100%" stop-color="#9CB8FF" stop-opacity="1"/></linearGradient><linearGradient x1="0.11182737350463867" y1="0.10655854642391205" x2="0.29615070710478475" y2="1.0132560403567072" id="master_svgh_218_47143"><stop offset="0%" stop-color="#D7DFFF" stop-opacity="1"/><stop offset="100%" stop-color="#9CB8FF" stop-opacity="1"/></linearGradient><linearGradient x1="0.11182737350463867" y1="0.10655854642391205" x2="0.24842065330010557" y2="1.0011138722507127" id="master_svgi_218_47143"><stop offset="0%" stop-color="#D7DFFF" stop-opacity="1"/><stop offset="100%" stop-color="#9CB8FF" stop-opacity="1"/></linearGradient></defs><g><g style="opacity:0.7997002005577087;"><g><g></g><g><g><g mask="url(#master_svg0_218_47266)"><g><g style="opacity:0.4207349419593811;"><ellipse cx="193.2423553466797" cy="148.0770721435547" rx="138.4808807373047" ry="138.6968231201172" fill="url(#master_svg1_218_47235)" fill-opacity="1"/></g><g><path d="M116.64262210803223,66.61676633764648C115.94444110803224,57.85543293764648,108.63511510803222,50.963802337646484,99.72111310803223,50.963802337646484C90.34547610803223,50.963802337646484,82.74502010803222,58.587719437646484,82.74502010803222,67.99230033764648C82.74502010803222,69.42899533764648,82.92239310803222,70.82413333764649,83.25637210803222,72.15688333764649Q83.04792010803223,71.86590533764648,82.80664410803223,71.60167733764649Q82.56536910803223,71.33745033764649,82.29465290803222,71.10367633764648Q82.02393630803223,70.86990533764649,81.72757340803223,70.66986433764649Q81.43121150803222,70.46982533764648,81.11335660803223,70.30632033764648Q80.79550170803222,70.14281633764648,80.46061040803222,70.01813933764649Q80.12571910803223,69.89346133764649,79.77848530803223,69.80935833764649Q79.43125150803223,69.72525633764648,79.07654190803223,69.68290733764648Q78.72183230803222,69.64056033764649,78.36461920803222,69.64056033764649Q78.21674390803223,69.64056033764649,78.06904650803223,69.64783833764648Q77.92134950803222,69.65511733764649,77.77418610803223,69.66965633764649Q77.62702270803223,69.68419633764648,77.48074770803223,69.70595933764648Q77.33447260803223,69.72772433764649,77.18943930803222,69.75666233764649Q77.04440500803223,69.78560033764649,76.90096140803223,69.82164333764649Q76.75751780803223,69.85768533764649,76.61600970803222,69.90074333764649Q76.47450160803223,69.94380233764649,76.33527060803223,69.99377233764648Q76.19603940803222,70.04374333764649,76.05942060803223,70.10050733764649Q75.92280150803222,70.15727233764649,75.78912380803223,70.22069133764649Q75.65544600803223,70.28411333764649,75.52503180803222,70.35403633764648Q75.39461730803222,70.42395733764648,75.26778030803223,70.50021533764648Q75.14094350803222,70.57647333764649,75.01798960803222,70.65888233764649Q74.89503570803222,70.74129133764649,74.77626110803223,70.82965133764648Q74.65748640803223,70.91801433764648,74.54317740803222,71.01211533764649Q74.42886800803223,71.10621633764649,74.31929970803223,71.20582933764649Q74.20973130803223,71.30544233764648,74.10516760803223,71.41032833764649Q74.00060390803223,71.51521333764649,73.90129680803223,71.62512033764648Q73.80198980803223,71.73502733764649,73.70817880803223,71.84968933764648Q73.61436770803223,71.96435133764649,73.52627850803222,72.08349233764648Q73.43818930803222,72.20263333764649,73.35603400803222,72.32596633764649Q73.27387892803223,72.44929933764648,73.19785582803223,72.57653033764649Q73.12183272803223,72.70375833764649,73.05212473803223,72.83457533764648Q72.98241674803222,72.96539333764649,72.91919183803223,73.09948133764648Q72.85596704803223,73.23357233764648,72.79937755803223,73.37061333764649Q72.74278813803222,73.50765233764648,72.69297045803222,73.64731433764649Q72.64315274803222,73.78697633764648,72.60022678803223,73.92892033764649Q72.55730083803223,74.07086533764648,72.52137005803223,74.21475233764649Q72.48543926803222,74.35863833764648,72.45659021803223,74.50412033764648Q72.42774117003222,74.64960133764649,72.40604335803222,74.79632933764648Q72.38434553903222,74.94305633764648,72.36985122403223,75.09067333764648Q72.35535690603223,75.23829233764648,72.34810100683222,75.38644433764648Q72.34084510803223,75.53459933764648,72.34084510803223,75.68293033764648Q72.34084510803223,75.83126233764648,72.34810100683222,75.97941633764648Q72.35535690603223,76.12756933764649,72.36985122403223,76.27518633764649Q72.38434553903222,76.42280433764648,72.40604335803222,76.56953033764648Q72.42774117003222,76.71625533764649,72.45659021803223,76.86173833764649Q72.48543926803222,77.00721933764649,72.52137005803223,77.15110633764648Q72.55730081803223,77.29499233764648,72.60022675803222,77.43693733764648Q72.64315271803223,77.57888033764648,72.69297042803223,77.71854233764648Q72.74278813803222,77.85820233764649,72.79937755803223,77.99524333764649Q72.85596704803223,78.13228233764649,72.91919189803222,78.26637233764649Q72.98241674803222,78.40046533764648,73.05212473803223,78.53128233764649Q73.12183272803223,78.66209833764648,73.19785582803223,78.78932533764649Q73.27387892803223,78.91655333764649,73.35603400803222,79.0398863376465Q73.43818930803222,79.16321933764648,73.52627850803222,79.28236233764649Q73.61436770803223,79.40150433764649,73.70817880803223,79.51616833764649Q73.80198980803223,79.63082933764649,73.90129680803223,79.74073833764649Q74.00060390803223,79.85064333764649,74.10516760803223,79.95552833764648Q74.20973130803223,80.06041333764648,74.31929970803223,80.16002833764648Q74.42886800803223,80.25964133764649,74.54317740803222,80.35374433764649Q74.65748640803223,80.44784333764649,74.77626110803223,80.53620333764648Q74.89503570803222,80.62456533764649,75.01798960803222,80.70697433764649Q75.14094350803222,80.78938333764648,75.26778030803223,80.86563833764649Q75.39461730803222,80.94189833764648,75.52503180803222,81.01182133764648Q75.65544600803223,81.08174533764648,75.78912380803223,81.14516433764649Q75.92280150803222,81.20858333764649,76.05942060803223,81.26534833764649Q76.19603940803222,81.32211333764648,76.33527040803223,81.37208533764648Q76.47450160803223,81.42205833764649,76.61600970803222,81.46511833764649Q76.75751780803223,81.50817533764649,76.90096190803223,81.54421633764649Q77.04440500803223,81.58025733764649,77.18943930803222,81.60919533764648Q77.33447260803223,81.63813433764648,77.48074770803223,81.65990033764649Q77.62702270803223,81.68166733764649,77.77418610803223,81.69620533764649Q77.92134950803222,81.71074333764648,78.06904700803223,81.71802133764649Q78.21674390803223,81.72529933764648,78.36461920803222,81.72529933764648Q78.39489030803223,81.72529933764648,78.42516040803223,81.72499433764648L129.82761610803223,81.72499433764648C132.25460210803223,81.72499433764648,134.22206710803223,79.75753033764649,134.22206710803223,77.33054333764649C134.22206710803223,74.90355533764648,132.25460210803223,72.93609233764649,129.82761610803223,72.93609233764649L128.47186810803223,72.93609233764649Q128.74572210803223,71.99434833764649,128.74572210803223,71.01335933764648Q128.74572210803223,70.84480133764649,128.73747410803222,70.67644533764648Q128.72923110803222,70.50809133764648,128.71276310803222,70.34034333764649Q128.6962871080322,70.17259633764648,128.67162910803222,70.00586133764648Q128.64696710803224,69.83912633764649,128.61418710803224,69.67380533764648Q128.58140410803222,69.50848433764648,128.54057510803221,69.34497833764648Q128.49975010803223,69.18147133764649,128.45097110803223,69.02017033764648Q128.40218910803222,68.85886733764649,128.34557510803222,68.70016133764648Q128.28896510803224,68.54145433764648,128.22465710803223,68.38572733764649Q128.1603531080322,68.22999933764649,128.08850710803222,68.07762333764649Q128.01666410803222,67.92524733764648,127.93744810803223,67.77659233764649Q127.85823210803223,67.62793733764649,127.77184510803222,67.48336033764649Q127.68544910803223,67.33878133764648,127.59209210803223,67.19862933764648Q127.49873510803224,67.05847733764648,127.39863410803223,66.92309033764649Q127.29853610803222,66.78770233764648,127.19193410803223,66.65740533764648Q127.08532910803223,66.52710633764649,126.97247910803222,66.40221233764649Q126.85962910803222,66.27731933764649,126.74080810803223,66.15812933764649Q126.62198410803222,66.03894033764648,126.49747610803223,65.92574333764648Q126.37296510803222,65.81254633764648,126.24307010803223,65.70561433764648Q126.11316910803222,65.59868033764648,125.97820110803222,65.49827033764649Q125.84322510803223,65.39785933764648,125.70350410803223,65.30421333764649Q125.56378410803222,65.21056733764648,125.41965310803224,65.12391133764649Q125.27552210803222,65.03725433764649,125.12732110803222,64.95779633764649Q124.97912410803222,64.87833833764648,124.82721910803222,64.80626933764648Q124.67531010803222,64.73420133764648,124.52006310803222,64.66969633764649Q124.36481710803223,64.60519233764649,124.20659810803222,64.54840533764649Q124.04838410803222,64.49162133764648,123.88757910803223,64.44269133764648Q123.72677010803223,64.39376033764648,123.56376810803224,64.35280433764649Q123.40076210803223,64.31184733764648,123.23595210803222,64.27896433764649Q123.07113810803223,64.24608033764649,122.90492010803223,64.22134733764648Q122.73869910803222,64.19661533764648,122.57147010803223,64.18009333764648Q122.40423810803222,64.16357133764649,122.23639910803223,64.15530033764648Q122.06856010803223,64.14703033764648,121.90052210803222,64.14703033764648Q121.52541510803223,64.14703033764648,121.15256310803223,64.18814233764648Q120.77970310803224,64.22925533764649,120.41356110803223,64.31099133764648Q120.04741110803224,64.39272433764648,119.69236210803223,64.51410033764648Q119.33731310803222,64.63547633764648,118.99761010803223,64.79504233764648Q118.65790710803222,64.95460633764648,118.33761810803222,65.15044833764648Q118.01733610803223,65.34629133764648,117.72030110803223,65.57606733764649Q117.42326210803222,65.80584133764648,117.15303210803222,66.06679833764649Q116.88280310803222,66.32775333764648,116.64262210803223,66.61676633764648Z" fill-rule="evenodd" fill="#FFFFFF" fill-opacity="1"/></g><g><path d="M283.9551218300781,43.39502743408203C283.26925083007814,36.60750243408203,277.55508783007815,31.31043243408203,270.6075378300781,31.31043243408203C264.22392783007814,31.31043243408203,258.88159993007815,35.78246693408203,257.5243334300781,41.77367443408203C255.18136903007812,42.02373443408203,253.35647583007812,44.00684443408203,253.35647583007812,46.416181434082034C253.35647583007812,48.99485543408203,255.44690463007814,51.08528543408203,258.0255794300781,51.08528543408203L266.49819983007814,51.08528543408203L266.49819983007814,51.085315434082034L284.5576878300781,51.085315434082034C286.68130483007815,51.085315434082034,288.4028318300781,49.363784434082035,288.4028318300781,47.24017143408203C288.4028318300781,45.11655643408203,286.68130483007815,43.39502743408203,284.5576878300781,43.39502743408203L283.9551218300781,43.39502743408203Z" fill-rule="evenodd" fill="#FFFFFF" fill-opacity="1"/></g></g></g></g></g></g><g style="opacity:0.119309201836586;"><ellipse cx="191.35150146484375" cy="231.5678210258484" rx="59.02703857421875" ry="5.837840557098389" fill="#618DFA" fill-opacity="1"/></g><g><g><path d="M100.7207575046875,200.267172328125C102.3227438046875,195.868007628125,109.7218038046875,194.616114198125,114.2595448046875,194.773949938125C113.1007978046875,208.441578328125,98.6681447046875,208.155585328125,92.1072998046875,207.147191328125C94.2685435046875,206.685828328125,99.1348610046875,204.623168928125,100.7207575046875,200.267172328125Z" fill="url(#master_svg2_218_47143)" fill-opacity="1"/></g><g><path d="M106.0972324140625,201.9499431015625Q100.4884291140625,205.6228752015625,94.0589349440625,206.9253001015625L94.1161138840625,207.2075671015625Q100.5998793140625,205.8941479015625,106.2550094140625,202.1908789015625Q110.5166834140625,199.4001169015625,112.9516034140625,196.3203889425625L112.7256834140625,196.1417707275625Q110.3197744140625,199.1848075015625,106.0972324140625,201.9499431015625Z" fill-rule="evenodd" fill="url(#master_svg3_218_47278)" fill-opacity="1"/></g><g><path d="M145.4070335234375,157.3349881328125Q136.2301615234375,180.3670611328125,116.9017702634375,192.28424813281248L117.4056027834375,193.1014021328125Q137.0043985234375,181.0174941328125,146.2988505234375,157.6903231328125Q149.8623125234375,148.7467671328125,151.4697225234375,139.1208221328125Q152.8069765234375,131.11270383281249,152.5444565234375,124.5210548568125L151.5852165234375,124.5592576428125Q151.8437995234375,131.0521006328125,150.5228305234375,138.9627041328125Q148.9323785234375,148.4870891328125,145.4070335234375,157.3349881328125Z" fill-rule="evenodd" fill="url(#master_svg4_218_47274)" fill-opacity="1"/></g><g><path d="M118.49529721875,165.63246389453124Q114.95696351875,171.07114389453125,105.29381459975,172.88406789453126L105.47083383775,173.82760789453124Q115.53766621875,171.93894789453125,119.29998821875,166.15598489453126Q120.45379421875,164.38249789453124,120.71696321875,162.62158189453126Q127.03247621874999,159.32435589453124,128.28131721875,143.45935823353125L127.32427621875,143.38402311553125Q126.17246421875001,158.01634889453126,120.79374521875,161.46345089453126Q120.75856321875,159.34629289453125,119.45756121875,158.22217989453125Q118.18627321875,157.12428489453126,116.71041821875,157.82006489453124Q115.48889721875,158.39593989453124,114.86751651875,159.79267689453124Q114.20559311875,161.28054589453126,114.85248281875,162.36454989453125Q115.61031021875,163.63445689453124,117.77794021875,163.45756689453125Q118.75749721875,163.37757689453124,119.64829821875,163.07743689453125Q119.33502221875,164.34174689453124,118.49529721875,165.63246389453124ZM119.82136521875,161.98051689453126Q119.83464621875,161.78210789453124,119.83472321875,161.58436989453125Q119.83541321875,159.81736989453125,118.82991921875,158.94858789453124Q118.03114121875,158.25875689453125,117.11979021875,158.68840489453126Q116.22099121875,159.11213689453126,115.74463321875,160.18288989453126Q115.28502271875,161.21600189453125,115.67685321875,161.87259889453125Q116.12824221875,162.62899989453126,117.69985821875,162.50074789453126Q118.82421221875,162.40893389453126,119.82136521875,161.98051689453126Z" fill-rule="evenodd" fill="url(#master_svg5_218_47274)" fill-opacity="1"/></g><g><path d="M156.000978390625,174.556975625Q151.666348890625,183.835615625,145.630943880625,186.367835625L146.002356900625,187.253078625Q152.379336790625,184.577545625,156.870748390625,174.963299625Q160.168653390625,167.903855825,161.337945390625,160.317264952L160.389147390625,160.171030648Q159.240771390625,167.621923425,156.000978390625,174.556975625Z" fill-rule="evenodd" fill="url(#master_svg6_218_47274)" fill-opacity="1"/></g></g><g transform="matrix(-1,0,0,1,487.783447265625,0)"><g><g><g><path d="M243.8917236328125 108.61175346374512C243.8917236328125 101.86313757911067 249.36255774512628 96.39230346679688 256.11117362976074 96.39230346679688L327.93655586242676 96.39230346679688C334.6851717470612 96.39230346679688 340.156005859375 101.86313757911067 340.156005859375 108.61175346374512L340.156005859375 203.13162422180176C340.156005859375 209.88024010643622 334.6851717470612 215.35107421875 327.93655586242676 215.35107421875L256.11117362976074 215.35107421875C249.36255774512628 215.35107421875 243.8917236328125 209.88024010643622 243.8917236328125 203.13162422180176Z" fill="url(#master_svg7_218_47157)" fill-opacity="1"/></g><g><ellipse cx="293.7434844970703" cy="96.39234924316406" rx="12.033035278320312" ry="12.068283081054688" fill="url(#master_svg8_218_47164)" fill-opacity="1"/></g><g><path d="M297.1378934609375,84.73922729492188C303.6553914609375,84.73922729492188,308.9388734609375,90.03817749492188,308.9388734609375,96.57476329492188L339.1795954609375,96.57476329492188C342.4388194609375,96.57476329492188,345.0809404609375,99.22462429492188,345.0809404609375,102.49339829492187L345.0809404609375,209.0166872949219C345.0809404609375,210.58640729492186,344.4592054609375,212.0917972949219,343.3524624609375,213.20177729492187C342.24575046093753,214.31173729492187,340.7447284609375,214.93531729492187,339.1795954609375,214.93531729492187L254.3587417609375,214.93531729492187C252.7936081609375,214.93531729492187,251.2925772609375,214.31173729492187,250.1858613609375,213.20177729492187C249.0791443009375,212.0917972949219,248.45739746093747,210.58640729492186,248.4573974609375,209.0166872949219L248.4573974609375,102.49684129492188C248.4573974609375,99.22807229492187,251.0995194609375,96.57821529492188,254.3587417609375,96.57821529492188L285.3369254609375,96.57821529492188C285.3360134609375,93.43863579492188,286.5789294609375,90.42733429492188,288.7921334609375,88.20699479492187C291.0053404609375,85.98665559492187,294.0074844609375,84.73922716168633,297.1378934609375,84.73922729492188Z" fill="url(#master_svg9_218_47154)" fill-opacity="1"/></g><g><path d="M339.917206,205.018947C331.068905,206.480931,315.211096,207.074003,292.34375,206.798155L335.695328,191.359375C336.643867,196.0426435,338.058231,200.618721,339.917206,205.018947L339.917206,205.018947Z" fill-rule="evenodd" fill="url(#master_svga_218_47164)" fill-opacity="1"/></g><g><path d="M255.0948486328125,108.41256713867188L339.1799776328125,108.41256713867188C338.4133076328125,144.51627313867186,338.02997563281247,166.24377413867188,338.02997563281247,173.5950851386719C337.9362566328125,182.92376713867188,339.2590026328125,192.21241013867188,341.9527356328125,201.14180713867188C332.3710026328125,204.0037001386719,312.8224756328125,206.80011013867187,297.1382756328125,206.80011013867187C284.1396046328125,206.6355441386719,271.1595746328125,205.75958213867187,258.2560987328125,204.17611713867188C256.1485986328125,203.1359481386719,255.0948486328125,192.5537951386719,255.0948486328125,172.42963413867187L255.0948486328125,108.41256713867188Z" fill-rule="evenodd" fill="#FFFFFF" fill-opacity="1"/></g><g><path d="M264.5203857421875 123.78039145469666C264.5203857421875 122.93681446911735 265.2042400062267 122.25296020507812 266.04781699180603 122.25296020507812L331.7531397342682 122.25296020507812C332.5967167198475 122.25296020507812 333.2805709838867 122.93681446911735 333.2805709838867 123.78039145469666L333.2805709838867 124.17361044883728C333.2805709838867 125.01718743441658 332.5967167198475 125.70104169845581 331.7531397342682 125.70104169845581L266.04781699180603 125.70104169845581C265.2042400062267 125.70104169845581 264.5203857421875 125.01718743441658 264.5203857421875 124.17361044883728Z" fill="url(#master_svgb_218_47151)" fill-opacity="1"/></g><g><path d="M264.5203857421875 134.1239583492279C264.5203857421875 133.2803813636486 265.2042400062267 132.59652709960938 266.04781699180603 132.59652709960938L331.7531397342682 132.59652709960938C332.5967167198475 132.59652709960938 333.2805709838867 133.2803813636486 333.2805709838867 134.1239583492279L333.2805709838867 134.51717734336853C333.2805709838867 135.36075432894785 332.5967167198475 136.04460859298706 331.7531397342682 136.04460859298706L266.04781699180603 136.04460859298706C265.2042400062267 136.04460859298706 264.5203857421875 135.36075432894785 264.5203857421875 134.51717734336853Z" fill="url(#master_svgc_218_47151)" fill-opacity="1"/></g><g><path d="M264.5203857421875 143.50913381576538C264.5203857421875 142.2437684032339 265.5461670848745 141.21798706054688 266.811532497406 141.21798706054688L300.04733896255493 141.21798706054688C301.3127043750864 141.21798706054688 302.33848571777344 142.2437684032339 302.33848571777344 143.50913381576538L302.33848571777344 144.09896230697632C302.33848571777344 145.3643277195078 301.3127043750864 146.39010906219482 300.04733896255493 146.39010906219482L266.811532497406 146.39010906219482C265.5461670848745 146.39010906219482 264.5203857421875 145.3643277195078 264.5203857421875 144.09896230697632Z" fill="url(#master_svgd_218_47151)" fill-opacity="1"/></g><g><path d="M264.5203857421875 189.29384970664978C264.5203857421875 188.45027272107046 265.2042400062267 187.76641845703125 266.04781699180603 187.76641845703125L278.46399903297424 187.76641845703125C279.30757601855356 187.76641845703125 279.9914302825928 188.45027272107046 279.9914302825928 189.29384970664978L279.9914302825928 189.6870687007904C279.9914302825928 190.53064568636972 279.30757601855356 191.21449995040894 278.46399903297424 191.21449995040894L266.04781699180603 191.21449995040894C265.2042400062267 191.21449995040894 264.5203857421875 190.53064568636972 264.5203857421875 189.6870687007904Z" fill="url(#master_svge_218_47151)" fill-opacity="1"/></g><g><ellipse cx="297.82374811172485" cy="97.07870435714722" rx="6.4737725257873535" ry="6.492736339569092" fill="url(#master_svgf_218_47161)" fill-opacity="1"/></g><g><ellipse cx="297.1813178062439" cy="96.39259243011475" rx="6.8760199546813965" ry="6.896162986755371" fill="#FFFFFF" fill-opacity="1"/></g></g></g></g><g transform="matrix(0.9612616896629333,0.27563735842704773,-0.27563735842704773,0.9612616896629333,27.271174857616643,-62.786301569851275)"><g style="opacity:0.598800003528595;"><ellipse cx="254.37600135803223" cy="95.21222794055939" rx="6.753931045532227" ry="1.9085780382156372" fill="url(#master_svgg_218_47143)" fill-opacity="1"/></g><g style="opacity:0.5764999985694885;"><path d="M248.4602188465625,95.1817412578125C250.3188917265625,95.9381012578125,259.3799212265625,82.7558642578125,260.6577572265625,79.2982311578125C261.9355952265625,75.8405961578125,260.5415942265625,71.9507576578125,257.5212497265625,70.7621959778125C254.5009041265625,69.5736342678125,251.0158939265625,71.4105026578125,249.7380562265625,74.9761881578125C248.4602188465625,78.5418729578125,246.4853791265625,94.4253822578125,248.4602188465625,95.1817412578125Z" fill="url(#master_svgh_218_47143)" fill-opacity="1"/></g><g><path d="M248.92044844921875,94.23971335546875C251.07829544921876,93.61295735546875,250.75461844921875,75.54128075546875,249.67569744921875,71.46731755546875C248.59677244921875,67.39335545546875,245.03632354921876,64.88630217546876,241.58376744921875,65.82644720546875C238.13121234921874,66.76659235546875,236.29704206921875,70.84055475546874,237.26807328921876,74.91451455546876C238.23910484921876,78.98847535546875,246.76260184921875,94.86648035546875,248.92044844921875,94.23971335546875Z" fill="url(#master_svgi_218_47143)" fill-opacity="1"/></g></g></g></g></svg>