<svg xmlns="http://www.w3.org/2000/svg" xmlns:xlink="http://www.w3.org/1999/xlink" fill="none" version="1.1" width="16" height="16" viewBox="0 0 16 16"><defs><clipPath id="master_svg0_80_23931"><rect x="0" y="0" width="16" height="16" rx="0"/></clipPath></defs><g clip-path="url(#master_svg0_80_23931)"><g><path d="M11.73327734375,8.8839155625C11.88952734375,8.7274963625,12.14303734375,8.7274963625,12.29927734375,8.8839155625L13.44194734375,10.0265815625C13.59791734375,10.1827515625,13.59791734375,10.4357515625,13.44194734375,10.5919115625L10.58461734375,13.449251562499999C10.50966734375,13.5242815625,10.40799734375,13.566491562500001,10.30194734375,13.5665815625L9.15927834375,13.5665815625C8.93836534375,13.5665815625,8.7592791748,13.3874915625,8.75927856445,13.1665815625L8.75927856445,12.0239115625C8.75901855475,11.9177315625,8.80099064375,11.8157915625,8.87594534375,11.740581562500001L11.73327734375,8.8839155625ZM9.55927834375,12.1892515625L9.55927834375,12.7665815625L10.13594734375,12.7665815625L12.59327734375,10.3092515625L12.01594734375,9.7319155625L9.55927834375,12.1892515625Z" fill="#0064FF" fill-opacity="1"/></g><g><path d="M4.68809278125,2.435303039551C4.14875878125,2.435303039551,3.71142578125,2.872636734375,3.71142578125,3.411969734375L3.71142578125,12.588002734375C3.71142578125,13.128002734375,4.14875878125,13.564602734375,4.68809278125,13.564602734375L7.74675578125,13.564602734375C8.00449578125,13.564602734375,8.213425781249999,13.355702734375,8.213425781249999,13.098002734375C8.213425781249999,12.840202734375,8.00449578125,12.631302734375,7.74675578125,12.631302734375L4.68809278125,12.631302734375C4.6641597812499995,12.631302734375,4.64475878125,12.611902734375,4.64475878125,12.588002734375L4.64475878125,3.411969734375C4.64475878125,3.387969734375,4.66475878125,3.368636734375,4.68809278125,3.368636734375L9.31942578125,3.368636734375L9.31942578125,5.451302734375C9.31942578125,5.7090327343750005,9.52835578125,5.917972734375001,9.786095781250001,5.917972734375001L11.86875578125,5.917972734375001L11.86875578125,7.744632734375C11.86876578125,8.002372734375001,12.07769578125,8.211302734375,12.33542578125,8.211302734375C12.59315578125,8.211302734375,12.80209578125,8.002372734375001,12.80209578125,7.744632734375L12.80209578125,5.457972734375L12.80209578125,5.451302734375C12.80209578125,5.328632734375001,12.75542578125,5.217302734375,12.67809578125,5.133972734375L10.38809578125,2.589969734375C10.29967578125,2.491620934375,10.173675781250001,2.435407257375,10.04142578125,2.435302734375L4.68809278125,2.435303039551ZM10.25275578125,3.835302734375L11.28742578125,4.984632734374999L10.25275578125,4.984632734374999L10.25275578125,3.834632734375L10.25275578125,3.835302734375Z" fill="#0064FF" fill-opacity="1"/></g></g></svg>