<svg xmlns="http://www.w3.org/2000/svg" xmlns:xlink="http://www.w3.org/1999/xlink" fill="none" version="1.1" width="12" height="12" viewBox="0 0 12 12"><g><path d="M10.363636,0L1.6363636,0C0.76363635,0,0,0.76363635,0,1.6363636L0,10.363636C0,11.236363,0.76363635,12,1.6363636,12L10.363636,12C11.236363,12,12,11.236363,12,10.363636L12,1.6363636C12,0.76363635,11.236363,0,10.363636,0ZM10.909063,10.363669C10.909063,10.690943,10.690882,10.909124,10.363608,10.909124L1.6363358,10.909124C1.3090632,10.909124,1.0908813,10.690943,1.0908813,10.363669L1.0908813,1.6363969C1.0908813,1.3091242,1.3090632,1.0909424,1.6363358,1.0909424L10.363608,1.0909424C10.690882,1.0909424,10.909063,1.3091242,10.909063,1.6363969L10.909063,10.363669ZM6.5454321,5.4545231L8.1817961,5.4545231C8.5090685,5.4545231,8.7272511,5.6727047,8.7272511,5.9999781C8.7272511,6.3272505,8.5090685,6.5454321,8.1817961,6.5454321L6.5454321,6.5454321L6.5454321,8.1817961C6.5454321,8.5090685,6.3272505,8.7272511,5.9999781,8.7272511C5.6727052,8.7272511,5.4545231,8.5090685,5.4545231,8.1817961L5.4545231,6.5454321L3.8181596,6.5454321C3.4908869,6.5454321,3.2727051,6.3272505,3.2727051,5.9999781C3.2727051,5.6727052,3.4908869,5.4545231,3.8181596,5.4545231L5.4545231,5.4545231L5.4545231,3.8181596C5.4545231,3.4908869,5.6727052,3.2727051,5.9999781,3.2727051C6.3272505,3.2727051,6.5454321,3.4908869,6.5454321,3.8181596L6.5454321,5.4545231Z" fill-rule="evenodd" fill="#999999" fill-opacity="1"/></g></svg>