<svg xmlns="http://www.w3.org/2000/svg" xmlns:xlink="http://www.w3.org/1999/xlink" fill="none" version="1.1" width="16" height="16" viewBox="0 0 16 16"><defs><clipPath id="master_svg0_42_19645"><rect x="0" y="0" width="16" height="16" rx="0"/></clipPath></defs><g clip-path="url(#master_svg0_42_19645)"><g><path d="M13.81251689453125,4C13.81251689453125,4,12.64061689453125,4,12.64061689453125,4C12.56091689453125,4,12.48591689453125,4.0390626,12.43911689453125,4.103125C12.43911689453125,4.103125,8.00001689453125,10.221879999999999,8.00001689453125,10.221879999999999C8.00001689453125,10.221879999999999,3.56095689453125,4.103125,3.56095689453125,4.103125C3.51407689453125,4.0390626,3.43907689453125,4,3.3593868945312497,4C3.3593868945312497,4,2.18751489453125,4,2.18751489453125,4C2.08595229453125,4,2.02657729453125,4.115625,2.08595229453125,4.198438C2.08595229453125,4.198438,7.59532689453125,11.79375,7.59532689453125,11.79375C7.79532689453125,12.06875,8.204706894531249,12.06875,8.40313689453125,11.79375C8.40313689453125,11.79375,13.91251689453125,4.198438,13.91251689453125,4.198438C13.97341689453125,4.115625,13.91411689453125,4,13.81251689453125,4C13.81251689453125,4,13.81251689453125,4,13.81251689453125,4Z" fill="#666666" fill-opacity="1"/></g></g></svg>