<svg xmlns="http://www.w3.org/2000/svg" xmlns:xlink="http://www.w3.org/1999/xlink" fill="none" version="1.1" width="10" height="9.333984375" viewBox="0 0 10 9.333984375"><g><g><path d="M0,4.10667L3.92857,4.10667L3.92857,0L0,0L0,4.10667ZM9.64288,1.11971L5.16574,1.11971C4.96849,1.11971,4.80859,0.952567,4.80859,0.74638C4.80859,0.540194,4.96849,0.373047,5.16574,0.373047L9.64288,0.373047C9.84012,0.373047,10,0.540194,10,0.74638C10,0.952567,9.84012,1.11971,9.64288,1.11971ZM0.713867,0.74707L3.21387,0.74707L3.21387,3.3604L0.713867,3.3604L0.713867,0.74707ZM5.16574,2.98633L9.64288,2.98633C9.84012,2.98633,10,3.15348,10,3.35966C10,3.56585,9.84012,3.73299,9.64288,3.73299L5.16574,3.73299C4.96849,3.73299,4.80859,3.56585,4.80859,3.35966C4.80859,3.15348,4.96849,2.98633,5.16574,2.98633ZM0,9.33323L3.92857,9.33323L3.92857,5.22656L0,5.22656L0,9.33323ZM9.64288,5.59961L5.16574,5.59961C4.96849,5.59961,4.80859,5.76676,4.80859,5.97294C4.80859,6.17913,4.96849,6.34628,5.16574,6.34628L9.64288,6.34628C9.84012,6.34628,10,6.17913,10,5.97294C10,5.76676,9.84012,5.59961,9.64288,5.59961ZM0.713867,5.97363L3.21387,5.97363L3.21387,8.58697L0.713867,8.58697L0.713867,5.97363ZM9.64288,8.21289L5.16574,8.21289C4.96849,8.21289,4.80859,8.38004,4.80859,8.58622C4.80859,8.79241,4.96849,8.95956,5.16574,8.95956L9.64288,8.95956C9.84012,8.95956,10,8.79241,10,8.58622C10,8.38004,9.84012,8.21289,9.64288,8.21289Z" fill-rule="evenodd" fill="#0064FF" fill-opacity="1"/></g></g></svg>