<svg xmlns="http://www.w3.org/2000/svg" xmlns:xlink="http://www.w3.org/1999/xlink" fill="none" version="1.1" width="15" height="14.15234375" viewBox="0 0 15 14.15234375"><g><g><path d="M10.028,14.1527C11.0687,14.153,12.0217,13.57,12.4954,12.6434L14.6963,8.33748C15.1012,7.5458,15.1012,6.6078,14.6963,5.81525L12.4954,1.50933C12.0216,0.583528,11.0688,0,10.028,0L5.01753,0C3.98553,-0.0000243323,3.03905,0.57357,2.56149,1.48843L0.314474,5.79435C-0.104825,6.5976,-0.104825,7.55513,0.314474,8.35839L2.56149,12.6634C3.03881,13.5786,3.98534,14.1526,5.01753,14.1527L10.028,14.1527ZM11.5261,2.00412L13.7269,6.30916L13.7269,6.31003C13.9727,6.79081,13.9727,7.36036,13.7269,7.84114L11.5261,12.1471C11.2386,12.7097,10.6603,13.0633,10.028,13.0633L5.01754,13.0633C4.39092,13.0632,3.81628,12.7148,3.52649,12.1592L1.27948,7.8542C1.02468,7.36639,1.02468,6.78478,1.27948,6.29697L3.52649,1.99192C3.81564,1.43627,4.39046,1.08789,5.01754,1.08789L10.028,1.08789C10.6598,1.08767,11.2385,1.44157,11.5261,2.00412Z" fill-rule="evenodd" fill="#999999" fill-opacity="1"/></g><g><path d="M4.76553638394165,8.654937586517335C5.32950638394165,9.631767586517334,6.37176838394165,10.233517586517333,7.49970838394165,10.233517586517333C9.243348383941651,10.233517586517333,10.65685838394165,8.820007586517335,10.65685838394165,7.076367586517334C10.65685838394165,5.332717586517334,9.243348383941651,3.919217586517334,7.49970838394165,3.919217586517334C6.37176838394165,3.919217586517334,5.32950638394165,4.520966586517334,4.76553638394165,5.497787586517334C4.2015653839416505,6.4746175865173345,4.2015653839416505,7.678117586517335,4.76553638394165,8.654937586517335ZM9.29125838394165,8.109817586517334C8.92175838394165,8.749807586517335,8.23889838394165,9.144057586517334,7.49989838394165,9.144057586517334C6.357518383941651,9.144057586517334,5.43142838394165,8.217967586517334,5.43142838394165,7.075587586517334C5.43142838394165,5.933197586517334,6.357518383941651,5.007107586517334,7.49989838394165,5.007107586517334C8.23889838394165,5.007107586517334,8.92175838394165,5.401357586517334,9.29125838394165,6.041347586517334C9.660748383941652,6.6813375865173334,9.660748383941652,7.469837586517334,9.29125838394165,8.109817586517334Z" fill-rule="evenodd" fill="#999999" fill-opacity="1"/></g></g></svg>