<svg xmlns="http://www.w3.org/2000/svg" xmlns:xlink="http://www.w3.org/1999/xlink" fill="none" version="1.1" width="16" height="16" viewBox="0 0 16 16"><defs><clipPath id="master_svg0_21_17361"><rect x="0" y="0" width="16" height="16" rx="0"/></clipPath></defs><g clip-path="url(#master_svg0_21_17361)"><g><path d="M11.77129375,9.88568375L10.82853375,8.94288375L11.77129375,8.00008375C12.81269375,6.95868375,12.81269375,5.27025375,11.77129375,4.22885375C10.72993375,3.18745375,9.04146375,3.18745375,8.000063749999999,4.22885375L7.05726375,5.1716637500000004L6.11447375,4.22885375L7.05726375,3.28604375C8.61940375,1.72394675,11.15206375,1.72394675,12.71409375,3.28604375C14.27619375,4.84814375,14.27619375,7.38081375,12.71409375,8.94288375L11.77129375,9.88568375ZM9.88573375,11.77139375L8.94286375,12.71419375C7.38080375,14.27619375,4.84814375,14.27619375,3.28604375,12.71419375C1.72394675,11.15201375,1.72394675,8.619343749999999,3.28604375,7.05728375L4.22885375,6.11447375L5.1716637500000004,7.05728375L4.22885375,8.00008375C3.18745375,9.041483750000001,3.18745375,10.72994375,4.22885375,11.77139375C5.27025375,12.81279375,6.95866375,12.81279375,8.000063749999999,11.77139375L8.94286375,10.82854375L9.88573375,11.77139375ZM9.88573375,5.1716637500000004L10.82853375,6.11447375L6.11447375,10.82854375L5.1716637500000004,9.88568375L9.88573375,5.1716637500000004ZM3.85026375,1.5286867499999999L5.13816375,1.18359375L5.82834375,3.75939375L4.54044375,4.10448375L3.85026375,1.5286867499999999ZM10.17186375,12.24079375L11.45969375,11.89569375L12.14989375,14.47149375L10.86200375,14.81659375L10.17186375,12.24079375ZM1.5286867499999999,3.85026375L4.10448375,4.54044375L3.75939375,5.82834375L1.18359375,5.13816375L1.5286867499999999,3.85026375ZM12.24079375,10.17181375L14.81659375,10.86201375L14.47149375,12.14999375L11.89569375,11.45979375L12.24079375,10.17181375Z" fill="#000000" fill-opacity="0.44999998807907104" style="mix-blend-mode:passthrough"/></g></g></svg>