<svg xmlns="http://www.w3.org/2000/svg" xmlns:xlink="http://www.w3.org/1999/xlink" fill="none" version="1.1" width="13.199999809265137" height="13.894736289978027" viewBox="0 0 13.199999809265137 13.894736289978027"><g><path d="M13.1667,13.1958C12.8467,10.0761,10.2112,7.64211,7.00642,7.64211L6.19393,7.64211C2.98876,7.64211,0.352926,10.0765,0.033,13.1969C0.0128526,13.2521,0,13.3112,0,13.3737C0,13.6613,0.233084,13.8947,0.521053,13.8947C0.809021,13.8947,1.04211,13.6613,1.04211,13.3737C1.04211,13.3125,1.0296,13.2545,1.01015,13.2L1.09352,13.2C1.43394,10.6517,3.61124,8.68421,6.25263,8.68421L6.94737,8.68421C9.58876,8.68421,11.7657,10.6517,12.1065,13.2L12.1899,13.2C12.1704,13.2545,12.1579,13.3125,12.1579,13.3737C12.1579,13.6613,12.3913,13.8947,12.6789,13.8947C12.9666,13.8947,13.2,13.6613,13.2,13.3737C13.2,13.3108,13.1871,13.2514,13.1667,13.1958ZM6.6,7.29474C8.51852,7.29474,10.0737,5.73922,10.0737,3.82105L10.0737,3.47368C10.0737,1.55552,8.51852,0,6.6,0C4.68149,0,3.12632,1.55552,3.12632,3.47368L3.12632,3.82105C3.12632,5.73922,4.68149,7.29474,6.6,7.29474ZM4.16842,3.47368C4.16842,2.13076,5.25707,1.04211,6.6,1.04211C7.94258,1.04211,9.03158,2.13076,9.03158,3.47368L9.03158,3.82105C9.03158,5.16398,7.94258,6.25263,6.6,6.25263C5.25707,6.25263,4.16842,5.16398,4.16842,3.82105L4.16842,3.47368Z" fill="#000000" fill-opacity="0.45098039507865906" style="mix-blend-mode:passthrough"/></g></svg>