<svg xmlns="http://www.w3.org/2000/svg" xmlns:xlink="http://www.w3.org/1999/xlink" fill="none" version="1.1" width="12" height="12" viewBox="0 0 12 12"><g><g><path d="M6,0C2.69333,0,0,2.69333,0,6C0,9.30667,2.69333,12,6,12C9.30667,12,12,9.30667,12,6C12,2.69333,9.30667,0,6,0ZM5.99961,3.86641C5.77294,3.86641,5.59961,3.69307,5.59961,3.46641C5.59961,3.23974,5.77294,3.06641,5.99961,3.06641C6.22628,3.06641,6.39961,3.23974,6.39961,3.46641C6.39961,3.69307,6.22628,3.86641,5.99961,3.86641ZM5.99961,8.93424C6.22628,8.93424,6.39961,8.74758,6.39961,8.53424L6.39961,4.66758C6.39961,4.44091,6.22628,4.26758,5.99961,4.26758C5.77294,4.26758,5.59961,4.45424,5.59961,4.66758L5.59961,8.53424C5.59961,8.76091,5.77294,8.93424,5.99961,8.93424Z" fill-rule="evenodd" fill="#2F8DF5" fill-opacity="1"/></g></g></svg>