<svg xmlns="http://www.w3.org/2000/svg" xmlns:xlink="http://www.w3.org/1999/xlink" fill="none" version="1.1" width="256" height="244" viewBox="0 0 256 244"><defs><mask id="master_svg0_200_00234" style="mask-type:alpha" maskUnits="objectBoundingBox"><path d="M0 17C0 17 0 17 0 17L256 17C256 17 256 17 256 17L256 179.59458923339844C256 179.59458923339844 256 179.59458923339844 256 179.59458923339844L0 179.59458923339844C0 179.59458923339844 0 179.59458923339844 0 179.59458923339844Z" fill="#FFFFFF" fill-opacity="1"/></mask><linearGradient x1="0.5" y1="0" x2="0.5" y2="0.34943687915802" id="master_svg1_200_00204"><stop offset="0%" stop-color="#5991F6" stop-opacity="0.6277503967285156"/><stop offset="99.91992712020874%" stop-color="#597AF6" stop-opacity="0"/></linearGradient><linearGradient x1="0.11182737350463867" y1="0.10655854642391205" x2="0.8974149288656005" y2="0.48935475401884365" id="master_svg2_177_04563"><stop offset="0%" stop-color="#D7DFFF" stop-opacity="1"/><stop offset="100%" stop-color="#9CB8FF" stop-opacity="1"/></linearGradient><linearGradient x1="1.0464541912078857" y1="0.2496887445449829" x2="-0.17177307304490397" y2="0.6144785413206846" id="master_svg3_177_04560"><stop offset="0%" stop-color="#FFFFFF" stop-opacity="1"/><stop offset="100%" stop-color="#FFFFFF" stop-opacity="0"/></linearGradient><linearGradient x1="0.11182737350463867" y1="0.10655854642391205" x2="1.223922165704818" y2="0.9442790150686604" id="master_svg4_177_04557"><stop offset="0%" stop-color="#D7DFFF" stop-opacity="1"/><stop offset="100%" stop-color="#9CB8FF" stop-opacity="1"/></linearGradient><linearGradient x1="0.11182737350463867" y1="0.10655854642391205" x2="1.5547817260352899" y2="0.6161159367556648" id="master_svg5_177_04557"><stop offset="0%" stop-color="#D7DFFF" stop-opacity="1"/><stop offset="100%" stop-color="#9CB8FF" stop-opacity="1"/></linearGradient><linearGradient x1="0.11182737350463867" y1="0.10655854642391205" x2="1.344201034817584" y2="0.8675983601000681" id="master_svg6_177_04557"><stop offset="0%" stop-color="#D7DFFF" stop-opacity="1"/><stop offset="100%" stop-color="#9CB8FF" stop-opacity="1"/></linearGradient><linearGradient x1="0.3326454162597656" y1="0" x2="0.12837871059782197" y2="1.0422534912051538" id="master_svg7_177_04553"><stop offset="0%" stop-color="#A2BBFF" stop-opacity="1"/><stop offset="100%" stop-color="#5E8CFF" stop-opacity="1"/></linearGradient><linearGradient x1="0.5" y1="0" x2="1.1339811306184122" y2="1.001678065783286" id="master_svg8_177_04549"><stop offset="0%" stop-color="#A2BBFF" stop-opacity="1"/><stop offset="100%" stop-color="#5E8CFF" stop-opacity="1"/></linearGradient><linearGradient x1="1" y1="0.11841905117034912" x2="0.37415175026804565" y2="1.1548090355101048" id="master_svg9_177_04545"><stop offset="0%" stop-color="#D7DFFF" stop-opacity="1"/><stop offset="100%" stop-color="#9CB8FF" stop-opacity="1"/></linearGradient><linearGradient x1="0.5" y1="0" x2="1.2817116103167505" y2="0.13041925093084927" id="master_svga_177_04549"><stop offset="0%" stop-color="#A2BBFF" stop-opacity="1"/><stop offset="100%" stop-color="#5E8CFF" stop-opacity="1"/></linearGradient><linearGradient x1="1.0415881872177124" y1="0" x2="-0.048752011081211154" y2="0.0012579981911642335" id="master_svgb_177_04539"><stop offset="0%" stop-color="#D7E0FF" stop-opacity="1"/><stop offset="100%" stop-color="#A6BFFF" stop-opacity="1"/></linearGradient><linearGradient x1="1.0415881872177124" y1="0" x2="-0.048752011081211154" y2="0.0012579981911642335" id="master_svgc_177_04539"><stop offset="0%" stop-color="#D7E0FF" stop-opacity="1"/><stop offset="100%" stop-color="#A6BFFF" stop-opacity="1"/></linearGradient><linearGradient x1="1.0415881872177124" y1="0" x2="-0.05238687895066029" y2="0.009388202643892285" id="master_svgd_177_04539"><stop offset="0%" stop-color="#D7E0FF" stop-opacity="1"/><stop offset="100%" stop-color="#A6BFFF" stop-opacity="1"/></linearGradient><linearGradient x1="0.5" y1="1" x2="0.5" y2="0" id="master_svge_177_04536"><stop offset="0%" stop-color="#6994FF" stop-opacity="1"/><stop offset="100%" stop-color="#9CB6FF" stop-opacity="1"/></linearGradient><clipPath id="master_svgf_200_9982"><rect x="192.70849609375" y="131.5773468017578" width="16.64000129699707" height="16.64000129699707" rx="0"/></clipPath><clipPath id="master_svgg_200_9986"><rect x="193.98779296875" y="134.1200714111328" width="14.080002784729004" height="14.08000373840332" rx="0"/></clipPath><linearGradient x1="1.0415881872177124" y1="0" x2="-0.08722466218490998" y2="0.3857277501344493" id="master_svgh_200_01049"><stop offset="0%" stop-color="#D7E0FF" stop-opacity="1"/><stop offset="100%" stop-color="#A6BFFF" stop-opacity="1"/></linearGradient><linearGradient x1="0.11182737350463867" y1="0.10655854642391205" x2="0.7677559315988656" y2="0.1829266105969305" id="master_svgi_177_04563"><stop offset="0%" stop-color="#D7DFFF" stop-opacity="1"/><stop offset="100%" stop-color="#9CB8FF" stop-opacity="1"/></linearGradient><linearGradient x1="0.11182737350463867" y1="0.10655854642391205" x2="0.2961507734549566" y2="1.0132560538116817" id="master_svgj_177_04563"><stop offset="0%" stop-color="#D7DFFF" stop-opacity="1"/><stop offset="100%" stop-color="#9CB8FF" stop-opacity="1"/></linearGradient><linearGradient x1="0.11182737350463867" y1="0.10655854642391205" x2="0.24842064987962814" y2="1.001113871199592" id="master_svgk_177_04563"><stop offset="0%" stop-color="#D7DFFF" stop-opacity="1"/><stop offset="100%" stop-color="#9CB8FF" stop-opacity="1"/></linearGradient></defs><g><rect x="6" y="0" width="244" height="244" rx="0" fill="#FFFFFF" fill-opacity="1"/><g><g><g><g style="opacity:0.7997002005577087;"><g><g><g><g mask="url(#master_svg0_200_00234)"><g><g style="opacity:0.4207349419593811;"><ellipse cx="128.82836151123047" cy="115.71828317642212" rx="92.32054901123047" ry="92.46452331542969" fill="url(#master_svg1_200_00204)" fill-opacity="1"/></g><g><path d="M77.76235920959473,61.414703056671144C77.29834520959473,55.572379556671144,72.42480420959473,50.97637605667114,66.48111520959472,50.97637605667114C60.23069020959473,50.97637605667114,55.163721109594725,56.05898575667114,55.163721109594725,62.328703056671145C55.163721109594725,63.285959056671146,55.281836509594726,64.21554005667114,55.504246209594726,65.10358505667114Q55.365259209594726,64.90973805667115,55.20441530959473,64.73371805667114Q55.04357150959473,64.55770005667114,54.86312390959473,64.40197205667114Q54.682676309594726,64.24624505667114,54.48515220959473,64.11299205667115Q54.28762820959473,63.97973905667114,54.07579330959473,63.87082405667114Q53.86395880959473,63.76191205667114,53.640780409594726,63.67886305667114Q53.41760250959473,63.595814056671145,53.18620630959472,63.539793056671144Q52.954810109594725,63.48377305667114,52.718437209594725,63.45556505667114Q52.48206380959473,63.42735705667114,52.24402330959472,63.42735705667114Q52.046737209594724,63.42735705667114,51.85040120959473,63.446755056671144Q51.654065109594725,63.46615205667114,51.46056980959472,63.50475805667114Q51.26707510959473,63.54336605667115,51.07828380959473,63.60081105667114Q50.88949300959473,63.65825705667115,50.70722440959473,63.733988056671144Q50.524956009594725,63.80972005667114,50.35096530959473,63.90300705667114Q50.17697450959473,63.99629305667114,50.01293710959472,64.10623705667115Q49.84889980959473,64.21618205667114,49.696395609594724,64.34172605667115Q49.54389140959473,64.46726805667114,49.404389109594725,64.60720105667114Q49.26488680959473,64.74713505667114,49.139729979594726,64.90011005667114Q49.01457303959473,65.05308405667114,48.90496676959473,65.21762705667115Q48.79536056959473,65.38217205667114,48.702360569594724,65.55670005667115Q48.60936057959473,65.73122705667114,48.53386246959472,65.91405705667114Q48.45836439959473,66.09689005667114,48.40109529959473,66.28626305667115Q48.34382619959473,66.47563605667114,48.30533760759473,66.66972805667115Q48.26684902559472,66.86382205667114,48.247511617594725,67.06076505667114Q48.22817420959473,67.25770605667114,48.22817420959473,67.45560105667114Q48.22817420959473,67.65349605667114,48.247511617594725,67.85043905667115Q48.26684902559472,68.04738105667114,48.30533760759473,68.24147105667114Q48.34382619959473,68.43556405667114,48.40109529959473,68.62493905667114Q48.45836439959473,68.81431205667114,48.53386246959472,68.99714105667114Q48.60936057959473,69.17997405667114,48.702360569594724,69.35450005667114Q48.79536056959473,69.52902805667114,48.904966709594724,69.69357205667114Q49.014572979594725,69.85811705667115,49.139729979594726,70.01109405667114Q49.26488680959473,70.16406705667114,49.404389109594725,70.30399905667115Q49.54389140959473,70.44393405667114,49.696395609594724,70.56947805667114Q49.848899709594725,70.69501905667114,50.01293690959473,70.80496305667114Q50.176974309594726,70.91491005667115,50.350965009594724,71.00819405667114Q50.52495570959473,71.10148305667114,50.707224109594726,71.17721205667114Q50.88949270959473,71.25294505667114,51.07828380959473,71.31039105667114Q51.26707460959473,71.36783805667115,51.46056960959473,71.40644505667115Q51.654065109594725,71.44505405667114,51.85040120959473,71.46445105667114Q52.046737209594724,71.48384705667114,52.24402330959472,71.48384705667114L52.26578190959473,71.48378805667114L86.55204220959473,71.48378805667114C88.17003020959473,71.48378805667114,89.48167220959473,70.17214605667114,89.48167220959473,68.55415605667115C89.48167220959473,66.93616405667115,88.17003020959473,65.62452405667115,86.55204220959473,65.62452405667115L85.65104820959473,65.62452405667115Q85.83362020959473,64.99669405667115,85.83362020959473,64.34269905667114Q85.83362020959473,64.23032605667115,85.82812320959474,64.11809005667115Q85.82262620959472,64.00585205667115,85.81164720959472,63.89402105667114Q85.80066920959473,63.78218905667114,85.78423120959474,63.67103305667114Q85.76779320959473,63.55987705667114,85.74593520959473,63.44966405667114Q85.72408520959473,63.33944905667114,85.69686320959472,63.230444056671146Q85.66964120959473,63.12143905667114,85.63712120959472,63.013906056671146Q85.60460120959473,62.906372056671145,85.56685820959473,62.80056705667114Q85.52911920959473,62.69476405667114,85.48624620959473,62.590945056671146Q85.44337620959473,62.487126056671144,85.39547520959474,62.38554205667114Q85.34757820959473,62.283959056671144,85.29477120959473,62.184856056671144Q85.24196020959474,62.08575105667114,85.18436620959473,61.989366056671145Q85.12677220959472,61.89298105667115,85.06453520959472,61.79954805667114Q85.00229820959473,61.70611305667114,84.93556420959473,61.615855056671144Q84.86883020959473,61.525597056671145,84.79776220959474,61.43873205667114Q84.72669420959473,61.35186605667114,84.65146020959472,61.268604056671144Q84.57622720959472,61.18534105667114,84.49701120959472,61.10588205667114Q84.41779520959473,61.02642305667114,84.33478720959474,60.950957756671144Q84.25178320959472,60.87549255667114,84.16518620959474,60.80420545667114Q84.07858420959472,60.73291635667114,83.98860320959473,60.66597605667114Q83.89862220959472,60.59903575667114,83.80547920959472,60.53660435667114Q83.71233220959473,60.47417305667114,83.61624320959473,60.416403256671146Q83.52015520959472,60.35863165667114,83.42135820959473,60.305660756671145Q83.32255720959472,60.25268795667114,83.22128120959474,60.204641856671145Q83.12001220959473,60.15659665667114,83.01651220959474,60.11359355667114Q82.91301120959473,60.07059145667114,82.80753520959473,60.03273435667114Q82.70205920959472,59.99487735667114,82.59485820959472,59.962257856671144Q82.48765720959473,59.929637456671145,82.37898420959473,59.90233275667114Q82.27031520959473,59.87502815667114,82.16044020959473,59.85310505667114Q82.05056620959473,59.831181956671145,81.93975220959473,59.81469395667114Q81.82893920959472,59.79820485667114,81.71745520959473,59.78719185667114Q81.60596320959473,59.776176956671144,81.49407020959472,59.77066185667114Q81.38218120959473,59.765148656671144,81.27015520959472,59.765148656671144Q81.01983820959472,59.76514955667114,80.77102120959472,59.792612556671145Q80.52220720959473,59.820076456671146,80.27788020959473,59.87467245667114Q80.03355220959473,59.929270256671145,79.79664420959473,60.010345956671145Q79.55973620959473,60.09142155667114,79.33308620959473,60.19800235667114Q79.10643920959473,60.304584056671146,78.89277420959473,60.43539285667114Q78.67910920959473,60.566200756671144,78.48098920959472,60.71966595667114Q78.28286920959472,60.873133156671145,78.10267020959472,61.04741505667114Q77.92247420959472,61.22169705667115,77.76235920959473,61.414703056671144Z" fill-rule="evenodd" fill="#FFFFFF" fill-opacity="1"/></g><g><path d="M189.30303909570313,45.93038030757447C188.84589609570313,41.405257907574466,185.03640509570312,37.87376260757446,180.40462809570312,37.87376260757446C176.14877889570312,37.87376260757446,172.58715609570314,40.85526820757446,171.6824235957031,44.84955690757446C170.1212616957031,45.017043607574465,168.90554809570312,46.33874080757446,168.90554809570312,47.944383607574466C168.90554809570312,49.66349860757446,170.29916679570312,51.05711760757446,172.01828269570314,51.05711760757446L177.66726689570314,51.05711760757446L177.66726689570314,51.057237607574464L189.70692409570313,51.057237607574464C191.12266909570312,51.057237607574464,192.2703550957031,49.909551607574464,192.2703550957031,48.49380960757446C192.2703550957031,47.07806630757446,191.12266909570312,45.93038030757447,189.70692409570313,45.93038030757447L189.30303909570313,45.93038030757447Z" fill-rule="evenodd" fill="#FFFFFF" fill-opacity="1"/></g></g></g></g></g></g><g style="opacity:0.119309201836586;"><ellipse cx="127.56620025634766" cy="171.3785102367401" rx="39.351356506347656" ry="3.891892194747925" fill="#618DFA" fill-opacity="1"/></g><g><path d="M67.146599275,150.5114204776367C68.214591975,147.57864391763673,73.147292875,146.74404817863672,76.172453875,146.84927198383673C75.399957875,155.9610242776367,65.778192475,155.77036287763673,61.404296875,155.09809967763672C62.845125175,154.79052207763672,66.089335875,153.41541767763673,67.146599275,150.5114204776367Z" fill="url(#master_svg2_177_04563)" fill-opacity="1"/><path d="M70.731078175,151.6335744455078Q66.991876175,154.08219524550782,62.705549741,154.95047804550782L62.743669009,155.1386556455078Q67.066177875,154.2630434455078,70.836262675,151.7941985455078Q73.677377375,149.9336905455078,75.300657375,147.8805390115078L75.150043375,147.7614602555078Q73.546105375,149.79015064550782,70.731078175,151.6335744455078Z" fill-rule="evenodd" fill="url(#master_svg3_177_04560)" fill-opacity="1"/><path d="M96.939077625,121.89011987451173Q90.821165625,137.24482387451172,77.935571445,145.18961687451173L78.271459805,145.73438987451172Q91.33732462500001,137.67844387451171,97.533620625,122.12700987451171Q99.909265625,116.16462887451172,100.98087162499999,109.74734977451172Q101.872373625,104.40860607451172,101.69735862499999,100.01417770751172L101.057866625,100.03964655151172Q101.230258625,104.36820407451172,100.349611625,109.64193817451172Q99.289314625,115.99151087451172,96.939077625,121.89011987451173Z" fill-rule="evenodd" fill="url(#master_svg4_177_04557)" fill-opacity="1"/><path d="M78.993930825,127.42193372314453Q76.635043125,131.04772172314452,70.192946631,132.25633972314452L70.310959619,132.88536672314453Q77.022178125,131.62625672314454,79.530390725,127.77094872314453Q80.299596125,126.58862372314454,80.475039125,125.41467772314454Q84.685383125,123.21653072314453,85.517940125,112.63986533714453L84.879913125,112.58964210914453Q84.112043125,122.34452532314452,80.526227125,124.64259372314453Q80.502772125,123.23115572314452,79.635438925,122.48174672314454Q78.787916225,121.74981502314454,77.804011825,122.21366692314453Q76.989665025,122.59758472314454,76.575410825,123.52874172314453Q76.134128125,124.52065372314453,76.565387725,125.24332472314453Q77.07060572500001,126.08992972314454,78.51569082500001,125.97200372314452Q79.168727825,125.91867672314453,79.762593225,125.71858372314453Q79.553748125,126.56145272314453,78.993930825,127.42193372314453ZM79.877973525,124.98730272314452Q79.886827425,124.85502972314453,79.886878925,124.72320672314453Q79.887338625,123.54520572314453,79.217010525,122.96601772314453Q78.68449402499999,122.50612832314454,78.076927225,122.79256072314453Q77.477726925,123.07504872314453,77.160155325,123.78888272314452Q76.853747325,124.47762472314453,77.114968325,124.91535872314454Q77.415893525,125.41962572314453,78.463636425,125.33412472314453Q79.213205325,125.27291472314454,79.877973525,124.98730272314452Z" fill-rule="evenodd" fill="url(#master_svg5_177_04557)" fill-opacity="1"/><path d="M104.0004869,133.3712873088867Q101.1107357,139.55704910888673,97.08713333,141.24519310888672L97.33474167,141.83535410888672Q101.5860605,140.05166810888673,104.5803337,133.64216990888673Q106.7789354,128.93587350888671,107.5584625,123.87814263288672L106.9259319,123.78065319388672Q106.160347,128.74792000888672,104.0004869,133.3712873088867Z" fill-rule="evenodd" fill="url(#master_svg6_177_04557)" fill-opacity="1"/></g><g transform="matrix(-1,0,0,1,325.1904296875,0)"><g><g><path d="M162.59521484375 89.40821170806885C162.59521484375 84.90913532947886 166.2424368736683 81.26191329956055 170.7415132522583 81.26191329956055L218.6250867843628 81.26191329956055C223.12416316295278 81.26191329956055 226.7713851928711 84.90913532947886 226.7713851928711 89.40821170806885L226.7713851928711 152.42145442962646C226.7713851928711 156.92053080821645 223.12416316295278 160.56775283813477 218.6250867843628 160.56775283813477L170.7415132522583 160.56775283813477C166.2424368736683 160.56775283813477 162.59521484375 156.92053080821645 162.59521484375 152.42145442962646Z" fill="url(#master_svg7_177_04553)" fill-opacity="1"/><ellipse cx="195.82817363739014" cy="81.26177883148193" rx="8.022021293640137" ry="8.045519828796387" fill="url(#master_svg8_177_04549)" fill-opacity="1"/><path d="M198.09184659375,73.4931640625C202.43683659375,73.4931640625,205.95915559374998,77.0257973625,205.95915559374998,81.3835205625L226.11964059375,81.3835205625C228.29246559375,81.3835205625,230.05387859375,83.1500949625,230.05387859375,85.3292760625L230.05387859375,156.3447950625C230.05387859375,157.3912730625,229.63938159375,158.3948900625,228.90156559375,159.1348490625C228.16375359375002,159.8748240625,227.16307059375,160.2905430625,226.11964059375,160.2905430625L169.57241269375,160.2905430625C168.52898999375,160.2905430625,167.52830359375,159.8748240625,166.79049269375,159.1348490625C166.05268156375,158.3948900625,165.63818359374997,157.3912730625,165.63818359375,156.3447950625L165.63818359375,85.3315720625C165.63818359375,83.1523942625,167.39959799375,81.3858194625,169.57241269375,81.3858194625L190.22453459375,81.3858194625C190.22392459374998,79.2927694625,191.05253759375,77.2852344625,192.52800359375,75.8050086625C194.00348059375,74.3247826725,196.00490959375,73.49316397367632,198.09184659375,73.4931640625Z" fill="url(#master_svg9_177_04545)" fill-opacity="1"/><path d="M226.61162909375,153.6794662849121C220.71276809375001,154.65412378491212,210.14089009375,155.0495037849121,194.89599609375,154.8656057849121L223.79704309375,144.5730857849121C224.42940909375,147.69526388491212,225.37231409375,150.7459835849121,226.61162909375,153.6794662849121L226.61162909375,153.6794662849121Z" fill-rule="evenodd" fill="url(#master_svga_177_04549)" fill-opacity="1"/><path d="M170.06396484375,89.2750015258789L226.12070884375,89.2750015258789C225.60959284375,113.3441355258789,225.35403484375001,127.82913552587891,225.35403484375001,132.73001452587891C225.29155684375002,138.9491305258789,226.17338984375,145.1415445258789,227.96921184375,151.0944785258789C221.58139084375,153.0024185258789,208.54904184375,154.8666835258789,198.09290684375,154.8666835258789C189.42712984375,154.7569805258789,180.77377784375,154.17300452587892,172.17146444375,153.1173595258789C170.76646477375,152.42390852587891,170.06396484375,145.3691365258789,170.06396484375,131.95304152587892L170.06396484375,89.2750015258789Z" fill-rule="evenodd" fill="#FFFFFF" fill-opacity="1"/><path d="M176.34716796875 99.52048456668854C176.34716796875 98.95810001936479 176.8030707224898 98.502197265625 177.36545526981354 98.502197265625L221.16900289058685 98.502197265625C221.7313874379106 98.502197265625 222.1872901916504 98.95810001936479 222.1872901916504 99.52048456668854L222.1872901916504 99.78263032436371C222.1872901916504 100.34501487168745 221.7313874379106 100.80091762542725 221.16900289058685 100.80091762542725L177.36545526981354 100.80091762542725C176.8030707224898 100.80091762542725 176.34716796875 100.34501487168745 176.34716796875 99.78263032436371Z" fill="url(#master_svgb_177_04539)" fill-opacity="1"/><path d="M176.34716796875 106.41643488407135C176.34716796875 105.8540503367476 176.8030707224898 105.39814758300781 177.36545526981354 105.39814758300781L221.16900289058685 105.39814758300781C221.7313874379106 105.39814758300781 222.1872901916504 105.8540503367476 222.1872901916504 106.41643488407135L222.1872901916504 106.67858064174652C222.1872901916504 107.24096518907027 221.7313874379106 107.69686794281006 221.16900289058685 107.69686794281006L177.36545526981354 107.69686794281006C176.8030707224898 107.69686794281006 176.34716796875 107.24096518907027 176.34716796875 106.67858064174652Z" fill="url(#master_svgc_177_04539)" fill-opacity="1"/><path d="M176.34716796875 112.67274045944214C176.34716796875 111.82916360553777 177.0310221260456 111.14530944824219 177.87459897994995 111.14530944824219L200.03180360794067 111.14530944824219C200.87538046184503 111.14530944824219 201.55923461914062 111.82916360553777 201.55923461914062 112.67274045944214L201.55923461914062 113.06595849990845C201.55923461914062 113.90953535381281 200.87538046184503 114.5933895111084 200.03180360794067 114.5933895111084L177.87459897994995 114.5933895111084C177.0310221260456 114.5933895111084 176.34716796875 113.90953535381281 176.34716796875 113.06595849990845Z" fill="url(#master_svgd_177_04539)" fill-opacity="1"/><ellipse cx="198.54973363876343" cy="81.71911478042603" rx="4.315846920013428" ry="4.328489780426025" fill="url(#master_svge_177_04536)" fill-opacity="1"/><ellipse cx="198.12063360214233" cy="81.26179695129395" rx="4.584012508392334" ry="4.597440719604492" fill="#FFFFFF" fill-opacity="1"/><g transform="matrix(-1,0,0,1,385.4169921875,0)" clip-path="url(#master_svgf_200_9982)"><g clip-path="url(#master_svgg_200_9986)"><path d="M207.70875596875,135.0845718383789C203.42843436875,137.7104926383789,200.32379386875,141.02633383837892,198.92283396875,142.6877741383789L195.50139306875,140.00553323837892L193.98779296875,141.2234544383789L199.89435386875,147.23561583837892C200.90811446875,144.6308155383789,204.13243596875,139.5408935383789,208.06779596875,135.9223322283789L207.70875596875,135.0845718383789Z" fill="#000000" fill-opacity="1" style="mix-blend-mode:passthrough"/><path d="M207.70875596875,135.0845718383789C203.42843436875,137.7104926383789,200.32379386875,141.02633383837892,198.92283396875,142.6877741383789L195.50139306875,140.00553323837892L193.98779296875,141.2234544383789L199.89435386875,147.23561583837892C200.90811446875,144.6308155383789,204.13243596875,139.5408935383789,208.06779596875,135.9223322283789L207.70875596875,135.0845718383789Z" fill="url(#master_svgh_200_01049)" fill-opacity="1"/></g></g></g></g></g><g transform="matrix(0.9612616896629333,0.27563735842704773,-0.27563735842704773,0.9612616896629333,22.866536151906416,-41.19886884411676)"><g style="opacity:0.598800003528595;"><ellipse cx="169.58074474334717" cy="80.47360670566559" rx="4.502619743347168" ry="1.2723852396011353" fill="url(#master_svgi_177_04563)" fill-opacity="1"/></g><g style="opacity:0.5764999985694885;"><path d="M165.637785615,80.45331605981445C166.876900525,80.95755205981445,172.917585825,72.16940215981445,173.769476925,69.86431315981446C174.621367425,67.55922505981445,173.692032825,64.96600035981446,171.678471125,64.17362610981445C169.664908925,63.381251929814454,167.341568725,64.60583024981446,166.489677225,66.98295305981445C165.637785615,69.36007545981445,164.321226235,79.94907805981445,165.637785615,80.45331605981445Z" fill="url(#master_svgj_177_04563)" fill-opacity="1"/></g><path d="M165.942610225,79.82623699731445C167.381175025,79.40839599731446,167.165390025,67.36061429731446,166.446108825,64.64464119731446C165.726826225,61.928667897314455,163.353194725,60.25729968731445,161.051490525,60.884062867314455C158.749787445,61.510825987314455,157.527007555,64.22679949731446,158.174361675,66.94277329731446C158.821715895,69.65874579731445,164.504045525,80.24407799731445,165.942610225,79.82623699731445Z" fill="url(#master_svgk_177_04563)" fill-opacity="1"/></g></g></g></g><g><path d="M84.292001,216.0239992C82.332001,216.5839996,79.868,216.8779993,76.9000001,216.8779993L77.2220001,217.8299999C78.2860003,217.8299999,79.2940001,217.7880001,80.2460003,217.7179995L80.2460003,221.5539999L76.1719999,221.5539999L76.1719999,222.534L80.2460003,222.534L80.2460003,226.93L76.8720002,226.93L76.8720002,227.924L84.656,227.924L84.656,226.93L81.2540007,226.93L81.2540007,222.534L85.356,222.534L85.356,221.5539999L81.2540007,221.5539999L81.2540007,217.6199999C82.598001,217.4659996,83.774,217.2139997,84.782001,216.8779993L84.292001,216.0239992ZM75.7800002,215.5899992C75.0940001,217.7039995,74.0020001,219.5799999,72.49000001,221.2040005L72.81200004,222.282C73.358,221.7360001,73.8620001,221.1619997,74.3100002,220.5739994L74.3100002,228.427999L75.3180001,228.427999L75.3180001,219.0759997C75.878,218.1239996,76.35400010000001,217.1019993,76.7179999,216.0239992L75.7800002,215.5899992ZM90.816,215.5199995C90.228001,216.9200001,89.08,218.0959997,87.4,219.0619998L88.016001,219.8739996C88.66,219.4819999,89.234001,219.0479999,89.766001,218.5719995C90.438,219.1599998,91.166,219.6919999,91.950001,220.1539993C90.41,220.7700005,88.632,221.2180004,86.602,221.4979992L87.064,222.45C89.332001,222.1,91.334,221.526,93.042,220.74199959999999C94.77799999999999,221.6099997,96.752001,222.17,98.964001,222.422L99.426001,221.4839993C97.48,221.2880001,95.71600000000001,220.8540001,94.133999,220.1819992C95.422001,219.454,96.514,218.5719995,97.41,217.53599930000001L97.41,216.724L91.306,216.724C91.502001,216.3879995,91.684,216.0380001,91.83800099999999,215.6599998L90.816,215.5199995ZM93.02799999999999,219.6639996C92.09,219.1739998,91.22200000000001,218.5859995,90.438,217.8999996L90.620001,217.6759996L95.968,217.6759996C95.142,218.4320002,94.162001,219.1039996,93.02799999999999,219.6639996ZM92.174,221.75C92.174,222.309999,92.118,222.842,92.006001,223.346L87.554,223.346L87.554,224.256L91.726,224.256C91.614,224.536,91.459999,224.802,91.292,225.054C90.563999,226.076,89.038,226.93,86.742,227.602L87.414,228.427999C89.99,227.61599999999999,91.628,226.566,92.341999,225.306C92.524,224.97,92.677999,224.62,92.790001,224.256L96.934,224.256C96.892,225.656,96.766001,226.524,96.556,226.86C96.332001,227.196,95.813999,227.378,94.97399899999999,227.392L93.322001,227.322L93.574001,228.232C94.218,228.26,94.764,228.288,95.212,228.288C96.206001,228.288,96.906,228.049999,97.312,227.588C97.718,227.126,97.928001,225.712,97.956001,223.346L93.02799999999999,223.346C93.112,222.842,93.167999,222.309999,93.167999,221.75L92.174,221.75ZM111.69000199999999,221.9039993L111.69000199999999,216.3039999L101.33,216.3039999L101.33,217.2839994L110.66799900000001,217.2839994L110.66799900000001,220.9379997L102.898001,220.9379997L102.898001,218.8660002L101.889999,218.8660002L101.889999,226.216C101.889999,227.364,102.450001,227.952,103.584,227.952L111.172001,227.952C111.760002,227.924,112.22200000000001,227.77,112.529999,227.476C112.866001,227.112,113.104,226.076,113.243999,224.34L112.26400000000001,224.032C112.18,225.572,111.998001,226.468,111.718002,226.72C111.507999,226.888,111.228001,226.972,110.891998,226.972L103.864,226.972C103.219999,226.972,102.898001,226.65,102.898001,226.034L102.898001,221.9039993L111.69000199999999,221.9039993ZM120.63600199999999,215.6040001C119.012001,217.368,116.96799899999999,218.8519993,114.504002,220.04199979999999L114.993999,220.9239998C117.47200000000001,219.678,119.47399899999999,218.2080002,121,216.5139999C122.652,218.2919998,124.62599900000001,219.7339997,126.950001,220.8540001L127.454002,219.9579997C125.158001,218.8940001,123.12799799999999,217.4519997,121.36399800000001,215.6040001L120.63600199999999,215.6040001ZM117.094002,220.0279999L117.094002,220.9939995L120.482002,220.9939995L120.482002,223.43L116.422001,223.43L116.422001,224.39600000000002L120.482002,224.39600000000002L120.482002,226.986L115.17599899999999,226.986L115.17599899999999,227.98L126.83800099999999,227.98L126.83800099999999,226.986L121.518002,226.986L121.518002,224.39600000000002L125.563999,224.39600000000002L125.563999,223.43L121.518002,223.43L121.518002,220.9939995L124.905998,220.9939995L124.905998,220.0279999L117.094002,220.0279999ZM130.632,218.4179993L129.708,218.7539997C130.057999,219.3699999,130.352001,220.04199979999999,130.60399999999998,220.7700005L128.714001,220.7700005L128.714001,221.75L135.728001,221.75L135.728001,220.7700005L134.034,220.7700005C134.397999,220.1399994,134.720001,219.4259996,135.014,218.6279993L134.076,218.3059998C133.796001,219.1739998,133.445999,220,133.040001,220.7700005L131.57,220.7700005C131.290001,219.8459997,130.967999,219.0619998,130.632,218.4179993ZM136.372002,216.1499996L136.372002,228.372L137.35199699999998,228.372L137.35199699999998,217.0739994L139.858002,217.0739994C139.41000400000001,218.5859995,138.94799799999998,219.902,138.486,221.0079994C139.578003,222.351999,140.138,223.43,140.152,224.256C140.138,224.76,140.06800099999998,225.096,139.928001,225.278C139.788002,225.446,139.466003,225.544,138.961998,225.572C138.695999,225.572,138.37400100000002,225.544,137.982002,225.516L138.304001,226.58C139.452003,226.58,140.22199999999998,226.398,140.61399799999998,226.062C140.97799700000002,225.726,141.16000400000001,225.124,141.16000400000001,224.256C141.146004,223.416,140.61399799999998,222.32399900000001,139.564003,221.0079994C140.06800099999998,219.7479997,140.529999,218.3759995,140.964005,216.9060001L140.964005,216.1499996L136.372002,216.1499996ZM128.98,216.9200001L128.98,217.8999996L135.630001,217.8999996L135.630001,216.9200001L132.774002,216.9200001C132.619999,216.3879995,132.466,215.8979998,132.312,215.4779997L131.276001,215.6599998C131.458,216.0380001,131.625999,216.4579992,131.79399899999999,216.9200001L128.98,216.9200001ZM135.084,223.024L129.512001,223.024L129.512001,228.302L130.506001,228.302L130.506001,227.518L134.09,227.518L134.09,228.302L135.084,228.302L135.084,223.024ZM130.506001,226.566L130.506001,223.976L134.09,223.976L134.09,226.566L130.506001,226.566ZM154.921997,217.0599995L149.559998,217.0599995C149.391998,216.5,149.20999899999998,216.0099993,149.02800000000002,215.5619993L147.893997,215.7579994C148.08999599999999,216.1499996,148.258003,216.5839996,148.42600299999998,217.0599995L143.050003,217.0599995L143.050003,220.1959991L144.071999,220.1959991L144.071999,218.04L153.900002,218.04L153.900002,220.1959991L154.921997,220.1959991L154.921997,217.0599995ZM145.05200200000002,219.6639996L145.05200200000002,220.6439991L152.891998,220.6439991L152.891998,219.6639996L145.05200200000002,219.6639996ZM142.91000400000001,222.296L142.91000400000001,223.262L146.788002,223.262L146.788002,223.36C146.746002,224.452,146.452003,225.334,145.891998,226.006C145.276001,226.664,144.211998,227.182,142.685997,227.574L143.260002,228.469999C144.828003,228.035999,145.961998,227.434,146.662003,226.678C147.362,225.838,147.739998,224.732,147.781998,223.36L147.781998,223.262L150.134003,223.262L150.134003,226.79C150.134003,227.714,150.554001,228.190001,151.421997,228.190001L153.788002,228.190001C154.264,228.190001,154.599998,228.049999,154.82399700000002,227.798C155.076004,227.518,155.24400300000002,226.692,155.328003,225.348L154.37599899999998,225.04C154.32,226.10399999999998,154.236,226.734,154.12400100000002,226.944C154.026001,227.126,153.858002,227.224,153.606003,227.224L151.74400300000002,227.224C151.337997,227.224,151.141998,227,151.141998,226.58L151.141998,223.262L155.104004,223.262L155.104004,222.296L142.91000400000001,222.296ZM166.416,215.5199995L165.77200299999998,216.1359997C166.486,216.6819992,167.045998,217.1999998,167.466003,217.7039995L164.848,217.7039995C164.82,217.0319996,164.80599999999998,216.3179998,164.80599999999998,215.5339994L163.770004,215.5339994C163.770004,216.29,163.783997,217.0039997,163.811996,217.7039995L158.029999,217.7039995L158.029999,222.365999C157.987999,224.648,157.526001,226.426,156.629997,227.714L157.400002,228.4C158.435997,226.888,158.996002,224.872,159.05200200000002,222.365999L159.05200200000002,221.9459991L161.473999,221.9459991C161.445999,223.486,161.403999,224.493999,161.32,224.97C161.236,225.362,161.04000100000002,225.572,160.732002,225.586C160.354004,225.586,159.891998,225.572,159.346001,225.544L159.653999,226.454C160.10199699999998,226.482,160.508003,226.51,160.844002,226.51C161.54399899999999,226.482,161.97799700000002,226.174,162.16000400000001,225.572C162.342003,224.886,162.454002,223.36,162.482002,220.9939995L159.05200200000002,220.9939995L159.05200200000002,218.6700001L163.854004,218.6700001C163.966003,220.4200001,164.162003,221.8899994,164.470001,223.066C164.62400100000002,223.668,164.80599999999998,224.228,165.001999,224.746C164.036003,225.964,162.846001,226.888,161.445999,227.518L162.00599699999998,228.358C163.321999,227.77,164.470001,226.916,165.449997,225.768C165.66000400000001,226.202,165.89800300000002,226.594,166.150002,226.93C166.821999,227.77,167.452003,228.190001,168.04000100000002,228.190001C168.66999800000002,228.190001,169.146004,227.252,169.482002,225.39L168.571999,224.886C168.362,226.328,168.12400100000002,227.056,167.872002,227.07C167.592003,227.07,167.214005,226.734,166.751999,226.062C166.52800000000002,225.74,166.31800099999998,225.348,166.122002,224.9C167.017998,223.639999,167.746002,222.072001,168.30599999999998,220.224L167.395996,219.8319998C166.961998,221.3299999,166.402,222.64600000000002,165.702003,223.766C165.604004,223.458,165.50599699999998,223.136,165.421997,222.785999C165.16999800000002,221.7779999,164.987999,220.4060001,164.889999,218.6700001L169.202003,218.6700001L169.202003,217.7039995L167.49400300000002,217.7039995L168.138,217.0599995C167.662003,216.5419998,167.087997,216.0239992,166.416,215.5199995ZM174.55,220.5179996C173.486,220.5179996,172.506,221.1619997,171.596001,222.464L172.352,223.066C173.094,222.03,173.822,221.5119991,174.55,221.5119991C174.98399999999998,221.5119991,175.488,221.6520004,176.048,221.9459991C176.46800000000002,222.184,176.916,222.45,177.378,222.73C178.19,223.177999,178.918,223.402,179.562,223.402C180.55599999999998,223.402,181.50799999999998,222.73,182.404,221.4139996L181.662,220.7980003C180.906,221.8759995,180.20600000000002,222.422,179.562,222.422C179.03,222.422,178.372,222.184,177.588,221.7360001C177.126,221.4559994,176.678,221.2040005,176.25799999999998,220.9659996C175.642,220.658,175.06799999999998,220.5179996,174.55,220.5179996Z" fill="#999999" fill-opacity="1"/></g></g></g></svg>