<svg xmlns="http://www.w3.org/2000/svg" xmlns:xlink="http://www.w3.org/1999/xlink" fill="none" version="1.1" width="50" height="50" viewBox="0 0 50 50"><defs><clipPath id="master_svg0_608_43604"><rect x="10" y="10" width="30" height="30" rx="0"/></clipPath></defs><rect x="0" y="0" width="50" height="50" rx="8" fill="#349B34" fill-opacity="0.10000000149011612"/><g clip-path="url(#master_svg0_608_43604)"><path d="M26.214087,12.30775404L37.697664,24.161089C38.073339000000004,24.543277,38.102558,25.158869,37.764877,25.577133C37.427198000000004,25.995396,36.835316,26.076738,36.403376,25.764245000000003L36.262623000000005,25.644009L35.900221,25.268269L35.900221,25.689096C35.905043,26.241118999999998,35.49382,26.702176,34.960442,26.742761C34.427067,26.783346,33.954788,26.389518000000002,33.88113,25.842733000000003L33.869806,25.689097L33.869806,23.172476L25.495756999999998,14.530463000000001L17.374094499999998,22.910294L17.374094499999998,35.904207L28.035797000000002,35.904207C28.570601,35.899229,29.017273,36.323694,29.056597,36.874245C29.095913,37.424795,28.714370000000002,37.912281,28.184642,37.98831L28.035797000000002,37.999998000000005L16.3596954,37.999998000000005C15.7988279,38.000924999999995,15.3436787,37.531868,15.343679,36.952938L15.343679,25.006085L14.7288918,25.642339L14.6156416,25.744206C14.2165891,26.045318,13.66549331,26.006289000000002,13.31002381,25.65174C12.954554237,25.297193,12.89787591,24.730024,13.17574534,24.308045L13.2938492,24.161089L24.777426,12.30775404C25.17381,11.89741531,25.817700000000002,11.89741531,26.214087,12.30775404ZM32.054565,28.347664C32.351866,28.65424,32.351866,29.151608,32.054565,29.458183L30.122839,31.450439L35.900221,31.450439C36.321068,31.450438,36.662231,31.802589,36.662231,32.236986C36.662231,32.671385,36.321068,33.023534999999995,35.900221,33.023534999999995L30.124454,33.021866L32.054565,35.015793C32.313423,35.282984,32.347397,35.698803,32.151635999999996,36.004404L32.054565,36.126312C31.799038,36.390617,31.398493,36.43252,31.09679,36.226509L30.978687,36.126312L27.747816999999998,32.793082999999996L27.723548,32.764694L27.704134,32.742985000000004L27.687957,32.722946C27.669287,32.698965,27.651999,32.673872,27.636187,32.647797L27.608684,32.592687999999995C27.477297999999998,32.327787,27.502359,32.008973999999995,27.673399,31.769402L27.721932000000002,31.709284L27.734875000000002,31.694254L30.978687,28.347666C31.2757,28.040796,31.757551,28.040796,32.054565,28.347664ZM29.556587,26.472305C29.976988,26.472304,30.317789,26.824080000000002,30.317789,27.258018C30.317789,27.691955999999998,29.976988,28.043732,29.556587,28.043734L21.4349251,28.043734C21.0149708,28.043734,20.67453,27.692332,20.67453,27.258855C20.67453,26.825377,21.0149708,26.473975,21.4349251,26.473975L29.556587,26.473975L29.556587,26.472305ZM29.556587,22.280721C29.977434,22.280721,30.3186,22.632871,30.3186,23.067268C30.3186,23.501668000000002,29.977434,23.853818,29.556587,23.853818L21.4349251,23.853818C21.0140781,23.853818,20.6729136,23.501668000000002,20.6729136,23.067268C20.6729136,22.632871,21.0140781,22.280721,21.4349251,22.280721L29.556587,22.280721Z" fill="#6CC382" fill-opacity="1" style="mix-blend-mode:passthrough"/></g></svg>