<svg xmlns="http://www.w3.org/2000/svg" xmlns:xlink="http://www.w3.org/1999/xlink" fill="none" version="1.1" width="50" height="50" viewBox="0 0 50 50"><defs><clipPath id="master_svg0_608_34713"><rect x="10" y="10" width="30" height="30" rx="0"/></clipPath></defs><rect x="0" y="0" width="50" height="50" rx="8" fill="#349B34" fill-opacity="0.10000000149011612"/><g clip-path="url(#master_svg0_608_34713)"><path d="M41.19104859375,28.34766411661621C41.48834899375,28.65423989661621,41.48834899375,29.15160775661621,41.19104859375,29.458183556616213L39.25932219375,31.45043965661621L45.036704093750004,31.45043965661621C45.457550993750004,31.45043775661621,45.79871459375,31.80258965661621,45.79871459375,32.23698615661621C45.79871459375,32.671384856616214,45.457550993750004,33.023534756616215,45.036704093750004,33.023534756616215L39.26093769375,33.02186585661621L41.19104859375,35.01579285661621C41.44990639375,35.28298375661621,41.48387999375,35.69880295661621,41.28811929375,36.00440405661621L41.19104859375,36.12631225661621C40.93552109375,36.39061735661621,40.53497599375,36.43251995661621,40.23327349375,36.22650905661621L40.11517049375,36.12631225661621L36.88430118375,32.79308315661621L36.86003208375,32.76469425661621L36.84061718375,32.74298475661621L36.82444095375,32.72294615661621C36.80576992375,32.69896505661621,36.78848362375,32.67387195661621,36.77266979375,32.64779665661621L36.74516773175,32.592687656616214C36.61378192875,32.32778735661621,36.63884258275,32.008974356616214,36.80988216375,31.76940175661621L36.85841655375,31.709284056616212L36.87135791375,31.69425415661621L40.11517049375,28.34766602661621C40.41218279375,28.04079651861621,40.89403439375,28.04079651861621,41.19104859375,28.34766411661621Z" fill="#6CC382" fill-opacity="1" style="mix-blend-mode:passthrough" transform="matrix(-1,0,0,1,73.3232421875,0)"/><path d="M26.214087,12.30775404L37.697664,24.161089C38.073339000000004,24.543277,38.102558,25.158869,37.764877,25.577133C37.427198000000004,25.995396,36.835316,26.076738,36.403376,25.764245000000003L36.262623000000005,25.644009L35.900221,25.268269L35.900221,25.689096C35.905043,26.241118999999998,35.49382,26.702176,34.960442,26.742761C34.427067,26.783346,33.954788,26.389518000000002,33.88113,25.842733000000003L33.869806,25.689097L33.869806,23.172476L25.495756999999998,14.530463000000001L17.374094499999998,22.910294L17.374094499999998,35.904207L28.035797000000002,35.904207C28.570601,35.899229,29.017273,36.323694,29.056597,36.874245C29.095913,37.424795,28.714370000000002,37.912281,28.184642,37.98831L28.035797000000002,37.999998000000005L16.3596954,37.999998000000005C15.7988279,38.000924999999995,15.3436787,37.531868,15.343679,36.952938L15.343679,25.006085L14.7288918,25.642339L14.6156416,25.744206C14.2165891,26.045318,13.66549331,26.006289000000002,13.31002381,25.65174C12.954554237,25.297193,12.89787591,24.730024,13.17574534,24.308045L13.2938492,24.161089L24.777426,12.30775404C25.17381,11.89741531,25.817700000000002,11.89741531,26.214087,12.30775404ZM29.556587,26.472305C29.976988,26.472304,30.317789,26.824080000000002,30.317789,27.258018C30.317789,27.691955999999998,29.976988,28.043732,29.556587,28.043734L21.4349251,28.043734C21.0149708,28.043734,20.67453,27.692332,20.67453,27.258855C20.67453,26.825377,21.0149708,26.473975,21.4349251,26.473975L29.556587,26.473975L29.556587,26.472305ZM29.556587,22.280721C29.977434,22.280721,30.3186,22.632871,30.3186,23.067268C30.3186,23.501668000000002,29.977434,23.853818,29.556587,23.853818L21.4349251,23.853818C21.0140781,23.853818,20.6729136,23.501668000000002,20.6729136,23.067268C20.6729136,22.632871,21.0140781,22.280721,21.4349251,22.280721L29.556587,22.280721Z" fill="#6CC382" fill-opacity="1" style="mix-blend-mode:passthrough"/></g></svg>