<svg xmlns="http://www.w3.org/2000/svg" xmlns:xlink="http://www.w3.org/1999/xlink" fill="none" version="1.1" width="26" height="26" viewBox="0 0 26 26"><defs><clipPath id="master_svg0_1_0828"><rect x="0" y="0" width="26" height="26" rx="0"/></clipPath></defs><g clip-path="url(#master_svg0_1_0828)"><g><rect x="5" y="4" width="17" height="16" rx="0" fill="#FFFFFF" fill-opacity="1"/></g><g><path d="M22.8703,4.53935C18.1976,-0.910623,9.98932,-1.54292,4.53935,3.12972C-0.910623,7.80237,-1.54292,16.0107,3.12972,21.4607C7.80237,26.9106,16.0107,27.5429,21.4607,22.8703C26.9106,18.1976,27.5429,9.98932,22.8703,4.53935ZM18.4761,16.7271L10.0357,16.7126C9.32511,16.7126,8.74792,16.1383,8.75082,15.4277L8.75952,7.72116C8.75952,7.01054,9.33381,6.43335,10.0444,6.43625C10.755,6.43625,11.3322,7.01054,11.3293,7.72116L11.3235,14.1399L18.4732,14.1573C19.1838,14.1573,19.761,14.7316,19.7581,15.4422C19.7581,16.1528,19.1809,16.7271,18.4761,16.7271Z" fill="#F59E0B" fill-opacity="1" style="mix-blend-mode:passthrough"/></g></g></svg>