<svg xmlns="http://www.w3.org/2000/svg" xmlns:xlink="http://www.w3.org/1999/xlink" fill="none" version="1.1" width="26" height="26" viewBox="0 0 26 26"><defs><clipPath id="master_svg0_1_0820"><rect x="0" y="0" width="26" height="26" rx="0"/></clipPath></defs><g clip-path="url(#master_svg0_1_0820)"><g><rect x="5" y="7" width="17" height="13" rx="0" fill="#FFFFFF" fill-opacity="1"/></g><g><path d="M13.00476180419922,0.1558837890625C5.943571804199219,0.1558837890625,0.19866180419921875,5.9007937890625,0.19866180419921875,12.9619837890625C0.19866180419921875,20.0230837890625,5.943571804199219,25.7679837890625,13.00476180419922,25.7679837890625C20.06586180419922,25.7679837890625,25.81076180419922,20.0230837890625,25.81076180419922,12.9619837890625C25.81076180419922,5.9007937890625,20.06586180419922,0.1558837890625,13.00476180419922,0.1558837890625ZM20.17056180419922,10.5065837890625L11.842661804199219,19.0439837890625C11.643661804199219,19.2476837890625,11.37066180419922,19.3633837890625,11.08566180419922,19.3649837890625L11.079861804199219,19.3649837890625C10.796961804199219,19.3649837890625,10.52546180419922,19.2523837890625,10.325361804199218,19.0522837890625L5.847201804199218,14.5751837890625C5.430261804199219,14.1588837890625,5.430261804199219,13.4830837890625,5.847201804199218,13.0661837890625C6.264041804199219,12.6492837890625,6.939351804199219,12.6492837890625,7.356181804199219,13.0661837890625L11.071561804199218,16.7803837890625L18.64496180419922,9.0142637890625C19.057561804199217,8.5932737890625,19.733961804199218,8.5853737890625,20.15386180419922,8.9976137890625C20.575461804199218,9.4097737890625,20.58286180419922,10.0855937890625,20.17056180419922,10.5065837890625Z" fill="#10B981" fill-opacity="1" style="mix-blend-mode:passthrough"/></g></g></svg>