<svg xmlns="http://www.w3.org/2000/svg" xmlns:xlink="http://www.w3.org/1999/xlink" fill="none" version="1.1" width="18" height="17.88571548461914" viewBox="0 0 18 17.88571548461914"><g><path d="M18,8.9521208C18,13.885604,13.970272,17.885715,8.9990578,17.885715C4.0282979,17.885715,0,13.885583,0,8.9521208C0,5.1652713,2.3722699,1.9299911,5.7225695,0.62980711C6.7348442,0.22406958,7.8407555,0,8.9992857,0C10.159245,0,11.264204,0.2238432,12.277431,0.62980711C15.627525,1.9299911,18,5.1652918,18,8.9521208ZM5.5399776,7.0680718C5.5399776,8.5735741,6.3163362,9.8770304,7.444911,10.515051C7.9129519,10.77967,8.43995,10.932273,8.9990587,10.932273C9.5385494,10.932273,10.047172,10.789528,10.502948,10.542942C11.658184,9.9171057,12.459569,8.5977192,12.459569,7.0683198C12.459569,4.9388556,10.907556,3.2055376,8.9990797,3.2055376C7.0917621,3.2053106,5.5399776,4.9386487,5.5399776,7.0680718ZM9.0356226,17.306791C11.665021,17.306791,14.010609,16.105303,15.547996,14.22502C15.366376,12.741789,13.911749,11.479129,11.853041,10.849301C11.0755,11.544274,10.082099,11.962445,8.9988098,11.962445C7.891469,11.962445,6.8778067,11.521777,6.0927057,10.796566C4.0900955,11.364479,2.623246,12.522865,2.2793167,13.910919C3.8048956,15.970051,6.2637377,17.306791,9.0356226,17.306791Z" fill="#999999" fill-opacity="1"/></g></svg>