<svg xmlns="http://www.w3.org/2000/svg" xmlns:xlink="http://www.w3.org/1999/xlink" fill="none" version="1.1" width="100" height="121.4285888671875" viewBox="0 0 100 121.4285888671875"><g><g><path d="M5.99992,0.0000309955C4.41153,-0.00520819,2.89161,0.653944,1.79992,1.82146C0.699992,3.03574,0.0000306309,4.5536,0.0000306309,6.07146L0.0000306309,115.357C-0.00514692,116.964,0.646251,118.502,1.80003,119.607C2.90294,120.758,4.41564,121.414,6.00004,121.429L94,121.429C95.5884,121.434,97.1083,120.775,98.2,119.607C99.3376,118.491,99.9859,116.96,100,115.357L100,34.4049L66,0.0000309955L5.99992,0.0000309955Z" fill="#276EF9" fill-opacity="1"/></g><g><path d="M99.99970329589844,32.6923L73.79648329589844,32.6923C70.72690329589844,32.6155,68.25622589589844,30.077,68.18150329589844,26.9231L68.18150329589844,0L99.99970329589844,32.6923Z" fill="#A5D2FF" fill-opacity="1"/></g><g><path d="M23.962391388549804,55.582911015625L37.22910138854981,55.582911015625L43.418901388549806,67.033391015625C43.9862013885498,68.072791015625,45.34810138854981,68.49119101562499,46.468301388549804,67.97029101562501C46.998301388549805,67.732591015625,47.409001388549804,67.294691015625,47.60800138854981,66.755191015625C47.798401388549806,66.225491015625,47.75270138854981,65.641091015625,47.482001388549804,65.146491015625L40.6639013885498,52.536501015625C40.255601388549806,51.811836015625,39.477701388549804,51.365644155625,38.637001388549805,51.373782946625L20.456621388549806,51.373782946625C19.701141388549804,51.366932855625,18.989830388549805,51.724090015625,18.551115388549803,52.330556015625C18.132496688549804,52.915051015625,18.064395388549805,53.676161015625,18.372758388549805,54.323901015625L36.5525013885498,92.155091015625C36.928101388549806,92.89789101562499,37.687901388549804,93.376691015625,38.5294013885498,93.400691015625C39.3728013885498,93.443691015625,40.1728013885498,93.029491015625,40.61570138854981,92.32049101562501L62.7043013885498,55.582101015625L76.0527013885498,55.582101015625L61.24300138854981,86.38979101562501L56.580501388549806,77.751991015625C56.012601388549804,76.713491015625,54.65140138854981,76.295291015625,53.53110138854981,76.815091015625C53.0012013885498,77.052791015625,52.59060138854981,77.490691015625,52.391701388549805,78.03019101562501C52.201201388549805,78.559891015625,52.247001388549805,79.144291015625,52.51760138854981,79.638991015625L59.33610138854981,92.248291015625C59.7619013885498,92.979591015625,60.5586013885498,93.423391015625,61.41360138854981,93.405791015625C62.268601388549804,93.38809101562501,63.045601388549805,92.911791015625,63.440101388549806,92.163691015625L81.6207013885498,54.331801015625C81.9349013885498,53.683371015625,81.87010138854981,52.918261015625,81.4511013885498,52.330208015625C81.0116013885498,51.722689015625,80.2987013885498,51.365405095625,79.5419013885498,51.373434479625L61.369401388549804,51.373434479625C60.5609013885498,51.364487145625,59.80700138854981,51.774584015625,59.3835013885498,52.453681015625L38.86350138854981,86.602391015625L23.962391388549804,55.582911015625Z" fill="#FFFFFF" fill-opacity="1"/></g></g></svg>