<svg xmlns="http://www.w3.org/2000/svg" xmlns:xlink="http://www.w3.org/1999/xlink" fill="none" version="1.1" width="100" height="107.142822265625" viewBox="0 0 100 107.142822265625"><g><g><path d="M99.9999,32.9678L63.6389,0L11.1111,0C8.16426,0,5.3381,1.12882,3.25437,3.13814C1.17063,5.14746,0,7.87268,0,10.7143L0,96.4285C0,99.2701,1.17063,101.995,3.25437,104.005C5.3381,106.014,8.16426,107.143,11.1111,107.143L88.8888,107.143C91.8357,107.143,94.6618,106.014,96.7456,104.005C98.8293,101.995,99.9999,99.2701,99.9999,96.4285L99.9999,32.9678ZM54.5833,64.7624L72.7278,86.5339L72.7222,86.5392L63.1777,86.5392L49.85,70.2053L36.6222,86.5339L27.2667,86.5339L45.1278,64.8374L29.0611,45.3321L38.5222,45.3321L49.8555,59.3946L61.1055,45.3321L70.5555,45.3321L54.5833,64.7624Z" fill-rule="evenodd" fill="#68BE96" fill-opacity="1"/></g><g><path d="M99.99985418701172,32.97282684788555L63.63335418701172,0.010358427885549068L63.63335418701172,22.26372684788555C63.63335418701172,28.181126847885547,68.60874418701172,32.97802684788555,74.74525418701172,32.97802684788555L99.99985418701172,32.97802684788555L99.99985418701172,32.97282684788555Z" fill-rule="evenodd" fill="#AEEDD0" fill-opacity="1"/></g></g></svg>