<svg xmlns="http://www.w3.org/2000/svg" xmlns:xlink="http://www.w3.org/1999/xlink" fill="none" version="1.1" width="112" height="112" viewBox="0 0 112 112"><defs><linearGradient x1="0.5" y1="0" x2="0.5" y2="1" id="master_svg0_71_1867"><stop offset="0%" stop-color="#2DADAD" stop-opacity="0.6203417181968689"/><stop offset="100%" stop-color="#FFFFFF" stop-opacity="1"/></linearGradient><linearGradient x1="0.5" y1="0" x2="0.5057127409375332" y2="0.7660000008582064" id="master_svg1_71_1868"><stop offset="0%" stop-color="#F8F8F8" stop-opacity="0.7099999785423279"/><stop offset="100%" stop-color="#E2E7F2" stop-opacity="0"/></linearGradient><linearGradient x1="0.5" y1="0" x2="0.5" y2="0.6386448740959167" id="master_svg2_71_1869"><stop offset="0%" stop-color="#2DADAD" stop-opacity="0.6203417181968689"/><stop offset="100%" stop-color="#FFFFFF" stop-opacity="1"/></linearGradient><linearGradient x1="0.6847118139266968" y1="0.46299999952316284" x2="-0.004625069298605622" y2="0.6050000506813135" id="master_svg3_71_1872"><stop offset="0%" stop-color="#EAEEF2" stop-opacity="1"/><stop offset="100%" stop-color="#E1E6ED" stop-opacity="1"/></linearGradient><linearGradient x1="0.9760614037513733" y1="0.47099998593330383" x2="-0.07032155274771908" y2="0.45400002141736895" id="master_svg4_71_1873"><stop offset="0%" stop-color="#EAEEF2" stop-opacity="1"/><stop offset="100%" stop-color="#E1E6ED" stop-opacity="1"/></linearGradient><linearGradient x1="0.7310000061988831" y1="0.953000009059906" x2="0.7310000061988831" y2="0.21700000762939453" id="master_svg5_71_1874"><stop offset="0%" stop-color="#F8F8F8" stop-opacity="1"/><stop offset="100%" stop-color="#E2E7F2" stop-opacity="1"/></linearGradient><linearGradient x1="0.3050000071525574" y1="0.9589743614196777" x2="0.324999959333121" y2="0.12609865093043285" id="master_svg6_71_1875"><stop offset="0%" stop-color="#F8F8F8" stop-opacity="1"/><stop offset="100%" stop-color="#E2E7F2" stop-opacity="1"/></linearGradient><linearGradient x1="0.5" y1="0" x2="0.5" y2="1" id="master_svg7_71_1876"><stop offset="0%" stop-color="#F8F8F8" stop-opacity="1"/><stop offset="100%" stop-color="#E2E7F2" stop-opacity="1"/></linearGradient><linearGradient x1="0.5" y1="0" x2="0.5" y2="1" id="master_svg8_71_1876"><stop offset="0%" stop-color="#F8F8F8" stop-opacity="1"/><stop offset="100%" stop-color="#E2E7F2" stop-opacity="1"/></linearGradient><linearGradient x1="0.5" y1="0" x2="0.5" y2="1" id="master_svg9_71_1867"><stop offset="0%" stop-color="#2DADAD" stop-opacity="0.6203417181968689"/><stop offset="100%" stop-color="#FFFFFF" stop-opacity="1"/></linearGradient><linearGradient x1="0.03436868265271187" y1="0.5" x2="1.4808269739151" y2="0.5" id="master_svga_71_1877"><stop offset="0%" stop-color="#59DDAF" stop-opacity="1"/><stop offset="100%" stop-color="#26BA84" stop-opacity="1"/></linearGradient></defs><g><g><g><g><path d="" fill="#FFFFFF" fill-opacity="0" style="mix-blend-mode:passthrough"/></g><g><g><path d="M67.93608852836914,59.88937663555908L66.90468312836914,59.81719263555908L65.92030812836914,59.648749635559085L64.97530702836914,59.38625663555908L64.06968502836914,59.032969635559084L63.19577362836914,58.58562963555909L62.38311862836914,58.06719263555908L61.625150228369144,57.47656363555908L60.91968032836914,56.80828563555908L60.28093412836914,56.07547263555908L59.71437252836914,55.29125263555908L59.22327322836914,54.45015463555908L58.80327683836914,53.54672363555908L58.47077935836914,52.61375363555908L58.22905823836914,51.64031663555908L58.08030986036914,50.629690635559086L58.02780532836914,49.568753635559084L58.08030986036914,48.51109563555909L58.22905823836914,47.49719163555908L58.47077935836914,46.52703563555908L58.80327683836914,45.59297163555908L59.22327322836914,44.68953363555908L59.71437252836914,43.848438635559084L60.28093412836914,43.06203063555908L60.91968032836914,42.32922163555908L61.625150228369144,41.66312763555908L62.38311862836914,41.070314635559086L63.19577362836914,40.55406363555908L64.06968502836914,40.10781463555908L64.97530702836914,39.75453283555908L65.92030812836914,39.49093913555908L66.90468312836914,39.32359503555908L67.93608852836914,39.25140663555908L69.20046332836914,39.33343793555908L70.42874132836914,39.578437835559086L71.62968532836913,39.986407235559085L71.60234132836914,39.25140663555908L71.65483832836914,38.15765663555908L71.82327232836914,37.104374835559085L72.11312032836913,36.08281323555908L72.51561832836914,35.10281373555908L73.02202632836914,34.18625113555908L73.63342732836914,33.329845935559085L74.33889532836915,32.54781223555908L75.13186432836915,31.85656453555908L76.01999132836914,31.247345135559083L76.97484032836914,30.75515752555908L77.95373932836914,30.38875058555908L78.96327632836915,30.143751625559084L79.99249032836914,30.022343635559082L81.01952332836913,30.022343635559082L82.05202632836914,30.143751625559084L83.05937232836914,30.38875058555908L84.03827332836914,30.75515752555908L84.99312032836914,31.247345135559083L85.88124432836915,31.85656453555908L86.67421332836915,32.54781223555908L87.37968232836914,33.329845935559085L87.99108732836913,34.18625113555908L88.49749332836915,35.10281373555908L88.89998832836915,36.08281323555908L89.18983632836914,37.104374835559085L89.36046432836915,38.15765663555908L89.41077232836915,39.25140663555908L89.33748832836915,40.445782635559084L89.11873832836915,41.604063635559086L88.75343132836915,42.74156463555908L89.46436832836915,42.342345635559084L90.19609032836914,42.014220635559084L90.95624132836915,41.75609363555908L91.73936832836914,41.57344063555908L92.53233732836914,41.45968963555908L93.34061832836915,41.42359663555908L94.56670732836915,41.52421863555908L95.72280132836914,41.774689635559085L96.81545632836914,42.17718763555908L97.85233332836914,42.72187763555908L98.79405232836913,43.379218635559084L99.64937232836914,44.16125263555908L100.40295432836913,45.04828063555908L101.03733432836914,46.01843763555908L101.55577132836913,47.08703563555908L101.93529932836914,48.211407635559084L102.16936532836914,49.39812963555909L102.25249132836913,50.65484763555908L102.16936532836914,51.91375463555909L101.93529932836914,53.10046863555908L101.55577132836913,54.22593763555908L101.03733432836914,55.29343463555908L100.40295432836913,56.26359063555908L99.64937232836914,57.15172463555908L98.79405232836913,57.93375063555908L97.85233332836914,58.59109763555908L96.81545632836914,59.135781635559084L95.72280132836914,59.53828163555908L94.56670732836915,59.78875463555909L93.34061832836915,59.88937663555908L67.93608852836914,59.88937663555908Z" fill="url(#master_svg0_71_1867)" fill-opacity="0.20000000298023224" style="mix-blend-mode:passthrough"/></g><g><path d="M9.90171867106533,85.21187799523926L9.79453167106533,84.71750099523925L9.51781237106533,83.36234499523925L9.140468771065331,81.33890499523926L8.73468761106533,78.84078399523926L8.54218738106533,77.48452799523926L8.366093591065331,76.05937799523926L8.218437521065331,74.62218899523926L8.10687539006533,73.18828399523926L8.03796862006533,71.76531199523926L8.02375017106533,70.41890899523926L8.04781280306533,69.52859099523926L8.10359344606533,68.70499399523925L8.18671869106533,67.94484499523927L8.31359409106533,67.19015499523925L8.475468591065331,66.53171399523926L8.66687481106533,65.95968499523926L8.85281287106533,65.54187199523926L9.05953147106533,65.18968899523927L9.285937771065331,64.89546899523926L9.53203157106533,64.65374899523925L9.88640617106533,64.39015799523926L10.22656257106533,64.18780999523926L10.55468737106533,64.04015599523926L10.87515627106533,63.94390699523926L11.32031237106533,63.873902995239256L11.75343717106533,63.872807995239256L12.177811971065331,63.93953199523926L12.59453137106533,64.06312199523926L13.000312171065332,64.23483999523926L13.39843787106533,64.45468499523926L13.96281327106533,64.84625099523926L14.49218737106533,65.29796899523926L14.983281971065331,65.79015599523926L15.41750087106533,66.28343899523927L15.81343737106533,66.78218799523925L16.13062367106533,67.22078299523926L16.58999907106533,67.92077799523926L16.752968671065332,68.19640499523926L16.630468271065332,67.74905999523926L16.32093707106533,66.52843799523926L15.91406287106533,64.71718799523926L15.70187457106533,63.664999995239256L15.491874571065331,62.49578099523926L15.30484237106533,61.29483899523926L15.14406377106533,60.045779195239255L15.02593837106533,58.78796769523926L14.95703107106533,57.54984049523926L14.94609297106533,56.725155395239256L14.966873971065331,55.938749295239255L15.01828037106533,55.18953279523926L15.11125077106533,54.44359139523926L15.24468837106533,53.76437379523926L15.41421737106533,53.14531059523926L15.58046847106533,52.690310195239256L15.77296907106533,52.28452999523926L15.98953137106533,51.92249909523926L16.23015577106533,51.60093641523926L16.50906267106533,51.31327962523926L16.82078057106533,51.074842865239255L17.16750037106533,50.882341865239255L17.55468737106533,50.736874575239256L17.960469071065333,50.65484333023926L18.350937171065333,50.63296699523926L18.73374917106533,50.67124891323926L19.109999171065333,50.76749944523926L19.47203017106533,50.91296672523926L19.830781171065333,51.106562615239255L20.190626171065333,51.35046666523926L20.550468171065333,51.65015639523926L20.99124917106533,52.08874789523926L21.42874917106533,52.59734439523926L21.86624917106533,53.18468739523926L22.26656217106533,53.79718469523926L22.66031117106533,54.45781059523926L23.043123171065332,55.16875119523926L23.57468617106533,56.26250169523926L24.07015617106533,57.401092495239254L24.52843617106533,58.55390219523926L24.93859317106533,59.67937569523926L25.31375117106533,60.79062299523926L25.633123171065332,61.802340995239256L26.14390517106533,63.56765599523926L26.45890617106533,64.77515199523926L26.56718617106533,65.22249899523926L26.51796917106533,64.77624699523926L26.43156217106533,63.58953099523926L26.40312417106533,62.816248995239256L26.39984117106533,61.89531299523926L26.43156217106533,60.94046499523926L26.51359317106533,59.92327979523926L26.600000171065332,59.24187569523926L26.71812417106533,58.56921719523926L26.86796917106533,57.90421389523926L27.05718817106533,57.25234409523926L27.28468917106533,56.642029295239254L27.55265617106533,56.07000069523926L27.78890617106533,55.66093919523926L28.05249817106533,55.28906159523926L28.34234417106533,54.95327949523926L28.660623171065332,54.65140679523926L29.00843817106533,54.38999869523926L29.39343417106533,54.174529995239254L29.81671517106533,54.00390529523926L30.28484517106533,53.87812469523926L30.66328017106533,53.844218695239256L31.04171717106533,53.87921599523926L31.42671617106533,53.98531009523926L31.82484417106533,54.16906239523926L32.191250171065334,54.39765569523926L32.569687171065326,54.686404195239255L32.95796617106533,55.04187299523926L33.35937517106533,55.47062059523926L33.84718717106533,56.06671619523926L34.34484517106533,56.75359439523926L34.85234217106533,57.538906095239255L35.32484417106533,58.342808695239256L35.79624917106533,59.20468519523926L36.26547017106533,60.12781049523926L36.92828317106533,61.53656199523925L37.561561171065335,62.99234199523926L38.15984317106533,64.46124699523926L38.705625171065336,65.88750099523926L39.217502171065334,67.29187199523926L39.660467171065335,68.56609299523926L40.38781317106533,70.78311899523925L40.85046717106533,72.29358899523926L41.01453017106533,72.85140599523926L9.90171867106533,85.21187799523926Z" fill="url(#master_svg1_71_1868)" fill-opacity="1" style="mix-blend-mode:passthrough"/></g><g><g><path d="M111.9999964025879,89.11874967028808L111.97265640258789,89.7049976702881L111.8906164025879,90.29015967028809L111.75718640258789,90.87640967028808L111.56358640258789,91.47031367028808L111.30982640258789,92.07296967028809L110.98936640258789,92.6854666702881L110.57921640258789,93.33953667028808L110.0870264025879,94.0045296702881L109.50624640258789,94.68265767028808L108.82483640258789,95.37499967028809L108.0340564025879,96.08375167028808L107.26623940258789,96.69843867028808L106.4109304025879,97.31969267028808L105.46046040258788,97.94640967028809L104.40827540258789,98.57859467028808L103.24779940258789,99.21625367028808L101.84124340258789,99.91735067028809L100.29467440258789,100.61406667028808L98.59717940258788,101.30422567028809L96.74108540258788,101.98781967028809L94.77890440258788,102.63968667028809L92.69530840258788,103.26093867028808L90.48482940258789,103.85265967028809L88.27109140258788,104.38422167028808L85.9534264025879,104.87969367028808L83.53405340258789,105.33797267028808L81.11140840258788,105.74265467028809L78.60998940258789,106.10578367028808L76.02765240258789,106.42516167028808L73.4431194025879,106.69312867028808L70.80171940258789,106.91515967028809L68.10452240258789,107.09234767028809L65.40514740258789,107.21812967028808L62.67296240258789,107.29359267028809L59.905780402587894,107.31875467028809L57.13967940258789,107.29359267028809L54.40639840258789,107.21812967028808L51.70812240258789,107.09234767028809L49.00874340258789,106.91515967028809L46.36843540258789,106.69312867028808L43.78499640258789,106.42516167028808L41.20156140258789,106.10578367028808L38.70014940258789,105.74265467028809L36.277496402587886,105.33797267028808L33.85702740258789,104.87969367028808L31.54156340258789,104.38422167028808L29.32562040258789,103.85265967028809L27.11624940258789,103.26093867028808L25.032655402587892,102.63968667028809L23.07046740258789,101.98781967028809L21.21437340258789,101.30422567028809L19.51796840258789,100.61406667028808L17.97140540258789,99.91735067028809L16.56484220258789,99.21625367028808L15.403280302587891,98.57859467028808L14.35109280258789,97.94640967028809L13.40062430258789,97.31969267028808L12.54531190258789,96.69843867028808L11.77859400258789,96.08375167028808L10.98781230258789,95.37499967028809L10.306406702587891,94.68265767028808L9.724531602587891,94.0045296702881L9.232344102587891,93.33953667028808L8.82328100258789,92.6854666702881L8.50171917258789,92.07296967028809L8.249062392587891,91.47031367028808L8.055469002587891,90.87640967028808L7.92093741258789,90.29015967028809L7.84000014858789,89.7049976702881L7.812656402587891,89.11874967028808L7.84000014858789,88.53250267028808L7.92093741258789,87.94734767028808L8.055469002587891,87.36109367028808L8.249062392587891,86.76718767028808L8.50171917258789,86.16453067028809L8.82328100258789,85.55203367028808L9.232344102587891,84.89797167028809L9.724531602587891,84.23297067028808L10.306406702587891,83.55484467028809L10.98781230258789,82.86249967028809L11.77859400258789,82.15375067028809L12.54531190258789,81.53906467028808L13.40062430258789,80.91781427028809L14.35109280258789,80.29109667028808L15.403280302587891,79.65890697028809L16.56484220258789,79.02124877028808L17.97140540258789,78.32015797028808L19.51796840258789,77.62343977028809L21.21437340258789,76.93328337028808L23.07046740258789,76.24968957028808L25.032655402587892,75.59781267028808L27.11624940258789,74.97656297028809L29.32562040258789,74.38484717028808L31.54156340258789,73.85327937028809L33.85702740258789,73.35781427028809L36.277496402587886,72.89953267028808L38.70014940258789,72.49484377028809L41.20156140258789,72.13171797028808L43.78499640258789,71.81234467028808L46.36843540258789,71.54437453028808L49.00874340258789,71.32234672028808L51.70812240258789,71.14515306028808L54.40639840258789,71.01937581028808L57.13967940258789,70.94390678628808L59.905780402587894,70.91875267028809L62.67296240258789,70.94390678628808L65.40514740258789,71.01937581028808L68.10452240258789,71.14515306028808L70.80171940258789,71.32234672028808L73.4431194025879,71.54437453028808L76.02765240258789,71.81234467028808L78.60998940258789,72.13171797028808L81.11140840258788,72.49484377028809L83.53405340258789,72.89953267028808L85.9534264025879,73.35781427028809L88.27109140258788,73.85327937028809L90.48482940258789,74.38484717028808L92.69530840258788,74.97656297028809L94.77998740258789,75.59781267028808L96.74108540258788,76.24968957028808L98.59717940258788,76.93328337028808L100.29467440258789,77.62343977028809L101.84124340258789,78.32015797028808L103.24779940258789,79.02124877028808L104.40827540258789,79.65890697028809L105.46046040258788,80.29109667028808L106.4109304025879,80.91781427028809L107.26623940258789,81.53906467028808L108.0340564025879,82.15375067028809L108.82483640258789,82.86249967028809L109.50624640258789,83.55484467028809L110.0870264025879,84.23297067028808L110.57921640258789,84.89797167028809L110.98936640258789,85.55203367028808L111.30982640258789,86.16453067028809L111.56358640258789,86.76718767028808L111.75718640258789,87.36109367028808L111.8906164025879,87.94734767028808L111.97265640258789,88.53250267028808L111.9999964025879,89.11874967028808Z" fill="url(#master_svg2_71_1869)" fill-opacity="0.0617784820497036" style="mix-blend-mode:passthrough"/></g></g><g><g><path d="M55.469526290893555,40.172346115112305L55.469526290893555,54.2839061151123L78.91296029089355,53.6342191151123L78.91296029089355,43.037969115112304L55.469526290893555,40.172346115112305Z" fill="#DBDFE6" fill-opacity="1" style="mix-blend-mode:passthrough"/></g><g><path d="M55.469524960510256,40.172346115112305L55.469524960510256,54.2839061151123L36.642807960510254,53.6342191151123L36.642807960510254,44.33734461511231L55.469524960510256,40.172346115112305Z" fill="#D0D7E0" fill-opacity="1" style="mix-blend-mode:passthrough"/></g><g><path d="M58.18093299865723,47.34953240966492L58.18093299865723,78.03687210966493L78.91295999865723,73.87405610966492L78.91295999865723,43.13203310966492L58.18093299865723,47.34953240966492Z" fill="url(#master_svg3_71_1872)" fill-opacity="1" style="mix-blend-mode:passthrough"/></g><g><path d="M58.17983896051025,78.03686857833861L36.642807960510254,74.18468657833863L36.642807960510254,44.25421857833862L58.17983896051025,47.281720378338626L58.17983896051025,78.03686857833861Z" fill="url(#master_svg4_71_1873)" fill-opacity="1" style="mix-blend-mode:passthrough"/></g><g><path d="M36.64280795383301,44.25421857833862L30.575777053833008,50.202032078338625L51.729996053833005,54.041095278338624L58.27281005383301,47.282812878338625L36.64280795383301,44.25421857833862Z" fill="url(#master_svg5_71_1874)" fill-opacity="1" style="mix-blend-mode:passthrough"/></g><g><path d="M64.35295911625977,53.63421963214111L85.13857791625976,49.09297083214111L78.96545591625977,43.14625263214111L58.074832916259766,47.25437733214111L64.35295911625977,53.63421963214111Z" fill="url(#master_svg6_71_1875)" fill-opacity="1" style="mix-blend-mode:passthrough"/></g></g><g><path d="M13.77578067779541,77.35984421428222L14.04593705779541,77.44843821428222L14.76343756779541,77.63656611428223L15.230468377795411,77.72625491428222L15.78609367779541,77.80172351428223L16.36140537779541,77.83890721428223L16.97499917779541,77.82468791428222L17.38296767779541,77.78094241428222L17.786561977795408,77.70218851428223L18.186874377795412,77.58625121428223L18.57187507779541,77.42984631428223L18.93718667779541,77.22312541428222L19.28500027779541,76.96609641428222L19.593436277795412,76.66312601428223L19.87453177779541,76.29125551428223L20.12609287779541,75.84281351428223L20.27374987779541,75.49172401428223L20.39843697779541,75.08813001428223L20.49906207779541,74.62656401428222L20.57015657779541,74.09719281428222L20.77906127779541,73.36437921428222L20.99453017779541,72.78250311428222L21.21328067779541,72.32968911428223L21.47796777779541,71.89875141428223L21.72953077779541,71.57391077428223L21.96578117779541,71.33656215428222L22.23265547779541,71.12984848428222L22.47109317779541,70.98766231428223L22.68218807779541,70.89906215428222L23.00046727779541,70.81594276428223L23.218124377795412,70.79734420778223L23.42921927779541,70.81156349228223L23.19406127779541,70.78859901428223L22.95015617779541,70.79516124728222L22.59796807779541,70.85094356528222L22.35734367779541,70.91766071428222L22.092656177795412,71.02921867428222L21.79953007779541,71.19219303428223L21.530468977795408,71.38797187428223L21.25046777779541,71.65594202428223L20.96171717779541,72.00812641428223L20.71671867779541,72.39093891428223L20.47609427779541,72.87984851428223L20.24531267779541,73.49563021428223L19.64921757779541,73.38406561428222L19.10890677779541,73.32172111428223L18.61781267779541,73.30203441428223L18.17156217779541,73.32281611428223L17.57328057779541,73.40703701428222L17.04499907779541,73.54266071428222L16.58234337779541,73.72422051428222L16.13937447779541,73.95718981428223L15.75109287779541,74.21640801428222L15.41312457779541,74.49969191428222L15.10031187779541,74.81578781428223L14.83343747779541,75.13297131428223L14.60703134779541,75.45125631428223L14.31499945779541,75.94453191428222L14.10609364779541,76.37875361428223L13.94203112779541,76.79218821428222L13.84906256179541,77.08093931428223L13.77578067779541,77.35984421428222Z" fill="url(#master_svg7_71_1876)" fill-opacity="1" style="mix-blend-mode:passthrough"/></g><g><path d="M77.66717910766602,86.06062836594238L77.92639729766601,86.11968846594239L78.59686648766602,86.21921636594239L79.02562140766602,86.24765536594238L79.51671380766602,86.24328276594238L80.01436900766602,86.19078446594239L80.51858590766602,86.07484106594238L80.84343290766601,85.95672086594239L81.15077640766602,85.79812526594239L81.44171140766602,85.59687186594238L81.69874670766602,85.35625266594238L81.92624140766601,85.05765486594238L82.12202690766601,84.69452856594238L82.23030710766602,84.40906146594239L82.31452800766601,84.07765886594238L82.37139890766602,83.69375136594238L82.39655920766602,83.24968906594238L82.50374510766602,82.70390896594239L82.62405440766602,82.26749706594238L82.75421140766602,81.92406476594238L82.91936870766601,81.59484481594238L83.08124110766602,81.34218877594239L83.23874140766601,81.15406036594239L83.50343320766602,80.92218589594238L83.73202320766602,80.78984641594238L83.95843080766602,80.70999813094238L84.11483570766602,80.68155956264238L84.26905820766602,80.67828178404238L84.09733870766601,80.67718696594238L83.92015220766602,80.69796848294239L83.66640140766602,80.76140785194238L83.40608830766601,80.86968803594239L83.10858490766601,81.06109428594239L82.92483570766602,81.22078418594238L82.73889680766601,81.43406015594238L82.55186990766602,81.70749776594238L82.39655920766602,82.00171676594238L82.25218390766602,82.37249946594238L82.12312170766602,82.83406566594238L81.61015320766602,82.78921796594238L81.15405440766601,82.78594016594238L80.75155500766601,82.81984616594238L80.39499190766601,82.88656356594238L79.92030790766601,83.03093906594238L79.51890350766601,83.21359376594238L79.17655920766602,83.43124866594238L78.86265350766601,83.69156166594239L78.60015094766601,83.96280956594238L78.38359063766602,84.24499896594239L78.11233609766602,84.69452856594238L77.92639729766601,85.10468486594239L77.78967855766602,85.50171656594239L77.71639918566602,85.78390546594238L77.66717910766602,86.06062836594238Z" fill="url(#master_svg8_71_1876)" fill-opacity="1" style="mix-blend-mode:passthrough"/></g><g><path d="M19.26749925041504,30.20390698146973L18.87374875041504,30.175471281469726L18.50515555041504,30.096721681469727L18.155156050415037,29.96875188146973L17.82374985041504,29.794845581469726L17.52187385041504,29.582658781469725L17.24734318041504,29.32890698146973L17.00562382041504,29.042345081469726L16.80218619041504,28.727344081469727L16.63484262041504,28.380627181469727L16.513436300415037,28.015315081469726L16.43796729641504,27.629218581469726L16.41062355041504,27.219062281469725L16.43796729641504,26.808905581469727L16.513436300415037,26.422814381469728L16.63484262041504,26.056406981469728L16.80218619041504,25.709688181469726L17.00562382041504,25.39468788146973L17.24734318041504,25.108125681469726L17.52187385041504,24.855469981469728L17.82374985041504,24.642188781469727L18.155156050415037,24.468283181469726L18.50515555041504,24.340312981469726L18.87374875041504,24.262657681469726L19.26749925041504,24.234220281469728L19.62953015041504,24.257188281469727L19.98171805041504,24.328281381469726L20.32624845041504,24.446406581469727L20.318593250415038,24.234220281469728L20.33062455041504,23.918125181469726L20.37874985041504,23.614062781469727L20.46078105041504,23.319845281469725L20.57562305041504,23.037657781469726L20.721091750415038,22.772970281469725L20.89609335041504,22.524688541469725L21.097342450415038,22.299376311469725L21.325935350415037,22.099219921469725L21.58187435041504,21.923126041469725L21.85640525041504,21.780938161469727L22.13749745041504,21.674844271469727L22.42953065041504,21.603751186469726L22.72593595041504,21.568750381469727L23.021247850415037,21.568750381469727L23.31874845041504,21.603751186469726L23.60968585041504,21.674844271469727L23.89187335041504,21.780938161469727L24.16531085041504,21.923126041469725L24.42124845041504,22.099219921469725L24.648747450415037,22.299376311469725L24.852186250415038,22.524688541469725L25.02718635041504,22.772970281469725L25.17156125041504,23.037657781469726L25.286404650415037,23.319845281469725L25.36843585041504,23.614062781469727L25.41656115041504,23.918125181469726L25.429685550415037,24.234220281469728L25.40781215041504,24.578751081469726L25.345465650415036,24.914531681469725L25.24046805041504,25.243751281469727L25.54781155041504,25.078594181469725L25.87265585041504,24.959375581469725L26.20952895041504,24.886094581469727L26.55624955041504,24.862031981469727L26.90843555041504,24.894844781469725L27.23984355041504,24.969219181469725L27.55265455041504,25.087344181469728L27.850153550415037,25.245939481469726L28.12031155041504,25.437345781469727L28.36531055041504,25.663751081469727L28.580779550415038,25.918594881469726L28.762341550415037,26.199687981469726L28.91109055041504,26.505938481469727L29.01937355041504,26.829687581469727L29.086090550415037,27.170940381469727L29.11015355041504,27.532970881469726L29.086090550415037,27.895002381469727L29.01937355041504,28.236251781469726L28.91109055041504,28.560000881469726L28.762341550415037,28.866252881469727L28.580779550415038,29.147344581469728L28.36531055041504,29.402189781469726L28.12031155041504,29.628596281469726L27.850153550415037,29.820002581469726L27.55265455041504,29.97859578146973L27.23984355041504,30.096721681469727L26.90843555041504,30.171095881469725L26.55624955041504,30.20390698146973L19.26749925041504,30.20390698146973Z" fill="url(#master_svg9_71_1867)" fill-opacity="0.20000000298023224" style="mix-blend-mode:passthrough"/></g></g></g><g><g><g><path d="M71.61109320300292,18.93937665222168C71.61109320300292,18.93937665222168,64.24578480300293,15.899844452221679,63.38937660300293,22.534532052221678C62.16437510300293,26.91937545222168,59.85218620300293,26.32547095222168,59.85218620300293,26.32547095222168C59.85218620300293,26.32547095222168,62.42906740300293,26.968596452221682,63.75140740300293,23.26515865222168C70.18594020300293,24.96156455222168,71.61109320300292,18.93937665222168,71.61109320300292,18.93937665222168Z" fill="url(#master_svga_71_1877)" fill-opacity="1" style="mix-blend-mode:passthrough"/></g></g><g><path d="M62.556199873291014,28.751075248083495Q62.77243787329101,28.261001708083498,62.979489873291016,27.726789368083494Q62.99728587329102,27.680871888083495,63.005780873291016,27.632364735083495Q63.01427887329102,27.583857581083496,63.01314687329102,27.534624848083496Q63.012017873291015,27.485392116083496,63.00130487329102,27.437325788083495Q62.990592873291014,27.389259458083497,62.97070887329102,27.344206688083496Q62.95082487329101,27.299153928083495,62.92253087329102,27.258846078083497Q62.89424087329101,27.218538228083496,62.85862887329101,27.184524328083498Q62.82301687329102,27.150510428083496,62.781455873291016,27.124097558083495Q62.73989287329101,27.097684678083496,62.693975873291016,27.079887928083497Q62.648055873291014,27.062091168083494,62.599547873291016,27.053594438083497Q62.551040873291015,27.045097708083496,62.501807873291014,27.046227488083495Q62.45257587329101,27.047357288083496,62.404508873291014,27.058070208083496Q62.35644187329102,27.068783108083498,62.31138987329102,27.088667448083495Q62.266337873291015,27.108551798083496,62.226028873291014,27.136843438083496Q62.185721873291016,27.165135088083495,62.15170687329102,27.200746778083495Q62.11769287329102,27.236358468083495,62.091279873291015,27.277921678083494Q62.06486887329102,27.319484858083495,62.04707187329102,27.365402328083498Q61.84827987329102,27.878306928083497,61.641303873291015,28.347388208083498Q61.621423873291015,28.392442938083494,61.61071387329102,28.440510268083496Q61.60000587329101,28.488577608083496,61.598880873291016,28.537810448083498Q61.597755873291014,28.587043248083496,61.60625887329101,28.635549648083497Q61.614759873291014,28.684055948083497,61.63256087329101,28.729971648083495Q61.65036187329102,28.775887248083496,61.67677887329101,28.817447748083495Q61.703195873291016,28.859008348083496,61.737212873291014,28.894616748083497Q61.77123287329101,28.930225148083498,61.81154287329102,28.958512648083495Q61.851852873291016,28.986800448083496,61.89690787329101,29.006680248083494Q61.98789987329101,29.046829248083498,62.08732987329101,29.049101148083498Q62.18675987329102,29.051372848083496,62.279491873291015,29.015421548083495Q62.372222873291015,28.979470048083495,62.44413587329102,28.910768648083497Q62.51604987329102,28.842067348083496,62.556199873291014,28.751075248083495ZM60.34064287329102,32.427339048083496Q61.012675873291016,31.624721048083497,61.585445873291015,30.656421648083494Q61.610515873291014,30.614036048083495,61.62683687329101,30.567573548083494Q61.64315787329102,30.521111048083498,61.65010087329102,30.472357248083497Q61.657043873291016,30.423603548083495,61.654342873291014,30.374431848083496Q61.65164187329101,30.325260148083498,61.63940087329102,30.277560748083495Q61.62715487329102,30.229860748083496,61.60584287329102,30.185466048083498Q61.58452987329102,30.141071348083496,61.55496587329101,30.101687648083498Q61.52540187329102,30.062304048083497,61.488723873291015,30.029444648083498Q61.45204387329102,29.996585848083495,61.409658873291015,29.971513948083498Q61.36727187329102,29.946441848083495,61.320808873291014,29.930120448083496Q61.27434587329101,29.913799248083496,61.225591873291016,29.906856048083498Q61.17683787329102,29.899912848083495,61.12766687329102,29.902614548083495Q61.07849487329102,29.905316148083497,61.03079587329101,29.917558648083496Q60.98309687329102,29.929801248083496,60.938701873291016,29.951114148083498Q60.89430587329102,29.972427348083496,60.85492287329102,30.001991748083498Q60.815539873291016,30.031556348083495,60.782680873291014,30.068236348083495Q60.749820873291014,30.104916048083496,60.724750873291015,30.147301948083495Q60.193542873291015,31.045337648083496,59.57391987329102,31.785361748083496Q59.510072873291016,31.861618048083496,59.480266873291015,31.956502948083497Q59.45045987329102,32.0513877480835,59.45923187329102,32.1504559480835Q59.46800287329101,32.249524148083495,59.51401987329102,32.3376932480835Q59.56003687329101,32.425863248083495,59.636291873291015,32.489711748083494Q59.67404987329102,32.521326048083495,59.71724887329101,32.544966648083495Q59.76044887329101,32.568607848083495,59.807429873291014,32.583366348083494Q59.85441187329101,32.59812544808349,59.903371873291015,32.6034350480835Q59.952331873291016,32.608744648083494,60.001384873291016,32.6044006480835Q60.05043787329102,32.600056648083495,60.097701873291015,32.586226448083494Q60.144965873291014,32.57239624808349,60.188623873291014,32.549610648083494Q60.23228087329102,32.5268254480835,60.27065287329101,32.495961148083495Q60.30902887329101,32.4650964480835,60.34064287329102,32.427339048083496ZM50.72231437329101,32.9167614480835Q50.087594073291015,32.80394884808349,49.572094873291014,33.2768673480835Q49.535806173291014,33.3101577480835,49.50670957329102,33.349888848083495Q49.477612973291016,33.3896193480835,49.45682667329102,33.4342632480835Q49.436040373291014,33.47890714808349,49.42436317329101,33.5267486480835Q49.41268637329102,33.5745897480835,49.410566773291016,33.623789748083496Q49.40844727329102,33.672989848083496,49.41596697329101,33.72165824808349Q49.423486673291016,33.7703266480835,49.440356273291016,33.8165926480835Q49.45722627329101,33.8628587480835,49.482798073291015,33.904944848083495Q49.508370373291015,33.947031048083495,49.54166127329101,33.9833192480835Q49.60889527329102,34.056606748083496,49.699057573291014,34.0985860480835Q49.78921887329101,34.1405658480835,49.88858317329102,34.1448464480835Q49.987947473291015,34.1491270480835,50.081386073291014,34.115056548083494Q50.17482467329101,34.080986548083494,50.24811267329102,34.013752448083494Q50.399328673291016,33.8750271480835,50.547320373291015,33.9013309480835Q50.792374173291016,33.94488574808349,51.08004807329102,34.335963248083495Q51.145516873291015,34.425041248083495,51.202907073291016,34.515186348083496Q51.22935387329102,34.55672744808349,51.263396773291014,34.592310948083494Q51.297439573291015,34.627894448083495,51.337770973291015,34.6561527480835Q51.37810227329101,34.6844110480835,51.42317147329101,34.70425844808349Q51.468240773291015,34.7241058480835,51.51631637329102,34.73477934808349Q51.564391173291014,34.7454524480835,51.61362457329101,34.7465415480835Q51.66285847329102,34.74763054808349,51.711359073291014,34.7390937480835Q51.75985907329102,34.730557448083495,51.80576177329102,34.71272274808349Q51.85166457329102,34.69488814808349,51.89320657329102,34.6684412480835Q51.934747673291014,34.6419935480835,51.970331173291015,34.6079502480835Q52.00591467329102,34.5739069480835,52.034172973291014,34.533576048083496Q52.06243137329102,34.4932441480835,52.08227827329102,34.4481754480835Q52.102125173291014,34.4031057480835,52.11279867329102,34.3550310480835Q52.12347217329101,34.3069558480835,52.12456037329102,34.2577219480835Q52.12564947329102,34.2084884480835,52.117113073291016,34.159988448083496Q52.108575773291015,34.1114883480835,52.09074207329102,34.0655856480835Q52.072908373291014,34.0196828480835,52.04646107329101,33.978141748083495Q51.97110847329102,33.8597822480835,51.88558387329101,33.743415848083494Q51.361004873291016,33.0302801480835,50.72231437329101,32.9167614480835ZM57.12848587329101,35.251868748083496Q58.152524873291014,34.524541348083496,58.802816873291015,33.96982144808349Q58.84028287329102,33.937861448083495,58.870792873291016,33.89920614808349Q58.901302873291016,33.8605508480835,58.92368687329102,33.81668564808349Q58.94607087329101,33.7728209480835,58.959466873291014,33.725432348083494Q58.972862873291014,33.6780438480835,58.976756873291016,33.6289525480835Q58.980649873291014,33.579860648083496,58.974891873291014,33.5309524480835Q58.96913287329102,33.48204514808349,58.95394287329101,33.435200648083494Q58.93875387329101,33.3883562480835,58.91471787329102,33.3453745480835Q58.890681873291015,33.3023939480835,58.858722873291015,33.264927848083495Q58.826760873291015,33.22746184808349,58.788105873291016,33.1969499480835Q58.74945087329102,33.1664390480835,58.70558687329101,33.1440553480835Q58.66172087329102,33.1216716480835,58.614331873291015,33.108275448083496Q58.56694387329102,33.0948801480835,58.51785287329102,33.090986748083495Q58.46876087329102,33.08709284808349,58.41985287329101,33.092851648083496Q58.370944873291016,33.09860994808349,58.324100873291016,33.11379904808349Q58.27725587329101,33.12898874808349,58.23427587329101,33.15302514808349Q58.191293873291016,33.1770620480835,58.15382887329102,33.2090220480835Q57.53729487329102,33.7349457480835,56.549425873291014,34.4365835480835Q56.468339873291015,34.494174048083494,56.41546587329101,34.5784111480835Q56.36259187329102,34.6626482480835,56.345979873291014,34.7607078480835Q56.329366873291015,34.858766548083494,56.35154487329102,34.955718948083494Q56.37372187329102,35.052670948083495,56.43131287329101,35.13375614808349Q56.459828873291016,35.173905348083494,56.49562887329102,35.2077198480835Q56.53142887329102,35.2415342480835,56.573138873291015,35.2677145480835Q56.61484887329102,35.293894748083495,56.660865873291016,35.3114347480835Q56.70688187329102,35.328974748083496,56.75543587329101,35.337201148083494Q56.803989873291016,35.345426548083495,56.85321387329101,35.3440217480835Q56.90244087329101,35.3426170480835,56.95044587329102,35.33163644808349Q56.998452873291015,35.3206558480835,57.043393873291016,35.300520448083496Q57.088335873291015,35.280385048083495,57.12848587329101,35.251868748083496ZM50.83271317329101,37.338783248083494Q49.383028073291015,37.0408926480835,48.98338317329102,35.763714748083494Q48.96867657329101,35.716715848083496,48.963420873291014,35.6677513480835Q48.95816607329102,35.618786848083495,48.96256447329102,35.569737448083494Q48.966962773291016,35.5206880480835,48.980846373291016,35.4734401480835Q48.99472947329102,35.426192248083495,49.017563773291016,35.3825607480835Q49.04039767329102,35.3389282480835,49.07130477329102,35.300589548083494Q49.10221247329102,35.26224994808349,49.14000557329101,35.2306776480835Q49.177798773291016,35.1991052480835,49.221025473291014,35.1755132480835Q49.264251673291014,35.15192034808349,49.31125067329101,35.137214148083494Q49.40616797329102,35.107512948083496,49.50522707329102,35.11639594808349Q49.60428567329102,35.1252794480835,49.69240477329102,35.171394348083496Q49.78052327329102,35.217509248083495,49.84428687329102,35.293835648083494Q49.90804957329102,35.37016204808349,49.937750773291015,35.465080748083494Q50.168729273291014,36.203236548083495,51.099220773291016,36.371850048083495Q51.19105527329101,36.388491648083495,51.270702873291015,36.437141448083494Q51.350350373291015,36.485791248083494,51.407083973291016,36.5598993480835Q51.50037527329101,36.35581204808349,51.547505873291016,36.138422948083495Q51.557939573291016,36.090294848083495,51.577562373291016,36.045127848083496Q51.59718467329102,35.9999609480835,51.625242273291015,35.959488848083495Q51.65329937329101,35.9190177480835,51.68871357329102,35.884799048083494Q51.724127773291016,35.8505792480835,51.76553727329102,35.8239259480835Q51.80694627329102,35.79727264808349,51.85276027329102,35.7792100480835Q51.898572873291016,35.7611475480835,51.947030973291014,35.7523698480835Q51.995488173291015,35.743592248083495,52.04472737329102,35.744436248083495Q52.093965573291015,35.745280248083496,52.142093673291015,35.7557153480835Q52.19022087329102,35.76614854808349,52.235387773291016,35.7857713480835Q52.28055577329101,35.805394148083494,52.32102587329101,35.833452248083496Q52.361497873291015,35.8615102480835,52.39571667329102,35.8969240480835Q52.429936373291014,35.9323377480835,52.45658967329101,35.9737472480835Q52.48324207329102,36.0151567480835,52.50130467329102,36.060969348083496Q52.519367173291016,36.1067829480835,52.528145773291016,36.1552400480835Q52.53692337329102,36.2036972480835,52.53607937329102,36.252936348083495Q52.53523447329101,36.3021745480835,52.52480127329102,36.3503036480835Q52.27545067329102,37.5004243480835,51.198016173291016,38.3409748480835Q51.159188273291015,38.37126684808349,51.11519667329102,38.39339884808349Q51.07120557329102,38.4155338480835,51.02374167329101,38.4286598480835Q50.97627737329101,38.441786848083495,50.927164573291016,38.445400848083494Q50.87805177329101,38.4490158480835,50.829177873291016,38.4429788480835Q50.780302973291015,38.43694184808349,50.73354577329101,38.421487848083494Q50.686787573291014,38.406031848083494,50.643943773291014,38.381751848083496Q50.601099973291014,38.357472848083496,50.563816073291015,38.325299848083496Q50.52653217329102,38.2931278480835,50.496241573291016,38.254300848083496Q50.46594997329102,38.215471848083496,50.44381567329101,38.1714808480835Q50.421681373291015,38.1274898480835,50.40855507329101,38.080025848083494Q50.395428673291015,38.032561848083496,50.39181427329102,37.9834488480835Q50.388199373291016,37.9343368480835,50.39423557329101,37.88546284808349Q50.40027187329102,37.8365878480835,50.41572717329102,37.7898298480835Q50.431182373291016,37.7430728480835,50.455462473291014,37.7002288480835Q50.47974257329101,37.657384848083495,50.51191477329102,37.620100848083496Q50.54408737329101,37.582817848083494,50.582915273291015,37.552526848083495Q50.716643373291014,37.4481992480835,50.83271317329101,37.338783248083494ZM53.190886473291016,37.2143592480835Q54.142634873291016,36.9848747480835,55.26703987329101,36.498363448083495Q55.31223687329101,36.478807448083494,55.35274887329102,36.450810448083494Q55.39326087329101,36.4228124480835,55.42753387329101,36.3874492480835Q55.461804873291015,36.35208604808349,55.488520873291016,36.3107166480835Q55.51523587329102,36.2693471480835,55.53336587329102,36.2235612480835Q55.551496873291015,36.1777744480835,55.56034687329102,36.129330648083496Q55.569195873291015,36.0808858480835,55.56842387329102,36.031646748083496Q55.567653873291015,35.98240754808349,55.557291873291014,35.9342641480835Q55.54692987329101,35.8861207480835,55.52737387329101,35.840925248083494Q55.48788087329102,35.7496471480835,55.41646187329101,35.680431348083495Q55.345042873291014,35.61121554808349,55.25257187329102,35.5745983480835Q55.16010187329101,35.5379819480835,55.060657873291014,35.539539348083494Q54.961213873291015,35.541096648083496,54.869934873291015,35.58059124808349Q53.82454687329101,36.032913248083496,52.95648477329102,36.2422189480835Q52.859800373291016,36.2655324480835,52.77939507329101,36.324070948083495Q52.698990773291015,36.3826093480835,52.647108073291015,36.4674596480835Q52.59522627329102,36.5523099480835,52.57976437329101,36.6505575480835Q52.564302473291015,36.7488040480835,52.58761497329102,36.84548954808349Q52.59915827329102,36.89336304808349,52.619818673291014,36.9380636480835Q52.640480073291016,36.9827661480835,52.66946407329102,37.0225782480835Q52.69845007329101,37.0623903480835,52.73464487329102,37.09578324808349Q52.770839673291015,37.129176148083495,52.812854773291015,37.154865248083496Q52.85486887329102,37.1805543480835,52.90108777329102,37.1975536480835Q52.94730667329102,37.2145528480835,52.99595357329102,37.2222089480835Q53.04460047329101,37.2298650480835,53.093806273291015,37.227883348083495Q53.143012973291015,37.22590164808349,53.190886473291016,37.2143592480835ZM43.665621683291015,39.041902848083495Q44.21338665329102,39.2169398480835,44.756800893291015,39.3370318480835Q44.80488628329102,39.347656848083496,44.85412097329102,39.348697848083496Q44.903355573291016,39.3497388480835,44.95184757329102,39.341155848083496Q45.00033927329102,39.3325718480835,45.04622487329102,39.31469384808349Q45.09211027329101,39.2968148480835,45.13362607329102,39.2703278480835Q45.17514177329102,39.243839848083496,45.21069237329102,39.209761848083495Q45.24624297329102,39.175683848083494,45.27446217329101,39.1353258480835Q45.30268157329102,39.094966848083494,45.322485173291014,39.0498778480835Q45.34228877329102,39.0047898480835,45.352915573291014,38.956705848083494Q45.363542073291015,38.9086198480835,45.364583573291014,38.859384848083494Q45.365625173291015,38.8101498480835,45.35704137329102,38.7616588480835Q45.348457573291014,38.7131658480835,45.330578573291014,38.6672818480835Q45.31269947329102,38.621395848083495,45.28621207329102,38.5798808480835Q45.25972457329102,38.538365848083494,45.22564697329101,38.5028138480835Q45.191569173291015,38.46726284808349,45.15121067329102,38.439042848083496Q45.110852273291016,38.410823848083496,45.06576397329101,38.3910208480835Q45.020675573291015,38.37121684808349,44.972590073291016,38.3605908480835Q44.47401684329102,38.2504078480835,43.97000606329102,38.08935284808349Q43.87526931229102,38.059078848083495,43.77615905929102,38.0673648480835Q43.677048803291015,38.07564984808349,43.588653613291015,38.121232848083494Q43.500258083291016,38.166815848083495,43.436035153291016,38.2427578480835Q43.371812223291016,38.318697848083495,43.34153926329102,38.413435848083495Q43.31126636329102,38.50817184808349,43.31955206329101,38.6072828480835Q43.327837763291015,38.706392848083496,43.373420653291014,38.7947888480835Q43.41900360329102,38.8831838480835,43.49494418329102,38.9474058480835Q43.57088475329102,39.0116288480835,43.665621683291015,39.041902848083495ZM46.93742707329102,39.593252848083495Q48.110191373291016,39.603752848083495,49.14015247329102,39.3281388480835Q49.187724073291015,39.315407848083495,49.231898273291016,39.2936408480835Q49.276072473291016,39.2718748480835,49.315151173291014,39.2419078480835Q49.35422997329101,39.2119418480835,49.386712573291014,39.174928848083496Q49.41919467329102,39.1379138480835,49.44383187329102,39.0952748480835Q49.468468673291014,39.052633848083495,49.48431347329102,39.006006848083494Q49.500158273291014,38.9593798480835,49.506602273291016,38.9105578480835Q49.51304627329102,38.86173484808349,49.509841873291016,38.81259484808349Q49.506637573291016,38.7634538480835,49.49390747329102,38.7158818480835Q49.48117737329102,38.6683088480835,49.45941067329102,38.6241348480835Q49.43764397329102,38.579960848083495,49.40767767329102,38.540881848083494Q49.37771127329101,38.5018038480835,49.34069777329101,38.469319848083494Q49.303683273291014,38.4368388480835,49.26104407329102,38.4122018480835Q49.218403773291016,38.3875648480835,49.17177727329101,38.371719848083494Q49.125149773291014,38.355874848083495,49.076327373291015,38.3494308480835Q49.027505373291014,38.342987848083496,48.97836397329102,38.3461928480835Q48.92922307329101,38.349396848083494,48.881651373291014,38.3621268480835Q47.98310427329102,38.6025758480835,46.94638017329102,38.5932938480835Q46.846927873291015,38.592402848083495,46.75470547329102,38.6296378480835Q46.66248297329101,38.666874848083495,46.59153027329101,38.73656884808349Q46.52057747329101,38.806263848083496,46.481695673291014,38.897804848083496Q46.442814373291014,38.9893468480835,46.441923573291014,39.088797848083495Q46.44103317329102,39.188249848083494,46.47826907329102,39.280471848083494Q46.51550507329102,39.3726938480835,46.58519887329101,39.443646848083496Q46.654892473291014,39.51459984808349,46.74643377329102,39.553480848083495Q46.837974773291016,39.592362848083496,46.93742707329102,39.593252848083495Z" fill-rule="evenodd" fill="#BCC2C9" fill-opacity="1" style="mix-blend-mode:passthrough"/></g></g></g></g></svg>