<svg xmlns="http://www.w3.org/2000/svg" xmlns:xlink="http://www.w3.org/1999/xlink" fill="none" version="1.1" width="42" height="42" viewBox="0 0 42 42"><defs><linearGradient x1="0.044109806418418884" y1="1" x2="1" y2="0.07608617842197418" id="master_svg0_71_3999"><stop offset="0%" stop-color="#01AF57" stop-opacity="1"/><stop offset="100%" stop-color="#08E16E" stop-opacity="1"/></linearGradient><clipPath id="master_svg1_71_1815"><rect x="9" y="8" width="25" height="26" rx="0"/></clipPath><linearGradient x1="0.5" y1="0" x2="0.5" y2="1" id="master_svg2_71_4002"><stop offset="0%" stop-color="#FFFFFF" stop-opacity="1"/><stop offset="100%" stop-color="#C5E5DB" stop-opacity="1"/></linearGradient></defs><g><g><path d="M0 8C4.90527396329193e-16 3.5817220013536524 3.5817220013536533 0 8 0L34 0C38.418277998646346 0 42 3.5817220013536533 42 8L42 34C42 38.418277998646346 38.418277998646346 42 34 42L8 42C3.5817220013536533 42 0 38.418277998646346 0 34Z" fill="url(#master_svg0_71_3999)" fill-opacity="1"/></g><g clip-path="url(#master_svg1_71_1815)"><g><path d="M21.807758,19.368459171875C21.459712,19.511865171875,21.5519,19.536239171875,21.128267,19.360334171875L9.77084512,14.454864971875C9.57773823,14.265654571875,9.56864476,13.949475771875,9.75053263,13.748599971874999L9.75072795,13.748193771875L20.824752,8.848615271875C21.076119,8.727146544475,21.331978,8.657677769875,21.789987,8.855521511875L33.068308,13.661662571875C33.261667,13.858287371875,33.271823999999995,14.174959171874999,33.089399,14.368131671875L21.807758,19.368459171875ZM22.149165,32.727381171874995C22.149701999999998,33.026512171875,22.383021,33.268711171875,22.670650000000002,33.268709171875L33.480999,27.407739171875C33.902485,27.133522171875,34.000141,26.649067171875,34.000141,25.943615171875L34.000141,16.050614871875C34.000681,15.753118971875,33.769397999999995,15.511402571875,33.483345,15.510506171875L33.480999,15.510506171875L22.670650000000002,20.228897171874998C22.149166,20.440349171875,22.149166,20.716803171875,22.149166,21.015194171875002L22.149165,32.727381171874995ZM20.333344,20.228897171874998L9.52182186,15.510708771874999C9.23564753,15.510035071875,9.0031324702,15.750760071875,9.0024859668,16.048380871875L9.0024859668,27.419317171875C9.0024859668,27.539772171875,8.933540665,27.713035171875,9.52182186,27.959225171875L20.333345,33.268709171875C20.620399,33.268148171875,20.852789,33.025919171875,20.852681,32.727381171874995L20.852681,21.015194171875002C20.852681,20.716803171875,20.852681,20.440349171875,20.333344,20.228897171874998ZM16.8028765,23.027349171875002C15.4183187,22.400147171875,14.035048,21.769849171875002,12.6530721,21.136459171875C12.426314099999999,21.033678171875,12.3116655,20.992038171875002,12.3116655,20.803335171875L12.3116655,19.553304171875C12.3060014,19.390194171875002,12.401704500000001,19.174068171875,12.5851033,19.246788171875L16.8472118,21.193132171875C17.2440882,21.388539171875,17.1227989,21.412914171875002,17.140572499999998,22.156554171875L17.140572499999998,22.776085171875C17.1409626,22.899178171875,17.0286589,23.128100171874998,16.8028765,23.027349171875002Z" fill="url(#master_svg2_71_4002)" fill-opacity="1"/></g></g></g></svg>