<svg xmlns="http://www.w3.org/2000/svg" xmlns:xlink="http://www.w3.org/1999/xlink" fill="none" version="1.1" width="100" height="100" viewBox="0 0 100 100"><defs><clipPath id="master_svg0_76_91378"><rect x="0" y="0" width="100" height="100" rx="0"/></clipPath></defs><g clip-path="url(#master_svg0_76_91378)"><g><path d="M68.75,0L18.75,0C15.3,0,12.5,2.8,12.5,6.25L12.5,37.5L68.75,37.5C72.2,37.5,75,40.3,75,43.75L75,84.35C75,87.8,72.2,90.6,68.75,90.6L12.5,90.6L12.5,93.7C12.5,97.15,15.3,99.95,18.75,99.95L93.75,99.95C97.2,99.95,100,97.15,100,93.7L100,31.2L68.75,0Z" fill="#EAEAEA" fill-opacity="1" style="mix-blend-mode:passthrough"/></g><g><path d="M68.75,0L68.75,25C68.75,28.45,71.55,31.25,75,31.25L100,31.25L68.75,0Z" fill="#999999" fill-opacity="1"/></g><g><path d="M68.75,81.25078125C68.75,83.00078125,67.35,84.35078125,65.65,84.35078125L3.1,84.35078125C1.35,84.35078125,0,82.95078125,0,81.25078125L0,46.90078125C0,45.15078125,1.4,43.80078125,3.1,43.80078125L65.6,43.80078125C67.35,43.80078125,68.7,45.20078125,68.7,46.90078125L68.7,81.25078125L68.75,81.25078125Z" fill="#EB3737" fill-opacity="1"/></g><g><path d="M18.75,53.149600975L14.05,53.149600975C13.2,53.149600975,12.5,53.849601375,12.5,54.699599375L12.5,73.449609375C12.5,74.299609375,13.2,74.999609375,14.05,74.999609375C14.9,74.999609375,15.6,74.299609375,15.6,73.449609375L15.6,65.649609375L18.7,65.649609375C22.15,65.649609375,24.95,62.849589375,24.95,59.399589375C24.95,55.949589375,22.2,53.149593375,18.75,53.149600975ZM34.25,53.149600975C37.65,53.149600975,40.4,55.849599375,40.5,59.249599375L40.5,68.799609375C40.5,72.199609375,37.8,74.949609375,34.4,75.049609375L29.55,75.049609375C28.7,75.049609375,28.05,74.399609375,28,73.599609375L28,54.749599375C28,53.899601375,28.65,53.249599375,29.45,53.199600175L34.25,53.199600175L34.25,53.149600975ZM56.45,53.149600975C57.3,53.149600975,58,53.849601375,58,54.699599375C58,55.549599375,57.3,56.249599375,56.45,56.249599375L48.6,56.249599375L48.6,62.499599375L53.3,62.499599375C54.15,62.499599375,54.85,63.199609375,54.85,64.049609375C54.85,64.899609375,54.15,65.599609375,53.3,65.599609375L48.6,65.599609375L48.6,73.399609375C48.6,74.249609375,47.9,74.949609375,47.05,74.949609375C46.2,74.949609375,45.5,74.249609375,45.5,73.399609375L45.5,54.649609375C45.5,53.799610375,46.2,53.099609375,47.05,53.099609375L56.45,53.099609375L56.45,53.149600975ZM34.25,56.249599375L31.15,56.249599375L31.15,71.849609375L34.25,71.849609375C35.95,71.849609375,37.3,70.499609375,37.35,68.849609375L37.35,59.349599375C37.4,57.649599375,36,56.249599375,34.25,56.249599375ZM18.75,56.249599375C20.5,56.249599375,21.85,57.649599375,21.85,59.349599375C21.85,61.049599375,20.5,62.499599375,18.75,62.499599375L15.65,62.499599375L15.65,56.249599375L18.75,56.249599375Z" fill="#FFFFFF" fill-opacity="1" style="mix-blend-mode:passthrough"/></g></g></svg>