<svg xmlns="http://www.w3.org/2000/svg" xmlns:xlink="http://www.w3.org/1999/xlink" fill="none" version="1.1" width="100.0003662109375" height="114.28570556640625" viewBox="0 0 100.0003662109375 114.28570556640625"><g><g><path d="M9.10714,0C4.10714,0,0,4.10714,0,9.10714L0,105.179C0,110.179,4.10714,114.286,9.10714,114.286L90.8929,114.286C95.8929,114.286,100,110.179,100,105.179L100,36.25L66.25,0L9.10714,0Z" fill="#E34221" fill-opacity="1"/></g><g><path d="M100.0004021484375,36.42869423828125L100.0004021484375,38.21449423828125L77.1432021484375,38.21449423828125C77.1432021484375,38.21449423828125,65.8932341484375,35.89302423828125,66.0718057284375,26.07159423828125C66.0718057284375,26.07159423828125,66.6075201484375,36.42869423828125,76.9647021484375,36.42869423828125L100.0004021484375,36.42869423828125Z" fill="#DC3119" fill-opacity="1"/></g><g><path d="M66.24929809570312,0L66.24929809570312,26.0714C66.24929809570312,28.9286,68.21358809570313,36.4286,77.14219809570312,36.4286L99.99929809570312,36.4286L66.24929809570312,0Z" fill="#EEAA9C" fill-opacity="1"/></g><g><path d="M26.785667419433594,87.50002907714844L20.714237419433594,87.50002907714844L20.714237419433594,95.00002907714844C20.714237419433594,95.71432907714843,20.178527419433593,96.25002907714844,19.464237419433594,96.25002907714844C18.749953419433595,96.25002907714844,18.035667419433594,95.71432907714843,18.035667419433594,95.00002907714844L18.035667419433594,76.60721907714844C18.035667419433594,75.53578607714844,18.928524419433593,74.64292907714844,19.999957419433592,74.64292907714844L26.785667419433594,74.64292907714844C31.071367419433592,74.64292907714844,33.392767419433596,77.50006907714844,33.392767419433596,81.07149907714843C33.392767419433596,84.64292907714844,30.892767419433596,87.50002907714844,26.785667419433594,87.50002907714844ZM46.42776741943359,87.50002907714844L40.356367419433596,87.50002907714844L40.356367419433596,95.00002907714844C40.356367419433596,95.71432907714843,39.82066741943359,96.25002907714844,39.106367419433596,96.25002907714844C38.392067419433594,96.25002907714844,37.856367419433596,95.71432907714843,37.856367419433596,95.00002907714844L37.856367419433596,76.60721907714844C37.856367419433596,75.53578607714844,38.57066741943359,74.64292907714844,39.642067419433594,74.64292907714844L46.42776741943359,74.64292907714844C50.713567419433595,74.64292907714844,53.03496741943359,77.50006907714844,53.03496741943359,81.07149907714843C53.03496741943359,84.64292907714844,50.713567419433595,87.50002907714844,46.42776741943359,87.50002907714844ZM71.2509674194336,76.96435907714844L65.35816741943358,76.96435907714844L65.35816741943358,95.00002907714844C65.35816741943358,95.71432907714843,64.82236741943359,96.25002907714844,64.10816741943358,96.25002907714844C63.39386741943359,96.25002907714844,62.679567419433596,95.71432907714843,62.679567419433596,95.00002907714844L62.679567419433596,76.96435907714844L56.965267419433594,76.96435907714844C56.25096741943359,76.96435907714844,55.715267419433594,76.42863907714843,55.715267419433594,75.71435907714844C55.715267419433594,75.17864307714844,56.25096741943359,74.64292907714844,56.965267419433594,74.64292907714844L71.2509674194336,74.64292907714844C71.96526741943359,74.64292907714844,72.5009674194336,75.17864307714844,72.5009674194336,75.89292907714844C72.5009674194336,76.42863907714843,71.96526741943359,76.96435907714844,71.2509674194336,76.96435907714844ZM20.714227419433595,76.96488907714844L26.428507419433593,76.96488907714844C28.928467419433595,76.96488907714844,30.714267419433593,78.57202907714844,30.714267419433593,81.07202907714844C30.714267419433593,83.39345907714844,28.928467419433595,85.17912907714843,26.428507419433593,85.17912907714843L20.714227419433595,85.17912907714843L20.714227419433595,76.96488907714844ZM40.5349674194336,76.96488907714844L46.07066741943359,76.96488907714844C48.57066741943359,76.96488907714844,50.356367419433596,78.57202907714844,50.356367419433596,81.07202907714844C50.356367419433596,83.39345907714844,48.57066741943359,85.17912907714843,46.07066741943359,85.17912907714843L40.5349674194336,85.17912907714843L40.5349674194336,76.96488907714844Z" fill-rule="evenodd" fill="#FFFFFF" fill-opacity="1"/></g></g></svg>