<svg xmlns="http://www.w3.org/2000/svg" xmlns:xlink="http://www.w3.org/1999/xlink" fill="none" version="1.1" width="18" height="18" viewBox="0 0 18 18"><g><g><path d="M0 2C1.2263184908229826e-16 0.8954305003384131 0.8954305003384133 0 2 0L16 0C17.104569499661586 0 18 0.8954305003384133 18 2L18 16C18 17.104569499661586 17.104569499661586 18 16 18L2 18C0.8954305003384133 18 0 17.104569499661586 0 16Z" fill="#FFFFFF" fill-opacity="1"/><path d="M0.5 2.5C0.5000000000000002 1.3954305003384129 1.3954305003384133 0.5 2.5 0.5L15.5 0.5C16.604569499661586 0.5 17.5 1.3954305003384133 17.5 2.5L17.5 15.5C17.5 16.604569499661586 16.604569499661586 17.5 15.5 17.5L2.5 17.5C1.3954305003384133 17.5 0.5 16.604569499661586 0.5 15.5Z" fill-opacity="0" stroke-opacity="1" stroke="#999999" fill="none" stroke-width="1"/></g></g></svg>