<svg xmlns="http://www.w3.org/2000/svg" xmlns:xlink="http://www.w3.org/1999/xlink" fill="none" version="1.1" width="18" height="18" viewBox="0 0 18 18"><g><g><path d="M0 2C1.2263184908229826e-16 0.8954305003384131 0.8954305003384133 0 2 0L16 0C17.104569499661586 0 18 0.8954305003384133 18 2L18 16C18 17.104569499661586 17.104569499661586 18 16 18L2 18C0.8954305003384133 18 0 17.104569499661586 0 16Z" fill="#0064FF" fill-opacity="1"/></g><g><g><path d="M7.627419920333862,12.933451135021972C7.4450249203338625,12.933451135021972,7.323428620333862,12.872227635021972,7.201832020333862,12.749780635021972L4.161918250333862,9.688609135021974C3.9187251443338624,9.443715135021971,3.9187251443338624,9.076374535021973,4.161918250333862,8.831480935021972C4.405111370333862,8.586587235021973,4.769900980333862,8.586587235021973,5.013094220333862,8.831480935021972L7.627419920333862,11.464088935021973L13.889642520333862,5.158074645021973C14.132835420333862,4.913180899021973,14.497625420333863,4.913180899021973,14.740817420333862,5.158074645021973C14.984011420333863,5.402968405021973,14.984011420333863,5.770309035021973,14.740817420333862,6.015202835021973L8.053007820333862,12.749780635021972C7.931411220333862,12.872227635021972,7.809814720333862,12.933451135021972,7.627419920333862,12.933451135021972Z" fill="#FFFFFF" fill-opacity="1"/></g></g></g></svg>