<svg xmlns="http://www.w3.org/2000/svg" xmlns:xlink="http://www.w3.org/1999/xlink" fill="none" version="1.1" width="28" height="28" viewBox="0 0 28 28"><g transform="matrix(-1,0,0,-1,56,56)"><g><path d="M28 30C28 28.895430500338414 28.895430500338414 28 30 28L54 28C55.10456949966159 28 56 28.895430500338414 56 30L56 54C56 55.10456949966159 55.10456949966159 56 54 56L30 56C28.895430500338414 56 28 55.10456949966159 28 54Z" fill="#F3F7FF" fill-opacity="1"/></g><g><path d="M43.153994600000004,35C43.2709923,35,43.3280039,35.055494186,43.3280039,35.16650306L43.3280039,41.7079878L49.826012,41.7079878C49.941512,41.7079878,50,41.7634816,50,41.8744702L50,43.125489200000004C50,43.2364769,49.941512,43.2904739,49.826012,43.2904739L43.3280039,43.2904739L43.3280039,49.833497C43.3280039,49.944486,43.2709923,49.999978999999996,43.153994600000004,49.999978999999996L41.8460054,49.999978999999996C41.7290082,49.999978999999996,41.6719966,49.944486,41.6719966,49.833476L41.6704993,43.2904739L35.17548549,43.2904739C35.058488328,43.2904739,35,43.2364769,35,43.125489200000004L35,41.8744702C35,41.7634816,35.058488328,41.709484599999996,35.17398842,41.709484599999996L41.6704993,41.7079878L41.6704993,35.16800013C41.6704993,35.055494186,41.7305055,35,41.8460054,35L43.153994600000004,35Z" fill="#999999" fill-opacity="1"/></g></g></svg>