<?xml version="1.0" encoding="UTF-8"?>
<svg width="14px" height="14px" viewBox="0 0 14 14" version="1.1" xmlns="http://www.w3.org/2000/svg" xmlns:xlink="http://www.w3.org/1999/xlink">
    <!-- Generator: Sketch 60 (88103) - https://sketch.com -->
    <title>编组</title>
    <desc>Created with Sketch.</desc>
    <g id="页面-4" stroke="none" stroke-width="1" fill="none" fill-rule="evenodd">
        <g id="产品分析-编辑" transform="translate(-290.000000, -1070.000000)" fill="#FF6634" fill-rule="nonzero">
            <g id="编组-19" transform="translate(270.000000, 1047.000000)">
                <g id="编组-271备份" transform="translate(20.000000, 20.000000)">
                    <g id="编组" transform="translate(0.000000, 3.000000)">
                        <path d="M12.6655493,12.3732378 L12.6655493,10.4698432 C12.6666088,10.4509243 12.6718304,10.437 12.6718304,10.4183838 L12.6718304,3.5486973 C12.6718304,3.35080541 12.5633872,3.16978919 12.3798736,3.0642973 L8.31979797,0.778816216 C8.11956014,0.663410811 7.86173311,0.663410811 7.66179797,0.778816216 L7.631225,0.795843243 L7.631225,0.010027027 L9.12899797,0.010027027 L13.1302736,2.31805946 C13.5137223,2.54183243 13.9275169,2.93595135 13.9275169,3.36094595 L13.9275169,10.7366757 C13.925398,11.4521135 13.3028899,12.0665243 12.6655493,12.3732378 Z" id="路径"></path>
                        <path d="M11.6304574,3.28315135 L6.95385203,0.567 C6.48829527,0.291389189 5.89530068,0.291389189 5.42981959,0.567 L0.676479054,3.28315135 C0.255419595,3.53159459 0.000316252702,3.9665027 0.000316252702,4.43508649 L0.000316252702,11.9014757 C-0.000591216216,13.0248054 0.966241216,13.9380595 2.1575277,13.9380595 L10.1472142,13.9380595 C11.338425,13.9380595 12.3053331,13.0247297 12.3053331,11.9004919 L12.3053331,11.5602541 L12.3062412,11.5602541 L12.3062412,4.43508649 C12.3062412,3.96657838 12.0505331,3.53068649 11.6304574,3.28315135 Z M6.19126824,7.14510811 C5.19704122,7.14510811 4.39344122,6.38502162 4.39344122,5.44671892 C4.39344122,4.50887027 5.198025,3.74863243 6.19126824,3.74863243 C7.18436014,3.74863243 7.98917095,4.50887027 7.98917095,5.44671892 C7.98909527,6.38411351 7.18436014,7.14510811 6.19126824,7.14510811 L6.19126824,7.14510811 Z" id="形状"></path>
                        <path d="M6.19126824,4.30605946 C5.525625,4.30605946 4.98454392,4.81664324 4.98454392,5.44573514 C4.98454392,6.07497838 5.52547365,6.58548649 6.19126824,6.58548649 C6.85751689,6.58548649 7.39776554,6.07497838 7.39776554,5.44573514 C7.39784122,4.81664324 6.85751689,4.30605946 6.19126824,4.30605946 Z" id="路径"></path>
                    </g>
                </g>
            </g>
        </g>
    </g>
</svg>