<?xml version="1.0" encoding="UTF-8"?>
<svg width="12px" height="12px" viewBox="0 0 12 12" version="1.1" xmlns="http://www.w3.org/2000/svg" xmlns:xlink="http://www.w3.org/1999/xlink">
    <!-- Generator: Sketch 60 (88103) - https://sketch.com -->
    <title>编组</title>
    <desc>Created with Sketch.</desc>
    <g id="页面-4" stroke="none" stroke-width="1" fill="none" fill-rule="evenodd">
        <g id="产品分析-编辑" transform="translate(-1021.000000, -1758.000000)" fill="#0064FF" fill-rule="nonzero">
            <g id="编组-15" transform="translate(979.000000, 1576.000000)">
                <g id="编组-99" transform="translate(35.000000, 179.000000)">
                    <g id="编组" transform="translate(7.000000, 3.000000)">
                        <path d="M5.86976166,11.9402985 C2.63417253,11.9402985 0.000146006689,9.2611569 0.000146006689,5.97014925 C0.000146006689,2.6791416 2.63417253,0 5.86976166,0 C9.10535079,0 11.7393773,2.6791416 11.7393773,5.97014925 C11.7393773,9.2611569 9.10535079,11.9402985 5.86976166,11.9402985 Z M5.86976166,0.891067048 C3.11892686,0.891067048 0.876208051,3.17219871 0.876208051,5.97014925 C0.876208051,8.7680998 3.11892687,11.0492315 5.86976166,11.0492315 C8.62059645,11.0492315 10.8633153,8.7680998 10.8633153,5.97014925 C10.8633153,3.17219871 8.62059646,0.891067048 5.86976166,0.891067048 Z" id="形状"></path>
                        <polygon id="路径" points="5.14555038 8.0730675 3.38758588 6.28499295 4.00666972 5.65530556 5.14555038 6.81369274 7.73285359 4.1820747 8.35193743 4.81176208"></polygon>
                    </g>
                </g>
            </g>
        </g>
    </g>
</svg>