<?xml version="1.0" encoding="UTF-8"?>
<svg width="12px" height="11px" viewBox="0 0 12 11" version="1.1" xmlns="http://www.w3.org/2000/svg" xmlns:xlink="http://www.w3.org/1999/xlink">
    <!-- Generator: Sketch 60 (88103) - https://sketch.com -->
    <title>编组</title>
    <desc>Created with Sketch.</desc>
    <g id="页面-4" stroke="none" stroke-width="1" fill="none" fill-rule="evenodd">
        <g id="产品分析-编辑" transform="translate(-1021.000000, -1837.000000)" fill="#0064FF" fill-rule="nonzero">
            <g id="编组-15" transform="translate(979.000000, 1576.000000)">
                <g id="编组-97" transform="translate(42.000000, 258.000000)">
                    <g id="编组" transform="translate(0.000000, 3.000000)">
                        <path d="M6.8754529,7.48839447 C6.0462356,7.487159 5.25162897,7.17705668 4.66700634,6.62652853 L4.25724638,6.24292346 L5.01024683,5.53798687 L5.42000679,5.92159194 C6.18980637,6.6455513 7.42805991,6.68480979 8.24841486,6.01126585 L8.27236187,5.99133832 C8.29571217,5.97259142 8.31792024,5.9526325 8.33888134,5.93155571 L10.0231544,4.3547894 C10.412469,3.99202991 10.6313375,3.49899787 10.6313375,2.98477129 C10.6313375,2.4705447 10.412469,1.97751266 10.0231544,1.61475317 L9.99122509,1.58486187 C9.603732,1.22039715 9.07708414,1.01549904 8.52779665,1.01549904 C7.97850916,1.01549904 7.4518613,1.22039715 7.06436821,1.58486187 L6.20493659,2.38943614 C6.18242274,2.4090593 6.16110299,2.42984983 6.1410779,2.45170969 L5.80848053,2.84029665 L4.97831748,2.21756114 L5.32155797,1.82648324 C5.36639297,1.77573612 5.41436941,1.72749504 5.46524004,1.68200861 L6.32467165,0.87743433 C6.91190236,0.325109088 7.71001231,0.0145984184 8.54243093,0.0145984184 C9.37484956,0.0145984184 10.1729595,0.325109088 10.7601902,0.87743433 L10.7921196,0.907325634 C11.3821033,1.45707354 11.7137852,2.20424029 11.7137852,2.98352582 C11.7137852,3.76281134 11.3821033,4.50997809 10.7921196,5.059726 L9.10784647,6.6364923 C9.06311279,6.67942099 9.01604314,6.72016052 8.96682518,6.75854846 C8.39233874,7.23622773 7.65179059,7.50185191 6.88343524,7.50583107 L6.8754529,7.48839447 Z" id="路径"></path>
                        <path d="M3.17164855,10.9757174 C2.3395465,10.9770207 1.54145688,10.6666808 0.955219656,10.1138474 L0.923290308,10.0839561 C0.333306527,9.53420817 0.00162467545,8.78704141 0.00162467545,8.00775589 C0.00162467545,7.22847036 0.333306527,6.48130361 0.923290308,5.93155571 L2.60756341,4.3547894 C2.65229708,4.31186071 2.69936673,4.27112118 2.74858469,4.23273324 C3.98852957,3.20438896 5.86943955,3.25788043 7.0404212,4.3547894 L7.45018116,4.74835824 L6.69718071,5.45329484 L6.28742074,5.06968976 C5.51762116,4.34573041 4.27936763,4.30647191 3.45901268,4.98001585 L3.43506567,4.99994339 C3.41171537,5.01869028 3.38950729,5.0386492 3.3685462,5.059726 L1.6842731,6.6364923 C1.29495851,6.99925179 1.07609008,7.49228383 1.07609008,8.00651042 C1.07609008,8.520737 1.29495851,9.01376904 1.6842731,9.37652853 L1.71620245,9.40641984 C2.10369554,9.77088455 2.6303434,9.97578266 3.17963089,9.97578266 C3.72891837,9.97578266 4.25556624,9.77088455 4.64305933,9.40641984 L5.50249094,8.60184556 C5.52500479,8.58222241 5.54632454,8.56143187 5.56634964,8.53957201 L5.89894701,8.15098505 L6.73177083,8.77372056 L6.38586957,9.16479846 C6.34103456,9.21554558 6.29305813,9.26378667 6.2421875,9.3092731 L5.38275589,10.1138474 C4.79781769,10.6654536 4.00190628,10.9757174 3.17164855,10.9757174 L3.17164855,10.9757174 Z" id="路径"></path>
                    </g>
                </g>
            </g>
        </g>
    </g>
</svg>