<svg xmlns="http://www.w3.org/2000/svg" xmlns:xlink="http://www.w3.org/1999/xlink" fill="none" version="1.1" width="32" height="32" viewBox="0 0 32 32"><defs><clipPath id="master_svg0_96_35934"><rect x="0" y="0" width="32" height="32" rx="0"/></clipPath></defs><g clip-path="url(#master_svg0_96_35934)"><g><path d="M17.17950015625,26.5494615234375L14.576440156250001,26.5494615234375L14.576440156250001,23.5922615234375L17.17950015625,23.5922615234375L17.17950015625,26.5494615234375ZM21.44356015625,13.2435615234375C21.16826015625,13.8717515234375,20.57376015625,14.6531815234375,19.668210156249998,15.5946615234375C18.76265015625,16.5361615234375,18.16664015625,17.1981615234375,17.87199015625,17.5970615234375C17.57734015625,17.9960615234375,17.35048015625,18.4661615234375,17.19850015625,19.0203615234375C17.04652015625,19.574561523437502,16.977230156250002,20.3109615234375,16.99623015625,21.2407615234375L14.628590156249999,21.2407615234375C14.628590156249999,20.1548615234375,14.709790156250001,19.288261523437498,14.87444015625,18.6443615234375C15.01866015625,18.0359615234375,15.26320015625,17.4606615234375,15.59636015625,16.9459615234375Q16.08061015625,16.2260615234375,17.34229015625,14.8144515234375C18.18750015625,13.8753715234375,18.72764015625,13.1948915234375,18.96977015625,12.7669815234375C19.21189015625,12.3390715234375,19.33221015625,11.7064515234375,19.33221015625,10.8639015234375C19.33221015625,10.0213415234375,19.05507015625,9.2761215234375,18.50227015625,8.6322415234375C17.938670156249998,7.9791115234375,17.135550156249998,7.6525415234375,16.08099015625,7.6525415234375Q12.50494015625,7.6525415234375,12.50308015625,12.240131523437501L10.13916015625,12.240131523437501C10.17641035625,10.843791523437499,10.32541215625,9.7868815234375,10.59398915625,9.0629715234375C10.86256715625,8.339051523437501,11.29281015625,7.6891415234375,11.88733015625,7.1216715234375005C12.45996015625,6.5619115234375,13.13151015625,6.1329125234375,13.86160015625,5.8604595234375C14.60181015625,5.5852245234375,15.37970015625,5.4466815234375,16.16256015625,5.4506442449375C17.793770156249998,5.4506442449375,19.14559015625,5.9686445234375,20.236260156249998,7.0046415234375Q21.85706015625,8.5574315234375,21.860760156250002,11.1397915234375C21.860760156250002,11.914781523437501,21.72516015625,12.6153615234375,21.44356015625,13.2435615234375Z" fill="#FFFFFF" fill-opacity="1" style="mix-blend-mode:passthrough"/></g></g></svg>