<?xml version="1.0" encoding="UTF-8"?>
<svg width="14px" height="14px" viewBox="0 0 14 14" version="1.1" xmlns="http://www.w3.org/2000/svg" xmlns:xlink="http://www.w3.org/1999/xlink">
    <title>形状</title>
    <g id="页面-1" stroke="none" stroke-width="1" fill="none" fill-rule="evenodd">
        <g id="系统常量配置备份-4" transform="translate(-913.000000, -268.000000)" fill="#67C23A" fill-rule="nonzero">
            <g id="编组-20" transform="translate(786.025294, 212.000000)">
                <g id="编组-10" transform="translate(0.000000, 48.000000)">
                    <g id="编组-119" transform="translate(127.000000, 7.000000)">
                        <path d="M7,1 C3.14043674,1 0,4.14045275 0,8.00001602 C0,11.8601078 3.1398922,15 7,15 C10.8601078,15 14,11.8601078 14,8.00001602 C14,4.14045275 10.8600918,1 7,1 L7,1 Z M10.3779887,6.84536148 L6.35667806,10.9103963 C6.35566905,10.9114053 6.35368304,10.9119339 6.35259394,10.9134554 C6.35115247,10.9144644 6.35115247,10.9164344 6.34961493,10.9174274 C6.31750248,10.9485469 6.27781438,10.9676381 6.24064084,10.9887795 C6.22211012,10.9992541 6.20700686,11.0153664 6.18740305,11.022878 C6.12716619,11.0470304 6.06338976,11.059571 5.99954927,11.059571 C5.93526032,11.059571 5.8705069,11.0470304 5.8097415,11.0218689 C5.78965721,11.0133643 5.77356095,10.9962751 5.75446966,10.9857044 C5.71731213,10.9646271 5.67868109,10.9460003 5.64648857,10.9144484 C5.64551158,10.9134394 5.64496704,10.9113893 5.64395802,10.9103803 C5.64298103,10.9089068 5.64097901,10.9089068 5.63997,10.9073693 L3.66222789,8.87486786 C3.46888056,8.67597893 3.47339712,8.3581218 3.67227003,8.16474244 C3.87112694,7.97187559 4.18853561,7.97539914 4.3824275,8.17481662 L6.00307282,9.84013107 L9.6642917,6.13874362 C9.85917659,5.94140825 10.1775943,5.93942224 10.3744652,6.13475559 C10.5707915,6.33008891 10.5727935,6.64804213 10.3779887,6.84536148 L10.3779887,6.84536148 Z" id="形状"></path>
                    </g>
                </g>
            </g>
        </g>
    </g>
</svg>