<svg xmlns="http://www.w3.org/2000/svg" xmlns:xlink="http://www.w3.org/1999/xlink" fill="none" version="1.1" width="400" height="400" viewBox="0 0 400 400"><defs><mask id="master_svg0_251_24115" style="mask-type:alpha" maskUnits="objectBoundingBox"><g><path d="M0 72.97296905517578C0 72.97296905517578 0 72.97296905517578 0 72.97296905517578L400 72.97296905517578C400 72.97296905517578 400 72.97296905517578 400 72.97296905517578L400 327.0270309448242C400 327.0270309448242 400 327.0270309448242 400 327.0270309448242L0 327.0270309448242C0 327.0270309448242 0 327.0270309448242 0 327.0270309448242Z" fill="#FFFFFF" fill-opacity="1"/></g></mask><linearGradient x1="0.5" y1="0" x2="0.5" y2="0.34943687915802" id="master_svg1_251_23790"><stop offset="0%" stop-color="#5991F6" stop-opacity="0.6277503967285156"/><stop offset="99.91992712020874%" stop-color="#597AF6" stop-opacity="0"/></linearGradient><linearGradient x1="0.11182737350463867" y1="0.10655854642391205" x2="0.8974149214451368" y2="0.489354635969943" id="master_svg2_251_23826"><stop offset="0%" stop-color="#D7DFFF" stop-opacity="1"/><stop offset="100%" stop-color="#9CB8FF" stop-opacity="1"/></linearGradient><linearGradient x1="1.0464541912078857" y1="0.2496887445449829" x2="-0.17177308551866768" y2="0.6144786243390445" id="master_svg3_251_24032"><stop offset="0%" stop-color="#FFFFFF" stop-opacity="1"/><stop offset="100%" stop-color="#FFFFFF" stop-opacity="0"/></linearGradient><linearGradient x1="0.11182737350463867" y1="0.10655854642391205" x2="1.2239221477296403" y2="0.9442790243167329" id="master_svg4_251_24035"><stop offset="0%" stop-color="#D7DFFF" stop-opacity="1"/><stop offset="100%" stop-color="#9CB8FF" stop-opacity="1"/></linearGradient><linearGradient x1="0.11182737350463867" y1="0.10655854642391205" x2="1.5547817334866445" y2="0.6161159225594881" id="master_svg5_251_24035"><stop offset="0%" stop-color="#D7DFFF" stop-opacity="1"/><stop offset="100%" stop-color="#9CB8FF" stop-opacity="1"/></linearGradient><linearGradient x1="0.11182737350463867" y1="0.10655854642391205" x2="1.3442011591317693" y2="0.8675982636319639" id="master_svg6_251_24035"><stop offset="0%" stop-color="#D7DFFF" stop-opacity="1"/><stop offset="100%" stop-color="#9CB8FF" stop-opacity="1"/></linearGradient><linearGradient x1="0.3326454162597656" y1="0" x2="0.12837873311339967" y2="1.0422534933792962" id="master_svg7_251_24131"><stop offset="0%" stop-color="#A2BBFF" stop-opacity="1"/><stop offset="100%" stop-color="#5E8CFF" stop-opacity="1"/></linearGradient><linearGradient x1="0.5" y1="0" x2="1.1339810616860726" y2="1.001678109156754" id="master_svg8_251_24122"><stop offset="0%" stop-color="#A2BBFF" stop-opacity="1"/><stop offset="100%" stop-color="#5E8CFF" stop-opacity="1"/></linearGradient><linearGradient x1="1" y1="0.11841905117034912" x2="0.3741518368119043" y2="1.154809058085457" id="master_svg9_251_24138"><stop offset="0%" stop-color="#D7DFFF" stop-opacity="1"/><stop offset="100%" stop-color="#9CB8FF" stop-opacity="1"/></linearGradient><linearGradient x1="0.5" y1="0" x2="1.2817115925900533" y2="0.13041922870439393" id="master_svga_251_24122"><stop offset="0%" stop-color="#A2BBFF" stop-opacity="1"/><stop offset="100%" stop-color="#5E8CFF" stop-opacity="1"/></linearGradient><linearGradient x1="1.0415881872177124" y1="0" x2="-0.04875201107395938" y2="0.001257998175262287" id="master_svgb_251_24125"><stop offset="0%" stop-color="#D7E0FF" stop-opacity="1"/><stop offset="100%" stop-color="#A6BFFF" stop-opacity="1"/></linearGradient><linearGradient x1="1.0415881872177124" y1="0" x2="-0.04875201107395938" y2="0.001257998175262287" id="master_svgc_251_24125"><stop offset="0%" stop-color="#D7E0FF" stop-opacity="1"/><stop offset="100%" stop-color="#A6BFFF" stop-opacity="1"/></linearGradient><linearGradient x1="1.0415881872177124" y1="0" x2="-0.05238688033301779" y2="0.00938820579852706" id="master_svgd_251_24125"><stop offset="0%" stop-color="#D7E0FF" stop-opacity="1"/><stop offset="100%" stop-color="#A6BFFF" stop-opacity="1"/></linearGradient><linearGradient x1="1.0415881872177124" y1="0" x2="-0.05900015568399571" y2="0.025082908901272294" id="master_svge_251_24125"><stop offset="0%" stop-color="#D7E0FF" stop-opacity="1"/><stop offset="100%" stop-color="#A6BFFF" stop-opacity="1"/></linearGradient><linearGradient x1="0.5" y1="1" x2="0.5" y2="0" id="master_svgf_251_24128"><stop offset="0%" stop-color="#6994FF" stop-opacity="1"/><stop offset="100%" stop-color="#9CB6FF" stop-opacity="1"/></linearGradient><linearGradient x1="0.11182737350463867" y1="0.10655854642391205" x2="0.7677559385049969" y2="0.1829266181939806" id="master_svgg_251_23826"><stop offset="0%" stop-color="#D7DFFF" stop-opacity="1"/><stop offset="100%" stop-color="#9CB8FF" stop-opacity="1"/></linearGradient><linearGradient x1="0.11182737350463867" y1="0.10655854642391205" x2="0.29615070215290257" y2="1.013256039352528" id="master_svgh_251_23826"><stop offset="0%" stop-color="#D7DFFF" stop-opacity="1"/><stop offset="100%" stop-color="#9CB8FF" stop-opacity="1"/></linearGradient><linearGradient x1="0.11182737350463867" y1="0.10655854642391205" x2="0.24842063920815904" y2="1.001113867920224" id="master_svgi_251_23826"><stop offset="0%" stop-color="#D7DFFF" stop-opacity="1"/><stop offset="100%" stop-color="#9CB8FF" stop-opacity="1"/></linearGradient></defs><g><g style="opacity:0.7997002005577087;"><g><g></g><g><g><g mask="url(#master_svg0_251_24115)"><g><g style="opacity:0.4207349419593811;"><ellipse cx="201.29383850097656" cy="227.22025299072266" rx="144.25086975097656" ry="144.47579956054688" fill="url(#master_svg1_251_23790)" fill-opacity="1"/></g><g><path d="M121.50338133459474,142.36470597094726C120.77540033459474,133.23903417094726,113.16184033459473,126.06103897094727,103.87693233459473,126.06103897094727C94.11064533459472,126.06103897094727,86.19350633459473,134.00261597094726,86.19350633459473,143.79904697094727C86.19350633459473,145.29594597094726,86.37835533459473,146.74953797094727,86.72640533459473,148.13810697094726Q86.50928433459472,147.83486597094728,86.25794933459473,147.55949597094727Q86.00661333459473,147.28412797094728,85.72458833459473,147.04049697094726Q85.44256233459473,146.79686197094728,85.13380053459473,146.58837897094728Q84.82503893459473,146.37989797094727,84.49387263459472,146.20949197094725Q84.16270443459473,146.03908497094727,83.81377793459473,145.90914497094727Q83.46485133459473,145.77920497094726,83.10305783459472,145.69155497094727Q82.74126243459473,145.60390097094728,82.37167553459473,145.55976497094727Q82.00208763459473,145.51562897094726,81.62989093459473,145.51562897094726Q81.47585443459472,145.51562897094726,81.32200333459473,145.52320897094728Q81.16815183459472,145.53079197094726,81.01485733459472,145.54593697094725Q80.86156173459473,145.56108097094727,80.70919223459472,145.58375197094728Q80.55682273459473,145.60642397094728,80.40574553459473,145.63656797094725Q80.25466823459473,145.66671197094726,80.10524753459472,145.70425397094726Q79.95582723459472,145.74179797094726,79.80842303459472,145.78665197094728Q79.66101883459473,145.83150497094726,79.51598643459472,145.88355597094727Q79.37095353459473,145.93561197094726,79.22864243459473,145.99473997094725Q79.08633093459473,146.05386897094726,78.94708343459473,146.11993197094728Q78.80783583459473,146.18599297094727,78.67198753459472,146.25883097094726Q78.53613903459473,146.33166697094725,78.40401723459473,146.41110197094727Q78.27189543459473,146.49053797094726,78.14381863459472,146.57637997094727Q78.01574183459472,146.66222397094725,77.89201833459472,146.75426497094728Q77.76829483459473,146.84630997094726,77.64922283459472,146.94433197094727Q77.53015063459473,147.04235297094726,77.41601703459473,147.14611597094728Q77.30188323459473,147.24987997094726,77.19296293459473,147.35913697094728Q77.08404233459473,147.46839097094727,76.98059773459472,147.58287797094727Q76.87715293459473,147.69736497094726,76.77943303459473,147.81680697094725Q76.68171313459473,147.93624497094726,76.58995343459473,148.06034897094727Q76.49819373459472,148.18445397094726,76.41261553459472,148.31292697094727Q76.32703733459472,148.44139897094726,76.24784660459473,148.57392897094726Q76.16865587459472,148.70645897094727,76.09604346459473,148.84272797094727Q76.02343094459472,148.97899397094727,75.95757174459473,149.11867097094728Q75.89171248459472,149.25834697094726,75.83276519459473,149.40109797094726Q75.77381786459473,149.54384997094726,75.72192445459473,149.68933097094725Q75.67003101459473,149.83480997094728,75.62531650459472,149.98266997094726Q75.58060199459473,150.13052797094727,75.54317410459473,150.28041097094726Q75.50574621459472,150.43028997094726,75.47569513459473,150.58183497094726Q75.44564405059472,150.73337697094726,75.42304216359473,150.88621697094726Q75.40044027559473,151.03905897094728,75.38534203159473,151.19282897094726Q75.37024378659473,151.34659597094728,75.36268556069473,151.50092297094727Q75.35512733459473,151.65524897094727,75.35512733459473,151.80976097094725Q75.35512733459473,151.96427297094726,75.36268556069473,152.11860097094726Q75.37024378659473,152.27292597094726,75.38534203159473,152.42669497094727Q75.40044027559473,152.58046297094728,75.42304216359473,152.73330297094725Q75.44564405059472,152.88614097094728,75.47569513459473,153.03768397094726Q75.50574621459472,153.18922597094726,75.54317410459473,153.33910897094728Q75.58060199459473,153.48899097094727,75.62531650459472,153.63685197094728Q75.67003101459473,153.78470997094726,75.72192442459473,153.93018697094726Q75.77381786459473,154.07566797094728,75.83276519459473,154.21841797094726Q75.89171248459472,154.36116797094726,75.95757174459473,154.50084497094727Q76.02343094459472,154.64052197094728,76.09604340459472,154.77679097094727Q76.16865587459472,154.91305897094728,76.24784660459473,155.04558797094728Q76.32703733459472,155.17811797094726,76.41261553459472,155.30658897094727Q76.49819373459472,155.43506197094726,76.58995343459473,155.55916797094727Q76.68171313459473,155.68327297094726,76.77943303459473,155.80271497094725Q76.87715293459473,155.92215397094728,76.98059763459473,156.03663997094728Q77.08404233459473,156.15112297094726,77.19296293459473,156.26038197094726Q77.30188323459473,156.36963697094725,77.41601703459473,156.47340197094726Q77.53015063459473,156.57716797094727,77.64922283459472,156.67518997094726Q77.76829483459473,156.77320897094728,77.89201833459472,156.86524997094727Q78.01574183459472,156.95729397094726,78.14381883459473,157.04313697094727Q78.27189563459473,157.12897897094726,78.40401743459472,157.20841197094728Q78.53613903459473,157.28784897094727,78.67198753459472,157.36068497094726Q78.80783583459473,157.43352097094726,78.94708343459473,157.49958197094728Q79.08633093459473,157.56564697094726,79.22864243459473,157.62477697094727Q79.37095353459473,157.68390697094728,79.51598643459472,157.73595997094728Q79.66101883459473,157.78801297094725,79.80842303459472,157.83286897094726Q79.95582673459472,157.87771997094725,80.10524753459472,157.91526197094726Q80.25466823459473,157.95280497094726,80.40574503459473,157.98294797094727Q80.55682273459473,158.01309397094727,80.70919223459472,158.03576697094726Q80.86156173459473,158.05844097094726,81.01485683459472,158.07358597094725Q81.16815183459472,158.08872997094727,81.32200333459473,158.09630997094726Q81.47585443459472,158.10389297094727,81.62989093459473,158.10389297094727L81.63002963459472,158.10389297094727L81.65664673459473,158.10383597094727L135.23665033459474,158.10383597094727C137.7647613345947,158.10383597094727,139.8142033345947,156.05439597094727,139.8142033345947,153.52628497094727C139.8142033345947,150.99817297094728,137.7647613345947,148.94873397094727,135.23665033459474,148.94873397094727L133.82433933459473,148.94873397094727Q134.10960533459473,147.96775097094726,134.10960533459473,146.94588497094728Q134.10960533459473,146.77030197094726,134.10101533459473,146.59493297094727Q134.09243233459472,146.41956097094726,134.07527333459473,146.24482497094726Q134.05811533459473,146.07008697094727,134.0324343345947,145.89640397094726Q134.0067463345947,145.72272097094725,133.97259733459472,145.55051397094726Q133.93844833459474,145.37830497094726,133.89591433459472,145.20798497094728Q133.85338733459474,145.03766597094727,133.80257633459473,144.86964397094727Q133.75176033459474,144.70162197094726,133.69278933459472,144.53630297094728Q133.6338173345947,144.37098297094727,133.56683133459472,144.20876697094727Q133.49984933459473,144.04655097094727,133.42501233459473,143.88782697094726Q133.35016833459474,143.72910297094728,133.26765633459473,143.57425297094727Q133.18514033459473,143.41940297094726,133.09514833459474,143.26879897094727Q133.00515933459474,143.11819797094728,132.90791133459473,142.97220797094727Q132.81066333459472,142.82621797094725,132.70639233459474,142.68518797094725Q132.60212133459473,142.54415897094725,132.49107933459473,142.40843397094727Q132.3800333345947,142.27270897094726,132.26248333459472,142.14261097094726Q132.14493033459473,142.01251197094726,132.0211543345947,141.88835597094726Q131.89737933459472,141.76419997094726,131.7676873345947,141.64628697094727Q131.63798733459473,141.52837397094726,131.50267933459472,141.41698597094728Q131.36736833459474,141.30559697094728,131.22677433459472,141.20100297094726Q131.0861763345947,141.09640897094727,130.94063333459474,140.99885997094725Q130.79509133459473,140.90131197094726,130.64495233459473,140.81104497094728Q130.49481433459474,140.72077797094727,130.34044433459474,140.63800997094728Q130.18606733459472,140.55524097094727,130.02783433459473,140.48016897094726Q129.86959633459472,140.40509797094725,129.70788033459473,140.33790597094728Q129.54615933459473,140.27071397094727,129.38135333459473,140.21156297094726Q129.21654733459474,140.15241097094727,129.04904333459473,140.10144197094726Q128.88153633459473,140.05047297094725,128.71174033459474,140.00781097094728Q128.54194033459473,139.96514697094727,128.37026433459474,139.93089297094727Q128.19858733459472,139.89663797094727,128.02543833459472,139.87087397094726Q127.85229333459472,139.84511197094727,127.67809533459473,139.82790197094727Q127.50389333459472,139.81069197094726,127.32906533459473,139.80207497094727Q127.15423433459472,139.79346097094725,126.97919233459473,139.79346097094725Q126.58857933459473,139.79346097094725,126.20029633459473,139.83626297094727Q125.81201333459472,139.87906397094727,125.43071533459474,139.96415297094725Q125.04941733459472,140.04924397094726,124.67967433459472,140.17560697094726Q124.30992333459473,140.30196797094726,123.95615233459472,140.46808797094727Q123.60237733459473,140.63420897094727,123.26881233459473,140.83809897094727Q122.93524333459473,141.04198797094728,122.62587133459473,141.28120897094726Q122.31650733459472,141.52042997094728,122.03504333459472,141.79211697094726Q121.75357633459473,142.06380497094727,121.50338133459474,142.36470597094726Z" fill-rule="evenodd" fill="#FFFFFF" fill-opacity="1"/></g><g><path d="M295.7849160332031,118.17665109472657C295.07058903320313,111.10618929472656,289.1182800332031,105.58827209472656,281.8811590332031,105.58827209472656C275.23149403320315,105.58827209472656,269.66652533320314,110.24673749472656,268.2527795332031,116.48767409472656C265.8127304332031,116.74867009472656,263.9123840332031,118.81416109472656,263.9123840332031,121.32350109472657C263.9123840332031,124.00962109472655,266.08991313320314,126.18714909472656,268.77603153320314,126.18714909472656L277.6028140332031,126.18714909472656L277.6028140332031,126.18736409472656L296.4147800332031,126.18736409472656C298.62687703320313,126.18736409472656,300.4201350332031,124.39410609472657,300.4201350332031,122.18200709472656C300.4201350332031,119.96991009472656,298.62687703320313,118.17665109472657,296.4147800332031,118.17665109472657L295.7849160332031,118.17665109472657Z" fill-rule="evenodd" fill="#FFFFFF" fill-opacity="1"/></g></g></g></g></g></g><g style="opacity:0.119309201836586;"><ellipse cx="199.32437896728516" cy="314.18930435180664" rx="61.486488342285156" ry="6.081081390380859" fill="#618DFA" fill-opacity="1"/></g><g><g><path d="M104.91814898125,281.5845556176758C106.58688778125,277.00209281767576,114.29423478125,275.69803718767577,119.02104778125,275.8624493746758C117.81402178125,290.09956061767576,102.78001258125,289.80165161767576,95.94580078125,288.75124061767576C98.19709538125,288.27065061767576,103.26617528125,286.12205061767577,104.91814898125,281.5845556176758Z" fill="url(#master_svg2_251_23826)" fill-opacity="1"/></g><g><path d="M110.51840978125,283.3378328989258Q104.67590718125,287.16380309892577,97.97852007625,288.5204958989258L98.03808148625,288.81452489892575Q104.79200218125,287.4463788989258,110.68276078125,283.58880759892577Q115.12200778125,280.6817607989258,117.65837678125,277.4737148809258L117.42304278125,277.2876544369258Q114.91689078125,280.4574808989258,110.51840978125,283.3378328989258Z" fill-rule="evenodd" fill="url(#master_svg3_251_24032)" fill-opacity="1"/></g><g><path d="M151.46718409375,236.86373124267578Q141.90794409375,260.8554612426758,121.77420836375,273.26920324267576L122.29903382375,274.1204072426758Q142.71443909375,261.5329972426758,152.39616009375,237.23387124267578Q156.10810109375,227.91766924267577,157.78248609375,217.89063924267577Q159.17545709375,209.54884864267578,158.90200009375,202.68255879767577L157.90279409375,202.7223535156758Q158.17215309375,209.48571964267578,156.79614209375,217.72593324267578Q155.13941909375,227.64717124267577,151.46718409375,236.86373124267578Z" fill-rule="evenodd" fill="url(#master_svg4_251_24035)" fill-opacity="1"/></g><g><path d="M123.43229121875,245.5071392739258Q119.74652671875,251.17243227392578,109.68075174875,253.06089427392578L109.86514668875,254.0437472739258Q120.35142721875,252.0763932739258,124.27051021875,246.05247327392578Q125.47239321875,244.20508927392578,125.74652621875,242.3708002739258Q132.32518721875,238.93618927392578,133.62605821875,222.4101538879258L132.62914121875,222.3316801189258Q131.42934421875,237.57368527392578,125.82650721875,241.16441527392578Q125.78985821875,238.95904527392577,124.43464921875,237.7880962739258Q123.11039221875001,236.64445027392577,121.57304321875,237.36922027392578Q120.30062521875,237.96909127392578,119.65335371875,239.4240242739258Q118.96385001875,240.97388827392578,119.63769241874999,242.1030592739258Q120.42709521875,243.42587827392578,122.68504221875,243.24161927392578Q123.70541721875,243.15829427392578,124.63333421875001,242.84564927392577Q124.30700621875,244.16263727392578,123.43229121875,245.5071392739258ZM124.81361121875,241.7030242739258Q124.82744521875,241.4963552739258,124.82752521875,241.2903782739258Q124.82824321875,239.44975127392578,123.78085621875,238.5447692739258Q122.94879521875,237.8261912739258,121.99947221875,238.2737412739258Q121.06322121875,238.71513027392578,120.56701621875,239.83049627392577Q120.08825521874999,240.90665427392577,120.49641021875,241.5906102739258Q120.96660621875,242.37852827392578,122.60370821875,242.24493227392577Q123.77491021875,242.14929227392577,124.81361121875,241.7030242739258Z" fill-rule="evenodd" fill="url(#master_svg5_251_24035)" fill-opacity="1"/></g><g><path d="M162.5022266875,254.80306749267578Q157.9869913875,264.4683174926758,151.7001105975,267.1060464926758L152.0869987775,268.02817349267576Q158.7296852875,265.24116149267576,163.4082376875,255.2263224926758Q166.8435506875,247.8727387926758,168.0615636875,239.97003117967577L167.0732346875,239.8177038056758Q165.8770076875,247.57905959267578,162.5022266875,254.80306749267578Z" fill-rule="evenodd" fill="url(#master_svg6_251_24035)" fill-opacity="1"/></g></g><g transform="matrix(-1,0,0,1,508.1083984375,0)"><g><g><g><path d="M254.05419921875 186.11073970794678C254.05419921875 179.08093303099358 259.7529835070678 173.38214874267578 266.782790184021 173.38214874267578L341.600869178772 173.38214874267578C348.63067585572514 173.38214874267578 354.32946014404297 179.08093303099358 354.32946014404297 186.11073970794678L354.32946014404297 284.56893253326416C354.32946014404297 291.59873921021733 348.63067585572514 297.29752349853516 341.600869178772 297.29752349853516L266.782790184021 297.29752349853516C259.7529835070678 297.29752349853516 254.05419921875 291.59873921021733 254.05419921875 284.56893253326416Z" fill="url(#master_svg7_251_24131)" fill-opacity="1"/></g><g><ellipse cx="305.9821615219116" cy="173.38198471069336" rx="12.534407615661621" ry="12.571125030517578" fill="url(#master_svg8_251_24122)" fill-opacity="1"/></g><g><path d="M309.519385875,161.24347686767578C316.308436875,161.24347686767578,321.812057875,166.7632155676758,321.812057875,173.5721588676758L353.312804875,173.5721588676758C356.707839875,173.5721588676758,359.460046875,176.33242986767578,359.460046875,179.73739786767578L359.460046875,290.69913686767575C359.460046875,292.3342468676758,358.812396875,293.90239686767575,357.659560875,295.05859686767576C356.506728875,296.21480686767575,354.943160875,296.8643568676758,353.312804875,296.8643568676758L264.957778475,296.8643568676758C263.327431175,296.8643568676758,261.763858775,296.21480686767575,260.611029275,295.05859686767576C259.458199735,293.90239686767575,258.810546875,292.3342468676758,258.810546875,290.69913686767575L258.810546875,179.74098986767578C258.810546875,176.33602186767578,261.562756075,173.57574986767577,264.957778475,173.57574986767577L297.226710875,173.57574986767577C297.225761875,170.30535886767578,298.520461875,167.16858716767578,300.825885875,164.85573386767578C303.131312875,162.54288076767577,306.258544875,161.2434767288888,309.519385875,161.24347686767578Z" fill="url(#master_svg9_251_24138)" fill-opacity="1"/></g><g><path d="M354.08057434375,286.5346948676758C344.86360934375,288.0575968676758,328.34505034375,288.67537886767576,304.52490234375,288.3880368676758L349.68278934375,272.3059768676758C350.67085234374997,277.18438056767576,352.14414934375,281.9511289676758,354.08057434375,286.5346948676758L354.08057434375,286.5346948676758Z" fill-rule="evenodd" fill="url(#master_svga_251_24122)" fill-opacity="1"/></g><g><path d="M265.7236328125,185.90265655517578L353.3122788125,185.90265655517578C352.5136568125,223.51067355517577,352.1143498125,246.14348555517577,352.1143498125,253.80110155517576C352.01673881249997,263.5184705551758,353.3945918125,273.1941225551758,356.2005618125,282.4955825551758C346.2195888125,285.47673755517576,325.8565518125,288.38965655517575,309.5188488125,288.38965655517575C295.9785728125,288.21822655517576,282.4577138125,287.3057765551758,269.0166004125,285.65633355517576C266.8212887125,284.5728225551758,265.7236328125,273.5497355551758,265.7236328125,252.5870895551758L265.7236328125,185.90265655517578Z" fill-rule="evenodd" fill="#FFFFFF" fill-opacity="1"/></g><g><path d="M275.5419921875 201.91121089458466C275.5419921875 201.0324850599655 276.2543402235397 200.32013702392578 277.1330660581589 200.32013702392578L345.5761014223099 200.32013702392578C346.45482725692904 200.32013702392578 347.16717529296875 201.0324850599655 347.16717529296875 201.91121089458466L347.16717529296875 202.3208132982254C347.16717529296875 203.19953913284456 346.45482725692904 203.91188716888428 345.5761014223099 203.91188716888428L277.1330660581589 203.91188716888428C276.2543402235397 203.91188716888428 275.5419921875 203.19953913284456 275.5419921875 202.3208132982254Z" fill="url(#master_svgb_251_24125)" fill-opacity="1"/></g><g><path d="M275.5419921875 212.68611323833466C275.5419921875 211.8073874037155 276.2543402235397 211.09503936767578 277.1330660581589 211.09503936767578L345.5761014223099 211.09503936767578C346.45482725692904 211.09503936767578 347.16717529296875 211.8073874037155 347.16717529296875 212.68611323833466L347.16717529296875 213.0957156419754C347.16717529296875 213.97444147659456 346.45482725692904 214.68678951263428 345.5761014223099 214.68678951263428L277.1330660581589 214.68678951263428C276.2543402235397 214.68678951263428 275.5419921875 213.97444147659456 275.5419921875 213.0957156419754Z" fill="url(#master_svgc_251_24125)" fill-opacity="1"/></g><g><path d="M275.5419921875 222.46163058280945C275.5419921875 221.14354186379947 276.61051421487366 220.07501983642578 277.92860293388367 220.07501983642578L312.5492298603058 220.07501983642578C313.8673185793158 220.07501983642578 314.93584060668945 221.14354186379947 314.93584060668945 222.46163058280945L314.93584060668945 223.07603430747986C314.93584060668945 224.39412302648984 313.8673185793158 225.46264505386353 312.5492298603058 225.46264505386353L277.92860293388367 225.46264505386353C276.61051421487366 225.46264505386353 275.5419921875 224.39412302648984 275.5419921875 223.07603430747986Z" fill="url(#master_svgd_251_24125)" fill-opacity="1"/></g><g><path d="M275.5419921875 270.15437495708466C275.5419921875 269.2756491224655 276.2543402235397 268.5633010864258 277.1330660581589 268.5633010864258L290.06658375263214 268.5633010864258C290.9453095872513 268.5633010864258 291.657657623291 269.2756491224655 291.657657623291 270.15437495708466L291.657657623291 270.5639773607254C291.657657623291 271.44270319534456 290.9453095872513 272.1550512313843 290.06658375263214 272.1550512313843L277.1330660581589 272.1550512313843C276.2543402235397 272.1550512313843 275.5419921875 271.44270319534456 275.5419921875 270.5639773607254Z" fill="url(#master_svge_251_24125)" fill-opacity="1"/></g><g><ellipse cx="310.2337455749512" cy="174.09658575057983" rx="6.743511199951172" ry="6.763265132904053" fill="url(#master_svgf_251_24128)" fill-opacity="1"/></g><g><ellipse cx="309.56388568878174" cy="173.38205528259277" rx="7.162518501281738" ry="7.183500289916992" fill="#FFFFFF" fill-opacity="1"/></g></g></g></g><g transform="matrix(0.9612616896629333,0.27563735842704773,-0.27563735842704773,0.9612616896629333,48.521449352377886,-62.57553710655657)"><g style="opacity:0.598800003528595;"><ellipse cx="264.97577238082886" cy="172.15125644207" rx="7.035342693328857" ry="1.988101840019226" fill="url(#master_svgg_251_23826)" fill-opacity="1"/></g><g style="opacity:0.5764999985694885;"><path d="M258.8118477475,172.1192191489258C260.7479645875,172.9070891489258,270.1865346875,159.17560314892577,271.5176146875,155.57390114892578C272.84869468750003,151.97219994892578,271.3966076875,147.9202860489258,268.2504176875,146.68220123892578C265.1042275875,145.4441164089258,261.4740082875,147.3575202489258,260.1429280875,151.0717749489258C258.8118477475,154.78602884892578,256.7547235875,171.33134414892578,258.8118477475,172.1192191489258Z" fill="url(#master_svgh_251_23826)" fill-opacity="1"/></g><g><path d="M259.292041625,171.13873316455079C261.539799625,170.4858571645508,261.20263562499997,151.6612001645508,260.078757625,147.41749146455078C258.954877625,143.1737828645508,255.246079425,140.5622698045508,251.649668225,141.5415872145508C248.053256725,142.52090466455078,246.142663305,146.76461316455078,247.154153945,151.00832176455077C248.165644625,155.25203116455077,257.044284625,171.7916141645508,259.292041625,171.13873316455079Z" fill="url(#master_svgi_251_23826)" fill-opacity="1"/></g></g></g></g></svg>