<svg xmlns="http://www.w3.org/2000/svg" xmlns:xlink="http://www.w3.org/1999/xlink" fill="none" version="1.1" width="11.666666984558105" height="11.666666984558105" viewBox="0 0 11.666666984558105 11.666666984558105"><g><path d="M2.9166667,1.1666665L2.9166667,0L8.750001,0L8.750001,1.1666665L11.666667,1.1666665L11.666667,2.333333L10.500001,2.333333L10.500001,11.083332C10.500001,11.405509,10.23884,11.666667,9.916667,11.666667L1.75,11.666667C1.4278368,11.666667,1.1666665,11.405509,1.1666665,11.083332L1.1666665,2.333333L0,2.333333L0,1.1666665L2.9166667,1.1666665ZM2.333333,2.333333L2.333333,10.500001L9.3333321,10.500001L9.3333321,2.333333L2.333333,2.333333ZM4.0833335,4.0833335L5.2500005,4.0833335L5.2500005,8.750001L4.0833335,8.750001L4.0833335,4.0833335ZM6.416666,4.0833335L7.5833325,4.0833335L7.5833325,8.750001L6.416666,8.750001L6.416666,4.0833335Z" fill="#A6A6A6" fill-opacity="1" style="mix-blend-mode:passthrough"/></g></svg>