<svg xmlns="http://www.w3.org/2000/svg" xmlns:xlink="http://www.w3.org/1999/xlink" fill="none" version="1.1" width="20" height="20" viewBox="0 0 20 20"><defs><clipPath id="master_svg0_66_41013"><rect x="2.6470589637756348" y="2.6470589637756348" width="14.70588207244873" height="14.70588207244873" rx="0"/></clipPath></defs><g><g><g><ellipse cx="10" cy="10" rx="10" ry="10" fill="#FFE2E2" fill-opacity="1"/></g><g><g><ellipse cx="9.71153736114502" cy="9.71153736114502" rx="5.480768203735352" ry="5.480768203735352" fill="#FFFFFF" fill-opacity="1"/></g></g></g><g><g><ellipse cx="9.705882787704468" cy="10.294118165969849" rx="4.705882549285889" ry="4.705882549285889" fill="#FFFFFF" fill-opacity="1"/></g><g clip-path="url(#master_svg0_66_41013)"><g><path d="M9.999999963775636,2.6470589637756348C5.939951163775635,2.6470589637756348,2.6470589637756348,5.939951163775635,2.6470589637756348,9.999999963775636C2.6470589637756348,14.060050963775634,5.939951163775635,17.352940963775637,9.999999963775636,17.352940963775637C14.060050963775634,17.352940963775637,17.352940963775637,14.060050963775634,17.352940963775637,9.999999963775636C17.352940963775637,5.939950663775635,14.060049963775635,2.6470589637756348,9.999999963775636,2.6470589637756348ZM13.151348963775634,12.363358063775635L12.363358063775635,13.151348963775634L9.999999963775636,10.787991063775635L7.636642463775635,13.151348963775634L6.848652363775635,12.363358063775635L9.213235863775635,9.999999963775636L6.8480396637756344,7.636642463775635L7.636642463775635,6.848652363775635L9.999999963775636,9.213235863775635L12.363358063775635,6.8480396637756344L13.151348963775634,7.636642463775635L10.787991063775635,9.999999963775636L13.151348963775634,12.363358063775635Z" fill="#EB3737" fill-opacity="1"/></g></g></g></g></svg>