<svg xmlns="http://www.w3.org/2000/svg" xmlns:xlink="http://www.w3.org/1999/xlink" fill="none" version="1.1" width="14" height="14" viewBox="0 0 14 14"><defs><clipPath id="master_svg0_66_40638"><rect x="14" y="0" width="14" height="14" rx="0"/></clipPath></defs><g transform="matrix(-1,0,0,1,28,0)" clip-path="url(#master_svg0_66_40638)"><g><path d="M26.586116812500002,6.077124121875L21.9361610125,1.427118481875C21.5873852125,1.078743561875,21.1144891125,0.883210535075,20.621529612499998,0.88354518890378L16.7408532125,0.884088191965L16.7406062125,0.884088191965C15.7135165925,0.884088191965,14.8798828125,1.714610521875,14.8798828125,2.741897821875L14.8798828125,6.620252621875C14.88007480621,7.113610721875,15.0762015925,7.586695621875,15.4251352525,7.935476821875L20.0767217125,12.587211921875C20.8029809125,13.313502921875,21.9805150125,13.313502921875,22.7067747125,12.587211921875L26.586116812500002,8.707670721875001C27.3124788125,7.981259821875,27.3124788125,6.803484921875,26.586116812500002,6.077124121875ZM25.9680168125,8.089520021875L22.0886736125,11.969061921875C21.7038908125,12.353922921875,21.0799513125,12.353922921875,20.695168012499998,11.969061921875L16.0438287125,7.317327021875C15.8586692825,7.132537321875,15.7544474625,6.881796821875,15.7540648025,6.620203521875L15.7540648025,2.741897821875C15.7546370625,2.197773121875,16.1964329125,1.757259961875,16.7405569125,1.7582700818750001L20.621233512499998,1.757726851875C20.8823838125,1.7573446018749999,21.1329484125,1.860911311875,21.3176160125,2.045564721875L25.9676208125,6.695422221875C26.3526858125,7.080288921875,26.3528628125,7.704436321875,25.9680168125,8.089520021875Z" fill="#0064FF" fill-opacity="1"/></g><g><path d="M19.2500432,3.5C18.28350413,3.5,17.5,4.28350413,17.5,5.2500433C17.5,6.2165824999999995,18.28350413,6.9999876,19.2500432,6.9999876C20.2165821,6.9999876,21.0000365,6.2164833999999995,21.0000365,5.2499942C21.0000365,4.28350472,20.2164834,3.5,19.2500432,3.5ZM19.8693292,5.8692799C19.4621489,6.2765172,18.7794979,6.1866829,18.49153662,5.6879683C18.20357549,5.1892537,18.46704906,4.5531211,19.0233047,4.40406424C19.5795524,4.25500184,20.1258056,4.6741561,20.1258056,5.2500428C20.1264238,5.4824304999999995,20.0340528,5.7054081,19.8693292,5.8692799L19.8693292,5.8692799Z" fill="#0064FF" fill-opacity="1"/></g></g></svg>