<svg xmlns="http://www.w3.org/2000/svg" xmlns:xlink="http://www.w3.org/1999/xlink" fill="none" version="1.1" width="16" height="16" viewBox="0 0 16 16"><g><g><path d="M10.66667,5.496913015441894L10.66667,10.333333015441895C10.66667,12.726633015441895,8.726600000000001,14.666633015441894,6.33333,14.666633015441894C3.9401,14.666633015441894,2,12.726633015441895,2,10.333333015441895C2,7.940063015441894,3.9401,6.000003015441894,6.33333,6.000003015441894C6.67753,6.000003015441894,7.01233,6.040123015441894,7.33333,6.115953015441894L7.33333,8.224533015441896C7.03027,8.080533015441894,6.6912,8.000003015441894,6.33333,8.000003015441894C5.04467,8.000003015441894,4,9.044663015441895,4,10.333333015441895C4,11.622033015441895,5.04467,12.666633015441894,6.33333,12.666633015441894C7.622,12.666633015441894,8.66667,11.622033015441895,8.66667,10.333333015441895L8.66667,1.3333330154418945L10.66667,1.3333330154418945C10.66667,3.174283015441895,12.1591,4.666663015441895,14,4.666663015441895L14,6.666663015441895C12.7387,6.666663015441895,11.57973,6.228853015441895,10.66667,5.496913015441894Z" fill="#000000" fill-opacity="0.45098039507865906" style="mix-blend-mode:passthrough"/></g></g></svg>