<svg xmlns="http://www.w3.org/2000/svg" xmlns:xlink="http://www.w3.org/1999/xlink" fill="none" version="1.1" width="16" height="16" viewBox="0 0 16 16"><defs><clipPath id="master_svg0_2_05946"><rect x="0" y="0" width="16" height="16" rx="0"/></clipPath></defs><g clip-path="url(#master_svg0_2_05946)"><g><path d="M2.8150234375,10.71751C3.5455234375,11.5125,4.3015234375,12.5125,5.6650234375,12.581L5.8130234375,12.5845L10.1865234375,12.5845C11.6440234375,12.5845,12.4555234375,11.5685,13.1845234375,10.73151C13.2670234375,10.60751,13.8310234375,10.03151,14.3810234375,10.34701C14.8525234375,10.62201,14.9620234375,11.4565,14.9715234375,12.0805L14.9725234375,12.1725L14.9725234375,13.133C14.9719234375,13.658,14.7468234375,14.1577,14.3540234375,14.506C14.1406234375,14.6901,13.8928234375,14.8299,13.6250234375,14.9175C13.7210234375,14.712,13.7760234375,14.506,13.7760234375,14.3C13.7760234375,13.516,13.1695234375,12.8345,12.3940234375,12.7675C12.6040234375,12.9375,12.7590234375,13.546,12.7715234375,14.2725C12.7715234375,14.5335,12.7445234375,14.7665,12.7165234375,14.9725L11.8090234375,14.9725C11.7820234375,14.7665,11.7540234375,14.5335,11.7540234375,14.2725C11.7540234375,13.5425,11.9105234375,12.9315,12.1210234375,12.764L12.1535234375,12.763C11.3420234375,12.7905,10.6955234375,13.4905,10.6955234375,14.3C10.6960234375,14.51,10.7410234375,14.716,10.8275234375,14.9065L10.8740234375,15L5.0990234375,15C5.2220234375,14.7945,5.2775234375,14.561,5.2775234375,14.3C5.2775234375,13.511,4.6630234375,12.826,3.8810234375,12.7665C4.0890234375,12.9355,4.2320234375000005,13.5445,4.2320234375000005,14.2725C4.2320234375000005,14.5335,4.2045234375,14.7665,4.1770234375,14.9725L3.2690234375,14.9725C3.2420234375,14.7665,3.2140234375,14.5335,3.2140234375,14.2725C3.2140234375,13.5435,3.3935234375,12.9335,3.6070234375,12.765L3.6545234375,12.763C2.8430234375000003,12.7905,2.1970234375,13.4905,2.1970234375,14.3C2.1970234375,14.5335,2.2650234375,14.739,2.3480234375,14.9175C2.0911334375,14.8241,1.8534204375,14.6847,1.6465244375,14.506C1.2641214375,14.1821,1.0316281375,13.7153,1.0035240175,13.215L1.0000241075,13.106L1.0000241075,12.145C1.0275241375,11.5405,1.1240244375,10.63501,1.6190244375,10.33251C2.1690234375,10.01751,2.7050234375,10.60751,2.8155234375,10.71751L2.8150234375,10.71751ZM8.2890234375,13.957L7.7110234375,13.957C7.5735234375,13.957,7.4930234375,14.0365,7.5410234375,14.1335L7.5600234375,14.163L7.7385234375,14.396C7.8075234375,14.4785,7.8625234375,14.602,7.9175234375,14.6565Q7.9450234375,14.6845,8.000023437500001,14.6845C8.055023437500001,14.6845,8.0825234375,14.6565,8.1100234375,14.6295C8.1330234375,14.5835,8.1850234375,14.4905,8.2490234375,14.413L8.2890234375,14.3685L8.440023437499999,14.163C8.5225234375,14.039,8.467523437499999,13.9565,8.2890234375,13.957ZM13.1020234375,1.0000128937C14.1119234375,0.99632118,14.9465234375,1.786872,14.9975234375,2.79551L15.0000234375,2.8940099999999997L15.0000234375,10.41001C14.8000234375,10.15951,14.5755234375,9.95001,14.3810234375,9.83701C13.8310234375,9.52101,13.2670234375,10.09701,13.1845234375,10.22101C12.4555234375,11.058,11.6445234375,12.074,10.1865234375,12.074L5.8130234375,12.074C4.3555234375000005,12.074,3.5715234375,11.031,2.8155234375,10.20751L2.7790234375000002,10.17051C2.6155234375000003,10.00551,2.1230234375,9.53351,1.6190234375,9.82301C1.4240234375,9.94151,1.2010234375,10.15301,0.9990234375,10.40301L1.0005234575,2.8940099999999997C0.9985755155,1.883775,1.7914294375000002,1.0506178,2.8005234375,1.0025132L2.8980234375,1.0000128937L13.1020234375,1.0000128937ZM10.5660234375,2.93401L5.5310234375,2.93401C5.2636034375,2.9339500000000003,5.0427834375,3.14295,5.0281634375,3.40997C5.0135334375,3.67699,5.2101934375,3.90886,5.4760234375,3.93801L5.5310234375,3.94101L7.0415234375,3.94101L7.0415234375,7.96901C7.0415234375,8.52551,7.4915234375,8.976009999999999,8.0485234375,8.976009999999999C8.5800234375,8.976009999999999,9.0145234375,8.56601,9.0525234375,8.04401L9.0555234375,7.96901L9.0555234375,3.94101L10.5655234375,3.94101C10.8436034375,3.94101,11.0690234375,3.71559,11.0690234375,3.43751C11.0690234375,3.15944,10.8436034375,2.93401,10.5655234375,2.93401L10.5660234375,2.93401Z" fill="#000000" fill-opacity="0.45098039507865906" style="mix-blend-mode:passthrough"/></g></g></svg>