<svg xmlns="http://www.w3.org/2000/svg" xmlns:xlink="http://www.w3.org/1999/xlink" fill="none" version="1.1" width="9" height="9" viewBox="0 0 9 9"><defs><clipPath id="master_svg0_121_39060"><rect x="0" y="0" width="9" height="9" rx="0"/></clipPath></defs><g clip-path="url(#master_svg0_121_39060)"><g><path d="M9,4.5Q9,4.6104689,8.9945793,4.7208047Q8.9891586,4.8311405,8.9783316,4.9410777Q8.9675035,5.0510139,8.9512939,5.1602874Q8.9350853,5.2695599,8.9135332,5.3779063Q8.8919811,5.4862523,8.86514,5.5934105Q8.8382988,5.7005692,8.8062315,5.8062811Q8.7741642,5.911993,8.736948,6.0160041Q8.6997318,6.1200151,8.6574574,6.222075Q8.6151819,6.3241348,8.5679502,6.4239979Q8.5207195,6.5238605,8.4686451,6.6212854Q8.4165707,6.7187099,8.3597775,6.8134623Q8.3029861,6.9082146,8.2416124,7.0000658Q8.1802387,7.091917,8.1144323,7.1806464Q8.0486269,7.2693758,7.9785461,7.3547697Q7.9084654,7.4401631,7.8342791,7.5220151Q7.7600927,7.6038666,7.6819801,7.6819801Q7.6038666,7.7600927,7.5220151,7.8342795Q7.4401631,7.9084654,7.3547697,7.9785466Q7.2693758,8.0486269,7.1806464,8.1144333Q7.091917,8.1802387,7.0000658,8.2416124Q6.9082146,8.3029861,6.8134623,8.3597775Q6.7187099,8.4165707,6.621285,8.4686451Q6.52386,8.5207195,6.4239974,8.5679502Q6.3241348,8.6151819,6.2220745,8.6574574Q6.1200147,8.6997318,6.0160036,8.736948Q5.911993,8.7741642,5.8062811,8.8062315Q5.7005692,8.8382988,5.5934105,8.8651409Q5.4862518,8.8919821,5.3779058,8.9135342Q5.2695599,8.9350853,5.1602869,8.9512939Q5.0510139,8.9675035,4.9410772,8.9783316Q4.8311405,8.9891586,4.7208047,8.9945793Q4.6104689,9,4.5,9Q4.3895311,9,4.2791958,8.9945793Q4.1688595,8.9891586,4.0589228,8.9783316Q3.9489858,8.9675035,3.8397129,8.9512939Q3.7304397,8.9350853,3.6220934,8.9135332Q3.5137472,8.8919811,3.406589,8.86514Q3.2994308,8.8382988,3.1937191,8.8062315Q3.088007,8.7741642,2.9839957,8.736948Q2.8799844,8.6997318,2.7779245,8.6574574Q2.6758647,8.6151819,2.5760019,8.5679502Q2.4761395,8.5207195,2.3787148,8.4686451Q2.2812898,8.4165707,2.1865375,8.3597775Q2.0917852,8.3029861,1.9999337,8.2416124Q1.9080822,8.1802387,1.819353,8.1144323Q1.7306236,8.0486269,1.6452301,7.9785461Q1.5598366,7.9084654,1.4779847,7.8342791Q1.3961327,7.7600927,1.3180194,7.6819801Q1.2399062,7.6038666,1.1657199,7.5220151Q1.0915337,7.4401631,1.021453,7.3547697Q0.95137227,7.2693758,0.88556606,7.1806464Q0.81975985,7.091917,0.75838661,7.0000658Q0.6970135,6.9082146,0.64022118,6.8134623Q0.58342886,6.7187099,0.53135425,6.621285Q0.47927961,6.52386,0.43204808,6.4239974Q0.38481662,6.3241348,0.34254205,6.2220745Q0.30026746,6.1200147,0.26305166,6.0160036Q0.22583586,5.911993,0.19376847,5.8062811Q0.16170108,5.7005692,0.13485935,5.5934105Q0.10801762,5.4862518,0.086466223,5.3779058Q0.06491483,5.2695599,0.048705697,5.1602869Q0.032496564,5.0510139,0.021668728,4.9410772Q0.010840893,4.8311405,0.0054204464,4.7208047Q0,4.6104689,0,4.5Q0,4.3895311,0.0054204464,4.2791958Q0.010840893,4.1688595,0.021668728,4.0589228Q0.032496564,3.9489858,0.048705697,3.8397129Q0.06491483,3.7304397,0.086466223,3.6220934Q0.10801762,3.5137472,0.13485935,3.406589Q0.16170108,3.2994308,0.19376847,3.1937191Q0.22583586,3.088007,0.26305169,2.9839957Q0.30026746,2.8799844,0.34254205,2.7779245Q0.38481662,2.6758647,0.43204811,2.5760019Q0.47927964,2.4761395,0.53135431,2.3787148Q0.58342892,2.2812898,0.64022124,2.1865375Q0.6970135,2.0917852,0.75838667,1.9999337Q0.81975985,1.9080822,0.885566,1.819353Q0.95137221,1.7306236,1.0214529,1.6452301Q1.0915335,1.5598366,1.1657199,1.4779847Q1.2399062,1.3961327,1.3180194,1.3180194Q1.3961327,1.2399062,1.4779847,1.1657199Q1.5598366,1.0915337,1.6452301,1.021453Q1.7306236,0.95137227,1.8193529,0.88556606Q1.9080822,0.81975985,1.9999337,0.75838661Q2.091785,0.6970135,2.1865373,0.64022118Q2.2812896,0.58342886,2.3787146,0.53135425Q2.4761391,0.47927961,2.5760016,0.43204808Q2.6758642,0.38481662,2.7779243,0.34254205Q2.8799841,0.30026746,2.9839954,0.26305166Q3.088007,0.22583586,3.1937191,0.19376847Q3.2994308,0.16170108,3.406589,0.13485935Q3.5137472,0.10801762,3.6220934,0.086466223Q3.7304397,0.06491483,3.8397129,0.048705697Q3.9489861,0.032496564,4.0589232,0.021668728Q4.16886,0.010840893,4.2791958,0.0054204464Q4.3895311,0,4.5,0Q4.6104689,0,4.7208047,0.0054204464Q4.8311405,0.010840893,4.9410777,0.021668728Q5.0510139,0.032496564,5.1602874,0.048705697Q5.2695599,0.06491483,5.3779063,0.086466223Q5.4862523,0.10801762,5.5934105,0.13485935Q5.7005692,0.16170108,5.8062811,0.19376847Q5.911993,0.22583586,6.0160041,0.26305169Q6.1200151,0.30026746,6.222075,0.34254205Q6.3241348,0.38481662,6.4239979,0.43204811Q6.5238605,0.47927964,6.6212854,0.53135431Q6.7187099,0.58342892,6.8134623,0.64022124Q6.9082146,0.6970135,7.0000658,0.75838667Q7.091917,0.81975985,7.1806464,0.885566Q7.2693758,0.95137221,7.3547697,1.0214529Q7.4401631,1.0915335,7.5220151,1.1657199Q7.6038666,1.2399062,7.6819801,1.3180194Q7.7600927,1.3961327,7.8342795,1.4779847Q7.9084654,1.5598366,7.9785466,1.6452301Q8.0486269,1.7306236,8.1144333,1.8193529Q8.1802387,1.9080822,8.2416124,1.9999337Q8.3029861,2.091785,8.3597775,2.1865373Q8.4165707,2.2812896,8.4686451,2.3787146Q8.5207195,2.4761391,8.5679502,2.5760016Q8.6151819,2.6758642,8.6574574,2.7779243Q8.6997318,2.8799841,8.736948,2.9839954Q8.7741642,3.088007,8.8062315,3.1937191Q8.8382988,3.2994308,8.8651409,3.406589Q8.8919821,3.5137472,8.9135342,3.6220934Q8.9350853,3.7304397,8.9512939,3.8397129Q8.9675035,3.9489861,8.9783316,4.0589232Q8.9891586,4.16886,8.9945793,4.2791958Q9,4.3895311,9,4.5ZM8.3808126,4.5000377Q8.3808126,4.6906161,8.362133,4.8802767Q8.3434525,5.0699372,8.3062725,5.2568531Q8.2690926,5.4437695,8.2137699,5.626142Q8.1584482,5.8085136,8.0855169,5.9845848Q8.0125866,6.1606569,7.9227481,6.328732Q7.8329105,6.4968071,7.7270308,6.6552668Q7.6211514,6.8137274,7.5002499,6.9610462Q7.3793483,7.1083651,7.2445889,7.243124Q7.1098299,7.3778834,6.9625111,7.498785Q6.8151917,7.6196861,6.6567311,7.7255654Q6.4982719,7.8314457,6.3301964,7.9212832Q6.1621218,8.0111217,5.9860497,8.0840521Q5.8099785,8.1569834,5.6276069,8.2123051Q5.4452343,8.2676277,5.2583179,8.3048077Q5.0714021,8.3419876,4.8817415,8.3606672Q4.692081,8.3793478,4.5015025,8.3793478Q4.3109245,8.3793478,4.1212635,8.3606682Q3.931603,8.3419876,3.7446864,8.3048077Q3.5577703,8.2676277,3.3753979,8.2123051Q3.1930261,8.1569834,3.0169544,8.0840521Q2.8408833,8.0111217,2.6728082,7.9212832Q2.5047331,7.8314452,2.3462729,7.725565Q2.187813,7.6196856,2.0404942,7.4987841Q1.8931751,7.377883,1.7584159,7.2431235Q1.6236567,7.1083646,1.5027552,6.9610457Q1.3818536,6.8137264,1.2759739,6.6552663Q1.1700943,6.4968066,1.0802563,6.3287315Q0.99041831,6.1606565,0.91748714,5.9845848Q0.84455603,5.8085136,0.78923404,5.6261415Q0.73391211,5.4437695,0.69673216,5.2568531Q0.65955222,5.0699372,0.64087236,4.8802767Q0.62219238,4.6906161,0.62219238,4.5000377Q0.62219238,4.3094597,0.64087236,4.1197991Q0.65955222,3.9301383,0.69673216,3.7432215Q0.73391211,3.5563054,0.7892341,3.3739333Q0.84455603,3.1915612,0.91748714,3.0154896Q0.99041831,2.8394184,1.0802563,2.6713433Q1.1700943,2.5032682,1.2759739,2.3448081Q1.3818536,2.1863482,1.5027552,2.0390294Q1.6236567,1.8917104,1.7584159,1.7569512Q1.8931751,1.622192,2.0404942,1.5012903Q2.187813,1.3803887,2.3462729,1.2745091Q2.5047331,1.1686295,2.6728082,1.0787916Q2.8408833,0.98895359,3.0169544,0.91602236Q3.1930261,0.84309131,3.3753982,0.78776938Q3.55777,0.73244745,3.7446861,0.69526744Q3.931603,0.65808749,4.1212635,0.63940752Q4.3109245,0.62072754,4.5015025,0.62072754Q4.692081,0.62072754,4.8817415,0.63940752Q5.0714021,0.65808749,5.2583179,0.69526738Q5.4452348,0.73244739,5.6276069,0.78776938Q5.809979,0.84309131,5.9860501,0.91602236Q6.1621218,0.98895359,6.3301969,1.0787915Q6.4982719,1.1686295,6.6567316,1.2745091Q6.8151922,1.3803887,6.9625111,1.5012903Q7.1098299,1.6221919,7.2445889,1.7569511Q7.3793483,1.8917103,7.5002499,2.0390291Q7.6211514,2.1863482,7.7270308,2.3448081Q7.8329105,2.5032682,7.9227486,2.6713433Q8.0125866,2.8394184,8.0855169,3.0154896Q8.1584482,3.1915612,8.2137709,3.3739333Q8.2690926,3.5563054,8.3062725,3.7432215Q8.3434525,3.9301383,8.3621321,4.1197991Q8.3808126,4.3094597,8.3808126,4.5000377ZM4.6558461,4.3446712C4.6558461,4.2592325,4.5860806,4.1896338,4.5008087,4.1896338L4.6558461,4.1896338L4.6558461,4.3446712ZM4.6558461,2.1725276L4.6558461,4.1896338L6.6729527,4.1896338C6.8443508,4.1896338,6.9832969,4.3285799,6.9832969,4.499979C6.9832969,4.6713772,6.8443508,4.8103232,6.6729527,4.8103232L4.5008087,4.8103232C4.2436161,4.8103232,4.0351562,4.6023641,4.0351562,4.3446712L4.0351562,2.1725276C4.0351562,2.0011287,4.1741023,1.8621826,4.3455009,1.8621826C4.5168996,1.8621826,4.6558461,2.0011287,4.6558461,2.1725276Z" fill-rule="evenodd" fill="#999999" fill-opacity="1"/></g></g></svg>