<svg xmlns="http://www.w3.org/2000/svg" xmlns:xlink="http://www.w3.org/1999/xlink" fill="none" version="1.1" width="20" height="20" viewBox="0 0 20 20"><defs><clipPath id="master_svg0_2_07139"><rect x="0" y="0" width="20" height="20" rx="0"/></clipPath></defs><g><g clip-path="url(#master_svg0_2_07139)"><g><ellipse cx="10" cy="11.5" rx="9" ry="8.5" fill="#FFFFFF" fill-opacity="1"/></g><g><path d="M19.9785662109375,9.9997948828125C19.9843662109375,15.0390048828125,16.2355662109375,19.2934048828125,11.2356662109375,19.9218048828125C6.2357362109375,20.5501048828125,1.5508262109375,17.3556048828125,0.3096292109375,12.4716048828125C-0.9315647890625,7.5875548828125,1.6597362109375,2.5438948828125,6.3530062109375,0.7088608828125C8.6870162109375,-0.2296141171875,11.2934662109375,-0.2296141171875,13.6274662109375,0.7088608828125C17.4554662109375,2.2028248828125,19.9763662109375,5.8905748828125,19.9785662109375,9.9997948828125ZM6.1488362109375,7.8949948828125C6.1163362109375,9.4636748828125,6.9218462109375,10.9309048828125,8.2628062109375,11.7456048828125C9.3090062109375,12.3556048828125,10.5996662109375,12.3674048828125,11.6568662109375,11.7765048828125C13.0315662109375,10.9728048828125,13.8626662109375,9.4870648828125,13.8281662109375,7.8949948828125C14.0785662109375,5.6073348828125,12.2869662109375,3.6089948828125,9.9856462109375,3.6089948828125C7.6843262109375,3.6089948828125,5.8927462109375,5.6073348828125,6.1430962109375,7.8949948828125M10.0269662109375,19.3320048828125C12.8315662109375,19.3345048828125,15.4872662109375,18.0699048828125,17.2531662109375,15.8909048828125C17.0513662109375,14.2346048828125,15.4374662109375,12.8238048828125,13.1525662109375,12.1206048828125C11.3436662109375,13.8012048828125,8.5368762109375,13.7756048828125,6.7590562109375,12.0621048828125C4.5361062109375,12.6964048828125,2.9084762109375,13.9903048828125,2.5265162109375,15.5411048828125C4.2796062109375,17.9279048828125,7.0655062109375,19.3359048828125,10.0269662109375,19.3320048828125Z" fill="#B9B9B9" fill-opacity="1" style="mix-blend-mode:passthrough"/></g></g></g></svg>