<svg xmlns="http://www.w3.org/2000/svg" xmlns:xlink="http://www.w3.org/1999/xlink" fill="none" version="1.1" width="269" height="57" viewBox="0 0 269 57"><g><g><g><path d="M203.9095458984375,31.257009599609376L203.9095458984375,0.776214599609375L207.4188777984375,0.776214599609375L207.4188777984375,31.257009599609376L203.9095458984375,31.257009599609376Z" fill="#423F40" fill-opacity="1"/></g><g><path d="M79.59873218828125,31.257013087890623L76.08331298828125,31.257013087890623L76.08331298828125,17.363667487890623C76.08834299678125,12.774542787890624,79.83462308828125,9.056503792690625,84.45524308828125,9.054840087890625L84.45524308828125,12.528176587890625C81.76803018828124,12.528176587890625,79.58960938828125,14.691748587890626,79.58960938828125,17.360644387890623L79.59873218828125,31.257013087890623Z" fill="#423F40" fill-opacity="1"/></g><g><path d="M196.2036676375,31.257013087890623L192.6943359375,31.257013087890623L192.6943359375,17.363667487890623C192.6993845077,12.773363387890626,196.4475021375,9.054835479290025,201.0693016375,9.054840087890625L201.0693016375,12.528176587890625C198.3820886375,12.528176587890625,196.2036676375,14.691748587890626,196.2036676375,17.360644387890623L196.2036676375,31.257013087890623Z" fill="#423F40" fill-opacity="1"/></g><g><path d="M121.7381454375,31.25701290600586L118.0889206375,31.25701290600586C114.4508037375,31.25368490600586,111.5023736837,28.32534390600586,111.4990234375,24.71203590600586L111.4990234375,4.696559906005859L115.0083644375,4.696559906005859L115.0083644375,24.83284390600586C115.0100443375,26.52357490600586,116.3896308375,27.89375690600586,118.0919642375,27.89542790600586L121.7411904375,27.89542790600586L121.7381454375,31.25701290600586Z" fill="#423F40" fill-opacity="1"/></g><g><rect x="108.63739013671875" y="9.483722686767578" width="13.100719451904297" height="3.1833882331848145" rx="0" fill="#423F40" fill-opacity="1"/></g><g><path d="M140.00556278125,31.253984359375L136.49925708125,31.253984359375L128.47705078125,0.773193359375L132.42429038125,0.773193359375L140.00556278125,31.253984359375Z" fill="#423F40" fill-opacity="1"/></g><g><path d="M139.0294189453125,31.253986599609377L142.3897523453125,31.253986599609377L149.1803479453125,0.776214599609375L145.6983752453125,0.776214599609375L139.0294189453125,31.253986599609377Z" fill="#423F40" fill-opacity="1"/></g><g><path d="M158.03575566015624,31.253986599609377L154.67543126015624,31.253986599609377L147.88482666015625,0.776214599609375L151.36679916015626,0.776214599609375L158.03575566015624,31.253986599609377Z" fill="#423F40" fill-opacity="1"/></g><g><path d="M157.0079345703125,31.253984359375L160.4290838703125,31.253984359375L168.4512995703125,0.773193359375L164.5891985703125,0.773193359375L157.0079345703125,31.253984359375Z" fill="#423F40" fill-opacity="1"/></g><g><rect x="138.0958251953125" y="27.892398834228516" width="3.4637231826782227" height="3.361585855484009" rx="0" fill="#423F40" fill-opacity="1"/></g><g><rect x="156.2537841796875" y="27.892398834228516" width="3.4637231826782227" height="3.361585855484009" rx="0" fill="#423F40" fill-opacity="1"/></g><g><rect x="146.58026123046875" y="1.1265640258789062" width="3.4637231826782227" height="3.4370927810668945" rx="0" fill="#423F40" fill-opacity="1"/></g><g><path d="M69.58774725,23.763665810058594C67.38652225,28.286657810058593,61.52651625,29.609149810058593,57.57343765,26.475063810058593C53.62036065,23.34098281005859,53.62036065,17.372559510058593,57.57343765,14.238480610058595C61.52651625,11.104397310058594,67.38652225,12.426895110058593,69.58774725,16.949886310058595L73.36165425,16.949886310058595C71.02335925,9.597624420058594,62.12612625,6.672895710058594,55.83307265,11.187831210058594C49.54002045,15.702771210058593,49.54002045,25.010789810058593,55.83307265,29.525724810058595C62.126135250000004,34.04065181005859,71.02335925,31.115922810058592,73.36165425,23.763665810058594L69.58774725,23.763665810058594Z" fill="#423F40" fill-opacity="1"/></g><g><path d="M178.50182921484375,31.667767996582032C172.21207191484376,31.66777999658203,167.11322021484375,26.60367199658203,167.11322021484375,20.35677899658203C167.11322021484375,14.109884696582032,172.21209051484374,9.045783996582031,178.50184721484374,9.045783996582031C184.79160521484374,9.045783996582031,189.89047421484375,14.109884696582032,189.89045721484376,20.356768996582034C189.88375621484374,26.600898996582032,184.78882021484375,31.661103996582032,178.50182921484375,31.667767996582032ZM178.50182921484375,12.52817649658203C174.14814231484374,12.526508096582031,170.61757751484376,16.03075839658203,170.61646361484375,20.35476899658203C170.61590721484376,24.67932299658203,174.14509871484375,28.18537099658203,178.49878521484374,28.18537099658203C182.85191521484376,28.18593399658203,186.38110721484375,24.680787996582033,186.38110721484375,20.35677899658203C186.36775921484374,16.03985639658203,182.84838921484376,12.543117296582032,178.50182921484375,12.52817649658203Z" fill="#423F40" fill-opacity="1"/></g><g><path d="M44.122205390625,24.431143490234376C42.723857390625,26.882549490234375,40.095292390625,28.386243490234374,37.258618390625,28.357522490234373C32.894751090625,28.357522490234373,29.351963290625,25.216421490234374,29.351963290625,20.341665490234377C29.351963290625,15.466908490234374,32.903874390625,12.322792490234376,37.258618390625,12.322792490234376C41.613364390625,12.322792490234376,45.165271390625,15.693439990234374,45.165271390625,20.341665490234377C45.163322390625,20.710351490234373,45.137928390625,21.078552490234372,45.089246390625,21.444069490234376L48.583377390625,21.444069490234376C48.619869390625,21.081630490234375,48.641159390625,20.713154490234373,48.641159390625,20.341665490234377C48.673277390625,12.206950690234375,40.335870390625004,6.677916090234374,32.783125890625,9.825239780234375C25.230381190625,12.972568490234375,23.361259190625,22.754793490234377,29.227990390625,28.431381490234376C35.094720790625004,34.107969490234375,44.891950390625,31.996889490234373,47.862657390625,24.416037490234373L44.122205390625,24.431143490234376Z" fill="#423F40" fill-opacity="1"/></g><g><rect x="29.15728759765625" y="18.484195709228516" width="18.237003326416016" height="2.971967935562134" rx="0" fill="#423F40" fill-opacity="1"/></g><g><path d="M103.4281733828125,24.431146212890624C102.0307793828125,26.883512212890626,99.4016053828125,28.387558212890625,96.5645873828125,28.357528212890625C92.2007207828125,28.357528212890625,88.6579332828125,25.216425212890623,88.6579332828125,20.341668212890625C88.6579332828125,15.466911312890625,92.2068085828125,12.322794412890625,96.5645873828125,12.322794412890625C100.9223663828125,12.322794412890625,104.4712433828125,15.693442312890625,104.4712433828125,20.341668212890625C104.46773538281249,20.710300212890623,104.44234438281251,21.078408212890626,104.39521638281249,21.444073212890626L107.8893473828125,21.444073212890626C107.9258383828125,21.081634212890627,107.9440823828125,20.713158212890626,107.9440823828125,20.341668212890625C107.9692993828125,12.213819512890625,99.6346383828125,6.696144112890625,92.0906920828125,9.846482572890626C84.5467454828125,12.996820912890625,82.6862823828125,22.771959212890625,88.5519039828125,28.439800212890624C94.4175262828125,34.10765221289063,104.20495838281249,31.992222212890624,107.1686263828125,24.416040212890625L103.4281733828125,24.431146212890624Z" fill="#423F40" fill-opacity="1"/></g><g><rect x="88.46636962890625" y="18.484195709228516" width="18.237003326416016" height="2.971967935562134" rx="0" fill="#423F40" fill-opacity="1"/></g><g><path d="M12.796618,14.491365C7.9796419,13.373854,5.1606131,12.346956,4.7896085,9.2269983C4.2239785,4.454936,9.4849453,3.3162844,12.100226,3.3162844C16.801647,3.3162844,19.608507,5.7476206,19.608507,9.5350657L23.117844,9.5350657C23.117844,3.7421465,18.793512,0,12.100226,0C7.2741246,0,0.59604216,2.2622006,1.2924364,9.4655952C1.8550247,15.30684,7.4170532,16.638788,11.999871,17.701927C16.84726,18.825478,20.107235,19.662096,20.107235,22.836426C20.107235,27.348742,15.673426,28.475315,12.681062,28.511557C9.9441423,28.544777,3.509341,27.907499,3.509341,22.22633L0,22.22633C0,29.426706,6.6628785,32.105701,12.678018,31.993954C16.664797,31.921469,23.747334,29.958281,23.601366,22.540443C23.473642,16.675039,17.391602,15.54243,12.796618,14.491365Z" fill="#423F40" fill-opacity="1"/></g><g><path d="M221.6114073203125,31.66775873779297C215.3216495203125,31.66776673779297,210.2227783203125,26.60366273779297,210.2227783203125,20.35676773779297C210.2227783203125,14.109874737792968,215.3216495203125,9.045773346393569,221.6114073203125,9.045768737792969C228.1192013203125,9.045768737792969,231.74409332031252,14.11985633779297,231.74409332031252,20.35676773779297C231.74409332031252,26.593679737792968,228.1344013203125,31.66775873779297,221.6114073203125,31.66775873779297ZM221.6114073203125,12.528165837792969C217.2577205203125,12.526487837792969,213.7271361203125,16.03072023779297,213.7260036203125,20.35473073779297C213.7254469203125,24.679302737792966,217.2546577203125,28.185359737792968,221.6083443203125,28.185359737792968C225.9614743203125,28.185922737792968,229.4906673203125,24.68077873779297,229.4906843203125,20.35676773779297C229.4873443203125,16.03570743779297,225.9621253203125,12.53316143779297,221.6114073203125,12.528165837792969Z" fill="#423F40" fill-opacity="1"/></g><g><rect x="229.49066162109375" y="0.776214599609375" width="3.509338617324829" height="30.480791091918945" rx="0" fill="#423F40" fill-opacity="1"/></g><g><rect x="227.94281005859375" y="27.499771118164062" width="2.438899040222168" height="0.9574328064918518" rx="0" fill="#423F40" fill-opacity="1"/></g><g><rect x="227.94281005859375" y="12.253326416015625" width="2.438899040222168" height="0.9574328064918518" rx="0" fill="#423F40" fill-opacity="1"/></g></g><g><path d="M8.5820007,42.1440001L8.5820007,46.3579998L6.1460004,46.3579998L6.1460004,42.1440001L8.5820007,42.1440001ZM9.2960005,46.3579998L9.2960005,42.1440001L11.788,42.1440001L11.788,46.3579998L9.2960005,46.3579998ZM4.6760001,46.3999996C4.2420001,46.6520004,3.7940001,46.8899994,3.332,47.114000000000004L3.332,43.9919996L4.6760001,43.9919996L4.6760001,43.25L3.332,43.25L3.332,40.6459999L2.576,40.6459999L2.576,43.25L0.85400003,43.25L0.85400003,43.9919996L2.576,43.9919996L2.576,47.45C1.9740001,47.688,1.3440001,47.897999999999996,0.70000005,48.08L0.88200003,48.808C1.442,48.625999,2.016,48.416,2.576,48.177999L2.576,52.07C2.576,52.434,2.3940001,52.63,2.0440001,52.63C1.6800001,52.63,1.316,52.602000000000004,0.92400002,52.574L1.092,53.302L2.3100002,53.302C2.9820001,53.302,3.332,52.952,3.332,52.252L3.332,47.842C3.7800002,47.632,4.2280002,47.408,4.6760001,47.156L4.6760001,46.3999996ZM12.516001,41.4019995L5.4040003,41.4019995L5.4040003,51.944C5.4040003,52.658,5.796,53.021999,6.6080003,53.021999L11.606,53.021999C12.292001,53.007999,12.754001,52.7,12.992001,52.084C13.146001,51.664,13.258,50.964,13.328,50.012L12.614,49.788C12.544001,50.824,12.446,51.482,12.306001,51.775999999999996C12.138,52.112,11.83,52.294,11.410001,52.308L6.8600001,52.308C6.3840003,52.294,6.1460004,52.098,6.1460004,51.706L6.1460004,47.072001L12.516001,47.072001L12.516001,41.4019995ZM20.598,42.5780001L29.810001,42.5780001L29.810001,41.8359995L21.004,41.8359995C21.200001,41.4720001,21.382,41.0799999,21.549999,40.6879997L20.794001,40.5199995C20.052,42.2699995,19.044001,43.7119999,17.77,44.8599997L18.274,45.448C19.156,44.6359997,19.926001,43.6700001,20.598,42.5780001ZM22.838001,48.36L22.488001,48.878C23.440001,49.228,24.364,49.704,25.274,50.32L25.638,49.76C24.798,49.2,23.874001,48.738,22.838001,48.36ZM19.436001,51.314L27.653999,51.314C27.625999,51.622,27.584,51.804,27.556,51.888C27.416,52.252,27.206001,52.476,26.898001,52.574C26.618,52.644,26.296001,52.686,25.931999,52.686C25.428001,52.686,24.854,52.672,24.238001,52.658L24.462,53.358000000000004L26.030001,53.358000000000004C26.702,53.358000000000004,27.220001,53.260000000000005,27.57,53.077999C27.92,52.854,28.158001,52.532,28.284,52.098C28.312,51.986000000000004,28.354,51.72,28.396,51.314L30.062,51.314L30.062,50.6L28.452,50.6C28.493999,49.927999,28.535999,49.032,28.591999,47.912L30.426001,47.912L30.426001,47.184L28.619999,47.184C28.648001,46.232000400000004,28.690001,45.1539993,28.718,43.9359999L20.205999,43.9359999C20.177999,45.0419998,20.108,46.119999899999996,20.01,47.184L17.601999,47.184L17.601999,47.912L19.940001,47.912C19.813999,49.073999,19.646,50.208,19.436001,51.314ZM27.709999,50.6L20.318001,50.6C20.458,49.788,20.584,48.891999999999996,20.695999,47.912L27.85,47.912C27.794001,49.032,27.752001,49.927999,27.709999,50.6ZM20.766001,47.184C20.822001,46.3859997,20.878,45.5459995,20.92,44.6499996L27.962,44.6499996C27.934,45.5739994,27.906,46.4139996,27.878,47.184L20.766001,47.184ZM22.964001,45.0699997L22.614,45.5879993C23.552,45.9379997,24.462,46.4139996,25.358,47.016L25.722,46.4699993C24.882,45.9099998,23.972,45.448,22.964001,45.0699997ZM34.728001,46.4839993L34.728001,47.24L47.257999,47.24L47.257999,46.4839993L34.728001,46.4839993ZM54.807999,40.5199995C54.122002,42.7319994,53.001999,44.7059999,51.462002,46.455999399999996L51.714001,47.254C52.316002,46.6099997,52.862,45.9379997,53.366001,45.224000000000004L53.366001,53.385999999999996L54.108002,53.385999999999996L54.108002,44.0339999C54.667999,43.0539999,55.130001,41.9899998,55.507999,40.8559999L54.807999,40.5199995ZM57.146,41.4019995C56.824001,43.3059998,56.222,44.9299998,55.34,46.2600002L55.816002,46.8759995C56.334,46.1339998,56.768002,45.2939997,57.132,44.369999899999996L59.736,44.369999899999996L59.736,47.996L55.493999,47.996L55.493999,48.738L59.736,48.738L59.736,53.316L60.492001,53.316L60.492001,48.738L64.328003,48.738L64.328003,47.996L60.492001,47.996L60.492001,44.369999899999996L63.810001,44.369999899999996L63.810001,43.6139994L60.492001,43.6139994L60.492001,40.618L59.736,40.618L59.736,43.6139994L57.383999,43.6139994C57.580002,42.9419994,57.748001,42.2419996,57.888,41.4860001L57.146,41.4019995ZM77.267998,40.5899992L77.267998,46.9039993L75.181999,46.9039993L75.181999,53.316L75.882004,53.316L75.882004,52.63L79.998001,52.63L79.998001,53.316L80.725998,53.316L80.725998,46.9039993L78.010002,46.9039993L78.010002,43.9499998L81.342003,43.9499998L81.342003,43.2220001L78.010002,43.2220001L78.010002,40.5899992L77.267998,40.5899992ZM75.882004,51.902L75.882004,47.618L79.998001,47.618L79.998001,51.902L75.882004,51.902ZM74.117996,41.205999399999996L69.302002,41.205999399999996L69.302002,49.872L70.001999,49.872L70.001999,41.9200001L73.431999,41.9200001L73.431999,49.872L74.117996,49.872L74.117996,41.205999399999996ZM71.374001,42.9839993L71.374001,47.618C71.346001,48.92,71.150002,49.984,70.786003,50.796C70.365997,51.594,69.652,52.224000000000004,68.671997,52.672L69.092003,53.316C70.127998,52.84,70.870003,52.168,71.332001,51.314C71.779999,50.39,72.017998,49.158,72.045998,47.618L72.045998,42.9839993L71.374001,42.9839993ZM72.508003,50.348L72.003998,50.824C72.844002,51.692,73.501999,52.532,73.991997,53.316L74.538002,52.784C73.977997,51.972,73.306,51.16,72.508003,50.348ZM91.160004,40.4499998C91.048004,40.9259996,90.893997,41.3879995,90.683998,41.8359995L87.912003,41.8359995L87.912003,48.444L86.162003,48.444L86.162003,49.172L94.674004,49.172L94.225998,49.536C92.587997,50.782,89.928001,51.734,86.246002,52.391999999999996L86.596001,53.077999C89.564003,52.546,91.986,51.72,93.862,50.6C94.211998,50.375999,94.561996,50.124,94.926003,49.844L94.926003,52.112C94.926003,52.504,94.758003,52.7,94.449997,52.7L92.980003,52.658L93.176003,53.385999999999996L94.688004,53.385999999999996C95.346001,53.385999999999996,95.681999,53.007999,95.681999,52.266L95.681999,49.2C96.662003,48.275999999999996,97.501999,47.156,98.174004,45.8400002L97.529999,45.434C97.124001,46.4139996,96.508003,47.337998999999996,95.681999,48.219999L95.681999,41.8359995L91.482002,41.8359995C91.678001,41.4439993,91.846001,41.0099993,91.958,40.5619993L91.160004,40.4499998ZM88.653999,48.444L88.653999,46.8339996L94.926003,46.8339996L94.926003,48.444L88.653999,48.444ZM88.653999,46.1619997L88.653999,44.7059999L94.926003,44.7059999L94.926003,46.1619997L88.653999,46.1619997ZM88.653999,44.0479999L88.653999,42.5359993L94.926003,42.5359993L94.926003,44.0479999L88.653999,44.0479999ZM109.126,43.571999500000004C109.77,47.66,111.674,50.824,114.81,53.091999L115.286,52.336C113.648,51.230000000000004,112.374,49.844,111.45,48.191998999999996C112.57,47.646,113.564,46.8059998,114.46,45.6859999L113.914,45.1539993C113.018,46.2740002,112.094,47.086,111.128,47.59C110.526,46.3859997,110.106,45.0559998,109.868,43.571999500000004L114.964,43.571999500000004L114.964,42.8299999L109.532,42.8299999C109.238,41.9899998,108.93,41.2339993,108.594,40.5759993L107.796,40.7159996C108.16,41.3459997,108.482,42.0459995,108.776,42.8299999L103.036,42.8299999L103.036,43.571999500000004L108.132,43.571999500000004C107.04,45.8400002,105.234,47.674,102.742,49.102000000000004L103.134,49.746C104.086,49.172,104.954,48.542,105.738,47.856L105.738,52.084C105.738,52.28,105.612,52.42,105.388,52.518L105.542,53.232C107.432,52.756001,109.056,52.252,110.4,51.72L110.26,50.936C109.098,51.44,107.838,51.874,106.494,52.238L106.494,47.128C107.502,46.0639992,108.314,44.888,108.902,43.571999500000004L109.126,43.571999500000004ZM126.14,40.5899992C125.748,42.7179995,125.09,44.3419995,124.166,45.4899998L124.726,45.9659996C125.216,45.3500004,125.65,44.5939999,126.028,43.6700001L127.218,43.6700001C126.686,46.4979992,125.678,48.542,124.18,49.83L124.67,50.39C126.266,48.99,127.344,46.75,127.904,43.6700001L129.192,43.6700001C128.92599,45.9099998,128.506,47.716,127.918,49.059999C127.33,50.375999,126.448,51.566,125.258,52.644L125.734,53.232C126.994,52.084,127.946,50.782,128.59,49.326C129.14999,47.954,129.584,46.0779991,129.892,43.6700001L131.082,43.6700001C131.054,47.799999,130.998,50.292,130.89999,51.16C130.75999,52.112,130.228,52.588,129.31799,52.588C128.996,52.588,128.618,52.574,128.18401,52.546L128.35201,53.232C128.856,53.260000000000005,129.192,53.274,129.388,53.274C130.718,53.274,131.46001,52.644,131.614,51.384C131.74001,50.306,131.81,47.492000000000004,131.81,42.9419994L126.294,42.9419994C126.518,42.2979994,126.7,41.5699997,126.868,40.7719994L126.14,40.5899992ZM120.89,44.3419995L122.22,44.3419995L122.22,48.36C121.408,48.696,120.568,48.976,119.714,49.2L119.896,49.941998999999996C120.68,49.69,121.464,49.396,122.22,49.073999L122.22,53.358000000000004L122.976,53.358000000000004L122.976,48.724000000000004C123.382,48.528,123.788,48.318,124.208,48.094L124.208,47.379999C123.802,47.604,123.396,47.813999,122.976,48.01L122.976,44.3419995L124.264,44.3419995L124.264,43.6139994L122.976,43.6139994L122.976,40.618L122.22,40.618L122.22,43.6139994L121.044,43.6139994C121.156,42.9699993,121.24,42.3119993,121.268,41.6259995L120.582,41.5839996C120.498,43.2360001,120.162,44.8039999,119.56,46.2880001L120.218,46.4699993C120.498,45.7840004,120.722,45.0699997,120.89,44.3419995ZM145.32401,45.2099991C145.492,46.96,145.89799,48.528,146.54201,49.927999C145.92599,51.132,145.10001,52.07,144.05,52.756001L144.498,53.33C145.492,52.658,146.304,51.775999999999996,146.93401,50.684C147.466,51.664,148.12399,52.546,148.936,53.33L149.45399,52.826C148.586,52,147.87199,51.048,147.312,49.955999C148.09601,48.262,148.502,46.1339998,148.53,43.571999500000004L149.23,43.571999500000004L149.23,42.8579998L146.12199,42.8579998C146.276,42.2279997,146.416,41.5559998,146.528,40.8280001L145.814,40.7019997C145.506,42.9980001,144.90401,44.8319998,144.008,46.1900005L144.45599,46.7360001C144.76401,46.2880001,145.058,45.7700005,145.32401,45.2099991ZM146.90601,49.102000000000004C146.276,47.604,145.912,45.882,145.814,43.9219999C145.842,43.8099995,145.884,43.684,145.92599,43.571999500000004L147.83,43.571999500000004C147.81599,45.7419996,147.508,47.59,146.90601,49.102000000000004ZM139.45801,40.6459999C138.856,42.802,137.87601,44.7339997,136.532,46.4419994L136.784,47.24C137.31599,46.5959997,137.82001,45.923999800000004,138.26801,45.2099991L138.26801,53.385999999999996L138.996,53.385999999999996L138.996,43.8940001C139.444,42.9699993,139.82201,41.9899998,140.13,40.9539995L139.45801,40.6459999ZM144.078,46.974000000000004L142.552,46.974000000000004L142.552,44.019999999999996L144.414,44.019999999999996L144.414,43.3199997L142.552,43.3199997L142.552,40.7719994L141.82401,40.7719994L141.82401,43.3199997L139.92,43.3199997L139.92,44.019999999999996L141.82401,44.019999999999996L141.82401,46.974000000000004L140.284,46.974000000000004L140.284,52.644L141.01199,52.644L141.01199,51.692L144.078,51.692L144.078,46.974000000000004ZM141.01199,51.006L141.01199,47.66L143.364,47.66L143.364,51.006L141.01199,51.006ZM160.882,51.272C159.90201,51.496,158.88,51.692,157.84399,51.86L157.84399,49.059999L160.504,49.059999L160.504,48.332L157.84399,48.332L157.84399,46.5819998L157.088,46.5819998L157.088,48.332L154.25999,48.332L154.25999,49.059999L157.088,49.059999L157.088,51.986000000000004C155.996,52.153999999999996,154.89,52.308,153.756,52.42L153.938,53.148001C156.42999,52.854,158.74001,52.476,160.882,52.028L160.882,51.272ZM153.924,41.29L153.924,42.017999599999996L156.37399,42.017999599999996C155.548,43.7119999,154.79201,44.8599997,154.106,45.4619999C154.036,45.4899998,153.938,45.5039997,153.812,45.5319996L153.98,46.2180004C156.12199,46.0219994,158.09599,45.7700005,159.888,45.4619999C160.112,45.8540001,160.308,46.232000400000004,160.504,46.5959997L161.12,46.1619997C160.616,45.2099991,159.90201,44.0759997,158.95,42.7880001L158.362,43.1519995C158.782,43.7539997,159.174,44.3279996,159.524,44.8739996C158.15199,45.111999499999996,156.65401,45.3079996,155.058,45.4619999C155.73,44.7199998,156.42999,43.571999500000004,157.158,42.017999599999996L160.826,42.017999599999996L160.826,41.29L153.924,41.29ZM164.564,53.232C165.34801,53.232,165.74001,52.84,165.74001,52.07L165.74001,40.6459999L164.97,40.6459999L164.97,51.874C164.97,52.322,164.746,52.56,164.298,52.56C163.68201,52.56,163.024,52.532,162.35201,52.504L162.52,53.232L164.564,53.232ZM162.086,41.9060001L162.086,50.614000000000004L162.828,50.614000000000004L162.828,41.9060001L162.086,41.9060001ZM173.71001,46.0639992C174.13,46.638000500000004,174.634,47.408,175.20801,48.374L175.642,47.716C174.998,46.8059998,174.354,45.9799995,173.71001,45.2379999L173.71001,44.1599998L175.48801,44.1599998L175.48801,43.4179993L173.71001,43.4179993L173.71001,40.6040001L172.968,40.6040001L172.968,43.4179993L170.826,43.4179993L170.826,44.1599998L172.89799,44.1599998C172.45,46.0079994,171.694,47.66,170.616,49.116L170.938,49.914C171.806,48.653999,172.478,47.24,172.968,45.6719999L172.968,53.316L173.71001,53.316L173.71001,46.0639992ZM176.916,41.9759998L176.916,43.46C176.888,47.730000000000004,176.048,50.838,174.424,52.769999999999996L175.01199,53.274C176.37,51.635999999999996,177.21001,49.242000000000004,177.51801,46.1059999C177.966,47.730000000000004,178.67999,49.172,179.66,50.432C178.84801,51.3,177.826,52.042,176.59399,52.644L177.01401,53.33C178.25999,52.714,179.31,51.958,180.164,51.034C180.92,51.888,181.81599,52.644,182.85201,53.316L183.328,52.672C182.306,52.028,181.41,51.286,180.65401,50.46C181.70399,49.13,182.37601,47.492000000000004,182.67,45.5459995L182.67,45.0979996L180.752,45.0979996C181.032,44.1739998,181.326,43.04,181.634,41.724000000000004L181.634,41.2339993L175.20801,41.2339993L175.20801,41.9759998L176.916,41.9759998ZM180.136,49.858000000000004C178.79199,48.191998999999996,177.966,46.2040005,177.644,43.880000100000004C177.644,43.7399998,177.658,43.5999994,177.658,43.46L177.658,41.9759998L180.82201,41.9759998C180.45801,43.6560001,180.136,44.9159999,179.828,45.7840004L181.914,45.7840004C181.634,47.351999,181.032,48.71,180.136,49.858000000000004ZM195.834,43.5579996L198.354,43.5579996C198.312,45.6299992,197.92,47.45,197.192,48.99C196.534,47.730000000000004,196.002,46.2040005,195.61,44.4399996C195.67999,44.1599998,195.75,43.8660002,195.834,43.5579996ZM196.814,49.704C196.058,50.964,195.036,52,193.72,52.812L194.112,53.455999C195.37199,52.644,196.408,51.622,197.20599,50.39C197.976,51.635999999999996,198.89999,52.616,199.992,53.344L200.412,52.714C199.32001,52.013999999999996,198.382,51.019999999999996,197.59801,49.718C198.522,48.038,199.01199,45.9799995,199.06799,43.5579996L200.09,43.5579996L200.09,42.816L195.98801,42.816C196.114,42.158,196.226,41.4579992,196.32401,40.7159996L195.62399,40.5759993C195.28799,43.3759995,194.658,45.6019993,193.73399,47.24L194.21001,47.828C194.588,47.198,194.924,46.455999399999996,195.23199,45.6159992C195.65201,47.17,196.17,48.528,196.814,49.704ZM193.50999,51.09C192.71201,51.314,191.89999,51.51,191.06,51.692L191.06,49.046L193.174,49.046L193.174,48.318L191.06,48.318L191.06,46.4279995L190.31799,46.4279995L190.31799,48.318L188.134,48.318L188.134,49.046L190.31799,49.046L190.31799,51.832C189.478,51.986000000000004,188.61,52.126,187.728,52.238L187.896,52.966C189.912,52.672,191.774,52.294,193.50999,51.832L193.50999,51.09ZM187.686,41.2620001L187.686,41.9899998L190.192,41.9899998C189.31,43.7819996,188.59599,44.888,188.064,45.2939997C188.022,45.3079996,187.966,45.3360004,187.896,45.3640003L188.064,46.0359993C189.716,45.923999800000004,191.256,45.7700005,192.65601,45.6019993C192.76801,45.882,192.894,46.1900005,193.006,46.4979992L193.664,46.2040005C193.244,45.0979996,192.754,44.0619998,192.194,43.0959997L191.536,43.3199997C191.81599,43.8239994,192.09599,44.369999899999996,192.37601,44.971999600000004C191.256,45.1259995,190.136,45.2519999,188.98801,45.3360004C189.52,44.7199998,190.17799,43.6139994,190.93401,41.9899998L193.608,41.9899998L193.608,41.2620001L187.686,41.2620001ZM211.028,40.5199995L210.202,40.6599998C210.384,41.0099993,210.552,41.4019995,210.70599,41.8359995L204.84,41.8359995L204.84,42.5640001L217.146,42.5640001L217.146,41.8359995L211.504,41.8359995C211.35001,41.3459997,211.196,40.9119997,211.028,40.5199995ZM214.93401,53.33C215.886,53.33,216.362,52.91,216.362,52.07L216.362,47.212L205.638,47.212L205.638,53.358000000000004L206.35201,53.358000000000004L206.35201,47.897999999999996L215.64799,47.897999999999996L215.64799,51.916C215.64799,52.42,215.326,52.672,214.696,52.672L213.562,52.644L213.744,53.33L214.93401,53.33ZM207.20599,43.6420002L207.20599,46.2180004L214.808,46.2180004L214.808,43.6420002L207.20599,43.6420002ZM214.08,45.6019993L207.93401,45.6019993L207.93401,44.2579999L214.08,44.2579999L214.08,45.6019993ZM208.34,48.948L208.34,51.65L213.688,51.65L213.688,48.948L208.34,48.948ZM212.98801,51.048L209.026,51.048L209.026,49.564L212.98801,49.564L212.98801,51.048ZM222.134,43.2639999C222.092,44.6219997,221.924,45.9099998,221.616,47.141999999999996L222.246,47.309999C222.53999,46.0499992,222.70799,44.7199998,222.75,43.3199997L222.134,43.2639999ZM225.41,43.0120001L224.836,43.1939993C225.172,43.9779997,225.452,44.79,225.67599,45.6299992L226.29201,45.4759998C226.026,44.5519996,225.73199,43.7259998,225.41,43.0120001ZM223.688,40.632L223.688,53.316L224.444,53.316L224.444,40.632L223.688,40.632ZM227.64999,44.0899997L230.07201,44.0899997L230.07201,47.688L226.782,47.688L226.782,48.43L230.07201,48.43L230.07201,52.182L225.97,52.182L225.97,52.924L234.356,52.924L234.356,52.182L230.828,52.182L230.828,48.43L233.74001,48.43L233.74001,47.688L230.828,47.688L230.828,44.0899997L233.992,44.0899997L233.992,43.3479996L230.828,43.3479996L230.828,40.6459999L230.07201,40.6459999L230.07201,43.3479996L227.804,43.3479996C227.90201,42.7599993,227.95801,42.158,227.98599,41.5139999L227.286,41.4299994C227.202,43.3199997,226.754,45.0139999,225.92799,46.5119991L226.502,47.016C227.006,46.119999899999996,227.39799,45.1539993,227.64999,44.0899997ZM240.478,45.0279999L240.478,53.358000000000004L241.23399,53.358000000000004L241.23399,43.7119999C241.68201,42.8579998,242.06,41.934,242.368,40.9539995L241.668,40.632C241.03799,42.7599993,240.002,44.678,238.57401,46.3719997L238.812,47.17C239.42799,46.4979992,239.974,45.7840004,240.478,45.0279999ZM248.08,45.4759998L248.08,53.232L248.82201,53.232L248.82201,45.4759998L248.08,45.4759998ZM244.412,45.517999599999996L244.412,47.646C244.384,50.04,243.754,51.79,242.494,52.882L243.06799,53.385999999999996C244.42599,52.168,245.12601,50.25,245.15401,47.646L245.15401,45.517999599999996L244.412,45.517999599999996ZM246.218,40.6459999C245.168,42.7880001,243.698,44.5239997,241.79401,45.868L242.214,46.5119991C243.95,45.3079996,245.392,43.6139994,246.53999,41.4019995C247.534,43.361999499999996,249.032,45.0139999,251.048,46.3439999L251.468,45.6999998C249.312,44.244,247.772,42.5640001,246.87601,40.6459999L246.218,40.6459999ZM263.27399,46.1059999C264.772,45.6859999,266.34,45.0699997,267.96399,44.2299995L267.53,43.6139994C266.13,44.3839998,264.702,44.971999600000004,263.27399,45.3640003L263.27399,40.7719994L262.53201,40.7719994L262.53201,51.72C262.53201,52.56,262.93799,52.980000000000004,263.75,52.980000000000004L266.34,52.980000000000004C266.84399,52.966,267.22198,52.826,267.48801,52.546C267.78201,52.182,267.978,51.230000000000004,268.09,49.676L267.37601,49.438C267.306,50.88,267.138,51.734,266.88599,52C266.70401,52.153999999999996,266.452,52.238,266.14401,52.238L263.95999,52.238C263.49799,52.238,263.27399,52.013999999999996,263.27399,51.594L263.27399,46.1059999ZM256.84799,53.148001C258.556,52.784,260.15201,52.35,261.64999,51.86L261.45401,51.132C260.20801,51.566,258.948,51.93,257.67401,52.21L257.67401,45.6299992L261.34201,45.6299992L261.34201,44.8739996L257.67401,44.8739996L257.67401,40.869999899999996L256.90399,40.869999899999996L256.90399,52C256.90399,52.196,256.806,52.336,256.60999,52.448L256.84799,53.148001Z" fill="#423F40" fill-opacity="1"/></g></g></svg>