<svg xmlns="http://www.w3.org/2000/svg" xmlns:xlink="http://www.w3.org/1999/xlink" fill="none" version="1.1" width="14" height="14" viewBox="0 0 14 14"><defs><clipPath id="master_svg0_6_9956"><rect x="0" y="0" width="14" height="14" rx="0"/></clipPath></defs><g clip-path="url(#master_svg0_6_9956)"><g><path d="M6.9494058984375,0.8350830078125C3.5498258984375,0.8350830078125,0.7845458984375,3.6003630078125,0.7845458984375,6.9999430078125C0.7845458984375,10.3989730078125,3.5498258984375,13.1648830078125,6.9494058984375,13.1648830078125C10.3484358984375,13.1648830078125,13.1142458984375,10.3989730078125,13.1142458984375,6.9999430078125C13.1142458984375,3.6003630078125,10.3484358984375,0.8350830078125,6.9494058984375,0.8350830078125ZM6.9494058984375,12.2995830078125C4.0269558984375,12.2995830078125,1.6498028984375002,9.9218330078125,1.6498028984375002,6.9999430078125C1.6498028984375002,4.0774930078125,4.026975898437501,1.7003260078125,6.9494058984375,1.7003260078125C9.8713158984375,1.7003260078125,12.2490458984375,4.0774930078125,12.2490458984375,6.9999430078125C12.2490458984375,9.9218430078125,9.8713058984375,12.2995830078125,6.9494058984375,12.2995830078125Z" fill="#0064FF" fill-opacity="1"/></g><g><path d="M4.2814929140625,6.1888427734375C3.8336709140625,6.1888427734375,3.4703369140625,6.5516167734375,3.4703369140625,6.9999987734375C3.4703369140625,7.4478527734375,3.8336709140625,7.8111827734374994,4.2814929140625,7.8111827734374994C4.7293269140625,7.8111827734374994,5.0926669140625,7.4478527734375,5.0926669140625,6.9999987734375C5.0926669140625,6.5516027734375,4.7293269140625,6.1888427734375,4.2814929140625,6.1888427734375Z" fill="#0064FF" fill-opacity="1"/></g><g><path d="M6.94933959375,6.1888427734375C6.50151759375,6.1888427734375,6.13818359375,6.5516167734375,6.13818359375,6.9999987734375C6.13818359375,7.4478527734375,6.50151759375,7.8111827734374994,6.94933959375,7.8111827734374994C7.39717359375,7.8111827734374994,7.76051359375,7.4478527734375,7.76051359375,6.9999987734375C7.76051359375,6.5516027734375,7.39717359375,6.1888427734375,6.94933959375,6.1888427734375Z" fill="#0064FF" fill-opacity="1"/></g><g><path d="M9.6171862734375,6.1888427734375C9.1693502734375,6.1888427734375,8.8060302734375,6.5516167734375,8.8060302734375,6.9999987734375C8.8060302734375,7.4478527734375,9.1693642734375,7.8111827734374994,9.6171862734375,7.8111827734374994C10.0650102734375,7.8111827734374994,10.4283402734375,7.4478527734375,10.4283402734375,6.9999987734375C10.4283602734375,6.5516027734375,10.0650102734375,6.1888427734375,9.6171862734375,6.1888427734375Z" fill="#0064FF" fill-opacity="1"/></g></g></svg>