<svg xmlns="http://www.w3.org/2000/svg" xmlns:xlink="http://www.w3.org/1999/xlink" fill="none" version="1.1" width="4" height="7" viewBox="0 0 4 7"><g transform="matrix(0,1,1,0,0,0)"><path d="M3.8535533,3.8535533L6.8531017,0.85400444L6.8535528,0.8535533799999999Q6.9238787,0.78322726,6.9619389,0.69134173Q6.9999995,0.599456184,6.9999995,0.5Q6.9999995,0.40054372,6.9619393,0.30865811Q6.9238791,0.21677249999999998,6.8535533,0.14644632000000002Q6.783227,0.07612032000000002,6.6913409,0.038060189999999994Q6.5994549,2.9999999984209325e-8,6.499999,2.9999999984209325e-8Q6.4005432,6.00000000239298e-8,6.3086576,0.03806028Q6.2167726,0.07612047,6.1464467,0.14644656L6.1462593,0.14663416L3.5,2.7928934L0.8536129299999999,0.14650616L0.8535533799999999,0.14644662000000003Q0.78322726,0.07612047,0.69134173,0.03806025000000002Q0.599456184,0,0.5,0Q0.400543816,0,0.30865827,0.03806021999999998Q0.21677274000000002,0.07612047,0.14644662000000003,0.14644662000000003Q0.07612047,0.21677274000000002,0.03806025000000002,0.30865827Q0,0.400543816,0,0.5Q0,0.599456184,0.03806021999999998,0.69134173Q0.07612047,0.78322726,0.14644662000000003,0.8535533799999999L0.14650616,0.8536129299999999L3.1464467,3.8535533Q3.2167726,3.9238794,3.3086581,3.9619396Q3.4005437,3.9999998,3.4999998,3.9999998Q3.5994558,3.9999998,3.6913414,3.9619396Q3.7832272,3.9238794,3.8535533,3.8535533Z" fill-rule="evenodd" fill="#666666" fill-opacity="1"/></g></svg>