<svg xmlns="http://www.w3.org/2000/svg" xmlns:xlink="http://www.w3.org/1999/xlink" fill="none" version="1.1" width="16" height="16" viewBox="0 0 16 16"><g><path d="M8,0C3.5839999,0,0,3.5839999,0,8C0,12.415999,3.5839999,16,8,16C12.415999,16,16,12.415999,16,8C16,3.5840001,12.415999,0,8,0ZM7.0320001,11.248C7.0344849,11.637833,6.717833,11.954485,6.3279996,11.952001C5.9381661,11.954486,5.6215143,11.637833,5.6239996,11.248L5.6239996,4.744C5.6239996,4.3600001,5.9439993,4.04,6.3279996,4.04C6.7199998,4.04,7.0320001,4.3520002,7.0320001,4.744L7.0320001,11.248ZM10.375999,11.248C10.378484,11.637833,10.061832,11.954485,9.671999,11.952001C9.2821655,11.954486,8.9655142,11.637833,8.9679995,11.248L8.9679995,4.744C8.9868507,4.368927,9.2964535,4.0744953,9.671999,4.0744953C10.047545,4.0744953,10.357148,4.3689275,10.375999,4.744L10.375999,11.248Z" fill="#F9AE00" fill-opacity="1"/></g></svg>