<svg xmlns="http://www.w3.org/2000/svg" xmlns:xlink="http://www.w3.org/1999/xlink" fill="none" version="1.1" width="12" height="12" viewBox="0 0 12 12"><g><g><path d="M9.319795887893676,4.1999998C9.216533887893677,4.1984973,9.118035987893677,4.1553783,9.045756087893677,4.0800347L5.999999987893677,0.9689346L2.9542440778936765,4.0800347C2.880736227893677,4.1557379,2.780674187893677,4.1983194,2.6762894978936766,4.1983194C2.571904807893677,4.1983194,2.4718427778936767,4.1557379,2.398334917893677,4.0800347C2.2481742128936766,3.9218292,2.2481742128936766,3.670404,2.398334917893677,3.5121987L5.725960287893677,0.12117986C5.797001887893677,0.043860447,5.896189187893677,1.7758431e-16,5.999999987893677,0C6.103810987893677,-1.7758431e-16,6.202998387893677,0.043860447,6.274039787893677,0.12117986L9.601665287893677,3.5121987C9.751826087893676,3.670404,9.751826087893676,3.9218292,9.601665287893677,4.0800347C9.526979187893676,4.1565881,9.425601287893677,4.1997352,9.319795887893676,4.1999998Z" fill="#FFFFFF" fill-opacity="1"/></g><g><path d="M6,9.00000001328125C5.72385761,9.00000001328125,5.5,8.82480721328125,5.5,8.60869411328125L5.5,0.5000000032812499C5.5,0.28388858328125,5.72385761,0.10870361328125,6,0.10870361328125C6.27614236,0.10870361328125,6.5,0.28388858328125,6.5,0.5000000032812499L6.5,8.60869411328125C6.5,8.82480721328125,6.27614236,9.00000001328125,6,9.00000001328125Z" fill="#FFFFFF" fill-opacity="1"/></g><g><path d="M11.605782,11.9999514L0.39421815,11.9999514C0.17649747,11.9999514,0,11.8178296,0,11.5931716L0,7.60673082Q0.00065015757,7.57219052,0.00089721748,7.50075835C0.001851109,7.22496074,0.2192007,7,0.49499995,7Q0.49749997,7,0.49999997,7Q0.5025,7,0.505,7C0.78114235,7,1,7.22424498,1,7.50038737Q1,7.57192844,1,7.60675049L1,11L11,11L11,7.60675049Q11,7.57080519,11,7.49573362C11,7.2210997,11.222634,7,11.497269,7C11.774027,7,11.996043,7.22413957,11.99856,7.50088608Q11.999077,7.55770588,12,7.60673082L12,11.5931716C12,11.8178296,11.823503,11.9999514,11.605782,11.9999514L11.605782,11.9999514Z" fill="#FFFFFF" fill-opacity="1"/></g></g></svg>