<svg xmlns="http://www.w3.org/2000/svg" xmlns:xlink="http://www.w3.org/1999/xlink" fill="none" version="1.1" width="28" height="28" viewBox="0 0 28 28"><defs><mask id="master_svg0_2_17992" style="mask-type:alpha" maskUnits="objectBoundingBox"><g><path d="M0 4C2.452636981645965e-16 1.7908610006768262 1.7908610006768266 0 4 0L24 0C26.209138999323173 0 28 1.7908610006768266 28 4L28 24C28 26.209138999323173 26.209138999323173 28 24 28L4 28C1.7908610006768266 28 0 26.209138999323173 0 24Z" fill="#FFFFFF" fill-opacity="1"/></g></mask></defs><g mask="url(#master_svg0_2_17992)"><g><path d="M0 4C2.452636981645965e-16 1.7908610006768262 1.7908610006768266 0 4 0L24 0C26.209138999323173 0 28 1.7908610006768266 28 4L28 24C28 26.209138999323173 26.209138999323173 28 24 28L4 28C1.7908610006768266 28 0 26.209138999323173 0 24Z" fill="#D8D8D8" fill-opacity="1"/></g><g><g><rect x="0" y="0" width="28" height="27.999998092651367" rx="4" fill="#000000" fill-opacity="0.4000000059604645"/></g><g><path d="M14.34379,5C9.73564,5,6,8.73564,6,13.34379C6,17.951999999999998,9.73562,21.6876,14.34379,21.6876C18.951900000000002,21.6876,22.6876,17.951999999999998,22.6876,13.34379C22.6876,8.73566,18.951900000000002,5,14.34379,5ZM14.34379,20.8532C10.196449999999999,20.8532,6.834361,17.4911,6.834361,13.34377C6.834361,9.19647,10.196449999999999,5.834382,14.34379,5.834382C18.4911,5.834382,21.8532,9.19647,21.8532,13.34377C21.8532,17.4911,18.4911,20.8532,14.34379,20.8532ZM18.1313,12.75245C16.8328,11.86895,14.4783,10.54654,13.137640000000001,9.72715C12.58798,9.38053,12.12576,9.51973,12.08141,10.13194C12.04925,11.77169,12.08141,14.93554,12.08141,16.6037C12.109300000000001,17.2252,12.65724,17.3071,13.1328,17.0576C14.47196,16.246299999999998,16.773600000000002,14.85185,18.119500000000002,14.03638C18.110799999999998,14.03104,19.1415,13.46414,18.1313,12.75245Z" fill="#FFFFFF" fill-opacity="1" style="mix-blend-mode:passthrough"/></g></g></g></svg>