<svg xmlns="http://www.w3.org/2000/svg" xmlns:xlink="http://www.w3.org/1999/xlink" fill="none" version="1.1" width="16" height="16" viewBox="0 0 16 16"><defs><clipPath id="master_svg0_80_23939"><rect x="0" y="0" width="16" height="16" rx="0"/></clipPath></defs><g clip-path="url(#master_svg0_80_23939)"><g><path d="M12.639772265625,1.715011890625L11.797672265625,1.715011890625C11.564742265625,1.715011890625,11.295882265625,1.8562888906250001,11.295882265625,2.085887890625C11.295882265625,2.315487890625,11.564742265625,2.545067890625,11.797672265625,2.545067890625L12.639772265625,2.545067890625C13.141472265625,2.545067890625,13.481972265625,2.880677890625,13.481972265625,3.375127890625L13.481972265625,12.929437890625C13.481972265625,13.423837890625,13.141472265625,13.759437890625,12.639772265625,13.759437890625L3.573342265625,13.759437890625C3.071692265625,13.759437890625,2.5162382656249997,13.423837890625,2.5162382656249997,12.929437890625L2.516239265625,3.375117890625C2.516239265625,2.8806578906249998,2.856632265625,2.5450578906250003,3.358382265625,2.5450578906250003L4.415522265625,2.5450578906250003C4.648502265625,2.5450578906250003,4.738042265624999,2.315457890625,4.738042265624999,2.085873890625C4.738042265624999,1.8562888906250001,4.648492265625,1.714997890625,4.415522265625,1.714997890625L3.358382265625,1.714997890625C2.1758022656250002,1.714997890625,1.674072265625,2.4390778906249997,1.674072265625,3.392717890625L1.674072265625,12.841037890625C1.674072265625,13.865337890625,2.301190265625,14.589437890625,3.4479722656250003,14.589437890625L12.550172265625,14.589437890625C13.696972265625,14.589437890625,14.324072265625,13.988937890625,14.324072265625,12.841037890625L14.324072265625,3.392727890625C14.324072265625,2.439097890625,13.732872265625,1.715011890625,12.639772265625,1.715011890625ZM4.415522265625,5.459027890625C4.415522265625,5.688667890625,4.612612265625,5.882897890625,4.8455122656250005,5.882897890625L11.170512265625,5.882897890625C11.403432265625,5.882897890625,11.600582265625,5.688647890625,11.600582265625,5.459027890625C11.600582265625,5.229427890625,11.403432265625,5.035157890624999,11.170512265625,5.035157890624999L4.8455122656250005,5.035157890624999C4.612612265625,5.035137890625,4.415522265625,5.229427890625,4.415522265625,5.459027890625ZM11.152632265625,7.331027890625L4.8455122656250005,7.331027890625C4.612622265625,7.331027890625,4.415522265625,7.525317890625,4.415522265625,7.754957890625C4.415522265625,7.984507890625,4.612612265625,8.178747890625,4.8455122656250005,8.178747890625L11.170512265625,8.178747890625C11.403432265625,8.178747890625,11.600582265625,7.984507890625,11.600582265625,7.754957890625C11.582702265625,7.507667890625,11.385522265625,7.331027890625,11.152632265625,7.331027890625ZM11.152632265625,9.821157890625L4.8455122656250005,9.821157890625C4.612622265625,9.821157890625,4.415522265625,10.015437890625,4.415522265625,10.244987890625C4.415522265625,10.474587890625,4.612612265625,10.668817890625,4.8455122656250005,10.668817890625L11.170512265625,10.668817890625C11.403432265625,10.668817890625,11.600582265625,10.474577890625,11.600582265625,10.244987890625C11.582702265625,9.997787890625,11.385522265625,9.821157890625,11.152632265625,9.821157890625ZM6.547732265625,2.7569978906249997L9.486292265625,2.7569978906249997C9.826722265625,2.7569978906249997,10.113402265625,2.421477890625,10.113402265625,2.032918890625C10.113402265625,1.644442890625,9.826722265625,1.308837890625,9.468332265625001,1.308837890625L6.547732265625,1.3088379400277C6.189382265625,1.3088379400277,5.902742265625,1.644400890625,5.902742265625,2.032918890625C5.902742265625,2.421477890625,6.189382265625,2.7569978906249997,6.547732265625,2.7569978906249997Z" fill="#000000" fill-opacity="0.45098039507865906" style="mix-blend-mode:passthrough"/></g></g></svg>