<svg xmlns="http://www.w3.org/2000/svg" xmlns:xlink="http://www.w3.org/1999/xlink" fill="none" version="1.1" width="16" height="16" viewBox="0 0 16 16"><defs><clipPath id="master_svg0_253_13875"><rect x="0" y="0" width="16" height="16" rx="0"/></clipPath></defs><g clip-path="url(#master_svg0_253_13875)"><g><path d="M11.900111328125,12.959923046875L2.444111328125,12.959923046875C2.179014328125,12.959923046875,1.964111328125,12.745023046875,1.964111328125,12.479923046875L1.964111328125,2.1319570468749998C1.964111328125,1.866860046875,2.179014328125,1.651957244875,2.444111328125,1.651957244875L4.516111328125,1.651957244875C4.781211328125,1.651957244875,4.996111328125,1.866861046875,4.996111328125,2.1319570468749998C4.996111328125,2.397054046875,4.781211328125,2.611957046875,4.516111328125,2.611957046875L2.916111328125,2.611957046875L2.916111328125,11.999923046875L11.420111328125,11.999923046875L11.420111328125,2.611957046875L9.820111328125,2.611957046875C9.555011328125001,2.611957046875,9.340111328125001,2.397054046875,9.340111328125001,2.1319570468749998C9.340111328125001,1.866861046875,9.555011328125001,1.651957397875,9.820111328125,1.651957397875L11.892111328125,1.651957397875C12.168111328125,1.635831746875,12.400611328125,1.855529046875,12.400111328125,2.1319570468749998L12.400111328125,12.479923046875C12.400311328125,12.753023046875,12.173011328125,12.971323046875,11.900111328125,12.959923046875Z" fill="#0064FF" fill-opacity="1"/></g><g><path d="M13.535923828125,14.5599619140625L4.5159238281250005,14.5599619140625C4.250826828125,14.5599619140625,4.035924028125,14.3450619140625,4.035924028125,14.0799619140625C4.035924028125,13.8148619140625,4.250826828125,13.5999619140625,4.5159238281250005,13.5999619140625L13.055923828125,13.5999619140625L13.055923828125,4.2759619140625C13.055923828125,4.010861914062501,13.270823828125,3.7959619140625,13.535923828125,3.7959619140625C13.801023828125,3.7959619140625,14.015923828125,4.010861914062501,14.015923828125,4.2759619140625L14.015923828125,14.0799619140625C14.015923828125,14.3450619140625,13.801023828125,14.5599619140625,13.535923828125,14.5599619140625ZM8.331923828125,2.1959619140625L5.9999238281250005,2.1959619140625C5.734823828125,2.1959619140625,5.519923828125,1.9810589140625,5.519923828125,1.7159619140625C5.519923828125,1.4508649140625,5.734823828125,1.2359619903564,5.9999238281250005,1.2359619140625L8.319923828124999,1.2359619140625C8.585023828125,1.2359619903564,8.799923828125,1.4508649140625,8.799923828125,1.7159619140625C8.799923828125,1.9810589140625,8.585023828125,2.1959619140625,8.319923828124999,2.1959619140625L8.331923828125,2.1959619140625ZM9.823923828125,7.0319619140625L4.371923828125,7.0319619140625C4.151162828125,7.0317419140625,3.972314453125,6.8527219140625,3.972314453125,6.6319619140625C3.972314453125,6.4112019140625,4.151162828125,6.2321819140625,4.371923828125,6.2319619140625L9.823923828125,6.2319619140625C10.044993828125001,6.2317419140625,10.224313828125,6.4108919140625,10.224313828125,6.6319619140625C10.224313828125,6.8530319140625,10.044993828125001,7.0321819140625,9.823923828125,7.0319619140625ZM7.823923828125,4.6759619140624995L4.371923828125,4.6759619140624995C4.151009828125,4.6759619140624995,3.971923828125,4.4968719140625,3.971923828125,4.2759619140625C3.971923828125,4.0550519140625,4.151009828125,3.8759619140625,4.371923828125,3.8759619140625L7.827923828125,3.8759619140625C8.048833828125,3.8759619140625,8.227923828125,4.0550519140625,8.227923828125,4.2759619140625C8.227923828125,4.4968719140625,8.048833828125,4.6759619140624995,7.827923828125,4.6759619140624995L7.823923828125,4.6759619140624995Z" fill="#0064FF" fill-opacity="1"/></g><g><path d="M4.98407671875,8.9880158984375Q4.98407671875,9.0372958984375,4.97446671875,9.0856288984375Q4.96485571875,9.1339618984375,4.94600271875,9.1794898984375Q4.92714971875,9.2250188984375,4.89977971875,9.2659928984375Q4.87240971875,9.3069678984375,4.83757471875,9.3418138984375Q4.80273971875,9.3766598984375,4.76177771875,9.4040378984375Q4.72081571875,9.4314168984375,4.67530171875,9.4502748984375Q4.62978671875,9.4691338984375,4.58146871875,9.4787478984375Q4.53315071875,9.4883608984375,4.48388671875,9.4883608984375Q4.43462171875,9.4883608984375,4.38630371875,9.4787478984375Q4.33798671875,9.4691338984375,4.29247171875,9.4502748984375Q4.24695771875,9.4314168984375,4.20599571875,9.4040378984375Q4.16503371875,9.3766598984375,4.13019771875,9.3418138984375Q4.09536271875,9.3069678984375,4.06799301875,9.2659928984375Q4.04062311875,9.2250188984375,4.02177041875,9.1794898984375Q4.00291771875,9.1339618984375,3.99330670875,9.0856288984375Q3.98369567875,9.0372958984375,3.98369567875,8.9880158984375Q3.98369567875,8.9387368984375,3.99330670875,8.8904038984375Q4.00291771875,8.8420708984375,4.02177041875,8.7965428984375Q4.04062311875,8.7510138984375,4.06799301875,8.7100388984375Q4.09536271875,8.6690648984375,4.13019771875,8.6342188984375Q4.16503371875,8.5993728984375,4.20599571875,8.5719942984375Q4.24695771875,8.5446158984375,4.29247171875,8.5257573984375Q4.33798671875,8.5068988984375,4.38630371875,8.4972848984375Q4.43462171875,8.4876708984375,4.48388671875,8.4876708984375Q4.53315071875,8.4876708984375,4.58146871875,8.4972848984375Q4.62978671875,8.5068988984375,4.67530171875,8.5257573984375Q4.72081571875,8.5446158984375,4.76177771875,8.5719942984375Q4.80273971875,8.5993728984375,4.83757471875,8.6342188984375Q4.87240971875,8.6690648984375,4.89977971875,8.7100388984375Q4.92714971875,8.7510138984375,4.94600271875,8.7965428984375Q4.96485571875,8.8420708984375,4.97446671875,8.8904038984375Q4.98407671875,8.9387368984375,4.98407671875,8.9880158984375Z" fill="#0064FF" fill-opacity="1"/></g><g><path d="M6.98388671875,8.988037109375Q6.98388671875,9.037283109375,6.97427971875,9.085582109375Q6.96467171875,9.133882109375,6.94582671875,9.179379109375Q6.92698071875,9.224876109375,6.89962171875,9.265822109375Q6.87226171875,9.306768109375,6.83743971875,9.341590109375Q6.80261771875,9.376412109375,6.76167171875,9.403772109375Q6.72072571875,9.431131109375,6.67522871875,9.449977109375Q6.62973171875,9.468822109375001,6.58143171875,9.478430109375Q6.53313271875,9.488037109375,6.48388671875,9.488037109375Q6.43464071875,9.488037109375,6.38634171875,9.478430109375Q6.33804171875,9.468822109375001,6.29254471875,9.449977109375Q6.24704771875,9.431131109375,6.20610171875,9.403772109375Q6.16515571875,9.376412109375,6.13033371875,9.341590109375Q6.09551171875,9.306768109375,6.06815191875,9.265822109375Q6.04079241875,9.224876109375,6.02194691875,9.179379109375Q6.00310141875,9.133882109375,5.99349407875,9.085582109375Q5.98388671875,9.037283109375,5.98388671875,8.988037109375Q5.98388671875,8.938791109375,5.99349407875,8.890492109375Q6.00310141875,8.842192109375,6.02194691875,8.796695109375Q6.04079241875,8.751198109375,6.06815191875,8.710252109375Q6.09551171875,8.669306109375,6.13033371875,8.634484109375Q6.16515571875,8.599662109375,6.20610171875,8.572302309375Q6.24704771875,8.544942809375,6.29254471875,8.526097309375Q6.33804171875,8.507251809375,6.38634171875,8.497644469375Q6.43464071875,8.488037109375,6.48388671875,8.488037109375Q6.53313271875,8.488037109375,6.58143171875,8.497644469375Q6.62973171875,8.507251809375,6.67522871875,8.526097309375Q6.72072571875,8.544942809375,6.76167171875,8.572302309375Q6.80261771875,8.599662109375,6.83743971875,8.634484109375Q6.87226171875,8.669306109375,6.89962171875,8.710252109375Q6.92698071875,8.751198109375,6.94582671875,8.796695109375Q6.96467171875,8.842192109375,6.97427971875,8.890492109375Q6.98388671875,8.938791109375,6.98388671875,8.988037109375Z" fill="#0064FF" fill-opacity="1"/></g><g><path d="M8.98388671875,8.988037109375Q8.98388671875,9.037283109375,8.97427971875,9.085582109375Q8.964671718750001,9.133882109375,8.94582671875,9.179379109375Q8.92698071875,9.224876109375,8.89962171875,9.265822109375Q8.87226171875,9.306768109375,8.83743971875,9.341590109375Q8.80261771875,9.376412109375,8.76167171875,9.403772109375Q8.72072571875,9.431131109375,8.67522871875,9.449977109375Q8.62973171875,9.468822109375001,8.58143171875,9.478430109375Q8.53313271875,9.488037109375,8.48388671875,9.488037109375Q8.43464071875,9.488037109375,8.38634171875,9.478430109375Q8.33804171875,9.468822109375001,8.29254471875,9.449977109375Q8.24704771875,9.431131109375,8.20610171875,9.403772109375Q8.16515571875,9.376412109375,8.13033371875,9.341590109375Q8.09551171875,9.306768109375,8.06815191875,9.265822109375Q8.04079241875,9.224876109375,8.02194691875,9.179379109375Q8.00310141875,9.133882109375,7.99349407875,9.085582109375Q7.98388671875,9.037283109375,7.98388671875,8.988037109375Q7.98388671875,8.938791109375,7.99349407875,8.890492109375Q8.00310141875,8.842192109375,8.02194691875,8.796695109375Q8.04079241875,8.751198109375,8.06815191875,8.710252109375Q8.09551171875,8.669306109375,8.13033371875,8.634484109375Q8.16515571875,8.599662109375,8.20610171875,8.572302309375Q8.24704771875,8.544942809375,8.29254471875,8.526097309375Q8.33804171875,8.507251809375,8.38634171875,8.497644469375Q8.43464071875,8.488037109375,8.48388671875,8.488037109375Q8.53313271875,8.488037109375,8.58143171875,8.497644469375Q8.62973171875,8.507251809375,8.67522871875,8.526097309375Q8.72072571875,8.544942809375,8.76167171875,8.572302309375Q8.80261771875,8.599662109375,8.83743971875,8.634484109375Q8.87226171875,8.669306109375,8.89962171875,8.710252109375Q8.92698071875,8.751198109375,8.94582671875,8.796695109375Q8.964671718750001,8.842192109375,8.97427971875,8.890492109375Q8.98388671875,8.938791109375,8.98388671875,8.988037109375Z" fill="#0064FF" fill-opacity="1"/></g></g></svg>