<svg xmlns="http://www.w3.org/2000/svg" xmlns:xlink="http://www.w3.org/1999/xlink" fill="none" version="1.1" width="12" height="14.882527351379395" viewBox="0 0 12 14.882527351379395"><g><path d="M11.921005,11.521955L10.960842,9.3455868L10.960842,6.2410593C10.960842,4.1927118,9.6486187,2.3363967,7.7602987,1.6002716C7.6962876,0.70411956,6.9281573,0,6,0C5.0718427,0,4.3357177,0.70411956,4.2397017,1.6002716C2.3193753,2.3363967,1.039158,4.1927118,1.039158,6.2410593L1.039158,9.3455868L0.078995056,11.521955C-0.049026679,11.810005,-0.01702125,12.130059,0.14300592,12.386103C0.30303311,12.642146,0.59108198,12.802173,0.91113627,12.802173L11.088863,12.802173C11.408917,12.802173,11.696967,12.642146,11.856994,12.386103C12.017021,12.130059,12.049026,11.778,11.921005,11.521955ZM0.97514719,11.84201L1.999321,9.5376196L1.999321,6.2410593C1.999321,4.4807606,3.1835222,2.9124944,4.8798099,2.4004073L5.263875,2.2723858L5.1998644,1.8563151L5.1998644,1.760299C5.1998644,1.3122227,5.5519242,0.96016306,6,0.96016306C6.4480762,0.96016306,6.8001356,1.3122227,6.8001356,1.760299L6.8001356,1.8883206L6.736125,2.3043911L7.1201901,2.4324129C8.8164778,2.9445,10.000678,4.5127659,10.000678,6.2730651L10.000678,9.5696249L11.024853,11.874016L0.97514719,11.874016L0.97514719,11.84201ZM6,14.882527C6.896152,14.882527,7.6002717,14.178407,7.6002717,13.282254L4.3997288,13.282254C4.3997288,14.178407,5.103848,14.882527,6,14.882527Z" fill="#FFFFFF" fill-opacity="1" style="mix-blend-mode:passthrough"/></g></svg>