<svg xmlns="http://www.w3.org/2000/svg" xmlns:xlink="http://www.w3.org/1999/xlink" fill="none" version="1.1" width="16" height="16" viewBox="0 0 16 16"><defs><clipPath id="master_svg0_6_2725"><rect x="0" y="0" width="16" height="16" rx="0"/></clipPath></defs><g clip-path="url(#master_svg0_6_2725)"><g><path d="M1.4312246875,13.544479370117188L1.4329196875,13.552079370117188L1.4524426875,13.548679370117188C1.4532896875,13.548679370117188,1.4549846875,13.550379370117188,1.4566956875,13.550379370117188C1.4847086875,13.550379370117188,1.5127216875,13.543579370117188,1.5364976875,13.533379370117187L5.1515796875,12.883079370117187L5.1515796875,12.880479370117188C5.2780696875,12.856679370117188,5.3977796875,12.796479370117188,5.4962796875,12.697979370117187L13.4472296875,4.747009370117187C13.7062296875,4.488059370117187,13.7062296875,4.070349370117187,13.4472296875,3.8113993701171873L10.8756096875,1.2397553701171875C10.7456896875,1.1098589701171875,10.5767496875,1.0444793701171875,10.4069496875,1.0444793701171875C10.2379696875,1.0444793701171875,10.0690196875,1.1098589701171875,9.9399796875,1.2397553701171875L1.9881746875,9.190719370117188C1.8913926875,9.287519370117188,1.8302666875,9.407209370117188,1.8064906875,9.531169370117187L1.8031006875,9.531169370117187L1.3216989875,12.900879370117188L1.3149036875,12.901779370117188L1.3191566875,12.920379370117187L1.2690626875,13.265979370117188C1.2588776375,13.290579370117188,1.2529296875,13.317779370117188,1.2529296875,13.344879370117187C1.2529296112061,13.448479370117187,1.3310525874999999,13.531679370117187,1.4312246875,13.544479370117188ZM2.5807796874999998,10.232439370117188L4.4706696875,12.122379370117187L2.2547596875,12.521379370117188L2.5807796874999998,10.232439370117188ZM10.4069496875,2.0004553701171877L12.6857296875,4.279199370117187L5.2712796875,11.694479370117188L2.9933996875,9.415699370117187L10.4069496875,2.0004553701171877Z" fill="#0064FF" fill-opacity="1"/></g><g><path d="M14.520177734375,14.08612060546875L1.479374734375,14.08612060546875C1.239105734375,14.08612060546875,1.044677734375,14.28053260546875,1.044677734375,14.52081760546875C1.044677734375,14.76107060546875,1.239105734375,14.95551560546875,1.479374734375,14.95551560546875L14.520177734375,14.95551560546875C14.760377734375,14.95551560546875,14.954877734375,14.76108660546875,14.954877734375,14.52081760546875C14.954877734375,14.28053360546875,14.760377734375,14.08612060546875,14.520177734375,14.08612060546875Z" fill="#0064FF" fill-opacity="1"/></g></g></svg>