<svg xmlns="http://www.w3.org/2000/svg" xmlns:xlink="http://www.w3.org/1999/xlink" fill="none" version="1.1" width="16" height="16" viewBox="0 0 16 16"><g><g><path d="M16,8Q16,8.19639,15.9904,8.39254Q15.9807,8.58869,15.9615,8.78414Q15.9422,8.97958,15.9134,9.17384Q15.8846,9.36811,15.8463,9.56072Q15.808,9.75334,15.7602,9.94384Q15.7125,10.1343,15.6555,10.3223Q15.5985,10.5102,15.5324,10.6951Q15.4662,10.88,15.391,11.0615Q15.3159,11.2429,15.2319,11.4204Q15.1479,11.598,15.0554,11.7712Q14.9628,11.9444,14.8618,12.1128Q14.7609,12.2813,14.6518,12.4446Q14.5426,12.6079,14.4257,12.7656Q14.3087,12.9233,14.1841,13.0751Q14.0595,13.227,13.9276,13.3725Q13.7957,13.518,13.6569,13.6569Q13.518,13.7957,13.3725,13.9276Q13.227,14.0595,13.0751,14.1841Q12.9233,14.3087,12.7656,14.4257Q12.6079,14.5426,12.4446,14.6518Q12.2813,14.7609,12.1128,14.8618Q11.9444,14.9628,11.7712,15.0554Q11.598,15.1479,11.4204,15.2319Q11.2429,15.3159,11.0615,15.391Q10.88,15.4662,10.6951,15.5324Q10.5102,15.5985,10.3223,15.6555Q10.1343,15.7125,9.94384,15.7602Q9.75334,15.808,9.56072,15.8463Q9.36811,15.8846,9.17384,15.9134Q8.97958,15.9422,8.78414,15.9615Q8.58869,15.9807,8.39254,15.9904Q8.19639,16,8,16Q7.80361,16,7.60746,15.9904Q7.41131,15.9807,7.21586,15.9615Q7.02042,15.9422,6.82616,15.9134Q6.63189,15.8846,6.43928,15.8463Q6.24666,15.808,6.05616,15.7602Q5.86565,15.7125,5.67772,15.6555Q5.48979,15.5985,5.30488,15.5324Q5.11997,15.4662,4.93853,15.391Q4.75709,15.3159,4.57956,15.2319Q4.40203,15.1479,4.22883,15.0554Q4.05563,14.9628,3.88718,14.8618Q3.71873,14.7609,3.55544,14.6518Q3.39215,14.5426,3.23441,14.4257Q3.07666,14.3087,2.92485,14.1841Q2.77304,14.0595,2.62753,13.9276Q2.48201,13.7957,2.34315,13.6569Q2.20428,13.518,2.07239,13.3725Q1.9405,13.227,1.81592,13.0751Q1.69133,12.9233,1.57434,12.7656Q1.45735,12.6079,1.34824,12.4446Q1.23914,12.2813,1.13817,12.1128Q1.03721,11.9444,0.94463,11.7712Q0.852053,11.598,0.768086,11.4204Q0.684118,11.2429,0.608964,11.0615Q0.533809,10.88,0.467647,10.6951Q0.401486,10.5102,0.344477,10.3223Q0.287469,10.1343,0.23975,9.94384Q0.192031,9.75334,0.153718,9.56072Q0.115404,9.36811,0.0865879,9.17384Q0.0577717,8.97958,0.0385222,8.78414Q0.0192727,8.58869,0.00963635,8.39254Q0,8.19639,0,8Q0,7.80361,0.00963635,7.60746Q0.0192727,7.41131,0.0385222,7.21586Q0.0577717,7.02042,0.0865879,6.82616Q0.115404,6.63189,0.153718,6.43928Q0.192031,6.24666,0.23975,6.05616Q0.287469,5.86565,0.344477,5.67772Q0.401486,5.48979,0.467647,5.30488Q0.533809,5.11997,0.608964,4.93853Q0.684118,4.75709,0.768086,4.57956Q0.852053,4.40203,0.94463,4.22883Q1.03721,4.05563,1.13817,3.88718Q1.23914,3.71873,1.34824,3.55544Q1.45735,3.39215,1.57434,3.23441Q1.69133,3.07666,1.81592,2.92485Q1.9405,2.77304,2.07239,2.62753Q2.20428,2.48201,2.34315,2.34315Q2.48201,2.20428,2.62753,2.07239Q2.77304,1.9405,2.92485,1.81592Q3.07666,1.69133,3.23441,1.57434Q3.39215,1.45735,3.55544,1.34824Q3.71873,1.23914,3.88718,1.13817Q4.05563,1.03721,4.22883,0.94463Q4.40203,0.852053,4.57956,0.768086Q4.75709,0.684118,4.93853,0.608964Q5.11997,0.533809,5.30488,0.467647Q5.48979,0.401486,5.67772,0.344477Q5.86565,0.287469,6.05616,0.23975Q6.24666,0.192031,6.43928,0.153718Q6.63189,0.115404,6.82616,0.0865879Q7.02042,0.0577717,7.21586,0.0385222Q7.41131,0.0192727,7.60746,0.00963635Q7.80361,0,8,0Q8.19639,0,8.39254,0.00963635Q8.58869,0.0192727,8.78414,0.0385222Q8.97958,0.0577717,9.17384,0.0865879Q9.36811,0.115404,9.56072,0.153718Q9.75334,0.192031,9.94384,0.23975Q10.1343,0.287469,10.3223,0.344477Q10.5102,0.401486,10.6951,0.467647Q10.88,0.533809,11.0615,0.608964Q11.2429,0.684118,11.4204,0.768086Q11.598,0.852053,11.7712,0.94463Q11.9444,1.03721,12.1128,1.13817Q12.2813,1.23914,12.4446,1.34824Q12.6079,1.45735,12.7656,1.57434Q12.9233,1.69133,13.0751,1.81592Q13.227,1.9405,13.3725,2.07239Q13.518,2.20428,13.6569,2.34315Q13.7957,2.48201,13.9276,2.62753Q14.0595,2.77304,14.1841,2.92485Q14.3087,3.07666,14.4257,3.23441Q14.5426,3.39215,14.6518,3.55544Q14.7609,3.71873,14.8618,3.88718Q14.9628,4.05563,15.0554,4.22883Q15.1479,4.40203,15.2319,4.57956Q15.3159,4.75709,15.391,4.93853Q15.4662,5.11997,15.5324,5.30488Q15.5985,5.48979,15.6555,5.67772Q15.7125,5.86565,15.7602,6.05616Q15.808,6.24666,15.8463,6.43928Q15.8846,6.63189,15.9134,6.82616Q15.9422,7.02042,15.9615,7.21586Q15.9807,7.41131,15.9904,7.60746Q16,7.80361,16,8Z" fill="#C5C5C5" fill-opacity="1"/></g><g><path d="M9.143131875,4.571433608398437Q9.143131875,4.627573608398437,9.137631875,4.6834536083984375Q9.132131874999999,4.739323608398438,9.121171875,4.794393608398438Q9.110221875,4.849453608398438,9.093921875,4.903183608398438Q9.077631875,4.9569136083984375,9.056141875,5.008783608398438Q9.034651875,5.060653608398438,9.008191875,5.110173608398437Q8.981721875,5.159683608398438,8.950531875,5.206363608398437Q8.919341875,5.253053608398438,8.883721874999999,5.296453608398437Q8.848101875,5.339853608398437,8.808401875,5.379553608398437Q8.768701875,5.419253608398438,8.725301875,5.4548736083984375Q8.681901875,5.490493608398438,8.635211875,5.521683608398437Q8.588531875,5.552873608398437,8.539021875,5.579343608398437Q8.489501875,5.605803608398437,8.437631875,5.627293608398437Q8.385761875,5.648783608398437,8.332031875,5.665073608398437Q8.278301875,5.681373608398438,8.223241875,5.692323608398437Q8.168171875,5.703283608398437,8.112301875,5.708783608398438Q8.056421875,5.714283608398437,8.000281875,5.714283608398437Q7.944131875,5.714283608398437,7.8882618749999995,5.708783608398438Q7.832384875,5.703283608398437,7.777318875,5.692323608398437Q7.722252875,5.681373608398438,7.668524875,5.665073608398437Q7.614797875,5.648783608398437,7.5629268750000005,5.627293608398437Q7.511054875,5.605803608398437,7.461539875,5.579343608398437Q7.412024875,5.552873608398437,7.365341875,5.521683608398437Q7.318658875,5.490493608398438,7.275257875,5.4548736083984375Q7.231857875,5.419253608398438,7.192156875,5.379553608398437Q7.152456875,5.339853608398437,7.116838875,5.296453608398437Q7.081220875,5.253053608398438,7.050027875,5.206363608398437Q7.018835875,5.159683608398438,6.992368875,5.110173608398437Q6.965902875,5.060653608398438,6.944416675,5.008783608398438Q6.922930975,4.9569136083984375,6.906632875,4.903183608398438Q6.890334875,4.849453608398438,6.879381575,4.794393608398438Q6.868428175,4.739323608398438,6.862925045,4.6834536083984375Q6.857421875,4.627573608398437,6.857421875,4.571433608398437Q6.857421875,4.515283608398438,6.862925045,4.459413608398437Q6.868428175,4.403536608398437,6.879381575,4.348470608398437Q6.890334875,4.293404608398437,6.906632875,4.239676608398438Q6.922930975,4.185949608398437,6.944416675,4.134078608398438Q6.965902875,4.082206608398438,6.992368875,4.032691608398437Q7.018835875,3.9831766083984377,7.050027875,3.9364936083984374Q7.081220875,3.8898106083984376,7.116838875,3.8464096083984374Q7.152456875,3.8030096083984377,7.192156875,3.7633086083984377Q7.231857875,3.7236086083984374,7.275257875,3.6879906083984375Q7.318658875,3.6523726083984376,7.365341875,3.6211796083984376Q7.412024875,3.5899876083984377,7.461539875,3.5635206083984374Q7.511054875,3.5370546083984373,7.5629268750000005,3.5155684083984373Q7.614797875,3.4940827083984374,7.668524875,3.4777846083984376Q7.722252875,3.4614866083984377,7.777318875,3.4505333083984375Q7.832384875,3.4395799083984375,7.8882618749999995,3.4340767783984374Q7.944131875,3.4285736083984375,8.000281875,3.4285736083984375Q8.056421875,3.4285736083984375,8.112301875,3.4340767783984374Q8.168171875,3.4395799083984375,8.223241875,3.4505333083984375Q8.278301875,3.4614866083984377,8.332031875,3.4777846083984376Q8.385761875,3.4940827083984374,8.437631875,3.5155684083984373Q8.489501875,3.5370546083984373,8.539021875,3.5635206083984374Q8.588531875,3.5899876083984377,8.635211875,3.6211796083984376Q8.681901875,3.6523726083984376,8.725301875,3.6879906083984375Q8.768701875,3.7236086083984374,8.808401875,3.7633086083984377Q8.848101875,3.8030096083984377,8.883721874999999,3.8464096083984374Q8.919341875,3.8898106083984376,8.950531875,3.9364936083984374Q8.981721875,3.9831766083984377,9.008191875,4.032691608398437Q9.034651875,4.082206608398438,9.056141875,4.134078608398438Q9.077631875,4.185949608398437,9.093921875,4.239676608398438Q9.110221875,4.293404608398437,9.121171875,4.348470608398437Q9.132131874999999,4.403536608398437,9.137631875,4.459413608398437Q9.143131875,4.515283608398438,9.143131875,4.571433608398437ZM7.084960875,7.771433608398437C7.084960875,7.266483608398437,7.494300875,6.857143608398438,7.999241875,6.857143608398438L7.999241875,6.857143608398438C8.504191875,6.857143608398438,8.913531875,7.266483608398437,8.913531875,7.771433608398437L8.913531875,11.657143608398437C8.913531875,12.162093608398438,8.504191875,12.571433608398438,7.999241875,12.571433608398438L7.999241875,12.571433608398438C7.494300875,12.571433608398438,7.084960875,12.162093608398438,7.084960875,11.657143608398437L7.084960875,7.771433608398437Z" fill="#FFFFFF" fill-opacity="1"/></g></g></svg>