<svg xmlns="http://www.w3.org/2000/svg" xmlns:xlink="http://www.w3.org/1999/xlink" fill="none" version="1.1" width="233" height="31.997314453125" viewBox="0 0 233 31.997314453125"><g><g><path d="M203.9095458984375,31.257014599609374L203.9095458984375,0.776214599609375L207.4188758984375,0.776214599609375L207.4188758984375,31.257014599609374L203.9095458984375,31.257014599609374Z" fill="#423F40" fill-opacity="1"/></g><g><path d="M79.59873298828126,31.257040087890626L76.08331298828125,31.257040087890626L76.08331298828125,17.363670087890625C76.08834299828125,12.774540087890625,79.83462298828125,9.056503787890625,84.45524298828126,9.054840087890625L84.45524298828126,12.528180087890625C81.76803298828125,12.528180087890625,79.58961298828125,14.691750087890625,79.58961298828125,17.360640087890623L79.59873298828126,31.257040087890626Z" fill="#423F40" fill-opacity="1"/></g><g><path d="M196.2036659375,31.257040087890626L192.6943359375,31.257040087890626L192.6943359375,17.363670087890625C192.6993845075,12.773360087890625,196.4475059375,9.054835479290626,201.0693059375,9.054840087890625L201.0693059375,12.528180087890625C198.3820859375,12.528180087890625,196.2036659375,14.691750087890625,196.2036659375,17.360640087890623L196.2036659375,31.257040087890626Z" fill="#423F40" fill-opacity="1"/></g><g><path d="M121.73812343750001,31.25705990600586L118.0889234375,31.25705990600586C114.4508034375,31.253659906005858,111.5023736875,28.325359906005858,111.4990234375,24.71205990600586L111.4990234375,4.696559906005859L115.0083634375,4.696559906005859L115.0083634375,24.832859906005858C115.0100434375,26.52355990600586,116.3896334375,27.893759906005858,118.0919634375,27.895459906005858L121.7412234375,27.895459906005858L121.73812343750001,31.25705990600586Z" fill="#423F40" fill-opacity="1"/></g><g><rect x="108.63739013671875" y="9.483722686767578" width="13.100719451904297" height="3.1833882331848145" rx="0" fill="#423F40" fill-opacity="1"/></g><g><path d="M140.00555078125,31.253993359375L136.49926078125,31.253993359375L128.47705078125,0.773193359375L132.42429078125,0.773193359375L140.00555078125,31.253993359375Z" fill="#423F40" fill-opacity="1"/></g><g><path d="M139.0294189453125,31.254014599609373L142.3897489453125,31.254014599609373L149.1803189453125,0.776214599609375L145.6983789453125,0.776214599609375L139.0294189453125,31.254014599609373Z" fill="#423F40" fill-opacity="1"/></g><g><path d="M158.03572666015626,31.254014599609373L154.67542666015626,31.254014599609373L147.88482666015625,0.776214599609375L151.36679666015624,0.776214599609375L158.03572666015626,31.254014599609373Z" fill="#423F40" fill-opacity="1"/></g><g><path d="M157.0079345703125,31.253993359375L160.4290845703125,31.253993359375L168.4513345703125,0.773193359375L164.5891945703125,0.773193359375L157.0079345703125,31.253993359375Z" fill="#423F40" fill-opacity="1"/></g><g><rect x="138.0958251953125" y="27.892398834228516" width="3.4637231826782227" height="3.361585855484009" rx="0" fill="#423F40" fill-opacity="1"/></g><g><rect x="156.2537841796875" y="27.892398834228516" width="3.4637231826782227" height="3.361585855484009" rx="0" fill="#423F40" fill-opacity="1"/></g><g><rect x="146.58026123046875" y="1.1265640258789062" width="3.4637231826782227" height="3.4370927810668945" rx="0" fill="#423F40" fill-opacity="1"/></g><g><path d="M69.58778125,23.763617810058594C67.38648125,28.286617810058594,61.52648125,29.609117810058592,57.57344125,26.475017810058592C53.62036125,23.341017810058595,53.62036125,17.372557810058595,57.57344125,14.238477810058594C61.52648125,11.104397810058593,67.38648125,12.426897810058595,69.58778125,16.949887810058595L73.36168125,16.949887810058595C71.02338125,9.597624810058594,62.12608125,6.672897810058593,55.83307125,11.187827810058593C49.54002125,15.702767810058594,49.54002125,25.010817810058594,55.83307125,29.525717810058595C62.12618125,34.04061781005859,71.02338125,31.115917810058594,73.36168125,23.763617810058594L69.58778125,23.763617810058594Z" fill="#423F40" fill-opacity="1"/></g><g><path d="M178.50182021484375,31.66778399658203C172.21207021484375,31.66778399658203,167.11322021484375,26.60368399658203,167.11322021484375,20.35678399658203C167.11322021484375,14.109883996582031,172.21209021484376,9.045783996582031,178.50182021484375,9.045783996582031C184.79162021484376,9.045783996582031,189.89052021484375,14.109883996582031,189.89042021484374,20.35678399658203C189.88372021484375,26.60088399658203,184.78882021484375,31.661083996582033,178.50182021484375,31.66778399658203ZM178.50182021484375,12.528173996582032C174.14814021484375,12.526503996582031,170.61758021484374,16.030753996582032,170.61646021484376,20.35478399658203C170.61591021484375,24.67928399658203,174.14510021484375,28.185383996582033,178.49882021484376,28.185383996582033C182.85192021484374,28.18598399658203,186.38112021484375,24.68078399658203,186.38112021484375,20.35678399658203C186.36772021484376,16.039853996582032,182.84842021484374,12.543113996582031,178.50182021484375,12.528173996582032Z" fill="#423F40" fill-opacity="1"/></g><g><path d="M44.122175390625,24.431102490234373C42.723875390625,26.882502490234376,40.095275390625,28.386202490234375,37.258575390625,28.357502490234374C32.894755390625,28.357502490234374,29.351965390625,25.216402490234376,29.351965390625,20.341702490234375C29.351965390625,15.466912490234375,32.903875390625004,12.322792490234376,37.258575390625,12.322792490234376C41.613375390625,12.322792490234376,45.165275390625,15.693442490234375,45.165275390625,20.341702490234375C45.163275390625,20.710302490234376,45.137975390625,21.078502490234374,45.089275390625005,21.444102490234375L48.583375390625,21.444102490234375C48.619875390625,21.081602490234374,48.641175390625,20.713202490234373,48.641175390625,20.341702490234375C48.673275390625,12.206952490234375,40.335875390625,6.677912490234375,32.783125390625,9.825239490234376C25.230381390625,12.972572490234375,23.361255390625,22.754802490234376,29.227985390625,28.431402490234376C35.094725390625,34.10800249023438,44.891975390625,31.996902490234376,47.862675390625,24.416002490234376L44.122175390625,24.431102490234373Z" fill="#423F40" fill-opacity="1"/></g><g><rect x="29.15728759765625" y="18.484195709228516" width="18.237003326416016" height="2.971967935562134" rx="0" fill="#423F40" fill-opacity="1"/></g><g><path d="M103.4281423828125,24.431118212890624C102.0307423828125,26.883518212890625,99.4016423828125,28.387518212890626,96.5645423828125,28.357518212890625C92.2007223828125,28.357518212890625,88.6579323828125,25.216418212890623,88.6579323828125,20.341618212890623C88.6579323828125,15.466908212890626,92.2068123828125,12.322798212890625,96.5645423828125,12.322798212890625C100.9223423828125,12.322798212890625,104.4712423828125,15.693438212890625,104.4712423828125,20.341618212890623C104.4677423828125,20.710318212890627,104.4423423828125,21.078418212890625,104.3952423828125,21.444118212890626L107.8893423828125,21.444118212890626C107.9258423828125,21.081618212890625,107.9440423828125,20.713118212890627,107.9440423828125,20.341618212890623C107.9693423828125,12.213818212890626,99.6346423828125,6.696148212890625,92.0906923828125,9.846482212890624C84.5467453828125,12.996818212890625,82.6862823828125,22.771918212890625,88.5519023828125,28.439818212890625C94.4175223828125,34.10761821289063,104.2049423828125,31.992218212890624,107.1686423828125,24.416018212890627L103.4281423828125,24.431118212890624Z" fill="#423F40" fill-opacity="1"/></g><g><rect x="88.46636962890625" y="18.484195709228516" width="18.237003326416016" height="2.971967935562134" rx="0" fill="#423F40" fill-opacity="1"/></g><g><path d="M12.7966,14.4914C7.97964,13.3739,5.16061,12.347,4.78961,9.227C4.22398,4.45494,9.48495,3.31628,12.1002,3.31628C16.8016,3.31628,19.6085,5.74762,19.6085,9.53507L23.1178,9.53507C23.1178,3.74215,18.7935,0,12.1002,0C7.27412,0,0.596042,2.2622,1.29244,9.4656C1.85502,15.3068,7.41705,16.6388,11.9999,17.7019C16.8473,18.8255,20.1072,19.6621,20.1072,22.8364C20.1072,27.3487,15.6734,28.4753,12.6811,28.5116C9.94414,28.5448,3.50934,27.9075,3.50934,22.2263L0,22.2263C0,29.4267,6.66288,32.1057,12.678,31.994C16.6648,31.9215,23.7473,29.9583,23.6014,22.5404C23.4736,16.675,17.3916,15.5424,12.7966,14.4914Z" fill="#423F40" fill-opacity="1"/></g><g><path d="M221.6113783203125,31.66776873779297C215.3216483203125,31.66776873779297,210.2227783203125,26.60366873779297,210.2227783203125,20.35676873779297C210.2227783203125,14.109878737792968,215.3216483203125,9.045773346392968,221.6113783203125,9.045768737792969C228.1191783203125,9.045768737792969,231.7440783203125,14.119858737792969,231.7440783203125,20.35676873779297C231.7440783203125,26.593668737792967,228.1343783203125,31.66776873779297,221.6113783203125,31.66776873779297ZM221.6113783203125,12.528168737792969C217.2577183203125,12.526488737792969,213.7271383203125,16.03071873779297,213.7260083203125,20.354768737792966C213.7254483203125,24.679268737792967,217.2546583203125,28.18536873779297,221.6083783203125,28.18536873779297C225.9614783203125,28.18596873779297,229.4906783203125,24.680768737792967,229.4906783203125,20.35676873779297C229.4873783203125,16.03570873779297,225.96207832031251,12.533158737792968,221.6113783203125,12.528168737792969Z" fill="#423F40" fill-opacity="1"/></g><g><rect x="229.49066162109375" y="0.776214599609375" width="3.509338617324829" height="30.480791091918945" rx="0" fill="#423F40" fill-opacity="1"/></g><g><rect x="227.94281005859375" y="27.499771118164062" width="2.438899040222168" height="0.9574328064918518" rx="0" fill="#423F40" fill-opacity="1"/></g><g><rect x="227.94281005859375" y="12.253326416015625" width="2.438899040222168" height="0.9574328064918518" rx="0" fill="#423F40" fill-opacity="1"/></g></g></svg>