<svg xmlns="http://www.w3.org/2000/svg" xmlns:xlink="http://www.w3.org/1999/xlink" fill="none" version="1.1" width="269" height="20" viewBox="0 0 269 20"><g><path d="M8.582,5.144L8.582,9.358L6.146,9.358L6.146,5.144L8.582,5.144ZM9.296,9.358L9.296,5.144L11.788,5.144L11.788,9.358L9.296,9.358ZM4.676,9.4C4.242,9.652,3.794,9.89,3.332,10.114L3.332,6.992L4.676,6.992L4.676,6.25L3.332,6.25L3.332,3.646L2.576,3.646L2.576,6.25L0.854,6.25L0.854,6.992L2.576,6.992L2.576,10.45C1.974,10.688,1.344,10.898,0.7,11.08L0.882,11.808C1.442,11.626,2.016,11.416,2.576,11.178L2.576,15.07C2.576,15.434,2.394,15.63,2.044,15.63C1.68,15.63,1.316,15.602,0.924,15.574L1.092,16.302L2.31,16.302C2.982,16.302,3.332,15.952,3.332,15.252L3.332,10.842C3.78,10.632,4.228,10.408,4.676,10.156L4.676,9.4ZM12.516,4.402L5.404,4.402L5.404,14.944C5.404,15.658,5.796,16.022,6.608,16.022L11.606,16.022C12.292,16.008,12.754,15.7,12.992,15.084C13.146,14.664,13.258,13.964,13.328,13.012L12.614,12.788C12.544,13.824,12.446,14.482,12.306,14.776C12.138,15.112,11.83,15.294,11.41,15.308L6.86,15.308C6.384,15.294,6.146,15.098,6.146,14.706L6.146,10.072L12.516,10.072L12.516,4.402ZM20.598,5.578L29.81,5.578L29.81,4.836L21.004,4.836C21.2,4.472,21.382,4.08,21.55,3.688L20.794,3.52C20.052,5.27,19.044,6.712,17.77,7.86L18.274,8.448C19.156,7.636,19.926,6.67,20.598,5.578ZM22.838,11.36L22.488,11.878C23.44,12.228,24.364,12.704,25.274,13.32L25.638,12.76C24.798,12.2,23.874,11.738,22.838,11.36ZM19.436,14.314L27.654,14.314C27.626,14.622,27.584,14.804,27.556,14.888C27.416,15.252,27.206,15.476,26.898,15.574C26.618,15.644,26.296,15.686,25.932,15.686C25.428,15.686,24.854,15.672,24.238,15.658L24.462,16.358L26.03,16.358C26.702,16.358,27.22,16.26,27.57,16.078C27.92,15.854,28.158,15.532,28.284,15.098C28.312,14.986,28.354,14.72,28.396,14.314L30.062,14.314L30.062,13.6L28.452,13.6C28.494,12.928,28.536,12.032,28.592,10.912L30.426,10.912L30.426,10.184L28.62,10.184C28.648,9.232,28.69,8.154,28.718,6.936L20.206,6.936C20.178,8.042,20.108,9.12,20.01,10.184L17.602,10.184L17.602,10.912L19.94,10.912C19.814,12.074,19.646,13.208,19.436,14.314ZM27.71,13.6L20.318,13.6C20.458,12.788,20.584,11.892,20.696,10.912L27.85,10.912C27.794,12.032,27.752,12.928,27.71,13.6ZM20.766,10.184C20.822,9.386,20.878,8.546,20.92,7.65L27.962,7.65C27.934,8.574,27.906,9.414,27.878,10.184L20.766,10.184ZM22.964,8.07L22.614,8.588C23.552,8.938,24.462,9.414,25.358,10.016L25.722,9.47C24.882,8.91,23.972,8.448,22.964,8.07ZM34.728,9.484L34.728,10.24L47.258,10.24L47.258,9.484L34.728,9.484ZM54.808,3.52C54.122,5.732,53.002,7.706,51.462,9.456L51.714,10.254C52.316,9.61,52.862,8.938,53.366,8.224L53.366,16.386L54.108,16.386L54.108,7.034C54.668,6.054,55.13,4.99,55.508,3.856L54.808,3.52ZM57.146,4.402C56.824,6.306,56.222,7.93,55.34,9.26L55.816,9.876C56.334,9.134,56.768,8.294,57.132,7.37L59.736,7.37L59.736,10.996L55.494,10.996L55.494,11.738L59.736,11.738L59.736,16.316L60.492,16.316L60.492,11.738L64.328,11.738L64.328,10.996L60.492,10.996L60.492,7.37L63.81,7.37L63.81,6.614L60.492,6.614L60.492,3.618L59.736,3.618L59.736,6.614L57.384,6.614C57.58,5.942,57.748,5.242,57.888,4.486L57.146,4.402ZM77.268,3.59L77.268,9.904L75.182,9.904L75.182,16.316L75.882,16.316L75.882,15.63L79.998,15.63L79.998,16.316L80.726,16.316L80.726,9.904L78.01,9.904L78.01,6.95L81.342,6.95L81.342,6.222L78.01,6.222L78.01,3.59L77.268,3.59ZM75.882,14.902L75.882,10.618L79.998,10.618L79.998,14.902L75.882,14.902ZM74.118,4.206L69.302,4.206L69.302,12.872L70.002,12.872L70.002,4.92L73.432,4.92L73.432,12.872L74.118,12.872L74.118,4.206ZM71.374,5.984L71.374,10.618C71.346,11.92,71.15,12.984,70.786,13.796C70.366,14.594,69.652,15.224,68.672,15.672L69.092,16.316C70.128,15.84,70.87,15.168,71.332,14.314C71.78,13.39,72.018,12.158,72.046,10.618L72.046,5.984L71.374,5.984ZM72.508,13.348L72.004,13.824C72.844,14.692,73.502,15.532,73.992,16.316L74.538,15.784C73.978,14.972,73.306,14.16,72.508,13.348ZM91.16,3.45C91.048,3.926,90.894,4.388,90.684,4.836L87.912,4.836L87.912,11.444L86.162,11.444L86.162,12.172L94.674,12.172L94.226,12.536C92.588,13.782,89.928,14.734,86.246,15.392L86.596,16.078C89.564,15.546,91.986,14.72,93.862,13.6C94.212,13.376,94.562,13.124,94.926,12.844L94.926,15.112C94.926,15.504,94.758,15.7,94.45,15.7L92.98,15.658L93.176,16.386L94.688,16.386C95.346,16.386,95.682,16.008,95.682,15.266L95.682,12.2C96.662,11.276,97.502,10.156,98.174,8.84L97.53,8.434C97.124,9.414,96.508,10.338,95.682,11.22L95.682,4.836L91.482,4.836C91.678,4.444,91.846,4.01,91.958,3.562L91.16,3.45ZM88.654,11.444L88.654,9.834L94.926,9.834L94.926,11.444L88.654,11.444ZM88.654,9.162L88.654,7.706L94.926,7.706L94.926,9.162L88.654,9.162ZM88.654,7.048L88.654,5.536L94.926,5.536L94.926,7.048L88.654,7.048ZM109.126,6.572C109.77,10.66,111.674,13.824,114.81,16.092L115.286,15.336C113.648,14.23,112.374,12.844,111.45,11.192C112.57,10.646,113.564,9.806,114.46,8.686L113.914,8.154C113.018,9.274,112.094,10.086,111.128,10.59C110.526,9.386,110.106,8.056,109.868,6.572L114.964,6.572L114.964,5.83L109.532,5.83C109.238,4.99,108.93,4.234,108.594,3.576L107.796,3.716C108.16,4.346,108.482,5.046,108.776,5.83L103.036,5.83L103.036,6.572L108.132,6.572C107.04,8.84,105.234,10.674,102.742,12.102L103.134,12.746C104.086,12.172,104.954,11.542,105.738,10.856L105.738,15.084C105.738,15.28,105.612,15.42,105.388,15.518L105.542,16.232C107.432,15.756,109.056,15.252,110.4,14.72L110.26,13.936C109.098,14.44,107.838,14.874,106.494,15.238L106.494,10.128C107.502,9.064,108.314,7.888,108.902,6.572L109.126,6.572ZM126.14,3.59C125.748,5.718,125.09,7.342,124.166,8.49L124.726,8.966C125.216,8.35,125.65,7.594,126.028,6.67L127.218,6.67C126.686,9.498,125.678,11.542,124.18,12.83L124.67,13.39C126.266,11.99,127.344,9.75,127.904,6.67L129.192,6.67C128.926,8.91,128.506,10.716,127.918,12.06C127.33,13.376,126.448,14.566,125.258,15.644L125.734,16.232C126.994,15.084,127.946,13.782,128.59,12.326C129.15,10.954,129.584,9.078,129.892,6.67L131.082,6.67C131.054,10.8,130.998,13.292,130.9,14.16C130.76,15.112,130.228,15.588,129.318,15.588C128.996,15.588,128.618,15.574,128.184,15.546L128.352,16.232C128.856,16.26,129.192,16.274,129.388,16.274C130.718,16.274,131.46,15.644,131.614,14.384C131.74,13.306,131.81,10.492,131.81,5.942L126.294,5.942C126.518,5.298,126.7,4.57,126.868,3.772L126.14,3.59ZM120.89,7.342L122.22,7.342L122.22,11.36C121.408,11.696,120.568,11.976,119.714,12.2L119.896,12.942C120.68,12.69,121.464,12.396,122.22,12.074L122.22,16.358L122.976,16.358L122.976,11.724C123.382,11.528,123.788,11.318,124.208,11.094L124.208,10.38C123.802,10.604,123.396,10.814,122.976,11.01L122.976,7.342L124.264,7.342L124.264,6.614L122.976,6.614L122.976,3.618L122.22,3.618L122.22,6.614L121.044,6.614C121.156,5.97,121.24,5.312,121.268,4.626L120.582,4.584C120.498,6.236,120.162,7.804,119.56,9.288L120.218,9.47C120.498,8.784,120.722,8.07,120.89,7.342ZM145.324,8.21C145.492,9.96,145.898,11.528,146.542,12.928C145.926,14.132,145.1,15.07,144.05,15.756L144.498,16.33C145.492,15.658,146.304,14.776,146.934,13.684C147.466,14.664,148.124,15.546,148.936,16.33L149.454,15.826C148.586,15,147.872,14.048,147.312,12.956C148.096,11.262,148.502,9.134,148.53,6.572L149.23,6.572L149.23,5.858L146.122,5.858C146.276,5.228,146.416,4.556,146.528,3.828L145.814,3.702C145.506,5.998,144.904,7.832,144.008,9.19L144.456,9.736C144.764,9.288,145.058,8.77,145.324,8.21ZM146.906,12.102C146.276,10.604,145.912,8.882,145.814,6.922C145.842,6.81,145.884,6.684,145.926,6.572L147.83,6.572C147.816,8.742,147.508,10.59,146.906,12.102ZM139.458,3.646C138.856,5.802,137.876,7.734,136.532,9.442L136.784,10.24C137.316,9.596,137.82,8.924,138.268,8.21L138.268,16.386L138.996,16.386L138.996,6.894C139.444,5.97,139.822,4.99,140.13,3.954L139.458,3.646ZM144.078,9.974L142.552,9.974L142.552,7.02L144.414,7.02L144.414,6.32L142.552,6.32L142.552,3.772L141.824,3.772L141.824,6.32L139.92,6.32L139.92,7.02L141.824,7.02L141.824,9.974L140.284,9.974L140.284,15.644L141.012,15.644L141.012,14.692L144.078,14.692L144.078,9.974ZM141.012,14.006L141.012,10.66L143.364,10.66L143.364,14.006L141.012,14.006ZM160.882,14.272C159.902,14.496,158.88,14.692,157.844,14.86L157.844,12.06L160.504,12.06L160.504,11.332L157.844,11.332L157.844,9.582L157.088,9.582L157.088,11.332L154.26,11.332L154.26,12.06L157.088,12.06L157.088,14.986C155.996,15.154,154.89,15.308,153.756,15.42L153.938,16.148C156.43,15.854,158.74,15.476,160.882,15.028L160.882,14.272ZM153.924,4.29L153.924,5.018L156.374,5.018C155.548,6.712,154.792,7.86,154.106,8.462C154.036,8.49,153.938,8.504,153.812,8.532L153.98,9.218C156.122,9.022,158.096,8.77,159.888,8.462C160.112,8.854,160.308,9.232,160.504,9.596L161.12,9.162C160.616,8.21,159.902,7.076,158.95,5.788L158.362,6.152C158.782,6.754,159.174,7.328,159.524,7.874C158.152,8.112,156.654,8.308,155.058,8.462C155.73,7.72,156.43,6.572,157.158,5.018L160.826,5.018L160.826,4.29L153.924,4.29ZM164.564,16.232C165.348,16.232,165.74,15.84,165.74,15.07L165.74,3.646L164.97,3.646L164.97,14.874C164.97,15.322,164.746,15.56,164.298,15.56C163.682,15.56,163.024,15.532,162.352,15.504L162.52,16.232L164.564,16.232ZM162.086,4.906L162.086,13.614L162.828,13.614L162.828,4.906L162.086,4.906ZM173.71,9.064C174.13,9.638,174.634,10.408,175.208,11.374L175.642,10.716C174.998,9.806,174.354,8.98,173.71,8.238L173.71,7.16L175.488,7.16L175.488,6.418L173.71,6.418L173.71,3.604L172.968,3.604L172.968,6.418L170.826,6.418L170.826,7.16L172.898,7.16C172.45,9.008,171.694,10.66,170.616,12.116L170.938,12.914C171.806,11.654,172.478,10.24,172.968,8.672L172.968,16.316L173.71,16.316L173.71,9.064ZM176.916,4.976L176.916,6.46C176.888,10.73,176.048,13.838,174.424,15.77L175.012,16.274C176.37,14.636,177.21,12.242,177.518,9.106C177.966,10.73,178.68,12.172,179.66,13.432C178.848,14.3,177.826,15.042,176.594,15.644L177.014,16.33C178.26,15.714,179.31,14.958,180.164,14.034C180.92,14.888,181.816,15.644,182.852,16.316L183.328,15.672C182.306,15.028,181.41,14.286,180.654,13.46C181.704,12.13,182.376,10.492,182.67,8.546L182.67,8.098L180.752,8.098C181.032,7.174,181.326,6.04,181.634,4.724L181.634,4.234L175.208,4.234L175.208,4.976L176.916,4.976ZM180.136,12.858C178.792,11.192,177.966,9.204,177.644,6.88C177.644,6.74,177.658,6.6,177.658,6.46L177.658,4.976L180.822,4.976C180.458,6.656,180.136,7.916,179.828,8.784L181.914,8.784C181.634,10.352,181.032,11.71,180.136,12.858ZM195.834,6.558L198.354,6.558C198.312,8.63,197.92,10.45,197.192,11.99C196.534,10.73,196.002,9.204,195.61,7.44C195.68,7.16,195.75,6.866,195.834,6.558ZM196.814,12.704C196.058,13.964,195.036,15,193.72,15.812L194.112,16.456C195.372,15.644,196.408,14.622,197.206,13.39C197.976,14.636,198.9,15.616,199.992,16.344L200.412,15.714C199.32,15.014,198.382,14.02,197.598,12.718C198.522,11.038,199.012,8.98,199.068,6.558L200.09,6.558L200.09,5.816L195.988,5.816C196.114,5.158,196.226,4.458,196.324,3.716L195.624,3.576C195.288,6.376,194.658,8.602,193.734,10.24L194.21,10.828C194.588,10.198,194.924,9.456,195.232,8.616C195.652,10.17,196.17,11.528,196.814,12.704ZM193.51,14.09C192.712,14.314,191.9,14.51,191.06,14.692L191.06,12.046L193.174,12.046L193.174,11.318L191.06,11.318L191.06,9.428L190.318,9.428L190.318,11.318L188.134,11.318L188.134,12.046L190.318,12.046L190.318,14.832C189.478,14.986,188.61,15.126,187.728,15.238L187.896,15.966C189.912,15.672,191.774,15.294,193.51,14.832L193.51,14.09ZM187.686,4.262L187.686,4.99L190.192,4.99C189.31,6.782,188.596,7.888,188.064,8.294C188.022,8.308,187.966,8.336,187.896,8.364L188.064,9.036C189.716,8.924,191.256,8.77,192.656,8.602C192.768,8.882,192.894,9.19,193.006,9.498L193.664,9.204C193.244,8.098,192.754,7.062,192.194,6.096L191.536,6.32C191.816,6.824,192.096,7.37,192.376,7.972C191.256,8.126,190.136,8.252,188.988,8.336C189.52,7.72,190.178,6.614,190.934,4.99L193.608,4.99L193.608,4.262L187.686,4.262ZM211.028,3.52L210.202,3.66C210.384,4.01,210.552,4.402,210.706,4.836L204.84,4.836L204.84,5.564L217.146,5.564L217.146,4.836L211.504,4.836C211.35,4.346,211.196,3.912,211.028,3.52ZM214.934,16.33C215.886,16.33,216.362,15.91,216.362,15.07L216.362,10.212L205.638,10.212L205.638,16.358L206.352,16.358L206.352,10.898L215.648,10.898L215.648,14.916C215.648,15.42,215.326,15.672,214.696,15.672L213.562,15.644L213.744,16.33L214.934,16.33ZM207.206,6.642L207.206,9.218L214.808,9.218L214.808,6.642L207.206,6.642ZM214.08,8.602L207.934,8.602L207.934,7.258L214.08,7.258L214.08,8.602ZM208.34,11.948L208.34,14.65L213.688,14.65L213.688,11.948L208.34,11.948ZM212.988,14.048L209.026,14.048L209.026,12.564L212.988,12.564L212.988,14.048ZM222.134,6.264C222.092,7.622,221.924,8.91,221.616,10.142L222.246,10.31C222.54,9.05,222.708,7.72,222.75,6.32L222.134,6.264ZM225.41,6.012L224.836,6.194C225.172,6.978,225.452,7.79,225.676,8.63L226.292,8.476C226.026,7.552,225.732,6.726,225.41,6.012ZM223.688,3.632L223.688,16.316L224.444,16.316L224.444,3.632L223.688,3.632ZM227.65,7.09L230.072,7.09L230.072,10.688L226.782,10.688L226.782,11.43L230.072,11.43L230.072,15.182L225.97,15.182L225.97,15.924L234.356,15.924L234.356,15.182L230.828,15.182L230.828,11.43L233.74,11.43L233.74,10.688L230.828,10.688L230.828,7.09L233.992,7.09L233.992,6.348L230.828,6.348L230.828,3.646L230.072,3.646L230.072,6.348L227.804,6.348C227.902,5.76,227.958,5.158,227.986,4.514L227.286,4.43C227.202,6.32,226.754,8.014,225.928,9.512L226.502,10.016C227.006,9.12,227.398,8.154,227.65,7.09ZM240.478,8.028L240.478,16.358L241.234,16.358L241.234,6.712C241.682,5.858,242.06,4.934,242.368,3.954L241.668,3.632C241.038,5.76,240.002,7.678,238.574,9.372L238.812,10.17C239.428,9.498,239.974,8.784,240.478,8.028ZM248.08,8.476L248.08,16.232L248.822,16.232L248.822,8.476L248.08,8.476ZM244.412,8.518L244.412,10.646C244.384,13.04,243.754,14.79,242.494,15.882L243.068,16.386C244.426,15.168,245.126,13.25,245.154,10.646L245.154,8.518L244.412,8.518ZM246.218,3.646C245.168,5.788,243.698,7.524,241.794,8.868L242.214,9.512C243.95,8.308,245.392,6.614,246.54,4.402C247.534,6.362,249.032,8.014,251.048,9.344L251.468,8.7C249.312,7.244,247.772,5.564,246.876,3.646L246.218,3.646ZM263.274,9.106C264.772,8.686,266.34,8.07,267.964,7.23L267.53,6.614C266.13,7.384,264.702,7.972,263.274,8.364L263.274,3.772L262.532,3.772L262.532,14.72C262.532,15.56,262.938,15.98,263.75,15.98L266.34,15.98C266.844,15.966,267.222,15.826,267.488,15.546C267.782,15.182,267.978,14.23,268.09,12.676L267.376,12.438C267.306,13.88,267.138,14.734,266.886,15C266.704,15.154,266.452,15.238,266.144,15.238L263.96,15.238C263.498,15.238,263.274,15.014,263.274,14.594L263.274,9.106ZM256.848,16.148C258.556,15.784,260.152,15.35,261.65,14.86L261.454,14.132C260.208,14.566,258.948,14.93,257.674,15.21L257.674,8.63L261.342,8.63L261.342,7.874L257.674,7.874L257.674,3.87L256.904,3.87L256.904,15C256.904,15.196,256.806,15.336,256.61,15.448L256.848,16.148Z" fill="#423F40" fill-opacity="1"/></g></svg>