<svg xmlns="http://www.w3.org/2000/svg" xmlns:xlink="http://www.w3.org/1999/xlink" fill="none" version="1.1" width="12" height="12.000000953674316" viewBox="0 0 12 12.000000953674316"><defs><clipPath id="master_svg0_509_59358"><rect x="0" y="0" width="12" height="12.000000953674316" rx="0"/></clipPath></defs><g clip-path="url(#master_svg0_509_59358)"><g><path d="M6.0000005,12.000001C2.6863127,12.000001,0,9.3136873,0,6.0000005C0,2.6863127,2.6863127,0,6.0000005,0C9.3136873,0,12.000001,2.6863127,12.000001,6.0000005C12.000001,9.3136873,9.3136873,12.000001,6.0000005,12.000001ZM6.5624995,2.8125002C6.5624995,2.5018125,6.3106875,2.25,6.0000005,2.25C5.6893125,2.25,5.4375005,2.5018125,5.4375005,2.8125002L5.4375005,6.9374995C5.4375005,7.2481875,5.6893125,7.499999,6.0000005,7.499999C6.3106875,7.499999,6.5624995,7.2481875,6.5624995,6.9374995L6.5624995,2.8125002ZM6.0000005,8.625C5.6893125,8.625,5.4375005,8.876812,5.4375005,9.1875C5.4375005,9.498188,5.6893125,9.750001,6.0000005,9.750001C6.3106875,9.750001,6.5624995,9.498188,6.5624995,9.1875C6.5624995,8.876812,6.3106875,8.625,6.0000005,8.625Z" fill="#DB6A0F" fill-opacity="1"/></g></g></svg>