<svg xmlns="http://www.w3.org/2000/svg" xmlns:xlink="http://www.w3.org/1999/xlink" fill="none" version="1.1" width="100" height="38" viewBox="0 0 100 38"><g><path d="M0.75,27.2L2.625,27.2L2.625,21.4L22.375,21.4L22.375,27.2L24.25,27.2L24.25,30.3L0.75,30.3L0.75,27.2ZM1.25,14.4L3.325,14.4Q3.375,13.925,3.375,12.95L3.375,8.775L10.625,8.775L11,7.5L14.35,7.5L13.975,8.775L21.5,8.775L21.5,14.4L23.75,14.4L23.75,17.45L21.5,17.45L21.5,20.9L18.3,20.9L18.3,17.45L6.225,17.45Q5.925,19.075,5.1,20.95L1.475,20.95Q2.45,19.3,2.875,17.45L1.25,17.45L1.25,14.4ZM8.3,27.2L8.3,24.45L5.825,24.45L5.825,27.2L8.3,27.2ZM10.8,14.4L10.15,12.275L13.5,12.275L14.15,14.4L18.3,14.4L18.3,11.825L6.575,11.825L6.575,12.95Q6.575,13.95,6.55,14.4L10.8,14.4ZM13.55,17.9L14.5,20.9L11.15,20.9L10.2,17.9L13.55,17.9ZM13.725,27.2L13.725,24.45L11.275,24.45L11.275,27.2L13.725,27.2ZM19.175,27.2L19.175,24.45L16.7,24.45L16.7,27.2L19.175,27.2ZM34.275,13.55L34.275,7.5L37.575,7.5L37.575,8.95L47.725,8.95L47.725,12L37.575,12L37.575,13.55L46.825,13.55L46.825,23.825L28.175,23.825L28.175,13.55L34.275,13.55ZM27.9,24.8L31.475,24.8L29.475,30.5L25.9,30.5L27.9,24.8ZM43.575,20.85L43.575,16.7L31.425,16.7L31.425,20.85L43.575,20.85ZM33.45,24.8L36.775,24.8L35.875,30.5L32.55,30.5L33.45,24.8ZM41.55,24.8L42.45,30.5L39.125,30.5L38.225,24.8L41.55,24.8ZM47.1,24.8L49.1,30.5L45.525,30.5L43.525,24.8L47.1,24.8ZM73.125,30.25L61.125,30.25L61.125,20.35L73.125,20.35L73.125,30.25ZM54.925,8L58.225,8L54.925,15.15L55.85,15.675L57.025,13.1L60.2,13.1L56.45,21.375L59.425,21.375L59.425,24.6L51.35,24.6L54.025,18.7L50.825,16.95L54.925,8ZM51.25,27.125L59.425,26.3L59.425,29.525L51.25,30.35L51.25,27.125ZM60.3,9.825L65.5,9.825L65.5,7.9L68.75,7.9L68.75,9.825L73.95,9.825L73.95,12.975L68.75,12.975L68.75,15.4L73.675,15.4L73.675,18.55L60.575,18.55L60.575,15.4L65.5,15.4L65.5,12.975L60.3,12.975L60.3,9.825ZM69.9,27.075L69.9,23.525L64.35,23.525L64.35,27.075L69.9,27.075ZM97.175,19.35L89.1,19.35L89.1,20.825L98.75,20.825L98.75,23.925L93.95,23.925Q95.275,26.475,98.75,27.325L98.75,30.575Q92.05,28.95,90.75,23.925L89.1,23.925L89.1,30.5L85.9,30.5L85.9,23.925L84.25,23.925Q82.95,28.95,76.25,30.575L76.25,27.325Q79.725,26.475,81.05,23.925L76.25,23.925L76.25,20.825L85.9,20.825L85.9,19.35L77.825,19.35L77.825,8.25L97.175,8.25L97.175,19.35ZM85.9,16.6L85.9,15L81.025,15L81.025,16.6L85.9,16.6ZM85.9,12.575L85.9,11L81.025,11L81.025,12.575L85.9,12.575ZM93.975,16.6L93.975,15L89.1,15L89.1,16.6L93.975,16.6ZM93.975,12.575L93.975,11L89.1,11L89.1,12.575L93.975,12.575Z" fill="#3D3D3D" fill-opacity="1"/></g></svg>