<svg xmlns="http://www.w3.org/2000/svg" xmlns:xlink="http://www.w3.org/1999/xlink" fill="none" version="1.1" width="10" height="9.000030517578125" viewBox="0 0 10 9.000030517578125"><g><g><path d="M4.9930954,7.199976C5.2404938,7.199976,5.4424858,7.0406122,5.4424858,6.844707L5.4424858,1.3468412L7.1810126,2.9983511C7.2603149,3.0740652,7.368103,3.116632,7.480526,3.116632C7.5929489,3.116632,7.700737,3.0740652,7.7800393,2.9983511L7.7797995,2.9983511C7.9443965,2.8408606,7.9443965,2.5866828,7.7797995,2.4291923L5.4003453,0.1686061C5.3723474,0.14200386,5.3409972,0.11964376,5.3073478,0.1017937C5.2261953,0.0388868,5.1151733,0,4.9930954,0C4.8178706,0,4.6655436,0.080116421,4.5915799,0.19638564L2.2140586,2.4553626C2.0445325,2.6176703,2.0445325,2.8795164,2.2140586,3.0418241C2.2960718,3.1197817,2.4073267,3.1635811,2.5233362,3.1635811C2.6393454,3.1635811,2.7506006,3.1197817,2.8326137,3.0418241L4.5439453,1.4148664L4.5439453,6.844707C4.5439453,7.0403843,4.7458172,7.199976,4.9930954,7.199976ZM0.89854032,5.5735674Q0.89854032,5.146698,0.44927016,5.146698Q0,5.146698,0,5.5735674L0,8.5731497C0,8.857729,0.14975671,9.0000191,0.44927016,9.0000191L0.4626807,8.9999228L0.47112188,9.0000095L9.5280647,9.0000095L9.5322781,9.0000191L9.5364914,9.0000095L9.5830383,9.0000095C9.6318016,9.0000095,9.6786938,8.9913111,9.7223034,8.9753551C9.8263083,8.9440851,9.8990183,8.8830833,9.9404354,8.7923479C9.9782667,8.7281694,10.000081,8.6531267,10.000081,8.5731401C10.000081,8.5295076,9.9935894,8.4873466,9.9815483,8.4476175L9.9815483,5.5735674Q9.9815474,5.146698,9.5322781,5.146698C9.2327642,5.146698,9.0830078,5.2889876,9.0830078,5.5735674L9.0830078,8.1462708L0.89854032,8.1462708L0.89854032,5.5735674Z" fill-rule="evenodd" fill="#CD8200" fill-opacity="1"/></g></g></svg>