<svg xmlns="http://www.w3.org/2000/svg" xmlns:xlink="http://www.w3.org/1999/xlink" fill="none" version="1.1" width="9" height="5.0685715675354" viewBox="0 0 9 5.0685715675354"><g transform="matrix(-1,0,0,1,17,0)"><path d="M8.85662,0.14954L8.856545,0.14946399999999999Q8.855056,0.147949,8.853553,0.146447Q8.783227,0.07612000000000002,8.691342,0.03805999999999998Q8.5994562,0,8.500000000000004,0Q8.4016477,0,8.310623,0.03725099999999998Q8.219598,0.07450299999999999,8.149464,0.143455Q8.147949,0.14494400000000002,8.146447,0.146447Q8.07612,0.216773,8.03806,0.308658Q8,0.4005438,8,0.5Q8,0.5983523,8.037251,0.689377Q8.074503,0.780402,8.143455,0.850536L8.14353,0.8506119999999999L12.14345,4.91911Q12.14643,4.92214,12.14946,4.92512Q12.18458,4.95964,12.225760000000001,4.98665Q12.26694,5.01366,12.31259,5.03212Q12.35825,5.05058,12.40663,5.05977Q12.455,5.06897,12.504249999999999,5.06855Q12.55349,5.06813,12.60171,5.05812Q12.64992,5.0481,12.695260000000001,5.02887Q12.7406,5.00964,12.781310000000001,4.98193Q12.82202,4.95422,12.85655,4.91911L16.85604,0.851051L16.856540000000003,0.850536Q16.8732,0.833594,16.88818,0.815149Q17,0.677413,17,0.5000000000000001Q17,0.4774909,16.99798,0.4550728Q16.98999,0.366523,16.95196,0.28615599999999997Q16.91394,0.20578800000000003,16.850540000000002,0.14345599999999997Q16.83359,0.126799,16.81515,0.11182399999999998Q16.677410000000002,0,16.5,0L16.49575,0.000018000000000018Q16.475369999999998,0.00019099999999999673,16.45507,0.002022999999999997L16.14345,0.14946399999999999L12.5,3.85538L8.85662,0.14954Z" fill-rule="evenodd" fill="#666666" fill-opacity="1"/></g></svg>