<svg xmlns="http://www.w3.org/2000/svg" xmlns:xlink="http://www.w3.org/1999/xlink" fill="none" version="1.1" width="9" height="5.0685715675354" viewBox="0 0 9 5.0685715675354"><g transform="matrix(-1,0,0,-1,17,9.1371431350708)"><path d="M8.85662,4.2181115675354L8.856545,4.2180355675354Q8.855056,4.2165205675354,8.853553,4.215018567535401Q8.783227,4.144691567535401,8.691342,4.1066315675354Q8.5994562,4.0685715675354,8.500000000000004,4.0685715675354Q8.4016477,4.0685715675354,8.310623,4.105822567535401Q8.219598,4.1430745675354,8.149464,4.212026567535401Q8.147949,4.2135155675354,8.146447,4.215018567535401Q8.07612,4.2853445675354,8.03806,4.377229567535401Q8,4.469115367535401,8,4.5685715675354Q8,4.666923867535401,8.037251,4.757948567535401Q8.074503,4.8489735675354,8.143455,4.9191075675354L8.14353,4.9191835675354L12.14345,8.9876815675354Q12.14643,8.9907115675354,12.14946,8.9936915675354Q12.18458,9.0282115675354,12.225760000000001,9.055221567535401Q12.26694,9.0822315675354,12.31259,9.1006915675354Q12.35825,9.1191515675354,12.40663,9.1283415675354Q12.455,9.1375415675354,12.504249999999999,9.1371215675354Q12.55349,9.1367015675354,12.60171,9.1266915675354Q12.64992,9.1166715675354,12.695260000000001,9.097441567535402Q12.7406,9.078211567535401,12.781310000000001,9.0505015675354Q12.82202,9.0227915675354,12.85655,8.9876815675354L16.85604,4.9196225675354L16.856540000000003,4.9191075675354Q16.8732,4.9021655675354,16.88818,4.8837205675354Q17,4.7459845675354,17,4.5685715675354Q17,4.546062467535401,16.99798,4.5236443675354Q16.98999,4.4350945675354,16.95196,4.3547275675354005Q16.91394,4.2743595675354005,16.850540000000002,4.2120275675354Q16.83359,4.1953705675354005,16.81515,4.180395567535401Q16.677410000000002,4.0685715675354,16.5,4.0685715675354L16.49575,4.0685895675354Q16.475369999999998,4.0687625675354,16.45507,4.070594567535401L16.14345,4.2180355675354L12.5,7.923951567535401L8.85662,4.2181115675354Z" fill-rule="evenodd" fill="#666666" fill-opacity="1"/></g></svg>