<svg xmlns="http://www.w3.org/2000/svg" xmlns:xlink="http://www.w3.org/1999/xlink" fill="none" version="1.1" width="14" height="14" viewBox="0 0 14 14"><defs><clipPath id="master_svg0_2_10453"><rect x="0" y="0" width="14" height="14" rx="0"/></clipPath></defs><g clip-path="url(#master_svg0_2_10453)"><g><path d="M9.66667,0L13,3.33333L13,12.6721C13,13.0373,12.7034,13.3333,12.3377,13.3333L1.662267,13.3333C1.296507,13.3333,1,13.0298,1,12.6721L1,0.6612C1,0.296033,1.296633,0,1.662267,0L9.66667,0ZM6.33333,3.33333L6.33333,10L7.66667,10L7.66667,3.33333L6.33333,3.33333ZM9,6L9,10L10.33333,10L10.33333,6L9,6ZM3.66667,7.33333L3.66667,10L5,10L5,7.33333L3.66667,7.33333Z" fill="#FFFFFF" fill-opacity="1" style="mix-blend-mode:passthrough"/></g></g></svg>