<svg xmlns="http://www.w3.org/2000/svg" xmlns:xlink="http://www.w3.org/1999/xlink" fill="none" version="1.1" width="16" height="16" viewBox="0 0 16 16"><defs><clipPath id="master_svg0_2_05930"><rect x="0" y="0" width="16" height="16" rx="0"/></clipPath></defs><g clip-path="url(#master_svg0_2_05930)"><g><path d="M2.38417,5.51781580078125L1.588613,6.74611580078125L3.05611,7.65991580078125Q4.031750000000001,8.16251580078125,3.56409,9.10591580078125Q3.13136,9.99824580078125,1,11.95224580078125L2.90828,13.15089580078125C4.23064,10.26704580078125,4.14195,10.65138580078125,4.47253,9.61391580078125C4.81387,8.56031580078125,4.88913,7.75131580078125,4.31127,7.16271580078125C3.56946,6.41282580078125,3.48614,6.34294580078125,2.38417,5.51781580078125ZM3.42701,5.0555258007812505C4.12045,5.0555258007812505,4.68218,4.55023580078125,4.68218,3.92668580078125C4.68218,3.2977558007812497,4.12045,2.79246280078125,3.42701,2.79246280078125C2.72821,2.79246280078125,2.1691599999999998,3.30044280078125,2.1691599999999998,3.92668580078125C2.17185,4.54754580078125,2.72821,5.0555258007812505,3.42701,5.0555258007812505ZM14.7638,5.1952858007812495Q14.3472,1.9485228007812498,7.29193,3.95893580078125Q7.59567,3.42945580078125,7.73813,3.08811580078125L5.97766,2.58819580078125Q5.26541,4.9265158007812495,3.99681,6.01504580078125Q5.22779,6.72998580078125,5.21435,6.70844580078125C5.56644,6.353695800781249,5.88359,5.99354580078125,6.15236,5.64413580078125C6.43457,5.51781580078125,6.706,5.40224580078125,6.9694,5.29473580078125C6.64153,5.886025800781249,6.11742,6.77298580078125,5.59063,7.33204580078125L6.33244,7.98784580078125Q6.8404,7.49598580078125,7.3914,6.90738580078125L8.020330000000001,6.90738580078125L8.020330000000001,7.99858580078125L5.56375,7.99858580078125L5.56375,8.869385800781249L8.020330000000001,8.869385800781249L8.020330000000001,10.95778580078125L7.92627,10.95504580078125C7.6548,10.94164580078125,7.23553,10.89591580078125,7.06887,10.63251580078125C6.87,10.31004580078125,7.0178,9.72678580078125,7.02587,9.36391580078125L5.32992,9.36391580078125L5.2681,9.39891580078125Q4.644550000000001,12.20218580078125,7.0608,12.14038580078125C9.31847,12.20218580078125,10.614,11.50338580078125,11.2375,11.02224580078125L11.4848,11.95224580078125L12.8771,11.36358580078125L11.9337,9.04144580078125L10.8048,9.39891580078125L11.0145,10.19178580078125C10.72953,10.41218580078125,10.3936,10.57344580078125,10.03613,10.69438580078125L10.03613,8.869385800781249L12.4309,8.869385800781249L12.4309,7.99591580078125L10.03613,7.99591580078125L10.03613,6.90464580078125L12.4389,6.90464580078125L12.4389,6.03385580078125L8.16547,6.03385580078125C8.47453,5.6548858007812495,8.71373,5.30816580078125,8.77827,5.09046580078125L8.03107,4.88620580078125C11.2295,3.73048580078125,13.0114,3.92936580078125,12.998,5.8215258007812505L12.998,10.80458580078125Q13.1861,12.51398580078125,11.2402,12.39298580078125L10.1866,12.16451580078125L9.94207,13.17249580078125Q14.487,14.48409580078125,14.8579,10.96311580078125Q15.2261,7.44224580078125,14.7638,5.1952858007812495Z" fill="#000000" fill-opacity="0.44999998807907104" style="mix-blend-mode:passthrough"/></g></g></svg>