<svg xmlns="http://www.w3.org/2000/svg" xmlns:xlink="http://www.w3.org/1999/xlink" fill="none" version="1.1" width="38" height="37.81817626953125" viewBox="0 0 38 37.81817626953125"><g><path d="M0 6C4.90527396329193e-16 2.686291501015239 2.6862915010152397 0 6 0L32 0C35.31370849898476 0 38 2.6862915010152397 38 6L38 31.818180084228516C38 35.131888583213275 35.31370849898476 37.818180084228516 32 37.818180084228516L6 37.818180084228516C2.6862915010152397 37.818180084228516 0 35.131888583213275 0 31.818180084228516Z" fill="#FCF5EA" fill-opacity="1"/><g><path d="M12.653846,13.9065933L12.653846,14.9505491L23.093407,14.9505491L23.093407,13.9065943L12.653846,13.9065933ZM14.7417583,9L21.005494,9C21.318682000000003,9,21.527472,9.20879112,21.527472,9.5219779L21.527472,10.565933900000001C21.527472,10.8791207,21.318682000000003,11.0879121,21.005494,11.0879121L14.7417583,11.0879121C14.4285722,11.0879121,14.219780400000001,10.8791207,14.219780400000001,10.5659343L14.219780400000001,9.52197814C14.219780400000001,9.31318703,14.4285722,9.00000023894256,14.7417583,9ZM27.582418,21.945056L23.71978,23.928570999999998L19.857143999999998,21.945053C19.961537999999997,21.840657999999998,20.065934,21.736264,20.17033,21.736264L22.989012000000002,20.17033C23.406594,19.961537,23.928573,19.961537,24.241758,20.17033L27.06044,21.736264C27.373627,21.736264,27.478022,21.840657999999998,27.582418,21.945056ZM23.197803,29.46154C23.093407,29.46154,23.093407,29.46154,22.98901,29.357143L20.170329000000002,27.895605C19.648352,27.686813,19.335165,27.164835,19.335165,26.538464L19.335165,23.093409L19.335165,22.884617L23.093406,24.868132L23.093406,29.46154L23.197803,29.46154ZM24.241756000000002,29.46154L24.241756000000002,24.868132L28,22.884617L28,26.538462C28,27.060438,27.686813,27.582417,27.164835,27.895603L24.346152,29.357141C24.346152,29.357141,24.241756000000002,29.357141,24.241756000000002,29.46154ZM23.093406,18.9175825L23.093406,18.1868124L12.6538444,18.1868124L12.6538444,19.23077L22.571426000000002,19.23077L19.752745,20.692306000000002C19.230767999999998,20.901097999999998,18.3956022,21.423078,18.3956022,22.049450999999998L12.653846,22.049450999999998L12.653846,23.093406L18.3956041,23.093406L18.3956041,28.20879L10.5659341,28.20879C9.73076934,28.20879,9,27.47802,9,26.642857L9,11.0879121C9,10.2527474,9.73076934,9.52197814,10.5659341,9.52197814L13.175824200000001,9.52197814L13.175824200000001,10.565933900000001C13.175824200000001,11.4010987,13.9065933,12.1318679,14.7417583,12.1318679L21.005494,12.1318679C21.84066,12.1318679,22.571427999999997,11.4010987,22.571427999999997,10.565933900000001L22.571427999999997,9.52197814L25.181318,9.52197814C26.016483,9.52197814,26.747252,10.2527474,26.747252,11.0879121L26.747252,20.274724L24.346152,19.021977C24.032966000000002,18.8131886,23.615384,18.8131886,23.093406,18.9175825Z" fill="#EBA941" fill-opacity="1" style="mix-blend-mode:passthrough"/></g></g></svg>