<svg xmlns="http://www.w3.org/2000/svg" xmlns:xlink="http://www.w3.org/1999/xlink" fill="none" version="1.1" width="38" height="37.909088134765625" viewBox="0 0 38 37.909088134765625"><g><g><g><path d="M0 6C4.90527396329193e-16 2.686291501015239 2.6862915010152397 0 6 0L32 0C35.31370849898476 0 38 2.6862915010152397 38 6L38 31.818180084228516C38 35.131888583213275 35.31370849898476 37.818180084228516 32 37.818180084228516L6 37.818180084228516C2.6862915010152397 37.818180084228516 0 35.131888583213275 0 31.818180084228516Z" fill="#EBF0FF" fill-opacity="1"/></g></g><path d="M24.961992000000002,11.5309818L14.8910694,16.4438086L14.8910694,19.2305C14.8911119,19.403267,14.7120008,19.517837,14.555171,19.445362L13.2723908,18.8528366C13.1885805,18.8141632,13.1349077,18.7302818,13.1349082,18.6379757L13.1349082,15.6351204L23.203346,10.7221754L19.822589999999998,9.15768537C19.369678,8.94743821,18.6302032,8.94743821,18.177171700000002,9.15768537L10.2015042,13.0029488C9.53834444,13.3103333,8.9976412824,14.1769962,9.0000075960343,14.9303126L9.020831181,23.942543999999998C9.023197494,24.70509,9.57774365,25.571753,10.2501323,25.872156L18.200480499999998,29.560297C18.639432,29.754333,19.355834,29.754333,19.794904000000002,29.560297L27.749868,25.872156C28.424623,25.571634,28.976803,24.70509,28.97917,23.942543999999998L28.999992,14.930193899999999C29.002357,14.176877000000001,28.45929,13.3080845,27.796011,13.002947800000001L24.961992000000002,11.5309818ZM19.184632,26.999588L27.507441,23.294173999999998C27.745668,23.190522,28.022919,23.298295,28.128597,23.535635C28.234274,23.772973999999998,28.128868,24.051130999999998,27.892439,24.158827000000002L19.56975,27.864477C19.331523,27.968113,19.05429,27.860336,18.948616,27.623007C18.8429422,27.385675,18.948336599999998,27.107531,19.184751,26.999825L19.184632,26.999588ZM26.051682,19.100354L25.56422,19.336157L25.554754,22.897107C25.554754,23.051983,25.42082,23.236792,25.258965,23.31074L24.528955,23.638947C24.369346999999998,23.710528,24.240028000000002,23.645809,24.240028000000002,23.488687L24.237662999999998,19.973881L23.766294000000002,20.200336999999998C23.544452,20.306704,23.403419,20.140233000000002,23.514281,19.897686L24.644433,17.4272518C24.75766,17.1777239,25.044222,17.0344439,25.15745,17.168495200000002L26.31517,18.538828799999997C26.430647,18.677495,26.282751,18.9872456,26.051682,19.100354ZM21.286749,24.819739C21.289115000000002,24.969999,21.166539,25.14558,21.016396999999998,25.212547L20.339275999999998,25.515434C20.191381,25.582283,20.071173,25.517683,20.068925,25.36754L20.027276999999998,22.00051L19.590573,22.210757C19.384823,22.310142,19.253138,22.148405,19.354889,21.917334L20.380805000000002,19.567227000000003C20.484921999999997,19.329176,20.748294,19.197490000000002,20.856908,19.326810000000002L21.949908999999998,20.655496C22.058523,20.787299,21.924472,21.083089,21.711858,21.187089L21.263559,21.406683L21.286749,24.819739Z" fill="#678FFF" fill-opacity="1" style="mix-blend-mode:passthrough"/></g></svg>