<svg xmlns="http://www.w3.org/2000/svg" xmlns:xlink="http://www.w3.org/1999/xlink" fill="none" version="1.1" width="38" height="37.81817626953125" viewBox="0 0 38 37.81817626953125"><defs><clipPath id="master_svg0_55_24284"><rect x="9" y="8.909088134765625" width="20" height="20" rx="0"/></clipPath></defs><g><path d="M0 6C4.90527396329193e-16 2.686291501015239 2.6862915010152397 0 6 0L32 0C35.31370849898476 0 38 2.6862915010152397 38 6L38 31.818180084228516C38 35.131888583213275 35.31370849898476 37.818180084228516 32 37.818180084228516L6 37.818180084228516C2.6862915010152397 37.818180084228516 0 35.131888583213275 0 31.818180084228516Z" fill="#FCF5EA" fill-opacity="1"/><g clip-path="url(#master_svg0_55_24284)"><path d="M21.966280296875,14.564084979492186L21.966280296875,21.314085979492187C21.963465296875,21.499255979492187,21.779318296874997,21.626695979492187,21.605029296875,21.564085979492187L19.283779096875,20.610334979492187C19.106902096875,20.532806979492186,18.905657796874998,20.532806979492186,18.728778796874998,20.610334979492187L16.407528896875,21.564085979492187C16.232370896875,21.63381097949219,16.042739396875,21.502578979492185,16.046278496875,21.314085979492187L16.046278496875,14.564085479492189L9.623779296875,14.564085479492189L9.623779296875,27.795335979492187C9.624464941035,28.080167979492188,9.855196576875,28.310899979492188,10.140029246875,28.311585979492186L27.858778296875,28.311585979492186C28.143612296875,28.310899979492188,28.374342296875,28.080167979492188,28.375028296875,27.795335979492187L28.375028296875,14.564084979492186L21.966280296875,14.564084979492186ZM28.350029296875,13.829085379492188C28.334287296875,13.748638179492188,28.298614296875,13.673425679492187,28.246278296875,13.610335379492188L25.086280296875,9.702835229492187C24.986834296875,9.583961918492188,24.841203296875,9.513421297092188,24.686279296875,9.509085226059188L13.377529596875,9.509085226059188C13.224424096875,9.508342409102188,13.078513396875,9.574002169492188,12.977529496875,9.689085249492187L9.741279266875,13.609085079492187C9.688942908875,13.672175879492187,9.653270721875,13.747388379492188,9.637529277875,13.827835079492187L28.348779296875,13.827835079492187L28.350029296875,13.829085379492188Z" fill="#969696" fill-opacity="1" style="mix-blend-mode:passthrough"/><path d="M21.966280296875,14.564084979492186L21.966280296875,21.314085979492187C21.963465296875,21.499255979492187,21.779318296874997,21.626695979492187,21.605029296875,21.564085979492187L19.283779096875,20.610334979492187C19.106902096875,20.532806979492186,18.905657796874998,20.532806979492186,18.728778796874998,20.610334979492187L16.407528896875,21.564085979492187C16.232370896875,21.63381097949219,16.042739396875,21.502578979492185,16.046278496875,21.314085979492187L16.046278496875,14.564085479492189L9.623779296875,14.564085479492189L9.623779296875,27.795335979492187C9.624464941035,28.080167979492188,9.855196576875,28.310899979492188,10.140029246875,28.311585979492186L27.858778296875,28.311585979492186C28.143612296875,28.310899979492188,28.374342296875,28.080167979492188,28.375028296875,27.795335979492187L28.375028296875,14.564084979492186L21.966280296875,14.564084979492186ZM28.350029296875,13.829085379492188C28.334287296875,13.748638179492188,28.298614296875,13.673425679492187,28.246278296875,13.610335379492188L25.086280296875,9.702835229492187C24.986834296875,9.583961918492188,24.841203296875,9.513421297092188,24.686279296875,9.509085226059188L13.377529596875,9.509085226059188C13.224424096875,9.508342409102188,13.078513396875,9.574002169492188,12.977529496875,9.689085249492187L9.741279266875,13.609085079492187C9.688942908875,13.672175879492187,9.653270721875,13.747388379492188,9.637529277875,13.827835079492187L28.348779296875,13.827835079492187L28.350029296875,13.829085379492188Z" fill="#EBA941" fill-opacity="1" style="mix-blend-mode:passthrough"/></g></g></svg>