<svg xmlns="http://www.w3.org/2000/svg" xmlns:xlink="http://www.w3.org/1999/xlink" fill="none" version="1.1" width="38" height="37.81817626953125" viewBox="0 0 38 37.81817626953125"><defs><clipPath id="master_svg0_55_24231"><rect x="9" y="10" width="20" height="20" rx="0"/></clipPath></defs><g><path d="M0 6C4.90527396329193e-16 2.686291501015239 2.6862915010152397 0 6 0L32 0C35.31370849898476 0 38 2.6862915010152397 38 6L38 31.818180084228516C38 35.131888583213275 35.31370849898476 37.818180084228516 32 37.818180084228516L6 37.818180084228516C2.6862915010152397 37.818180084228516 0 35.131888583213275 0 31.818180084228516Z" fill="#FCF5EA" fill-opacity="1"/><g clip-path="url(#master_svg0_55_24231)"><path d="M25.650066929687497,15.1550002L25.650066929687497,11.145C25.650066929687497,10.50874996,25.1413169296875,10.063749984,24.5688169296875,10L19.4763164296875,10C18.8413171296875,10,18.3963165296875,10.50875002,18.3963165296875,11.145L18.3963165296875,13.8174999C19.208814629687502,13.510925799999999,20.0717430296875,13.3599663,20.9400659296875,13.372499900000001C22.6750669296875,13.372499900000001,24.3488169296875,14.0062499,25.6488169296875,15.1550002L25.650066929687497,15.1550002ZM13.8125667296875,19.6087503C13.8825667296875,19.13375,13.9888167296875,18.6662502,14.1325667296875,18.2087507L11.3375666296875,18.2087507C10.7013165996875,18.2087507,10.2563164718875,18.717500700000002,10.2563164718875,19.3537502L10.2563164718875,24.445C10.2563164718875,25.08125,10.7650664996875,25.526249999999997,11.3375666296875,25.589999L15.7288165296875,25.589999C15.5418148296875,25.415385,15.3714947296875,25.223723,15.2200665296875,25.017499C14.0734775296875,23.462346,13.5694675296875,21.525534,13.8125667296875,19.6087503ZM27.5588189296875,27.30875L25.5863169296875,24.76375C25.637850929687502,24.665868,25.6599879296875,24.555175,25.650066929687497,24.445L25.650066929687497,24.189999999999998C27.2859379296875,22.040154,27.2597139296875,19.0557671,25.5863169296875,16.934999L25.5225679296875,16.8124995C23.7400679296875,14.6500001,20.7500679296875,14.0125003,18.3325672296875,15.158750099999999C18.0438170296875,15.28125,17.7663169296875,15.4300003,17.5050664296875,15.6025004C17.409118629687498,15.650171799999999,17.322697129687498,15.7149882,17.2500663296875,15.7937503C16.6668896296875,16.2289138,16.1704077296875,16.7694893,15.7863164296875,17.3875003C15.6638164296875,17.6425004,15.467566529687499,17.8962502,15.3413162296875,18.2150002C14.5138163296875,20.1175,14.770066229687501,22.472501,16.1038165296875,24.255000000000003C16.423816729687502,24.63625,16.7413168296875,25.017501,17.1238165296875,25.27375C19.0325670296875,26.80125,21.7688169296875,26.990002,23.9325669296875,25.71875L26.032566929687498,28.453751C26.1931359296875,28.651796,26.4184549296875,28.78681,26.6688179296875,28.835001C26.9150659296875,28.840002,27.1588169296875,28.77375,27.3688159296875,28.643751C27.5666119296875,28.483496,27.7016029296875,28.258661,27.7500669296875,28.008749C27.7550349296875,27.761869,27.6886249296875,27.518805,27.5588189296875,27.30875ZM23.6763179296875,24.189999999999998C22.0825679296875,25.398749000000002,19.921317129687502,25.462501,18.3313179296875,24.38125C18.0275750296875,24.183066,17.7496147296875,23.947934,17.5038175296875,23.681251C17.399948129687502,23.591578,17.313502329687502,23.483521,17.2488174296875,23.3625C16.1181235296875,21.893178,15.9683127296875,19.8925819,16.8675670296875,18.2712507C17.1650672296875,17.7224998,17.5788178296875,17.2462502,18.0800671296875,16.8724999C20.1010847296875,15.3261027,22.9930449296875,15.7108583,24.5394419296875,17.7318759C26.0858409296875,19.752893399999998,25.7010849296875,22.644854000000002,23.6800669296875,24.191251L23.6763179296875,24.189999999999998ZM11.3388164296875,17.3812499L14.4500665296875,17.3812499C14.947184529687501,16.4026613,15.6402998296875,15.536799,16.486316729687502,14.8375001C16.8013167296875,14.5900002,17.142566729687502,14.377500099999999,17.5050664296875,14.2049999L17.5050664296875,11.145C17.5074186296875,10.85760039,17.3922767296875,10.58171082,17.1863165296875,10.38124999C16.9788136296875,10.18589288,16.7073812296875,10.072610877,16.4225669296875,10.0625L11.3375666296875,10.0625C10.7013163896875,10.0625,10.2563163763875,10.57125002,10.2563163763875,11.2075L10.2563163763875,16.2987499C10.1863163856875,16.8737502,10.6963164796875,17.3812499,11.3375666296875,17.3812499L11.3388164296875,17.3812499Z" fill="#FFA429" fill-opacity="1" style="mix-blend-mode:passthrough"/></g></g></svg>