<svg xmlns="http://www.w3.org/2000/svg" xmlns:xlink="http://www.w3.org/1999/xlink" fill="none" version="1.1" width="38" height="37.81817626953125" viewBox="0 0 38 37.81817626953125"><g><path d="M0 6C4.90527396329193e-16 2.686291501015239 2.6862915010152397 0 6 0L32 0C35.31370849898476 0 38 2.6862915010152397 38 6L38 31.818180084228516C38 35.131888583213275 35.31370849898476 37.818180084228516 32 37.818180084228516L6 37.818180084228516C2.6862915010152397 37.818180084228516 0 35.131888583213275 0 31.818180084228516Z" fill="#FCF5EA" fill-opacity="1"/><g><path d="M24.493304000000002,9L9.91741073,9C9.4107143,9.002232143,9.002232143,9.41741073,9,9.93303573L9,27.566965C9.002232143,28.080359,9.4107143,28.497768,9.91741073,28.5L19.633929000000002,28.5C20.261161,28.5,20.546875999999997,27.698662,20.062500999999997,27.294643C18.7700901,26.216518,17.96875,24.578125999999997,17.9799109,22.783483C17.9888401,19.566965,20.55134,16.9620538,23.716518,16.9531255C24.026787,16.9531255,24.334822000000003,16.9776788,24.640625999999997,17.0267859C25.044643,17.091518399999998,25.408484,16.7678576,25.408484,16.3526788L25.408484,9.93303573C25.408484,9.41741073,24.997768,9.002232143,24.493304000000002,9ZM13.1428576,22.100447000000003L11.1294644,22.100447000000003C10.7589287,22.100447000000003,10.4575894,21.794643,10.4575894,21.417411C10.4575894,21.040179000000002,10.7589287,20.734375999999997,11.1294644,20.734375999999997L13.1428576,20.734375999999997C13.5133929,20.734375999999997,13.8147326,21.040179000000002,13.8147326,21.417411C13.8147326,21.794643,13.515625,22.100447000000003,13.1428576,22.100447000000003ZM16.5000005,18.091518399999998L11.1316965,18.091518399999998C10.7611609,18.091518399999998,10.4598215,17.7857151,10.4598215,17.4084826C10.4598215,17.03125,10.7611609,16.7254467,11.1316965,16.7254467L16.5000005,16.7254467C16.8705359,16.7254467,17.171875,17.03125,17.171875,17.4084826C17.169643399999998,17.7857151,16.8705359,18.091518399999998,16.5000005,18.091518399999998ZM18.1785717,14.5959826L11.1316965,14.5959826C10.7611609,14.5959826,10.4598215,14.2901788,10.4598215,13.912946699999999C10.4598215,13.5357146,10.7611609,13.2299109,11.1316965,13.2299109L18.1785717,13.2299109C18.5491076,13.2299109,18.8504467,13.5357146,18.8504467,13.912946699999999C18.8504467,14.2901788,18.5491076,14.5959826,18.1785717,14.5959826Z" fill="#EBA941" fill-opacity="1" style="mix-blend-mode:passthrough"/><path d="M24.176340152624512,18.162946701049805C21.51116155262451,18.162946701049805,19.35267925262451,20.361607601049805,19.35267925262451,23.075893401049804C19.35267925262451,25.787947201049803,21.51339365262451,27.988840101049803,24.176340152624512,27.988840101049803C26.84151885262451,27.988840101049803,29.00000095262451,25.790179301049804,29.00000095262451,23.075893401049804C29.00000095262451,20.361607601049805,26.83928685262451,18.162946701049805,24.176340152624512,18.162946701049805ZM25.97544715262451,23.995536301049803L23.87500095262451,23.995536301049803C23.54241185262451,23.995536301049803,23.27232215262451,23.720982601049805,23.27232215262451,23.381696701049805L23.27232215262451,21.540179001049804C23.27232215262451,21.200893201049805,23.54241185262451,20.926339601049804,23.87500095262451,20.926339601049804C24.207590152624512,20.926339601049804,24.47767925262451,21.200893201049805,24.47767925262451,21.540179001049804L24.47767925262451,22.767857601049805L25.97544715262451,22.767857601049805C26.30803685262451,22.767857601049805,26.57812595262451,23.042411301049803,26.57812595262451,23.381696701049805C26.57812595262451,23.720982601049805,26.30803685262451,23.995536301049803,25.97544715262451,23.995536301049803Z" fill="#EBA941" fill-opacity="1" style="mix-blend-mode:passthrough"/></g></g></svg>