<svg xmlns="http://www.w3.org/2000/svg" xmlns:xlink="http://www.w3.org/1999/xlink" fill="none" version="1.1" width="38" height="37.81817626953125" viewBox="0 0 38 37.81817626953125"><g><path d="M0 6C4.90527396329193e-16 2.686291501015239 2.6862915010152397 0 6 0L32 0C35.31370849898476 0 38 2.6862915010152397 38 6L38 31.818180084228516C38 35.131888583213275 35.31370849898476 37.818180084228516 32 37.818180084228516L6 37.818180084228516C2.6862915010152397 37.818180084228516 0 35.131888583213275 0 31.818180084228516Z" fill="#DBF7FF" fill-opacity="1"/><g><path d="M26.008364,7.909088134765625L11.9926596,7.909088134765625C10.8936497,7.909088134765625,10,8.824247004765624,10,9.948350634765625L10,27.747089134765623C10,28.054361134765625,10.24325705,28.303251134765624,10.54335946,28.303251134765624C10.57408684,28.303251134765624,10.60327733,28.300178134765623,10.63246828,28.295057134765624C10.66319567,28.300691134765625,10.69392264,28.303251134765624,10.72465003,28.303251134765624C10.84243745,28.303251134765624,10.96073771,28.264330134765626,11.0606009,28.183925134765627L13.7845678,26.380239134765624L16.0220208,28.183925134765627C16.2191873,28.342684134765626,16.497267700000002,28.342684134765626,16.6944342,28.183925134765627L19.0158749,26.312641134765624L21.266132,28.126568134765623C21.463299,28.285326134765626,21.741379000000002,28.285326134765626,21.938546000000002,28.126568134765623L24.174463,26.324419134765623L26.939398,28.160881134765624C27.045919,28.246916134765623,27.17395,28.284813134765624,27.299419,28.279178134765626C27.349094,28.294542134765624,27.401842,28.303249134765625,27.45664,28.303249134765625C27.756741,28.303249134765625,28,28.054359134765626,28,27.747087134765625L28,9.948863034765624C28.001024,8.824247004765624,27.106861,7.909088134765625,26.008364,7.909088134765625Z" fill="#00B6FF" fill-opacity="1" style="mix-blend-mode:passthrough"/><path d="M24.921154278320312,13.748282913983154C24.921154278320312,14.054530563983155,24.672775278320312,14.302397413983154,24.367039278320313,14.302397413983154L13.634024198320313,14.302396313983154C13.327776548320312,14.302396313983154,13.079910278320312,14.054017783983154,13.079910278320312,13.748281953983154C13.079910278320312,13.442034363983154,13.328288408320313,13.194167613983154,13.634024198320313,13.194167613983154L24.36755227832031,13.194167613983154C24.673287278320313,13.194168590774895,24.921154278320312,13.442034363983154,24.921154278320312,13.748282913983154Z" fill="#FFFFFF" fill-opacity="1" style="mix-blend-mode:passthrough"/><path d="M24.921154278320312,17.230187420666503C24.921154278320312,17.536435070666503,24.672775278320312,17.784301920666504,24.367039278320313,17.784301920666504L13.634024198320313,17.784300820666505C13.327776548320312,17.784300820666505,13.079910278320312,17.535922290666505,13.079910278320312,17.230186460666506C13.079910278320312,16.923938870666504,13.328288408320313,16.676072120666504,13.634024198320313,16.676072120666504L24.36755227832031,16.676072120666504C24.673287278320313,16.676073097458243,24.921154278320312,16.923938870666504,24.921154278320312,17.230187420666503Z" fill="#FFFFFF" fill-opacity="1" style="mix-blend-mode:passthrough"/><path d="M21.515553478320314,20.712092464187013C21.515553478320314,21.018340114187012,21.267174678320313,21.26620590418701,20.961439578320313,21.26620590418701L13.634024138320312,21.26620590418701C13.327776538320313,21.26620590418701,13.079910278320312,21.01782733418701,13.079910278320312,20.71209150418701C13.079910278320312,20.40584388418701,13.328288388320313,20.15797710418701,13.634024138320312,20.15797710418701L20.96195077832031,20.15797710418701C21.26768777832031,20.15797808097875,21.515553478320314,20.40635669418701,21.515553478320314,20.712092464187013Z" fill="#FFFFFF" fill-opacity="1" style="mix-blend-mode:passthrough"/></g></g></svg>