<svg xmlns="http://www.w3.org/2000/svg" xmlns:xlink="http://www.w3.org/1999/xlink" fill="none" version="1.1" width="38" height="37.81817626953125" viewBox="0 0 38 37.81817626953125"><g><path d="M0 6C4.90527396329193e-16 2.686291501015239 2.6862915010152397 0 6 0L32 0C35.31370849898476 0 38 2.6862915010152397 38 6L38 31.818180084228516C38 35.131888583213275 35.31370849898476 37.818180084228516 32 37.818180084228516L6 37.818180084228516C2.6862915010152397 37.818180084228516 0 35.131888583213275 0 31.818180084228516Z" fill="#DBF7FF" fill-opacity="1"/><path d="M28.540222,11.2292235L27.152634,9.54911852C26.87376,9.19790713,26.448252,8.9952575369,25.999811,9.000084269544L16.0001879,9.000084269544C15.5499949,8.9978451072,15.1230388,9.19973888,14.8391147,9.54911852L13.459028199999999,11.2292235C13.1604438,11.5850623,12.997787,12.0352931,12.9999995,12.4998028L12.9999995,23.00046C13.0028844,24.104036999999998,13.8967953,24.99795,15.0003753,25.000835L27.001125,25.000835C28.104118,24.997126,28.997118,24.103456,29,23.00046L29,12.4998024C29,12.0197725,28.83049,11.5697443,28.540972,11.2307229L28.540972,11.229223300000001L28.540222,11.2292235ZM10.9996252,13.0000839L10.9996252,27.001957L25.001501,27.001957L25.001501,29.000834L10.998875,29.000834C9.89646465,28.997131,9.003703611,28.104372,9,27.001957L9,13.0000839L10.998875,13.0000839L10.9996252,13.0000839ZM24.181699000000002,14.5001779L25.594038,15.914766799999999L19.937184000000002,21.572371L18.5240955,20.157781999999997L18.5240955,20.154033L16.411963,18.041899700000002L17.8265514,16.6280613L19.940184000000002,18.7416935L24.183199000000002,14.5001779L24.181699000000002,14.5001779ZM25.930058,9.99989706L26.871368,10.9997096L15.1203823,10.9997096L15.9296823,9.99989706L25.931559,9.99989706L25.929306,9.99989706L25.930058,9.99989706Z" fill="#00B6FF" fill-opacity="1" style="mix-blend-mode:passthrough"/></g></svg>