<svg xmlns="http://www.w3.org/2000/svg" xmlns:xlink="http://www.w3.org/1999/xlink" fill="none" version="1.1" width="38" height="37.81817626953125" viewBox="0 0 38 37.81817626953125"><g><path d="M0 6C4.90527396329193e-16 2.686291501015239 2.6862915010152397 0 6 0L32 0C35.31370849898476 0 38 2.6862915010152397 38 6L38 31.818180084228516C38 35.131888583213275 35.31370849898476 37.818180084228516 32 37.818180084228516L6 37.818180084228516C2.6862915010152397 37.818180084228516 0 35.131888583213275 0 31.818180084228516Z" fill="#EBF0FF" fill-opacity="1"/><g><g><path d="M17.5672989,8C15.201534299999999,8,13.2759104,9.5375528,13.165875,12.3803663L12.2525795,12.3803663C11.4383161,12.3803663,10.7010772,12.9887509,10.6020451,13.7409353L9.017532432,24.879898C8.87448615,26.06348,9.62272829,27.059019,10.67907,27.059019L18.8657179,27.059019C18.6126394,26.406391,18.4695902,25.687389,18.4695902,24.946266C18.4695902,21.727362,21.066431,19.127901,24.257464,19.127901C24.64259,19.127901,25.005705,19.161085999999997,25.368824,19.238517L24.587571,13.7630582C24.499543,12.9998126,23.762303,12.4024901,22.937037,12.4024901L21.968722,12.4024901C21.858687,9.5375528,19.933065,8,17.5672989,8ZM17.567439999999998,9.7918701C18.9208784,9.7918701,20.032238,10.588300499999999,20.098259,12.2143459L15.0366211,12.2143459C15.1026425,10.588300499999999,16.214002100000002,9.7918701,17.567439999999998,9.7918701ZM13.6166964,14.4377747C14.2218924,14.4377747,14.706049,14.9355435,14.706049,15.566051C14.706049,16.1854963,14.2218924,16.6943274,13.6166964,16.6943274C13.0115004,16.6943274,12.5273438,16.196558,12.5273438,15.566051C12.5273438,14.9466052,13.0115004,14.4377747,13.6166964,14.4377747ZM21.638669,14.4377747C22.243865,14.4377747,22.728022,14.9355435,22.728022,15.566051C22.728022,16.1854963,22.243865,16.6943274,21.638669,16.6943274C21.033473,16.6943274,20.549315999999997,16.196558,20.549315999999997,15.566051C20.549315999999997,14.9466052,21.033473,14.4377747,21.638669,14.4377747ZM24.257671000000002,20.178711C21.638824,20.178711,19.515137,22.313586,19.515137,24.946232C19.515137,27.578876,21.638824,29.713753,24.257671000000002,29.713753C26.876518,29.713753,29.000206,27.578876,29.000206,24.946232C29.000206,22.302525,26.876518,20.178711,24.257671000000002,20.178711ZM24.752783,22.169744C24.763786,21.937452,24.587729,21.760468,24.389666,21.760468L23.806477,21.760468C23.619416,21.760468,23.465366,21.915329,23.443359,22.114435999999998L23.443359,25.908543C23.443359,26.107649,23.586406,26.284634,23.762463,26.306757L24.389666,26.306757C24.576726,26.306757,24.730776,26.151896,24.752783,25.952787L24.752783,22.169744ZM26.732763,23.630000000000003C26.732763,23.441955,26.567711,23.276031,26.369646,23.276031L25.786457,23.276031C25.588394,23.276031,25.42334,23.430892999999998,25.42334,23.630000000000003L25.42334,25.94186C25.42334,26.140968,25.588394,26.29583,25.786457,26.29583L26.369646,26.29583C26.567711,26.30689,26.732763,26.140968,26.732763,25.94186L26.732763,23.630000000000003ZM22.948584,24.48163C22.948584,24.238277,22.78353,24.039169,22.585466,24.039169L22.002277,24.039169C21.804214,24.039169,21.63916,24.238277,21.63916,24.48163L21.63916,25.875383C21.63916,26.118736,21.804214,26.317844,22.002277,26.317844L22.585466,26.317844C22.78353,26.317844,22.948584,26.118736,22.948584,25.875383L22.948584,24.48163ZM26.898708,26.870861C26.898708,26.771307,26.81068,26.682816,26.711647,26.682816L21.815063000000002,26.682816C21.727035,26.682816,21.661014,26.749186,21.639007,26.826616C21.616999,26.937231,21.683021,27.036785,21.782052999999998,27.058908L26.711647,27.058908C26.81068,27.058908,26.898708,26.970415,26.898708,26.870861Z" fill-rule="evenodd" fill="#678FFF" fill-opacity="1"/></g></g></g></svg>