<svg xmlns="http://www.w3.org/2000/svg" xmlns:xlink="http://www.w3.org/1999/xlink" fill="none" version="1.1" width="16" height="14.666656494140625" viewBox="0 0 16 14.666656494140625"><g><path d="M15.407408,14.666667L0.5925926,14.666667C0.26531273,14.666667,0,14.36819,0,14L0,0.66666669C0,0.29847685,0.26531273,0,0.5925926,0C0.91987246,0,1.1851852,0.29847685,1.1851852,0.66666669L1.1851852,13.333333L15.407408,13.333333C15.734687,13.333333,16,13.63181,16,14C16,14.36819,15.734687,14.666667,15.407408,14.666667Z" fill="#0064FF" fill-opacity="1"/><path d="M3.389036958279419,9.3333334958313C3.141437348279419,9.333731695831299,2.9197172382794188,9.1609062958313,2.833068687279419,8.8999700958313C2.746420137279419,8.639033795831299,2.813110469279419,8.344996895831299,3.000296238279419,8.1626667958313L6.722370358279418,4.532666695831299C6.947511458279419,4.312887195831299,7.2827265582794185,4.315456495831299,7.505184858279419,4.538666695831299L10.692740658279419,7.735333395831299L14.93511165827942,2.603999955831299C15.158151658279419,2.334300934831299,15.53330465827942,2.319078623831299,15.773037658279419,2.569999995831299C16.01276865827942,2.820921365831299,16.026300658279418,3.242967545831299,15.803258658279418,3.512666595831299L11.16562965827942,9.1213330958313C10.946318858279419,9.3872465958313,10.57808895827942,9.406521295831299,10.33777785827942,9.164666695831299L7.105185258279419,5.924666595831299L3.776592548279419,9.1713332958313C3.668994068279419,9.276133995831298,3.5313584782794187,9.3336662958313,3.389036958279419,9.3333334958313Z" fill="#0064FF" fill-opacity="1"/></g></svg>