<svg xmlns="http://www.w3.org/2000/svg" xmlns:xlink="http://www.w3.org/1999/xlink" fill="none" version="1.1" width="16" height="16.000001907348633" viewBox="0 0 16 16.000001907348633"><defs><clipPath id="master_svg0_123_58233"><rect x="0" y="0" width="16" height="16.000001907348633" rx="0"/></clipPath></defs><g clip-path="url(#master_svg0_123_58233)"><g><path d="M8.00016609375,14.6692375C4.31826609375,14.6692375,1.33349609375,11.6844375,1.33349609375,8.0026075C1.33349609375,4.3207075,4.31826609375,1.3359375,8.00016609375,1.3359375C11.68199609375,1.3359375,14.66679609375,4.3207075,14.66679609375,8.0026075C14.66679609375,11.6844375,11.68199609375,14.6692375,8.00016609375,14.6692375ZM8.00016609375,7.0598075L6.11454609375,5.1741775L5.17173609375,6.1169875L7.05736609375,8.0026075L5.17173609375,9.8882075L6.11454609375,10.8310075L8.00016609375,8.9454075L9.88576609375,10.8310075L10.82856609375,9.8882075L8.94296609375,8.0026075L10.82856609375,6.1169875L9.88576609375,5.1741775L8.00016609375,7.0598075Z" fill="#999999" fill-opacity="1"/></g><g><path d="M178.00016609375,14.6692375C174.31826609375,14.6692375,171.33349609375,11.6844375,171.33349609375,8.0026075C171.33349609375,4.3207075,174.31826609375,1.3359375,178.00016609375,1.3359375C181.68199609375,1.3359375,184.66679609375,4.3207075,184.66679609375,8.0026075C184.66679609375,11.6844375,181.68199609375,14.6692375,178.00016609375,14.6692375ZM178.00016609375,7.0598075L176.11454609375,5.1741775L175.17173609375,6.1169875L177.05736609375,8.0026075L175.17173609375,9.8882075L176.11454609375,10.8310075L178.00016609375,8.9454075L179.88576609375,10.8310075L180.82856609375,9.8882075L178.94296609375,8.0026075L180.82856609375,6.1169875L179.88576609375,5.1741775L178.00016609375,7.0598075Z" fill="#999999" fill-opacity="1"/></g></g></svg>