<svg xmlns="http://www.w3.org/2000/svg" xmlns:xlink="http://www.w3.org/1999/xlink" fill="none" version="1.1" width="18" height="18.00048828125" viewBox="0 0 18 18.00048828125"><g><g><path d="M13.6146,1.28758C13.6146,2.00268,14.1846,2.57516,14.8945,2.57516C15.5943,2.57516,16.1745,2.00268,16.1745,1.28758C16.1745,0.572481,15.6065,0,14.8945,0C14.1826,0,13.6146,0.572481,13.6146,1.28758ZM14.0629,1.28771C14.0629,0.825712,14.4381,0.454102,14.8945,0.454102C15.3509,0.454102,15.7262,0.825712,15.7262,1.28771C15.7262,1.74972,15.3509,2.12133,14.8945,2.12133C14.4381,2.12133,14.0629,1.74972,14.0629,1.28771ZM4.93304,4.24461C4.93304,4.95971,5.50302,5.53219,6.21296,5.53219C6.91276,5.53219,7.49288,4.95971,7.49288,4.24461C7.49288,3.52951,6.9229,2.95703,6.21296,2.95703C5.51114,2.95703,4.93304,3.52951,4.93304,4.24461ZM5.40161,4.24419C5.40161,3.79223,5.76672,3.43066,6.21297,3.43066C6.65922,3.43066,7.02433,3.79223,7.02433,4.24419C7.02433,4.69615,6.65922,5.05771,6.21297,5.05771C5.76672,5.05771,5.40161,4.69615,5.40161,4.24419ZM9.26776,6.16453C9.26776,6.87963,9.83774,7.45211,10.5477,7.45211C11.2596,7.45211,11.8276,6.87963,11.8276,6.16453C11.8276,5.44943,11.2576,4.87695,10.5477,4.87695C9.84585,4.87695,9.26776,5.46149,9.26776,6.16453ZM9.7262,6.16439C9.7262,5.71243,10.0913,5.34082,10.5477,5.34082C11.0061,5.34082,11.3814,5.71243,11.3692,6.16439C11.3692,6.61635,11.0041,6.98796,10.5477,6.98796C10.0913,6.98796,9.7262,6.62639,9.7262,6.16439ZM2.00001,9.3525C1.29007,9.3525,0.720093,8.78002,0.720093,8.06492C0.720093,7.34982,1.29819,6.77734,2.00001,6.77734C2.70184,6.77734,3.27993,7.34982,3.27993,8.06492C3.27993,8.78002,2.70995,9.3525,2.00001,9.3525ZM1.99999,7.22168C1.53346,7.22168,1.1582,7.60333,1.1582,8.06534C1.1582,8.52734,1.53346,8.90899,1.99999,8.90899C2.46652,8.90899,2.84177,8.52734,2.84177,8.06534C2.84177,7.60333,2.46652,7.22168,1.99999,7.22168ZM0.557809,18.0003L17.4422,18.0003C17.7465,18.0003,18,17.7492,18,17.4479C18,17.1466,17.7465,16.8955,17.4422,16.8955L0.557809,16.8955C0.25355,16.8955,0,17.1466,0,17.4479C0,17.7492,0.25355,18.0003,0.557809,18.0003Z" fill-rule="evenodd" fill="#999999" fill-opacity="1"/></g><g><path d="M10.86509525905609,4.549295259056091L13.562935259056092,1.6983292590560912C13.701635259056092,1.5583799590560914,13.929635259056091,1.5483835590560913,14.068335259056092,1.6883322590560914C14.207135259056091,1.8182852590560914,14.217035259056091,2.058198259056091,14.078235259056092,2.1981472590560913L11.380465259056091,5.049105259056091C11.251625259056091,5.189055259056092,11.013755259056092,5.199055259056092,10.875005259056092,5.059105259056091C10.73624525905609,4.929155259056092,10.726335259056091,4.689245259056092,10.86509525905609,4.549295259056091ZM9.39624525905609,5.250805259056092L7.491325259056091,4.229175259056092C7.312925259056091,4.139215259056091,7.094885259056091,4.199185259056091,7.005685259056091,4.379125259056091C6.916485259056091,4.559055259056091,6.9759452590560915,4.778975259056091,7.154345259056091,4.868945259056091L9.05926525905609,5.890575259056091C9.23766525905609,5.9805452590560915,9.455705259056092,5.920565259056091,9.54490525905609,5.740625259056091C9.634105259056092,5.570685259056091,9.564725259056091,5.350765259056091,9.39624525905609,5.250805259056092ZM2.7478652590560912,6.502305259056091L5.128515259056091,4.630985259056091C5.287095259056091,4.499035259056091,5.517025259056091,4.529025259056091,5.633975259056092,4.6909652590560915C5.7628252590560916,4.850905259056091,5.733095259056092,5.080825259056091,5.574515259056091,5.200775259056091L3.193865259056091,7.072095259056091C3.0352852590560913,7.202045259056091,2.8073352590560914,7.172065259056091,2.688395259056091,7.012115259056091C2.5595532590560914,6.852175259056091,2.5892852590560915,6.622265259056091,2.7478652590560912,6.502305259056091ZM13.77293525905609,16.940835259056094C13.77293525905609,17.23073525905609,14.01083525905609,17.470635259056092,14.298235259056092,17.470635259056092C14.585635259056092,17.470635259056092,14.823535259056092,17.23073525905609,14.823535259056092,16.93883525905609L14.823535259056092,5.620975259056092C14.823535259056092,5.3310752590560915,14.585635259056092,5.091165259056091,14.298235259056092,5.091165259056091C14.01083525905609,5.091165259056091,13.77293525905609,5.3310752590560915,13.77293525905609,5.620975259056092L13.77293525905609,16.940835259056094ZM5.417945259056092,16.88093525905609C5.417945259056092,17.21083525905609,5.6855452590560915,17.47073525905609,6.002705259056091,17.47073525905609C6.319855259056092,17.47073525905609,6.5874552590560915,17.21083525905609,6.5874552590560915,16.878935259056092L6.5874552590560915,9.653605259056091C6.5874552590560915,9.323725259056092,6.319855259056092,9.063825259056092,6.002705259056091,9.063825259056092C5.675635259056091,9.063825259056092,5.417945259056092,9.333725259056092,5.417945259056092,9.653605259056091L5.417945259056092,16.88093525905609ZM9.197975259056092,16.488835259056092C9.197975259056092,16.838735259056094,9.475485259056091,17.11853525905609,9.822375259056091,17.11853525905609C10.169265259056091,17.11853525905609,10.446775259056091,16.838735259056094,10.446775259056091,16.488835259056092L10.446775259056091,10.594955259056091C10.446775259056091,10.245085259056092,10.169265259056091,9.965185259056092,9.822375259056091,9.965185259056092C9.475485259056091,9.965185259056092,9.197975259056092,10.245085259056092,9.197975259056092,10.594955259056091L9.197975259056092,16.488835259056092ZM1.5882352590560913,16.609235259056092C1.5882352590560913,16.88913525905609,1.8261022590560914,17.11903525905609,2.1036132590560914,17.11903525905609C2.381124259056091,17.11903525905609,2.618995259056091,16.88913525905609,2.5991652590560914,16.609235259056092L2.5991652590560914,12.486735259056092C2.5991652590560914,12.206835259056092,2.3712132590560913,11.976935259056091,2.093702259056091,11.976935259056091C1.8161902590560912,11.976935259056091,1.5882352590560913,12.206835259056092,1.5882352590560913,12.486735259056092L1.5882352590560913,16.609235259056092Z" fill-rule="evenodd" fill="#999999" fill-opacity="1"/></g></g></svg>