<svg xmlns="http://www.w3.org/2000/svg" xmlns:xlink="http://www.w3.org/1999/xlink" fill="none" version="1.1" width="10" height="10.9091796875" viewBox="0 0 10 10.9091796875"><g><g><path d="M9.16667,7.97203C9.16667,8.20364,9.35333,8.39161,9.58333,8.39161C9.81354,8.39161,10,8.20364,10,7.97203L10,0.839161C10,0.375734,9.62687,0,9.16667,0L2.91667,0C2.68646,0,2.5,0.187972,2.5,0.41958C2.5,0.651189,2.68646,0.839161,2.91667,0.839161L9.16667,0.839161L9.16667,7.97203ZM7.5,3.35674L7.5,10.07C7.5,10.5335,7.12687,10.9092,6.66667,10.9092L0.833333,10.9092C0.373125,10.9092,0,10.5335,0,10.07L0,3.35674C0,2.89331,0.373125,2.51758,0.833333,2.51758L6.66667,2.51758C7.12687,2.51758,7.5,2.89331,7.5,3.35674ZM0.833496,10.0697L6.66683,10.0697L6.66683,3.35645L0.833496,3.35645L0.833496,10.0697Z" fill-rule="evenodd" fill="#666666" fill-opacity="1"/></g></g></svg>