<svg xmlns="http://www.w3.org/2000/svg" xmlns:xlink="http://www.w3.org/1999/xlink" fill="none" version="1.1" width="16" height="14.66650390625" viewBox="0 0 16 14.66650390625"><g><g><g><path d="M15.4074,14.6667L0.592593,14.6667C0.265313,14.6667,0,14.3682,0,14L0,0.666667C0,0.298477,0.265313,0,0.592593,0C0.919872,0,1.18519,0.298477,1.18519,0.666667L1.18519,13.3333L15.4074,13.3333C15.7347,13.3333,16,13.6318,16,14C16,14.3682,15.7347,14.6667,15.4074,14.6667Z" fill="#999999" fill-opacity="1"/></g><g><path d="M3.389036658279419,9.333331195831299C3.141437658279419,9.333731195831298,2.919717658279419,9.1609111958313,2.833068658279419,8.899971195831299C2.746420158279419,8.639031195831299,2.813110458279419,8.345001195831298,3.000296658279419,8.1626711958313L6.722369658279419,4.532671195831298C6.947509658279419,4.312891195831298,7.282729658279419,4.315461195831299,7.505189658279419,4.538671195831299L10.692739658279418,7.735331195831299L14.935069658279419,2.604000195831299C15.15816965827942,2.3343008958312987,15.53326965827942,2.3190785958312987,15.773069658279418,2.570000195831299C16.012769658279417,2.820921195831299,16.026269658279418,3.242967195831299,15.803269658279419,3.512671195831299L11.16562965827942,9.1213311958313C10.94631965827942,9.387251195831299,10.578089658279419,9.4065211958313,10.33777965827942,9.1646711958313L7.105189658279419,5.924671195831299L3.776592658279419,9.1713311958313C3.668993658279419,9.276131195831299,3.531358658279419,9.333671195831299,3.389036658279419,9.333331195831299Z" fill="#999999" fill-opacity="1"/></g></g></g></svg>