<svg xmlns="http://www.w3.org/2000/svg" xmlns:xlink="http://www.w3.org/1999/xlink" fill="none" version="1.1" width="15" height="14" viewBox="0 0 15 14"><g><g><path d="M10.028037,13.999999C11.068689,14.000219,12.021694,13.423539,12.495402,12.506954L14.69626,8.247508C15.101247,7.4643688,15.101247,6.5364923,14.69626,5.752492L12.495402,1.4930462C12.021612,0.57723081,11.068807,0,10.028037,0L5.0175347,0C3.9855301,-0.000024069674,3.0390494,0.56738001,2.5614917,1.4723692L0.31447366,5.7318153C-0.10482456,6.526401,-0.10482456,7.473599,0.31447366,8.2681847L2.5614917,12.526769C3.0388129,13.432093,3.9853404,13.999856,5.0175347,13.999999L10.028037,13.999999ZM11.526052,1.983487L13.726911,6.2420716L13.726911,6.2429328C13.972704,6.7185206,13.972704,7.2819304,13.726911,7.7575178L11.526052,12.016964C11.238643,12.573518,10.66034,12.923303,10.02804,12.923303L5.0175381,12.923303C4.3909159,12.923267,3.8162775,12.57862,3.5264933,12.029026L1.2794752,7.7704406C1.0246801,7.2878933,1.0246801,6.7125573,1.2794752,6.23001L3.5264933,1.9714254C3.8156445,1.4217639,4.3904629,1.0771486,5.0175381,1.0771486L10.02804,1.0771486C10.659838,1.076934,11.238455,1.4270134,11.526052,1.983487Z" fill-rule="evenodd" fill="#999999" fill-opacity="1"/></g><g><path d="M4.765535953941651,8.561535823236085C5.329506043941651,9.527819123236084,6.37176588394165,10.123074023236084,7.4997059839416504,10.123074023236084C9.24335048394165,10.123074023236084,10.656853683941652,8.724824923236085,10.656853683941652,6.999997123236084C10.656853683941652,5.275169523236084,9.24335048394165,3.876920223236084,7.4997059839416504,3.876920223236084C6.37176588394165,3.876920223236084,5.329506043941651,4.472175303236084,4.765535953941651,5.438458723236084C4.20156586394165,6.404742023236084,4.20156586394165,7.595252323236084,4.765535953941651,8.561535823236085ZM9.29101038394165,8.023116623236085C8.92151258394165,8.656198523236084,8.23865268394165,9.046193123236083,7.499657383941651,9.046193123236083C6.35726978394165,9.046193123236083,5.4311813839416505,8.130098823236084,5.4311813839416505,7.000039323236084C5.4311813839416505,5.8699798232360845,6.35726978394165,4.953885523236083,7.499657383941651,4.953885523236083C8.23865268394165,4.953885523236083,8.92151258394165,5.343880323236084,9.29101038394165,5.976962523236084C9.66050768394165,6.610044523236084,9.66050768394165,7.390034223236084,9.29101038394165,8.023116623236085Z" fill-rule="evenodd" fill="#999999" fill-opacity="1"/></g></g></svg>