<svg xmlns="http://www.w3.org/2000/svg" xmlns:xlink="http://www.w3.org/1999/xlink" fill="none" version="1.1" width="13" height="10" viewBox="0 0 13 10"><g><g><path d="M12.5357,3.63578L0.464286,3.63578C0.207868,3.63578,0,3.43218,0,3.18104C0,2.92989,0.207868,2.7263,0.464286,2.7263L11.4409,2.7263L9.4185,0.745444C9.30587,0.635132,9.26189,0.474348,9.30311,0.323658C9.34434,0.172968,9.46451,0.0552662,9.61836,0.014889C9.77221,-0.0254882,9.93637,0.0175937,10.049,0.127906L12.7836,2.80633C12.9165,2.8867,12.9982,3.02808,13,3.18104C13,3.18309,12.9994,3.18496,12.9989,3.18673C12.9982,3.18887,12.9976,3.19087,12.9981,3.19286C12.9994,3.30998,12.9525,3.42266,12.8679,3.50548C12.7833,3.5883,12.6683,3.63428,12.5487,3.63305C12.5441,3.63305,12.5404,3.63578,12.5357,3.63578ZM0.464286,6.36426L12.5357,6.36426C12.7921,6.36426,13,6.56785,13,6.819C13,7.07015,12.7921,7.27374,12.5357,7.27374L1.55907,7.27374L3.5815,9.25459C3.69413,9.3649,3.73811,9.52569,3.69689,9.67638C3.65566,9.82707,3.53549,9.94477,3.38164,9.98515C3.22779,10.0255,3.06363,9.98244,2.951,9.87213L0.216357,7.19371C0.0891429,7.11276,0,6.97907,0,6.819C0,6.81694,0.00056893,6.81507,0.00110687,6.81331C0.00175926,6.81116,0.00236607,6.80917,0.00185714,6.80718C0.0000868224,6.68991,0.0468685,6.57693,0.13154,6.494C0.216211,6.41107,0.331556,6.36525,0.451286,6.36699C0.455929,6.36699,0.459643,6.36426,0.464286,6.36426Z" fill-rule="evenodd" fill="#0064FF" fill-opacity="1"/></g></g></svg>