<svg height="18" viewBox="0 0 18 18" width="18" xmlns="http://www.w3.org/2000/svg"><g fill="#0064ff"><path d="m6.21298174 5.53197188c-.70993914 0-1.27991886-.57248075-1.27991886-1.28757951s.57809331-1.28757951 1.27991886-1.28757951c.70993915 0 1.27991887.57248075 1.27991887 1.28757951s-.58012171 1.28757951-1.27991887 1.28757951zm0-2.10110479c-.44624746 0-.81135902.36156679-.81135902.81352528 0 .45195848.36511156.81352527.81135902.81352527.44624747 0 .81135903-.36156679.81135903-.81352527 0-.45195849-.36511156-.81352528-.81135903-.81352528zm-4.21298174 5.92166053c-.70993915 0-1.27991886-.57248075-1.27991886-1.28757951s.5780933-1.28757951 1.27991886-1.28757951 1.27991886.57248075 1.27991886 1.28757951-.56997971 1.28757951-1.27991886 1.28757951zm0-2.13123535c-.46653144 0-.84178499.38165383-.84178499.84365584s.37525355.84365584.84178499.84365584.84178499-.38165383.84178499-.84365584-.37525355-.84365584-.84178499-.84365584zm8.5476673.231001c-.70993911 0-1.27991882-.57248075-1.27991882-1.28757951 0-.70304654.5780933-1.28757951 1.27991882-1.28757951.7099392 0 1.2799189.57248075 1.2799189 1.28757951s-.5679513 1.28757951-1.2799189 1.28757951zm0-2.11114831c-.4563894 0-.82150097.37161031-.82150097.8235688 0 .46200201.36511157.8235688.82150097.8235688.4563895 0 .8215011-.37161031.8215011-.8235688.0121703-.45195849-.3630832-.8235688-.8215011-.8235688zm4.346856-2.76598594c-.7099391 0-1.2799188-.57248075-1.2799188-1.28757951s.5679513-1.28757951 1.2799188-1.28757951c.7119676 0 1.2799189.57248075 1.2799189 1.28757951s-.5801217 1.28757951-1.2799189 1.28757951zm0-2.12119183c-.4563894 0-.831643.37161031-.831643.83361232s.3752536.83361232.831643.83361232c.4563895 0 .831643-.37161031.831643-.83361232s-.3752535-.83361232-.831643-.83361232zm2.5476674 17.54603281h-16.88438137c-.30425963 0-.55780933-.251088-.55780933-.5523937s.2535497-.5523937.55780933-.5523937h16.88438137c.3042596 0 .5578093.251088.5578093.5523937s-.2535497.5523937-.5578093.5523937z"/><path d="m2.10361293 17.1187163c-.27751103 0-.51537764-.2299163-.51537764-.5098144v-4.1224995c0-.2798981.2279555-.5098145.50546653-.5098145.27751104 0 .50546653.2299164.50546653.5098145v4.1224995c.01982221.2798981-.21804439.5098144-.49555542.5098144zm3.89903003.3518719c-.31715547 0-.58475539-.2599054-.58475539-.5897853v-7.22736937c0-.31988357.25768882-.58978533.58475539-.58978533.31715547 0 .5847554.2599054.5847554.58978533v7.22537007c0 .3318792-.26759993.5917846-.5847554.5917846zm3.81974117-.3518719c-.34688879 0-.62439983-.2798981-.62439983-.6297708v-5.8938547c0-.3498727.27751104-.62977079.62439983-.62977079.34688877 0 .62439987.27989809.62439987.62977079v5.8938547c0 .3498727-.2775111.6297708-.62439987.6297708zm4.47585657.3518719c-.2874222 0-.5252888-.2399126-.5252888-.5298071v-11.3198798c0-.28989449.2378666-.52980716.5252888-.52980716.2874221 0 .5252887.23991267.5252887.52980716v11.3178805c0 .2918938-.2378666.5318064-.5252887.5318064zm-9.1697575-12.83932669-2.38064823 1.87131887c-.15857773.11995634-.18831106.34987265-.05946665.50981444.1189333.15994178.3468888.18993087.50546653.05997817l2.38064823-1.87131888c.15857773-.11995634.18831106-.34987265.05946665-.50981444-.11695108-.16194105-.34688879-.19193014-.50546653-.05997816zm4.26772327.61977441-1.90491503-1.02162815c-.17839995-.08996725-.39644434-.02998908-.48564431.14994543-.08919998.1799345-.02973333.39985446.14866662.48982171l1.90491503 1.02162815c.17839995.08996725.39644434.02998908.48564431-.14994543.08919998-.16993814.01982222-.3898581-.14866662-.48982171zm4.16662993-3.55270688-2.6978037 2.8509623c-.1387555.13994906-.1288444.37986174.0099111.50981444.1387556.13994906.3766222.1299527.5054666-.00999636l2.6978037-2.85096231c.1387555-.13994906.1288444-.37986173-.0099111-.50981443-.1387556-.13994907-.3667111-.1299527-.5054666.00999636z"/></g></svg>