<?xml version="1.0" encoding="UTF-8"?>
<svg width="16px" height="15px" viewBox="0 0 16 15" version="1.1" xmlns="http://www.w3.org/2000/svg" xmlns:xlink="http://www.w3.org/1999/xlink">
    <title>编组</title>
    <g id="页面-3" stroke="none" stroke-width="1" fill="none" fill-rule="evenodd">
        <g id="BI-商品全景分析-切换弹窗" transform="translate(-1799.000000, -744.000000)" fill="#999999" fill-rule="nonzero">
            <g id="编组-89" transform="translate(1731.500000, 737.000000)">
                <g id="编组-88" transform="translate(67.500000, 7.000000)">
                    <path d="M15.4074074,14.6666667 L0.592592593,14.6666667 C0.265312741,14.6666667 0,14.3681898 0,14 L0,0.666666667 C0,0.298476833 0.265312741,0 0.592592593,0 C0.919872444,0 1.18518519,0.298476833 1.18518519,0.666666667 L1.18518519,13.3333333 L15.4074074,13.3333333 C15.7346873,13.3333333 16,13.6318102 16,14 C16,14.3681898 15.7346873,14.6666667 15.4074074,14.6666667 Z" id="路径"></path>
                    <path d="M3.38903704,9.33333333 C3.14143741,9.33373154 2.9197173,9.16090626 2.83306875,8.89996997 C2.7464202,8.63903367 2.81311053,8.34499717 3.0002963,8.16266667 L6.72237037,4.53266667 C6.94751153,4.31288721 7.28272678,4.31545651 7.50518519,4.53866667 L10.6927407,7.73533333 L14.9351111,2.604 C15.1581523,2.33430097 15.5333045,2.31907866 15.773037,2.57000003 C16.0127695,2.82092139 16.0263005,3.24296761 15.8032593,3.51266667 L11.1656296,9.12133333 C10.946319,9.38724683 10.5780889,9.40652158 10.3377778,9.16466667 L7.10518519,5.92466667 L3.77659259,9.17133333 C3.66899416,9.2761341 3.53135857,9.3336664 3.38903704,9.33333333 Z" id="路径"></path>
                </g>
            </g>
        </g>
    </g>
</svg>