<svg xmlns="http://www.w3.org/2000/svg" xmlns:xlink="http://www.w3.org/1999/xlink" fill="none" version="1.1" width="14" height="14" viewBox="0 0 14 14"><defs><clipPath id="master_svg0_5_4217"><rect x="0" y="0" width="14" height="14" rx="0"/></clipPath></defs><g clip-path="url(#master_svg0_5_4217)"><g><path d="M6.22628833984375,10.868209375L7.38663833984375,10.868209375L7.38663833984375,9.707809375L6.22628833984375,9.707809375L6.22628833984375,10.868209375ZM8.00592833984375,7.232289375C7.42533833984375,7.619339375,7.15480833984375,8.082989375,7.15480833984375,8.586169375L7.15480833984375,8.934109375L6.22586833984375,8.934109375L6.22586833984375,8.508759375C6.18716833984375,7.812459375,6.53551833984375,7.193579375,7.15439833984375,6.729109375C7.85028833984375,6.226759375,8.19863833984375,5.723579375,8.12122833984375,5.259109375C8.04381833984375,4.563229375,7.65716833984375,4.176169375,6.92216833984375,4.137459375C6.07104833984375,4.098759375,5.52957833984375,4.601929375,5.33645833984375,5.646169375L4.29181833984375,5.375229375C4.60145833984375,3.828229375,5.56828833984375,3.093229375,7.11569833984375,3.131929375C8.46957833984375,3.209349375,9.16586833984375,3.866929375,9.32028833984375,5.143399375C9.35939833984375,5.917109375,8.93363833984375,6.613399375,8.00551833984375,7.232289375L8.00592833984375,7.232289375ZM6.99998833984375,0.810815375C3.59592833984375,0.811227375,0.81116633984375,3.595989375,0.81116633984375,7.000049375C0.81116633984375,10.404509375,3.59592833984375,13.189709375,6.99998833984375,13.189709375C10.40404833984375,13.189709375,13.18884833984375,10.404109375,13.18884833984375,7.000049375C13.18884833984375,3.595989375,10.40444833984375,0.811227375,6.99998833984375,0.811227375L6.99998833984375,0.810815375ZM6.99998833984375,13.962609375C3.17057833984375,13.963009375,0.03704833984375,10.829509375,0.03704833984375,7.000049375C0.03704833984375,3.170639375,3.17057833984375,0.037109375,6.99998833984375,0.037109375C10.82944833984375,0.037109375,13.96294833984375,3.170639375,13.96294833984375,7.000049375C13.96294833984375,10.829509375,10.82944833984375,13.963009375,6.99998833984375,13.963009375L6.99998833984375,13.962609375Z" fill="#666666" fill-opacity="1" style="mix-blend-mode:passthrough"/></g></g></svg>