<svg xmlns="http://www.w3.org/2000/svg" xmlns:xlink="http://www.w3.org/1999/xlink" fill="none" version="1.1" width="10.09268569946289" height="13.991418838500977" viewBox="0 0 10.09268569946289 13.991418838500977"><g><path d="M5.27198,0.101666L10.019,5.54136C10.0959,5.62918,10.1143,5.75387,10.0661,5.86016C10.0178,5.96645,9.91187,6.03468,9.79514,6.03461L7.46185,6.03461C7.31347,6.03333,7.18743,6.14287,7.168,6.28997C6.99309,7.55632,5.93664,13.1569,0.934215,13.986C0.799753,14.012,0.664953,13.9427,0.607723,13.8183C0.550493,13.6939,0.585635,13.5465,0.69284,13.4613C1.5499,12.7896,2.66932,11.4883,2.98416,9.17249C3.10503,8.23171,3.16346,7.28395,3.15907,6.33545C3.15911,6.17006,3.02707,6.03491,2.86172,6.03111L0.297543,6.03111C0.180813,6.03118,0.0748374,5.96295,0.0265913,5.85666C-0.0216548,5.75037,-0.00324574,5.62568,0.0736583,5.53786L4.82421,0.101666C4.94269,-0.0338887,5.1535,-0.0338887,5.27198,0.101666Z" fill="#EB3737" fill-opacity="1"/></g></svg>