<svg xmlns="http://www.w3.org/2000/svg" xmlns:xlink="http://www.w3.org/1999/xlink" fill="none" version="1.1" width="12" height="12" viewBox="0 0 12 12"><g><g><path d="M5.9999995,12Q6.1472912,12,6.294405,11.992772Q6.4415197,11.985545,6.5881023,11.971108Q6.7346849,11.956671,6.8803821,11.935059Q7.0260792,11.913446,7.1705408,11.88471Q7.3150024,11.855975,7.45788,11.820187Q7.6007576,11.784397,7.7417073,11.741642Q7.8826561,11.698885,8.0213375,11.649263Q8.1600189,11.599642,8.2960997,11.543276Q8.4321795,11.48691,8.5653305,11.423935Q8.6984806,11.36096,8.8283806,11.291527Q8.9582806,11.222094,9.0846167,11.14637Q9.2109528,11.070647,9.3334208,10.988816Q9.4558897,10.906985,9.5741949,10.819244Q9.6925011,10.731503,9.8063593,10.638062Q9.9202166,10.544622,10.029352,10.445707Q10.138489,10.346792,10.24264,10.24264Q10.34679,10.13849,10.445705,10.029354Q10.544621,9.9202185,10.638062,9.8063612Q10.731503,9.692503,10.819243,9.5741968Q10.906984,9.4558907,10.988815,9.3334217Q11.070646,9.2109528,11.14637,9.0846167Q11.222094,8.9582806,11.291527,8.8283815Q11.36096,8.6984806,11.423935,8.5653305Q11.48691,8.4321804,11.543276,8.2961006Q11.599642,8.1600208,11.649263,8.0213394Q11.698884,7.8826575,11.741641,7.7417088Q11.784397,7.600759,11.820186,7.457881Q11.855975,7.3150034,11.88471,7.1705418Q11.913445,7.0260801,11.935058,6.880383Q11.95667,6.7346859,11.971107,6.5881033Q11.985544,6.4415207,11.992772,6.2944059Q11.999999,6.1472917,11.999999,6Q11.999999,5.8527079,11.992772,5.7055931Q11.985545,5.5584793,11.971108,5.4118967Q11.956671,5.2653141,11.935058,5.1196165Q11.913445,4.9739189,11.88471,4.8294573Q11.855975,4.6849957,11.820186,4.5421181Q11.784397,4.399241,11.74164,4.2582917Q11.698883,4.117342,11.649262,3.9786606Q11.599641,3.8399789,11.543275,3.7038991Q11.486909,3.5678196,11.423934,3.4346693Q11.360959,3.3015192,11.291527,3.1716194Q11.222094,3.0417197,11.14637,2.9153833Q11.070647,2.789047,10.988816,2.6665783Q10.906985,2.5441098,10.819244,2.4258039Q10.731503,2.307498,10.638062,2.1936402Q10.544621,2.079782,10.445705,1.9706461Q10.34679,1.8615103,10.24264,1.7573593Q10.138489,1.6532083,10.029352,1.5542933Q9.9202166,1.4553782,9.8063593,1.3619373Q9.6925011,1.2684963,9.5741959,1.1807548Q9.4558897,1.093013,9.3334208,1.0111822Q9.2109528,0.92935133,9.0846157,0.85362822Q8.9582806,0.77790523,8.8283806,0.70847237Q8.6984806,0.63903952,8.5653296,0.57606423Q8.4321795,0.51308888,8.2960997,0.45672277Q8.1600189,0.40035665,8.0213375,0.3507356Q7.8826566,0.3011145,7.7417078,0.25835797Q7.6007586,0.21560144,7.4578805,0.17981246Q7.3150029,0.14402349,7.1705413,0.1152883Q7.0260801,0.086553112,6.8803825,0.064940937Q6.7346849,0.043328751,6.5881028,0.028891638Q6.4415197,0.014454524,6.2944055,0.007227262Q6.1472912,0,5.9999995,0Q5.8527074,0,5.7055931,0.007227262Q5.5584788,0.014454524,5.4118967,0.028891638Q5.2653141,0.043328751,5.1196165,0.064940929Q4.9739189,0.086553112,4.8294573,0.1152883Q4.6849957,0.14402349,4.5421181,0.17981246Q4.399241,0.21560144,4.2582917,0.25835797Q4.117342,0.3011145,3.9786606,0.35073557Q3.8399787,0.40035665,3.7038989,0.45672277Q3.5678191,0.51308888,3.434669,0.57606423Q3.3015189,0.63903958,3.1716194,0.70847243Q3.0417194,0.77790529,2.9153831,0.8536284Q2.7890468,0.92935145,2.6665783,1.0111823Q2.5441098,1.0930133,2.4258039,1.1807548Q2.307498,1.2684964,2.19364,1.3619373Q2.079782,1.4553782,1.9706459,1.5542932Q1.86151,1.6532083,1.757359,1.7573593Q1.653208,1.8615103,1.5542929,1.9706461Q1.4553779,2.079782,1.361937,2.1936402Q1.2684962,2.307498,1.1807547,2.4258039Q1.093013,2.5441098,1.0111821,2.6665783Q0.92935121,2.789047,0.85362816,2.9153833Q0.77790511,3.0417199,0.70847225,3.1716199Q0.6390394,3.3015194,0.57606411,3.4346695Q0.51308876,3.5678196,0.45672268,3.7038991Q0.40035659,3.8399789,0.35073549,3.9786606Q0.30111444,4.117342,0.25835791,4.2582917Q0.21560138,4.399241,0.17981243,4.5421185Q0.14402348,4.6849961,0.11528828,4.8294578Q0.086553097,4.9739189,0.064940915,5.1196165Q0.04332874,5.2653141,0.028891632,5.4118967Q0.014454521,5.5584793,0.0072272606,5.7055931Q0,5.8527079,0,6Q0,6.1472917,0.0072272606,6.2944064Q0.014454521,6.4415207,0.028891632,6.5881033Q0.04332874,6.7346859,0.064940922,6.8803825Q0.086553097,7.0260801,0.11528828,7.1705418Q0.14402348,7.3150034,0.17981243,7.4578815Q0.21560138,7.6007586,0.25835791,7.7417083Q0.30111444,7.8826571,0.35073549,8.0213385Q0.40035659,8.1600199,0.45672268,8.2960997Q0.51308876,8.4321795,0.57606411,8.5653305Q0.6390394,8.6984806,0.70847225,8.8283806Q0.77790511,8.9582806,0.85362816,9.0846167Q0.92935121,9.2109528,1.0111821,9.3334208Q1.093013,9.4558897,1.1807545,9.5741949Q1.2684962,9.6925011,1.361937,9.8063593Q1.4553779,9.9202166,1.554293,10.029352Q1.653208,10.138489,1.757359,10.24264Q1.86151,10.34679,1.970646,10.445706Q2.079782,10.544621,2.1936402,10.638062Q2.307498,10.731503,2.4258039,10.819243Q2.5441098,10.906985,2.6665783,10.988816Q2.7890468,11.070647,2.9153833,11.146371Q3.0417194,11.222094,3.1716192,11.291527Q3.3015189,11.36096,3.434669,11.423935Q3.5678191,11.48691,3.7038989,11.543276Q3.8399787,11.599642,3.9786601,11.649263Q4.117342,11.698885,4.2582912,11.741642Q4.3992405,11.784397,4.5421181,11.820187Q4.6849957,11.855975,4.8294573,11.88471Q4.9739189,11.913446,5.1196165,11.935058Q5.2653141,11.956671,5.4118967,11.971108Q5.5584788,11.985545,5.7055931,11.992773Q5.8527074,12,5.9999995,12ZM5.4306173,8.1157217L9.0766373,4.4697022C9.2413902,4.3049483,9.2413902,4.0378313,9.0766487,3.8730772C8.9118938,3.7083232,8.6447773,3.7083232,8.4800234,3.8730772L5.121336,7.2317648L3.5254884,5.6359167C3.3607345,5.4711628,3.0936172,5.4711628,2.9288633,5.6359167C2.7641094,5.8006706,2.7641094,6.0677881,2.9288633,6.232542L4.8181601,8.1218395C4.9424024,8.246069,5.1248283,8.2765732,5.2776995,8.2134323C5.3351831,8.1923943,5.3873739,8.1590462,5.4306173,8.1157217Z" fill-rule="evenodd" fill="#24BC29" fill-opacity="1"/></g></g></svg>