<svg xmlns="http://www.w3.org/2000/svg" xmlns:xlink="http://www.w3.org/1999/xlink" fill="none" version="1.1" width="16" height="16" viewBox="0 0 16 16"><defs><clipPath id="master_svg0_355_48613"><rect x="0" y="0" width="16" height="16" rx="0"/></clipPath></defs><g clip-path="url(#master_svg0_355_48613)"><g><path d="M10.959765475,3.15625L2.886953075,3.15625C2.169296865,3.15625,1.810546875,3.51499999,1.810546875,4.2326562L1.810546875,13.92C1.810546875,14.637656,2.169296865,14.996406,2.886953075,14.996406L10.959765475,14.996406C11.677421575,14.996406,12.036171875,14.637656,12.036171875,13.92L12.036171875,4.2326559C12.036171875,3.51499969,11.677421575,3.15624969482423,10.959765475,3.15625ZM7.854296675,11.2506247C7.886952875,11.4795313,7.727890475,11.6915627,7.498984375,11.7242184C7.459765475,11.7298431,7.419921875,11.7298431,7.380702975,11.7242184L4.608828075,11.7242184C4.379921875,11.756875,4.1678905749999995,11.5978127,4.135234375,11.368906C4.129609374999999,11.3296871,4.129609374999999,11.2898436,4.135234375,11.2506247L4.135234375,11.2451563C4.102578175,11.0162497,4.2616405749999995,10.804218800000001,4.490546675,10.7715621C4.529765575,10.765937300000001,4.569609375000001,10.765937300000001,4.608828075,10.7715621L7.380702975,10.7715621C7.609609175,10.738905899999999,7.821640475,10.897968800000001,7.854296675,11.1268749C7.859921975,11.1660938,7.859921975,11.2059374,7.854296675,11.2451563L7.854296675,11.2506247ZM9.711015175,8.8718748C9.743671875,9.100781,9.584609075,9.312812300000001,9.355702875,9.345468499999999C9.316483975,9.351093800000001,9.276640375,9.351093800000001,9.237421475,9.345468499999999L4.608828075,9.345468499999999C4.379921875,9.3781247,4.1678905749999995,9.219062300000001,4.135234375,8.990156200000001C4.129609374999999,8.9509373,4.129609374999999,8.9110937,4.135234375,8.8718748L4.135234375,8.8671875C4.102578175,8.6382813,4.2616405749999995,8.42625,4.490546675,8.3935938C4.529765575,8.3879685,4.569609375000001,8.3879685,4.608828075,8.3935938L9.237421475,8.3935938C9.466328175000001,8.3609376,9.678359075,8.52,9.711015175,8.7489061C9.716640475,8.788125,9.716640475,8.8279686,9.711015175,8.8671875L9.711015175,8.8718748ZM9.711015175,6.4931247C9.743671875,6.7220309,9.584609075,6.934062,9.355702875,6.9667183999999995C9.316483975,6.9723434,9.276640375,6.9723434,9.237421475,6.9667183999999995L4.608828075,6.9667183999999995C4.379921875,6.9993745999999994,4.1678905749999995,6.840312,4.135234375,6.6114058C4.129609374999999,6.5721872,4.129609374999999,6.5323434,4.135234375,6.4931247L4.135234375,6.4876559C4.102578175,6.2587497,4.2616405749999995,6.0467184,4.490546675,6.0140622C4.529765575,6.0084371999999995,4.569609375000001,6.0084371999999995,4.608828075,6.0140622L9.237421475,6.0140622C9.466328175000001,5.981406,9.678359075,6.1404684,9.711015175,6.3693745C9.716640475,6.4085934,9.716640475,6.4484372,9.711015175,6.4876559L9.711015175,6.4931247Z" fill="#999999" fill-opacity="1"/></g><g><path d="M13.650859375,9.07654286875C13.353560475,9.07657716875,13.112543575,8.83556036875,13.112577875,8.53826136875L13.112577875,2.6182616687499998C13.112577875,2.32107426875,12.871640675,2.07998046875,12.574296975,2.07998046875L7.192578135,2.07998046875C6.895278935,2.08001496875,6.654262084961,1.83899807875,6.654296875,1.54169922875C6.654296875,1.24451170875,6.895234375,1.00341796875,7.192578135,1.00341796875L13.112734275000001,1.00341796875C13.707265375,1.00341796875,14.189140275,1.48529296875,14.189140275,2.07982416875L14.189140275,8.537949068749999C14.189140275,8.68076136875,14.132421475000001,8.817636468749999,14.031484175,8.91857386875C13.930654075,9.01973626875,13.793690175,9.07658006875,13.650859375,9.07654286875Z" fill="#999999" fill-opacity="1"/></g></g></svg>