<svg xmlns="http://www.w3.org/2000/svg" xmlns:xlink="http://www.w3.org/1999/xlink" fill="none" version="1.1" width="12" height="12" viewBox="0 0 12 12"><defs><clipPath id="master_svg0_355_48645"><rect x="0" y="0" width="12" height="12" rx="0"/></clipPath></defs><g clip-path="url(#master_svg0_355_48645)"><g><path d="M12,2.7975001C10.1535,4.191,7.8412499,6.2062497,7.8412499,6.2062497C7.3765054,6.6838865,7.3886127,7.4483213,7.8682494,7.9110003C8.3474998,8.3737497,9.1199999,8.3610001,9.5857496,7.8847504C9.5857496,7.8847504,10.8075,6.4762502,12,4.9822502L12,10.5C12,11.328426,11.328426,12,10.5,12L1.5,12C0.6715728,12,0,11.328426,0,10.5L0,1.5C0,0.6715728,0.6715728,0,1.5,0L10.5,0C11.328426,0,12,0.6715728,12,1.5L12,2.7975001ZM3.75,5.25C4.5784273,5.25,5.25,4.5784273,5.25,3.75C5.25,2.9215727,4.5784273,2.25,3.75,2.25C2.9215727,2.25,2.25,2.9215727,2.25,3.75C2.25,4.5784273,2.9215727,5.25,3.75,5.25ZM5.658,7.6889992C5.1449995,8.1179991,5.0220003,8.7052498,4.8262501,9.0577497C4.2705002,10.0575,4.0950003,10.104751,3.75,10.3455C3.75,10.3455,4.8517499,10.44675,5.3092499,10.48275C6.0869999,10.542001,7.2825003,10.52475,7.4729996,9.1747494C7.5465002,8.6549997,7.4842501,8.1922503,7.1010003,7.7977505C6.6682501,7.3522501,5.9010005,7.4857507,5.658,7.6889992Z" fill="#999999" fill-opacity="1"/></g></g></svg>