<svg xmlns="http://www.w3.org/2000/svg" xmlns:xlink="http://www.w3.org/1999/xlink" fill="none" version="1.1" width="224" height="142.270263671875" viewBox="0 0 224 142.270263671875"><defs><mask id="master_svg0_113_00104" style="mask-type:alpha" maskUnits="objectBoundingBox"><path d="M0 0C0 0 0 0 0 0L224 0C224 0 224 0 224 0L224 142.270263671875C224 142.270263671875 224 142.270263671875 224 142.270263671875L0 142.270263671875C0 142.270263671875 0 142.270263671875 0 142.270263671875Z" fill="#FFFFFF" fill-opacity="1"/></mask><linearGradient x1="0.11182737350463867" y1="0.10655854642391205" x2="0.8974149285313774" y2="0.4893547487018246" id="master_svg1_113_3374"><stop offset="0%" stop-color="#D7DFFF" stop-opacity="1"/><stop offset="100%" stop-color="#9CB8FF" stop-opacity="1"/></linearGradient><linearGradient x1="1.0464541912078857" y1="0.2496887445449829" x2="-0.17177307179390877" y2="0.6144785329947676" id="master_svg2_113_3409"><stop offset="0%" stop-color="#FFFFFF" stop-opacity="1"/><stop offset="100%" stop-color="#FFFFFF" stop-opacity="0"/></linearGradient><linearGradient x1="0.11182737350463867" y1="0.10655854642391205" x2="1.2239222299018808" y2="0.9442789820398252" id="master_svg3_113_3405"><stop offset="0%" stop-color="#D7DFFF" stop-opacity="1"/><stop offset="100%" stop-color="#9CB8FF" stop-opacity="1"/></linearGradient><linearGradient x1="0.11182737350463867" y1="0.10655854642391205" x2="1.5547817814898621" y2="0.6161158311046746" id="master_svg4_113_3405"><stop offset="0%" stop-color="#D7DFFF" stop-opacity="1"/><stop offset="100%" stop-color="#9CB8FF" stop-opacity="1"/></linearGradient><linearGradient x1="0.11182737350463867" y1="0.10655854642391205" x2="1.3442011485053091" y2="0.8675982718781237" id="master_svg5_113_3405"><stop offset="0%" stop-color="#D7DFFF" stop-opacity="1"/><stop offset="100%" stop-color="#9CB8FF" stop-opacity="1"/></linearGradient><linearGradient x1="0.3326454162597656" y1="0" x2="0.12837873913415654" y2="1.0422534939606705" id="master_svg6_113_3394"><stop offset="0%" stop-color="#A2BBFF" stop-opacity="1"/><stop offset="100%" stop-color="#5E8CFF" stop-opacity="1"/></linearGradient><linearGradient x1="0.5" y1="0" x2="1.1339809461244066" y2="1.0016781818702027" id="master_svg7_113_3391"><stop offset="0%" stop-color="#A2BBFF" stop-opacity="1"/><stop offset="100%" stop-color="#5E8CFF" stop-opacity="1"/></linearGradient><linearGradient x1="1" y1="0.11841905117034912" x2="0.3741520335772411" y2="1.1548091094125257" id="master_svg8_113_3398"><stop offset="0%" stop-color="#D7DFFF" stop-opacity="1"/><stop offset="100%" stop-color="#9CB8FF" stop-opacity="1"/></linearGradient><linearGradient x1="0.5" y1="0" x2="1.2817116537508482" y2="0.13041930539029511" id="master_svg9_113_3391"><stop offset="0%" stop-color="#A2BBFF" stop-opacity="1"/><stop offset="100%" stop-color="#5E8CFF" stop-opacity="1"/></linearGradient><linearGradient x1="1.0415881872177124" y1="0" x2="-0.04875201110870483" y2="0.0012579982514466792" id="master_svga_113_3385"><stop offset="0%" stop-color="#D7E0FF" stop-opacity="1"/><stop offset="100%" stop-color="#A6BFFF" stop-opacity="1"/></linearGradient><linearGradient x1="1.0415881872177124" y1="0" x2="-0.04875201110870483" y2="0.0012579982514466792" id="master_svgb_113_3385"><stop offset="0%" stop-color="#D7E0FF" stop-opacity="1"/><stop offset="100%" stop-color="#A6BFFF" stop-opacity="1"/></linearGradient><linearGradient x1="1.0415881872177124" y1="0" x2="-0.05238687966471847" y2="0.009388204273421685" id="master_svgc_113_3385"><stop offset="0%" stop-color="#D7E0FF" stop-opacity="1"/><stop offset="100%" stop-color="#A6BFFF" stop-opacity="1"/></linearGradient><linearGradient x1="1.0415881872177124" y1="0" x2="-0.05900015684999188" y2="0.025082911782115858" id="master_svgd_113_3385"><stop offset="0%" stop-color="#D7E0FF" stop-opacity="1"/><stop offset="100%" stop-color="#A6BFFF" stop-opacity="1"/></linearGradient><linearGradient x1="0.5" y1="1" x2="0.5" y2="0" id="master_svge_113_3382"><stop offset="0%" stop-color="#6994FF" stop-opacity="1"/><stop offset="100%" stop-color="#9CB6FF" stop-opacity="1"/></linearGradient><linearGradient x1="0.11182737350463867" y1="0.10655854642391205" x2="0.7677559062063499" y2="0.18292658266404782" id="master_svgf_113_3374"><stop offset="0%" stop-color="#D7DFFF" stop-opacity="1"/><stop offset="100%" stop-color="#9CB8FF" stop-opacity="1"/></linearGradient><linearGradient x1="0.11182737350463867" y1="0.10655854642391205" x2="0.29615078922317745" y2="1.0132560570092757" id="master_svgg_113_3374"><stop offset="0%" stop-color="#D7DFFF" stop-opacity="1"/><stop offset="100%" stop-color="#9CB8FF" stop-opacity="1"/></linearGradient><linearGradient x1="0.11182737350463867" y1="0.10655854642391205" x2="0.24842066478238678" y2="1.001113875779245" id="master_svgh_113_3374"><stop offset="0%" stop-color="#D7DFFF" stop-opacity="1"/><stop offset="100%" stop-color="#9CB8FF" stop-opacity="1"/></linearGradient></defs><g style="opacity:0.7997002005577087;"><g><g><g><g mask="url(#master_svg0_113_00104)"><g></g></g></g></g></g><g style="opacity:0.119309201836586;"><ellipse cx="111.61993408203125" cy="135.08155298233032" rx="34.43243408203125" ry="3.4054055213928223" fill="#618DFA" fill-opacity="1"/></g><g><path d="M58.753030325,116.822537703125C59.687524325,114.256358263125,64.00363862500001,113.526086978125,66.65065262499999,113.618157807725C65.974719625,121.590940903125,57.555674325,121.424111803125,53.728515625,120.835881703125C54.989240525,120.566751003125,57.827925225,119.363534403125,58.753030325,116.822537703125Z" fill="url(#master_svg1_113_3374)" fill-opacity="1"/><path d="M61.8894486625,117.8046312296875Q58.6176471625,119.9471745296875,54.8671118765,120.7069220296875L54.9004662485,120.8715777296875Q58.6826608625,120.1054167296875,61.9814848625,117.9451773296875Q64.4674615625,116.3172326296875,65.8878310625,114.5207257606875L65.7560430625,114.4165318086875Q64.3525962625,116.1916355296875,61.8894486625,117.8046312296875Z" fill-rule="evenodd" fill="url(#master_svg2_113_3409)" fill-opacity="1"/><path d="M84.8180290625,91.778987640625Q79.46485506249999,105.214355640625,68.1899629125,112.166049640625L68.4838652125,112.642726640625Q79.9164930625,105.59377664062501,85.3382550625,91.986268640625Q87.4169430625,86.769191640625,88.3545990625,81.154064140625Q89.1346630625,76.482668440625,88.9815250625,72.637541915625L88.42197006250001,72.659827061625Q88.5728110625,76.447317140625,87.8022460625,81.061828640625Q86.8744830625,86.617711640625,84.8180290625,91.778987640625Z" fill-rule="evenodd" fill="url(#master_svg3_113_3405)" fill-opacity="1"/><path d="M69.1209101875,96.6193679375Q67.0568828875,99.7919309375,61.4200489785,100.8494719375L61.5233103965,101.3998699375Q67.3956274875,100.2981489375,69.5903129875,96.9247549375Q70.2633676875,95.8902209375,70.4168805875,94.8630179375Q74.1009316875,92.9396410375,74.8294206875,83.6850585975L74.27114668749999,83.6411132775Q73.5992596875,92.1766367375,70.4616689875,94.1874449375Q70.4411468875,92.9524364375,69.6822318875,92.29670523749999Q68.9406475875,91.6562638375,68.0797319875,92.0621347375Q67.3671779875,92.3980617375,67.0047058875,93.2128248375Q66.6185836875,94.0807469375,66.9959354875,94.7130819375Q67.4380011875,95.4538619375,68.7024511875,95.3506779375Q69.2738551875,95.3040169375,69.7934903875,95.1289349375Q69.6107492875,95.8664479375,69.1209101875,96.6193679375ZM69.8944491875,94.48906393749999Q69.9021958875,94.3733359375,69.9022407875,94.2579809375Q69.9026431875,93.2272300375,69.3161072875,92.72044273750001Q68.8501543875,92.3180379375,68.3185324875,92.5686664375Q67.7942328875,92.8158426375,67.5163573875,93.4404487375Q67.2482504875,94.0430979375,67.47681808749999,94.4261129375Q67.7401270875,94.8673459375,68.6569037875,94.7925329375Q69.3127741875,94.7389749375,69.8944491875,94.48906393749999Z" fill-rule="evenodd" fill="url(#master_svg4_113_3405)" fill-opacity="1"/><path d="M90.99944875,101.8246145671875Q88.47091655,107.2371548671875,84.95026506,108.7142818671875L85.16692244,109.23067286718751Q88.88682605,107.6699468671875,91.50681445000001,102.0616369671875Q93.43059155,97.9436282671875,94.11267855,93.5181134601875L93.55921365,93.4328100901875Q92.88932705,97.7791685671875,90.99944875,101.8246145671875Z" fill-rule="evenodd" fill="url(#master_svg5_113_3405)" fill-opacity="1"/></g><g transform="matrix(-1,0,0,1,284.5419921875,0)"><g><g><path d="M142.27099609375 63.357136726379395C142.27099609375 59.42044509262556 145.46231520981306 56.2291259765625 149.3990068435669 56.2291259765625L191.29712963104248 56.2291259765625C195.23382126479632 56.2291259765625 198.42514038085938 59.42044509262556 198.42514038085938 63.357136726379395L198.42514038085938 118.49372386932373C198.42514038085938 122.43041550307755 195.23382126479632 125.62173461914062 191.29712963104248 125.62173461914062L149.3990068435669 125.62173461914062C145.46231520981306 125.62173461914062 142.27099609375 122.43041550307755 142.27099609375 118.49372386932373Z" fill="url(#master_svg6_113_3394)" fill-opacity="1"/><ellipse cx="171.35081100463867" cy="56.228917598724365" rx="7.019268035888672" ry="7.039830684661865" fill="url(#master_svg7_113_3391)" fill-opacity="1"/><path d="M173.33103403125,49.4315185546875C177.13290003125002,49.4315185546875,180.21492803125,52.5225727546875,180.21492803125,56.3355812546875L197.85534703125,56.3355812546875C199.75656903125,56.3355812546875,201.29780203125,57.8813333546875,201.29780203125,59.7881165546875L201.29780203125,121.9266965546875C201.29780203125,122.8423695546875,200.93512003125,123.7205275546875,200.28953203125,124.3679965546875C199.64394803125,125.0154725546875,198.76834903125,125.3792265546875,197.85534703125,125.3792265546875L148.37653203125,125.3792265546875C147.46353723125,125.3792265546875,146.58793673125,125.0154725546875,145.94235213125,124.3679965546875C145.29676768125,123.7205275546875,144.93408203124997,122.8423695546875,144.93408203125,121.9266965546875L144.93408203125,59.7901255546875C144.93408203125,57.8833455546875,146.47531923125,56.337592554687504,148.37653203125,56.337592554687504L166.44713603125,56.337592554687504C166.44660203125,54.5061736546875,167.17163703125,52.7495803546875,168.46266903125002,51.4543826546875C169.75371203125,50.1591848746875,171.50496303124999,49.43151847696678,173.33103403125,49.4315185546875Z" fill="url(#master_svg8_113_3398)" fill-opacity="1"/><path d="M198.28584296875,119.594304103125C193.12433996875,120.447130203125,183.87394896875,120.793087003125,170.53466796875,120.632175403125L195.82307996875,111.626220703125C196.37640196875,114.358126603125,197.20144496875,117.027505903125,198.28584296875,119.594304103125L198.28584296875,119.594304103125Z" fill-rule="evenodd" fill="url(#master_svg9_113_3391)" fill-opacity="1"/><path d="M148.80615234375,63.2406005859375L197.85580034375,63.2406005859375C197.40856934375,84.3010925859375,197.18496334374998,96.97546758593751,197.18496334374998,101.2637365859375C197.13029434375,106.70546358593751,197.90188934374999,112.12382158593749,199.47323634375,117.3326415859375C193.88389234375,119.00208658593749,182.48059034375,120.6333195859375,173.33147234375,120.6333195859375C165.74892034375,120.5373305859375,158.17723754375,120.0263555859375,150.65021424375,119.1026615859375C149.42083972375,118.4958915859375,148.80615234375,112.3229675859375,148.80615234375,100.58388558593751L148.80615234375,63.2406005859375Z" fill-rule="evenodd" fill="#FFFFFF" fill-opacity="1"/><path d="M154.30615234375 72.20533239841461C154.30615234375 71.71324594419538 154.7050672332579 71.3143310546875 155.1971536874771 71.3143310546875L193.52525460720062 71.3143310546875C194.01734106141984 71.3143310546875 194.41625595092773 71.71324594419538 194.41625595092773 72.20533239841461L194.41625595092773 72.43470990657806C194.41625595092773 72.9267963607973 194.01734106141984 73.32571125030518 193.52525460720062 73.32571125030518L155.1971536874771 73.32571125030518C154.7050672332579 73.32571125030518 154.30615234375 72.9267963607973 154.30615234375 72.43470990657806Z" fill="url(#master_svga_113_3385)" fill-opacity="1"/><path d="M154.30615234375 78.23902380466461C154.30615234375 77.74693735044538 154.7050672332579 77.3480224609375 155.1971536874771 77.3480224609375L193.52525460720062 77.3480224609375C194.01734106141984 77.3480224609375 194.41625595092773 77.74693735044538 194.41625595092773 78.23902380466461L194.41625595092773 78.46840131282806C194.41625595092773 78.9604877670473 194.01734106141984 79.35940265655518 193.52525460720062 79.35940265655518L155.1971536874771 79.35940265655518C154.7050672332579 79.35940265655518 154.30615234375 78.9604877670473 154.30615234375 78.46840131282806Z" fill="url(#master_svgb_113_3385)" fill-opacity="1"/><path d="M154.30615234375 83.71308898925781C154.30615234375 82.97495927501024 154.90452470469774 82.3765869140625 155.6426544189453 82.3765869140625L175.03020668029785 82.3765869140625C175.76833639454543 82.3765869140625 176.36670875549316 82.97495927501024 176.36670875549316 83.71308898925781L176.36670875549316 84.05715489387512C176.36670875549316 84.7952846081227 175.76833639454543 85.39365696907043 175.03020668029785 85.39365696907043L155.6426544189453 85.39365696907043C154.90452470469774 85.39365696907043 154.30615234375 84.7952846081227 154.30615234375 84.05715489387512Z" fill="url(#master_svgc_113_3385)" fill-opacity="1"/><path d="M154.30615234375 110.42188513278961C154.30615234375 109.92979867857038 154.7050672332579 109.5308837890625 155.1971536874771 109.5308837890625L162.43992364406586 109.5308837890625C162.93201009828508 109.5308837890625 163.33092498779297 109.92979867857038 163.33092498779297 110.42188513278961L163.33092498779297 110.65126264095306C163.33092498779297 111.1433490951723 162.93201009828508 111.54226398468018 162.43992364406586 111.54226398468018L155.1971536874771 111.54226398468018C154.7050672332579 111.54226398468018 154.30615234375 111.1433490951723 154.30615234375 110.65126264095306Z" fill="url(#master_svgd_113_3385)" fill-opacity="1"/><ellipse cx="173.73193216323853" cy="56.62922525405884" rx="3.7763657569885254" ry="3.787428379058838" fill="url(#master_svge_113_3382)" fill-opacity="1"/><ellipse cx="173.35622549057007" cy="56.22881507873535" rx="4.011010646820068" ry="4.022760391235352" fill="#FFFFFF" fill-opacity="1"/></g></g></g><g transform="matrix(0.9612616896629333,0.27563735842704773,-0.27563735842704773,0.9612616896629333,15.908180309303134,-36.62543907544023)"><g style="opacity:0.598800003528595;"><ellipse cx="148.3841278553009" cy="55.53997254371643" rx="3.9397919178009033" ry="1.1133368015289307" fill="url(#master_svgf_113_3374)" fill-opacity="1"/></g><g style="opacity:0.5764999985694885;"><path d="M144.9342831125,55.5224017421875C146.0185087625,55.9636077421875,151.3041076625,48.2739763421875,152.0495123625,46.2570233421875C152.7949170625,44.2400720421875,151.9817490625,41.9710001921875,150.2198824625,41.2776728821875C148.4580159625,40.5843455821875,146.4250930625,41.6558514821875,145.6796882625,43.7358336421875C144.9342831125,45.8158154421875,143.7822936725,55.0811907421875,144.9342831125,55.5224017421875Z" fill="url(#master_svgg_113_3374)" fill-opacity="1"/></g><path d="M145.20198055,54.9733394765625C146.46072485,54.6077274765625,146.27191355,44.0659208765625,145.64254145,41.6894445765625C145.01316925,39.3129681765625,142.93624215,37.8505211465625,140.92225145,38.3989388465625C138.90826124,38.9473565265625,137.83832893,41.3238329765625,138.40476371,43.7003097765625C138.97119856,46.0767855765625,143.94323685,55.338949476562505,145.20198055,54.9733394765625Z" fill="url(#master_svgh_113_3374)" fill-opacity="1"/></g></g></svg>