<svg xmlns="http://www.w3.org/2000/svg" xmlns:xlink="http://www.w3.org/1999/xlink" fill="none" version="1.1" width="28" height="28" viewBox="0 0 28 28"><defs><clipPath id="master_svg0_113_3339"><rect x="0" y="0" width="28" height="28" rx="0"/></clipPath></defs><g clip-path="url(#master_svg0_113_3339)"><path d="M24.26634375,12.1333980375L27.06634475,15.8661484375L24.98646975,15.8661484375C24.09834475,21.1310234375,19.51771975,25.1411474375,13.99996875,25.1411474375C10.21224025,25.1434384375,6.68326565,23.2195604375,4.63309335,20.0346474375C4.38589385,19.6294494375,4.50682645,19.1010534375,4.9056596500000005,18.8437104375C5.30449295,18.5863684375,5.83577295,18.693932437500003,6.10309365,19.0861474375C7.83115055,21.7716194375,10.80654905,23.3936654375,13.99996875,23.3911474375C18.54734375,23.3911474375,22.34046975,20.1588974375,23.20584475,15.8661484375L21.46634275,15.8661484375L24.26634375,12.1333980375ZM13.99996875,2.8583984375C17.98296975,2.8583984375,21.60196875,4.9671485375,23.59346975,8.3315234375C23.82314475,8.7456469375,23.68168475,9.2673411375,23.27426675,9.5087118375C22.86685175,9.750082537499999,22.34134075,9.6235289375,22.08847075,9.2231483375C20.39939475,6.3614359375,17.32297675,4.6062402375,13.99996875,4.6083986375C9.12796875,4.6083986375,5.12309315,8.317523937499999,4.65496825,13.0661484375L6.53359315,13.0661484375L3.73359375,16.799774437499998L0.93359375,13.0661484375L2.89621855,13.0661484375C3.37134365,7.3497729375,8.16109325,2.8583984375,13.99996875,2.8583984375Z" fill="#0064FF" fill-opacity="1" style="mix-blend-mode:passthrough"/></g></svg>