<svg xmlns="http://www.w3.org/2000/svg" xmlns:xlink="http://www.w3.org/1999/xlink" fill="none" version="1.1" width="50" height="50" viewBox="0 0 50 50"><defs><clipPath id="master_svg0_1049_018279"><rect x="10" y="10" width="30" height="30" rx="0"/></clipPath></defs><g><g><rect x="0" y="0" width="50" height="50" rx="8" fill="#EFF3FF" fill-opacity="1"/></g><g clip-path="url(#master_svg0_1049_018279)"><g><g><path d="M15.14054870875,35.50156034375C14.94504081875,35.50156034375,14.76222824875,35.41523134375,14.63781436875,35.26034934375C14.51340021575,35.10800534375,14.46515818675,34.90995834375,14.50578307875,34.71952834375L15.75246281875,28.72734334375C15.80578301875,28.47597634375,15.92765831875,28.24999834375,16.10793161875,28.06972634375L29.58019721875,14.59746086375C30.07277621875,14.10488279375,30.93098021875,14.10488279375,31.42355721875,14.59746086375L35.39718821875,18.57109354375C35.64348021875,18.81738284375,35.78058621875,19.14492134375,35.78058621875,19.49277304375C35.78058621875,19.84062484375,35.64348021875,20.16816334375,35.39718821875,20.41445354375L21.92492291875,33.886716343749995C21.744648918750002,34.06699034375,21.51613331875,34.18886234375,21.267306318750002,34.242185343749995L15.27511894875,35.48886534375C15.22941588875,35.49902134375,15.18371271875,35.50156034375,15.14054870875,35.50156034375ZM30.50187721875,15.04687368375C30.37746321875,15.04687368375,30.25812621875,15.09511590375,30.16925921875,15.18398308375L16.69699361875,28.65878734375C16.63097831875,28.72480334375,16.58781411875,28.80605334375,16.56750181875,28.89745834375L15.37668144875,34.61542734375L21.09718891875,33.42714534375C21.18859581875,33.40937234375,21.26984591875,33.36366834375,21.33586021875,33.29765334375L34.81066321875,19.82285114375C34.89953021875,19.73398394375,34.94777321875,19.61464884375,34.94777321875,19.49023434375C34.94777321875,19.363281243750002,34.89953021875,19.24648474375,34.81066321875,19.15761754375L30.83449221875,15.18398308375C30.74562421875,15.09511590375,30.62882821875,15.04687368375,30.50187721875,15.04687368375Z" fill="#5D87FF" fill-opacity="1" style="mix-blend-mode:passthrough"/><path d="M15.37696754875,35.97840334375L15.37950145875,35.97785534375L21.37207601875,34.73108634375Q21.90101001875,34.617736343749996,22.27847621875,34.24027034375L35.75074221875,20.768008743750002Q36.28058621875,20.23816774375,36.28058621875,19.49277304375Q36.28058621875,18.74737834375,35.75074421875,18.21754024375L31.77711121875,14.24390800875Q31.26123221875,13.72802728375,30.50187921875,13.72802728375Q29.74252521875,13.72802728375,29.22664421875,14.24390749275L15.75438021875,27.71617134375Q15.37545036875,28.09509634375,15.26294511875,28.62549834375L14.01678660875,34.615209343749996Q13.90258335875,35.15053934375,14.24800371875,35.573475343750005Q14.59187638875,36.001562343749995,15.14054870875,36.001562343749995Q15.26892834875,36.001562343749995,15.37696754875,35.97840334375ZM30.50188421875,15.558469443749999L17.05523541875,29.00765334375L16.02165821875,33.97077734375L20.98706011875,32.93934834375L34.43616821875,19.49024154375L30.50188421875,15.558469443749999Z" fill-rule="evenodd" fill="#5D87FF" fill-opacity="1"/></g><g><path d="M33.1425785625,22.496481868310546C33.0359345625,22.496481868310546,32.9292965625,22.455857268310545,32.848043562499996,22.374607068310546L27.6201155625,17.146678168310547C27.4576165625,16.984178268310547,27.4576165625,16.720115868310547,27.6201155625,16.557615968310547C27.7826155625,16.395116068310546,28.0466795625,16.395116068310546,28.209177562500003,16.557615968310547L33.4371075625,21.785545368310547C33.5996075625,21.948044768310545,33.5996075625,22.212107668310544,33.4371075625,22.374607068310546C33.3558535625,22.455857268310545,33.249216562499996,22.496481868310546,33.1425785625,22.496481868310546ZM30.9132805625,36.00683176831055C30.5933575625,36.00683176831055,30.2734355625,35.88495976831055,30.0296855625,35.641206768310546L24.822070562500002,30.433591768310546C24.6595695625,30.271091768310548,24.6595695625,30.007030768310546,24.822070562500002,29.844528768310546C24.9845685625,29.682028768310545,25.2486325625,29.682028768310545,25.4111325625,29.844528768310546L30.6187475625,35.05468376831055C30.7812485625,35.21718376831055,31.0453095625,35.21718376831055,31.2078115625,35.05468376831055L35.0595705625,31.202926768310547C35.1382805625,31.124215768310545,35.181442562499996,31.020112768310547,35.181442562499996,30.908395768310548C35.181442562499996,30.796676768310547,35.1382785625,30.692575768310547,35.0595705625,30.613862768310547L29.877343562500002,25.431639768310546C29.7148425625,25.269139768310545,29.7148425625,25.00507776831055,29.877343562500002,24.842576768310547C30.0398425625,24.68007676831055,30.3039055625,24.68007676831055,30.4664055625,24.842576768310547L35.6486315625,30.024802768310547C35.8847655625,30.26093476831055,36.0142575625,30.573240768310548,36.0142575625,30.908395768310548C36.0142575625,31.241012768310547,35.8847655625,31.555856768310548,35.6486315625,31.791986768310547L31.7968745625,35.643748768310545C31.5531215625,35.88495976831055,31.2332015625,36.00683176831055,30.9132805625,36.00683176831055ZM19.8429684625,25.281834768310546C19.7363285625,25.281834768310546,19.6296872625,25.241209768310547,19.5484371625,25.159959768310546L14.3509765225,19.965038268310547C14.1148437725,19.728904768310546,13.9853515625,19.416600268310546,13.9853515625,19.081443768310546C13.9853515625,18.746288268310547,14.1148437725,18.433982868310547,14.3509765225,18.197849768310547L18.2027349625,14.346092998310548C18.6749997625,13.873827398310548,19.4976558625,13.873827398310548,19.969921562499998,14.346092998310548L25.1800775625,19.556248668310545C25.3425775625,19.718749068310547,25.3425775625,19.982810968310545,25.1800775625,20.145310368310547C25.0175795625,20.307811768310547,24.7535155625,20.307811768310547,24.5910145625,20.145310368310547L19.3808593625,14.935155268310547C19.2234372625,14.777733328310546,18.9517569625,14.777733328310546,18.7917966625,14.935155268310547L14.9400390425,18.786912868310548C14.7775388925,18.949413268310547,14.7775388925,19.213476168310546,14.9400390425,19.375975568310547L20.1374997625,24.573436768310547C20.2999997625,24.735934768310546,20.2999997625,24.999998768310547,20.1374997625,25.162497768310548C20.0562496625,25.241209768310547,19.9496092625,25.28183376831055,19.8429684625,25.281834768310546Z" fill="#5D87FF" fill-opacity="1" style="mix-blend-mode:passthrough"/><path d="M19.842974662499998,25.781835768310547Q20.2167963625,25.781831768310546,20.4854011625,25.521613768310544L20.4910507625,25.516051768310547Q20.7593746625,25.247731768310548,20.7593746625,24.867967768310546Q20.7593746625,24.488201768310546,20.4910526625,24.219883768310545L15.3526146625,19.08144426831055L19.0863170625,15.347719568310547L24.2374605625,20.498862768310545Q24.505782562500002,20.767186668310547,24.8855465625,20.767186668310547Q25.265314562500002,20.767186668310547,25.5336325625,20.498864168310547Q26.181715562500003,19.850779968310547,25.5336325625,19.20269586831055L20.3234748625,13.992539525030546Q19.8228292625,13.491893768310547,19.0863280625,13.491893768310547Q18.3498268625,13.491893768310547,17.8491816625,13.992539564790548L13.9974230525,17.844296968310548Q13.4853515625,18.356369068310546,13.4853515625,19.081443768310546Q13.4853515025,19.806518068310545,13.9975095595,20.318677868310548L19.1948823625,25.513511768310547Q19.4632034625,25.781835768310547,19.842974662499998,25.781835768310547ZM33.1425785625,22.996481868310546Q33.5223315625,22.996481868310546,33.7906555625,22.72816656831055Q34.114704562499995,22.404118568310547,34.1147025625,22.080071468310546Q34.114700562500005,21.75603106831055,33.7906605625,21.431992568310548L28.562732562500003,16.20406386831055Q28.2944125625,15.935741168310546,27.9146475625,15.935741168310546Q27.5348845625,15.935741168310546,27.2665595625,16.204064368310547Q26.6184835625,16.852147068310547,27.2665615625,17.50023176831055L32.4944955625,22.72816656831055Q32.7628215625,22.996481868310546,33.1425785625,22.996481868310546ZM30.9132805625,36.50683176831055Q31.6355385625,36.50683176831055,32.1485705625,35.99915276831055L32.1504285625,35.99730276831055L36.0021805625,32.145543768310546Q36.5142575625,31.63347776831055,36.5142575625,30.908395768310548Q36.5142575625,30.183315768310546,36.0021855625,29.671249768310545L30.8199595625,24.489022768310548Q30.1718745625,23.84093856831055,29.5237905625,24.489022768310548Q29.2554685625,24.757344768310546,29.2554685625,25.137107768310546Q29.2554685625,25.516874768310547,29.5237905625,25.78519376831055L34.646995562499995,30.908393768310546L30.9132935625,34.64209576831055L25.7646865625,29.490976768310546Q25.4963645625,29.222654768310548,25.1165995625,29.222654768310548Q24.7368345625,29.222654768310548,24.468515562500002,29.490977768310547Q23.8204364625,30.139060768310546,24.4685175625,30.787147768310547L29.6761285625,35.99475476831054Q30.1881965625,36.50683176831055,30.9132805625,36.50683176831055Z" fill-rule="evenodd" fill="#5D87FF" fill-opacity="1"/></g><g><path d="M16.269628758198852,21.710935101556394C16.162988368198853,21.710935101556394,16.056444998198852,21.670305301556397,15.975195168198853,21.589055501556395C15.812695086198852,21.426556101556397,15.812695086198852,21.162497001556396,15.975195168198853,20.999997601556394L18.435156138198852,18.539639951556396C18.597656038198853,18.377139866556398,18.862012138198853,18.377139866556398,19.02451153819885,18.539639951556396C19.18701143819885,18.702140091556398,19.18701143819885,18.966205831556397,19.02451153819885,19.128705501556396L16.564062358198854,21.589055501556395C16.482812528198853,21.670305301556397,16.376269098198854,21.710935101556394,16.269628758198852,21.710935101556394ZM18.272070138198853,23.710935101556394C18.165429838198854,23.710935101556394,18.058398438198854,23.670313401556395,17.97714833819885,23.589063201556396C17.81464843819885,23.426563701556397,17.81464843819885,23.162498001556397,17.97714833819885,22.999997601556394L20.43759753819885,20.539647601556396C20.600096938198853,20.377148101556397,20.864453538198852,20.377148101556397,21.026952938198853,20.539647601556396C21.189452438198852,20.702147001556398,21.189452438198852,20.966213701556395,21.026952938198853,21.128713101556396L18.566503738198854,23.589063201556396C18.48271443819885,23.670313401556395,18.376172338198852,23.710937001556395,18.272070138198853,23.710935101556394ZM27.18271513819885,32.621870001556395C27.07607413819885,32.621870001556395,26.969530138198852,32.5812450015564,26.888281138198852,32.49999800155639C26.725781138198855,32.3374970015564,26.725781138198855,32.0734320015564,26.888281138198852,31.910932001556397L29.348730138198853,29.4505820015564C29.511231138198852,29.2880840015564,29.775097138198852,29.2880840015564,29.937597138198853,29.4505820015564C30.10009613819885,29.613082001556396,30.10009613819885,29.877147001556395,29.937597138198853,30.039648001556397L27.477148138198853,32.49999800155639C27.395900138198854,32.5812470015564,27.289354138198853,32.621870001556395,27.18271513819885,32.621870001556395Z" fill="#5D87FF" fill-opacity="1" style="mix-blend-mode:passthrough"/><path d="M16.269628738198854,22.210935101556394Q16.649284128198854,22.210935101556394,16.917608538198852,21.942615701556395L16.917615938198853,21.942608801556396L19.37806443819885,19.482259301556397Q19.64638663819885,19.213937761556398,19.64638663819885,18.834172871556397Q19.64638663819885,18.454408444556396,19.378065538198854,18.186087251556398Q19.10974403819885,17.917764901556396,18.729833838198854,17.917764901556396Q18.349924338198853,17.917764901556396,18.08157393819885,18.186115081556398L15.621642528198853,20.646443401556397Q15.353320118198852,20.914764601556396,15.353320118198852,21.294526601556395Q15.353320118198852,21.674288301556395,15.621641828198852,21.942608601556397Q15.889968220198853,22.210935101556394,16.269628738198854,22.210935101556394ZM18.27205993819885,24.210934601556396Q18.643430438198852,24.210942301556397,18.914576338198852,23.948013801556396L18.920050138198853,23.9426236015564L21.38050623819885,21.482266701556398Q21.648827338198853,21.213945901556396,21.648827338198853,20.834180101556395Q21.648827338198853,20.454414801556396,21.380506738198854,20.186094401556396Q21.112185238198855,19.917772901556397,20.732275238198852,19.917772901556397Q20.352365238198853,19.917772901556397,20.084051338198854,20.186086901556397L17.623594638198853,22.646444301556397Q17.355273438198854,22.914765801556396,17.355273438198854,23.294530401556397Q17.355273438198854,23.6742959015564,17.623595338198854,23.9426169015564Q17.891913938198854,24.210934601556396,18.27205993819885,24.210934601556396ZM27.18271513819885,33.121870001556395Q27.562389138198853,33.121870001556395,27.83070513819885,32.8535480015564L30.291151138198853,30.393199001556397Q30.559472138198853,30.124876001556395,30.559472138198853,29.745115001556396Q30.559472138198853,29.365354001556398,30.291148138198853,29.097026001556397Q30.022827138198853,28.828708001556397,29.643164138198852,28.828708001556397Q29.263499138198853,28.828708001556397,28.99518413819885,29.097022001556397L26.534729138198852,31.557377001556397Q26.266405138198852,31.825699001556394,26.266405138198852,32.20546400155639Q26.266405138198852,32.5852290015564,26.534732138198855,32.8535540015564Q26.80305313819885,33.121870001556395,27.18271513819885,33.121870001556395Z" fill-rule="evenodd" fill="#5D87FF" fill-opacity="1"/></g><g><path d="M29.18076229470459,34.62187387072754C29.07412189470459,34.62187387072754,28.96757954470459,34.58125067072754,28.88632869470459,34.50000187072754C28.72382912070459,34.337502470727536,28.72382912070459,34.073437670727536,28.88632869470459,33.91093637072754L31.34384818470459,31.45058632072754C31.50634768470459,31.28808674172754,31.77070238470459,31.28808674172754,31.93320368470459,31.45058632072754C32.09570308470459,31.61308592072754,32.09570308470459,31.87715018072754,31.93320368470459,32.03965187072754L29.47519588470459,34.50000187072754C29.39394605470459,34.58125257072754,29.28740370470459,34.62187387072754,29.18076229470459,34.62187387072754Z" fill="#5D87FF" fill-opacity="1" style="mix-blend-mode:passthrough"/><path d="M29.18076226470459,35.12187387072754Q29.56043320470459,35.12187387072754,29.82875098470459,34.85355377072754L29.82891758470459,34.85338687072754L32.28675938470459,32.39320277072754Q32.55507798470459,32.12488037072754,32.55507798470459,31.74511829072754Q32.55507798470459,31.36535408672754,32.28675528470459,31.09703116072754Q32.01843308470459,30.82871163072754,31.63852528470459,30.82871163072754Q31.25861598470459,30.82871163072754,30.99009128470459,31.09723648072754L28.53277353470459,33.55738497072754Q28.26445400470459,33.82570717072754,28.26445400470459,34.20546987072754Q28.26445400470459,34.585233970727536,28.53278014470459,34.85355997072754Q28.80110137870459,35.12187387072754,29.18076226470459,35.12187387072754Z" fill-rule="evenodd" fill="#5D87FF" fill-opacity="1"/></g></g></g></g></svg>