<svg xmlns="http://www.w3.org/2000/svg" xmlns:xlink="http://www.w3.org/1999/xlink" fill="none" version="1.1" width="50" height="50" viewBox="0 0 50 50"><defs><clipPath id="master_svg0_1049_018372"><rect x="10" y="10" width="30" height="30" rx="0"/></clipPath></defs><g><g><rect x="0" y="0" width="50" height="50" rx="8" fill="#EFF3FF" fill-opacity="1"/></g><g clip-path="url(#master_svg0_1049_018372)"><g><g><g><path d="M19.2674289,33.800001L21.6979051,33.800001C22.305419,33.800001,22.7979059,34.292486,22.7979059,34.900002C22.7979059,35.507513,22.305419,36,21.6979051,36L19.2674294,36C16.3577292,35.999424000000005,13.99942048395,33.640177,14,30.730476L14,21.6999993C14,17.4466667,17.4466667,14,21.696857,14L30.725237,14C33.634527,14.0011573763,35.992197000000004,16.3602338,35.991619,19.2695236L35.991619,25C36.010768999999996,25.620514,35.512951,26.133933,34.892140999999995,26.133933C34.271332,26.133933,33.773516,25.620514,33.792665,25L33.792665,19.2695236C33.793245,17.574851,32.419909000000004,16.2005785,30.725235,16.1999998L21.696857,16.1999998C18.6602778,16.2011578,16.1994214,18.6634216,16.2,21.6999993L16.2,30.730476C16.1994209,32.425557999999995,17.5733941,33.800001,19.2684765,33.800001L19.2674289,33.800001ZM19.4979048,21.7000003C19.4979048,22.30762,19.9902859,22.8000002,20.5979052,22.8000002L29.394761000000003,22.8000002C30.002275,22.8000002,30.494762,22.3075142,30.494762,21.7000003C30.494762,21.092487300000002,30.002275,20.6000004,29.394761000000003,20.6000004L20.5979047,20.6000004C19.9902859,20.6000004,19.4979048,21.092381,19.4979048,21.7000003ZM19.4979048,26.1C19.4979048,26.70762,19.9902859,27.200001,20.5979052,27.200001L23.5291443,27.200001C24.136657,27.2,24.629143,26.707513,24.629143,26.099999C24.629143,25.492487,24.136656000000002,24.999999000000003,23.5291443,25L20.5979047,25C19.9902859,25,19.4979048,25.492381,19.4979048,26.1ZM34.125809000000004,27.511144L28.225619000000002,33.25C28.185639000000002,33.289534,28.120730000000002,33.287624,28.083143,33.24581L25.80981,30.765047C25.400187000000003,30.313179,24.70112,30.280844,24.251534,30.692965C23.8019447,31.105089,23.7734861,31.804321,24.188095,32.251619000000005L26.461429000000003,34.73238C27.336190000000002,35.688856,28.829047,35.731808,29.758286,34.826666L35.657429,29.089904L35.658476,29.088857C36.10816,28.668312999999998,36.125132,27.960587,35.696124999999995,27.51897C35.267117,27.077354,34.559195,27.073826,34.125809000000004,27.511144Z" fill="#5D87FF" fill-opacity="1" style="mix-blend-mode:passthrough"/></g></g></g></g></g></svg>