<svg xmlns="http://www.w3.org/2000/svg" xmlns:xlink="http://www.w3.org/1999/xlink" fill="none" version="1.1" width="50" height="50" viewBox="0 0 50 50"><defs><clipPath id="master_svg0_1049_018311"><rect x="10" y="10" width="30" height="30" rx="0"/></clipPath></defs><g><g><rect x="0" y="0" width="50" height="50" rx="8" fill="#EFF3FF" fill-opacity="1"/></g><g clip-path="url(#master_svg0_1049_018311)"><g><g><g><path d="M24.996249329438207,14.180074259638786C27.26231632943821,14.180074259638786,29.67599932943821,15.066535339638786,31.515438329438208,16.117613759638786L32.03944432943821,15.722686359638786C32.08926632943821,15.685324159638785,32.155581329438206,15.678335559638786,32.21209532943821,15.704492959638786C32.26861232943821,15.730650259638786,32.30619632943821,15.785728659638787,32.309948329438214,15.847888359638786L32.48771132943821,18.930793759638785C32.49426132943821,19.050775559638787,32.37718832943821,19.139183059638786,32.26357832943821,19.100048559638786L29.34984532943821,18.078338459638786C29.291548329438207,18.057379759638785,29.24935832943821,18.006248259638788,29.23985532943821,17.945034059638786C29.230349329438212,17.883819159638787,29.255049329438208,17.822302859638786,29.30424532943821,17.784654459638787L30.13740232943821,17.156325859638788C28.61484432943821,16.268320159638787,26.80554732943821,15.725778259638787,24.996249329438207,15.725778259638787C19.89683092943821,15.725778259638787,15.72485862943821,19.899177559638787,15.72485862943821,24.999999259638784C15.72485862943821,30.100823259638787,19.89683092943821,34.274221259638786,24.996249329438207,34.274221259638786C25.45997432943821,34.274221259638786,25.76912432943821,34.583364259638785,25.76912432943821,35.04707525963879C25.76912432943821,35.51078525963879,25.45997432943821,35.819928259638786,24.996249329438207,35.819928259638786C18.97015512943821,35.81992525963879,14.17988432943821,31.028243259638785,14.17988432943821,24.999999259638784C14.17988432943821,18.971755559638787,18.97015512943821,14.180074259638786,24.996249329438207,14.180074259638786ZM30.89713932943821,33.40862825963879C31.13750332943821,33.80896525963878,31.00843232943821,34.328321259638784,30.60808632943821,34.567905259638785L29.15972132943821,35.43890925963879C28.75981332943821,35.678563259638786,28.24135932943821,35.54898625963879,28.00123932943821,35.14936425963879C27.76111932943821,34.74974425963879,27.89010832943821,34.231157259638785,28.289465329438208,33.99058725963879L29.73782932943821,33.119581259638785C30.13777532943821,32.879215259638784,30.656858329438208,33.00863425963878,30.89713932943821,33.40862825963879ZM34.22977132943821,29.637111259638786C34.61620532943821,29.898336259638786,34.71900032943821,30.423873259638786,34.45776932943821,30.810298259638785L33.51254332943821,32.212253259638786C33.25152832943821,32.59917425963879,32.72625932943821,32.70125325963879,32.33932132943821,32.44024225963879C31.952385329438208,32.179233259638785,31.85030932943821,31.653978259638787,32.11132232943821,31.267053259638786L33.05654932943821,29.865874259638787C33.31719632943821,29.478503259638785,33.842676329438206,29.376041259638786,34.22977132943821,29.637111259638786ZM24.986200329438212,19.202065959638787C25.44992532943821,19.202065959638787,25.75907532943821,19.511206659638788,25.75907532943821,19.974917959638788L25.75907532943821,25.694021259638788L29.67754432943821,28.630860259638787C30.141270329438207,28.940001259638784,30.141270329438207,29.403712259638787,29.98669332943821,29.712853259638784C29.83212032943821,30.021993259638787,29.36839632943821,30.176562259638786,28.90467032943821,29.86742125963879L24.52247632943821,26.776014259638785L24.50779232943821,26.773698259638785C24.466057329438208,26.765969259638787,24.33930532943821,26.719599259638784,24.213327329438208,26.466874259638786L24.213327329438208,19.97491985963879C24.213327329438208,19.511208059638786,24.52247632943821,19.202067859638788,24.986200329438212,19.202065959638787ZM35.034330329438205,24.615120259638786C35.49943232943821,24.648523259638786,35.84988432943821,25.051840259638787,35.81802632943821,25.517039259638786L35.700548329438206,27.204173259638786C35.67880832943821,27.678648259638784,35.27059032943821,28.042127259638786,34.79676632943821,28.008904259638786C34.32294732943821,27.975680259638786,33.96945232943821,27.558795259638785,34.01413732943821,27.08592925963879L34.13238732943821,25.399565259638784C34.16497632943821,24.933962259638786,34.56869532943821,24.582837259638787,35.034330329438205,24.615120259638786ZM34.76768932943821,20.198272259638784L35.427721329438214,21.754023159638788C35.59401732943821,22.179976059638786,35.391523329438215,22.660953059638786,34.97064032943821,22.839713659638786C34.54975532943821,23.01847505963879,34.06300932943821,22.830235959638784,33.87192732943821,22.414810659638785L33.21189332943821,20.858287359638787C33.04879832943821,20.433048259638788,33.251844329438214,19.955036659638786,33.67112932943821,19.777163559638787C34.09041432943821,19.599291359638787,34.57524932943821,19.785481959638787,34.76768932943821,20.198272259638784Z" fill="#5D87FF" fill-opacity="1" style="mix-blend-mode:passthrough"/></g><g><path d="M24.996446,14C27.101754,14,29.499208,14.75739485,31.605289,15.9607249L31.500177,15.902761L31.931442,15.5781634C32.016323,15.5145419,32.125513,15.4929322,32.228226,15.5194267L32.288511,15.5402937C32.404442,15.5943933,32.482502,15.7087753,32.490232,15.8370689L32.667994,18.9207482C32.681837,19.1690569,32.439127,19.3518944,32.204269,19.2700768L29.290535,18.248367299999998C29.169212,18.205576399999998,29.081227,18.0995684,29.06152,17.9724424C29.041812,17.8453166,29.093571,17.7176468,29.196244,17.6401327L29.80836,17.1779673L29.772035000000002,17.1578729C28.385499,16.4043424,26.828932000000002,15.9630442,25.301733,15.9112629L24.996449,15.9058529C19.9967265,15.9058523,15.905134199999999,19.9996481,15.905134199999999,25C15.905134199999999,30.001123,19.9967265,34.094147,24.996446,34.094147C25.559098,34.094147,25.949399,34.483665,25.949399,35.047073C25.949399,35.610485,25.559097,36,24.996446,36C18.8706503,36,14,31.127939,14,24.999997999999998C14,18.8720574,18.8706503,14,24.996446,14ZM29.645282,32.96501C30.130819,32.673483000000004,30.760761,32.830749999999995,31.052299,33.316272999999995C31.343836,33.801795999999996,31.186567,34.431720999999996,30.701027,34.723248999999996L29.249571,35.595026000000004C28.763851000000003,35.8855,28.134625,35.727436,27.843854,35.241901C27.553081,34.756371,27.710773,34.127066,28.196145,33.836012L29.645282,32.96501ZM24.996446,14.36014882C19.069278699999998,14.36014882,14.3601599,19.072226,14.3601599,25C14.3601599,30.928547,19.0692792,35.639854,24.996446,35.639854C25.359696,35.639854,25.588469,35.411086999999995,25.588469,35.047075C25.588469,34.683064,25.360471,34.45507,24.996446,34.45507C19.797325100000002,34.45507,15.5442022,30.200521,15.5442022,25C15.5442022,19.7994785,19.797326599999998,15.5449305,24.996446,15.5449305C26.787194,15.5449305,28.630498,16.0689237,30.228802,17.0009835L30.46221,17.1370051L30.245806,17.3008502L29.429650000000002,17.915267L32.30706,18.9238386L32.131618,15.8788019L31.624613,16.2613635L31.529551,16.3332386L31.426758,16.2737293C29.370914,15.0989944,27.032199,14.36014822,24.996446,14.36014882ZM29.830771,33.274151L28.385498,34.142836C28.070475000000002,34.33116,27.967674000000002,34.73914,28.155849,35.054247000000004C28.34402,35.369355999999996,28.751964,35.472353,29.067172,35.28434L30.515537,34.414108C30.830336,34.225019,30.932241,33.816545000000005,30.743149,33.501757C30.554056,33.186966,30.145569,33.085064,29.830771,33.274151ZM33.561434,29.33106C33.969017,29.250732,34.384777,29.424393000000002,34.614119,29.770764C34.843456,30.117136,34.841002,30.567688,34.607904000000005,30.911543L33.663452,32.311949C33.352365,32.795165999999995,32.704979,32.928486,32.228269999999995,32.607513C31.75156,32.286536999999996,31.631613,31.63656,31.962358,31.166584L32.906808999999996,29.76463C33.059067,29.538958,33.294792,29.383615,33.561434,29.33106L33.561434,29.33106ZM33.630991,29.685026999999998C33.457541,29.718581999999998,33.304586,29.819809,33.205912,29.966345L32.260687000000004,31.36907C32.05003,31.673727,32.129061,32.091795000000005,32.436388,32.298542C32.743719,32.505289000000005,33.160757000000004,32.42094,33.363577,32.11101L34.308802,30.709829C34.459779999999995,30.486839,34.461283,30.19479,34.312605000000005,29.970258C34.163927,29.745725999999998,33.894461,29.633091,33.630991,29.685026999999998L33.630991,29.685026999999998ZM24.985626,19.0212178C25.548279,19.0212178,25.938579,19.4115081,25.938579,19.9749165L25.937806000000002,25.602825L29.77667,28.480925C30.234211,28.785428,30.35787,29.270780000000002,30.187838,29.702030999999998L30.146875,29.793227C29.924287,30.238388,29.318355,30.359726,28.800528999999997,30.014263L24.446932,26.943724L24.408288,26.932131C24.303949,26.891168999999998,24.199613,26.7992,24.106095,26.646175L24.051993,26.54725L24.032671999999998,26.466873L24.032671999999998,19.9749179C24.032671999999998,19.411509,24.422199,19.0212197,24.985626,19.0212178ZM24.985626,19.382140200000002C24.621602,19.382140200000002,24.392832,19.6109042,24.392832,19.9749165L24.392832,26.422048L24.40597,26.445232C24.456981,26.535656,24.498714,26.576617,24.519582,26.590528L24.530402000000002,26.595166L24.545088,26.596711L24.625466,26.628397L29.004568,29.717486C29.346177,29.944705,29.704019000000002,29.873601999999998,29.824588,29.632472999999997C29.973751999999998,29.334152,29.906511000000002,29.001053,29.568766,28.774607L25.650297000000002,25.83777L25.577646,25.694020000000002L25.577646,19.9749155C25.577646,19.6109033,25.348877,19.3821392,24.985626,19.382140200000002ZM34.930189,24.433498L35.046122,24.435043999999998C35.610909,24.475457,36.036465,24.965302,35.997528,25.530175L35.879278,27.216538C35.85083,27.790367,35.356578999999996,28.228894,34.783424,28.188839C34.210272,28.148782,33.78183,27.645768,33.833481,27.073560999999998L33.952503,25.386423999999998C33.992107000000004,24.82189,34.48152,24.396127999999997,35.046122,24.435043999999998L34.930189,24.433498ZM34.539116,24.955947000000002C34.405815000000004,25.071728999999998,34.324062,25.235789,34.311893,25.411929L34.193644,27.098292C34.167381,27.464911,34.443645000000004,27.783253000000002,34.810317999999995,27.808892999999998C35.176992,27.834535000000002,35.494873,27.557738999999998,35.519894,27.191034000000002L35.638144,25.504671000000002C35.657191999999995,25.236399,35.512688,24.983088000000002,35.272058,24.862948C35.031431,24.742806,34.742111,24.779517,34.539116,24.955947000000002ZM33.588480000000004,19.5846257C34.109661,19.363224,34.711659999999995,19.6060925,34.933283,20.1271677L35.593315000000004,21.683691C35.812033,22.2045012,35.568426,22.8041153,35.048446999999996,23.0248299C34.528465,23.2455425,33.927902,23.004250499999998,33.705186999999995,22.485137899999998L33.045153,20.9293876C32.823835,20.4080091,33.067091000000005,19.8059411,33.588480000000004,19.5846257ZM34.600944999999996,20.2686C34.457606999999996,19.930416100000002,34.067198000000005,19.7725182,33.729053,19.9159689C33.390909,20.0594206,33.233143,20.4498711,33.376715000000004,20.7879562L34.037519,22.3444796C34.176693,22.6891146,34.571433999999996,22.8526545,34.913565,22.707420300000003C35.255697,22.5621862,35.412241,22.1646252,35.260981,21.8251238L34.600944999999996,20.2686Z" fill="#5D87FF" fill-opacity="1" style="mix-blend-mode:passthrough"/></g></g></g></g></g></svg>