<svg xmlns="http://www.w3.org/2000/svg" xmlns:xlink="http://www.w3.org/1999/xlink" fill="none" version="1.1" width="50" height="50" viewBox="0 0 50 50"><defs><clipPath id="master_svg0_1049_76914"><rect x="10" y="10" width="30" height="30" rx="0"/></clipPath><clipPath id="master_svg1_1049_76922"><rect x="10" y="10" width="30" height="30" rx="0"/></clipPath></defs><g><g><rect x="0" y="0" width="50" height="50" rx="8" fill="#EFF3FF" fill-opacity="1"/></g><g clip-path="url(#master_svg0_1049_76914)"><g clip-path="url(#master_svg1_1049_76922)"><g><path d="M25.000000999999997,15.268745422363281C31.075144,15.268745422363281,36.000001999999995,20.133441422363283,36.000001999999995,26.13437242236328C36.000001999999995,32.135301422363284,31.075144,36.99999642236328,25.000002000000002,36.99999642236328C18.9248586,36.99999642236328,14,32.135301422363284,14,26.13437242236328C14,20.13344242236328,18.9248576,15.268745422363281,25.000000999999997,15.268745422363281ZM25,17.00000002236328C19.7930708,17.00000002236328,16,20.99104592236328,16,26.13436842236328C16,31.277690422363282,19.7930708,35.000000422363286,25,35.000000422363286C30.206928,35.000000422363286,34,31.27768942236328,34,26.13436842236328C34,20.99104782236328,30.206928,17.00000002236328,25,17.00000002236328Z" fill="#5D87FF" fill-opacity="1" style="mix-blend-mode:passthrough"/></g><g><path d="M25,32C24.5,32,24,31.5,24,31C24,30.5,24.5,30,25,30C25.5,30,26,30.5,26,31C26,31.5,25.5,32,25,32ZM25,29C24.56628609,29,24,28.458683,24,28L24,21C24,20.54209232,24.5,20,25,20C25.5,20,26,20.54131472,26,21L26,28C26,28.4594612,25.4337138,29,25,29Z" fill="#5D87FF" fill-opacity="1" style="mix-blend-mode:passthrough"/></g><g><path d="M14.504107360561523,15.603000632748413L17.599810550561525,13.213878642748414Q18.218961750561522,12.736053762748414,18.702837950561523,13.347640992748413Q19.186572050561523,13.959228992748413,18.567095750561524,14.437053632748412L15.471392550561523,16.826175732748414Q14.852240980561524,17.304000632748412,14.368853450561524,16.692413332748412Q13.885119320561524,16.080825332748415,14.504107360561523,15.603000632748413Z" fill="#5D87FF" fill-opacity="1" style="mix-blend-mode:passthrough"/><path d="M13.863085570561523,16.077304132748413Q13.813803140561523,16.474252932748414,14.133492564561523,16.87843823274841Q14.800763730561524,17.722677032748415,15.654681950561523,17.063672732748415L18.75032325056152,14.674598932748413Q19.159070450561522,14.359317332748413,19.208467050561524,13.962881622748412Q19.257936050561526,13.565862002748414,18.938107050561523,13.161500392748414Q18.270323250561525,12.317466382748414,17.416521050561524,12.976381379748412L14.320817840561524,15.365503332748414L14.320789400561523,15.365525232748412Q13.912306320561523,15.680851432748414,13.863085570561523,16.077304132748413ZM17.599810550561525,13.213878642748414L14.504107360561523,15.603000632748413Q14.193754523561523,15.842576032748413,14.160614322861523,16.115777932748415Q14.127657532561523,16.387467832748413,14.368853450561524,16.692413332748412Q14.852240980561524,17.304000632748412,15.471392550561523,16.826175732748414L18.567095750561524,14.437053632748412Q18.877844350561524,14.197361932748413,18.910987850561526,13.924010872748413Q18.943915850561524,13.652437452748414,18.702837950561523,13.347640992748413Q18.218961750561522,12.736053762748414,17.599810550561525,13.213878642748414Z" fill-rule="evenodd" fill="#5D87FF" fill-opacity="1"/></g><g><path d="M35.515137152954104,15.472915684744262L32.3369145529541,13.191967024744264Q31.7012590729541,12.735777554744264,31.2392582329541,13.363670344744262Q30.777426062954103,13.991561654744263,31.413086352954103,14.447750084744262L34.5913090529541,16.728698684744263Q35.2269644529541,17.184888084744262,35.6889653529541,16.556995384744262Q36.1507973529541,15.929104084744264,35.515137152954104,15.472915684744262Z" fill="#5D87FF" fill-opacity="1" style="mix-blend-mode:passthrough"/><path d="M30.7555829629541,13.996133144744263Q30.818823232954102,14.390531284744263,31.2381706129541,14.691480384744263L34.4163901529541,16.97242708474426Q34.8340728529541,17.27218408474426,35.229915652954105,17.210263484744264Q35.626386152954105,17.148244584744262,35.9306030529541,16.734791484744264Q36.2359876529541,16.319600084744263,36.172640352954105,15.924532684744262Q36.109399752954104,15.530134484744263,35.690052952954105,15.229185584744263L32.5118335529541,12.948238931744262Q32.0941513529541,12.648481904744262,31.698308412954102,12.710402484744263Q31.3018380129541,12.772421274744262,30.997620798954102,13.185874594744263Q30.6922354129541,13.601066054744262,30.7555829629541,13.996133144744263ZM32.3369145529541,13.191967024744264L35.515137152954104,15.472915684744262Q35.834161252954104,15.701866584744263,35.8767471529541,15.974066484744263Q35.9190139529541,16.244229084744262,35.6889653529541,16.556995384744262Q35.2269644529541,17.184888084744262,34.5913090529541,16.728698684744263L31.413086352954103,14.447750084744262Q31.0940622689541,14.218798984744263,31.0514765530541,13.946599124744262Q31.0092095879541,13.676436664744262,31.2392582329541,13.363670344744262Q31.7012590729541,12.735777554744264,32.3369145529541,13.191967024744264Z" fill-rule="evenodd" fill="#5D87FF" fill-opacity="1"/></g></g></g></g></svg>