<svg xmlns="http://www.w3.org/2000/svg" xmlns:xlink="http://www.w3.org/1999/xlink" fill="none" version="1.1" width="50" height="50" viewBox="0 0 50 50"><defs><clipPath id="master_svg0_1049_018085"><rect x="10" y="10" width="30" height="30" rx="0"/></clipPath></defs><g><g><rect x="0" y="0" width="50" height="50" rx="8" fill="#EFF3FF" fill-opacity="1"/></g><g clip-path="url(#master_svg0_1049_018085)"><g><path d="M25.665343999999997,15.4299049L33.923012,15.4299049C35.069635000000005,15.432593,35.998267999999996,16.3953924,35.999995999999996,17.5833058L35.999995999999996,29.009518C36.001734,30.196112,35.07465,31.159494,33.929298,31.161291L25.665343999999997,31.161291L25.665343999999997,34.105738L24.325203000000002,34.105738L24.325203000000002,31.161291L16.0707037,31.161291C14.92694926,31.161291,14.0000053939134,30.197712,14.0000053939134,29.009518L14.0000053939134,17.5833063C13.9973999339,16.3960762,14.92473793,15.4317006,16.0707037,15.4299049L24.325203000000002,15.4299049L24.325203000000002,14.69419914C24.325203000000002,14.31080353,24.625204,14,24.995274000000002,14C25.365343,14,25.665343999999997,14.31080353,25.665343999999997,14.69419914L25.665343999999997,15.4299049ZM34.65357,17.5833063C34.65357,17.1649964,34.325210999999996,16.8231864,33.923012,16.8231864L33.921440000000004,16.8231859L16.0707037,16.8231859C15.668504200000001,16.8231859,15.3401462,17.1649959,15.3401462,17.5833058L15.3401462,29.009518C15.341007,29.427416,15.6673324,29.76622,16.0707037,29.76801L33.923012,29.76801C34.325212,29.76801,34.65357,29.426199,34.65357,29.009518L34.65357,17.5833063Z" fill-rule="evenodd" fill="#5D87FF" fill-opacity="1" style="mix-blend-mode:passthrough"/><path d="M25.665343999999997,15.1799049L33.923012,15.1799049Q34.889429,15.1821699,35.570782,15.8885908Q36.248554,16.5913012,36.249995999999996,17.5829427L36.249995999999996,29.009518Q36.251447999999996,30.000061,35.574944,30.703054Q34.894850000000005,31.409779,33.929693,31.411291L25.665343999999997,31.411291L25.665343999999997,31.161291L25.915343999999997,31.161291L25.915343999999997,34.35574L24.075203000000002,34.35574L24.075203000000002,31.161291L24.325203000000002,31.161291L24.325203000000002,31.411291L16.070704,31.411291Q15.1065602,31.411291,14.42629951,30.704319Q13.75000548,30.001469,13.75000556,29.009518L13.75000538,17.5833063Q13.74783018,16.5924158,14.42443714,15.8887851Q15.104637,15.1814182,16.0703125,15.1799047L24.325203000000002,15.1799049L24.325203000000002,15.4299049L24.075203000000002,15.4299049L24.075203000000002,14.6941992Q24.075203000000002,14.30567941,24.341587,14.02970314Q24.611568,13.75000006,24.995274000000002,13.75Q25.378981,13.75,25.648961999999997,14.0297032Q25.915343999999997,14.30567834,25.915343999999997,14.6941992L25.915343999999997,15.4299049L25.665343999999997,15.4299049L25.665343999999997,15.1799049ZM25.415343999999997,15.6799049L25.415343999999997,14.6941992Q25.415343999999997,14.25,24.995274000000002,14.25Q24.575203000000002,14.25000006,24.575203000000002,14.6941992L24.575203000000002,15.6799049L16.0710959,15.679904Q15.317822,15.6810846,14.78484368,16.235350099999998Q14.24827239,16.7933519,14.25000539,17.5833063L14.25000557,29.009518Q14.25000545,29.799976,14.78659403,30.357635Q15.3193299,30.911291,16.070704,30.911291L24.575203000000002,30.911291L24.575203000000002,34.10574L24.325203000000002,34.10574L24.325203000000002,33.85574L25.665343999999997,33.85574L25.665343999999997,34.10574L25.415343999999997,34.10574L25.415343999999997,30.911291L33.928909000000004,30.911291Q34.681778,30.91011,35.214668,30.356354Q35.751152000000005,29.798864000000002,35.749995999999996,29.009518L35.749995999999996,17.583669399999998Q35.748846,16.7934418,35.210899,16.2357011Q34.676531,15.6816723,33.923012,15.6799049L25.665343999999997,15.6799049L25.415343999999997,15.6799049ZM34.40357,17.5833063Q34.40357,17.0731864,33.923012,17.0731864L33.921391,17.0731859L16.070704,17.0731859Q15.5901463,17.0731859,15.5901463,17.5833061L15.5901463,29.009518Q15.5911897,29.51588,16.0718136,29.518013L33.923012,29.518011Q34.40357,29.518011,34.40357,29.009518L34.40357,17.5833063ZM34.90357,17.5833063L34.90357,29.009518Q34.90357,29.422942,34.619248999999996,29.718376Q34.330887000000004,30.018011,33.923012,30.018011L16.0695944,30.018009Q15.6614094,30.016197,15.3744221,29.718235Q15.0909994,29.423975,15.0901463,29.009518L15.0901463,17.5833061Q15.0901463,17.1688945,15.3743401,16.8731563Q15.6626009,16.5731859,16.070704,16.5731859L33.921492,16.5731859L33.923012,16.5731864Q34.331114,16.5731864,34.619375000000005,16.8731565Q34.90357,17.1688957,34.90357,17.5833063Z" fill="#5D87FF" fill-opacity="1"/></g><g><path d="M32.706965,21.70696539Q32.847589,21.56634128,32.923695,21.38260692Q32.9998,21.1988726,32.9998,21Q32.9998,20.901528291,32.980589,20.8049487Q32.961377999999996,20.70836911,32.923694,20.61739314Q32.88601,20.52641714,32.831303,20.44454092Q32.776594,20.3626647,32.706964,20.29303467Q32.637335,20.22340465,32.555458,20.16869676Q32.473580999999996,20.11398882,32.382605999999996,20.07630533Q32.29163,20.03862178,32.19505,20.01941091Q32.098471,20.00020003,32,20.00019997Q31.801128,20.00019997,31.617393,20.07630527Q31.433659,20.15241045,31.293035,20.29303461L31.292893,20.29289317L27.5428162,24.0429704L24.5997057,20.73196954Q24.1696672,20.24817598,23.522652100000002,20.22916245Q22.8756371,20.21014893,22.4179311,20.66785535L18.29289317,24.7928932L18.29303467,24.7930346Q18.15241051,24.9336588,18.07630527,25.117393Q18.00019997,25.3011274,18.00019997,25.5Q18.00020003,25.5984716,18.01941091,25.6950507Q18.03862178,25.7916303,18.07630527,25.8826065Q18.11398876,25.9735823,18.1686967,26.0554585Q18.22340465,26.137334799999998,18.29303467,26.206965Q18.3626647,26.2765946,18.44454092,26.3313026Q18.52641714,26.3860102,18.61739314,26.4236941Q18.70836911,26.4613781,18.8049487,26.4805889Q18.901528291,26.4997997,19,26.4998002Q19.19887257,26.4997997,19.38260686,26.4236946Q19.56634116,26.347589499999998,19.70696533,26.2069654L19.70710683,26.2071071L23.457183399999998,22.4570307L26.4002957,25.768033Q26.8303347,26.2518244,27.4773483,26.2708373Q28.1243629,26.2898502,28.5820684,25.8321447L32.707107,21.70710683L32.706965,21.70696539Z" fill-rule="evenodd" fill="#5D87FF" fill-opacity="1"/></g><g><path d="M25,35.077033L29.6286097,36.9284768L29.628684,36.9282911Q29.807456000000002,36.9998,30,36.9998Q30.098472,36.9997997,30.195051,36.9805889Q30.291629999999998,36.9613779,30.382606,36.9236944Q30.473581,36.8860106,30.555458,36.8313029Q30.637335,36.7765951,30.706964,36.7069652Q30.776594,36.6373351,30.831302,36.555459Q30.886009,36.4735827,30.923693,36.3826067Q30.961376,36.2916307,30.980587999999997,36.1950512Q30.9998,36.098471599999996,30.9998,36Q30.9998,35.9254842,30.988754,35.8517917Q30.977708,35.7780992,30.95586,35.7068584Q30.934010999999998,35.6356175,30.901844,35.5684023Q30.869677,35.5011873,30.827902,35.4394833Q30.786125,35.3777792,30.735664,35.3229495Q30.685204,35.2681199,30.627172,35.2213764Q30.569141000000002,35.1746328,30.504822,35.1370081Q30.440502000000002,35.0993834,30.371316,35.0717089L30.371389999999998,35.0715233L25,32.9229671L19.62860933,35.0715233L19.62868363,35.071709Q19.55949748,35.0993835,19.4951781,35.1370082Q19.43085873,35.1746328,19.37282741,35.2213764Q19.31479609,35.2681199,19.2643351,35.3229495Q19.213874099999998,35.3777792,19.1720984,35.4394833Q19.13032275,35.5011873,19.0981555,35.5684023Q19.06598824,35.6356173,19.04414016,35.7068582Q19.02229214,35.7780991,19.01124609,35.8517916Q19.00020003,35.9254842,19.00019997,36Q19.00020003,36.098471599999996,19.01941091,36.1950512Q19.03862178,36.2916307,19.07630527,36.3826067Q19.11398876,36.4735827,19.1686967,36.5554588Q19.22340465,36.6373351,19.29303467,36.7069652Q19.3626647,36.7765951,19.44454092,36.8313029Q19.52641714,36.8860106,19.61739314,36.9236944Q19.70836911,36.9613779,19.8049487,36.9805889Q19.901528291,36.9997997,20,36.9998Q20.19254385,36.9998,20.37131634,36.9282911L20.37139067,36.9284768L25,35.077033Z" fill-rule="evenodd" fill="#5D87FF" fill-opacity="1"/></g></g></g></svg>