<svg xmlns="http://www.w3.org/2000/svg" xmlns:xlink="http://www.w3.org/1999/xlink" fill="none" version="1.1" width="14" height="14" viewBox="0 0 14 14"><defs><clipPath id="master_svg0_1_6908"><rect x="0" y="0" width="14" height="14" rx="0"/></clipPath></defs><g clip-path="url(#master_svg0_1_6908)"><g><path d="M9.20047,2.60251Q9.03291,2.60251,8.91867,2.49757Q8.80442,2.39263,8.72826,2.25271Q8.6521,2.11279,8.61402,1.96588Q8.57594,1.81896,8.57594,1.72102L8.57594,0L8.6064,0Q8.74349,0,8.86536,0.027984Q8.98722,0.055968,9.16239,0.160908Q9.33756,0.265848,9.5889,0.45474Q9.84024,0.643632,10.2211,0.951456Q10.6323,1.28726,10.8761,1.51813Q11.1198,1.749,11.2493,1.90991Q11.3787,2.07082,11.4092,2.18275Q11.4397,2.29469,11.4397,2.37864L11.4397,2.60251L9.20047,2.60251ZM13.9378,9.19275Q13.9835,9.30468,13.9987,9.47259Q14.014,9.64049,13.8464,9.7944Q13.7702,9.86436,13.7093,9.92733Q13.6484,9.99029,13.6027,10.0323Q13.5418,10.0882,13.4961,10.1162L12.2013,8.94089Q12.2927,8.87093,12.4069,8.77299Q12.5212,8.67504,12.5973,8.61908Q12.7801,8.46516,12.9934,8.48615Q13.2066,8.50714,13.3437,8.5771Q13.4961,8.64706,13.6712,8.82196Q13.8464,8.99686,13.9378,9.19275ZM8.5607,10.494Q8.89582,10.494,9.12431,10.3261L6.16919,13.1525L1.965,13.1525Q1.67558,13.1525,1.33285,12.9986Q0.990117,12.8447,0.693082,12.5928Q0.396047,12.3409,0.198023,12.0121Q0,11.6833,0,11.3335L0,1.80497Q0,1.51114,0.144709,1.18932Q0.289419,0.867505,0.540756,0.608653Q0.792094,0.349801,1.11198,0.1749Q1.43186,3.48952e-7,1.78221,3.66399e-7L7.61628,3.66399e-7L7.61628,1.749Q7.61628,2.01485,7.70768,2.32267Q7.79908,2.6305,7.98948,2.88935Q8.17989,3.1482,8.48454,3.3231Q8.78919,3.498,9.2157,3.498L11.4397,3.498L11.4397,8.12936L9.3528,10.1162Q9.52036,9.89235,9.52036,9.6265Q9.52036,9.26271,9.23855,9.00385Q8.95675,8.745,8.5607,8.745L2.84849,8.745Q2.45244,8.745,2.17826,9.00385Q1.90407,9.26271,1.90407,9.6265Q1.90407,9.99029,2.17826,10.2421Q2.45244,10.494,2.84849,10.494L8.5607,10.494ZM2.84849,5.247Q2.45244,5.247,2.17826,5.50585Q1.90407,5.76471,1.90407,6.1285Q1.90407,6.49229,2.17826,6.74415Q2.45244,6.996,2.84849,6.996L8.5607,6.996Q8.95675,6.996,9.23855,6.74415Q9.52036,6.49229,9.52036,6.1285Q9.52036,5.76471,9.23855,5.50585Q8.95675,5.247,8.5607,5.247L2.84849,5.247ZM8.59117,12.257L8.78919,12.0751L9.17001,11.7253Q9.39849,11.5154,9.67268,11.2566Q9.94687,10.9977,10.2211,10.7459Q10.8761,10.1442,11.6986,9.40263L12.9781,10.578L11.5006,11.9352L10.9522,12.4389L10.4495,12.9006Q10.2363,13.0965,10.0916,13.2364Q9.94687,13.3764,9.93163,13.3903Q9.85547,13.4463,9.76408,13.5093Q9.67268,13.5722,9.58128,13.6142Q9.48989,13.6562,9.29948,13.7192Q9.10908,13.7821,8.91105,13.8381Q8.71303,13.8941,8.53024,13.936Q8.34745,13.978,8.25605,13.992Q8.07326,14.02,8.01233,13.95Q7.9514,13.8801,7.98186,13.7122Q7.9971,13.6282,8.0428,13.4603Q8.08849,13.2924,8.14942,13.1175Q8.21035,12.9426,8.26367,12.7887Q8.31698,12.6348,8.34745,12.5788Q8.43884,12.3969,8.59117,12.257Z" fill="#0064FF" fill-opacity="1" style="mix-blend-mode:passthrough"/></g></g></svg>