<svg xmlns="http://www.w3.org/2000/svg" xmlns:xlink="http://www.w3.org/1999/xlink" fill="none" version="1.1" width="14" height="14" viewBox="0 0 14 14"><g><path d="M7,14C3.1342499,14,0,10.866187,0,7C0,3.1338124,3.1342499,0,7,0C10.866187,0,14,3.1338124,14,7C14,10.866187,10.866187,14,7,14ZM6.25,7.5L6.25,3.5Q6.2499995,3.4261312,6.26441,3.3536818Q6.278821,3.2812326,6.3070893,3.2129869Q6.3353577,3.1447415,6.3763967,3.083322Q6.4174361,3.0219026,6.4696693,2.9696698Q6.5219021,2.9174368,6.5833216,2.8763976Q6.6447411,2.8353586,6.7129869,2.8070903Q6.7812328,2.7788219,6.853682,2.764411Q6.9261312,2.75,7,2.75Q7.0738683,2.75,7.1463175,2.764411Q7.2187662,2.7788219,7.2870121,2.8070903Q7.3552575,2.8353586,7.416677,2.8763976Q7.4780965,2.9174368,7.5303297,2.9696698Q7.5825624,3.0219026,7.6236014,3.083322Q7.6646404,3.1447415,7.6929088,3.2129872Q7.7211771,3.2812328,7.7355881,3.3536818Q7.7499995,3.4261312,7.75,3.5L7.75,7.5Q7.7499995,7.5738678,7.7355886,7.6463165Q7.7211771,7.7187657,7.6929088,7.7870111Q7.6646404,7.8552566,7.6236019,7.916676Q7.5825624,7.9780951,7.5303297,8.0303288Q7.4780965,8.0825615,7.416677,8.123601Q7.3552575,8.1646404,7.2870121,8.1929092Q7.2187662,8.2211781,7.1463175,8.235589Q7.0738683,8.25,7,8.25Q6.9261312,8.25,6.8536816,8.235589Q6.7812328,8.2211781,6.7129869,8.1929092Q6.6447411,8.1646404,6.5833216,8.1236019Q6.5219021,8.0825624,6.4696693,8.0303297Q6.4174361,7.978097,6.3763967,7.9166765Q6.3353577,7.855257,6.3070893,7.7870116Q6.278821,7.7187662,6.2644105,7.646317Q6.2499995,7.5738678,6.25,7.5ZM7.75,10.75Q7.7499995,10.823868,7.7355886,10.896317Q7.7211771,10.968765,7.6929088,11.037011Q7.6646404,11.105257,7.6236019,11.166677Q7.5825624,11.228096,7.5303297,11.28033Q7.4780965,11.332562,7.416677,11.373602Q7.3552575,11.41464,7.2870121,11.442909Q7.2187662,11.471178,7.1463175,11.485589Q7.0738683,11.5,7,11.5Q6.9261312,11.5,6.8536816,11.485588Q6.7812328,11.471178,6.7129869,11.442909Q6.6447411,11.41464,6.5833216,11.373602Q6.5219021,11.332561,6.4696693,11.280329Q6.4174361,11.228096,6.3763967,11.166677Q6.3353577,11.105257,6.3070893,11.037011Q6.278821,10.968765,6.2644105,10.896317Q6.2499995,10.823868,6.25,10.75Q6.2499995,10.67613,6.26441,10.603682Q6.278821,10.531232,6.3070893,10.462986Q6.3353577,10.394741,6.3763967,10.333322Q6.4174361,10.271902,6.4696693,10.219669Q6.5219021,10.167437,6.5833216,10.126397Q6.6447411,10.085358,6.7129869,10.05709Q6.7812328,10.028822,6.853682,10.01441Q6.9261312,10,7,10Q7.0738683,10,7.1463175,10.014411Q7.2187662,10.028822,7.2870121,10.05709Q7.3552575,10.085358,7.416677,10.126397Q7.4780965,10.167437,7.5303297,10.219669Q7.5825624,10.271902,7.6236014,10.333322Q7.6646404,10.394741,7.6929088,10.462986Q7.7211771,10.531232,7.7355881,10.603682Q7.7499995,10.67613,7.75,10.75Z" fill-rule="evenodd" fill="#DB6A0F" fill-opacity="1"/></g></svg>