<svg xmlns="http://www.w3.org/2000/svg" xmlns:xlink="http://www.w3.org/1999/xlink" fill="none" version="1.1" width="30" height="30" viewBox="0 0 30 30"><defs><linearGradient x1="0.5" y1="0" x2="0.5" y2="1" id="master_svg0_580_99392"><stop offset="0%" stop-color="#0064FF" stop-opacity="1"/><stop offset="100%" stop-color="#257AFF" stop-opacity="1"/></linearGradient></defs><g><g><rect x="0" y="0" width="30" height="29.999998092651367" rx="6" fill="#0064FF" fill-opacity="0.11999999731779099"/></g><g><path d="M12.7142854,17.857142C13.6610718,17.857142,14.4285707,18.624642,14.4285707,19.571427999999997L14.4285707,21.285715C14.4285707,22.232499,13.6610718,23,12.7142854,23L8.7142856,23C7.76750004,23,7,22.232499,7,21.285715L7,19.571427999999997C7,18.624642,7.76750004,17.857142,8.7142856,17.857142L12.7142854,17.857142ZM21.285715,13.2857141C22.232499,13.2857141,23,14.0532141,23,15L23,21.285715C23,22.232499,22.232499,23,21.285715,23L17.285714,23C16.338929200000003,23,15.5714293,22.232499,15.5714293,21.285715L15.5714293,15C15.5714293,14.0532141,16.338929200000003,13.2857141,17.285714,13.2857141L21.285715,13.2857141ZM12.7142854,7C13.6610718,7,14.4285707,7.76750004,14.4285707,8.7142856L14.4285707,15C14.4285707,15.9467859,13.6610718,16.7142859,12.7142854,16.7142859L8.7142856,16.7142859C7.76750004,16.7142859,7,15.9467859,7,15L7,8.7142856C7,7.76750004,7.76750004,7,8.7142856,7L12.7142854,7ZM21.285715,7C22.232499,7,23,7.76750004,23,8.7142856L23,10.4285712C23,11.375356700000001,22.232499,12.1428571,21.285715,12.1428571L17.285714,12.1428571C16.338929200000003,12.1428571,15.5714293,11.375356700000001,15.5714293,10.4285712L15.5714293,8.7142856C15.5714293,7.76750004,16.338929200000003,7,17.285714,7L21.285715,7Z" fill="url(#master_svg0_580_99392)" fill-opacity="1"/></g></g></svg>