<?xml version="1.0" encoding="UTF-8"?>
<svg width="13px" height="12px" viewBox="0 0 13 12" version="1.1" xmlns="http://www.w3.org/2000/svg" xmlns:xlink="http://www.w3.org/1999/xlink">
    <!-- Generator: Sketch 60 (88103) - https://sketch.com -->
    <title>编组 92</title>
    <desc>Created with Sketch.</desc>
    <g id="页面-2" stroke="none" stroke-width="1" fill="none" fill-rule="evenodd">
        <g id="评论风控-新增（有）" transform="translate(-1504.000000, -224.000000)" fill="#EB3737" fill-rule="nonzero">
            <g id="编组-109">
                <g id="编组-108">
                    <g id="编组-107" transform="translate(1182.000000, 0.000000)">
                        <g id="编组-104" transform="translate(322.960037, 221.000000)">
                            <g id="编组-92" transform="translate(0.000000, 3.000000)">
                                <g id="编组-9">
                                    <g id="编组" transform="translate(0.000000, 0.000000)">
                                        <path d="M9.365625,10.096875 C9.365625,10.5 9.03748828,10.828125 8.634375,10.828125 L3.365625,10.828125 C2.9625,10.828125 2.634375,10.5 2.634375,10.096875 L2.634375,2.334375 L9.365625,2.334375 L9.365625,10.096875 L9.365625,10.096875 Z M4.096875,1.021875 C4.096875,0.9375 4.1625,0.871875 4.246875,0.871875 L7.7625,0.871875 C7.846875,0.871875 7.9125,0.9375 7.9125,1.021875 L7.9125,1.4625 L4.096875,1.4625 L4.096875,1.021875 Z M11.559375,1.4625 L8.784375,1.4625 L8.784375,1.021875 C8.784375,0.459363281 8.325,5.82867088e-16 7.7625,5.82867088e-16 L4.246875,5.82867088e-16 C3.684375,5.82867088e-16 3.225,0.459363281 3.225,1.021875 L3.225,1.4625 L0.440625,1.4625 C0.196875,1.4625 0,1.659375 0,1.903125 C0,2.146875 0.196875,2.34375 0.440625,2.34375 L1.753125,2.34375 L1.753125,10.096875 C1.753125,10.9875 2.475,11.709375 3.365625,11.709375 L8.634375,11.709375 C9.525,11.709375 10.246875,10.9875 10.246875,10.096875 L10.246875,2.334375 L11.559375,2.334375 C11.803125,2.334375 12,2.1375 12,1.89375 C12,1.65 11.803125,1.4625 11.559375,1.4625 Z M6,9.50625 C6.24375,9.50625 6.440625,9.309375 6.440625,9.065625 L6.440625,4.378125 C6.440625,4.134375 6.24375,3.9375 6,3.9375 C5.75625,3.9375 5.559375,4.134375 5.559375,4.378125 L5.559375,9.065625 C5.559375,9.309375 5.75625,9.50625 6,9.50625 M3.946875,9.50625 C4.190625,9.50625 4.3875,9.309375 4.3875,9.065625 L4.3875,4.378125 C4.3875,4.134375 4.190625,3.9375 3.946875,3.9375 C3.703125,3.9375 3.50625,4.134375 3.50625,4.378125 L3.50625,9.065625 C3.515625,9.309375 3.7125,9.50625 3.946875,9.50625 M8.053125,9.50625 C8.296875,9.50625 8.49375,9.309375 8.49375,9.065625 L8.49375,4.378125 C8.49375,4.134375 8.296875,3.9375 8.053125,3.9375 C7.809375,3.9375 7.6125,4.134375 7.6125,4.378125 L7.6125,9.065625 C7.6125,9.309375 7.809375,9.50625 8.053125,9.50625" id="形状"></path>
                                    </g>
                                </g>
                            </g>
                        </g>
                    </g>
                </g>
            </g>
        </g>
    </g>
</svg>