<svg xmlns="http://www.w3.org/2000/svg" xmlns:xlink="http://www.w3.org/1999/xlink" fill="none" version="1.1" width="87.03173828125" height="80.89111328125" viewBox="0 0 87.03173828125 80.89111328125"><defs><clipPath id="master_svg0_580_049990"><rect x="59.999996185302734" y="53.999996185302734" width="21.60000228881836" height="21.60000228881836" rx="0"/></clipPath></defs><g><g><g><path d="M7.472519331622529,13.34414005279541L65.73030653162253,13.34414005279541L73.20276453162253,33.512929052795414L67.08768353162253,50.00719205279541C66.26502853162253,52.21464205279541,64.16725753162252,53.68171805279541,61.82268753162253,53.68171805279541L11.39384853162253,53.68171805279541C9.04927773162253,53.68171805279541,6.937793631622529,52.21464205279541,6.128848931622529,50.00719205279541L0.01376953162252903,33.512929052795414L7.472519331622529,13.34414005279541Z" fill="#B2BAC3" fill-opacity="1" style="mix-blend-mode:passthrough"/></g><g><path d="M0,33.51211166381836L73.202705,33.51211166381836L66.580322,69.25652666381836C66.086731,71.91645066381835,63.769577,73.84968966381837,61.05481,73.84968966381837L12.147892,73.84968966381837C9.4331255,73.84968966381837,7.1159763,71.91645066381835,6.6223841,69.25652666381836L0,33.51211166381836Z" fill="#E2E7EC" fill-opacity="1" style="mix-blend-mode:passthrough"/></g><g><path d="M19.428429472753905,40.230464935302734L53.788044072753905,40.230464935302734C54.6106990727539,40.230464935302734,55.28253507275391,40.902300955302735,55.28253507275391,41.72495723530273C55.28253507275391,42.547613335302735,54.6106990727539,43.219449535302736,53.788044072753905,43.219449535302736L19.428429472753905,43.219449535302736C18.605773092753907,43.219449535302736,17.933937072753906,42.547613335302735,17.933937072753906,41.72495723530273C17.933937072753906,40.902300955302735,18.605773092753907,40.230464935302734,19.428429472753905,40.230464935302734Z" fill="#AFB9C3" fill-opacity="1" style="mix-blend-mode:passthrough"/></g><g><path d="M45.492916036102294,0.0026323928L8.267715436102295,2.2786484C7.239395086102295,2.347203,6.444160655102295,3.2247033,6.512715351802295,4.2667346C6.512715351802295,4.3078675,6.512715351802295,4.335289,6.526426291102295,4.3764219L10.022715836102295,33.512169L48.9343600361023,33.512169L47.48099803610229,1.7850544C47.439872036102294,0.75673401,46.5623660361023,-0.052211367,45.52033903610229,0.0026323928L45.492916036102294,0.0026323928Z" fill="#C7D0D9" fill-opacity="1" style="mix-blend-mode:passthrough"/></g><g><path d="M28.29943518815918,1.8953836013255738L64.48259948815918,3.499563371525574C65.51091948815917,3.540696171525574,66.31986848815919,4.418196071525574,66.26502048815918,5.460227871525573C66.26502048815918,5.501360571525574,66.26502048815918,5.542493471525574,66.25131748815917,5.583625471525574L63.11150148815918,33.51280507152558L23.52802848815918,33.51280507152558L26.36619258815918,3.5955400715255736C26.448458388159178,2.5946414515255736,27.31224748815918,1.8542507925255738,28.29943518815918,1.8953836013255738Z" fill="#D3DAE1" fill-opacity="1" style="mix-blend-mode:passthrough"/></g><g><path d="M15.328887544189453,5.13046932220459L57.147247044189456,5.13046932220459C58.175568044189454,5.13046932220459,59.02565404418945,5.9668363922045895,59.02565404418945,7.00886762220459L59.02565404418945,33.52581932220459L13.450489044189453,33.52581932220459L13.450489044189453,6.99515662220459C13.450489044189453,5.9668363922045895,14.286856354189453,5.13046932220459,15.328887544189453,5.13046932220459Z" fill="#EBEEF1" fill-opacity="1" style="mix-blend-mode:passthrough"/></g><g><path d="M17.933907745878905,29.38547364440918C17.412892195878907,29.38547364440918,17.001564025878906,28.96043564440918,17.001564025878906,28.45312864440918C17.001564025878906,27.93211564440918,17.426603165878905,27.52078664440918,17.933907745878905,27.52078664440918C19.263869025878908,27.52078664440918,19.963126925878907,27.013480644409178,21.30679892587891,25.35445664440918L21.457619225878908,25.17621464440918C23.226329825878906,22.99617464440918,24.446603725878905,22.14609764440918,26.736330025878907,22.14609764440918C29.108322025878905,22.14609764440918,30.205196025878905,23.18812864440918,31.727112025878906,25.83433964440918L31.781957025878906,25.93031664440918C32.961098025878904,27.98695764440918,33.56437902587891,28.57652864440918,34.921762025878905,28.57652864440918C36.55336202587891,28.57652864440918,37.56797002587891,28.20633164440918,39.55605702587891,27.08203464440918L39.734302025878904,26.98605964440918C41.845787025878906,25.806917644409182,43.0523470258789,25.35445664440918,44.930748025878906,25.35445664440918C46.973675025878904,25.35445664440918,48.05684102587891,26.177113644409182,49.715862025878906,28.28859864440918L49.866684025878904,28.48055064440918C51.30633502587891,30.30410764440918,52.10157002587891,30.89367464440918,53.650902025878906,30.89367464440918C54.171917025878905,30.89367464440918,54.58324802587891,31.31871764440918,54.58324802587891,31.82601964440918C54.58324802587891,32.34703864440918,54.158211025878906,32.75836564440918,53.650902025878906,32.75836564440918C51.37488902587891,32.75836564440918,50.15461302587891,31.86715364440918,48.399614025878904,29.63227064440918L48.2487960258789,29.44031764440918C46.918835025878906,27.74016164440918,46.219574025878906,27.21914464440918,44.930748025878906,27.21914464440918C43.463678025878906,27.21914464440918,42.503912025878904,27.57563064440918,40.65293302587891,28.60395064440918L40.474693025878906,28.699926644409178C38.22609702587891,29.96133464440918,36.9646930258789,30.42750564440918,34.921762025878905,30.42750564440918C32.673166025878906,30.42750564440918,31.644846025878905,29.44031764440918,30.164065025878905,26.83523764440918L30.109222025878907,26.73926164440918C28.902658025878907,24.62777764440918,28.230823025878905,23.99707364440918,26.750041925878904,23.99707364440918C25.173284525878906,23.99707364440918,24.378049825878907,24.55922364440918,22.924689725878906,26.34164664440918L22.773870025878907,26.51988764440918C21.087424325878906,28.59023864440918,19.990548825878907,29.38547364440918,17.933907745878905,29.38547364440918ZM26.900861725878904,16.33265824440918L33.61922302587891,16.33265824440918C34.030552025878904,16.33265824440918,34.35961302587891,16.66172124440918,34.35961302587891,17.07304954440918C34.35961302587891,17.48437784440918,34.030552025878904,17.81343934440918,33.61922302587891,17.81343934440918L26.900861725878904,17.81343934440918C26.489534425878908,17.81343934440918,26.16047192587891,17.48437784440918,26.16047192587891,17.07304954440918C26.146760925878908,16.66172124440918,26.489534425878908,16.33265824440918,26.900861725878904,16.33265824440918ZM26.900861725878904,13.34367344440918L54.54211402587891,13.34367344440918C54.95344502587891,13.34367344440918,55.282505025878905,13.67273594440918,55.282505025878905,14.08406404440918C55.282505025878905,14.49539284440918,54.95344502587891,14.82445524440918,54.54211402587891,14.82445524440918L26.900861725878904,14.82445524440918C26.489534425878908,14.82445524440918,26.16047192587891,14.49539284440918,26.16047192587891,14.08406404440918C26.16047192587891,13.67273594440918,26.489534425878908,13.34367344440918,26.900861725878904,13.34367344440918ZM26.900861725878904,10.35468864440918L54.54211402587891,10.35468864440918C54.95344502587891,10.35468864440918,55.282505025878905,10.68375119440918,55.282505025878905,11.09507948440918C55.282505025878905,11.50640764440918,54.95344502587891,11.83547034440918,54.54211402587891,11.83547034440918L26.900861725878904,11.83547034440918C26.489534425878908,11.83547034440918,26.16047192587891,11.50640764440918,26.16047192587891,11.09507948440918C26.146760925878908,10.68375119440918,26.489534425878908,10.35468864440918,26.900861725878904,10.35468864440918ZM18.125861025878905,10.35468864440918L23.719924425878908,10.35468864440918C24.240940125878907,10.35468864440918,24.65226842587891,10.779727784409179,24.65226842587891,11.28703248440918L24.65226842587891,16.88109634440918C24.65226842587891,17.40211154440918,24.227229125878907,17.81343934440918,23.719924425878908,17.81343934440918L18.125861025878905,17.81343934440918C17.604845405878905,17.81343934440918,17.193517175878906,17.38840154440918,17.193517175878906,16.88109634440918L17.193517175878906,11.28703248440918C17.193517175878906,10.76601684440918,17.604845405878905,10.35468864440918,18.125861025878905,10.35468864440918Z" fill="#C9D1D9" fill-opacity="1" style="mix-blend-mode:passthrough"/></g><g><ellipse cx="70.2317886352539" cy="64.09101390838623" rx="14.400001525878906" ry="14.40000057220459" fill="#E2E7EC" fill-opacity="1"/><path d="M87.031790109375,64.09101433618164Q87.031790109375,64.50343133618163,87.011555109375,64.91535233618164Q86.991318109375,65.32727233618164,86.950893109375,65.73770333618164Q86.910469109375,66.14813233618165,86.84995310937501,66.55608533618164Q86.789438109375,66.96403933618164,86.708980109375,67.36853033618164Q86.628521109375,67.77302133618164,86.528313109375,68.17308033618164Q86.428104109375,68.57313533618164,86.308388109375,68.96779433618164Q86.188667109375,69.36245333618164,86.049728109375,69.75076133618164Q85.910789109375,70.13906833618164,85.752964109375,70.52009233618165Q85.595138109375,70.90111533618165,85.418810109375,71.27393733618163Q85.242479109375,71.64675733618164,85.048067109375,72.01047533618164Q84.853653109375,72.37419533618164,84.641628109375,72.72793533618164Q84.429603109375,73.08167833618164,84.200477109375,73.42459133618163Q83.971352109375,73.76750333618165,83.725674109375,74.09876033618164Q83.479999109375,74.43001933618164,83.218365109375,74.74882133618163Q82.956730109375,75.06762333618164,82.679769109375,75.37320333618163Q82.402805109375,75.67878333618164,82.11118310937499,75.97040533618164Q81.819561109375,76.26202733618165,81.513981109375,76.53899033618164Q81.208401109375,76.81595233618164,80.889597109375,77.07758933618165Q80.570793109375,77.33922233618165,80.239536109375,77.58489833618164Q79.908279109375,77.83057433618164,79.565367109375,78.05970033618163Q79.22245410937501,78.28882633618164,78.868713109375,78.50085233618164Q78.514973109375,78.71287933618164,78.151253109375,78.90729133618164Q77.787533109375,79.10170333618164,77.41471110937499,79.27803233618164Q77.041893109375,79.45436133618165,76.660868109375,79.61218633618164Q76.279846109375,79.77001233618164,75.89153710937501,79.90895033618165Q75.503227109375,80.04788933618164,75.108570109375,80.16761033618164Q74.713913109375,80.28732633618164,74.313854109375,80.38753733618164Q73.913797109375,80.48774333618164,73.509304109375,80.56820333618164Q73.104813109375,80.64866233618164,72.696859109375,80.70917733618164Q72.288906109375,80.76969133618164,71.878477109375,80.81011533618164Q71.468046109375,80.85054033618164,71.056126109375,80.87077733618165Q70.644206109375,80.89101433618164,70.231789109375,80.89101433618164Q69.819372109375,80.89101433618164,69.407452109375,80.87077733618165Q68.995531109375,80.85054033618164,68.585100109375,80.81011733618163Q68.174669109375,80.76969333618163,67.766715109375,80.70917933618165Q67.358763109375,80.64866233618164,66.954270109375,80.56820533618165Q66.549778109375,80.48774733618164,66.149721109375,80.38753933618165Q65.749663309375,80.28732833618164,65.355005309375,80.16761033618164Q64.960346209375,80.04789133618164,64.572036709375,79.90895033618165Q64.183729209375,79.77001233618164,63.802705309375,79.61218833618165Q63.421681409375,79.45436433618164,63.048861509375,79.27803433618163Q62.676041109375,79.10170333618164,62.312322109375,78.90729133618164Q61.948602709375,78.71287933618164,61.594861009375,78.50085433618165Q61.241119409375,78.28882933618164,60.898207209375,78.05970233618164Q60.555295009375,77.83057633618164,60.224039109375,77.58490033618165Q59.892782709375,77.33922433618164,59.573980109375,77.07759133618164Q59.255177309375,76.81595633618164,58.949596609375,76.53899333618165Q58.644015809375,76.26203133618164,58.352393109375,75.97040733618164Q58.060770309375,75.67878333618164,57.783808109375,75.37320333618163Q57.506845909375,75.06762333618164,57.245211509375,74.74882133618163Q56.983577009375,74.43001933618164,56.737900619375,74.09876033618164Q56.492224159375,73.76750533618164,56.263097669375,73.42459333618164Q56.033971149375,73.08168033618165,55.821946524075,72.72793933618163Q55.609921899375,72.37419933618165,55.415509939375,72.01047933618165Q55.221098009375,71.64675933618165,55.044767079375,71.27393733618163Q54.868436219375,70.90111933618164,54.710611109375,70.52009433618164Q54.552786109375,70.13907033618165,54.413847009375,69.75076333618165Q54.274908109375,69.36245333618164,54.155189609375,68.96779633618164Q54.035471409375,68.57313733618165,53.935262209375,68.17308033618164Q53.835053209375,67.77302133618164,53.754594609375,67.36853033618164Q53.674136209375,66.96403933618164,53.613621709374996,66.55608533618164Q53.553107709375,66.14813233618165,53.512683609375,65.73770133618164Q53.472259809375004,65.32727033618164,53.452023509375,64.91535033618165Q53.431787009375,64.50343133618163,53.431787009375,64.09101433618164Q53.431787009375,63.67859633618164,53.452023509375,63.266677336181644Q53.472259809375004,62.85475633618164,53.512683609375,62.44432533618164Q53.553107709375,62.03389333618164,53.613621709374996,61.62594133618164Q53.674135909374996,61.21798833618164,53.754594309375,60.81349533618164Q53.835053009375,60.40900333618164,53.935262209375,60.00894633618164Q54.035471309375,59.60888863618164,54.155189609375,59.21423153618164Q54.274908109375,58.819572436181645,54.413847009375,58.43126293618164Q54.552786109375,58.04295543618164,54.710611109375,57.66193153618164Q54.868436219375,57.28090763618164,55.044767079375,56.90808773618164Q55.221098009375,56.53526733618164,55.415509909375,56.171548336181644Q55.609921869375,55.80782893618164,55.821946501775,55.45408723618164Q56.033971119375,55.10034563618164,56.263097639375,54.75743343618164Q56.492224159375,54.41452123618164,56.737900619375,54.08326533618164Q56.983577009375,53.75200893618164,57.245211609375,53.43320633618164Q57.506845909375,53.11440353618164,57.783808209375,52.80882283618164Q58.060770309375,52.50324203618164,58.352393109375,52.21161933618164Q58.644015809375,51.91999653618164,58.949596409375,51.64303433618164Q59.255177009375004,51.36607213618164,59.573979809375,51.10443773618164Q59.892782209375,50.84280323618164,60.224038609375,50.59712684618164Q60.555295009375,50.35145038618164,60.898206709375,50.12232389618164Q61.241118909375004,49.89319737618164,61.594860509374996,49.68117275088164Q61.948602709375,49.46914812618164,62.312322109375,49.27473616618164Q62.676041109375,49.08032423618164,63.048861509375,48.90399330618164Q63.421681909374996,48.72766244618164,63.802705809375,48.56983733618164Q64.183729209375,48.41201233618164,64.572037709375,48.27307323618164Q64.960346209375,48.13413433618164,65.355005309375,48.01441583618164Q65.749663309375,47.89469763618164,66.149720109375,47.79448843618164Q66.549778109375,47.69427943618164,66.954270109375,47.61382083618164Q67.358763109375,47.53336243618164,67.766716109375,47.47284793618164Q68.174669109375,47.41233393618164,68.585101109375,47.37190983618164Q68.995532109375,47.331486036181644,69.407452109375,47.311249736181644Q69.819372109375,47.29101323618164,70.231789109375,47.29101323618164Q70.644206109375,47.29101323618164,71.056126109375,47.311249736181644Q71.468046109375,47.331486036181644,71.878477109375,47.37190983618164Q72.288906109375,47.41233393618164,72.696859109375,47.47284793618164Q73.104813109375,47.53336213618164,73.509304109375,47.61382053618164Q73.913797109375,47.69427923618164,74.313854109375,47.79448843618164Q74.713913109375,47.89469753618164,75.108572109375,48.01441583618164Q75.50323110937501,48.13413433618164,75.891539109375,48.27307323618164Q76.279846109375,48.41201233618164,76.660869109375,48.56983733618164Q77.041893109375,48.72766244618164,77.414715109375,48.90399330618164Q77.787537109375,49.08032423618164,78.151255109375,49.27473613618164Q78.514973109375,49.46914809618164,78.868713109375,49.68117272858164Q79.222456109375,49.893197346181644,79.565369109375,50.12232386618164Q79.908279109375,50.35145038618164,80.239536109375,50.59712684618164Q80.570793109375,50.84280323618164,80.889597109375,51.10443783618164Q81.208401109375,51.36607213618164,81.513981109375,51.643034436181644Q81.819561109375,51.91999653618164,82.11118310937499,52.21161933618164Q82.402805109375,52.50324203618164,82.679767109375,52.80882263618164Q82.956730109375,53.114403236181644,83.218365109375,53.43320603618164Q83.479999109375,53.75200843618164,83.725675109375,54.08326483618164Q83.971352109375,54.41452123618164,84.200477109375,54.757432936181644Q84.429603109375,55.100345136181645,84.641628109375,55.45408673618164Q84.853653109375,55.80782893618164,85.048067109375,56.171548336181644Q85.242479109375,56.53526733618164,85.418810109375,56.90808773618164Q85.595138109375,57.28090763618164,85.752964109375,57.66193153618164Q85.910789109375,58.04295543618164,86.049728109375,58.43126393618164Q86.188667109375,58.819572436181645,86.308386109375,59.21423153618164Q86.428104109375,59.60888863618164,86.528313109375,60.00894633618164Q86.628521109375,60.40900333618164,86.708980109375,60.81349533618164Q86.789438109375,61.21798833618164,86.84995310937501,61.62594133618164Q86.910469109375,62.03389433618164,86.950893109375,62.44432633618164Q86.991318109375,62.85475733618164,87.011553109375,63.26667633618164Q87.031790109375,63.67859633618164,87.031790109375,64.09101433618164ZM84.631790109375,64.09101433618164Q84.631790109375,63.73751333618164,84.614445109375,63.38443833618164Q84.597099109375,63.03136433618164,84.56245010937499,62.67956733618164Q84.527801109375,62.32776833618164,84.475931109375,61.97809433618164Q84.424061109375,61.62842033618164,84.355095109375,61.28171233618164Q84.286129109375,60.93500533618164,84.200235109375,60.59209833618164Q84.114342109375,60.24919333618164,84.011728109375,59.91091433618164Q83.909111109375,59.572635636181644,83.790022109375,59.23979953618164Q83.670929109375,58.90696333618164,83.535650109375,58.58037183618164Q83.400371109375,58.25378033618164,83.249231109375,57.93422033618164Q83.098091109375,57.614659836181644,82.931454109375,57.302900336181644Q82.764814109375,56.99114083618164,82.583078109375,56.68793343618164Q82.40134210937501,56.38472603618164,82.204948109375,56.09080123618164Q82.008552109375,55.79687693618164,81.797974109375,55.51294323618164Q81.587395109375,55.229009636181644,81.363138109375,54.95575043618164Q81.138880109375,54.68249083618164,80.901483109375,54.42056413618164Q80.664087109375,54.15863803618164,80.414125109375,53.90867563618164Q80.164162109375,53.65871333618164,79.902237109375,53.42131713618164Q79.64031010937501,53.18392083618164,79.367050109375,52.95966263618164Q79.09379010937499,52.73540453618164,78.809856109375,52.524824836181644Q78.52592110937499,52.31424493618164,78.231996109375,52.11785073618164Q77.938072109375,51.92145683618164,77.634865109375,51.73972133618164Q77.331659109375,51.55798603618164,77.019901109375,51.39134713618164Q76.70814110937499,51.22470833618164,76.388580109375,51.07356743618164Q76.069019109375,50.92242673618164,75.742428109375,50.78714803618164Q75.415836109375,50.651869296181644,75.083000109375,50.53277873618164Q74.75016410937499,50.41368812618164,74.411888109375,50.31107246618164Q74.073608109375,50.20845675618164,73.730701109375,50.12256327618164Q73.387794109375,50.03666972618164,73.041088109375,49.96770527618164Q72.694382109375,49.898740826181644,72.34470710937501,49.84687158618164Q71.995033109375,49.79500234618164,71.643236109375,49.76035327418164Q71.291438109375,49.72570419718164,70.938364109375,49.70835876618164Q70.585289109375,49.69101333618164,70.231789109375,49.69101333618164Q69.878288109375,49.69101333618164,69.525213109375,49.70835876618164Q69.172139109375,49.72570419718164,68.820341109375,49.76035327418164Q68.468542109375,49.79500234618164,68.118868109375,49.84687158618164Q67.76919410937501,49.898740826181644,67.422486109375,49.96770527618164Q67.075779109375,50.03666972618164,66.732872109375,50.12256324618164Q66.389967109375,50.20845675618164,66.051688109375,50.31107246618164Q65.713409409375,50.41368812618164,65.380573309375,50.53277873618164Q65.04773710937499,50.651869296181644,64.721145609375,50.78714803618164Q64.394554109375,50.92242673618164,64.074994109375,51.07356743618164Q63.755433609375004,51.22470833618164,63.443674109375,51.39134713618164Q63.131914609375,51.55798603618164,62.828707209375,51.73972133618164Q62.525499809375,51.92145683618164,62.231575009375,52.11785073618164Q61.937650709375,52.31424493618164,61.653717009375,52.524824836181644Q61.369783409375,52.73540473618164,61.096524209375,52.959662936181644Q60.823264609375,53.18392083618164,60.561337909375,53.42131713618164Q60.299411809375,53.65871333618164,60.049449409375,53.90867563618164Q59.799487109375,54.15863803618164,59.562090909375,54.42056463618164Q59.324694609375,54.68249083618164,59.100436409375,54.95575043618164Q58.876178309375,55.229009636181644,58.665598609375,55.51294323618164Q58.455018709375,55.79687733618164,58.258624509375,56.09080173618164Q58.062230609375,56.38472653618164,57.880495109375,56.68793343618164Q57.698759809375,56.99114083618164,57.532120909375,57.302900336181644Q57.365482109375,57.614659836181644,57.214341209375,57.93422033618164Q57.063200509375,58.25378033618164,56.927921809375,58.58037183618164Q56.792643069375,58.90696333618164,56.673552509375,59.23979953618164Q56.554461899375,59.572635636181644,56.451846239375,59.91091333618164Q56.349230529375,60.24919233618164,56.263337049375,60.59209833618164Q56.177443499375,60.93500533618164,56.108479049375,61.28171233618164Q56.039514599375,61.62842033618164,55.987645359375,61.97809433618164Q55.935776119375,62.32776833618164,55.901127047375,62.67956733618164Q55.866477970375,63.03136433618164,55.849132539375,63.38443933618164Q55.831787109375,63.73751333618164,55.831787109375,64.09101433618164Q55.831787109375,64.44451333618164,55.849132539375,64.79758833618163Q55.866477970375,65.15066233618164,55.901127047375,65.50246033618164Q55.935776119375,65.85425733618163,55.987645359375,66.20393133618164Q56.039514599375,66.55360433618164,56.108479049375,66.90031233618164Q56.177443499375,67.24702033618163,56.263337019375,67.58992533618164Q56.349230529375,67.93283233618163,56.451846239375,68.27111233618164Q56.554461899375,68.60939033618163,56.673552509375,68.94222433618164Q56.792643069375,69.27506033618164,56.927921809375,69.60165233618164Q57.063200509375,69.92824333618164,57.214341209375,70.24780233618164Q57.365482109375,70.56736333618164,57.532120909375,70.87912333618164Q57.698759809375,71.19088333618164,57.880495109375,71.49409133618164Q58.062230609375,71.79729833618164,58.258624509375,72.09122233618164Q58.455018709375,72.38514733618163,58.665598609375,72.66908033618164Q58.876178509375,72.95301633618163,59.100436709375,73.22627633618164Q59.324694609375,73.49953433618164,59.562090909375,73.76146333618163Q59.799487109375,74.02338833618164,60.049449409375,74.27334933618164Q60.299411809375,74.52331133618165,60.561338409375,74.76070933618163Q60.823264609375,74.99810633618164,61.096524209375,75.22236433618164Q61.369783409375,75.44662133618164,61.653717009375,75.65720033618165Q61.937651109375,75.86777833618164,62.231575509375,76.06417233618164Q62.525500309375,76.26056633618164,62.828707209375,76.44230233618164Q63.131914609375,76.62403833618164,63.443674109375,76.79067633618163Q63.755433609375004,76.95731533618164,64.074994109375,77.10845733618164Q64.394554109375,77.25959733618164,64.721145609375,77.39487433618164Q65.04773710937499,77.53015333618164,65.380573309375,77.64924433618164Q65.713409409375,77.76833533618164,66.051687109375,77.87095233618165Q66.389966109375,77.97356833618164,66.732872109375,78.05946133618164Q67.075779109375,78.14535533618164,67.422486109375,78.21432133618164Q67.76919410937501,78.28328733618164,68.118868109375,78.33515733618164Q68.468543109375,78.38702533618164,68.820342109375,78.42167633618163Q69.172140109375,78.45632333618164,69.525214109375,78.47366733618165Q69.878288109375,78.49101233618164,70.231789109375,78.49101433618165Q70.585289109375,78.49101233618164,70.938363109375,78.47366733618165Q71.291438109375,78.45632133618165,71.643236109375,78.42167433618164Q71.995033109375,78.38702433618164,72.34470710937501,78.33515533618164Q72.694382109375,78.28328333618164,73.041088109375,78.21431933618165Q73.387794109375,78.14535533618164,73.730701109375,78.05946133618164Q74.073608109375,77.97356833618164,74.411888109375,77.87095433618164Q74.75016410937499,77.76833733618165,75.083000109375,77.64924833618164Q75.415836109375,77.53015533618164,75.742428109375,77.39487633618164Q76.069019109375,77.25959733618164,76.388578109375,77.10845733618164Q76.708137109375,76.95731733618165,77.019899109375,76.79067833618164Q77.331657109375,76.62403833618164,77.634865109375,76.44230233618164Q77.938072109375,76.26056633618164,78.231996109375,76.06417233618164Q78.52592110937499,75.86777833618164,78.809854109375,75.65720033618165Q79.09379010937499,75.44662133618164,79.367050109375,75.22236233618165Q79.640308109375,74.99810433618164,79.902237109375,74.76070833618164Q80.164162109375,74.52331133618165,80.414123109375,74.27334933618164Q80.66408510937501,74.02338833618164,80.901483109375,73.76146133618164Q81.138880109375,73.49953433618164,81.363138109375,73.22627633618164Q81.587395109375,72.95301633618163,81.797974109375,72.66908233618165Q82.008552109375,72.38514733618163,82.204946109375,72.09122233618164Q82.401340109375,71.79729833618164,82.583076109375,71.49409133618164Q82.764812109375,71.19088333618164,82.931452109375,70.87912533618164Q83.098091109375,70.56736333618164,83.249231109375,70.24780433618164Q83.400371109375,69.92824333618164,83.535650109375,69.60165233618164Q83.670929109375,69.27506033618164,83.790022109375,68.94222433618164Q83.909111109375,68.60938833618164,84.011728109375,68.27111033618164Q84.114342109375,67.93283033618164,84.200237109375,67.58992533618164Q84.286129109375,67.24702033618163,84.355095109375,66.90031233618164Q84.424061109375,66.55360433618164,84.475931109375,66.20393133618164Q84.527801109375,65.85425733618163,84.56245010937499,65.50246033618164Q84.597099109375,65.15066233618164,84.614445109375,64.79758833618163Q84.631790109375,64.44451333618164,84.631790109375,64.09101433618164Z" fill="#FFFFFF" fill-opacity="1"/></g></g><g clip-path="url(#master_svg0_580_049990)"><g><path d="M69.49794677905274,70.28869418530273L69.49794677905274,72.24009718530273L71.44934987905273,72.24009718530273L71.44934987905273,70.28869418530273L69.49794677905274,70.28869418530273ZM74.54316997905273,63.539432085302735C74.82873537905273,63.025440185302735,74.97160717905274,62.463839485302735,74.97160717905274,61.85456828530273C74.97160717905274,60.801188185302735,74.56531807905273,59.903058285302734,73.75312467905273,59.16062128530273C72.94065807905274,58.41818466530273,71.85228297905273,58.046871185302734,70.48787597905273,58.046871185302734C69.19953317905274,58.046871185302734,68.16353557905273,58.39280876530273,67.37988137905273,59.08443088530274C66.59603774905274,59.77626368530274,66.12486673905273,60.77260608530273,65.96630477905273,62.07347868530273L67.72733747905274,62.28287648530274C67.87959227905273,61.312036485302734,68.20004817905273,60.59801318530273,68.68870687905273,60.141164285302736C69.17736477905274,59.684168485302735,69.78657247905274,59.45574398530273,70.51641607905273,59.45574398530273C71.27161497905273,59.45574398530273,71.90940477905274,59.707961785302736,72.42985197905273,60.21246148530273C72.95017147905273,60.71702388530274,73.21053077905273,61.30248068530273,73.21053077905273,61.96885278530274C73.21053077905273,62.33696028530274,73.12147477905273,62.67654848530273,72.94386527905273,62.987343285302735C72.76614997905273,63.298413785302735,72.38070297905273,63.715627185302736,71.78729387905274,64.23917338530273C71.19388437905273,64.76272058530273,70.78308347905273,65.16099218530273,70.55453297905274,65.43385938530274C70.24358987905273,65.80835768530274,70.01824617905274,66.17960838530273,69.87875317905274,66.54754738530274C69.68831827905274,67.03633208530273,69.59320707905273,67.61702158530274,69.59320707905273,68.28955218530274C69.59320707905273,68.40383918530273,69.59628697905273,68.57514118530273,69.60269977905273,68.80369118530274L71.24946737905273,68.80369118530274C71.26210167905273,68.11825118530274,71.30968947905274,67.62315848530274,71.39231347905273,67.31869128530273C71.47464277905273,67.01409718530273,71.60169027905273,66.74432948530273,71.77299257905274,66.50947288530273C71.94442127905273,66.27484698530273,72.30930037905273,65.90977718530273,72.86777927905274,65.41481208530273C73.69904087905273,64.67866368530274,74.25756077905274,64.05361218530274,74.54316997905273,63.539432085302735Z" fill="#FFFFFF" fill-opacity="1" style="mix-blend-mode:passthrough"/></g></g></g></svg>