<svg xmlns="http://www.w3.org/2000/svg" xmlns:xlink="http://www.w3.org/1999/xlink" fill="none" version="1.1" width="12" height="12" viewBox="0 0 12 12"><g><g><path d="M0,6C0,9.2998228,2.7001774,12,6,11.999645L6,12C9.2998228,12,12,9.2998228,12,6C12,2.7001774,9.2998228,0,6,0C2.7001774,0,0,2.7001774,0,6ZM5.9999313,0.66668701C3.0666373,0.66704184,0.66699219,3.0666871,0.66699219,5.9999809C0.66699219,8.93363,3.0666373,11.33363,5.9999313,11.33363C8.9332256,11.33363,11.33287,8.9332752,11.33287,5.9999809C11.33287,3.0666871,8.9335804,0.66704184,5.9999313,0.66704184L5.9999313,0.66668701ZM6.1333208,7.3667803C6.1333208,6.9331903,6.366437,6.5336637,6.8667326,6.2001333L6.8663778,6.2001333C7.6661415,5.6668396,8.0330248,5.0668392,7.9993172,4.4001331C7.8662596,3.3001924,7.2662597,2.7335453,6.0996127,2.6668394C4.7662005,2.6334863,3.933084,3.2668393,3.6662598,4.5998964L4.5664372,4.8333678C4.7328477,3.9335454,5.1994352,3.4999557,5.9328475,3.5333087C6.5662007,3.5666618,6.8993759,3.9001923,6.9660826,4.4998374C7.0327883,4.900074,6.7326107,5.3336639,6.132966,5.7665434C5.5996718,6.1667805,5.2994947,6.7000742,5.3328476,7.3000741L5.3328476,7.6666026L6.1333208,7.6666026L6.1333208,7.3667803ZM6.3331337,9.3331947L5.333252,9.3331947L5.333252,8.333313L6.3331337,8.333313L6.3331337,9.3331947Z" fill-rule="evenodd" fill="#666666" fill-opacity="1"/></g></g></svg>