<svg xmlns="http://www.w3.org/2000/svg" xmlns:xlink="http://www.w3.org/1999/xlink" fill="none" version="1.1" width="50" height="50" viewBox="0 0 50 50"><defs><clipPath id="master_svg0_211_49783"><rect x="13" y="13" width="24" height="24.000001907348633" rx="0"/></clipPath></defs><g><rect x="0" y="0" width="50" height="50" rx="8" fill="#EFF3FF" fill-opacity="1"/><g><g clip-path="url(#master_svg0_211_49783)"><path d="M35.125364447265625,29.6798449375L31.714996447265627,33.090213937499996L29.327369447265625,35.4779319375L27.057003447265625,35.4779319375C26.665995447265622,35.475108937499996,26.349742447265626,35.1587829375,26.347010447265625,34.7677749375L26.347010447265625,32.4919929375L28.731940447265625,30.1071109375L32.14233244726562,26.696718937500002C32.59997744726563,26.2390669375,33.34197444726563,26.2390669375,33.79961944726563,26.696718937500002L35.125364447265625,28.0224609375C35.583076447265626,28.4801199375,35.583076447265626,29.2221859375,35.125364447265625,29.6798449375ZM33.63382544726562,28.5196889375L33.30237044726562,28.1882349375C33.119310447265626,28.0051649375,32.82250244726562,28.0051649375,32.63944044726563,28.1882349375L27.753260447265625,33.0744839375L27.753260447265625,34.0716819375L28.744879447265625,34.0716819375L33.63394144726563,29.1826169375C33.816947447265626,28.9995339375,33.816894447265625,28.7027589375,33.63382544726562,28.5196889375L33.63382544726562,28.5196889375ZM32.812408447265625,24.9990239375C32.424085447265625,24.9990249375,32.109283447265625,24.684224937499998,32.109283447265625,24.295899437499997L32.109283447265625,16.3974609375C32.109283447265625,16.1385777375,31.899417447265623,15.9287113375,31.640533447265625,15.9287110375L16.406158447265625,15.9287110375C16.147275247265625,15.9287113375,15.937408847265624,16.1385777375,15.937408547265624,16.3974609375L15.937408547265624,33.6005859375C15.937408847265624,33.859471937500004,16.147275347265627,34.069339937500004,16.406158447265625,34.069337937499995L23.578033447265625,34.069337937499995C23.966359147265624,34.069337937499995,24.281159447265622,34.3841379375,24.281159447265622,34.772462937499995C24.281159447265622,35.160787937500004,23.966359147265624,35.475587937499995,23.578033447265625,35.475587937499995L15.703033447265625,35.475587937499995C15.055824277265625,35.475583937500005,14.531158332824704,34.950919937500004,14.531158447265625,34.303712937499995L14.531158447265625,15.6943359375C14.531158332824704,15.0471272475,15.055824757265626,14.5224609375,15.703033447265625,14.5224609375L32.343658447265625,14.5224609375C32.99086744726563,14.5224609375,33.515533447265625,15.0471272475,33.515533447265625,15.6943359375L33.515533447265625,24.295899437499997C33.515533447265625,24.684224937499998,33.20073544726563,24.9990249375,32.812408447265625,24.9990239375ZM18.070220947265625,21.6000938375C18.070221647265626,21.212039937500002,18.384800647265624,20.8974614375,18.772853847265626,20.8974614375L29.273839447265622,20.8974614375C29.663474447265624,20.8952098375,29.980531447265626,21.2104425375,29.980531447265626,21.6000819375C29.980531447265626,21.989720837500002,29.663474447265624,22.3049540375,29.273839447265622,22.3027033375L18.772854847265627,22.3027033375C18.384809947265623,22.3027033375,18.070234347265625,21.9881377375,18.070220947265625,21.6000938375ZM26.625401447265624,25.7021489375L18.772854847265627,25.7021489375C18.384800647265624,25.7021479375,18.070221647265626,25.3875689375,18.070221647265626,24.999516937499997L18.070221647265626,24.998531937499997C18.070221647265626,24.610478937499998,18.384801647265625,24.295899437499997,18.772854847265627,24.2959003375L26.625401447265624,24.2959003375C27.013454447265623,24.2959013375,27.328032447265628,24.6104799375,27.328034447265622,24.998531937499997L27.328034447265622,24.999516937499997C27.328032447265628,25.3875699375,27.013454447265623,25.7021479375,26.625401447265624,25.7021489375ZM18.772854847265627,29.1005859375C18.383198547265625,29.1028699375,18.066104647265625,28.7876269375,18.066104647265625,28.3979649375C18.066104647265625,28.008302937499998,18.383198547265625,27.693061937499998,18.772854847265627,27.6953449375L23.957839047265622,27.6953449375C24.347494147265625,27.693061937499998,24.664588447265626,28.008302937499998,24.664588447265626,28.3979649375C24.664588447265626,28.7876269375,24.347494147265625,29.1028699375,23.957839047265622,29.1005859375L18.772854847265627,29.1005859375Z" fill="#5D87FF" fill-opacity="1" style="mix-blend-mode:passthrough"/></g></g></g></svg>