<svg xmlns="http://www.w3.org/2000/svg" xmlns:xlink="http://www.w3.org/1999/xlink" fill="none" version="1.1" width="50" height="50" viewBox="0 0 50 50"><defs><clipPath id="master_svg0_211_50386"><rect x="13" y="13" width="24" height="24" rx="0"/></clipPath></defs><g><rect x="0" y="0" width="50" height="50" rx="8" fill="#EFF3FF" fill-opacity="1"/><g><g clip-path="url(#master_svg0_211_50386)"><path d="M23.7293529375,34.1060793125L17.7293536375,34.1060793125C17.0234711375,34.1060793125,16.4587655375,33.5413723125,16.4587655375,32.8354893125L16.4587655375,17.1649010125C16.4587655375,16.459018512500002,17.0234713375,15.8943128125,17.7293536375,15.8943128125L30.4352374375,15.8943128125C31.1411204375,15.8943128125,31.7058274375,16.4590187125,31.7058274375,17.1649010125L31.7058274375,23.5178432125C31.7058274375,24.011961012500002,32.1293584375,24.3649023125,32.552885437499995,24.3649023125C33.0470024375,24.3649023125,33.3999444375,23.9413719125,33.3999444375,23.5178432125L33.3999444375,17.164901512500002C33.3999444375,15.5413719125,32.058769437500004,14.2001953125,30.4352374375,14.2001953125L17.729354637500002,14.2001953125C16.1058250375,14.2001953125,14.7646484375,15.5413719125,14.7646484375,17.164901512500002L14.7646484375,32.8354913125C14.7646484375,34.4590223125,16.1058250375,35.8001973125,17.729354637500002,35.8001973125L23.7293548375,35.8001973125C24.223472637500002,35.8001973125,24.576414137500002,35.376667312500004,24.576414137500002,34.9531383125C24.576414137500002,34.529611312499995,24.223472637500002,34.106081312499995,23.7293529375,34.1060793125Z" fill="#5D87FF" fill-opacity="1" style="mix-blend-mode:passthrough"/><path d="M30.01180409375,20.41200011625C30.01180409375,19.91788223625,29.58827409375,19.56494140625,29.16474609375,19.56494140625L19.21180480375,19.56494140625C18.71768692375,19.56494140625,18.36474609375,19.98847076625,18.36474609375,20.41200011625C18.36474609375,20.83552900625,18.78827545375,21.25905930625,19.21180480375,21.25905930625L29.16474609375,21.25905930625C29.65886309375,21.25905930625,30.01180409375,20.90611800625,30.01180409375,20.41200011625ZM19.21180480375,24.576705906249998C18.71768692375,24.576705906249998,18.36474609375,25.00023560625,18.36474609375,25.42376470625C18.36474609375,25.91788200625,18.78827545375,26.27082350625,19.21180480375,26.27082350625L25.14121629375,26.27082350625C25.63533349375,26.27082350625,25.98827509375,25.84729380625,25.98827509375,25.42376470625C25.98827509375,24.929647406249998,25.56474539375,24.576705906249998,25.14121629375,24.576705906249998L19.21180480375,24.576705906249998ZM34.95298009375,27.18847040625C34.60003809375,26.83552880625,34.03533309375,26.83552880625,33.75298009375,27.18847040625L28.67062809375,32.27082140625L26.129452193749998,29.72964540625C25.77651169375,29.37670420625,25.21180579375,29.37670420625,24.92945289375,29.72964540625C24.57651139375,30.08258740625,24.57651139375,30.64729340625,24.92945289375,30.92964540625L28.10592369375,34.10611740625C28.24709989375,34.24729340625,28.529452093750002,34.388469406249996,28.74121809375,34.388469406249996C28.95298309375,34.388469406249996,29.16474709375,34.31788040625,29.37651109375,34.10611740625L35.02356909375,28.45905880625C35.30592109375,28.03553010625,35.30592109375,27.47082380625,34.95298009375,27.18847040625Z" fill="#5D87FF" fill-opacity="1" style="mix-blend-mode:passthrough"/></g></g></g></svg>