<svg xmlns="http://www.w3.org/2000/svg" xmlns:xlink="http://www.w3.org/1999/xlink" fill="none" version="1.1" width="50" height="50" viewBox="0 0 50 50"><defs><clipPath id="master_svg0_211_49788"><rect x="14" y="14" width="22" height="22" rx="0"/></clipPath></defs><g><rect x="0" y="0" width="50" height="50" rx="8" fill="#EFF3FF" fill-opacity="1"/><g clip-path="url(#master_svg0_211_49788)"><path d="M30.372126,24.724999C33.437111,24.79271,35.886457,27.296764,35.886457,30.362499C35.886457,33.428232,33.437113,35.932285,30.372126,36C27.25862,36,24.734626,33.476006,24.734626,30.362501C24.734626,27.248994,27.25862,24.725,30.372126,24.724999ZM32.673876,14C33.098753,14,33.442503,14.34375,33.442503,14.76862502L33.442503,22.3544998C33.425076000000004,22.7659826,33.086416,23.0906038,32.674566,23.0906038C32.262716,23.0906038,31.924053,22.7659836,31.906628,22.3544998L31.906628,15.53725L15.5345001,15.53725L15.5345001,34.462749L23.8491259,34.462749C24.273625,34.462749,24.61775,34.806875000000005,24.61775,35.231375C24.61775,35.655876,24.273625,36.000001999999995,23.8491259,36.000001999999995L14.76725006,36.000001999999995C14.34328869,35.999247,14,35.655339999999995,14,35.231373000000005L14,14.76862502C14,14.34375,14.34375,14,14.76725006,14L32.673876,14ZM30.372126,26.263624999999998C28.158611999999998,26.333852999999998,26.400568,28.14856,26.400568,30.363188C26.400568,32.577816,28.158611999999998,34.392521,30.372126,34.462748000000005C32.585646,34.392528999999996,34.3437,32.577822,34.3437,30.363186C34.343699,28.148554,32.585646,26.333844,30.372126,26.263624999999998ZM32.874626,29.805626C33.305962,29.805624,33.655626,30.155291,33.655626,30.586622C33.655626,31.017958,33.305962,31.367622,32.874626,31.367624L28.203752,31.367624C27.772416,31.367622,27.422750999999998,31.017958,27.422750999999998,30.586622C27.422750999999998,30.155291,27.772417,29.805624,28.203752,29.805626L32.876001,29.805626L32.874626,29.805626ZM22.666625,28.210625C23.0911236,28.210625,23.4352484,28.55475,23.4352484,28.979249C23.4352484,29.403748999999998,23.0911236,29.747875,22.666625,29.747875L17.9806254,29.747875C17.5561252,29.747875,17.2119999,29.403748999999998,17.2119999,28.979249C17.2119999,28.55475,17.5561252,28.210625,17.9806254,28.210625L22.666625,28.210625ZM25.811251,23.487499200000002C26.23613,23.487499200000002,26.580562999999998,23.831933,26.580562999999998,24.256812C26.580562999999998,24.681691999999998,26.23613,25.026125999999998,25.811251,25.026125999999998L17.9806254,25.026125999999998C17.5557458,25.026125999999998,17.2113125,24.681691999999998,17.2113125,24.256812C17.2113125,23.831933,17.5557458,23.487499200000002,17.9806254,23.487499200000002L25.811251,23.487499200000002ZM28.946251,18.7671247C29.370545,18.767417899999998,29.714346,19.1114578,29.714346,19.5357499C29.714346,19.960043,29.370545,20.3040819,28.946251,20.3043752L17.9806254,20.3043752C17.5563328,20.3040819,17.212531300000002,19.9600425,17.212531300000002,19.5357499C17.212531300000002,19.111457299999998,17.5563333,18.767417899999998,17.9806254,18.7671247L28.946251,18.7671247Z" fill="#5D87FF" fill-opacity="1" style="mix-blend-mode:passthrough"/></g></g></svg>