<svg xmlns="http://www.w3.org/2000/svg" xmlns:xlink="http://www.w3.org/1999/xlink" fill="none" version="1.1" width="256" height="244" viewBox="0 0 256 244"><defs><mask id="master_svg0_238_8678" style="mask-type:alpha" maskUnits="objectBoundingBox"><path d="M0 30C0 30 0 30 0 30L256 30C256 30 256 30 256 30L256 193C256 193 256 193 256 193L0 193C0 193 0 193 0 193Z" fill="#FFFFFF" fill-opacity="1"/></mask><linearGradient x1="0.5" y1="0" x2="0.5" y2="0.34943687915802" id="master_svg1_200_00204"><stop offset="0%" stop-color="#5991F6" stop-opacity="0.6277503967285156"/><stop offset="99.91992712020874%" stop-color="#597AF6" stop-opacity="0"/></linearGradient><linearGradient x1="0.11182737350463867" y1="0.10655854642391205" x2="0.8975348836436318" y2="0.49132486621375837" id="master_svg2_177_04563"><stop offset="0%" stop-color="#D7DFFF" stop-opacity="1"/><stop offset="100%" stop-color="#9CB8FF" stop-opacity="1"/></linearGradient><linearGradient x1="1.0464541912078857" y1="0.2496887445449829" x2="-0.1720569022306057" y2="0.6163853427411176" id="master_svg3_177_04560"><stop offset="0%" stop-color="#FFFFFF" stop-opacity="1"/><stop offset="100%" stop-color="#FFFFFF" stop-opacity="0"/></linearGradient><linearGradient x1="0.11182737350463867" y1="0.10655854642391205" x2="1.2206248689168846" y2="0.9459654698460676" id="master_svg4_177_04557"><stop offset="0%" stop-color="#D7DFFF" stop-opacity="1"/><stop offset="100%" stop-color="#9CB8FF" stop-opacity="1"/></linearGradient><linearGradient x1="0.11182737350463867" y1="0.10655854642391205" x2="1.5536524211392415" y2="0.6182592990492886" id="master_svg5_177_04557"><stop offset="0%" stop-color="#D7DFFF" stop-opacity="1"/><stop offset="100%" stop-color="#9CB8FF" stop-opacity="1"/></linearGradient><linearGradient x1="0.11182737350463867" y1="0.10655854642391205" x2="1.3414733942188668" y2="0.8697052909631413" id="master_svg6_177_04557"><stop offset="0%" stop-color="#D7DFFF" stop-opacity="1"/><stop offset="100%" stop-color="#9CB8FF" stop-opacity="1"/></linearGradient><linearGradient x1="0.3326454162597656" y1="0" x2="0.12937504723265822" y2="1.0423487560738214" id="master_svg7_177_04553"><stop offset="0%" stop-color="#A2BBFF" stop-opacity="1"/><stop offset="100%" stop-color="#5E8CFF" stop-opacity="1"/></linearGradient><linearGradient x1="0.5" y1="0" x2="1.1317217927257264" y2="1.0030926002861285" id="master_svg8_177_04549"><stop offset="0%" stop-color="#A2BBFF" stop-opacity="1"/><stop offset="100%" stop-color="#5E8CFF" stop-opacity="1"/></linearGradient><linearGradient x1="1" y1="0.11841905117034912" x2="0.37684344013106436" y2="1.1555048491184092" id="master_svg9_177_04545"><stop offset="0%" stop-color="#D7DFFF" stop-opacity="1"/><stop offset="100%" stop-color="#9CB8FF" stop-opacity="1"/></linearGradient><linearGradient x1="0.5" y1="0" x2="1.282310026247366" y2="0.13117081783718465" id="master_svga_177_04549"><stop offset="0%" stop-color="#A2BBFF" stop-opacity="1"/><stop offset="100%" stop-color="#5E8CFF" stop-opacity="1"/></linearGradient><linearGradient x1="1.0415881872177124" y1="0" x2="-0.048754877127411764" y2="0.0012642831416087574" id="master_svgb_177_04539"><stop offset="0%" stop-color="#D7E0FF" stop-opacity="1"/><stop offset="100%" stop-color="#A6BFFF" stop-opacity="1"/></linearGradient><linearGradient x1="1.0415881872177124" y1="0" x2="-0.048754877127411764" y2="0.0012642831416087574" id="master_svgc_177_04539"><stop offset="0%" stop-color="#D7E0FF" stop-opacity="1"/><stop offset="100%" stop-color="#A6BFFF" stop-opacity="1"/></linearGradient><linearGradient x1="1.0415881872177124" y1="0" x2="-0.052407496269288284" y2="0.009435258268672087" id="master_svgd_177_04539"><stop offset="0%" stop-color="#D7E0FF" stop-opacity="1"/><stop offset="100%" stop-color="#A6BFFF" stop-opacity="1"/></linearGradient><linearGradient x1="1.0415881872177124" y1="0" x2="-0.05905130674350366" y2="0.02520932992080116" id="master_svge_177_04539"><stop offset="0%" stop-color="#D7E0FF" stop-opacity="1"/><stop offset="100%" stop-color="#A6BFFF" stop-opacity="1"/></linearGradient><linearGradient x1="0.5" y1="1" x2="0.5" y2="0" id="master_svgf_177_04536"><stop offset="0%" stop-color="#6994FF" stop-opacity="1"/><stop offset="100%" stop-color="#9CB6FF" stop-opacity="1"/></linearGradient><linearGradient x1="0.11182737350463867" y1="0.10655854642391205" x2="0.768084339528" y2="0.183288226815713" id="master_svgg_177_04563"><stop offset="0%" stop-color="#D7DFFF" stop-opacity="1"/><stop offset="100%" stop-color="#9CB8FF" stop-opacity="1"/></linearGradient><linearGradient x1="0.11182737350463867" y1="0.10655854642391205" x2="0.29534054102462237" y2="1.0130910547176817" id="master_svgh_177_04563"><stop offset="0%" stop-color="#D7DFFF" stop-opacity="1"/><stop offset="100%" stop-color="#9CB8FF" stop-opacity="1"/></linearGradient><linearGradient x1="0.11182737350463867" y1="0.10655854642391205" x2="0.2478166614261364" y2="1.0009278482698585" id="master_svgi_177_04563"><stop offset="0%" stop-color="#D7DFFF" stop-opacity="1"/><stop offset="100%" stop-color="#9CB8FF" stop-opacity="1"/></linearGradient></defs><g><rect x="6" y="0" width="244" height="244" rx="0" fill="#FFFFFF" fill-opacity="1"/><g><g style="opacity:0.7997002005577087;"><g><g><g><g mask="url(#master_svg0_238_8678)"><g><g style="opacity:0.4207349419593811;"><ellipse cx="128.82835388183594" cy="128.9642333984375" rx="92.32054138183594" ry="92.695068359375" fill="url(#master_svg1_200_00204)" fill-opacity="1"/></g><g><path d="M77.76301164709473,74.52085106030273C77.29707764709472,68.66588446030273,72.42441364709472,64.06054306030273,66.48208964709472,64.06054306030273C60.23166664709473,64.06054306030273,55.16469764709473,69.15582516030274,55.16469764709473,75.44117406030273C55.16469764709473,76.40253206030273,55.283236047094725,77.33604806030273,55.50641634709473,78.22774906030273Q55.367492247094724,78.03295506030274,55.20662644709473,77.85605606030273Q55.04576114709472,77.67915506030273,54.86521334709472,77.52263506030273Q54.68466664709473,77.36611606030273,54.48697284709473,77.23217206030273Q54.28927994709473,77.09823006030274,54.07721714709473,76.98874706030273Q53.86515474709473,76.87926306030273,53.64170124709473,76.79577606030273Q53.418247247094726,76.71228806030274,53.18654104709473,76.65597006030274Q52.954834947094724,76.59965106030273,52.718130147094726,76.57129306030274Q52.48142524709473,76.54293406030274,52.243046247094725,76.54293406030274Q52.045760147094725,76.54293506030274,51.849424347094725,76.56238206030274Q51.65308804709473,76.58182606030273,51.459592847094726,76.62052906030273Q51.266097747094726,76.65923306030274,51.077306747094724,76.71682306030273Q50.88851574709473,76.77441206030274,50.70624704709473,76.85033006030274Q50.52397874709472,76.92625106030273,50.34998824709473,77.01977106030273Q50.17599744709473,77.11329106030273,50.011960047094725,77.22350806030273Q49.84792284709473,77.33372706030273,49.69541884709473,77.45958306030273Q49.54291474709473,77.58544006030273,49.40341244709472,77.72572006030273Q49.26391024709473,77.86600306030273,49.13875329709472,78.01936006030273Q49.013596417094725,78.17271606030273,48.903990087094726,78.33766806030273Q48.794383887094725,78.50262306030274,48.701383947094726,78.67758606030273Q48.60838395709472,78.85254906030274,48.53288587709473,79.03583506030273Q48.45738781709473,79.21912306030273,48.40011872709473,79.40896806030274Q48.34284962709473,79.59881406030273,48.304361038094726,79.79339006030273Q48.26587246009473,79.98796706030274,48.246535053094725,80.18540206030274Q48.22719764709473,80.38283506030274,48.22719764709473,80.58122206030274Q48.22719764709473,80.77961206030274,48.246535053094725,80.97704306030273Q48.26587246009473,81.17447706030273,48.304361038094726,81.36905306030273Q48.34284962709473,81.56363106030274,48.40011872709473,81.75347506030273Q48.45738781709473,81.94332106030274,48.53288587709473,82.12660606030273Q48.60838395709472,82.30989506030274,48.701383947094726,82.48485606030273Q48.79438394709473,82.65982006030274,48.903990147094724,82.82477206030273Q49.013596417094725,82.98972706030273,49.13875329709472,83.14308506030274Q49.26391024709473,83.29644006030273,49.40341244709472,83.43672206030274Q49.54291474709473,83.57700306030273,49.69541884709473,83.70286206030273Q49.84792284709473,83.82871606030274,50.011960047094725,83.93893406030273Q50.17599744709473,84.04915406030273,50.34998824709473,84.14267306030274Q50.523978947094726,84.23619506030273,50.706247347094724,84.31211306030274Q50.888515947094724,84.38803506030274,51.077306747094724,84.44562506030273Q51.26609804709473,84.50321406030274,51.459592847094726,84.54191606030274Q51.65308804709473,84.58062006030273,51.849424347094725,84.60006706030273Q52.045760147094725,84.61951106030273,52.243046247094725,84.61951106030273Q52.259020347094726,84.61951106030273,52.274994347094726,84.61938306030274L86.54570964709472,84.61938306030274C88.16773364709474,84.61938306030274,89.48264464709473,83.30447206030274,89.48264464709473,81.68244706030274C89.48264464709473,80.06042106030273,88.16773364709474,78.74551006030273,86.54570964709472,78.74551006030273L85.64811864709472,78.74551006030273Q85.83069064709473,78.11611106030273,85.83069064709473,77.46048206030274Q85.83069064709473,77.34782906030273,85.82519364709472,77.23531206030273Q85.81969664709473,77.12279506030274,85.80871764709472,77.01068506030273Q85.79773864709472,76.89857506030273,85.78129764709473,76.78714106030273Q85.76485664709472,76.67570706030273,85.74300164709473,76.56521806030274Q85.72114764709472,76.45472906030274,85.69392564709473,76.34545306030273Q85.66670764709473,76.23617706030274,85.63419164709472,76.12837606030274Q85.60167164709472,76.02057306030274,85.56392864709473,75.91450506030273Q85.52618564709474,75.80843706030274,85.48331664709472,75.70436006030273Q85.44044664709472,75.60028306030273,85.39254564709472,75.49844506030273Q85.34465264709473,75.39660806030274,85.29184164709473,75.29725806030274Q85.23903064709472,75.19790706030274,85.18143664709473,75.10128106030274Q85.12384264709473,75.00465606030274,85.06160564709472,74.91098906030274Q84.99936864709473,74.81732206030273,84.93263464709473,74.72683906030274Q84.86589964709472,74.63635606030273,84.79483264709472,74.54927406030274Q84.72376464709473,74.46219206030274,84.64853064709473,74.37872206030274Q84.57329764709473,74.29525206030273,84.49408164709473,74.21559306030274Q84.41486564709473,74.13593606030274,84.33185764709472,74.06028266030273Q84.24885364709473,73.98463056030273,84.16225664709472,73.91316416030273Q84.07565464709472,73.84169766030274,83.98567364709473,73.77459146030273Q83.89569264709473,73.70748326030274,83.80254564709472,73.64489746030273Q83.70939864709473,73.58231066030274,83.61331364709473,73.52439496030273Q83.51722164709473,73.46648026030273,83.41842464709472,73.41337586030274Q83.31962764709473,73.36027146030273,83.21835564709473,73.31210706030274Q83.11708264709472,73.26394086030274,83.01358264709472,73.22083096030273Q82.91008164709473,73.17772106030273,82.80460564709472,73.13976856030274Q82.69912864709472,73.10181806030273,82.59192864709473,73.06911656030273Q82.48472764709473,73.03641506030273,82.37605464709472,73.00904276030273Q82.26738564709473,72.98167036030273,82.15751064709472,72.95969296030273Q82.04763564709472,72.93771556030273,81.93682264709473,72.92118646030274Q81.82600564709472,72.90465736030274,81.71452164709473,72.89361576030274Q81.60303664709473,72.88257216030273,81.49114464709473,72.87704466030273Q81.37925164709472,72.87151716030273,81.26722564709473,72.87151716030273Q81.01725964709473,72.87151716030273,80.76878964709474,72.89897156030273Q80.52031864709473,72.92642686030274,80.27631564709472,72.98100756030273Q80.03231664709473,73.03558926030273,79.79570164709473,73.11664296030273Q79.55908764709473,73.19769666030274,79.33269264709473,73.30425356030274Q79.10629864709472,73.41081046030274,78.89283164709472,73.54159646030274Q78.67936664709472,73.67238236030273,78.48138264709473,73.82583046030274Q78.28339964709473,73.97928046030273,78.10326964709472,74.15355606030273Q77.92313764709473,74.32783306030274,77.76301164709473,74.52085106030273Z" fill-rule="evenodd" fill="#FFFFFF" fill-opacity="1"/></g><g><path d="M189.3049979707031,59.00232693876953C188.84789097070313,54.46588543876953,185.03838397070314,50.92554473876953,180.40657997070312,50.92554473876953C176.15063997070314,50.92554473876953,172.58895587070313,53.914612738769534,171.68431827070313,57.91898963876953C170.12074447070313,58.088295938769534,168.90359497070312,59.41260723876953,168.90359497070312,61.02119873876953C168.90359497070312,62.74460173876953,170.3006883707031,64.14169473876953,172.02409057070312,64.14169473876953L177.66531377070314,64.14169473876953L177.66531377070314,64.14196773876954L189.69857797070313,64.14196773876954C191.11785097070313,64.14196773876954,192.26839797070312,62.99141973876953,192.26839797070312,61.57214773876953C192.26839797070312,60.15287493876953,191.11785097070313,59.00232693876953,189.69857797070313,59.00232693876953L189.3049979707031,59.00232693876953Z" fill-rule="evenodd" fill="#FFFFFF" fill-opacity="1"/></g></g></g></g></g></g><g style="opacity:0.119309201836586;"><ellipse cx="127.56619644165039" cy="184.76390075683594" rx="39.35135269165039" ry="3.9015960693359375" fill="#618DFA" fill-opacity="1"/></g><g><path d="M67.146599275,163.84431147578124C68.214592475,160.90422224578126,73.147292875,160.06754545078124,76.172452875,160.17303163088124C75.39995987500001,169.30750367578125,65.778192475,169.11636637578124,61.404296875,168.44242767578126C62.845125175,168.13408227578125,66.089336375,166.75554897578124,67.146599275,163.84431147578124Z" fill="url(#master_svg2_177_04563)" fill-opacity="1"/><path d="M70.7279997,164.96221780234376Q66.9902644,167.41598220234374,62.705666102,168.28607940234374L62.747458898,168.49187850234375Q67.0716958,167.61373190234374,70.84324649999999,165.13776900234376Q73.6855765,163.27182360234374,75.3097495,161.21242132734375L75.1448585,161.08237847734375Q73.5418095,163.11499610234375,70.7279997,164.96221780234376Z" fill-rule="evenodd" fill="url(#master_svg3_177_04560)" fill-opacity="1"/><path d="M96.9091435,135.14123130664063Q90.7947935,150.52525330664062,77.91754204,158.48470330664063L78.28558296,159.08013930664063Q91.3597795,150.99895830664062,97.5596465,135.39977030664062Q99.9364265,129.41967430664062,101.0085335,122.98337940664062Q101.9005165,117.62843700664062,101.7253855,113.22014205964062L101.0259385,113.24792943264063Q101.19821350000001,117.58435960664062,100.31804650000001,122.86836340664063Q99.2582475,129.23076130664063,96.9091435,135.14123130664063Z" fill-rule="evenodd" fill="url(#master_svg4_177_04557)" fill-opacity="1"/><path d="M78.97052005,140.6819005546875Q76.61856365,144.3060455546875,70.189212456,145.5152795546875L70.318600044,146.2032185546875Q77.04256015,144.93857155468748,79.55770685,141.0629665546875Q80.32555925,139.8797765546875,80.50447825,138.7041135546875Q84.71729525,136.4832145546875,85.54980725,125.8807897376875L84.85195525,125.8259938096875Q84.09002225,135.5295782546875,80.55698725,137.8573525546875Q80.51805025,136.4687205546875,79.65733335,135.7231759546875Q78.79481315,134.9764337546875,77.79286905000001,135.4499692546875Q76.96849675,135.8395814546875,76.54982375,136.7830195546875Q76.10255435,137.7908965546875,76.54138425,138.5280845546875Q77.05613565,139.3928145546875,78.52015785,139.2730445546875Q79.14848045,139.2216085546875,79.72223665,139.03486555468749Q79.51049805,139.8498445546875,78.97052005,140.6819005546875ZM79.85113525,138.2371465546875Q79.85878565,138.1143915546875,79.85883335,137.9920255546875Q79.85928825,136.8241955546875,79.19902615,136.2522835546875Q78.68150325,135.8042278546875,78.09197715,136.0828475546875Q77.50280285,136.3613015546875,77.18965055,137.0669575546875Q76.88923025,137.7439255546875,77.14287995,138.1700295546875Q77.43427375,138.6595415546875,78.46308325,138.5753745546875Q79.19803905,138.5152095546875,79.85113525,138.2371465546875Z" fill-rule="evenodd" fill="url(#master_svg5_177_04557)" fill-opacity="1"/><path d="M103.9731655,146.64902114921875Q101.0882032,152.83992894921874,97.07523975,154.52780694921876L97.34663525,155.17305594921874Q101.6085939,153.38044694921876,104.607655,146.94469354921875Q106.8079863,142.22295284921876,107.5881315,137.14858413521875L106.8962612,137.04221415521874Q106.1312962,142.01783804921874,103.9731655,146.64902114921875Z" fill-rule="evenodd" fill="url(#master_svg6_177_04557)" fill-opacity="1"/></g><g transform="matrix(-1,0,0,1,325.1884765625,0)"><g><g><path d="M162.59423828125 103.33207130432129C162.59423828125 98.41120689380395 166.5833870695852 94.42205810546875 171.50425148010254 94.42205810546875L217.86038780212402 94.42205810546875C222.78125221264136 94.42205810546875 226.77040100097656 98.41120689380395 226.77040100097656 103.33207130432129L226.77040100097656 165.0156307220459C226.77040100097656 169.93649513256324 222.78125221264136 173.92564392089844 217.86038780212402 173.92564392089844L171.50425148010254 173.92564392089844C166.5833870695852 173.92564392089844 162.59423828125 169.93649513256324 162.59423828125 165.0156307220459Z" fill="url(#master_svg7_177_04553)" fill-opacity="1"/><ellipse cx="195.82914924621582" cy="94.42181396484375" rx="8.02202033996582" ry="8.065582275390625" fill="url(#master_svg8_177_04549)" fill-opacity="1"/><path d="M198.09281915625002,86.63394165039062C202.43780915625,86.63394165039062,205.96012515625,90.17538385039063,205.96012515625,94.54397395039062L226.12060515625,94.54397395039062C228.29343015625,94.54397395039062,230.05484015625,96.31495285039063,230.05484015625,98.49956765039063L230.05484015625,169.6921696503906C230.05484015625,170.74125665039062,229.64034315625,171.7473756503906,228.90253115625,172.4891816503906C228.16471815625,173.23100265039062,227.16403615625,173.6477506503906,226.12060515625,173.6477506503906L169.57338855625,173.6477506503906C168.52996615625,173.6477506503906,167.52927985625,173.23100265039062,166.79146895625,172.4891816503906C166.05365803625,171.7473756503906,165.63916015624997,170.74125665039062,165.63916015625,169.6921696503906L165.63916015625,98.50186965039063C165.63916015625,96.31725785039063,167.40057425625,94.54627795039062,169.57338855625,94.54627795039062L190.22550815625,94.54627795039062C190.22489715625,92.44800855039063,191.05350915625002,90.43546795039063,192.52897415625,88.95155115039063C194.00445015625002,87.46763396039063,196.00588015625,86.63394156134545,198.09281915625002,86.63394165039062Z" fill="url(#master_svg9_177_04545)" fill-opacity="1"/><path d="M226.61260265625,167.019956540625C220.71373965625,167.997045140625,210.14186465625,168.393411140625,194.89697265625,168.209053140625L223.79801565625002,157.890869140625C224.43038165625,161.020832540625,225.37328765625,164.079158740625,226.61260265625,167.019956540625L226.61260265625,167.019956540625Z" fill-rule="evenodd" fill="url(#master_svga_177_04549)" fill-opacity="1"/><path d="M170.06298828125,102.4552001953125L226.11973228125,102.4552001953125C225.60860828124999,126.5843501953125,225.35305428125,141.1054691953125,225.35305428125,146.0185701953125C225.29058028125002,152.2531931953125,226.17240128125002,158.4610441953125,227.96822728125,164.4288251953125C221.58040228125,166.3415221953125,208.54806128125,168.2104341953125,198.09192628125,168.2104341953125C189.42615128125,168.10045619531252,180.77280028125,167.5150301953125,172.17048768125,166.4567491953125C170.76548815125,165.76157019531252,170.06298828125,158.68920919531251,170.06298828125,145.2396581953125L170.06298828125,102.4552001953125Z" fill-rule="evenodd" fill="#FFFFFF" fill-opacity="1"/><path d="M176.35009765625 112.81898236274719C176.35009765625 112.20387431143253 176.8487412547919 111.70523071289062 177.46384930610657 111.70523071289062L221.07646441459656 111.70523071289062C221.69157246591124 111.70523071289062 222.19021606445312 112.20387431143253 222.19021606445312 112.81898236274719L222.19021606445312 112.89593124389648C222.19021606445312 113.51103929521115 221.69157246591124 114.00968289375305 221.07646441459656 114.00968289375305L177.46384930610657 114.00968289375305C176.8487412547919 114.00968289375305 176.35009765625 113.51103929521115 176.35009765625 112.89593124389648Z" fill="url(#master_svgb_177_04539)" fill-opacity="1"/><path d="M176.35009765625 119.73191571235657C176.35009765625 119.1168076610419 176.8487412547919 118.6181640625 177.46384930610657 118.6181640625L221.07646441459656 118.6181640625C221.69157246591124 118.6181640625 222.19021606445312 119.1168076610419 222.19021606445312 119.73191571235657L222.19021606445312 119.80886459350586C222.19021606445312 120.42397264482052 221.69157246591124 120.92261624336243 221.07646441459656 120.92261624336243L177.46384930610657 120.92261624336243C176.8487412547919 120.92261624336243 176.35009765625 120.42397264482052 176.35009765625 119.80886459350586Z" fill="url(#master_svgc_177_04539)" fill-opacity="1"/><path d="M176.35009765625 126.05002212524414C176.35009765625 125.12735998243467 177.09806310743465 124.37939453125 178.02072525024414 124.37939453125L199.89153480529785 124.37939453125C200.81419694810734 124.37939453125 201.562162399292 125.12735998243467 201.562162399292 126.05002212524414L201.562162399292 126.16544461250305C201.562162399292 127.08810675531252 200.81419694810734 127.83607220649719 199.89153480529785 127.83607220649719L178.02072525024414 127.83607220649719C177.09806310743465 127.83607220649719 176.35009765625 127.08810675531252 176.35009765625 126.16544461250305Z" fill="url(#master_svgd_177_04539)" fill-opacity="1"/><path d="M176.35009765625 156.60398602485657C176.35009765625 155.9888779735419 176.8487412547919 155.490234375 177.46384930610657 155.490234375L185.55037188529968 155.490234375C186.16547993661436 155.490234375 186.66412353515625 155.9888779735419 186.66412353515625 156.60398602485657L186.66412353515625 156.68093490600586C186.66412353515625 157.29604295732054 186.16547993661436 157.79468655586243 185.55037188529968 157.79468655586243L177.46384930610657 157.79468655586243C176.8487412547919 157.79468655586243 176.35009765625 157.29604295732054 176.35009765625 156.68093490600586Z" fill="url(#master_svge_177_04539)" fill-opacity="1"/><ellipse cx="198.54875659942627" cy="94.88048124313354" rx="4.3158464431762695" ry="4.339282512664795" fill="url(#master_svgf_177_04536)" fill-opacity="1"/><ellipse cx="198.11965656280518" cy="94.4217095375061" rx="4.584012031555176" ry="4.6089043617248535" fill="#FFFFFF" fill-opacity="1"/></g></g></g><g transform="matrix(0.9610793590545654,0.2762722373008728,-0.27500370144844055,0.9614431858062744,26.462029851863008,-40.80529671586555)"><g style="opacity:0.598800003528595;"><ellipse cx="169.58550453186035" cy="93.62929010391235" rx="4.503473281860352" ry="1.2753167152404785" fill="url(#master_svgg_177_04563)" fill-opacity="1"/></g><g style="opacity:0.5764999985694885;"><path d="M165.64375073,93.60897473242187C166.8831007,94.11437273242187,172.924931,85.30597403242187,173.7769833,82.99557353242187C174.6290359,80.68517513242188,173.6995249,78.08597553242187,171.6855817,77.29177581242188C169.6716375,76.49757606242187,167.3478568,77.72497570242187,166.4958038,80.10757513242187C165.64375073,82.49017433242187,164.32694173,93.10357073242187,165.64375073,93.60897473242187Z" fill="url(#master_svgh_177_04563)" fill-opacity="1"/></g><path d="M165.948021875,92.97996716992188C167.386858975,92.56116316992188,167.171033875,80.48562286992187,166.451615375,77.76339216992187C165.732196375,75.04116106992187,163.358115175,73.36594193992188,161.055974975,73.99414918992187C158.753835435,74.62235640992188,157.530823795,77.34458756992187,158.178300605,80.06681916992187C158.825777475,82.78904916992187,164.509184375,93.39877116992187,165.948021875,92.97996716992188Z" fill="url(#master_svgi_177_04563)" fill-opacity="1"/></g></g><g><path d="M107.0140004,217.6159992C106.3700004,217.6719999,105.684,217.7279997,104.9560003,217.7840004L104.9560003,216.678L107.1400003,216.678L107.1400003,215.8519993L104.9560003,215.8519993L104.9560003,214.9279995L104.0320001,214.9279995L104.0320001,215.8519993L102.408,215.8519993C102.7580001,215.3899994,103.0940001,214.8579998,103.4020002,214.2699995L107.2380004,214.2699995L107.2380004,213.3739996L103.822,213.3739996C103.934,213.1219997,104.0320001,212.8699999,104.1300001,212.618L103.122,212.4499998C103.01,212.7579994,102.8840001,213.066,102.7580001,213.3739996L100.81200004,213.3739996L100.81200004,214.2699995L102.3100002,214.2699995C101.9740001,214.8999996,101.5960001,215.4320002,101.204,215.8800001L101.4280001,216.678L104.0320001,216.678L104.0320001,217.8400002C103.0800002,217.8959999,102.0580001,217.9379997,100.99400002,217.9939995L101.12,218.8899994C102.128,218.8339996,103.108,218.7639999,104.0320001,218.70800020000001L104.0320001,219.716L104.9560003,219.716L104.9560003,218.6380005C105.6700001,218.5679998,106.3560004,218.4979992,107.0140004,218.4419994L107.0140004,217.6159992ZM108.974,216.6919999L110.794001,216.6919999L110.794001,219.73L111.76,219.73L111.76,216.6919999L113.244,216.6919999L113.244,215.8099995L109.0440006,215.8099995L109.0440006,214.3540001C110.556001,214.1859999,111.816,213.8639994,112.852,213.4159994L112.208,212.6599998C111.228001,213.1079998,109.8559999,213.4159994,108.1199999,213.5839996L108.1199999,215.7819996C108.092,217.04199979999999,107.756,218.1199999,107.1400003,219.03L107.8400002,219.757999C108.4420004,218.8899994,108.8200006,217.868,108.974,216.6919999ZM111.676001,220.136L102.4920001,220.136L102.4920001,225.4L103.5280001,225.4L103.5280001,224.85399999999998L110.64,224.85399999999998L110.64,225.4L111.676001,225.4L111.676001,220.136ZM103.5280001,223.986L103.5280001,222.894L110.64,222.894L110.64,223.986L103.5280001,223.986ZM103.5280001,222.082L103.5280001,220.99L110.64,220.99L110.64,222.082L103.5280001,222.082ZM115.862,213.3179998L115.862,214.2979994L119.880001,214.2979994L119.880001,215.2360001C119.866001,216.1039996,119.809999,216.9299998,119.69800000000001,217.6859999L114.924,217.6859999L114.924,218.6520004L119.530001,218.6520004C119.348,219.534,119.096001,220.332,118.76,221.032C118.004,222.46,116.674,223.594,114.742,224.462L115.30199999999999,225.358C117.248001,224.518,118.648001,223.328,119.516001,221.816C119.992001,220.92,120.341999,219.87,120.566,218.6520004L121.700001,218.6520004L121.700001,223.748C121.700001,224.7,122.148001,225.17600099999999,123.072001,225.17600099999999L125.34,225.17600099999999C125.928001,225.17600099999999,126.348,225.049999,126.614,224.798C126.922001,224.49,127.132,223.664,127.243999,222.292L126.292,221.984C126.22200000000001,223.076,126.096001,223.72,125.900002,223.944C125.746,224.126,125.493999,224.224,125.158001,224.224L123.380001,224.224C122.931999,224.224,122.708,223.986,122.708,223.538L122.708,218.6520004L127.048,218.6520004L127.048,217.6859999L120.720001,217.6859999C120.818001,216.9299998,120.87400099999999,216.1039996,120.902,215.2360001L120.902,214.2979994L125.914001,214.2979994L125.914001,213.3179998L115.862,213.3179998ZM134.958,218.302C136.274002,219.64600000000002,137.352001,220.92,138.16400099999998,222.124L138.919998,221.35399999999998C137.926003,220.024,136.708,218.6660004,135.251999,217.2939997C135.363998,216.8319998,135.448002,216.3279996,135.518002,215.7959995L139.521999,215.7959995L139.521999,223.608C139.521999,224.056,139.298,224.294,138.849998,224.294L136.708,224.238L136.987999,225.246L139.186001,225.246C140.082001,225.246,140.54399899999999,224.77,140.54399899999999,223.832L140.54399899999999,214.816L135.630001,214.816C135.686001,214.1159992,135.728001,213.3459997,135.728001,212.5199995L134.70600100000001,212.5199995C134.70600100000001,213.3319998,134.66400099999998,214.1019993,134.594002,214.816L129.469999,214.816L129.469999,225.386L130.492001,225.386L130.492001,215.7959995L134.482002,215.7959995C134.38399900000002,216.4399996,134.25799899999998,217.0279999,134.10399999999998,217.5739994C133.599998,219.128,132.563999,220.416,130.996,221.452L131.667999,222.278C133.292,221.214,134.38399900000002,219.898,134.958,218.302ZM149.167999,212.4919996L148.09,212.6739998C148.25799899999998,212.9959993,148.425999,213.3459997,148.594002,213.7379999L143.273998,213.7379999L143.273998,216.2999997L144.254002,216.2999997L144.254002,214.6759996L153.746002,214.6759996L153.746002,216.2299995L154.726002,216.2299995L154.726002,213.7379999L149.644001,213.7379999C149.490002,213.276,149.33599900000002,212.8559999,149.167999,212.4919996ZM148.636002,216.9719996C147.236,218.5119991,145.262001,219.743999,142.700001,220.696L143.231998,221.521999C143.82,221.298,144.394001,221.059999,144.967999,220.78L144.967999,225.414L145.948002,225.414L145.948002,224.826L152.20600100000001,224.826L152.20600100000001,225.414L153.172001,225.414L153.172001,220.836C153.64800300000002,221.059999,154.166,221.284,154.726002,221.507999L155.271999,220.682C152.5,219.618,150.540001,218.3859997,149.405998,216.9719996L148.636002,216.9719996ZM145.948002,223.902L145.948002,221.662L152.20600100000001,221.662L152.20600100000001,223.902L145.948002,223.902ZM144.995998,220.766C146.549999,219.996,147.894001,219.03,149.014,217.8540001C149.966,218.9459991,151.310001,219.926,153.018002,220.766L144.995998,220.766ZM150.638,215.2639999L149.993999,215.8940001C151.771999,216.8319998,153.172001,217.7139997,154.19400000000002,218.5539999L154.894001,217.868C153.746002,217,152.318001,216.132,150.638,215.2639999ZM147.32,215.25C146.144001,216.2299995,144.716,217.0699997,143.00799899999998,217.7980003L143.610001,218.5819998C145.346001,217.7980003,146.80200200000002,216.888,147.99200100000002,215.8519993L147.32,215.25Z" fill="#999999" fill-opacity="1"/></g></g></g></svg>