<svg xmlns="http://www.w3.org/2000/svg" xmlns:xlink="http://www.w3.org/1999/xlink" fill="none" version="1.1" width="20" height="20" viewBox="0 0 20 20"><defs><clipPath id="master_svg0_219_8469"><rect x="0" y="0" width="20" height="20" rx="0"/></clipPath></defs><g clip-path="url(#master_svg0_219_8469)"><g><path d="M13.757812875,3.2597656280670164C13.455077875,3.0742187500670166,13.085937875,3.0585937500670166,12.767577875,3.2187499980670164L12.763671875,3.2207031280670164L6.160156275,6.947265628067017C6.152343775,6.951171828067016,6.142578074999999,6.953125028067017,6.132812475,6.953125028067017L6.001953074999999,6.953125028067017C5.978515675000001,6.949218728067017,5.955078074999999,6.947265628067017,5.929687475,6.947265628067017L3.263671875,6.947265628067017C2.705078125,6.947265628067017,2.248046875,7.4023440280670165,2.248046875,7.9628908280670165L2.248046875,12.417969028067017C2.248046875,12.976562728067016,2.703124995,13.433593628067017,3.263671875,13.433593628067017L5.931640675000001,13.433593628067017C5.955078074999999,13.433593628067017,5.980468775,13.431640628067017,6.003906275,13.427734628067016L6.134765675000001,13.427734628067016C6.144531275,13.427734628067016,6.152343775,13.429687628067017,6.162109375,13.433593628067017L12.763671875,17.158203628067017L12.771484875,17.162109628067014C12.914062875,17.234375628067017,13.072265875,17.271484628067014,13.230468875,17.271484628067014C13.417968875,17.271484628067014,13.601562875,17.218750628067017,13.761718875,17.121093628067015C14.064452875,16.935546628067016,14.244140875,16.611328628067017,14.244140875,16.255859628067014L14.244140875,4.123046828067016C14.242187875,3.7695312480670164,14.060546875,3.4453124980670164,13.757812875,3.2597656280670164ZM3.199218755,7.968750228067017C3.199218755,7.9335940280670165,3.228515625,7.904297128067016,3.263671875,7.904297128067016L6.132812475,7.904297128067016C6.291015675,7.904297128067016,6.449218775,7.867187728067017,6.589843775,7.794922128067016L6.593749975,7.7929690280670165L13.199218875,4.064453128067017C13.208984875,4.060546878067017,13.230468875,4.0507812480670164,13.259765875,4.068359378067017C13.291015875,4.087890628067017,13.291015875,4.113281228067017,13.291015875,4.123046828067016L13.291015875,16.255859628067014C13.291015875,16.265625628067017,13.291015875,16.292968628067015,13.259765875,16.310546628067016C13.232421875,16.328125628067017,13.208984875,16.320312628067015,13.199218875,16.314453628067017L6.597656275,12.587890828067017L6.589843775,12.583984628067016C6.449218775,12.511719028067017,6.291015675,12.474609628067016,6.132812475,12.474609628067016L3.263671875,12.474609628067016C3.228515625,12.474609628067016,3.199218755,12.445312728067016,3.199218755,12.410156528067017L3.199218755,7.968750228067017Z" fill="#0064FF" fill-opacity="1" style="mix-blend-mode:passthrough"/></g><g><path d="M17.48828121442871,8.337890587591552C17.076171914428713,6.841796877591553,16.25390625442871,6.123046877591553,16.21875000442871,6.083984377591553C16.13281250442871,5.9902343745915525,16.01562500442871,5.9355468749915525,15.890625004428712,5.9296875000015525C15.763671874428711,5.9238281249915525,15.642578124428711,5.9667968745915525,15.548828124428711,6.052734377591553C15.455078125428711,6.138671877591553,15.400390625028711,6.255859377591553,15.39453124999871,6.380859377591553C15.388671875028711,6.507812497591553,15.431640625428711,6.628906247591553,15.517578124428711,6.722656247591553C15.525390624428711,6.730468747591553,16.22656250442871,7.326171887591553,16.57421871442871,8.589843787591553C17.048828114428712,10.310546887591553,16.681640614428712,11.835937487591552,15.480468750428711,13.546874987591552C15.330078125428711,13.761718787591553,15.382812500428711,14.058593287591552,15.595703124428711,14.208983887591552C15.675781254428712,14.265624487591552,15.769531254428712,14.294921387591552,15.869140624428711,14.294921387591552C16.02343750442871,14.294921387591552,16.16992187442871,14.218749487591552,16.25781250442871,14.091796387591552C17.00781251442871,13.023437487591552,17.474609414428713,12.130859387591553,17.646484414428713,11.017578087591552C17.783203114428712,10.121093787591553,17.73046871442871,9.218749987591552,17.48828121442871,8.337890587591552Z" fill="#0064FF" fill-opacity="1" style="mix-blend-mode:passthrough"/></g></g></svg>