<svg xmlns="http://www.w3.org/2000/svg" xmlns:xlink="http://www.w3.org/1999/xlink" fill="none" version="1.1" width="12" height="12" viewBox="0 0 12 12"><defs><clipPath id="master_svg0_219_9729"><rect x="0" y="0" width="12" height="12" rx="0"/></clipPath></defs><g clip-path="url(#master_svg0_219_9729)"><g><rect x="1" y="4" width="10" height="1" rx="0.5" fill="#0064FF" fill-opacity="1"/><rect x="1" y="8" width="10" height="1" rx="0.5" fill="#0064FF" fill-opacity="1"/><ellipse cx="7.5" cy="4.5" rx="1.5" ry="1.5" fill="#FFFFFF" fill-opacity="1"/><path d="M9,4.5Q9,4.5736904,8.9927771,4.6470258Q8.9855542,4.7203612,8.9711776,4.7926354Q8.9568014,4.8649099,8.9354105,4.9354271Q8.9140191,5.0059442999999995,8.885819,5.0740248999999995Q8.857619,5.1421060999999995,8.8228817,5.2070951Q8.7881444,5.2720842,8.7472041,5.3333552Q8.706264000000001,5.3946266000000005,8.6595156,5.4515898Q8.6127672,5.508553,8.5606601,5.5606599Q8.5085535,5.612767,8.4515903,5.659515600000001Q8.3946269,5.706264,8.3333554,5.747204099999999Q8.2720842,5.7881444,8.2070954,5.8228817Q8.1421061,5.857619,8.0740252,5.885819Q8.0059443,5.9140191,7.9354271999999995,5.9354105Q7.8649099,5.9568014,7.7926354,5.9711776Q7.7203612,5.9855542,7.6470258,5.9927771Q7.5736904,6,7.5,6Q7.4263097,6,7.3529742,5.9927771Q7.2796388,5.9855542,7.2073643,5.9711776Q7.1350901,5.9568014,7.0645729,5.9354105Q6.99405575,5.9140191,6.92597479,5.885819Q6.85789394,5.857619,6.79290485,5.8228817Q6.72791588,5.7881444,6.66664457,5.747204099999999Q6.60537338,5.706264,6.54841006,5.659515600000001Q6.49144673,5.6127672,6.43933982,5.5606601Q6.38723296,5.5085535,6.34048432,5.4515902999999994Q6.29373568,5.3946269000000004,6.25279555,5.3333554Q6.21185544,5.2720842,6.1771180900000004,5.2070954Q6.14238074,5.1421060999999995,6.11418069,5.0740251999999995Q6.085980654,5.0059442999999995,6.064589493,4.9354271999999995Q6.043198336,4.8649099,6.028822076,4.7926354Q6.014445819,4.7203612,6.0072229095,4.6470258Q6,4.5736904,6,4.5Q6,4.4263097,6.0072229095,4.3529742Q6.014445819,4.2796388,6.028822076,4.2073643Q6.043198336,4.1350901,6.064589493,4.0645729Q6.085980654,3.9940557500000002,6.11418069,3.92597479Q6.14238074,3.85789394,6.17711811,3.79290485Q6.21185547,3.72791588,6.25279558,3.66664457Q6.29373571,3.60537338,6.34048432,3.54841006Q6.38723296,3.49144673,6.43933982,3.43933982Q6.49144673,3.38723296,6.54841006,3.34048432Q6.60537338,3.29373568,6.66664457,3.25279555Q6.72791588,3.21185544,6.79290497,3.17711809Q6.85789394,3.14238074,6.92597479,3.11418069Q6.99405575,3.085980654,7.0645729,3.064589493Q7.1350901,3.043198336,7.2073643999999994,3.028822076Q7.2796388,3.014445819,7.3529742,3.0072229095Q7.4263097,3,7.5,3Q7.5736904,3,7.6470258,3.0072229095Q7.7203612,3.014445819,7.7926354,3.028822076Q7.8649099,3.043198336,7.9354271,3.064589493Q8.0059443,3.085980654,8.0740249,3.11418069Q8.1421061,3.14238074,8.2070951,3.17711811Q8.2720842,3.21185547,8.3333552,3.25279558Q8.3946266,3.29373571,8.4515898,3.34048432Q8.508553,3.38723296,8.560659900000001,3.43933982Q8.612767,3.49144673,8.6595156,3.54841006Q8.706264000000001,3.60537338,8.7472041,3.66664457Q8.7881444,3.72791588,8.8228817,3.79290497Q8.857619,3.85789394,8.885819,3.92597479Q8.9140191,3.9940557500000002,8.9354105,4.0645729Q8.9568014,4.1350901,8.9711776,4.2073643999999994Q8.9855542,4.2796388,8.9927771,4.3529742Q9,4.4263097,9,4.5ZM8,4.5Q7.9999999,4.4507542,7.9903924,4.4024547Q7.9807851,4.3541553,7.9619396,4.3086581Q7.943094,4.2631609,7.9157346,4.2222147Q7.8883753,4.1812685,7.8535533,4.1464466Q7.8187313,4.1116246,7.7777849,4.0842651Q7.7368387,4.0569057,7.6913415999999994,4.0380602Q7.6458445,4.0192146,7.597545,4.0096073Q7.5492456,4,7.5,4Q7.4507542,4,7.4024547,4.0096073Q7.3541553,4.0192146,7.3086581,4.0380602Q7.2631609,4.0569057,7.2222147,4.0842651Q7.1812685,4.1116245,7.1464466,4.1464465Q7.1116246,4.1812685,7.0842651,4.2222147Q7.0569057,4.2631609,7.0380602,4.3086581Q7.0192146,4.3541553,7.0096073,4.4024547Q6.99999994,4.4507542,7,4.5Q6.99999994,4.5492456,7.0096073,4.597545Q7.0192146,4.6458445,7.0380601,4.6913415999999994Q7.0569055,4.7368387,7.084265,4.7777851Q7.1116245,4.8187313,7.1464465,4.8535533Q7.1812685,4.8883753,7.2222147,4.9157346Q7.2631609,4.943094,7.3086581,4.9619396Q7.3541553,4.9807851,7.4024547,4.9903924Q7.4507542,4.9999999,7.5,5Q7.5492456,4.9999999,7.597545,4.9903924Q7.6458445,4.9807851,7.6913415999999994,4.9619396Q7.7368387,4.943094,7.7777851,4.9157346Q7.8187313,4.8883753,7.8535533,4.8535533Q7.8883753,4.8187313,7.9157346,4.7777849Q7.943094,4.7368387,7.9619396,4.6913415999999994Q7.9807851,4.6458445,7.9903924,4.597545Q7.9999999,4.5492456,8,4.5Z" fill="#0064FF" fill-opacity="1"/><ellipse cx="4.5" cy="8.5" rx="1.5" ry="1.5" fill="#FFFFFF" fill-opacity="1"/><path d="M6,8.5Q6,8.5736904,5.9927771,8.6470258Q5.9855542,8.7203612,5.9711776,8.7926354Q5.9568014,8.8649099,5.9354105,8.9354271Q5.9140191,9.0059443,5.885819,9.0740249Q5.857619,9.1421061,5.8228817,9.2070951Q5.7881444,9.2720842,5.747204099999999,9.3333552Q5.706264,9.3946266,5.659515600000001,9.4515898Q5.6127672,9.508553,5.5606601,9.560659900000001Q5.5085535,9.612767,5.4515902999999994,9.6595156Q5.3946269000000004,9.706264000000001,5.3333554,9.7472041Q5.2720842,9.7881444,5.2070954,9.8228817Q5.1421060999999995,9.857619,5.0740251999999995,9.885819Q5.0059442999999995,9.9140191,4.9354271999999995,9.9354105Q4.8649099,9.9568014,4.7926354,9.9711776Q4.7203612,9.9855542,4.6470258,9.9927771Q4.5736904,10,4.5,10Q4.4263097,10,4.3529742,9.9927771Q4.2796388,9.9855542,4.2073643,9.9711776Q4.1350901,9.9568014,4.0645729,9.9354105Q3.9940557500000002,9.9140191,3.92597479,9.885819Q3.85789394,9.857619,3.79290485,9.8228817Q3.72791588,9.7881444,3.66664457,9.7472041Q3.60537338,9.706264000000001,3.54841006,9.6595156Q3.49144673,9.6127672,3.43933982,9.5606601Q3.38723296,9.5085535,3.34048432,9.4515903Q3.29373568,9.3946269,3.25279555,9.3333554Q3.21185544,9.2720842,3.17711809,9.2070954Q3.14238074,9.1421061,3.11418069,9.0740252Q3.085980654,9.0059443,3.064589493,8.9354272Q3.043198336,8.8649099,3.028822076,8.7926354Q3.014445819,8.7203612,3.0072229095,8.6470258Q3,8.5736904,3,8.5Q3,8.426309700000001,3.0072229095,8.3529742Q3.014445819,8.2796388,3.028822076,8.2073643Q3.043198336,8.1350901,3.064589493,8.0645729Q3.085980654,7.99405575,3.11418069,7.92597479Q3.14238074,7.85789394,3.17711811,7.79290485Q3.21185547,7.72791588,3.25279558,7.66664457Q3.29373571,7.60537338,3.34048432,7.54841006Q3.38723296,7.49144673,3.43933982,7.43933982Q3.49144673,7.38723296,3.54841006,7.34048432Q3.60537338,7.29373568,3.66664457,7.25279555Q3.72791588,7.21185544,3.79290497,7.1771180900000004Q3.85789394,7.14238074,3.92597479,7.11418069Q3.9940557500000002,7.085980654,4.0645729,7.064589493Q4.1350901,7.043198336,4.2073643999999994,7.028822076Q4.2796388,7.014445819,4.3529742,7.0072229095Q4.4263097,7,4.5,7Q4.5736904,7,4.6470258,7.0072229095Q4.7203612,7.014445819,4.7926354,7.028822076Q4.8649099,7.043198336,4.9354271,7.064589493Q5.0059442999999995,7.085980654,5.0740248999999995,7.11418069Q5.1421060999999995,7.14238074,5.2070951,7.17711811Q5.2720842,7.21185547,5.3333552,7.25279558Q5.3946266000000005,7.29373571,5.4515898,7.34048432Q5.508553,7.38723296,5.5606599,7.43933982Q5.612767,7.49144673,5.659515600000001,7.54841006Q5.706264,7.60537338,5.747204099999999,7.66664457Q5.7881444,7.72791588,5.8228817,7.79290497Q5.857619,7.85789394,5.885819,7.92597479Q5.9140191,7.99405575,5.9354105,8.0645729Q5.9568014,8.1350901,5.9711776,8.2073644Q5.9855542,8.2796388,5.9927771,8.3529742Q6,8.426309700000001,6,8.5ZM5,8.5Q4.9999999,8.4507542,4.9903924,8.4024547Q4.9807851,8.3541553,4.9619396,8.3086581Q4.943094,8.263160899999999,4.9157346,8.2222147Q4.8883753,8.1812685,4.8535533,8.1464466Q4.8187313,8.1116246,4.7777849,8.0842651Q4.7368387,8.0569057,4.6913415999999994,8.0380602Q4.6458445,8.0192146,4.597545,8.0096073Q4.5492456,8,4.5,8Q4.4507542,8,4.4024547,8.0096073Q4.3541553,8.0192146,4.3086581,8.0380602Q4.2631609,8.0569057,4.2222147,8.0842651Q4.1812685,8.1116245,4.1464466,8.1464465Q4.1116246,8.1812685,4.0842651,8.2222147Q4.0569057,8.263160899999999,4.0380602,8.3086581Q4.0192146,8.3541553,4.0096073,8.4024547Q3.99999994,8.4507542,4,8.5Q3.99999994,8.549245599999999,4.0096073,8.597545Q4.0192146,8.645844499999999,4.0380601,8.6913416Q4.0569055,8.7368387,4.084265,8.7777851Q4.1116245,8.8187313,4.1464465,8.8535533Q4.1812685,8.8883753,4.2222147,8.9157346Q4.2631609,8.943094,4.3086581,8.961939600000001Q4.3541553,8.9807851,4.4024547,8.9903924Q4.4507542,8.9999999,4.5,9Q4.5492456,8.9999999,4.597545,8.9903924Q4.6458445,8.9807851,4.6913415999999994,8.961939600000001Q4.7368387,8.943094,4.7777851,8.9157346Q4.8187313,8.8883753,4.8535533,8.8535533Q4.8883753,8.8187313,4.9157346,8.7777849Q4.943094,8.7368387,4.9619396,8.6913416Q4.9807851,8.645844499999999,4.9903924,8.597545Q4.9999999,8.549245599999999,5,8.5Z" fill="#0064FF" fill-opacity="1"/></g></g></svg>