<svg xmlns="http://www.w3.org/2000/svg" xmlns:xlink="http://www.w3.org/1999/xlink" fill="none" version="1.1" width="32.5" height="32.5" viewBox="0 0 32.5 32.5"><g><g style="opacity:0;"><path d="M0.25 0.25C0.25 0.25 0.25 0.25 0.25 0.25L32.25 0.25C32.25 0.25 32.25 0.25 32.25 0.25L32.25 32.25C32.25 32.25 32.25 32.25 32.25 32.25L0.25 32.25C0.25 32.25 0.25 32.25 0.25 32.25Z" fill-opacity="0" stroke-opacity="0" stroke="#999999" fill="none" stroke-width="0.5"/></g><path d="M22.25,5.25L22.25,8.0681818L24.25,8.0681818L24.25,5.20454544Q24.25,4.38125977,23.647583,3.80622417Q23.064871,3.2499998999999997,22.25,3.25L6.25,3.25Q4.2500003,3.25,4.2499999,5.20454538L4.25,24.295454Q4.25,26.25,6.25,26.25L9.25,26.25L9.25,24.25L6.25,24.25L6.25,5.25L22.25,5.25Z" fill-rule="evenodd" fill="#0059E8" fill-opacity="1"/><path d="M9.25 8.25C9.25 7.697715250169207 9.697715250169207 7.25 10.25 7.25L26.25 7.25C26.802284749830793 7.25 27.25 7.697715250169207 27.25 8.25L27.25 27.25C27.25 27.802284749830793 26.802284749830793 28.25 26.25 28.25L10.25 28.25C9.697715250169207 28.25 9.25 27.802284749830793 9.25 27.25Z" fill-opacity="0" stroke-opacity="1" stroke="#0059E8" fill="none" stroke-width="2"/><path d="M13.25,14.25L23.25,14.25Q23.348492,14.25,23.445089,14.2307851Q23.541688999999998,14.2115705,23.632683,14.1738794Q23.723677000000002,14.1361884,23.805569,14.0814695Q23.887462,14.0267506,23.957106,13.9571067Q24.026749000000002,13.8874627,24.081469,13.8055701Q24.136187,13.72367752,24.173878000000002,13.6326834Q24.211569,13.54168916,24.230784,13.44509029Q24.25,13.34849137,24.25,13.25Q24.25,13.15150857,24.230784,13.05490968Q24.211569,12.95831075,24.173878000000002,12.86731656Q24.136187,12.776322376,24.081468,12.694429774Q24.026749000000002,12.61253718,23.957106,12.54289323Q23.887462,12.47324929,23.805569,12.4185304Q23.723677000000002,12.36381152,23.632683,12.3261205Q23.541688999999998,12.2884295,23.445089,12.26921475Q23.348492,12.25000003,23.25,12.25L13.25,12.25Q13.1515086,12.25000003,13.05490969,12.26921475Q12.95831078,12.2884295,12.8673166,12.32612053Q12.77632242,12.36381155,12.69442987,12.41853046Q12.61253726,12.47324932,12.54289329,12.54289325Q12.47324938,12.61253719,12.418530520000001,12.694429792Q12.363811609999999,12.776322387,12.32612056,12.86731657Q12.2884295,12.95831075,12.26921481,13.05490965Q12.25000006,13.15150857,12.25,13.25Q12.25000006,13.34849137,12.26921481,13.44509029Q12.28842956,13.54168916,12.32612062,13.6326834Q12.363811609999999,13.72367752,12.41853046,13.8055701Q12.47324938,13.8874627,12.54289329,13.9571067Q12.61253726,14.0267506,12.69442981,14.0814695Q12.77632242,14.1361884,12.8673166,14.1738794Q12.95831078,14.2115705,13.05490969,14.2307851Q13.1515086,14.25,13.25,14.25Z" fill-rule="evenodd" fill="#0059E8" fill-opacity="1"/><path d="M13.25,19.25L23.25,19.25Q23.348492,19.25,23.445089,19.2307851Q23.541688999999998,19.2115705,23.632683,19.1738794Q23.723677000000002,19.1361884,23.805569,19.0814695Q23.887462,19.0267506,23.957106,18.9571067Q24.026749000000002,18.8874627,24.081469,18.8055701Q24.136187,18.72367752,24.173878000000002,18.6326834Q24.211569,18.54168916,24.230784,18.44509029Q24.25,18.34849137,24.25,18.25Q24.25,18.15150857,24.230784,18.05490968Q24.211569,17.95831075,24.173878000000002,17.86731656Q24.136187,17.776322376,24.081468,17.694429774Q24.026749000000002,17.61253718,23.957106,17.54289323Q23.887462,17.47324929,23.805569,17.4185304Q23.723677000000002,17.36381152,23.632683,17.3261205Q23.541688999999998,17.2884295,23.445089,17.26921475Q23.348492,17.25000003,23.25,17.25L13.25,17.25Q13.1515086,17.25000003,13.05490969,17.26921475Q12.95831078,17.2884295,12.8673166,17.32612053Q12.77632242,17.36381155,12.69442987,17.41853046Q12.61253726,17.47324932,12.54289329,17.54289325Q12.47324938,17.61253719,12.418530520000001,17.694429792Q12.363811609999999,17.776322387,12.32612056,17.86731657Q12.2884295,17.95831075,12.26921481,18.05490965Q12.25000006,18.15150857,12.25,18.25Q12.25000006,18.34849137,12.26921481,18.44509029Q12.28842956,18.54168916,12.32612062,18.6326834Q12.363811609999999,18.72367752,12.41853046,18.8055701Q12.47324938,18.8874627,12.54289329,18.9571067Q12.61253726,19.0267506,12.69442981,19.0814695Q12.77632242,19.1361884,12.8673166,19.1738794Q12.95831078,19.2115705,13.05490969,19.2307851Q13.1515086,19.25,13.25,19.25Z" fill-rule="evenodd" fill="#0059E8" fill-opacity="1"/><path d="M13.25,24.25L23.25,24.25Q23.348492,24.25,23.445089,24.2307851Q23.541688999999998,24.2115705,23.632683,24.1738794Q23.723677000000002,24.1361884,23.805569,24.0814695Q23.887462,24.0267506,23.957106,23.9571067Q24.026749000000002,23.8874627,24.081469,23.8055701Q24.136187,23.72367752,24.173878000000002,23.6326834Q24.211569,23.54168916,24.230784,23.44509029Q24.25,23.34849137,24.25,23.25Q24.25,23.15150857,24.230784,23.05490968Q24.211569,22.95831075,24.173878000000002,22.86731656Q24.136187,22.776322376,24.081468,22.694429774Q24.026749000000002,22.61253718,23.957106,22.54289323Q23.887462,22.47324929,23.805569,22.4185304Q23.723677000000002,22.36381152,23.632683,22.3261205Q23.541688999999998,22.2884295,23.445089,22.26921475Q23.348492,22.25000003,23.25,22.25L13.25,22.25Q13.1515086,22.25000003,13.05490969,22.26921475Q12.95831078,22.2884295,12.8673166,22.32612053Q12.77632242,22.36381155,12.69442987,22.41853046Q12.61253726,22.47324932,12.54289329,22.54289325Q12.47324938,22.61253719,12.418530520000001,22.694429792Q12.363811609999999,22.776322387,12.32612056,22.86731657Q12.2884295,22.95831075,12.26921481,23.05490965Q12.25000006,23.15150857,12.25,23.25Q12.25000006,23.34849137,12.26921481,23.44509029Q12.28842956,23.54168916,12.32612062,23.6326834Q12.363811609999999,23.72367752,12.41853046,23.8055701Q12.47324938,23.8874627,12.54289329,23.9571067Q12.61253726,24.0267506,12.69442981,24.0814695Q12.77632242,24.1361884,12.8673166,24.1738794Q12.95831078,24.2115705,13.05490969,24.2307851Q13.1515086,24.25,13.25,24.25Z" fill-rule="evenodd" fill="#0059E8" fill-opacity="1"/></g></svg>