<svg xmlns="http://www.w3.org/2000/svg" xmlns:xlink="http://www.w3.org/1999/xlink" fill="none" version="1.1" width="18.095703125" height="19.741912841796875" viewBox="0 0 18.095703125 19.741912841796875"><g><path d="M7.7520242,0C5.6113882,0,3.8690095,1.3979262,3.7694452,3.9825811L2.9430599,3.9825811C2.2062829,3.9825811,1.5392007,4.5357175,1.4495926,5.2195954L0.015864026,15.347017C-0.1135698,16.423119,0.56346869,17.328251,1.5192877,17.328251L8.9268847,17.328251C8.6978874,16.734888,8.5684528,16.081181,8.5684528,15.40736C8.5684528,12.480766,10.918175,10.117366,13.805546,10.117366C14.154021,10.117366,14.482583,10.147537,14.811147,10.217937L14.104239,5.2397094C14.024587,4.5457749,13.357504,4.0026956,12.610771,4.0026956L11.734604,4.0026956C11.635039,1.3979262,9.8926611,0,7.7520242,0ZM7.7509203,1.6291504C8.975564,1.6291504,9.9811649,2.3532562,10.040903,3.8316386L5.4609375,3.8316386C5.5206761,2.3532562,6.5262775,1.6291504,7.7509203,1.6291504ZM4.1770945,5.8531494C4.7246995,5.8531494,5.1627827,6.3057156,5.1627827,6.8789659C5.1627827,7.4421592,4.7246995,7.9047823,4.1770945,7.9047823C3.6294899,7.9047823,3.1914062,7.4522161,3.1914062,6.8789659C3.1914062,6.3157725,3.6294899,5.8531494,4.1770945,5.8531494ZM11.434907,5.8531494C11.982512,5.8531494,12.420595,6.3057156,12.420595,6.8789659C12.420595,7.4421592,11.982512,7.9047823,11.434907,7.9047823C10.887302,7.9047823,10.449219,7.4522161,10.449219,6.8789659C10.449219,6.3157725,10.887302,5.8531494,11.434907,5.8531494ZM13.804901,11.072754C11.435266,11.072754,9.5136719,13.01376,9.5136719,15.407331C9.5136719,17.800903,11.435266,19.741909,13.804901,19.741909C16.174536,19.741909,18.09613,17.800903,18.09613,15.407331C18.09613,13.003702,16.174536,11.072754,13.804901,11.072754ZM14.253177,12.882974C14.263133,12.671777,14.10383,12.510864,13.924614,12.510864L13.396922,12.510864C13.227662,12.510864,13.088272,12.651663,13.068359,12.832689L13.068359,16.282248C13.068359,16.463274,13.197793,16.624187,13.357097,16.6443L13.924614,16.6443C14.093874,16.6443,14.233264,16.503502,14.253177,16.322475L14.253177,12.882974ZM16.046146,14.210619C16.046146,14.039649,15.896799,13.888794,15.717583,13.888794L15.189891,13.888794C15.010674,13.888794,14.861328,14.029593,14.861328,14.210619L14.861328,16.312536C14.861328,16.493563,15.010674,16.634361,15.189891,16.634361L15.717583,16.634361C15.896799,16.644419,16.046146,16.493563,16.046146,16.312536L16.046146,14.210619ZM12.620364,14.984922C12.620364,14.763668,12.471018,14.582642,12.291801,14.582642L11.76411,14.582642C11.584893,14.582642,11.435547,14.763668,11.435547,14.984922L11.435547,16.252108C11.435547,16.473362,11.584893,16.654388,11.76411,16.654388L12.291801,16.654388C12.471018,16.654388,12.620364,16.473362,12.620364,16.252108L12.620364,14.984922ZM16.19466,17.157175C16.19466,17.066662,16.115009,16.986206,16.0254,16.986206L11.594781,16.986206C11.515129,16.986206,11.455391,17.046549,11.435477,17.116947C11.415565,17.217518,11.475304,17.308031,11.564912,17.328144L16.0254,17.328144C16.115009,17.328144,16.19466,17.247688,16.19466,17.157175Z" fill-rule="evenodd" fill="#678FFF" fill-opacity="1"/></g></svg>