<svg xmlns="http://www.w3.org/2000/svg" xmlns:xlink="http://www.w3.org/1999/xlink" fill="none" version="1.1" width="36" height="33" viewBox="0 0 36 33"><defs><linearGradient x1="0.5" y1="0" x2="0.5" y2="1" id="master_svg0_310_19358"><stop offset="0%" stop-color="#24BC29" stop-opacity="0.1899999976158142"/><stop offset="100%" stop-color="#E0F4E1" stop-opacity="0.14000000059604645"/></linearGradient></defs><g><path d="M0.178,28.3667C0.278576,28.7367,0.614731,28.9946,1,28.9973L0.992,28.9974C1.0735,29.003,1.15527,28.9914,1.232,28.9635C1.68433,28.8395,1.95193,28.3763,1.832,27.9251C1.74908,27.6489,1.70862,27.3618,1.712,27.0736L1.712,5.02918C1.71089,3.1849,3.21188,1.68831,5.066,1.68501L20.848,1.68501C21.4307,1.68686,22.0028,1.83976,22.508,2.12865C22.9124,2.34276,23.4146,2.20049,23.6449,1.80658C23.8751,1.41268,23.7511,0.908152,23.364,0.664456C22.5969,0.230973,21.7302,0.00208369,20.848,0L5.066,0C2.27086,0.00656203,0.00659706,2.25882,0,5.03912L0,27.0736C0.000195829,27.5107,0.0600766,27.9457,0.178,28.3667ZM5.47834,3.08156L26.5403,3.08156C27.8347,3.07935,28.8846,4.12363,28.8823,5.41113L28.8823,15.4058C28.7341,15.3913,28.5852,15.3854,28.4363,15.3879C27.8715,15.3843,27.3101,15.4764,26.7763,15.6605C23.1109,16.8688,22.0014,21.4893,24.7223,24.2148L23.2663,25.9695L22.9063,25.9695C20.8165,25.9695,19.1223,27.6547,19.1223,29.7334L19.1223,30.9589C19.1263,31.663,19.3278,32.352,19.7043,32.9483C19.6787,32.9641,19.6482,32.9705,19.6183,32.9662L5.47834,32.9662C4.18084,32.9706,3.12789,31.9232,3.13234,30.6326L3.13234,5.41511C3.12789,4.1245,4.18084,3.07713,5.47834,3.08156ZM14.8503,9.16113L8.85034,9.16113C8.17904,9.13365,7.61973,9.66756,7.61973,10.3359C7.61973,11.0042,8.17904,11.5381,8.85034,11.5106L14.8503,11.5106C15.5216,11.5381,16.0809,11.0042,16.0809,10.3359C16.0809,9.66756,15.5216,9.13365,14.8503,9.16113ZM8.85234,18.4078L20.2523,18.4078C20.9236,18.4353,21.483,17.9014,21.483,17.2331C21.483,16.5648,20.9236,16.0309,20.2523,16.0583L8.85234,16.0583C8.18103,16.0309,7.62172,16.5648,7.62172,17.2331C7.62172,17.9014,8.18103,18.4353,8.85234,18.4078ZM32.78,27.754L33.98,27.754C35.0924,27.7616,35.9924,28.6567,36,29.7633L36,30.9887C35.9989,32.0983,35.0955,32.9978,33.98,33L22.934,33C21.8193,32.9978,20.9162,32.0995,20.914,30.9907L20.914,29.7812C20.9162,28.6724,21.8193,27.7741,22.934,27.7719L24.134,27.7719L27.352,23.8727C25.9457,23.4049,24.9975,22.0951,24.9975,20.62C24.9975,19.145,25.9457,17.8352,27.352,17.3674C27.7029,17.2393,28.0743,17.176,28.448,17.1804C30.137,17.1788,31.5778,18.3958,31.8501,20.0539C32.1224,21.7119,31.1457,23.3217,29.544,23.8548L32.78,27.754ZM8.85034,25.303L18.4883,25.303C19.1596,25.3305,19.7189,24.7966,19.7189,24.1283C19.7189,23.46,19.1596,22.9261,18.4883,22.9536L8.85034,22.9536C8.17905,22.9261,7.61976,23.46,7.61976,24.1283C7.61976,24.7966,8.17905,25.3305,8.85034,25.303Z" fill-rule="evenodd" fill="url(#master_svg0_310_19358)" fill-opacity="1" style="mix-blend-mode:passthrough"/></g></svg>