<svg xmlns="http://www.w3.org/2000/svg" xmlns:xlink="http://www.w3.org/1999/xlink" fill="none" version="1.1" width="50" height="49.88037109375" viewBox="0 0 50 49.88037109375"><defs><clipPath id="master_svg0_247_42222"><rect x="12" y="11.11962890625" width="26" height="26" rx="0"/></clipPath></defs><path d="M0 8C4.90527396329193e-16 3.5817220013536524 3.5817220013536533 0 8 0L42.000003814697266 0C46.41828181334361 0 50.000003814697266 3.5817220013536533 50.000003814697266 8L50.000003814697266 41.760765075683594C50.000003814697266 46.17904307432994 46.41828181334361 49.760765075683594 42.000003814697266 49.760765075683594L8 49.760765075683594C3.5817220013536533 49.760765075683594 0 46.17904307432994 0 41.760765075683594Z" fill="#EBF0FF" fill-opacity="1"/><g clip-path="url(#master_svg0_247_42222)"><path d="M36.77419690625,20.903126675C37.40005090625,20.903126675,37.912612906250004,21.352540375,37.912612906250004,21.898540375L37.912612906250004,33.760126375C37.88105190625,34.320980375000005,37.35175890625,34.722126375,36.70919790625,34.707248375C36.11490390625,34.673833375,35.65060990625,34.272688375,35.617198906249996,33.760126375L35.617198906249996,21.898515375000002C35.617198906249996,21.337661375,36.13161290625,20.903101875,36.77419690625,20.903126675C36.75746490625,20.903101875,36.75746490625,20.903101875,36.77419690625,20.903126675ZM30.43390490625,26.474516375L16.75978330625,26.474516375C16.19439360625,26.513104374999998,15.702186306249999,26.091927374999997,15.65290450625,25.527368375000002C15.63414410625,24.962188375,16.08290860625,24.491664375,16.648343606250002,24.483661375L30.40234590625,24.483661375C30.96772590625,24.445086375000002,31.45991690625,24.866260375,31.50919690625,25.430808374999998C31.52689790625,25.995272375,31.07844390625,26.464637375000002,30.51375790625,26.472662375L30.43390490625,26.472662375L30.43390490625,26.474516375ZM30.43390490625,31.481369375L16.75978330625,31.481369375C16.19439360625,31.519958375,15.702186306249999,31.098781375,15.65290450625,30.534223375C15.63414450625,29.969043375,16.08290860625,29.498518375,16.648343606250002,29.490516375L30.40234590625,29.490516375C30.96772590625,29.451942375,31.45991690625,29.873115375,31.50919690625,30.437662375C31.52795790625,31.002843375,31.07919290625,31.473367375,30.51375790625,31.481369375C30.49890490625,31.496223375,30.46546390625,31.496223375,30.43390490625,31.481369375ZM16.24534320625,16.442248775C16.24534320625,15.335369575,17.17761090625,14.436516274999999,18.34946440625,14.436516274999999L20.98107530625,14.436516274999999C22.13622190625,14.436516274999999,23.08336790625,15.335369575,23.08336790625,16.442223575L23.08336790625,18.945662975C23.08336790625,20.052516975,22.15292890625,20.951369274999998,20.99778270625,20.951369274999998L18.36434320625,20.951369274999998C17.20919660625,20.951369274999998,16.26205060625,20.052541775,16.26205060625,18.945662475C16.24719710625,18.945662475,16.24719710625,16.442223075,16.24719710625,16.442223075L16.24534320625,16.442248775ZM34.63843890625,34.497367374999996L34.63843890625,13.634247975000001C34.638465906250005,12.525566375,33.162049906250004,11.130859375,32.006902906250005,11.130859375L14.65748930625,11.130859375C13.50417180625,11.130833984764,12.02587890625,12.525540975,12.02587890625,13.634247975000001L12.02587890625,34.497394375C12.02587890625,35.606126375,13.50231830625,37.000835375,14.65743920625,37.000835375L35.73048990625,37.000835375C35.97192990625,37.000835375,36.163220906250004,36.809541374999995,36.179929906249995,36.568126375C36.18378290625,36.419822374999995,36.11073890625,36.280054375,35.98678190625,36.198539374999996C35.32936890625,35.717540375,34.638488906250004,35.074979375,34.63843890625,34.497367374999996L34.63843890625,34.497367374999996Z" fill="#678FFF" fill-opacity="1" style="mix-blend-mode:passthrough"/></g></svg>