<svg xmlns="http://www.w3.org/2000/svg" xmlns:xlink="http://www.w3.org/1999/xlink" fill="none" version="1.1" width="50" height="49.88037109375" viewBox="0 0 50 49.88037109375"><defs><clipPath id="master_svg0_247_42162"><rect x="12" y="11.11962890625" width="26" height="26" rx="0"/></clipPath></defs><path d="M0 8C4.90527396329193e-16 3.5817220013536524 3.5817220013536533 0 8 0L42.000003814697266 0C46.41828181334361 0 50.000003814697266 3.5817220013536533 50.000003814697266 8L50.000003814697266 41.760765075683594C50.000003814697266 46.17904307432994 46.41828181334361 49.760765075683594 42.000003814697266 49.760765075683594L8 49.760765075683594C3.5817220013536533 49.760765075683594 0 46.17904307432994 0 41.760765075683594Z" fill="#EBF0FF" fill-opacity="1"/><g clip-path="url(#master_svg0_247_42162)"></g><path d="M33.59723284375,26.83658490625L29.03075384375,26.83658490625C28.27155384375,26.83658490625,27.49737884375,25.92762590625,27.49737884375,25.00499090625C27.49737884375,24.26409490625,27.74183184375,23.76463590625,28.381950843749998,23.39070390625C30.56527484375,22.16990090625,31.61390284375,20.14699940625,31.61442384375,17.73617740625C31.61515384375,15.01788000625,30.06576184375,12.53238590625,27.51781584375,11.58505084625C22.81218334375,9.83525240625,18.38527154375,13.267769306249999,18.38527154375,17.73420140625C18.38527154375,20.15537170625,19.72479054375,22.31144490625,21.64109234375,23.40344390625C22.29161264375,23.799475906250002,22.50226404375,24.26877590625,22.50226404375,25.00499090625C22.50226404375,25.92762590625,21.68716434375,26.83658490625,20.96909804375,26.83658490625L16.40251324375,26.83658490625C14.82618674375,26.83658490625,13.54833984375,28.11443290625,13.54833984375,29.69075790625L13.54833984375,32.58003190625L36.45187784375,32.58003190625L36.45187784375,29.69070590625C36.45156284375,28.11448490625,35.17376884375,26.83658490625,33.59723284375,26.83658490625ZM13.54833984375,34.151107906250004L36.45187784375,34.151107906250004L36.45187784375,37.11962890625L13.54833984375,37.11962890625L13.54833984375,34.151107906250004Z" fill="#678FFF" fill-opacity="1" style="mix-blend-mode:passthrough"/></svg>