<svg xmlns="http://www.w3.org/2000/svg" xmlns:xlink="http://www.w3.org/1999/xlink" fill="none" version="1.1" width="50" height="49.88037109375" viewBox="0 0 50 49.88037109375"><path d="M0 8C4.90527396329193e-16 3.5817220013536524 3.5817220013536533 0 8 0L42.000003814697266 0C46.41828181334361 0 50.000003814697266 3.5817220013536533 50.000003814697266 8L50.000003814697266 41.760765075683594C50.000003814697266 46.17904307432994 46.41828181334361 49.760765075683594 42.000003814697266 49.760765075683594L8 49.760765075683594C3.5817220013536533 49.760765075683594 0 46.17904307432994 0 41.760765075683594Z" fill="#EBF0FF" fill-opacity="1"/><path d="M16.4819474,22.08600140625L19.1718588,22.08600140625C19.667058,22.08600140625,20.0684958,22.487438206249998,20.0684958,22.98263740625L20.0684958,31.94901090625C20.0684958,32.444209906249995,19.667058,32.84564590625,19.1718588,32.84564590625L16.4819474,32.84564590625C15.986748,32.84564590625,15.5853102,32.444209906249995,15.5853102,31.94901090625L15.5853102,22.98263840625C15.5853102,22.48743910625,15.986748,22.08600140625,16.4819474,22.08600140625ZM23.655045,13.11962890625L26.344957,13.11962890625C26.840156999999998,13.119628806410155,27.241595,13.52106714625,27.241594,14.01626616625L27.241594,31.94901090625C27.241595,32.444209906249995,26.840156999999998,32.84564590625,26.344957,32.84564590625L23.655045,32.84564590625C23.159845,32.84564590625,22.758408,32.444209906249995,22.758408,31.94901090625L22.758408,14.01626616625C22.758408,13.52106714625,23.159845,13.11962910592969,23.655045,13.11962890625ZM30.828142,18.49945210625L33.518052999999995,18.49945210625C34.013252,18.49945160625,34.414692,18.90088990625,34.414692,19.39608950625L34.414692,31.94901090625C34.414696,32.444209906249995,34.013256,32.84564590625,33.518052999999995,32.84564590625L30.828142,32.84564590625C30.332943,32.84564590625,29.931505,32.444209906249995,29.931505,31.94901090625L29.931505,19.39608950625C29.931505,18.90089080625,30.332943,18.49945260625,30.828142,18.49945210625ZM12.89539886,33.74228490625L37.104601,33.74228490625C37.599318,33.742969906249996,38,34.144206906250005,38,34.63892390625C38,35.133636906250004,37.599316,35.53487590625,37.104601,35.53555890625L12.89539886,35.53555890625C12.40068406,35.53487590625,12,35.133636906250004,12,34.63892390625C12,34.144206906250005,12.40068364,33.742969906249996,12.89539886,33.74228490625Z" fill="#678FFF" fill-opacity="1" style="mix-blend-mode:passthrough"/></svg>