<svg xmlns="http://www.w3.org/2000/svg" xmlns:xlink="http://www.w3.org/1999/xlink" fill="none" version="1.1" width="12.00048828125" height="12.000732421875" viewBox="0 0 12.00048828125 12.000732421875"><g><g><path d="M6.00033,12.000661C2.6610143,12.000661,0,9.3396463,0,6.0003304C0,2.6610141,2.6610143,0,6.00033,0C7.1405835,0,8.2808247,0.30890748,9.2676525,0.97786838L8.595767,1.5900296C7.8099594,1.1478008,6.9051499,0.8870129,6.00033,0.8870129C3.1306047,0.8870129,0.83483207,3.1827857,0.83483207,6.0525107C0.83483207,8.9222364,3.1306047,11.218009,6.00033,11.218009L6.00033,12.000661ZM8.595767,1.5900296L7.878418,2.243613L10.122023,2.3479621L10.226372,0.10437012L9.2676525,0.97786838C9.2742643,0.98235023,9.2808685,0.98684824,9.287466,0.99136239L8.8178759,1.7218326C8.744998,1.6762847,8.670927,1.6323272,8.595767,1.5900296ZM2.3476562,5.9482336C2.3476562,3.808991,4.069489,2.0871582,6.208744,2.0871582C8.3479862,2.0871582,10.069819,3.8089788,10.069819,5.9482336C10.069819,8.0874882,8.3479862,9.8093214,6.208744,9.8093214C4.069489,9.8093214,2.3476562,8.0874767,2.3476562,5.9482336ZM10.852749,4.0175576C10.800568,3.8088465,10.435339,3.3392558,10.278809,3.2349064L10.957098,2.7131348C11.21799,2.8696651,11.531051,3.495786,11.58322,3.7566657L10.852749,4.0175576ZM8.6614323,6.8873997L5.5830078,6.8873997L5.5830078,3.5480957L6.4178276,3.5480957L6.4178276,6.0525799L8.6614323,6.0525799L8.6614323,6.8873997ZM11.165873,6.1047244L12.000705,6.1047244L12.000705,6.0003748C12.000705,5.6351337,11.948524,5.2699041,11.896343,4.9046631L11.061523,5.0611935C11.113692,5.3742537,11.165873,5.6873145,11.165873,6.0003748L11.165873,6.1047244ZM11.47894,8.5047846L10.696289,8.1395435C10.852819,7.8264828,10.957169,7.4612541,11.06153,7.1481934L11.89635,7.3568921C11.792001,7.7221336,11.63547,8.1395435,11.47894,8.5047846ZM9.4438477,9.8615084L10.017788,10.48763C10.330849,10.22675,10.591741,9.9136896,10.85262,9.6006289L10.174318,9.0788574C9.9656191,9.3397493,9.7047272,9.6006289,9.4438477,9.8615084ZM7.8785553,11.739791L7.6176758,10.904971C7.9307361,10.80061,8.2959652,10.644079,8.5568571,10.487549L8.974267,11.218031C8.6612072,11.42673,8.2959652,11.583261,7.8785553,11.739791ZM6.0004883,12.000782L6.0004883,11.165951C6.2091994,11.165951,6.4178982,11.165951,6.5744286,11.11377L6.6787901,11.948602C6.4700789,12.000782,6.2091994,12.000782,6.0004883,12.000782Z" fill-rule="evenodd" fill="#FF3030" fill-opacity="1"/></g></g></svg>