<?xml version="1.0" encoding="UTF-8"?>
<svg width="19px" height="18px" viewBox="0 0 19 18" version="1.1" xmlns="http://www.w3.org/2000/svg" xmlns:xlink="http://www.w3.org/1999/xlink">
    <title>编组</title>
    <g id="页面-3" stroke="none" stroke-width="1" fill="none" fill-rule="evenodd">
        <g id="BI-商品全景分析-切换弹窗" transform="translate(-1849.000000, -742.000000)" fill="#999999" fill-rule="nonzero">
            <g id="编组-89" transform="translate(1731.500000, 737.000000)">
                <g id="编组" transform="translate(118.000000, 5.000000)">
                    <path d="M17.4903835,17.1183849 L0.550471867,17.1183849 C0.268785091,17.1183849 0.0408553339,16.8904551 0.0408553339,16.6087684 C0.0408553339,16.3270816 0.268785091,16.0991518 0.550471867,16.0991518 L17.4903835,16.0991518 C17.7720702,16.0991518 18,16.3270816 18,16.6087684 C18,16.8904551 17.7720702,17.1183849 17.4903835,17.1183849 Z" id="路径"></path>
                    <path d="M5.0445586,17.1183849 L3.67698005,17.1183849 C3.0576992,17.1183849 2.55453351,16.6152192 2.55453351,15.9959384 L2.55453351,8.08935611 C2.55453351,7.47007526 3.0576992,6.96690957 3.67698005,6.96690957 L5.0445586,6.96690957 C5.66383945,6.96690957 6.16700514,7.47007526 6.16700514,8.08935611 L6.16700514,15.9959384 C6.16700514,16.6152192 5.66383945,17.1183849 5.0445586,17.1183849 Z M3.67698005,7.98829292 C3.62107275,7.98829292 3.57591686,8.03559909 3.57591686,8.08935611 L3.57591686,15.9959384 C3.57591686,16.0518457 3.62322303,16.0970016 3.67698005,16.0970016 L5.0445586,16.0970016 C5.10046589,16.0970016 5.14562179,16.0496954 5.14562179,15.9959384 L5.14562179,8.08935611 C5.14562179,8.03344881 5.09831561,7.98829292 5.0445586,7.98829292 L3.67698005,7.98829292 Z M10.2976944,17.1183849 L8.93011588,17.1183849 C8.31083503,17.1183849 7.80766933,16.6152192 7.80766933,15.9959384 L7.80766933,1.55465297 C7.80766933,0.935372118 8.31083503,0.432206427 8.93011588,0.432206427 L10.2976944,0.432206427 C10.9169753,0.432206427 11.420141,0.935372118 11.420141,1.55465297 L11.420141,15.9980886 C11.420141,16.6152192 10.914825,17.1183849 10.2976944,17.1183849 L10.2976944,17.1183849 Z M8.93011588,1.45143949 C8.87420858,1.45143949 8.82905268,1.49874567 8.82905268,1.55250269 L8.82905268,15.9959384 C8.82905268,16.0518457 8.87635886,16.0970016 8.93011588,16.0970016 L10.2976944,16.0970016 C10.3536017,16.0970016 10.3987576,16.0496954 10.3987576,15.9959384 L10.3987576,1.55465297 C10.3987576,1.49874567 10.3514514,1.45358977 10.2976944,1.45358977 L8.93011588,1.45358977 L8.93011588,1.45143949 Z M15.5078246,17.1183849 L14.1402461,17.1183849 C13.5209652,17.1183849 13.0177995,16.6152192 13.0177995,15.9959384 L13.0177995,4.16509378 C13.0177995,3.54581293 13.5209652,3.04264723 14.1402461,3.04264723 L15.5078246,3.04264723 C16.1271055,3.04264723 16.6302712,3.54581293 16.6302712,4.16509378 L16.6302712,15.9959384 C16.6302712,16.6152192 16.1271055,17.1183849 15.5078246,17.1183849 L15.5078246,17.1183849 Z M14.1402461,4.06403058 C14.0843388,4.06403058 14.0391829,4.11133676 14.0391829,4.16509378 L14.0391829,15.9959384 C14.0391829,16.0518457 14.0864891,16.0970016 14.1402461,16.0970016 L15.5078246,16.0970016 C15.5637319,16.0970016 15.6088878,16.0496954 15.6088878,15.9959384 L15.6088878,4.16509378 C15.6088878,4.10918648 15.5615817,4.06403058 15.5078246,4.06403058 L14.1402461,4.06403058 Z M0.537570183,17.0538765 C0.240831442,17.0538765 -3.12907029e-15,16.813045 -3.12907029e-15,16.5163063 L-3.12907029e-15,0.537570183 C-3.12907029e-15,0.240831442 0.240831442,0 0.537570183,0 C0.834308924,0 1.07514037,0.240831442 1.07514037,0.537570183 L1.07514037,16.5163063 C1.07514037,16.813045 0.834308924,17.0538765 0.537570183,17.0538765 L0.537570183,17.0538765 Z" id="形状"></path>
                </g>
            </g>
        </g>
    </g>
</svg>