<svg xmlns="http://www.w3.org/2000/svg" xmlns:xlink="http://www.w3.org/1999/xlink" fill="none" version="1.1" width="32" height="32" viewBox="0 0 32 32"><defs><clipPath id="master_svg0_976_65130"><rect x="0" y="0" width="32" height="32" rx="0"/></clipPath></defs><g clip-path="url(#master_svg0_976_65130)"><g><path d="M4.22289755625,0C2.78289755625,0,1.60009765625,1.1000001,1.60009765625,2.5L1.60009765625,29.450003C1.60009765625,30.849998,2.78289755625,32,4.22289755625,32L27.77729465625,32C29.21729665625,32,30.40009665625,30.849998,30.40009665625,29.450003L30.40009665625,10.316401L20.68009765625,0L4.22289755625,0Z" fill="#EAA72C" fill-opacity="1" style="mix-blend-mode:passthrough"/></g><g><path d="M20.03271484375,0L20.03271484375,7.3840008C20.03271484375,8.1928015,20.59551519375,10.3172,23.15391374375,10.3172L29.70751194375,10.3172L20.03271484375,0Z" fill="#FFFFFF" fill-opacity="1" style="mix-blend-mode:passthrough"/></g><g><path d="M9.7598827125,1.910400390625L12.6398826125,1.910400390625L12.6398826125,3.777600690625L9.7598827125,3.777600690625L9.7598827125,1.910400390625ZM6.8798828125,3.777600690625L9.7598827125,3.777600690625L9.7598827125,5.6444005906250005L6.8798828125,5.6444005906250005L6.8798828125,3.777600690625ZM9.7598827125,5.6444005906250005L12.6398826125,5.6444005906250005L12.6398826125,7.511600990625L9.7598827125,7.511600990625L9.7598827125,5.644000790625L9.7598827125,5.6444005906250005ZM6.8798828125,7.511600990625L9.7598827125,7.511600990625L9.7598827125,9.378400790625001L6.8798828125,9.378400790625001L6.8798828125,7.512000090625L6.8798828125,7.511600990625ZM9.7598827125,9.378400790625001L12.6398826125,9.378400790625001L12.6398826125,11.245599790625L9.7598827125,11.245599790625L9.7598827125,9.378400790625001ZM6.8798828125,11.245599790625L9.7598827125,11.245599790625L9.7598827125,13.112798390625L6.8798828125,13.112798390625L6.8798828125,11.245599790625ZM9.7598827125,13.112798390625L9.7598827125,14.979599390625L6.8798828125,14.979599390625L6.8798828125,21.514398390625C6.8798828125,22.029598390625,7.3098828225,22.447599390625,7.8398827925,22.447599390625L11.6798830125,22.447599390625C12.2098832125,22.447599390625,12.6398826125,22.029598390625,12.6398826125,21.514398390625L12.6398826125,13.112798390625L9.7598827125,13.112798390625ZM11.6798830125,20.580799390625L7.8398827925,20.580799390625L7.8398827925,18.713600390625L11.6798830125,18.713600390625L11.6798830125,20.580799390625Z" fill="#FFFFFF" fill-opacity="1" style="mix-blend-mode:passthrough"/></g></g></svg>