<svg xmlns="http://www.w3.org/2000/svg" xmlns:xlink="http://www.w3.org/1999/xlink" fill="none" version="1.1" width="14.000049591064453" height="16" viewBox="0 0 14.000049591064453 16"><g><g><path d="M1.275,0C0.57499999,0,0,0.57499999,0,1.275L0,14.725C0,15.425,0.57499999,15.999999,1.275,15.999999L12.725,15.999999C13.424999,15.999999,14,15.425,14,14.725L14,5.0749998L9.2749996,0L1.275,0Z" fill="#E34221" fill-opacity="1"/></g><g><path d="M14.000050059374999,5.1000243140625L14.000050059374999,5.3500244140625L10.800050259375,5.3500244140625C10.800050259375,5.3500244140625,9.225050361375,5.0250244140625,9.250050359955,3.6500244140625C9.250050359955,3.6500244140625,9.325050361375,5.1000243140625,10.775050259375,5.1000243140625L14.000050059374999,5.1000243140625Z" fill="#DC3119" fill-opacity="1"/></g><g><path d="M9.27490234375,0L9.27490234375,3.6500001C9.27490234375,4.0500002,9.54990235375,5.0999999,10.79990234375,5.0999999L13.99990224375,5.0999999L9.27490234375,0Z" fill="#EEAA9C" fill-opacity="1"/></g><g><path d="M3.749985928671265,12.249993133544923L2.8999860286712646,12.249993133544923L2.8999860286712646,13.299993033544922C2.8999860286712646,13.399992933544922,2.8249860086712646,13.474993233544922,2.724986028671265,13.474993233544922C2.6249860286712647,13.474993233544922,2.5249860286712646,13.399992933544922,2.5249860286712646,13.299993033544922L2.5249860286712646,10.724993143544921C2.5249860286712646,10.574993123544921,2.6499860186712647,10.449993133544922,2.7999860386712645,10.449993133544922L3.749985928671265,10.449993133544922C4.349986028671265,10.449993133544922,4.674986128671264,10.849993143544921,4.674986128671264,11.349993113544922C4.674986128671264,11.849993133544922,4.3249860286712645,12.249993133544923,3.749985928671265,12.249993133544923ZM6.499888428671264,12.249993133544923L5.649888228671265,12.249993133544923L5.649888228671265,13.299993033544922C5.649888228671265,13.399992933544922,5.574888428671265,13.474993233544922,5.474888328671264,13.474993233544922C5.374888428671264,13.474993233544922,5.299888328671265,13.399992933544922,5.299888328671265,13.299993033544922L5.299888328671265,10.724993143544921C5.299888328671265,10.574993123544921,5.399888228671265,10.449993133544922,5.549888328671265,10.449993133544922L6.499888428671264,10.449993133544922C7.099888528671265,10.449993133544922,7.424888328671265,10.849993143544921,7.424888328671265,11.349993113544922C7.424888328671265,11.849993133544922,7.099888528671265,12.249993133544923,6.499888428671264,12.249993133544923ZM9.975132728671266,10.774993123544922L9.150132428671265,10.774993123544922L9.150132428671265,13.299993033544922C9.150132428671265,13.399992933544922,9.075132628671264,13.474993233544922,8.975132728671266,13.474993233544922C8.875132328671263,13.474993233544922,8.775132428671265,13.399992933544922,8.775132428671265,13.299993033544922L8.775132428671265,10.774993123544922L7.975132728671265,10.774993123544922C7.875132328671264,10.774993123544922,7.800132528671265,10.699993123544921,7.800132528671265,10.599993123544921C7.800132528671265,10.524993129544923,7.875132328671264,10.449993133544922,7.975132728671265,10.449993133544922L9.975132728671266,10.449993133544922C10.075132628671264,10.449993133544922,10.150132428671265,10.524993129544923,10.150132428671265,10.624993133544923C10.150132428671265,10.699993123544921,10.075132628671264,10.774993123544922,9.975132728671266,10.774993123544922ZM2.8999860286712646,10.774944303544922L3.6999860286712645,10.774944303544922C4.049986028671265,10.774944303544922,4.299986028671265,10.999944333544923,4.299986028671265,11.349944293544922C4.299986028671265,11.674944233544922,4.049986028671265,11.924944233544922,3.6999860286712645,11.924944233544922L2.8999860286712646,11.924944233544922L2.8999860286712646,10.774944303544922ZM5.674888328671265,10.774944303544922L6.449888428671265,10.774944303544922C6.799888328671265,10.774944303544922,7.049888328671265,10.999944333544923,7.049888328671265,11.349944293544922C7.049888328671265,11.674944233544922,6.799888328671265,11.924944233544922,6.449888428671265,11.924944233544922L5.674888328671265,11.924944233544922L5.674888328671265,10.774944303544922Z" fill-rule="evenodd" fill="#FFFFFF" fill-opacity="1"/></g></g></svg>