<svg xmlns="http://www.w3.org/2000/svg" xmlns:xlink="http://www.w3.org/1999/xlink" fill="none" version="1.1" width="12" height="12" viewBox="0 0 12 12"><g><g><path d="M6,12C2.6865001,12,0,9.3138752,0,6C0,2.686125,2.6865001,0,6,0C9.3138752,0,12,2.686125,12,6C12,9.3138752,9.3138752,12,6,12L6,12Z" fill-rule="evenodd" fill="#5DB300" fill-opacity="1"/></g><g><path d="M8.9920893,5.00216532L8.9923477,5.00187838Q9.085372,4.89857528,9.1351943,4.76879507Q9.1850162,4.6390148700000005,9.1850162,4.5L9.18501,4.4968124721Q9.1849332,4.478788598,9.183990999999999,4.460789211Q9.1761909,4.31180878,9.1119728,4.17715359Q9.047754300000001,4.04249841,8.9368949,3.9426685Q8.8335924,3.84964454,8.7038131,3.79982257Q8.574033700000001,3.75000072,8.43502,3.75L8.431828,3.75000679Q8.4138041,3.75008339,8.3958049,3.75102574Q8.2468243,3.75882542,8.1121693,3.82304358Q7.9775147,3.88726175,7.8776851,3.9981218L5.4802409,6.6604602L4.30733114,5.35795546Q4.20066077,5.23949909,4.05503374,5.17466652Q3.90940669,5.10983396,3.749999991636054,5.10983396Q3.730812371,5.10983396,3.711649843,5.11081511Q3.58270219,5.11741728,3.46338567,5.1667594900000005Q3.34406915,5.21610171,3.24812156,5.30250281Q3.13726151,5.40233266,3.07304335,5.5369878Q3.00882518,5.6716428,3.00102568,5.820623Q3,5.8402151,3,5.859834Q3,5.8764151,3.00073284,5.8929806Q3.00649846,6.0233111,3.05593431,6.1440396Q3.10537016,6.2647680999999995,3.19266886,6.3617125L4.9229097,8.283128Q4.9491847,8.3123062,4.9783624,8.338580799999999Q5.0892226,8.4384108,5.2298471,8.4882169Q5.3704716999999995,8.538023500000001,5.519452,8.5302238Q5.6684322,8.5224247,5.8030872,8.4582062Q5.937742200000001,8.3939881,6.0375721,8.283128L8.9920893,5.00216532Z" fill-rule="evenodd" fill="#FFFFFF" fill-opacity="1"/></g></g></svg>