<svg xmlns="http://www.w3.org/2000/svg" xmlns:xlink="http://www.w3.org/1999/xlink" fill="none" version="1.1" width="32" height="32" viewBox="0 0 32 32"><defs><mask id="master_svg0_961_63339" style="mask-type:alpha" maskUnits="objectBoundingBox"><g><path d="M0 8C4.90527396329193e-16 3.5817220013536524 3.5817220013536533 0 8 0L24 0C28.418277998646346 0 32 3.5817220013536533 32 8L32 24C32 28.418277998646346 28.418277998646346 32 24 32L8 32C3.5817220013536533 32 0 28.418277998646346 0 24Z" fill="#FFFFFF" fill-opacity="1"/></g></mask><clipPath id="master_svg1_961_63688"><rect x="5" y="5" width="22" height="22.000001907348633" rx="0"/></clipPath></defs><g mask="url(#master_svg0_961_63339)"><g><path d="M0 8C4.90527396329193e-16 3.5817220013536524 3.5817220013536533 0 8 0L24 0C28.418277998646346 0 32 3.5817220013536533 32 8L32 24C32 28.418277998646346 28.418277998646346 32 24 32L8 32C3.5817220013536533 32 0 28.418277998646346 0 24Z" fill="#F8F8F9" fill-opacity="1"/><path d="M0.5 8.5C0.500000000000001 4.0817220013536515 4.081722001353653 0.5 8.5 0.5L23.5 0.5C27.918277998646346 0.5 31.5 4.081722001353653 31.5 8.5L31.5 23.5C31.5 27.918277998646346 27.918277998646346 31.5 23.5 31.5L8.5 31.5C4.081722001353653 31.5 0.5 27.918277998646346 0.5 23.5Z" fill-opacity="0" stroke-opacity="1" stroke="#E5E5E5" fill="none" stroke-width="1"/></g><g clip-path="url(#master_svg1_961_63688)"><g><path d="M17.925,11.5999994L17.925,5.6875L10.6375,5.6875C9.1250001,5.6875,7.75,6.9250001,7.75,8.575L7.75,23.425001C7.75,25.074999,8.9875001,26.312502,10.6375,26.312502L21.225,26.312502C22.875,26.312502,24.112501,25.074999,24.112501,23.425001L24.112501,12.9749994L19.3,12.9749994C18.6125,12.9749994,17.925,12.4250002,17.925,11.5999994ZM20.125,22.6L12.2874999,22.6C11.7374997,22.6,11.1875,22.050001,11.1875,21.5C11.1875,20.949999,11.7374997,20.400001,12.2874999,20.400001L20.125,20.400001C20.675,20.400001,21.225,20.949999,21.225,21.5C21.225,22.050001,20.8125,22.6,20.125,22.6ZM20.125,18.75L12.2874999,18.75C11.7374997,18.75,11.1875,18.199999,11.1875,17.650001C11.1875,17.099999,11.7374997,16.55,12.2874999,16.55L20.125,16.55C20.675,16.55,21.225,17.099999,21.225,17.650001C21.225,18.337501,20.8125,18.75,20.125,18.75Z" fill="#C7C7C7" fill-opacity="1" style="mix-blend-mode:passthrough"/></g><g><path d="M18.6123046875,5.6875L18.6123046875,10.6375003C18.6123046875,11.5999994,19.1623046375,12.2874994,19.9873047875,12.2874994L24.1123051875,12.2874994L18.6123046875,5.6875Z" fill="#C7C7C7" fill-opacity="1" style="mix-blend-mode:passthrough"/></g></g></g></svg>