<svg xmlns="http://www.w3.org/2000/svg" xmlns:xlink="http://www.w3.org/1999/xlink" fill="none" version="1.1" width="40" height="40" viewBox="0 0 40 40"><rect x="0" y="0" width="40" height="40" rx="6" fill="#FF5CA1" fill-opacity="1"/><path d="M28.857143,17.5873623C29,17.5873623,29.571428,17.444505200000002,29.571428,17.444505200000002L29.857143,19.5873623L29.285715,19.7302194C29.285715,19.444505200000002,28.857143,17.7302194,28.857143,17.5873623ZM30,17.3016481L30.285715,19.5873623L31.142857,19.5873623C31,18.7302194,30.714287,17.3016481,30.714287,17.3016481L30,17.3016481ZM29.428572,20.444505200000002C29.428572,20.444505200000002,30.714287,20.158791100000002,31.142857,20.3016481C31.428572,21.1587906,31.857143,26.015934,31.857143,26.158791C31.571428,26.158791,30.571428,26.301648,30.571428,26.301648C30.428572,26.015934,29.428572,20.7302194,29.428572,20.444505200000002ZM34.142857,17.5873623L34.857143,17.5873623C34.857143,17.7302194,35,19.7302194,34.857143,19.7302194L34.285714999999996,19.7302194C34.285714999999996,19.5873623,34.142857,17.7302194,34.142857,17.5873623ZM35.142857,17.5873623L35.142857,19.873076400000002L36,19.873076400000002L36,17.5873623C35.714287,17.5873623,35.428572,17.444505200000002,35.142857,17.5873623ZM34.285714999999996,20.5873623C34.285714999999996,20.5873623,35.571428,20.444505200000002,36,20.5873623C36.142857,21.587362300000002,36.142857,26.301648,36.142857,26.444505L34.857143,26.444505C34.857143,26.158791,34.285714999999996,20.7302194,34.285714999999996,20.5873623ZM31.285715,14.7302194C32,18.5873623,32.571428,25.301648,32.714287,25.73022L34,25.73022C33.428572,21.587362300000002,33,14.873076600000001,33,14.7302194C32.857143,14.4445051,31.285715,14.7302194,31.285715,14.7302194ZM29.571428,24.015934C29.428572,22.873076400000002,25.571428,21.7302198,23.285715,22.015934C23.285715,22.015934,23,19.5873623,22.857143,17.3016481C22.714285,15.301647899999999,22.857143,13.30164796,22.857143,13.015933665C22.714285,12.87307651,21.142857,13.73021936,20.285715,14.0159336C20.285715,14.0159336,21.285715,18.3016481,22,27.301648C22,27.301648,23.142857,27.444505,25.142857,27.015934C27.428572,26.587362,29.714287,25.444505,29.571428,24.015934ZM24.857143,25.873075999999998L24.428572,23.444505C24.571428,23.444505,26.571428,24.158791,26.857143,24.301648C26.857143,24.444505,24.857143,25.873075999999998,24.857143,25.873075999999998ZM12.5714283,17.5873623C12.7142859,17.5873623,13.2857141,17.444505200000002,13.2857141,17.444505200000002L13.5714283,19.5873623C13.4285717,19.5873623,13,19.7302194,13,19.7302194C13,19.444505200000002,12.5714283,17.7302194,12.5714283,17.5873623ZM13.7142859,17.3016481L14,19.5873623L14.857142,19.5873623C14.714286,18.7302194,14.571428,17.3016481,14.571428,17.3016481L13.7142859,17.3016481ZM13.1428576,20.444505200000002C13.1428576,20.444505200000002,14.428572,20.158791100000002,14.857142,20.3016481C15.142858,21.1587906,15.571428,26.015934,15.571428,26.158791C15.285714,26.158791,14.285714,26.301648,14.285714,26.301648C14.142858,26.015934,13.1428576,20.7302194,13.1428576,20.444505200000002ZM17.857143,17.5873623L18.571427999999997,17.5873623C18.571427999999997,17.7302194,18.714286,19.7302194,18.571427999999997,19.7302194L18,19.7302194C18,19.5873623,17.857143,17.7302194,17.857143,17.5873623ZM19,17.5873623L19,19.873076400000002L19.857143,19.873076400000002L19.857143,17.5873623C19.571427999999997,17.5873623,19.285714,17.444505200000002,19,17.5873623ZM18,20.5873623C18,20.5873623,19.285714,20.444505200000002,19.714286,20.5873623C19.857143,21.587362300000002,19.857143,26.301648,19.857143,26.444505L18.571427999999997,26.444505C18.571427999999997,26.158791,18,20.7302194,18,20.5873623ZM15,14.7302194C15.714286,18.5873623,16.285714,25.301648,16.428572000000003,25.73022L17.714286,25.73022C17.285714,21.587362300000002,16.857143,14.873076600000001,16.857143,14.5873623C16.571427999999997,14.4445051,15,14.7302194,15,14.7302194ZM13.2857141,24.015934C13.1428576,22.873076400000002,9.2857141,21.7302198,7,22.015934C7,22.015934,6.7142856,19.5873623,6.5714285,17.3016481C6.4285715,15.301647899999999,6.5714285,13.30164796,6.5714285,13.015933665C6.4285715,12.87307651,4.85714287,13.73021936,4,14.0159336C4,14.0159336,5,18.3016481,5.7142857,27.301648C5.7142857,27.301648,6.8571428999999995,27.444505,8.8571429,27.015934C10.8571429,26.587362,13.5714283,25.444505,13.2857141,24.015934ZM8.5714288,25.873075999999998L8.2857141,23.444505C8.4285712,23.444505,10.428571699999999,24.158791,10.7142859,24.301648C10.5714288,24.444505,8.5714288,25.873075999999998,8.5714288,25.873075999999998Z" fill="#FFFFFF" fill-opacity="1" style="mix-blend-mode:passthrough"/></svg>