<svg xmlns="http://www.w3.org/2000/svg" xmlns:xlink="http://www.w3.org/1999/xlink" fill="none" version="1.1" width="40" height="40" viewBox="0 0 40 40"><rect x="0" y="0" width="40" height="40" rx="6" fill="#00B51D" fill-opacity="1"/><path d="M32.744442,7L7.46799979,7C7.20953031,7,7,7.20953031,7,7.46799979L7,9.3402219C7,9.598666,7.20955573,9.8082216,7.46799979,9.8082216L32.744445999999996,9.8082216C33.002916,9.8082216,33.212446,9.598691200000001,33.212446,9.3402219L33.212446,7.46799979C33.212441999999996,7.20953031,33.002913,7,32.744442,7ZM32.744442,30.857998L26.284664,30.857998L28.215553,24.750443L30.611776,24.750443C30.870247,24.750444,31.079777,24.540913,31.079777,24.282442L31.079777,12.9444447C31.079899,12.685925000000001,30.870296,12.4763217,30.611776,12.4764438L9.6006649,12.4764438C9.3421953,12.4764423,9.1326642,12.6859741,9.1326649,12.9444447L9.1326649,24.282444C9.1326649,24.540888,9.3419986,24.750444,9.6006649,24.750444L24.419333,24.750444L22.48822,30.857998L17.148220000000002,30.857998L15.7322197,26.379999C15.6506643,26.121332,15.3748856,25.911997,15.1164427,25.911997L12.255332899999999,25.911997C11.9968891,25.911997,11.853555700000001,26.121332,11.9355555,26.379999L13.3513327,30.857998L7.46799979,30.857998C7.20953031,30.857998,7,31.06753,7,31.325998L7,33.198442C7,33.456886,7.20955573,33.666443,7.46799979,33.666443L32.744445999999996,33.666443C33.002916,33.666443,33.212446,33.456913,33.212446,33.198442L33.212446,31.325998C33.212446,31.06753,33.002916,30.857998,32.744442,30.857998ZM13.579109200000001,21.343778L13.579109200000001,15.8826666C13.579109200000001,15.6242218,13.7884431,15.4146662,14.047110100000001,15.4146662L26.16511,15.4146662C26.423553,15.4146662,26.633108,15.624444,26.633108,15.8826666L26.633108,21.343778C26.633108,21.602246,26.423578,21.811776000000002,26.165108,21.811778L14.0471115,21.811778C13.7886415,21.811776000000002,13.5791111,21.602246,13.579109200000001,21.343778Z" fill="#FFFFFF" fill-opacity="1" style="mix-blend-mode:passthrough"/></svg>