<svg xmlns="http://www.w3.org/2000/svg" xmlns:xlink="http://www.w3.org/1999/xlink" fill="none" version="1.1" width="40" height="40" viewBox="0 0 40 40"><defs><clipPath id="master_svg0_1_0895"><rect x="0" y="0" width="40" height="40" rx="0"/></clipPath></defs><g clip-path="url(#master_svg0_1_0895)"><g><path d="M5,0L35,0Q40,0,40,5L40,35Q40,40,35,40L5,40Q0,40,0,35L0,5Q0,0,5,0Z" fill="#F53415" fill-opacity="1" style="mix-blend-mode:passthrough"/></g><g><path d="M18.40833220703125,7.8583251953125L16.95001220703125,11.516685195312501L21.33333220703125,15.9083251953125L27.91671220703125,15.9083251953125L30.41671220703125,13.7833251953125Q30.79171220703125,13.0833251953125,31.12501220703125,12.300005195312501L30.61671220703125,10.0750051953125L30.15831220703125,9.7833251953125L25.566692207031252,9.3250051953125L23.33333220703125,6.5333251953125L18.40833220703125,7.8583251953125Z" fill="#414141" fill-opacity="1" style="mix-blend-mode:passthrough"/></g><g><path d="M25.5999755859375,6.058349609375L31.166655585937498,6.058349609375L31.166655585937498,6.075029409375L25.5999755859375,6.075029409375L25.5999755859375,6.058349609375Z" fill="#A6A6A7" fill-opacity="1" style="mix-blend-mode:passthrough"/></g><g><path d="M25.5999755859375,6.07501220703125L31.166655585937498,6.07501220703125L31.166655585937498,6.09169200703125L25.5999755859375,6.09169200703125L25.5999755859375,6.07501220703125Z" fill="#A5A5A6" fill-opacity="1" style="mix-blend-mode:passthrough"/></g><g><path d="M25.5999755859375,6.0916748046875L31.166655585937498,6.0916748046875L31.166655585937498,6.1083153046875L25.5999755859375,6.1083153046875L25.5999755859375,6.0916748046875Z" fill="#A4A4A5" fill-opacity="1" style="mix-blend-mode:passthrough"/></g><g><path d="M25.5999755859375,6.10833740234375L31.166655585937498,6.10833740234375L31.166655585937498,6.12501720234375L25.5999755859375,6.12501720234375L25.5999755859375,6.10833740234375Z" fill="#A3A3A4" fill-opacity="1" style="mix-blend-mode:passthrough"/></g><g><path d="M25.5999755859375,6.125L31.166655585937498,6.125L31.166655585937498,6.1416798L25.5999755859375,6.1416798L25.5999755859375,6.125Z" fill="#A2A2A3" fill-opacity="1" style="mix-blend-mode:passthrough"/></g><g><path d="M25.5999755859375,6.14166259765625L31.166655585937498,6.14166259765625L31.166655585937498,6.15830309765625L25.5999755859375,6.15830309765625L25.5999755859375,6.14166259765625Z" fill="#A1A1A2" fill-opacity="1" style="mix-blend-mode:passthrough"/></g><g><path d="M25.5999755859375,6.1583251953125L31.166655585937498,6.1583251953125L31.166655585937498,6.1750049953125L25.5999755859375,6.1750049953125L25.5999755859375,6.1583251953125Z" fill="#A0A0A1" fill-opacity="1" style="mix-blend-mode:passthrough"/></g><g><path d="M25.5999755859375,6.17498779296875L31.166655585937498,6.17498779296875L31.166655585937498,6.19166759296875L25.5999755859375,6.19166759296875L25.5999755859375,6.17498779296875Z" fill="#9F9FA0" fill-opacity="1" style="mix-blend-mode:passthrough"/></g><g><path d="M25.5999755859375,6.191650390625L31.166655585937498,6.191650390625L31.166655585937498,6.208290890625L25.5999755859375,6.208290890625L25.5999755859375,6.191650390625Z" fill="#9E9E9F" fill-opacity="1" style="mix-blend-mode:passthrough"/></g><g><path d="M25.5999755859375,6.20831298828125L31.166655585937498,6.20831298828125L31.166655585937498,6.22499278828125L25.5999755859375,6.22499278828125L25.5999755859375,6.20831298828125Z" fill="#9D9D9E" fill-opacity="1" style="mix-blend-mode:passthrough"/></g><g><path d="M25.5999755859375,6.2249755859375L31.166655585937498,6.2249755859375L31.166655585937498,6.2416553859375L25.5999755859375,6.2416553859375L25.5999755859375,6.2249755859375Z" fill="#9C9C9D" fill-opacity="1" style="mix-blend-mode:passthrough"/></g><g><path d="M25.5999755859375,6.24169921875L31.166655585937498,6.24169921875L31.166655585937498,6.25833971875L25.5999755859375,6.25833971875L25.5999755859375,6.24169921875Z" fill="#9B9B9C" fill-opacity="1" style="mix-blend-mode:passthrough"/></g><g><path d="M25.5999755859375,6.25L31.166655585937498,6.25L31.166655585937498,6.2666798L25.5999755859375,6.2666798L25.5999755859375,6.25Z" fill="#9A9A9B" fill-opacity="1" style="mix-blend-mode:passthrough"/></g><g><path d="M25.5999755859375,6.26666259765625L31.166655585937498,6.26666259765625L31.166655585937498,6.28330309765625L25.5999755859375,6.28330309765625L25.5999755859375,6.26666259765625Z" fill="#99999A" fill-opacity="1" style="mix-blend-mode:passthrough"/></g><g><path d="M25.5999755859375,6.2833251953125L31.166655585937498,6.2833251953125L31.166655585937498,6.3000049953125L25.5999755859375,6.3000049953125L25.5999755859375,6.2833251953125Z" fill="#989899" fill-opacity="1" style="mix-blend-mode:passthrough"/></g><g><path d="M25.5999755859375,6.29998779296875L31.166655585937498,6.29998779296875L31.166655585937498,6.31666759296875L25.5999755859375,6.31666759296875L25.5999755859375,6.29998779296875Z" fill="#979798" fill-opacity="1" style="mix-blend-mode:passthrough"/></g><g><path d="M25.5999755859375,6.316650390625L31.166655585937498,6.316650390625L31.166655585937498,6.333290890625L25.5999755859375,6.333290890625L25.5999755859375,6.316650390625Z" fill="#969697" fill-opacity="1" style="mix-blend-mode:passthrough"/></g><g><path d="M25.5999755859375,6.33331298828125L31.166655585937498,6.33331298828125L31.166655585937498,6.34999278828125L25.5999755859375,6.34999278828125L25.5999755859375,6.33331298828125Z" fill="#969596" fill-opacity="1" style="mix-blend-mode:passthrough"/></g><g><path d="M25.5999755859375,6.3499755859375L31.166655585937498,6.3499755859375L31.166655585937498,6.3666553859375L25.5999755859375,6.3666553859375L25.5999755859375,6.3499755859375Z" fill="#959495" fill-opacity="1" style="mix-blend-mode:passthrough"/></g><g><path d="M25.5999755859375,6.36669921875L31.166655585937498,6.36669921875L31.166655585937498,6.38333971875L25.5999755859375,6.38333971875L25.5999755859375,6.36669921875Z" fill="#949394" fill-opacity="1" style="mix-blend-mode:passthrough"/></g><g><path d="M25.5999755859375,6.38330078125L31.166655585937498,6.38330078125L31.166655585937498,6.39998058125L25.5999755859375,6.39998058125L25.5999755859375,6.38330078125Z" fill="#939293" fill-opacity="1" style="mix-blend-mode:passthrough"/></g><g><path d="M25.5999755859375,6.4000244140625L31.166655585937498,6.4000244140625L31.166655585937498,6.4167038140625L25.5999755859375,6.4167038140625L25.5999755859375,6.4000244140625Z" fill="#929192" fill-opacity="1" style="mix-blend-mode:passthrough"/></g><g><path d="M25.5999755859375,6.41668701171875L31.166655585937498,6.41668701171875L31.166655585937498,6.43332751171875L25.5999755859375,6.43332751171875L25.5999755859375,6.41668701171875Z" fill="#919091" fill-opacity="1" style="mix-blend-mode:passthrough"/></g><g><path d="M25.5999755859375,6.433349609375L31.166655585937498,6.433349609375L31.166655585937498,6.450029009375L25.5999755859375,6.450029009375L25.5999755859375,6.433349609375Z" fill="#908F90" fill-opacity="1" style="mix-blend-mode:passthrough"/></g><g><path d="M25.5999755859375,6.45001220703125L31.166655585937498,6.45001220703125L31.166655585937498,6.46669160703125L25.5999755859375,6.46669160703125L25.5999755859375,6.45001220703125Z" fill="#8F8E8F" fill-opacity="1" style="mix-blend-mode:passthrough"/></g><g><path d="M25.5999755859375,6.4666748046875L31.166655585937498,6.4666748046875L31.166655585937498,6.4833153046875L25.5999755859375,6.4833153046875L25.5999755859375,6.4666748046875Z" fill="#8E8D8E" fill-opacity="1" style="mix-blend-mode:passthrough"/></g><g><path d="M25.5999755859375,6.48333740234375L31.166655585937498,6.48333740234375L31.166655585937498,6.50001680234375L25.5999755859375,6.50001680234375L25.5999755859375,6.48333740234375Z" fill="#8D8C8D" fill-opacity="1" style="mix-blend-mode:passthrough"/></g><g><path d="M25.5999755859375,6.5L31.166655585937498,6.5L31.166655585937498,6.5166794L25.5999755859375,6.5166794L25.5999755859375,6.5Z" fill="#8C8B8C" fill-opacity="1" style="mix-blend-mode:passthrough"/></g><g><path d="M25.5999755859375,6.51666259765625L31.166655585937498,6.51666259765625L31.166655585937498,6.53330309765625L25.5999755859375,6.53330309765625L25.5999755859375,6.51666259765625Z" fill="#8B8A8B" fill-opacity="1" style="mix-blend-mode:passthrough"/></g><g><path d="M25.5999755859375,6.5250244140625L31.166655585937498,6.5250244140625L31.166655585937498,6.5417038140625L25.5999755859375,6.5417038140625L25.5999755859375,6.5250244140625Z" fill="#8A898A" fill-opacity="1" style="mix-blend-mode:passthrough"/></g><g><path d="M25.5999755859375,6.54168701171875L31.166655585937498,6.54168701171875L31.166655585937498,6.55832751171875L25.5999755859375,6.55832751171875L25.5999755859375,6.54168701171875Z" fill="#898889" fill-opacity="1" style="mix-blend-mode:passthrough"/></g><g><path d="M25.5999755859375,6.558349609375L31.166655585937498,6.558349609375L31.166655585937498,6.575029009375L25.5999755859375,6.575029009375L25.5999755859375,6.558349609375Z" fill="#888788" fill-opacity="1" style="mix-blend-mode:passthrough"/></g><g><path d="M25.5999755859375,6.57501220703125L31.166655585937498,6.57501220703125L31.166655585937498,6.59169160703125L25.5999755859375,6.59169160703125L25.5999755859375,6.57501220703125Z" fill="#878687" fill-opacity="1" style="mix-blend-mode:passthrough"/></g><g><path d="M25.5999755859375,6.5916748046875L31.166655585937498,6.5916748046875L31.166655585937498,6.6083153046875L25.5999755859375,6.6083153046875L25.5999755859375,6.5916748046875Z" fill="#868586" fill-opacity="1" style="mix-blend-mode:passthrough"/></g><g><path d="M25.5999755859375,6.60833740234375L31.166655585937498,6.60833740234375L31.166655585937498,6.62501680234375L25.5999755859375,6.62501680234375L25.5999755859375,6.60833740234375Z" fill="#858485" fill-opacity="1" style="mix-blend-mode:passthrough"/></g><g><path d="M25.5999755859375,6.625L31.166655585937498,6.625L31.166655585937498,6.6416794L25.5999755859375,6.6416794L25.5999755859375,6.625Z" fill="#848384" fill-opacity="1" style="mix-blend-mode:passthrough"/></g><g><path d="M25.5999755859375,6.64166259765625L31.166655585937498,6.64166259765625L31.166655585937498,6.65830309765625L25.5999755859375,6.65830309765625L25.5999755859375,6.64166259765625Z" fill="#838283" fill-opacity="1" style="mix-blend-mode:passthrough"/></g><g><path d="M25.5999755859375,6.6583251953125L31.166655585937498,6.6583251953125L31.166655585937498,6.6750045953125L25.5999755859375,6.6750045953125L25.5999755859375,6.6583251953125Z" fill="#828182" fill-opacity="1" style="mix-blend-mode:passthrough"/></g><g><path d="M25.5999755859375,6.67498779296875L31.166655585937498,6.67498779296875L31.166655585937498,6.69166719296875L25.5999755859375,6.69166719296875L25.5999755859375,6.67498779296875Z" fill="#818081" fill-opacity="1" style="mix-blend-mode:passthrough"/></g><g><path d="M25.5999755859375,6.691650390625L31.166655585937498,6.691650390625L31.166655585937498,6.708290890625L25.5999755859375,6.708290890625L25.5999755859375,6.691650390625Z" fill="#807F80" fill-opacity="1" style="mix-blend-mode:passthrough"/></g><g><path d="M25.5999755859375,6.70831298828125L31.166655585937498,6.70831298828125L31.166655585937498,6.72499238828125L25.5999755859375,6.72499238828125L25.5999755859375,6.70831298828125Z" fill="#7F7E7F" fill-opacity="1" style="mix-blend-mode:passthrough"/></g><g><path d="M25.5999755859375,6.7249755859375L31.166655585937498,6.7249755859375L31.166655585937498,6.7416549859375L25.5999755859375,6.7416549859375L25.5999755859375,6.7249755859375Z" fill="#7E7D7E" fill-opacity="1" style="mix-blend-mode:passthrough"/></g><g><path d="M25.5999755859375,6.74169921875L31.166655585937498,6.74169921875L31.166655585937498,6.75833971875L25.5999755859375,6.75833971875L25.5999755859375,6.74169921875Z" fill="#7D7C7D" fill-opacity="1" style="mix-blend-mode:passthrough"/></g><g><path d="M25.5999755859375,6.75830078125L31.166655585937498,6.75830078125L31.166655585937498,6.77498018125L25.5999755859375,6.77498018125L25.5999755859375,6.75830078125Z" fill="#7C7B7C" fill-opacity="1" style="mix-blend-mode:passthrough"/></g><g><path d="M25.5999755859375,6.7750244140625L31.166655585937498,6.7750244140625L31.166655585937498,6.7917038140625L25.5999755859375,6.7917038140625L25.5999755859375,6.7750244140625Z" fill="#7B7A7B" fill-opacity="1" style="mix-blend-mode:passthrough"/></g><g><path d="M25.5999755859375,6.7833251953125L31.166655585937498,6.7833251953125L31.166655585937498,6.8000045953125L25.5999755859375,6.8000045953125L25.5999755859375,6.7833251953125Z" fill="#7A797A" fill-opacity="1" style="mix-blend-mode:passthrough"/></g><g><path d="M25.5999755859375,6.79998779296875L31.166655585937498,6.79998779296875L31.166655585937498,6.81666719296875L25.5999755859375,6.81666719296875L25.5999755859375,6.79998779296875Z" fill="#797879" fill-opacity="1" style="mix-blend-mode:passthrough"/></g><g><path d="M25.5999755859375,6.816650390625L31.166655585937498,6.816650390625L31.166655585937498,6.833290890625L25.5999755859375,6.833290890625L25.5999755859375,6.816650390625Z" fill="#787778" fill-opacity="1" style="mix-blend-mode:passthrough"/></g><g><path d="M25.5999755859375,6.83331298828125L31.166655585937498,6.83331298828125L31.166655585937498,6.84999238828125L25.5999755859375,6.84999238828125L25.5999755859375,6.83331298828125Z" fill="#777677" fill-opacity="1" style="mix-blend-mode:passthrough"/></g><g><path d="M25.5999755859375,6.8499755859375L31.166655585937498,6.8499755859375L31.166655585937498,6.8666549859375L25.5999755859375,6.8666549859375L25.5999755859375,6.8499755859375Z" fill="#767576" fill-opacity="1" style="mix-blend-mode:passthrough"/></g><g><path d="M25.5999755859375,6.86669921875L31.166655585937498,6.86669921875L31.166655585937498,6.88333971875L25.5999755859375,6.88333971875L25.5999755859375,6.86669921875Z" fill="#767475" fill-opacity="1" style="mix-blend-mode:passthrough"/></g><g><path d="M25.5999755859375,6.88330078125L31.166655585937498,6.88330078125L31.166655585937498,6.89998018125L25.5999755859375,6.89998018125L25.5999755859375,6.88330078125Z" fill="#757374" fill-opacity="1" style="mix-blend-mode:passthrough"/></g><g><path d="M25.5999755859375,6.9000244140625L31.166655585937498,6.9000244140625L31.166655585937498,6.9167038140625L25.5999755859375,6.9167038140625L25.5999755859375,6.9000244140625Z" fill="#747273" fill-opacity="1" style="mix-blend-mode:passthrough"/></g><g><path d="M25.5999755859375,6.91668701171875L31.166655585937498,6.91668701171875L31.166655585937498,6.93332751171875L25.5999755859375,6.93332751171875L25.5999755859375,6.91668701171875Z" fill="#737172" fill-opacity="1" style="mix-blend-mode:passthrough"/></g><g><path d="M25.5999755859375,6.933349609375L31.166655585937498,6.933349609375L31.166655585937498,6.950029009375L25.5999755859375,6.950029009375L25.5999755859375,6.933349609375Z" fill="#727071" fill-opacity="1" style="mix-blend-mode:passthrough"/></g><g><path d="M25.5999755859375,6.95001220703125L31.166655585937498,6.95001220703125L31.166655585937498,6.96669160703125L25.5999755859375,6.96669160703125L25.5999755859375,6.95001220703125Z" fill="#716F70" fill-opacity="1" style="mix-blend-mode:passthrough"/></g><g><path d="M25.5999755859375,6.9666748046875L31.166655585937498,6.9666748046875L31.166655585937498,6.9833153046875L25.5999755859375,6.9833153046875L25.5999755859375,6.9666748046875Z" fill="#706E6F" fill-opacity="1" style="mix-blend-mode:passthrough"/></g><g><path d="M25.5999755859375,6.98333740234375L31.166655585937498,6.98333740234375L31.166655585937498,7.00001680234375L25.5999755859375,7.00001680234375L25.5999755859375,6.98333740234375Z" fill="#6F6D6E" fill-opacity="1" style="mix-blend-mode:passthrough"/></g><g><path d="M25.5999755859375,7L31.166655585937498,7L31.166655585937498,7.0166794L25.5999755859375,7.0166794L25.5999755859375,7Z" fill="#6E6C6D" fill-opacity="1" style="mix-blend-mode:passthrough"/></g><g><path d="M25.5999755859375,7.01666259765625L31.166655585937498,7.01666259765625L31.166655585937498,7.03330309765625L25.5999755859375,7.03330309765625L25.5999755859375,7.01666259765625Z" fill="#6D6B6C" fill-opacity="1" style="mix-blend-mode:passthrough"/></g><g><path d="M25.5999755859375,7.0333251953125L31.166655585937498,7.0333251953125L31.166655585937498,7.0500045953125L25.5999755859375,7.0500045953125L25.5999755859375,7.0333251953125Z" fill="#6C6A6B" fill-opacity="1" style="mix-blend-mode:passthrough"/></g><g><path d="M25.5999755859375,7.04998779296875L31.166655585937498,7.04998779296875L31.166655585937498,7.06666719296875L25.5999755859375,7.06666719296875L25.5999755859375,7.04998779296875Z" fill="#6B696A" fill-opacity="1" style="mix-blend-mode:passthrough"/></g><g><path d="M25.5999755859375,7.058349609375L31.166655585937498,7.058349609375L31.166655585937498,7.075029009375L25.5999755859375,7.075029009375L25.5999755859375,7.058349609375Z" fill="#6A6869" fill-opacity="1" style="mix-blend-mode:passthrough"/></g><g><path d="M25.5999755859375,7.07501220703125L31.166655585937498,7.07501220703125L31.166655585937498,7.09169160703125L25.5999755859375,7.09169160703125L25.5999755859375,7.07501220703125Z" fill="#696768" fill-opacity="1" style="mix-blend-mode:passthrough"/></g><g><path d="M25.5999755859375,7.0916748046875L31.166655585937498,7.0916748046875L31.166655585937498,7.1083153046875L25.5999755859375,7.1083153046875L25.5999755859375,7.0916748046875Z" fill="#686667" fill-opacity="1" style="mix-blend-mode:passthrough"/></g><g><path d="M25.5999755859375,7.10833740234375L31.166655585937498,7.10833740234375L31.166655585937498,7.12501680234375L25.5999755859375,7.12501680234375L25.5999755859375,7.10833740234375Z" fill="#676566" fill-opacity="1" style="mix-blend-mode:passthrough"/></g><g><path d="M25.5999755859375,7.125L31.166655585937498,7.125L31.166655585937498,7.1416794L25.5999755859375,7.1416794L25.5999755859375,7.125Z" fill="#666465" fill-opacity="1" style="mix-blend-mode:passthrough"/></g><g><path d="M25.5999755859375,7.14166259765625L31.166655585937498,7.14166259765625L31.166655585937498,7.15830309765625L25.5999755859375,7.15830309765625L25.5999755859375,7.14166259765625Z" fill="#656364" fill-opacity="1" style="mix-blend-mode:passthrough"/></g><g><path d="M25.5999755859375,7.1583251953125L31.166655585937498,7.1583251953125L31.166655585937498,7.1750045953125L25.5999755859375,7.1750045953125L25.5999755859375,7.1583251953125Z" fill="#646263" fill-opacity="1" style="mix-blend-mode:passthrough"/></g><g><path d="M25.5999755859375,7.17498779296875L31.166655585937498,7.17498779296875L31.166655585937498,7.19166719296875L25.5999755859375,7.19166719296875L25.5999755859375,7.17498779296875Z" fill="#636162" fill-opacity="1" style="mix-blend-mode:passthrough"/></g><g><path d="M25.5999755859375,7.191650390625L31.166655585937498,7.191650390625L31.166655585937498,7.208290890625L25.5999755859375,7.208290890625L25.5999755859375,7.191650390625Z" fill="#626061" fill-opacity="1" style="mix-blend-mode:passthrough"/></g><g><path d="M25.5999755859375,7.20831298828125L31.166655585937498,7.20831298828125L31.166655585937498,7.22499238828125L25.5999755859375,7.22499238828125L25.5999755859375,7.20831298828125Z" fill="#615F60" fill-opacity="1" style="mix-blend-mode:passthrough"/></g><g><path d="M25.5999755859375,7.2249755859375L31.166655585937498,7.2249755859375L31.166655585937498,7.2416549859375L25.5999755859375,7.2416549859375L25.5999755859375,7.2249755859375Z" fill="#605E5F" fill-opacity="1" style="mix-blend-mode:passthrough"/></g><g><path d="M25.5999755859375,7.24169921875L31.166655585937498,7.24169921875L31.166655585937498,7.25833971875L25.5999755859375,7.25833971875L25.5999755859375,7.24169921875Z" fill="#5F5D5E" fill-opacity="1" style="mix-blend-mode:passthrough"/></g><g><path d="M25.5999755859375,7.25830078125L31.166655585937498,7.25830078125L31.166655585937498,7.27498018125L25.5999755859375,7.27498018125L25.5999755859375,7.25830078125Z" fill="#5E5C5D" fill-opacity="1" style="mix-blend-mode:passthrough"/></g><g><path d="M25.5999755859375,7.2750244140625L31.166655585937498,7.2750244140625L31.166655585937498,7.2917038140625L25.5999755859375,7.2917038140625L25.5999755859375,7.2750244140625Z" fill="#5D5B5C" fill-opacity="1" style="mix-blend-mode:passthrough"/></g><g><path d="M25.5999755859375,7.29168701171875L31.166655585937498,7.29168701171875L31.166655585937498,7.30832751171875L25.5999755859375,7.30832751171875L25.5999755859375,7.29168701171875Z" fill="#5C5A5B" fill-opacity="1" style="mix-blend-mode:passthrough"/></g><g><path d="M25.5999755859375,7.308349609375L31.166655585937498,7.308349609375L31.166655585937498,7.325029009375L25.5999755859375,7.325029009375L25.5999755859375,7.308349609375Z" fill="#5B595A" fill-opacity="1" style="mix-blend-mode:passthrough"/></g><g><path d="M25.5999755859375,7.32501220703125L31.166655585937498,7.32501220703125L31.166655585937498,7.34169160703125L25.5999755859375,7.34169160703125L25.5999755859375,7.32501220703125Z" fill="#5A5859" fill-opacity="1" style="mix-blend-mode:passthrough"/></g><g><path d="M25.5999755859375,7.33331298828125L31.166655585937498,7.33331298828125L31.166655585937498,7.34999238828125L25.5999755859375,7.34999238828125L25.5999755859375,7.33331298828125Z" fill="#595758" fill-opacity="1" style="mix-blend-mode:passthrough"/></g><g><path d="M25.5999755859375,7.3499755859375L31.166655585937498,7.3499755859375L31.166655585937498,7.3666549859375L25.5999755859375,7.3666549859375L25.5999755859375,7.3499755859375Z" fill="#585657" fill-opacity="1" style="mix-blend-mode:passthrough"/></g><g><path d="M25.5999755859375,7.36669921875L31.166655585937498,7.36669921875L31.166655585937498,7.38333971875L25.5999755859375,7.38333971875L25.5999755859375,7.36669921875Z" fill="#575556" fill-opacity="1" style="mix-blend-mode:passthrough"/></g><g><path d="M25.5999755859375,7.38330078125L31.166655585937498,7.38330078125L31.166655585937498,7.39998018125L25.5999755859375,7.39998018125L25.5999755859375,7.38330078125Z" fill="#565455" fill-opacity="1" style="mix-blend-mode:passthrough"/></g><g><path d="M25.5999755859375,7.4000244140625L31.166655585937498,7.4000244140625L31.166655585937498,7.4167038140625L25.5999755859375,7.4167038140625L25.5999755859375,7.4000244140625Z" fill="#565454" fill-opacity="1" style="mix-blend-mode:passthrough"/></g><g><path d="M25.5999755859375,7.41668701171875L31.166655585937498,7.41668701171875L31.166655585937498,7.43332751171875L25.5999755859375,7.43332751171875L25.5999755859375,7.41668701171875Z" fill="#555352" fill-opacity="1" style="mix-blend-mode:passthrough"/></g><g><path d="M25.5999755859375,7.433349609375L31.166655585937498,7.433349609375L31.166655585937498,7.450029009375L25.5999755859375,7.450029009375L25.5999755859375,7.433349609375Z" fill="#545251" fill-opacity="1" style="mix-blend-mode:passthrough"/></g><g><path d="M25.5999755859375,7.45001220703125L31.166655585937498,7.45001220703125L31.166655585937498,7.46669160703125L25.5999755859375,7.46669160703125L25.5999755859375,7.45001220703125Z" fill="#535150" fill-opacity="1" style="mix-blend-mode:passthrough"/></g><g><path d="M25.5999755859375,7.4666748046875L31.166655585937498,7.4666748046875L31.166655585937498,7.4833153046875L25.5999755859375,7.4833153046875L25.5999755859375,7.4666748046875Z" fill="#52504F" fill-opacity="1" style="mix-blend-mode:passthrough"/></g><g><path d="M25.5999755859375,7.48333740234375L31.166655585937498,7.48333740234375L31.166655585937498,7.50001680234375L25.5999755859375,7.50001680234375L25.5999755859375,7.48333740234375Z" fill="#514F4E" fill-opacity="1" style="mix-blend-mode:passthrough"/></g><g><path d="M25.5999755859375,7.5L31.166655585937498,7.5L31.166655585937498,7.5166794L25.5999755859375,7.5166794L25.5999755859375,7.5Z" fill="#504E4D" fill-opacity="1" style="mix-blend-mode:passthrough"/></g><g><path d="M25.5999755859375,7.51666259765625L31.166655585937498,7.51666259765625L31.166655585937498,7.53330309765625L25.5999755859375,7.53330309765625L25.5999755859375,7.51666259765625Z" fill="#4F4D4C" fill-opacity="1" style="mix-blend-mode:passthrough"/></g><g><path d="M25.5999755859375,7.5333251953125L31.166655585937498,7.5333251953125L31.166655585937498,7.5500045953125L25.5999755859375,7.5500045953125L25.5999755859375,7.5333251953125Z" fill="#4E4C4B" fill-opacity="1" style="mix-blend-mode:passthrough"/></g><g><path d="M25.5999755859375,7.54998779296875L31.166655585937498,7.54998779296875L31.166655585937498,7.56666719296875L25.5999755859375,7.56666719296875L25.5999755859375,7.54998779296875Z" fill="#4D4B4A" fill-opacity="1" style="mix-blend-mode:passthrough"/></g><g><path d="M25.5999755859375,7.566650390625L31.166655585937498,7.566650390625L31.166655585937498,7.583290890625L25.5999755859375,7.583290890625L25.5999755859375,7.566650390625Z" fill="#4C4A49" fill-opacity="1" style="mix-blend-mode:passthrough"/></g><g><path d="M25.5999755859375,7.58331298828125L31.166655585937498,7.58331298828125L31.166655585937498,7.59999238828125L25.5999755859375,7.59999238828125L25.5999755859375,7.58331298828125Z" fill="#4B4948" fill-opacity="1" style="mix-blend-mode:passthrough"/></g><g><path d="M25.5999755859375,7.5999755859375L31.166655585937498,7.5999755859375L31.166655585937498,7.6166549859375L25.5999755859375,7.6166549859375L25.5999755859375,7.5999755859375Z" fill="#4A4847" fill-opacity="1" style="mix-blend-mode:passthrough"/></g><g><path d="M25.5999755859375,7.60833740234375L31.166655585937498,7.60833740234375L31.166655585937498,7.62501680234375L25.5999755859375,7.62501680234375L25.5999755859375,7.60833740234375Z" fill="#494746" fill-opacity="1" style="mix-blend-mode:passthrough"/></g><g><path d="M25.5999755859375,7.625L31.166655585937498,7.625L31.166655585937498,7.6416794L25.5999755859375,7.6416794L25.5999755859375,7.625Z" fill="#484645" fill-opacity="1" style="mix-blend-mode:passthrough"/></g><g><path d="M25.5999755859375,7.64166259765625L31.166655585937498,7.64166259765625L31.166655585937498,7.65830309765625L25.5999755859375,7.65830309765625L25.5999755859375,7.64166259765625Z" fill="#474544" fill-opacity="1" style="mix-blend-mode:passthrough"/></g><g><path d="M25.5999755859375,7.6583251953125L31.166655585937498,7.6583251953125L31.166655585937498,7.6750045953125L25.5999755859375,7.6750045953125L25.5999755859375,7.6583251953125Z" fill="#464443" fill-opacity="1" style="mix-blend-mode:passthrough"/></g><g><path d="M25.5999755859375,7.67498779296875L31.166655585937498,7.67498779296875L31.166655585937498,7.69166719296875L25.5999755859375,7.69166719296875L25.5999755859375,7.67498779296875Z" fill="#454342" fill-opacity="1" style="mix-blend-mode:passthrough"/></g><g><path d="M25.5999755859375,7.691650390625L31.166655585937498,7.691650390625L31.166655585937498,7.708290890625L25.5999755859375,7.708290890625L25.5999755859375,7.691650390625Z" fill="#444241" fill-opacity="1" style="mix-blend-mode:passthrough"/></g><g><path d="M25.5999755859375,7.70831298828125L31.166655585937498,7.70831298828125L31.166655585937498,7.72499238828125L25.5999755859375,7.72499238828125L25.5999755859375,7.70831298828125Z" fill="#434140" fill-opacity="1" style="mix-blend-mode:passthrough"/></g><g><path d="M25.5999755859375,7.7249755859375L31.166655585937498,7.7249755859375L31.166655585937498,7.7416549859375L25.5999755859375,7.7416549859375L25.5999755859375,7.7249755859375Z" fill="#42403F" fill-opacity="1" style="mix-blend-mode:passthrough"/></g><g><path d="M25.5999755859375,7.74169921875L31.166655585937498,7.74169921875L31.166655585937498,7.75833971875L25.5999755859375,7.75833971875L25.5999755859375,7.74169921875Z" fill="#413F3E" fill-opacity="1" style="mix-blend-mode:passthrough"/></g><g><path d="M25.5999755859375,7.75830078125L31.166655585937498,7.75830078125L31.166655585937498,7.77498018125L25.5999755859375,7.77498018125L25.5999755859375,7.75830078125Z" fill="#403E3D" fill-opacity="1" style="mix-blend-mode:passthrough"/></g><g><path d="M25.5999755859375,7.7750244140625L31.166655585937498,7.7750244140625L31.166655585937498,7.7917038140625L25.5999755859375,7.7917038140625L25.5999755859375,7.7750244140625Z" fill="#3F3D3C" fill-opacity="1" style="mix-blend-mode:passthrough"/></g><g><path d="M25.5999755859375,7.79168701171875L31.166655585937498,7.79168701171875L31.166655585937498,7.80832751171875L25.5999755859375,7.80832751171875L25.5999755859375,7.79168701171875Z" fill="#3E3C3B" fill-opacity="1" style="mix-blend-mode:passthrough"/></g><g><path d="M25.5999755859375,7.808349609375L31.166655585937498,7.808349609375L31.166655585937498,7.825029009375L25.5999755859375,7.825029009375L25.5999755859375,7.808349609375Z" fill="#3D3B3A" fill-opacity="1" style="mix-blend-mode:passthrough"/></g><g><path d="M25.5999755859375,7.82501220703125L31.166655585937498,7.82501220703125L31.166655585937498,7.84169160703125L25.5999755859375,7.84169160703125L25.5999755859375,7.82501220703125Z" fill="#3C3A39" fill-opacity="1" style="mix-blend-mode:passthrough"/></g><g><path d="M25.5999755859375,7.8416748046875L31.166655585937498,7.8416748046875L31.166655585937498,7.8583153046875L25.5999755859375,7.8583153046875L25.5999755859375,7.8416748046875Z" fill="#3B3938" fill-opacity="1" style="mix-blend-mode:passthrough"/></g><g><path d="M25.5999755859375,7.85833740234375L31.166655585937498,7.85833740234375L31.166655585937498,7.87501680234375L25.5999755859375,7.87501680234375L25.5999755859375,7.85833740234375Z" fill="#3A3837" fill-opacity="1" style="mix-blend-mode:passthrough"/></g><g><path d="M25.5999755859375,7.875L31.166655585937498,7.875L31.166655585937498,7.8916794L25.5999755859375,7.8916794L25.5999755859375,7.875Z" fill="#393736" fill-opacity="1" style="mix-blend-mode:passthrough"/></g><g><path d="M25.5999755859375,7.88330078125L31.166655585937498,7.88330078125L31.166655585937498,7.89998018125L25.5999755859375,7.89998018125L25.5999755859375,7.88330078125Z" fill="#383635" fill-opacity="1" style="mix-blend-mode:passthrough"/></g><g><path d="M25.5999755859375,7.9000244140625L31.166655585937498,7.9000244140625L31.166655585937498,7.9167038140625L25.5999755859375,7.9167038140625L25.5999755859375,7.9000244140625Z" fill="#373534" fill-opacity="1" style="mix-blend-mode:passthrough"/></g><g><path d="M25.5999755859375,7.91668701171875L31.166655585937498,7.91668701171875L31.166655585937498,7.93332751171875L25.5999755859375,7.93332751171875L25.5999755859375,7.91668701171875Z" fill="#363433" fill-opacity="1" style="mix-blend-mode:passthrough"/></g><g><path d="M25.5999755859375,7.933349609375L31.166655585937498,7.933349609375L31.166655585937498,7.950029009375L25.5999755859375,7.950029009375L25.5999755859375,7.933349609375Z" fill="#353332" fill-opacity="1" style="mix-blend-mode:passthrough"/></g><g><path d="M25.5999755859375,7.95001220703125L31.166655585937498,7.95001220703125L31.166655585937498,7.96669160703125L25.5999755859375,7.96669160703125L25.5999755859375,7.95001220703125Z" fill="#353231" fill-opacity="1" style="mix-blend-mode:passthrough"/></g><g><path d="M25.5999755859375,7.9666748046875L31.166655585937498,7.9666748046875L31.166655585937498,7.9833153046875L25.5999755859375,7.9833153046875L25.5999755859375,7.9666748046875Z" fill="#343130" fill-opacity="1" style="mix-blend-mode:passthrough"/></g><g><path d="M25.5999755859375,7.98333740234375L31.166655585937498,7.98333740234375L31.166655585937498,8.00001680234375L25.5999755859375,8.00001680234375L25.5999755859375,7.98333740234375Z" fill="#33302F" fill-opacity="1" style="mix-blend-mode:passthrough"/></g><g><path d="M25.5999755859375,8L31.166655585937498,8L31.166655585937498,8.0166794L25.5999755859375,8.0166794L25.5999755859375,8Z" fill="#322F2E" fill-opacity="1" style="mix-blend-mode:passthrough"/></g><g><path d="M25.5999755859375,8.01666259765625L31.166655585937498,8.01666259765625L31.166655585937498,8.03330309765625L25.5999755859375,8.03330309765625L25.5999755859375,8.01666259765625Z" fill="#312E2D" fill-opacity="1" style="mix-blend-mode:passthrough"/></g><g><path d="M25.5999755859375,8.0333251953125L31.166655585937498,8.0333251953125L31.166655585937498,8.0500045953125L25.5999755859375,8.0500045953125L25.5999755859375,8.0333251953125Z" fill="#302D2C" fill-opacity="1" style="mix-blend-mode:passthrough"/></g><g><path d="M25.5999755859375,8.04998779296875L31.166655585937498,8.04998779296875L31.166655585937498,8.06666719296875L25.5999755859375,8.06666719296875L25.5999755859375,8.04998779296875Z" fill="#2F2C2B" fill-opacity="1" style="mix-blend-mode:passthrough"/></g><g><path d="M25.5999755859375,8.066650390625L31.166655585937498,8.066650390625L31.166655585937498,8.083290890625L25.5999755859375,8.083290890625L25.5999755859375,8.066650390625Z" fill="#2E2B2A" fill-opacity="1" style="mix-blend-mode:passthrough"/></g><g><path d="M25.5999755859375,8.08331298828125L31.166655585937498,8.08331298828125L31.166655585937498,8.09999238828125L25.5999755859375,8.09999238828125L25.5999755859375,8.08331298828125Z" fill="#2D2A29" fill-opacity="1" style="mix-blend-mode:passthrough"/></g><g><path d="M25.5999755859375,8.0999755859375L31.166655585937498,8.0999755859375L31.166655585937498,8.1166549859375L25.5999755859375,8.1166549859375L25.5999755859375,8.0999755859375Z" fill="#2C2928" fill-opacity="1" style="mix-blend-mode:passthrough"/></g><g><path d="M25.5999755859375,8.11669921875L31.166655585937498,8.11669921875L31.166655585937498,8.13333971875L25.5999755859375,8.13333971875L25.5999755859375,8.11669921875Z" fill="#2B2827" fill-opacity="1" style="mix-blend-mode:passthrough"/></g><g><path d="M25.5999755859375,8.13330078125L31.166655585937498,8.13330078125L31.166655585937498,8.14998018125L25.5999755859375,8.14998018125L25.5999755859375,8.13330078125Z" fill="#2A2726" fill-opacity="1" style="mix-blend-mode:passthrough"/></g><g><path d="M25.5999755859375,8.1500244140625L31.166655585937498,8.1500244140625L31.166655585937498,8.1667038140625L25.5999755859375,8.1667038140625L25.5999755859375,8.1500244140625Z" fill="#292625" fill-opacity="1" style="mix-blend-mode:passthrough"/></g><g><path d="M25.5999755859375,8.1583251953125L31.166655585937498,8.1583251953125L31.166655585937498,8.1750045953125L25.5999755859375,8.1750045953125L25.5999755859375,8.1583251953125Z" fill="#282524" fill-opacity="1" style="mix-blend-mode:passthrough"/></g><g><path d="M25.5999755859375,8.17498779296875L31.166655585937498,8.17498779296875L31.166655585937498,8.19166719296875L25.5999755859375,8.19166719296875L25.5999755859375,8.17498779296875Z" fill="#272423" fill-opacity="1" style="mix-blend-mode:passthrough"/></g><g><path d="M25.5999755859375,8.191650390625L31.166655585937498,8.191650390625L31.166655585937498,8.208290890625L25.5999755859375,8.208290890625L25.5999755859375,8.191650390625Z" fill="#262322" fill-opacity="1" style="mix-blend-mode:passthrough"/></g><g><path d="M25.5999755859375,8.20831298828125L31.166655585937498,8.20831298828125L31.166655585937498,8.22499238828125L25.5999755859375,8.22499238828125L25.5999755859375,8.20831298828125Z" fill="#252221" fill-opacity="1" style="mix-blend-mode:passthrough"/></g><g><path d="M25.5999755859375,8.2249755859375L31.166655585937498,8.2249755859375L31.166655585937498,8.2416549859375L25.5999755859375,8.2416549859375L25.5999755859375,8.2249755859375Z" fill="#242120" fill-opacity="1" style="mix-blend-mode:passthrough"/></g><g><path d="M25.5999755859375,8.24169921875L31.166655585937498,8.24169921875L31.166655585937498,8.25833971875L25.5999755859375,8.25833971875L25.5999755859375,8.24169921875Z" fill="#23201F" fill-opacity="1" style="mix-blend-mode:passthrough"/></g><g><path d="M25.5999755859375,8.25830078125L31.166655585937498,8.25830078125L31.166655585937498,8.27498018125L25.5999755859375,8.27498018125L25.5999755859375,8.25830078125Z" fill="#221F1E" fill-opacity="1" style="mix-blend-mode:passthrough"/></g><g><path d="M25.5999755859375,8.2750244140625L31.166655585937498,8.2750244140625L31.166655585937498,8.2917038140625L25.5999755859375,8.2917038140625L25.5999755859375,8.2750244140625Z" fill="#211E1D" fill-opacity="1" style="mix-blend-mode:passthrough"/></g><g><path d="M25.5999755859375,8.29168701171875L31.166655585937498,8.29168701171875L31.166655585937498,8.30832751171875L25.5999755859375,8.30832751171875L25.5999755859375,8.29168701171875Z" fill="#201D1C" fill-opacity="1" style="mix-blend-mode:passthrough"/></g><g><path d="M25.5999755859375,8.308349609375L31.166655585937498,8.308349609375L31.166655585937498,8.325029009375L25.5999755859375,8.325029009375L25.5999755859375,8.308349609375Z" fill="#1F1C1B" fill-opacity="1" style="mix-blend-mode:passthrough"/></g><g><path d="M25.5999755859375,8.32501220703125L31.166655585937498,8.32501220703125L31.166655585937498,8.34169160703125L25.5999755859375,8.34169160703125L25.5999755859375,8.32501220703125Z" fill="#1E1B1A" fill-opacity="1" style="mix-blend-mode:passthrough"/></g><g><path d="M25.5999755859375,8.3416748046875L31.166655585937498,8.3416748046875L31.166655585937498,8.3583153046875L25.5999755859375,8.3583153046875L25.5999755859375,8.3416748046875Z" fill="#1D1A19" fill-opacity="1" style="mix-blend-mode:passthrough"/></g><g><path d="M25.5999755859375,8.35833740234375L31.166655585937498,8.35833740234375L31.166655585937498,8.37501680234375L25.5999755859375,8.37501680234375L25.5999755859375,8.35833740234375Z" fill="#1C1918" fill-opacity="1" style="mix-blend-mode:passthrough"/></g><g><path d="M25.5999755859375,8.375L31.166655585937498,8.375L31.166655585937498,8.3916794L25.5999755859375,8.3916794L25.5999755859375,8.375Z" fill="#1B1817" fill-opacity="1" style="mix-blend-mode:passthrough"/></g><g><path d="M25.5999755859375,8.39166259765625L31.166655585937498,8.39166259765625L31.166655585937498,8.40830309765625L25.5999755859375,8.40830309765625L25.5999755859375,8.39166259765625Z" fill="#1A1716" fill-opacity="1" style="mix-blend-mode:passthrough"/></g><g><path d="M25.5999755859375,8.4083251953125L31.166655585937498,8.4083251953125L31.166655585937498,8.4250045953125L25.5999755859375,8.4250045953125L25.5999755859375,8.4083251953125Z" fill="#191615" fill-opacity="1" style="mix-blend-mode:passthrough"/></g><g><path d="M25.5999755859375,8.41668701171875L31.166655585937498,8.41668701171875L31.166655585937498,8.43332751171875L25.5999755859375,8.43332751171875L25.5999755859375,8.41668701171875Z" fill="#181514" fill-opacity="1" style="mix-blend-mode:passthrough"/></g><g><path d="M25.5999755859375,8.433349609375L31.166655585937498,8.433349609375L31.166655585937498,8.450029009375L25.5999755859375,8.450029009375L25.5999755859375,8.433349609375Z" fill="#171413" fill-opacity="1" style="mix-blend-mode:passthrough"/></g><g><path d="M25.5999755859375,8.45001220703125L31.166655585937498,8.45001220703125L31.166655585937498,8.46669160703125L25.5999755859375,8.46669160703125L25.5999755859375,8.45001220703125Z" fill="#161312" fill-opacity="1" style="mix-blend-mode:passthrough"/></g><g><path d="M25.5999755859375,8.4666748046875L31.166655585937498,8.4666748046875L31.166655585937498,8.4833153046875L25.5999755859375,8.4833153046875L25.5999755859375,8.4666748046875Z" fill="#151211" fill-opacity="1" style="mix-blend-mode:passthrough"/></g><g><path d="M25.5999755859375,8.48333740234375L31.166655585937498,8.48333740234375L31.166655585937498,8.50001680234375L25.5999755859375,8.50001680234375L25.5999755859375,8.48333740234375Z" fill="#151110" fill-opacity="1" style="mix-blend-mode:passthrough"/></g><g><path d="M25.5999755859375,8.5L31.166655585937498,8.5L31.166655585937498,8.5166794L25.5999755859375,8.5166794L25.5999755859375,8.5Z" fill="#14100F" fill-opacity="1" style="mix-blend-mode:passthrough"/></g><g><path d="M25.5999755859375,8.51666259765625L31.166655585937498,8.51666259765625L31.166655585937498,8.53330309765625L25.5999755859375,8.53330309765625L25.5999755859375,8.51666259765625Z" fill="#130F0E" fill-opacity="1" style="mix-blend-mode:passthrough"/></g><g><path d="M25.5999755859375,8.5333251953125L31.166655585937498,8.5333251953125L31.166655585937498,8.5500045953125L25.5999755859375,8.5500045953125L25.5999755859375,8.5333251953125Z" fill="#120E0D" fill-opacity="1" style="mix-blend-mode:passthrough"/></g><g><path d="M25.5999755859375,8.54998779296875L31.166655585937498,8.54998779296875L31.166655585937498,8.56666719296875L25.5999755859375,8.56666719296875L25.5999755859375,8.54998779296875Z" fill="#110D0C" fill-opacity="1" style="mix-blend-mode:passthrough"/></g><g><path d="M25.5999755859375,8.566650390625L31.166655585937498,8.566650390625L31.166655585937498,8.583290890625L25.5999755859375,8.583290890625L25.5999755859375,8.566650390625Z" fill="#100C0B" fill-opacity="1" style="mix-blend-mode:passthrough"/></g><g><path d="M25.5999755859375,8.58331298828125L31.166655585937498,8.58331298828125L31.166655585937498,8.59999238828125L25.5999755859375,8.59999238828125L25.5999755859375,8.58331298828125Z" fill="#0F0B0A" fill-opacity="1" style="mix-blend-mode:passthrough"/></g><g><path d="M25.5999755859375,8.5999755859375L31.166655585937498,8.5999755859375L31.166655585937498,8.6166549859375L25.5999755859375,8.6166549859375L25.5999755859375,8.5999755859375Z" fill="#0E0A09" fill-opacity="1" style="mix-blend-mode:passthrough"/></g><g><path d="M25.5999755859375,8.61669921875L31.166655585937498,8.61669921875L31.166655585937498,8.63333971875L25.5999755859375,8.63333971875L25.5999755859375,8.61669921875Z" fill="#0D0908" fill-opacity="1" style="mix-blend-mode:passthrough"/></g><g><path d="M25.5999755859375,8.63330078125L31.166655585937498,8.63330078125L31.166655585937498,8.64998018125L25.5999755859375,8.64998018125L25.5999755859375,8.63330078125Z" fill="#0C0807" fill-opacity="1" style="mix-blend-mode:passthrough"/></g><g><path d="M25.5999755859375,8.6500244140625L31.166655585937498,8.6500244140625L31.166655585937498,8.6667038140625L25.5999755859375,8.6667038140625L25.5999755859375,8.6500244140625Z" fill="#0B0706" fill-opacity="1" style="mix-blend-mode:passthrough"/></g><g><path d="M25.5999755859375,8.66668701171875L31.166655585937498,8.66668701171875L31.166655585937498,8.68332751171875L25.5999755859375,8.68332751171875L25.5999755859375,8.66668701171875Z" fill="#0A0605" fill-opacity="1" style="mix-blend-mode:passthrough"/></g><g><path d="M25.5999755859375,8.683349609375L31.166655585937498,8.683349609375L31.166655585937498,8.700029009375L25.5999755859375,8.700029009375L25.5999755859375,8.683349609375Z" fill="#090504" fill-opacity="1" style="mix-blend-mode:passthrough"/></g><g><path d="M25.5999755859375,8.691650390625L31.166655585937498,8.691650390625L31.166655585937498,8.708290890625L25.5999755859375,8.708290890625L25.5999755859375,8.691650390625Z" fill="#080403" fill-opacity="1" style="mix-blend-mode:passthrough"/></g><g><path d="M25.5999755859375,8.70831298828125L31.166655585937498,8.70831298828125L31.166655585937498,8.72499238828125L25.5999755859375,8.72499238828125L25.5999755859375,8.70831298828125Z" fill="#070302" fill-opacity="1" style="mix-blend-mode:passthrough"/></g><g><path d="M25.5999755859375,8.7249755859375L31.166655585937498,8.7249755859375L31.166655585937498,8.7416549859375L25.5999755859375,8.7416549859375L25.5999755859375,8.7249755859375Z" fill="#060201" fill-opacity="1" style="mix-blend-mode:passthrough"/></g><g><path d="M25.5999755859375,8.74169921875L31.166655585937498,8.74169921875L31.166655585937498,8.75833971875L25.5999755859375,8.75833971875L25.5999755859375,8.74169921875Z" fill="#050100" fill-opacity="1" style="mix-blend-mode:passthrough"/></g><g><path d="M10.52502841796875,12.266655390625C10.52502841796875,12.799975390625,10.62502841796875,13.341655390625,10.64170841796875,13.883295390625C10.707198417968751,14.831245390625,10.25851841796875,15.741325390625,9.46670841796875,16.266625390625002C8.84771841796875,16.717425390625,8.14515841796875,17.040325390625,7.40002841796875,17.216625390624998C7.0102184179687494,17.326025390625,6.59174641796875,17.215825390625,6.30633441796875,16.928725390625C6.02092211796875,16.641525390625,5.91328731796875,16.222425390625,6.02502971796875,15.833325390625C6.14013041796875,15.328175390625,6.32821241796875,14.842525390625,6.58335041796875,14.391645390625C7.19257841796875,13.300725390625,7.64960841796875,12.131535390625,7.94170841796875,10.916655390625C8.00103841796875,10.689985390625,8.08195841796875,10.469515390625,8.18334841796875,10.258295390625001C8.35607841796875,9.887085390625,8.77288841796875,9.696355390625001,9.16670841796875,9.808295390625C9.45600841796875,9.891735390625,9.73541841796875,10.006305390625,10.00002841796875,10.149975390625C10.40834841796875,10.358295390624999,10.83334841796875,10.608295390624999,11.20834841796875,10.833295390625C11.45834841796875,10.574975390625,11.69170841796875,10.291655390625,11.950028417968749,10.041655390625C12.846428417968749,9.211785390625,13.87790841796875,8.541035390625,15.00002841796875,8.058295390625C16.758228417968752,7.216395390625,18.606128417968748,6.576212390625,20.508328417968748,6.149971390625C21.399928417968752,5.970235390625,22.30152841796875,5.845003390625,23.20832841796875,5.774971790625C24.28332841796875,5.699971790625,25.37502841796875,5.658291990625,26.45002841796875,5.683292010625C27.85102841796875,5.651129190625,29.24122841796875,5.936011390625,30.51672841796875,6.516651390625C31.22242841796875,6.783285390625,31.74592841796875,7.388225390625,31.90832841796875,8.124975390625C31.97642841796875,8.678445390625,31.97642841796875,9.238175390624999,31.90832841796875,9.791655390625C31.75882841796875,10.729005390625,31.46362841796875,11.637205390624999,31.03332841796875,12.483295390624999C30.89642841796875,12.722375390625,30.69012841796875,12.914195390625,30.44172841796875,13.033285390625C29.85652841796875,13.347745390625,29.22272841796875,13.561835390625,28.56672841796875,13.666645390625C26.76722841796875,14.049795390625,24.89722841796875,13.934535390625,23.15832841796875,13.333285390625C22.14122841796875,12.925805390625001,21.22952841796875,12.293335390625,20.49172841796875,11.483295390624999C20.42192841796875,11.392645390624999,20.340728417968748,11.311425390625,20.25002841796875,11.241645390625C20.14172841796875,11.191645390625,19.97502841796875,11.149975390625,19.90002841796875,11.241645390625C19.81892841796875,11.329115390624999,19.78212841796875,11.448745390625,19.80002841796875,11.566645390625C19.84182841796875,11.699605390624999,19.91632841796875,11.819935390625,20.01672841796875,11.916645390625C21.101428417968748,13.112365390625001,22.52652841796875,13.947035390625,24.10002841796875,14.308295390625C25.98212841796875,14.773645390625,27.95692841796875,14.701465390625,29.80002841796875,14.099965390625C29.90882841796875,14.067015390625,30.01472841796875,14.025205390625,30.11672841796875,13.974965390625C30.22502841796875,13.919365390625,30.33972841796875,13.877375390625,30.45832841796875,13.849965390625C30.25002841796875,14.158285390625,30.05002841796875,14.466645390625,29.84172841796875,14.758285390625C28.43972841796875,16.667125390625,26.44362841796875,18.056525390624998,24.16672841796875,18.708325390625C22.69052841796875,19.108425390625,21.134528417968752,19.108425390625,19.65832841796875,18.708325390625C17.16802841796875,18.141925390624998,14.84493841796875,17.000325390625,12.87502841796875,15.374975390625C12.24008841796875,14.876905390625,11.69838841796875,14.270305390625,11.27502841796875,13.583295390625C11.116268417968751,13.323075390625,10.992948417968751,13.042825390625,10.90834841796875,12.749975390625C10.84170841796875,12.508295390625001,10.75002841796875,12.349975390625,10.54170841796875,12.291645390625L10.52502841796875,12.266655390625ZM28.74172841796875,6.291650390625C28.45002841796875,6.291650390625,28.15002841796875,6.291650390625,27.86672841796875,6.374971390625C27.42092841796875,6.428598390625,26.99772841796875,6.601314390625,26.64172841796875,6.874975390625C26.49022841796875,6.967595390625,26.40452841796875,7.138115390625,26.42042841796875,7.314925390625C26.43632841796875,7.491735390625,26.55112841796875,7.644195390625,26.71672841796875,7.7082953906250005C26.85952841796875,7.783735390625,27.01052841796875,7.842455390625,27.16672841796875,7.883295390624999C27.86742841796875,8.040145390625,28.59182841796875,8.059965390624999,29.30002841796875,7.941655390625C29.66662841796875,7.890645390625,30.02512841796875,7.792615390625,30.36672841796875,7.649975390625C30.61762841796875,7.568355390625,30.78422841796875,7.330395390625,30.77502841796875,7.066655390625C30.77502841796875,6.7916553906249995,30.53332841796875,6.691655390625,30.33332841796875,6.591651390625C29.82942841796875,6.383014390625,29.28692841796875,6.283601390625,28.74172841796875,6.299971390625L28.74172841796875,6.291650390625ZM20.40832841796875,9.533295390625C20.80142841796875,9.561845390624999,21.14062841796875,9.260375390625,21.15832841796875,8.866655390625C21.14042841796875,8.471805390625,20.80292841796875,8.167985390625,20.40832841796875,8.191655390625C20.008328417968748,8.146925390625,19.65832841796875,8.459975390625,19.65832841796875,8.862475390625C19.65832841796875,9.264965390625001,20.008328417968748,9.578015390625,20.40832841796875,9.533295390625ZM23.67502841796875,25.683325390625L23.10832841796875,25.683325390625C23.05832841796875,25.683325390625,22.99172841796875,25.591625390625,22.97502841796875,25.533325390625C22.84172841796875,24.999925390625,22.72502841796875,24.458325390625,22.57502841796875,23.924925390625C22.50962841796875,23.715125390625,22.41422841796875,23.515825390625,22.29172841796875,23.333325390625C22.15272841796875,23.056625390625,21.76852841796875,23.029225390625,21.59172841796875,23.283325390625C21.38402841796875,23.535925390625,21.212928417968747,23.816425390625,21.08332841796875,24.116625390625C20.91272841796875,24.555025390625,20.76802841796875,25.002925390625,20.65002841796875,25.458325390625C20.59172841796875,25.641625390625,20.53332841796875,25.741625390625,20.325028417968753,25.708325390625C20.19462841796875,25.699925390625,20.06372841796875,25.699925390625,19.933328417968752,25.708325390625C19.933328417968752,24.924925390625,19.99172841796875,24.174925390625,20.02502841796875,23.358325390625C19.87492841796875,23.418625390625,19.73002841796875,23.491025390625,19.59172841796875,23.574925390625C19.34412841796875,23.769925390625,19.107628417968748,23.978525390625,18.883328417968748,24.199925390625C18.47502841796875,24.616625390625,18.05002841796875,25.033325390625,17.69172841796875,25.466625390625C17.450028417968753,25.733325390625,17.36672841796875,25.758325390625,16.94172841796875,25.666625390625L18.450028417968753,23.108325390625C17.96432841796875,23.033725390625,17.54822841796875,22.720825390625,17.34172841796875,22.274925390625C17.22502841796875,21.969025390625,17.22502841796875,21.630925390625002,17.34172841796875,21.324925390624998C17.34172841796875,21.433325390625,17.39172841796875,21.549925390625,17.42502841796875,21.658325390625002C17.549128417968753,22.205225390625,18.11752841796875,22.526225390625,18.65002841796875,22.349925390625C18.80892841796875,22.298025390625,18.94642841796875,22.195625390625,19.04172841796875,22.058325390625C19.53332841796875,21.224925390625,20.008328417968748,20.458325390625,20.47502841796875,19.649925390625C20.52902841796875,19.519725390625,20.67502841796875,19.454025390625,20.808328417968752,19.499925390625002C21.572028417968752,19.662425390625,22.36132841796875,19.662425390625,23.12502841796875,19.499925390625002C23.29172841796875,19.458325390625,23.45832841796875,19.383325390625,23.64172841796875,19.316625390625L23.64172841796875,25.674925390625L23.67502841796875,25.683325390625ZM14.39170841796875,28.758325390625C14.31670841796875,28.966625390625,13.94170841796875,29.016625390625,12.45834841796875,29.016625390625C10.97498841796875,29.016625390625,10.64170841796875,29.066625390625,10.64170841796875,29.274925390625C10.64170841796875,29.483325390625,11.225028417968751,29.541625390625,14.98334841796875,29.541625390625C18.741628417968748,29.541625390625,19.325028417968753,29.541625390625,19.325028417968753,29.274925390625C19.325028417968753,29.008325390625,18.99172841796875,29.016625390625,17.40832841796875,29.016625390625C15.82498841796875,29.016625390625,15.50002841796875,28.966625390625,15.50002841796875,28.758325390625C15.50002841796875,28.549925390625,15.32502841796875,28.499925390625,15.00002841796875,28.499925390625C14.76559841796875,28.470725390625,14.53343841796875,28.569225390625,14.39170841796875,28.758325390625ZM22.55002841796875,28.758325390625C22.48332841796875,28.949925390625,22.20832841796875,29.016625390625,21.58332841796875,29.016625390625C20.95832841796875,29.016625390625,20.75002841796875,29.091625390625,20.75002841796875,29.274925390625C20.75002841796875,29.458325390625,20.94172841796875,29.541625390625,21.450028417968753,29.541625390625C21.83332841796875,29.541625390625,22.14172841796875,29.541625390625,22.14172841796875,29.624925390625C21.99452841796875,30.013725390625,21.82192841796875,30.392325390625,21.62502841796875,30.758325390625C21.41292841796875,31.143925390625,21.23722841796875,31.548425390625,21.10002841796875,31.966625390625C21.10002841796875,32.074925390625,21.74172841796875,32.141625390624995,22.76672841796875,32.141625390624995L24.43332841796875,32.141625390624995L24.43332841796875,33.533325390624995C24.43332841796875,34.733325390625,24.38332841796875,34.958325390625,24.08332841796875,35.133325390625004C23.90822841796875,35.233125390625,23.78402841796875,35.402925390625,23.74172841796875,35.599925390625C23.74172841796875,35.983325390625,24.81672841796875,35.691625390625,25.26672841796875,35.166625390625C25.60002841796875,34.799925390625,25.65002841796875,34.524925390625,25.65002841796875,33.433325390625L25.65002841796875,32.141625390624995L27.38332841796875,32.141625390624995C28.79172841796875,32.141625390624995,29.12502841796875,32.091625390625,29.12502841796875,31.883325390625C29.12502841796875,31.674925390625,28.77502841796875,31.624925390625,27.45832841796875,31.591625390625L25.75002841796875,31.533325390625L25.60832841796875,30.833325390625C25.55832841796875,30.116625390625,25.54172841796875,30.099925390625,24.95002841796875,30.099925390625C24.35832841796875,30.099925390625,24.35832841796875,30.099925390625,24.35832841796875,30.883325390625L24.35832841796875,31.666625390625L23.52502841796875,31.666625390625C23.20172841796875,31.686425390625,22.87742841796875,31.649725390625,22.56672841796875,31.558325390625C22.61462841796875,31.189225390625,22.73952841796875,30.834325390625,22.93332841796875,30.516625390625L23.38332841796875,29.583325390625L26.39172841796875,29.583325390625C28.94172841796875,29.583325390625,29.40002841796875,29.583325390625,29.40002841796875,29.316625390625C29.40002841796875,29.050025390625,28.95832841796875,29.058325390625,26.53332841796875,29.058325390625C24.10832841796875,29.058325390625,23.68332841796875,29.058325390625,23.76672841796875,28.799925390625C23.85002841796875,28.541625390625,23.76672841796875,28.541625390625,23.26672841796875,28.541625390625C22.76672841796875,28.541625390625,22.62502841796875,28.641625390625,22.55002841796875,28.799925390625L22.55002841796875,28.758325390625ZM10.950028417968749,31.033325390625C10.91651841796875,31.379725390625,10.91651841796875,31.728525390625,10.950028417968749,32.074925390625C11.54515841796875,32.136325390625004,12.143668417968751,32.158625390625005,12.74170841796875,32.141625390624995L14.40834841796875,32.141625390624995L14.40834841796875,33.083325390625C14.40834841796875,34.416625390625,14.23334841796875,35.058325390625,13.87502841796875,35.183325390625C13.696788417968751,35.232225390625004,13.56535841796875,35.383325390625004,13.54170841796875,35.566625390625C13.54170841796875,35.949925390625,14.53334841796875,35.741625390625,15.05002841796875,35.233325390625C15.40002841796875,34.908325390624995,15.45002841796875,34.700025390625,15.45002841796875,33.499925390624995L15.45002841796875,32.141625390624995L18.92502841796875,32.141625390624995L18.92502841796875,30.058325390625L11.01670841796875,30.058325390625L10.950028417968749,31.033325390625ZM17.90002841796875,31.033325390625L17.85002841796875,31.516625390625L12.11670841796875,31.516625390625L12.06670841796875,31.033325390625L12.008348417968751,30.566625390625L17.950028417968753,30.566625390625L17.90002841796875,31.033325390625ZM11.608348417968749,33.533325390624995C11.45345841796875,34.112225390625,11.23256841796875,34.671425390625004,10.950028417968749,35.199925390625L10.600028417968751,35.774925390625L10.96670841796875,35.774925390625C11.36670841796875,35.774925390625,12.21670841796875,34.733325390625,12.74170841796875,33.599925390625C13.19170841796875,32.633325390625004,13.15834841796875,32.474925390625,12.50002841796875,32.474925390625C11.84170841796875,32.474925390625,11.90834841796875,32.474925390625,11.608348417968749,33.549925390625L11.608348417968749,33.533325390624995ZM16.89172841796875,32.699925390625C17.16152841796875,33.608625390625,17.60272841796875,34.457225390625,18.19172841796875,35.199925390625C18.38872841796875,35.459125390625005,18.66302841796875,35.648825390625,18.97502841796875,35.741625390625C19.26672841796875,35.741625390625,19.26672841796875,35.691625390625,18.89172841796875,34.991625390625C18.59932841796875,34.471325390625,18.38852841796875,33.909225390625,18.26672841796875,33.324925390625C18.058328417968752,32.491625390625,18.03332841796875,32.424925390625,17.433328417968752,32.424925390625C17.03332841796875,32.424925390625,16.85832841796875,32.508325390625004,16.85832841796875,32.683325390625L16.89172841796875,32.699925390625ZM21.89172841796875,32.566625390625C21.80202841796875,32.839025390625,21.732428417968748,33.117525390625005,21.683328417968752,33.399925390625C21.575028417968753,33.957325390625,21.38692841796875,34.496225390625,21.12502841796875,34.999925390624995C20.80002841796875,35.641625390624995,20.76672841796875,35.833325390625,20.95832841796875,35.833325390625C21.44172841796875,35.833325390625,22.67502841796875,34.116625390625,23.04172841796875,32.916625390625C23.15832841796875,32.566625390625,23.10832841796875,32.533325390624995,22.55002841796875,32.533325390624995C22.22502841796875,32.533325390624995,21.90832841796875,32.583325390625,21.87502841796875,32.658325390624995L21.89172841796875,32.566625390625ZM26.80832841796875,32.508325390625004C26.92822841796875,32.857425390625,27.06732841796875,33.199625390625,27.22502841796875,33.533325390624995C27.67502841796875,34.558325390625,28.63332841796875,35.741625390625,29.00002841796875,35.741625390625C29.36672841796875,35.741625390625,29.30832841796875,35.658325390624995,28.94172841796875,35.116625390625C28.68662841796875,34.654025390625,28.48262841796875,34.165025390625004,28.33332841796875,33.658325390624995C28.04172841796875,32.600025390625,28.02502841796875,32.575025390625,27.41672841796875,32.525025390625004L26.77502841796875,32.525025390625004L26.80832841796875,32.508325390625004Z" fill="#FFFFFF" fill-opacity="1" style="mix-blend-mode:passthrough"/></g></g></svg>