<svg xmlns="http://www.w3.org/2000/svg" xmlns:xlink="http://www.w3.org/1999/xlink" fill="none" version="1.1" width="40" height="40" viewBox="0 0 40 40"><defs><clipPath id="master_svg0_1_0859"><rect x="0" y="0" width="40" height="40" rx="0"/></clipPath></defs><g clip-path="url(#master_svg0_1_0859)"><g><path d="M7.2,0L32.8,0Q40,0,40,7.2L40,32.8Q40,40,32.8,40L7.2,40Q0,40,0,32.8L0,7.2Q0,0,7.2,0Z" fill="#FF6734" fill-opacity="1" style="mix-blend-mode:passthrough"/></g><g><path d="M28,8.8C26.232689999999998,8.8,24.8,10.23269,24.8,12C24.8,13.76731,26.232689999999998,15.2,28,15.2C29.767310000000002,15.2,31.2,13.76731,31.2,12C31.19801,10.233509999999999,29.76649,8.80199,28,8.8ZM28,6C31.31371,6,34,8.68629,34,12C34,15.31371,31.31371,18,28,18C24.68629,18,22,15.31371,22,12C22,8.68629,24.68629,6,28,6Z" fill="#FFFFFF" fill-opacity="1" style="mix-blend-mode:passthrough"/></g><g><path d="M17.599993896484374,6.400006103515625C15.169943896484375,6.400006103515625,13.199993896484376,8.369956103515625,13.199993896484376,10.800006103515624C13.199993896484376,13.230056103515626,15.169943896484375,15.200006103515625,17.599993896484374,15.200006103515625C20.030043896484376,15.200006103515625,21.999993896484376,13.230056103515626,21.999993896484376,10.800006103515624C21.997393896484375,8.371046103515624,20.028953896484374,6.402656103515625,17.599993896484374,6.400006103515625ZM17.599993896484374,3.600006103515625C21.576393896484376,3.600006103515625,24.799993896484374,6.8235561035156245,24.799993896484374,10.800006103515624C24.799993896484374,14.776406103515624,21.576393896484376,18.000006103515624,17.599993896484374,18.000006103515624C13.623543896484374,18.000006103515624,10.399993896484375,14.776406103515624,10.399993896484375,10.800006103515624C10.399993896484375,6.8235561035156245,13.623543896484374,3.600006103515625,17.599993896484374,3.600006103515625Z" fill="#FFFFFF" fill-opacity="1" style="mix-blend-mode:passthrough"/></g><g><path d="M20.79998779296875,22.00001220703125C19.032677792968748,22.00001220703125,17.59998779296875,23.432702207031248,17.59998779296875,25.20001220703125L17.59998779296875,28.80001220703125C17.59998779296875,30.56731220703125,19.032677792968748,32.00001220703125,20.79998779296875,32.00001220703125L28.39998779296875,32.00001220703125C30.16728779296875,32.00001220703125,31.59998779296875,30.56731220703125,31.59998779296875,28.80001220703125L31.59998779296875,25.20001220703125C31.59998779296875,23.432702207031248,30.16728779296875,22.00001220703125,28.39998779296875,22.00001220703125L20.79998779296875,22.00001220703125ZM20.79998779296875,19.20001220703125L28.39998779296875,19.20001220703125C31.71218779296875,19.20376128703125,34.39628779296875,21.88785220703125,34.39998779296875,25.20001220703125L34.39998779296875,28.80001220703125C34.39628779296875,32.11221220703125,31.71218779296875,34.79631220703125,28.39998779296875,34.80001220703125L20.79998779296875,34.80001220703125C17.48782779296875,34.79631220703125,14.80373535296875,32.11221220703125,14.79998779296875,28.80001220703125L14.79998779296875,25.20001220703125C14.80373687296875,21.88785220703125,17.48782779296875,19.20376128703125,20.79998779296875,19.20001220703125Z" fill="#FFFFFF" fill-opacity="1" style="mix-blend-mode:passthrough"/></g><g><path d="M14.587606103515625,27.000013876953126C14.589116103515625,26.712543876953127,14.434816103515624,26.446803876953126,14.184406103515625,26.305613876953124L9.596806103515625,23.684003876953124C9.063586103515625,23.379423876953126,8.400206103515625,23.764323876953124,8.400006103515626,24.378413876953125L8.400006103515626,29.621613876953127C8.400206103515625,30.235693876953125,9.063586103515625,30.620593876953123,9.596806103515625,30.316013876953125L14.184406103515625,27.694413876953124C14.434816103515624,27.553213876953123,14.589116103515625,27.287473876953126,14.587606103515625,27.000013876953126ZM17.387606103515623,27.000013876953126C17.385906103515623,28.291443876953124,16.694106103515622,29.483473876953127,15.573606103515624,30.125613876953125L10.986006103515624,32.74722387695313C8.585996103515626,34.11842387695312,5.600006103515625,32.385623876953126,5.600006103515625,29.621613876953127L5.600006103515625,24.378413876953125C5.600107955515625,21.614356876953124,8.586096103515626,19.881531876953126,10.986006103515624,21.252808876953125L15.573606103515624,23.874413876953124C16.694106103515622,24.516543876953126,17.385906103515623,25.708573876953125,17.387606103515623,27.000013876953126Z" fill="#FFFFFF" fill-opacity="1" style="mix-blend-mode:passthrough"/></g></g></svg>