<svg xmlns="http://www.w3.org/2000/svg" xmlns:xlink="http://www.w3.org/1999/xlink" fill="none" version="1.1" width="40" height="40" viewBox="0 0 40 40"><defs><clipPath id="master_svg0_1_0836"><rect x="0" y="0" width="40" height="40" rx="0"/></clipPath></defs><g clip-path="url(#master_svg0_1_0836)"><g><path d="M8,0L32,0C36.4,0,40,3.6,40,8L40,32C40,36.4,36.4,40,32,40L8,40C3.6,40,0,36.4,0,32L0,8C0,3.6,3.6,0,8,0Z" fill="#F40009" fill-opacity="1" style="mix-blend-mode:passthrough"/></g><g><path d="M11.20182322265625,5.82000732421875L3.60455322265625,11.18547732421875L11.20182322265625,16.758207324218752L11.20182322265625,5.82000732421875ZM11.80182322265625,5.82000732421875L11.80182322265625,16.758207324218752L19.63085322265625,11.341847324218751L11.80182322265625,5.82000732421875ZM3.60455322265625,11.96547732421875L3.60455322265625,22.82450732421875L11.07182322265625,17.39640732421875L3.60455322265625,11.96547732421875ZM11.20182322265625,17.95450732421875L11.20182322265625,28.84000732421875L3.60455322265625,23.28090732421875L11.20182322265625,17.95450732421875ZM11.80182322265625,17.95450732421875L11.80182322265625,28.84000732421875L19.25455322265625,23.39730732421875L11.80182322265625,17.95450732421875ZM12.06181322265625,29.31000732421875L19.76185322265625,34.85730732421875L19.72185322265625,23.90730732421875L12.06181322265625,29.31000732421875ZM20.25635322265625,23.90730732421875L20.25635322265625,34.85730732421875L27.92905322265625,29.29630732421875L20.25635322265625,23.90730732421875ZM20.72365322265625,23.43730732421875L28.20455322265625,17.91730732421875L28.24365322265625,28.84000732421875L20.72365322265625,23.43730732421875ZM28.73635322265625,17.91730732421875L28.73635322265625,28.84000732421875L36.41275322265625,23.34000732421875L28.73635322265625,17.91730732421875ZM28.91995322265625,17.35630732421875L36.41275322265625,22.82450732421875L36.41275322265625,11.92816732421875L28.91995322265625,17.35630732421875ZM28.73635322265625,5.82000846862875L28.73635322265625,16.758207324218752L36.41275322265625,11.21094732421875L28.73635322265625,5.82000846862875ZM28.24365322265625,5.82000846862875L20.29545322265625,11.367277324218751L28.24365322265625,16.758207324218752L28.24365322265625,5.82000846862875Z" fill="#FFFFFF" fill-opacity="1" style="mix-blend-mode:passthrough"/></g><g><path d="M15.125459130859374,9.368166537109374C15.111759130859374,9.638165537109375,14.860859130859374,9.851837537109375,14.553639130859375,9.851837537109375C14.244539130859375,9.851837537109375,13.995439130859374,9.638165537109375,13.981849130859375,9.368166537109374C13.336379130859376,9.477268537109374,13.098179130859375,9.682736537109374,12.599109130859375,9.936369537109375C12.535979130859374,9.968975537109374,12.523079130859376,10.053714537109375,12.573639130859375,10.103634537109375L12.977279130859374,10.703630537109374L13.189109130859375,10.490000537109374L13.189109130859375,12.641840537109374C13.188769130859376,12.762610537109374,13.286499130859376,12.860750537109375,13.407279130859376,12.860900537109375L15.679159130859375,12.860900537109375C15.809159130859374,12.860900537109375,15.915459130859375,12.753630537109375,15.915459130859375,12.623630537109374L15.915459130859375,10.487310537109375L16.127259130859375,10.701840537109375L16.506359130859373,10.206368537109375C16.570059130859377,10.142696537109375,16.592659130859374,9.957266537109374,16.510859130859373,9.917305537109375C16.025459130859375,9.670899537109374,15.716359130859376,9.440000537109375,15.125459130859374,9.368166537109374ZM7.810009130859375,12.763670537109375C7.819109130859375,12.779140537109376,7.970009130859375,13.026410537109374,8.258179130859375,13.038210537109375C8.412619130859376,13.040020537109374,8.560849130859374,12.977450537109375,8.667279130859376,12.865510537109376C8.695479130859376,12.890940537109374,8.886379130859375,13.047310537109375,9.156339130859376,13.010040537109376C9.319509130859375,12.985350537109376,9.466449130859374,12.897530537109375,9.565479130859375,12.765510537109375C9.586379130859374,12.779140537109376,9.810909130859375,12.920040537109376,10.004539130859374,12.823710537109374C10.213639130859374,12.719140537109375,10.239109130859376,12.435510537109375,10.200009130859375,12.267310537109374C10.176379130859374,12.170040537109376,10.136339130859376,12.137310537109375,10.022749130859374,11.974570537109376C9.997279130859376,11.937310537109376,9.888179130859374,11.749140537109374,9.670009130859375,11.369100537109375C9.562569130859375,11.183840537109376,9.456519130859375,10.997780537109374,9.351849130859375,10.810940537109374C9.389219130859374,10.627680537109375,9.431659130859375,10.445480537109376,9.479109130859374,10.264570537109375C9.530009130859375,10.064571537109375,9.560909130859375,9.975509537109374,9.518179130859375,9.864572537109375C9.504539130859374,9.828243537109374,9.490909130859375,9.805509537109375,9.372749130859376,9.619142537109376C9.458179130859374,9.442774537109376,9.453639130859376,9.286407437109375,9.381849130859376,9.237306237109374C9.337319130859374,9.207305937109375,9.274539130859374,9.226368717109375,9.263639130859374,9.228204347109376C9.160909130859375,9.259141537109375,9.088179130859375,9.387306537109374,9.088179130859375,9.550040537109375C8.926719130859375,9.557817537109376,8.778429130859376,9.641406537109376,8.688179130859375,9.775508537109374C8.586419130859376,9.644264537109375,8.433789130859374,9.562325537109375,8.268179130859375,9.550040537109375C8.274539130859376,9.398204537109375,8.211849130859374,9.275508837109374,8.111849130859376,9.238204237109375C8.098179130859375,9.233673137109376,8.040009130859374,9.210040237109375,7.9936491308593745,9.235469837109376C7.9172791308593755,9.277305637109375,7.8963791308593745,9.435469537109375,7.968179130859375,9.629141537109374C7.914389130859375,9.719134537109374,7.877999130859375,9.818437537109375,7.860909130859374,9.921876537109375C7.828179130859375,10.112774537109376,7.8700091308593745,10.278200537109376,7.900909130859375,10.390040537109375C7.956379130859375,10.601880537109375,8.014579130859374,10.645510537109375,7.998179130859375,10.771880537109375C7.984089130859375,10.867890537109375,7.939469130859375,10.956820537109374,7.870909130859375,11.025510537109374C7.629109130859375,11.460040537109375,7.389109130859374,11.898200537109375,7.147279130859375,12.332770537109376C7.108219130859375,12.514570537109375,7.187279130859375,12.700040537109375,7.342749130859374,12.790980537109375C7.489229130859375,12.879090537109375,7.674789130859375,12.868250537109375,7.810009130859375,12.763670537109375ZM5.6154791308593754,16.249140537109376C5.645479130859375,15.834570537109375,5.961849130859375,15.506410537109375,6.3381691308593755,15.467310537109375C6.7709091308593745,15.420940537109374,7.196379130859375,15.764570537109375,7.235439130859374,16.249140537109376C7.417859130859375,16.266210537109373,7.590269130859375,16.340320537109374,7.728179130859375,16.460940537109373C7.802749130859375,16.530940537109373,7.907279130859375,16.653670537109374,8.011849130859375,17.115510537109376C8.100909130859375,17.506410537109375,8.120909130859374,17.833670537109377,8.153639130859375,18.357300537109374C8.091489130859376,18.623550537109374,7.869589130859374,18.822580537109374,7.598169130859375,18.855510537109375L5.276377130859375,18.855510537109375C4.979780130859375,18.812830537109377,4.743865630859375,18.584970537109378,4.690908430859375,18.290040537109377C4.685439680859375,18.199140537109376,4.652744330859375,17.256410537109375,4.925479130859375,16.756400537109375C4.967275130859375,16.681870537109376,5.040908130859375,16.541870537109375,5.199111130859375,16.423670537109373C5.322123130859375,16.333350537109375,5.464828130859375,16.273530537109373,5.6154791308593754,16.249140537109376Z" fill="#F40009" fill-opacity="1" style="mix-blend-mode:passthrough"/></g><g><path d="M5.899078369140625,16.239984068359377L6.972708369140625,16.239984068359377Q6.866343369140625,15.771820068359375,6.436343369140625,15.771820068359375Q6.006344369140625,15.771820068359375,5.899078369140625,16.239984068359377Z" fill="#FFFFFF" fill-opacity="1" style="mix-blend-mode:passthrough"/></g><g><path d="M9.918135078125001,24.8636684765625L10.171805078125,24.8636684765625Q10.141805078125,23.7136684765625,10.171805078125,23.5345284765625C10.239075078125,23.1436284765625,10.604505078125,22.4781584765625,10.562705078125,22.2363604765625C10.473645078125,21.7199934765625,9.985435078125,21.3963607765625,9.918175078125,21.4263595565625C9.850865078125,21.4563598765625,9.274505078125,22.1008914765625,9.098135078125,22.5781584765625C8.920865078125,23.0554584765625,8.599975078125,23.7208884765625,8.551805078125,23.7299884765625C8.502705078125,23.7390984765625,7.986335078125,23.8090984765625,7.517236078125,23.9845284765625C7.084502078125,24.1463584765625,6.735439278125,24.3163584765625,6.815439578125,24.4727284765625C6.893603478125,24.6281984765625,7.351768078125,24.8636284765625,7.996295078125,24.8636284765625C8.767235078125,24.8636284765625,9.029975078125,24.8145284765625,9.167235078125,24.2372584765625C9.302705078125,23.6718284765625,9.316335078125,23.4045284765625,9.567235078125,23.1436284765625C9.585435078125,23.1254584765625,9.728175078125,22.9781584765625,9.811765078125,23.016358476562502Q9.829975078124999,23.0254584765625,9.909035078125001,23.1436284765625L9.918135078125001,24.8636684765625ZM12.854505078125001,24.7263584765625L16.259975078125002,24.7263584765625C16.302765078125,24.7162984765625,16.342615078125,24.6963684765625,16.376335078125003,24.6681584765625C16.426375078124998,24.6254684765625,16.460625078125,24.5672084765625,16.473605078125,24.5027284765625L16.473605078125,22.2272594765625C16.451925078125,22.1747664765625,16.418675078125,22.1278444765625,16.376335078125003,22.0899944765625C16.312885078125,22.0365444765625,16.233715078125,22.0052734765625,16.150865078125,22.0009324765625L15.623605078125,22.0009324765625C15.588135078125,21.9245254765625,15.525435078125,21.8845264765625,15.379075078125,21.6799944765625C15.325435078125,21.6054624765625,15.239965078125,21.5872604765625,15.183605078125,21.563627476562502L13.927235078125001,21.563627476562502C13.882705078125,21.5872604765625,13.810865078125001,21.6036274765625,13.780865078125,21.6618304765625C13.673605078125,21.8663614765625,13.576335078125,21.9199934765625,13.545435078125,22.0036274765625C13.315435078124999,22.0127284765625,13.083605078125,22.0218304765625,12.852705078125,22.0336274765625C12.739985078124999,22.0569654765625,12.656025078125001,22.1516524765625,12.646335078125,22.2663614765625L12.646335078125,24.5208984765625C12.669125078124999,24.6247884765625,12.751155078124999,24.7053984765625,12.855445078125001,24.7263584765625L12.854505078125001,24.7263584765625ZM17.118155078125,26.9536284765625L16.913555078125,27.2154584765625L17.331855078125002,27.2154584765625L17.118155078125,26.9527284765625L17.118155078125,26.9536284765625ZM14.990865078125,29.2381584765625C15.011805078125,29.0890884765625,15.132665078125,28.283628476562498,15.859975078125,27.7536284765625C16.447315078125,27.3291884765625,17.207455078125,27.2252184765625,17.887255078125,27.4763584765625C18.249955078124998,27.6208884765625,18.536355078125,27.8763584765625,18.582655078125,27.9181584765625C18.751855078125,28.0727284765625,18.896355078124998,28.2027284765625,19.003555078125,28.4254684765625C19.256355078125,28.9536284765625,19.172655078125,29.2354684765625,19.256355078125,29.2354684765625C18.929155078125,29.0409584765625,18.521755078125,29.0409584765625,18.194455078125,29.2354684765625C17.940955078125,29.0657084765625,17.623155078125002,29.022738476562502,17.333555078125002,29.1190584765625L17.333555078125002,30.7781584765625C17.300555078125,30.8787284765625,17.245955078125,30.9708784765625,17.173555078125,31.0481584765625C16.980755078125,31.246848476562498,16.694495078125,31.3236584765625,16.428135078125003,31.2481584765625C16.055435078125,31.1345284765625,15.909075078125,30.745428476562502,15.913605078125,30.5736284765625C15.915895078125,30.523398476562498,15.928585078125,30.4741784765625,15.950865078125,30.4290984765625C15.959975078125,30.4154284765625,16.037235078125,30.2754684765625,16.155435078125002,30.2799984765625C16.262705078125002,30.2854684765625,16.334505078124998,30.4036284765625,16.359975078125,30.4754684765625C16.394505078125,30.5708884765625,16.352705078125,30.6063184765625,16.389975078124998,30.6708884765625C16.450905078125,30.7827284765625,16.650905078125,30.8345584765625,16.750905078125,30.769098476562498C16.801805078125,30.734528476562502,16.903655078125,30.5708884765625,16.866355078125,30.6227284765625L16.915455078125,29.1072584765625C16.624895078125,29.0200884765625,16.310665078124998,29.0660284765625,16.057235078125,29.2327284765625C15.894495078125,29.137608476562498,15.709415078125,29.0874084765625,15.520905078125,29.0872584765625C15.334385078125,29.0923984765625,15.152135078125,29.144278476562498,14.990865078125,29.2381584765625ZM21.583555078125002,28.5999884765625L21.583555078125002,30.5481584765625C21.584555078125,30.727498476562502,21.729755078125002,30.8726384765625,21.909055078125,30.8736284765625L23.819955078125,30.8736284765625C23.971555078125,30.8736284765625,24.094455078125,30.7507084765625,24.094455078125,30.5990884765625L24.094455078125,28.607298476562498C24.094455078125,28.4917984765625,24.000855078125,28.3981584765625,23.885455078125,28.3981584765625L21.783555078124998,28.3981584765625C21.674455078125,28.3981584765625,21.583555078125002,28.4890884765625,21.583555078125002,28.5999884765625ZM21.780855078125,28.0863184765625L23.954455078125,28.0863184765625C24.018155078125,28.0863184765625,24.072655078125,28.041788476562502,24.079955078125,27.9836284765625C24.087255078125,27.9163584765625,24.059055078125,27.8418284765625,23.891855078125,27.8418284765625L21.781755078125002,27.8418284765625C21.713655078125,27.840298476562502,21.657355078125,27.8945784765625,21.656355078125,27.9627284765625C21.654455078125,28.0299884765625,21.712655078125,28.086358476562502,21.781755078125002,28.086358476562502L21.780855078125,28.0863184765625ZM21.879055078125,27.8408884765625Q22.160855078125,27.2763584765625,22.699055078125,27.2763584765625Q23.712655078125,27.2736284765625,23.821755078125,27.8418284765625L21.879055078125,27.8418284765625L21.879055078125,27.8408884765625Z" fill="#F40009" fill-opacity="1" style="mix-blend-mode:passthrough"/></g><g><path d="M22.95453362109375,27.46727L22.78547062109375,27.46727C22.72600552109375,27.4678,22.67765960709375,27.41947,22.67816619873375,27.36001L22.67816619873375,27.14633C22.67827453609375,27.087130000000002,22.72626492109375,27.03917,22.78547062109375,27.03911L22.95547062109375,27.03911C23.01462262109375,27.03897,23.06246762109375,27.087220000000002,23.06183762109375,27.14637L23.06183762109375,27.36001C23.06233862109375,27.4191,23.01456862109375,27.46727,22.95547062109375,27.46727L22.95453362109375,27.46727ZM24.98184162109375,21.991843C25.08730162109375,21.919109,25.33363162109375,21.775436,25.67547162109375,21.757272C26.10273162109375,21.73364,26.41180162109375,21.921843,26.51453162109375,21.991843L26.34910162109375,21.39817C26.32487162109375,21.3103165,26.24477162109375,21.24960022,26.15363162109375,21.25000610352L25.31457162109375,21.25000610352C25.23365162109375,21.249372864,25.16257162109375,21.3036209,25.14184162109375,21.381842L24.98274162109375,21.991843L24.98184162109375,21.991843ZM26.51183162109375,24.6009C26.40726162109375,24.67274,26.16090162109375,24.81637,25.81910162109375,24.83547C25.39184162109375,24.85817,25.08273162109375,24.67001,24.98000162109375,24.60001L25.14547162109375,25.19364C25.16926162109375,25.28153,25.24895162109375,25.34261,25.34000162109375,25.34274L26.17906162109375,25.34274C26.26090162109375,25.34274,26.33363162109375,25.286369999999998,26.35183162109375,25.21L26.51183162109375,24.6009Z" fill="#F40009" fill-opacity="1" style="mix-blend-mode:passthrough"/></g><g><path d="M24.512716674828123,23.276357822265624C24.493630948828127,23.966167822265625,25.047631548828125,24.535707822265625,25.737717548828126,24.535707822265625C26.427797548828124,24.535707822265625,26.981797548828126,23.966167822265625,26.962717548828124,23.276357822265624C26.981797548828126,22.586537822265626,26.427797548828124,22.016997822265626,25.737717548828126,22.016997822265626C25.047631548828125,22.016997822265626,24.493630948828127,22.586537822265626,24.512716674828123,23.276357822265624ZM30.342717548828126,21.729087822265626L30.217247548828126,21.729087822265626C30.165887548828124,21.728596822265626,30.124507548828124,21.686819822265626,30.124507548828124,21.635454822265626L30.124507548828124,21.177251822265625C30.124727548828126,21.126125822265625,30.166117548828126,21.084733822265626,30.217247548828126,21.084518822265625L30.342717548828126,21.084518822265625C30.394017548828124,21.084661822265623,30.435707548828127,21.125951822265623,30.436347548828124,21.177251822265625L30.436347548828124,21.635454822265626C30.436347548828124,21.687167822265625,30.394427548828126,21.729087822265626,30.342717548828126,21.729087822265626ZM31.428147548828125,21.729087822265626L31.293617548828124,21.729087822265626C31.238387548828126,21.729087822265626,31.193617548828126,21.684316822265625,31.193617548828126,21.629087822265625L31.193617548828126,21.074517822265626C31.193617548828126,21.019288622265623,31.238387548828126,20.974517822265625,31.293617548828124,20.974517822265625L31.428147548828125,20.974517822265625C31.483377548828123,20.974517822265625,31.528147548828123,21.019288622265623,31.528147548828123,21.074517822265626L31.528147548828123,21.629087822265625C31.528147548828123,21.684316822265625,31.483377548828123,21.729087822265626,31.428147548828125,21.729087822265626ZM32.52361754882813,21.729087822265626L32.381817548828124,21.729087822265626C32.32405754882812,21.729108822265626,32.27722754882812,21.682279822265624,32.27724754882813,21.624517822265624L32.27724754882813,21.186353822265627C32.277237548828126,21.128606822265624,32.324067548828125,21.081800822265624,32.381817548828124,21.081821822265624L32.52361754882813,21.081821822265624C32.58134754882813,21.081821822265624,32.628147548828125,21.128622822265626,32.628147548828125,21.186353822265627L32.628147548828125,21.624517822265624C32.62672754882813,21.681657822265624,32.58074754882813,21.727648822265625,32.52361754882813,21.729087822265626ZM32.609077548828125,25.068147822265626L30.142677548828125,25.068147822265626C29.968917548828124,25.068627822265626,29.828087548828126,24.927377822265626,29.829087548828124,24.753617822265625L29.829087548828124,22.175457822265624C29.829087548828124,22.106177822265625,29.885237548828126,22.050007822265624,29.954517548828125,22.049987822265624L32.81818754882812,22.049987822265624C32.881257548828124,22.049617822265624,32.93260754882812,22.100587822265624,32.93271754882812,22.163657822265627L32.93271754882812,24.745457822265625C32.93269754882812,24.924027822265625,32.78765754882812,25.068647822265625,32.609077548828125,25.068147822265626Z" fill="#F40009" fill-opacity="1" style="mix-blend-mode:passthrough"/></g><g><path d="M32.874515478515626,22.7827751953125Q33.44365547851562,22.8463751953125,33.634515478515624,23.1645751953125C33.84819547851563,23.5208751953125,33.73908547851563,23.937275195312502,33.49818547851562,24.1299751953125Q33.24361547851562,24.335475195312497,32.93272547851562,24.335475195312497L32.93272547851562,24.0418751953125Q33.469045478515625,23.8863751953125,33.42088547851562,23.5136751953125Q33.371825478515625,23.1408751953125,32.874515478515626,23.0836751953125L32.874515478515626,22.783675195312497L32.874515478515626,22.7827751953125ZM31.429085478515624,17.2218051953125C31.375955478515625,17.3177851953125,31.377685478515623,17.4347351953125,31.433625478515626,17.5291051953125C31.563615478515626,17.751845195312498,31.853625478515625,18.0709051953125,32.188155478515625,18.292735195312503Q32.635415478515625,18.585475195312497,32.997255478515626,18.527275195312498Q33.553615478515624,19.0345351953125,33.720885478515626,19.073635195312498C33.88815547851563,19.1136351953125,33.93455547851563,19.024535195312502,33.93455547851563,18.8881651953125L33.93455547851563,18.3409051953125Q34.32545547851562,18.1945351953125,34.52998547851563,17.9891051953125C34.734515478515625,17.7845351953125,34.85088547851562,17.647305195312498,34.969045478515625,17.6872651953125C35.08725547851562,17.7263351953125,35.37814547851563,18.1272651953125,35.60361547851562,18.1663751953125C35.82908547851562,18.2054351953125,35.99451547851562,18.068165195312503,35.915455478515625,17.8336351953125Q35.83635547851563,17.5981651953125,35.70088547851562,17.3772651953125Q35.93635547851562,17.0609051953125,35.93635547851562,16.8372751953125C35.93635547851562,16.6118351953125,35.71088547851562,16.4372651953125,35.50635547851562,16.5445351953125C35.301825478515624,16.6518451953125,35.07635547851562,17.0118451953125,34.940885478515625,17.0118451953125C34.80635547851563,17.0118451953125,34.52271547851562,16.6354751953125,34.24815547851563,16.5118451953125Q33.973615478515626,16.3881651953125,33.91635547851563,16.3481651953125Q33.98362547851563,15.762745195312501,33.91635547851563,15.674535195312501C33.84815547851562,15.585475195312501,33.595455478515625,15.683635195312501,33.437255478515624,15.801845195312499Q33.27904547851563,15.9209051953125,33.007255478515624,16.2018451953125Q32.51908547851563,16.1927351953125,31.953625478515626,16.5836351953125C31.705455478515624,16.7563751953125,31.526355478515626,17.0445751953125,31.428155478515624,17.2218451953125L31.429085478515624,17.2218051953125ZM29.731823730515625,11.4109051953125C29.700238078515625,12.352085195312501,30.454647478515625,13.1322351953125,31.396355478515623,13.1322351953125C32.338065478515624,13.1322351953125,33.092475478515624,12.352085195312501,33.06088547851562,11.4109051953125C33.092475478515624,10.4697261953125,32.338065478515624,9.6895751953125,31.396355478515623,9.6895751953125C30.454647478515625,9.6895751953125,29.700238078515625,10.4697261953125,29.731823730515625,11.4109051953125Z" fill="#F40009" fill-opacity="1" style="mix-blend-mode:passthrough"/></g><g><path d="M30.131845,8.82816006953125Q30.550015000000002,8.73273006953125,30.854545,8.85816036953125Q31.254545,9.02362926953125,31.293644999999998,9.58273126953125Q30.924545000000002,9.79636626953125,30.533645,9.50362926953125Q30.142744999999998,9.20999626953125,30.131845,8.82816006953125ZM32.310015,9.02816026953125Q31.993645,8.95636326953125,31.763645,9.05183226953125Q31.460905,9.17726126953125,31.430915,9.59815926953125Q31.712744999999998,9.76183126953125,32.007275,9.53999526953125Q32.302745,9.31909726953125,32.310015,9.02816026953125ZM24.917279,12.86546626953125L26.626375,12.86546626953125C26.640015,12.86546626953125,26.646385,12.84726626953125,26.632745,12.83999626953125C26.493535,12.76093626953125,26.348205,12.69313626953125,26.198175,12.63726626953125Q25.923645,12.539996269531251,25.847275,12.47273626953125L25.847275,11.89089626953125Q26.198175,11.59546626953125,26.432745,11.41362626953125C26.667315,11.23179626953125,27.046375,10.73452626953125,27.046375,10.31546626953125Q27.046375,9.89726626953125,26.890905,9.226364269531249L24.561847,9.226364269531249Q24.3963776,10.15726626953125,24.4827454,10.54815626953125C24.628175,11.04636626953125,25.068175,11.40636626953125,25.291847,11.61183626953125Q25.514545,11.816366269531251,25.623645,11.90452626953125L25.623645,12.49999626953125L24.908176,12.82362626953125C24.887277,12.83272626953125,24.893645,12.86542626953125,24.917279,12.86546626953125Z" fill="#F40009" fill-opacity="1" style="mix-blend-mode:passthrough"/></g><g><path d="M17.069079685546875,15.07815986328125L17.829077685546874,13.45635986328125L18.415407685546874,15.03815986328125L19.039977685546877,15.11815986328125L19.039977685546877,15.674519863281251L19.995447685546875,15.47908986328125L19.302717685546874,13.50635986328125L21.155447685546875,14.28815586328125L20.723607685546874,15.60455986328125L21.625447685546874,15.39998986328125L22.425447685546875,13.45635986328125L23.743607685546877,14.48362986328125L22.443607685546876,15.48815986328125L23.743607685546877,15.47909986328125L24.063607685546874,16.48362986328125L23.234507685546873,16.48362986328125L22.940877685546873,17.696359863281252L24.005447685546876,17.91725986328125L24.347247685546876,18.87635986328125L23.078147685546874,19.02272986328125L22.785447685546874,21.06362986328125L22.092717685546873,21.51452986328125L21.653647685546876,18.93635986328125L20.817247685546874,18.87635986328125L20.295447685546876,21.07545986328125L19.565447685546875,21.51451986328125L19.479977685546874,19.01362986328125L18.854507685546874,18.94545986328125L18.609977685546873,18.18178986328125L18.326347685546875,18.55451986328125L17.935447685546876,21.56182986328125L16.385447685546875,20.45815986328125L17.380877685546874,20.17635986328125L17.197287685546875,18.72909986328125L16.650877685546874,19.189989863281248L16.180877685546875,17.62631986328125L17.264507685546874,17.45182986328125L17.137245685546876,16.35815986328125L16.815447685546875,16.28815986328125L16.297244685546875,15.34182986328125L17.069079685546875,15.07815986328125Z" fill="#FFFFFF" fill-opacity="1" style="mix-blend-mode:passthrough"/></g><g><path d="M18.70821952734375,15.927276611328125L18.40548552734375,16.327276611328124L18.25091552734375,17.451846611328126L19.18728352734375,17.396376611328126L18.90368952734375,18.017276611328125L19.84001552734375,17.684536611328124L19.63091552734375,16.710009611328125L19.00091552734375,16.532743611328126L18.70818152734375,15.928173828328125L18.70821952734375,15.927276611328125ZM21.05821552734375,16.698174611328124L21.84911552734375,16.523643611328126L21.95817552734375,17.635476611328126L20.88364552734375,17.842746611328124L21.05817552734375,16.697277611328126L21.05821552734375,16.698174611328124Z" fill="#F40009" fill-opacity="1" style="mix-blend-mode:passthrough"/></g></g></svg>