<svg xmlns="http://www.w3.org/2000/svg" xmlns:xlink="http://www.w3.org/1999/xlink" fill="none" version="1.1" width="40" height="40.05000305175781" viewBox="0 0 40 40.05000305175781"><g><g><path d="M34.577,0L5.4218,0C2.43559,0,0.00000820552,2.39652,0.00000820552,5.42238L0.00000820552,34.577C-0.00249607,36.0177,0.568309,37.4001,1.58604,38.4179C2.60377,39.4358,3.98447,40.0051,5.42242,40L34.5776,40C37.5632,40,40,37.6028,40,34.577L40,5.42238C39.9994,2.39652,37.5632,0,34.577,0Z" fill="#FF002B" fill-opacity="1"/></g><g><path d="M36,39.95000076293945C35.35065,40.01441936293946,34.67741,40.04808156293945,34,40.050000762939455C34.601749,40.050000762939455,35.2504,40.016313762939454,36,39.95000076293945L36,39.95000076293945Z" fill="#FFFFFF" fill-opacity="1"/></g><g><path d="" fill="#111111" fill-opacity="1"/></g><g><path d="M37,38.144890000000004C37,36,35.00957,34.144886,32.508223,34.0724428C32.423969,34,32.339714,34,32.254112,34C32.169857,34,32.0842545,34,32,34.0724428L32.550013,34.0724428C33.27123,34.363373,33.82192,36.07244,33.82192,38.144890000000004C33.82192,38.83628,33.73767,39.45349,33.65341,40L34.92397,40C35.55958,40,36.11027,39.9264,36.619839999999996,39.78151C36.91575,39.23616,37,38.69023,37,38.144890000000004Z" fill="#FFFFFF" fill-opacity="1"/></g><g><path d="M8.049999809265136,33.050000762939455C8.033288909265137,32.95000076293945,8.016578009265137,32.95000076293945,7.999867209265137,32.95000076293945C7.983156309265136,32.95000076293945,7.966578009265136,32.95000076293945,7.949999809265137,33.050000762939455L8.049999809265136,33.050000762939455L8.049999809265136,33.050000762939455Z" fill="#111111" fill-opacity="1"/></g><g><path d="M7.1732,34C4.84988,34.0733281,3,35.95111,3,38.12221C3,38.67423,3.157184,39.22683,3.432725,39.77884C3.944355,39.9255,4.41653,40,5.00769,40L6.18876,40C6.109859999999999,39.44681,6.03158,38.82206,6.03158,38.12221C5.99275,36.02503,6.50376,34.294486,7.1732,34ZM7.68546,34C8.35427,34.294486,8.94543,36.02444,8.94543,38.12221C8.94543,38.82206,8.866530000000001,39.44681,8.78762,40L11.46475,40C11.79918,39.42363,11.97481,38.77821,11.97576,38.12221C11.85865,35.9517,10.008140000000001,34.0733281,7.68546,34ZM27.3704,38.12221C27.3704,35.95111,29.2209,34.0733281,31.5436,34C30.8741,34.294486,30.4013,36.02503,30.4007,38.12221C30.4007,38.82206,30.4802,39.44681,30.5585,40L27.8814,40C27.5282,39.44681,27.3704,38.82206,27.3704,38.12221ZM20.4411,37.275710000000004L18.787300000000002,37.275710000000004C18.2756,37.275710000000004,18.1184,37.49687,18.3545,37.82773L18.8662,38.45307C19.0233,38.67422,19.2995,39.00508,19.3784,39.15232C19.4567,39.22624,19.4567,39.22624,19.6145,39.22624C19.7723,39.22624,19.8506,39.15232,19.8506,39.15232C20.0084,39.00508,20.1656,38.67422,20.3622,38.45307L20.795,37.82773C21.1099,37.49687,20.9528,37.275710000000004,20.4411,37.275710000000004ZM38,38.67482C37.4095,39.15351,36.6605,39.558279999999996,35.9134,39.77943C36.6611,39.52191,37.3312,39.15351,38,38.67482Z" fill-rule="evenodd" fill="#FFFFFF" fill-opacity="1"/></g><g><path d="M0,34.71958303451664C0,36.31970778930664,0.799732,37.759187789306644,1.97924,38.79958778930664C0.715338,37.759187789306644,0,36.31970778930664,0,34.71958303451664ZM1.85263,38.79957778930664C2.48424,39.40010778930664,3.20025,39.759657789306644,3.99998,39.99999778930664C3.32617,39.72012778930664,2.48358,39.31977778930664,1.85263,38.79957778930664Z" fill-rule="evenodd" fill="#111111" fill-opacity="1"/></g><g><path d="M34.8813,27.44151C35.1173,27.0779,36.7317,25.382106,38.3061,26.311412C39.7238,27.15898,39.9987,29.82398,40,31.68195L40,34.50783C39.998,36.052099999999996,39.3535,37.5218,38.229,38.5462C37.6385,39.072,36.8908,39.5154,36.1425,39.757999999999996C36.4174,39.1524,36.5752,38.5462,36.5752,37.9406C36.5752,35.55877,34.7247,33.49937,32.402,33.41828C32.3238,33.33783,32.2442,33.33783,32.166,33.33783C32.0864,33.33783,32.0081,33.33783,31.9299,33.41828C29.6072,33.49937,27.7567,35.55877,27.7567,37.9406C27.7578,38.66,27.9332,39.3677,28.2671,40L11.7329,40C12.0867,39.3951,12.2445,38.7084,12.2445,37.9406C12.2445,35.55877,10.3928,33.49937,8.07076,33.41828C7.99249,33.33783,7.91358,33.33783,7.83468,33.33783C7.75577,33.33783,7.6775,33.33783,7.59859,33.41828C5.2753,33.49937,3.42544,35.55877,3.42544,37.9406C3.42544,38.6279,3.62145,39.2329,3.85816,39.757999999999996C3.12285,39.4828,2.4425,39.0721,1.85049,38.5462C0.668806,37.4972,0,36.042699999999996,0,34.42739L0,31.6015C0.0782779,29.82398,0.353816,27.15898,1.77096,26.270224C3.26876,25.387056,4.7303,26.914753,5.14138,27.34443C5.16255,27.36656,5.18094,27.38578,5.1964,27.40161C7.36125,29.82398,9.60564,32.89378,13.7788,32.89378L26.2989,32.89378C30.472,32.89378,32.7947,29.904420000000002,34.8813,27.44151ZM20.8664,38.1427L21.2991,37.5371C21.5346,37.173500000000004,21.3774,36.9308,20.8658,36.9315L19.2119,36.9315C18.7792,36.9315,18.5431,37.214,18.7792,37.5371L19.2908,38.2231C19.4881,38.4657,19.6452,38.8287,19.8031,38.9902C19.8031,38.9902,19.8813,39.0713,20.0391,39.0713C20.197,39.0713,20.2752,38.9902,20.3541,38.9092C20.433,38.7483,20.6303,38.3853,20.8664,38.1427Z" fill-rule="evenodd" fill="#111111" fill-opacity="1"/></g><g><path d="M7.24334,34L7.74821,34C8.4082,34.294486,8.87476,36.02503,8.87476,38.12221C8.87476,38.82206,8.7969,39.44681,8.71903,40L6.155108,40C6.0778632,39.44681,6,38.82206,6,38.12221C6,36.02444,6.582738,34.294486,7.24334,34ZM31.2913,34L31.7956,34C32.4574,34.294486,32.9617,36.02503,33,38.12221C33,38.82206,32.922799999999995,39.44681,32.8455,40L30.281,40C30.2037,39.44681,30.1252,38.82206,30.1252,38.12221C30.1252,36.02444,30.6314,34.294486,31.2913,34Z" fill-rule="evenodd" fill="#111111" fill-opacity="1"/></g><g><path d="M24.0845,7.791729C23.2482,6.9535324,21.8936,6.9535324,21.1371,7.0330275L20.978,7.0330275L20.978,8.54916L21.2163,8.54916C21.7345,8.54916,22.6507,8.54916,23.0885,8.86841C23.169,8.94854,23.3274,9.10817,23.3274,9.62648L23.3274,10.14478L20.978,11.58142L21.7352,12.93792L23.328,12.02023L23.328,13.69599L20.9787,15.13262L21.735799999999998,16.48913L23.3287,15.57144L23.3287,16.84845C23.3287,17.167099999999998,23.1703,17.7661,22.8908,18.045299999999997C22.1343,18.963,20.9394,19.6416,20.9394,19.6416L21.6965,20.9987C21.7757,20.9987,23.2102,20.1605,24.0465,19.0425C24.4843,18.4453,24.8037,17.6065,24.8037,16.84845L24.8037,9.74667C24.7612,8.90911,24.5223,8.31067,24.0845,7.791729ZM13.68797,13.37801L19.503700000000002,13.37801L19.503700000000002,11.86188L13.5283,11.86188L13.5283,8.62993L18.9461,8.62993L18.9461,7.0330276L6.598108,7.0330276L6.598108,8.54916L12.01529,8.54916L12.01529,11.781749999999999L6,11.781749999999999L6,13.29788L11.81571,13.29788C11.218869999999999,15.57207,9.3859,17.5277,6,19.4832L6.756505,20.840400000000002C8.86762,19.642899999999997,11.49638,17.887,12.850999999999999,15.17333C13.16969,15.8519,13.6075,16.52983,14.20561,17.209C15.32073,18.486,16.834400000000002,19.642899999999997,18.9455,20.840400000000002L19.701999999999998,19.4832C16.1571,17.607799999999997,14.28544,15.65284,13.68797,13.37801ZM28.666,10.74386L27.1511,10.74386L27.1511,9.54698L25.7179,9.54698L25.7179,8.03021L27.1511,8.03021L27.1511,7.0330276L28.666,7.0330276L28.666,8.03021L31.9714,8.03021L31.9714,7.0330276L33.4851,7.0330276L33.4851,7.950719L35,7.950719L35,9.46685L33.4851,9.46685L33.4851,10.74386L31.9714,10.74386L31.9714,9.46685L28.666,9.46685L28.666,10.74386ZM25.678,18.7252L25.678,11.78239L34.9588,11.78239L34.9588,18.7252C34.9588,20.002200000000002,33.9628,21,32.688,21L27.9475,21C26.6727,21,25.678,20.002200000000002,25.678,18.7252ZM29.5809,15.57271L27.2309,15.57271L27.2309,13.29852L29.5809,13.29852L29.5809,15.57271ZM33.4844,15.57271L31.1345,15.57271L31.1345,13.29852L33.4844,13.29852L33.4844,15.57271ZM33.4844,18.7252C33.4844,19.164,33.166399999999996,19.4832,32.7286,19.4832L31.1345,19.4832L31.1345,17.1289L33.4844,17.1289L33.4844,18.7252ZM29.5809,19.4037L27.9868,19.4037C27.549,19.4037,27.2309,19.0845,27.2309,18.645699999999998L27.2309,17.1295L29.5809,17.1295L29.5809,19.4037Z" fill-rule="evenodd" fill="#FFFFFF" fill-opacity="1"/></g></g></svg>