<svg xmlns="http://www.w3.org/2000/svg" xmlns:xlink="http://www.w3.org/1999/xlink" fill="none" version="1.1" width="40" height="40" viewBox="0 0 40 40"><rect x="0" y="0" width="40" height="40" rx="6" fill="#FFE178" fill-opacity="1"/><path d="M27.474119,19.27835659375C26.349411,19.05508469375,26.895235,18.451400293749998,26.895235,18.451400293749998C26.895235,18.451400293749998,27.995087,16.63205199375,26.671963,15.30892679375C25.03458,13.67151899375,21.056857,15.51566649375,21.056857,15.51566649375C19.535259,15.98703669375,19.940471000000002,15.300660593749999,20.155478000000002,14.13462229375C20.155478000000002,12.75357889375,19.684109,10.42155683375,15.6319609,11.80257335375C11.5880799,13.183617193749999,8.1065516,18.03792189375,8.1065516,18.03792189375C5.69181222,21.26311399375,6.014334005,23.752252093750002,6.014334005,23.752252093750002C6.61801881,29.25157009375,12.4646873,30.76493309375,17.013005,31.12054409375C21.792887,31.50095709375,28.251478,29.47486909375,30.20314,25.315233093750003C32.163044,21.147330293750002,28.607092,19.501657493750002,27.474119,19.27835659375ZM17.360295999999998,29.57409309375C12.6135068,29.78909909375,8.7763925,27.40742309375,8.7763925,24.24015309375C8.7763925,21.07285399375,12.6135068,18.52582599375,17.360295999999998,18.31079249375C22.115351,18.08752109375,25.960758,20.047395693749998,25.960758,23.214723093750003C25.960758,26.382022093750003,22.115353,29.35908709375,17.360295999999998,29.57409309375Z" fill="#D81E06" fill-opacity="1" style="mix-blend-mode:passthrough"/><path d="M16.4173212,20.39437086125C11.63743973,20.95672476125,12.19149893,25.43058873125,12.19149893,25.43058873125C12.19149893,25.43058873125,12.141846485,26.84469743125,13.4732928,27.56416513125C16.2684455,29.07749753125,19.1463156,28.16784953125,20.601757,26.29063843125C22.0489578,24.41342543125,21.197176,19.84028339125,16.4173212,20.39437086125ZM15.2099781,26.679344131249998C14.316863999999999,26.77856783125,13.597423899999999,26.26586583125,13.597423899999999,25.521600231249998C13.597423899999999,24.77733473125,14.2424405,24.00000193125,15.1355815,23.90904543125C16.1527712,23.80982233125,16.822587,24.39697603125,16.822587,25.14950803125C16.822587,25.88547943125,16.0948529,26.57188323125,15.2099781,26.679344131249998L15.2099781,26.679344131249998ZM18.0216365,24.28108283125C17.7239408,24.504355431249998,17.3517942,24.47126243125,17.1946793,24.19836473125C17.0292706,23.93370653125,17.087163,23.51196143125,17.3931513,23.28866243125C17.7487383,23.02400473125,18.1125927,23.10674953125,18.2779999,23.37138103125C18.435142,23.63603903125,18.3193588,24.04125093125,18.0216365,24.28108283125Z" fill="#040000" fill-opacity="1" style="mix-blend-mode:passthrough"/><path d="M29.79780479375,17.33485217727051C30.18648479375,17.33485217727051,30.51724479375,17.053716677270508,30.56689689375,16.681541877270508C30.57516289375,16.656715877270507,30.57516289375,16.631917977270508,30.57516289375,16.59882547727051C31.162315893749998,11.355867627270507,26.28318464375,12.257220346270508,26.28318464375,12.257220346270508C25.84490811375,12.257220346270508,25.49755859375,12.604568537270508,25.49755859375,13.042845427270509C25.49755859375,13.472883677270508,25.84490543375,13.828470777270507,26.28318464375,13.828470777270507C29.78124429375,13.051111817270508,29.01220799375,16.557493677270507,29.01220799375,16.557493677270507C29.01220799375,16.987531677270507,29.36779569375,17.33485217727051,29.79780479375,17.33485217727051Z" fill="#E59410" fill-opacity="1" style="mix-blend-mode:passthrough"/><path d="M29.227328278637696,8.1885151C27.540294878637695,7.79156935,25.811957478637694,8.13062374,25.324028428637696,8.22160763C25.282669248637696,8.22160763,25.249631638637695,8.26296642,25.216512138637697,8.27126014C25.199979248637696,8.27126014,25.191685918637695,8.28779271,25.191685918637695,8.28779271C24.703755618637697,8.42840168,24.356462478637695,8.86667877,24.356462478637695,9.3959399C24.356462478637695,10.0161574,24.860924358637696,10.5371797,25.497703178637696,10.5371797C25.497703178637696,10.5371797,26.109654378637696,10.446223,26.531427878637697,10.289054199999999C26.936638378637696,10.1154077,30.434727678637696,10.1650054,32.17135667863769,13.0759678C33.122362178637694,15.2095447,32.5848359786377,16.6319199,32.51870437863769,16.8552189C32.51870437863769,16.8552189,32.2954334786377,17.4092798,32.2954334786377,17.9550724C32.2954334786377,18.583556,32.79989527863769,18.980528,33.4283790786377,18.980528C33.957638778637694,18.980528,34.395944478637695,18.906132,34.528233478637695,18.021256L34.5364974786377,18.021256C36.39717547863769,11.8107071,32.2540726786377,8.89153266,29.227328278637696,8.1885151L29.227328278637696,8.1885151Z" fill="#E59410" fill-opacity="1" style="mix-blend-mode:passthrough"/></svg>