<svg xmlns="http://www.w3.org/2000/svg" xmlns:xlink="http://www.w3.org/1999/xlink" fill="none" version="1.1" width="40" height="40" viewBox="0 0 40 40"><defs><clipPath id="master_svg0_1_0874"><rect x="0" y="0" width="40" height="40" rx="0"/></clipPath></defs><g clip-path="url(#master_svg0_1_0874)"><g><path d="M34.5815,0L5.4183,0C2.43596,0,0,2.39316,0,5.4245L0,34.5755C0,37.5613,2.41319,40,5.39554,40L34.5815,40C37.5639,40,39.9998,37.6068,39.9998,34.5755L39.9998,5.4245C40.0226,2.39316,37.5866,4.34723e-7,34.5815,0Z" fill="#E20781" fill-opacity="1" style="mix-blend-mode:passthrough"/></g><g><path d="M27.0662,31.1381L27.0662,26.0121C28.5373,26.081,29.9164,26.104,31.2725,26.219C32.0081,26.2879,32.5137,26.173,32.5597,25.3225C32.5827,24.5639,32.2839,24.2191,31.4564,24.2651C30.0083,24.334,28.5603,24.2881,27.0662,24.2881L27.0662,19.9206C28.5373,19.9206,29.9164,19.828699999999998,31.2955,19.9666C32.054,20.035600000000002,32.490700000000004,20.058500000000002,32.536699999999996,19.162100000000002C32.5827,18.2196,32.077,18.1047,31.2955,18.1277C29.8934,18.1736,28.4683,18.1507,26.9972,18.1507L26.9972,12.955680000000001C28.4683,12.955680000000001,29.9624,12.97866,31.4564,12.955680000000001C32.6516,12.932690000000001,33.0424,12.47296,32.9964,11.11675L19.6649,11.11675L21.3199,7.186038C19.2972,6.77228,18.9524,6.9791586,18.1249,8.51926C17.1595,10.3352,16.14816,12.105170000000001,15.15979,13.89813C15.06785,14.08202,14.88397,14.219940000000001,14.53919,14.610710000000001L14.53919,11.047789999999999L7,11.047789999999999L7,31.7817C8.769870000000001,31.7817,10.49377,31.8047,12.19469,31.7817C13.80366,31.7587,14.60815,30.9312,14.60815,29.3221C14.60815,26.6097,14.76905,23.8973,14.56218,21.207900000000002C14.40128,19.0931,15.57353,17.8518,16.92967,16.19679L16.92967,31.6898C16.92967,32.494299999999996,17.2745,33,18.1709,33C22.630000000000003,32.977000000000004,27.0892,32.977000000000004,31.5484,32.931C32.6057,32.908100000000005,33.019400000000005,32.3564,32.950500000000005,31.1151L27.0662,31.1381ZM11.96483,29.2992L9.48242,29.2992L9.48242,13.20853L11.96483,13.20853L11.96483,29.2992ZM24.331,31.7587L19.3891,31.7587C19.3891,30.2646,19.3661,28.7705,19.412100000000002,27.2763C19.412100000000002,27.1154,19.7569,26.8396,19.9408,26.8396C21.3658,26.7936,22.7909,26.8166,24.331,26.8166L24.331,31.7587ZM24.331,24.334L19.3891,24.334C19.3891,23.2307,19.3661,22.1503,19.412100000000002,21.047C19.412100000000002,20.909,19.7339,20.6562,19.9178,20.633200000000002C21.182000000000002,20.5872,22.469099999999997,20.5872,23.7333,20.633200000000002C23.9402,20.633200000000002,24.285,20.932000000000002,24.285,21.0929C24.3539,22.173299999999998,24.3309,23.2307,24.331,24.334ZM24.331,18.1507L19.3891,18.1507L19.3891,13.20853C20.883200000000002,13.20853,22.377200000000002,13.18554,23.8483,13.23152C24.0092,13.23152,24.308,13.64528,24.308,13.85215C24.3539,15.25434,24.331,16.63353,24.331,18.1507ZM26.3307,11.96725C26.6755,11.737390000000001,26.8823,11.62245,27.0892,11.50752C28.2844,10.65702,28.3074,10.5191,27.457,9.323789999999999C26.9053,8.54225,26.3537,7.760703,25.825,7.0251311C25.3883,7.36993,24.9286,7.57681,24.6527,7.944596C24.4229,8.26641,24.239,8.86406,24.3999,9.1399C24.9286,10.10534,25.6411,10.97883,26.3307,11.96725Z" fill="#FFFFFF" fill-opacity="1" style="mix-blend-mode:passthrough"/></g></g></svg>