<svg xmlns="http://www.w3.org/2000/svg" xmlns:xlink="http://www.w3.org/1999/xlink" fill="none" version="1.1" width="40" height="40" viewBox="0 0 40 40"><rect x="0" y="0" width="40" height="40" rx="6" fill="#FF2442" fill-opacity="1"/><path d="M28.34734634980774,14L30.57862434980774,14L30.57862434980774,14.7693975C30.57862434980774,14.83078557,30.60979034980774,14.85943276,30.67070734980774,14.85806865C31.99389034980774,14.81987149,33.32698934980774,14.86079675,34.009833349807735,16.1676817C34.416423349807744,16.9425359,34.33283534980774,18.1211882,34.31016834980774,19.046103C34.308751349807736,19.1006699,34.33566934980774,19.1306815,34.38950234980774,19.1361384C34.54534034980774,19.1497803,34.69692334980774,19.1634216,34.84425834980774,19.181155699999998C37.475039349807744,19.4853678,36.955117349807736,21.874046800000002,36.96361834980774,23.751158699999998C36.96787334980774,24.405965000000002,36.891370349807744,24.884791,36.736953349807735,25.190371C36.411115349807744,25.823351000000002,35.82743734980774,26.186222,34.98593034980774,26.276258L33.34540634980774,26.276258L32.50673034980774,24.401875C32.49820834980774,24.383274,32.499797349807736,24.361819,32.510981349807736,24.344579C32.52206134980774,24.327727,32.54126834980774,24.317451,32.56198034980774,24.317294L34.341330349807734,24.31593C34.44050134980774,24.31593,34.53399934980774,24.275005,34.60200234980774,24.204067000000002C34.67079134980774,24.132541,34.70833334980774,24.038255,34.70683934980774,23.9407806C34.69833634980774,23.367825500000002,34.69408934980774,22.7962332,34.69692334980774,22.2246418C34.69692334980774,21.7103467,34.44475434980774,21.4470587,33.93616434980774,21.4334183C33.36098934980774,21.4197755,32.27155834980774,21.4197755,30.666459349807738,21.4361463C30.60979034980774,21.4361463,30.58145434980774,21.4661565,30.58145434980774,21.5248175L30.57295534980774,26.276258L28.34451234980774,26.276258L28.33743034980774,21.5043554C28.33901934980774,21.4571137,28.300092349807738,21.4177852,28.25101034980774,21.4170485L26.16848534980774,21.4170485C26.114825349807738,21.4155722,26.07212934980774,21.3732476,26.07215234980774,21.3215556L26.07498434980774,19.2452736C26.07498434980774,19.1757007,26.10898734980774,19.1402321,26.17698434980774,19.1402321L28.235425349807738,19.1443243C28.26232034980774,19.1441298,28.28794234980774,19.1332736,28.30626234980774,19.114312599999998C28.32469134980774,19.0949745,28.334819349807738,19.069623,28.334594349807738,19.0433745L28.334594349807738,17.2481132C28.33619034980774,17.1830764,28.28311134980774,17.1289258,28.21559234980774,17.1267011L26.94482934980774,17.1321576C26.878245349807738,17.1321576,26.84566234980774,17.098053,26.84566234980774,17.0312083L26.84141234980774,14.94401312C26.84141234980774,14.8826251,26.869750349807738,14.85261226,26.93349734980774,14.85261226L28.249595349807738,14.85261226C28.30626234980774,14.85261226,28.334594349807738,14.82532918,28.334594349807738,14.76666933L28.348761349807738,14L28.34734634980774,14ZM30.65795634980774,19.1470518L32.04205834980774,19.1443243C32.06472734980774,19.1443243,32.08597634980774,19.1347761,32.10155634980774,19.1184044C32.11735034980774,19.1021528,32.12598334980774,19.0806365,32.12564434980774,19.0583811L32.11855834980774,17.3899882C32.11855834980774,17.259027500000002,32.01939134980774,17.1526206,31.89897234980774,17.1526206L30.788293349807738,17.1553483C30.72814634980774,17.1562119,30.67132734980774,17.1820784,30.63245934980774,17.2262866C30.59024934980774,17.2736971,30.56756734980774,17.3343697,30.568707349807738,17.3968084L30.57578934980774,19.0652013C30.57578934980774,19.1115828,30.61403934980774,19.1470518,30.65795634980774,19.1470518ZM16.34094834980774,19.297112C15.80260774980774,19.3066597,14.82934684980774,19.4512639,14.61684444980774,18.7841802C14.48792674980774,18.385839,14.779763449807739,17.8306186,14.95684744980774,17.4418263C15.461187649807739,16.3354757,15.95561134980774,15.2250329,16.44153434980774,14.11049791C16.461367349807738,14.065480292,16.49536734980774,14.042289447,16.54353434980774,14.042289447L18.672811349807738,14.042289447C18.69123034980774,14.042289447,18.70681234980774,14.051838018,18.71531234980774,14.066844374C18.72523134980774,14.081405796,18.72733734980774,14.099651113,18.72097934980774,14.11595423L17.488463349807738,16.8893323C17.46013134980774,16.953448299999998,17.46721234980774,17.0257504,17.50404534980774,17.0857747C17.54026434980774,17.1429007,17.60454534980774,17.1779742,17.67404934980774,17.1785393L19.49873934980774,17.1785393C19.52140434980774,17.1785393,19.541240349807737,17.1894534,19.55398934980774,17.2071867C19.56532534980774,17.226285,19.56815734980774,17.248112,19.558238349807738,17.2685747C19.03123334980774,18.4513197,18.50564234980774,19.6258783,17.98147034980774,20.7922521C17.92905134980774,20.9082079,17.90638534980774,20.994151600000002,17.914886349807738,21.0487189C17.93330434980774,21.1674027,18.00272034980774,21.2274265,18.121723349807738,21.2287912L19.27632034980774,21.235611900000002C19.342902349807737,21.2369752,19.36415434980774,21.268352,19.33723534980774,21.3311048L18.590643349807742,23.0226889C18.56934334980774,23.080125799999998,18.512300349807738,23.118025799999998,18.448976349807737,23.1168175C17.275961349807737,23.1304598,16.45570134980774,23.1304598,15.98819534980774,23.1099977C15.21468564980774,23.0758905,15.02485104980774,22.423813799999998,15.325186949807739,21.7512732L16.386284349807738,19.3666868C16.39256434980774,19.351449,16.390987349807737,19.3342485,16.38203434980774,19.3203049C16.37328934980774,19.3057179,16.357021349807738,19.2968402,16.33953234980774,19.2971139L16.34094834980774,19.297112ZM7.49375484980774,26.276258L6.657910999807739,26.276258L5.83906761280774,24.425065C5.83079611490774,24.406892,5.8323871090077395,24.385953999999998,5.843317738707739,24.369132999999998C5.853276747807739,24.352518,5.871565010807739,24.342157999999998,5.891484927807739,24.34185L7.047498949807739,24.339122C7.196954349807739,24.336140999999998,7.315582649807739,24.217022,7.312418649807739,24.073106L7.3435857498077395,14.25510228C7.341999749807739,14.20183282,7.385999549807739,14.15762018,7.441336749807739,14.15688106L9.430361249807738,14.15688106C9.523862849807738,14.15688106,9.570612949807739,14.20462684,9.572030549807739,14.29875579C9.58053064980774,17.6232636,9.58053064980774,20.8904757,9.572030549807739,24.101754C9.56636334980774,25.419553,8.931689049807739,26.319910999999998,7.49375484980774,26.276258Z" fill="#FFFFFF" fill-opacity="1" style="mix-blend-mode:passthrough"/><path d="M26.151459,26.27626061869812L18.606197,26.27626061869812L19.617708,24.07993001869812C19.638412,24.02774981869812,19.691507,23.99421481869812,19.74946,23.996715318698122L21.596815,23.99944381869812C21.661982,23.99944381869812,21.695984,23.96806691869812,21.695984,23.90395041869812L21.695984,17.23993041869812C21.695984,17.18263461869812,21.667652,17.15398721869812,21.610985,17.15398721869812L20.385551,17.15262291869812C20.330301,17.15262291869812,20.286385,17.10624171869812,20.286385,17.05030961869812L20.286385,14.91263918569812C20.286385,14.87989830569812,20.311884,14.85261521069812,20.344467,14.85261521069812L25.339697,14.85261521069812C25.402033,14.85261521069812,25.43178,14.88399200869812,25.43178,14.94674414869812L25.434612,17.06122401869812C25.434612,17.12261221869812,25.403448,17.153988618698122,25.341112,17.153988618698122L24.105764,17.153988618698122C24.049093,17.153988618698122,24.020761,17.18263601869812,24.020761,17.23993181869812L24.020761,23.89985921869812C24.020761,23.96397561869812,24.053349,23.99535251869812,24.115683,23.99535251869812L26.07354,23.99944571869812C26.127373,23.99944571869812,26.154291,24.026727418698123,26.154291,24.081295718698122L26.151459,26.27762461869812L26.151459,26.27626061869812ZM35.137482,15.05997021869812C36.678837,14.03956275869812,37.764019,16.64105451869812,36.075325,17.08714131869812C35.800488,17.16080761869812,35.362736,17.16489981869812,34.763481,17.10078381869812C34.709648,17.09532741869812,34.684145,17.06667871869812,34.684145,17.01211261869812C34.675644,16.39823211869812,34.549561,15.44876265869812,35.137482,15.06133427869812L35.137482,15.05997021869812ZM13.860302,22.70892881869812L12.8402882,24.99665861869812C12.7482023,25.201285618698122,12.6476192,25.20537861869812,12.5357008,25.013027618698118C11.7848587,23.706143118698122,11.5298548,22.63935441869812,11.3825207,21.01461581869812C11.2691851,19.75274971869812,11.1714344,18.49088211869812,11.0864334,17.22628661869812C11.083601,17.16899081869812,11.1105175,17.140343618698118,11.1671848,17.140343618698118L13.234127,17.14170761869812C13.292212,17.14170761869812,13.324794,17.17171881869812,13.329045,17.22901461869812C13.435297,18.69960121869812,13.547214,20.16609501869812,13.663383,21.62849591869812C13.693132,22.00500991869812,13.759719,22.31740691869812,13.861718,22.56568741869812C13.882183,22.611500518698122,13.881669,22.66349431869812,13.860302,22.70892881869812ZM3,22.624348918698118L3,22.53022071869812C3.097119637,22.403215218698122,3.16036156,22.25518771869812,3.18416891,22.09914041869812C3.33717093,20.47576691869812,3.46183884,18.85375571869812,3.55959022,17.23038191869812C3.56384039,17.17990751869812,3.58934081,17.15398721869812,3.63892454,17.15398721869812L5.7497845000000005,17.15398721869812C5.768201599999999,17.15398721869812,5.786618,17.16217161869812,5.800784800000001,17.17717811869812C5.813535,17.19082041869812,5.8206188999999995,17.20991901869812,5.819202199999999,17.22901771869812C5.7078931,18.72467161869812,5.5836928,20.219409218698118,5.446614,21.713078218698122C5.3474464,22.79760101869812,4.9876089,24.249089018698122,4.2353491000000005,25.12898661869812C4.1871819,25.184917618698123,4.146098,25.179460618698123,4.1149309,25.11125461869812L3,22.624348918698118ZM17.396347,26.27626061869812L14.339141,26.27626061869812L13.949552,26.12756461869812C13.894301,26.107099618698122,13.878719,26.07026961869812,13.904219,26.01706461869812L14.863314,23.90258481869812C14.891648,23.841196818698123,14.936983,23.81800631869812,15.00215,23.83437611869812C16.050497,24.10857751869812,17.264597000000002,23.99534961869812,18.337027,23.99944281869812C18.40361,24.00080661869812,18.422027,24.032183418698118,18.393694,24.09220771869812L17.396347,26.274896618698122L17.396347,26.27626061869812Z" fill="#FFFFFF" fill-opacity="1" style="mix-blend-mode:passthrough"/></svg>