<svg xmlns="http://www.w3.org/2000/svg" xmlns:xlink="http://www.w3.org/1999/xlink" fill="none" version="1.1" width="40" height="40" viewBox="0 0 40 40"><defs><clipPath id="master_svg0_257_36541"><rect x="7" y="7" width="26" height="26" rx="0"/></clipPath></defs><rect x="0" y="0" width="40" height="40" rx="6" fill="#F01227" fill-opacity="1"/><g clip-path="url(#master_svg0_257_36541)"><path d="M19.990144375,12.22031975625C20.019266375,10.80951955625,18.904695475,9.63947866125,17.494144475,9.60009765625C16.542907675000002,9.61330921125,15.683588475,10.17102420625,15.284144375,11.03443085625C14.730055775,11.847875556249999,14.076430775,12.58884545625,13.338477575,13.24009755625C12.619144475,13.82654185625,11.821810975,14.30898615625,10.968144375,14.67443085625C10.886188775,14.69940755625,10.807602975,14.734334956249999,10.734144575,14.77843045625C10.031902845,15.137061156249999,9.5928320126,15.86194705625,9.60025579447,16.65043015625C9.573026085,17.739925356249998,10.409437115,18.65723805625,11.496811375,18.73043055625L15.012588975,18.73043055625L15.012588975,27.75820765625C14.870988375,29.22468165625,16.023738875,30.49410265625,17.497034575,30.49410265625C18.970328375,30.49410265625,20.123079375,29.22468165625,19.981478375000002,27.75820765625L19.981478375000002,12.22031975625L19.990144375,12.22031975625ZM27.299032375,24.32620765625C25.630722375,24.36350365625,24.304863375,25.73958165625,24.329589374999998,27.40812465625C24.354314375,29.07666765625,25.720367375,30.41285365625,27.389047375,30.40069965625C29.057729375,30.38854565625,30.404171375,29.03260265625,30.404586375,27.36387465625C30.387935375,25.66657665625,28.996284375,24.30534765625,27.299032375,24.32620765625Z" fill="#FFFFFF" fill-opacity="1" style="mix-blend-mode:passthrough"/></g></svg>