<svg xmlns="http://www.w3.org/2000/svg" xmlns:xlink="http://www.w3.org/1999/xlink" fill="none" version="1.1" width="111" height="58" viewBox="0 0 111 58"><defs><linearGradient x1="55.5" y1="1" x2="55.5" y2="57" gradientUnits="userSpaceOnUse" id="master_svg0_8_43381"><stop offset="0%" stop-color="#6099FA" stop-opacity="1"/><stop offset="100%" stop-color="#0050CB" stop-opacity="1"/></linearGradient><linearGradient x1="0.5" y1="0.1612444370985031" x2="0.5" y2="1" id="master_svg1_8_43375"><stop offset="0%" stop-color="#FFFFFF" stop-opacity="1"/><stop offset="31.591880321502686%" stop-color="#DFDFDF" stop-opacity="0"/><stop offset="100%" stop-color="#979797" stop-opacity="0"/></linearGradient></defs><g><path d="M28.4286,10.04C27.5486,11.88,26.5086,13.64,25.3486,15.32L17.5486,15.32C16.668599999999998,13.44,15.7886,11.76,14.9086,10.28L11.8686,10.8C12.8286,12.16,13.6686,13.64,14.4686,15.32L3.50857,15.32L3.50857,18.12L39.3086,18.12L39.3086,15.32L28.5086,15.32C29.4686,14.04,30.3886,12.6,31.2286,11L28.4286,10.04ZM17.3886,46.76C19.6686,46.76,20.8286,45.4,20.8286,42.68L20.8286,21.36L6.30857,21.36L6.30857,47.08L9.10857,47.08L9.10857,38.32L18.0286,38.32L18.0286,42.04C18.0286,43.36,17.5086,44.04,16.468600000000002,44.04L13.4686,43.92L14.2286,46.76L17.3886,46.76ZM9.10857,35.76L9.10857,31.2L18.0286,31.2L18.0286,35.76L9.10857,35.76ZM9.10857,28.64L9.10857,24.04L18.0286,24.04L18.0286,28.64L9.10857,28.64ZM32.9486,46.64C35.3086,46.64,36.5086,45.4,36.5086,42.96L36.5086,20.24L33.6286,20.24L33.6286,42.24C33.6286,43.44,33.0686,44.08,31.9486,44.08C30.3486,44.08,28.7086,44,27.0286,43.88L27.6286,46.64L32.9486,46.64ZM25.3086,23.24L25.3086,40.48L28.1086,40.48L28.1086,23.24L25.3086,23.24ZM37.6743,32.480000000000004L37.6743,35.28L62.0343,35.28L62.0343,43.04C62.0343,44,61.4343,44.48,60.2743,44.48C58.7543,44.48,57.1943,44.4,55.5143,44.28L56.1543,47.12L61.2743,47.12C63.6743,47.12,64.9143,46,64.9143,43.76L64.9143,35.28L73.7143,35.28L73.7143,32.480000000000004L64.9143,32.480000000000004L64.9143,29.96L62.0343,29.96L62.0343,32.480000000000004L37.6743,32.480000000000004ZM67.6743,11.88L41.8743,11.88L41.8743,25.32C41.8743,27.48,43.0343,28.6,45.4343,28.6L68.7143,28.6C70.3943,28.52,71.5143,27.92,72.0743,26.72C72.3943,25.92,72.6743,24.64,72.8743,22.84L70.1543,21.96C69.9943,23.64,69.7543,24.68,69.5143,25.12C69.1943,25.6,68.6743,25.88,67.8743,25.92L46.4743,25.92C45.3543,25.92,44.7543,25.36,44.7543,24.28L44.7543,21.4L67.6743,21.4L67.6743,11.88ZM44.7543,18.76L44.7543,14.48L64.79429999999999,14.48L64.79429999999999,18.76L44.7543,18.76ZM46.8743,36.48L44.8343,38.44C47.6343,40.72,49.8743,42.88,51.4743,44.92L53.6343,42.76C51.7943,40.68,49.5543,38.56,46.8743,36.48ZM102.36,19.08L90.6,19.08C91,17.72,91.28,16.240000000000002,91.52,14.72L107.6,14.72L107.6,12L72.4,12L72.4,14.72L88.48,14.72C88.28,16.240000000000002,88,17.68,87.6,19.08L77.48,19.08L77.48,38.08L80.36,38.08L80.36,21.88L99.48,21.88L99.48,38L102.36,38L102.36,19.08ZM92.64,38.08L91.04,40.44C95.8,42.04,100.44,44.28,105,47.12L106.76,44.4C102.52,41.92,97.8,39.84,92.64,38.08ZM88.52,24.28L88.52,30.64C88.4,34.16,87.28,37,85.12,39.2C82.84,41.32,78.8,43,73,44.28L74.64,46.84C80.48,45.48,84.68,43.6,87.24,41.16C89.88,38.52,91.32,35.04,91.48,30.64L91.48,24.28L88.52,24.28Z" fill="url(#master_svg0_8_43381)" fill-opacity="1"/><path d="M28.4286,10.04C27.5486,11.88,26.5086,13.64,25.3486,15.32L17.5486,15.32C16.668599999999998,13.44,15.7886,11.76,14.9086,10.28L11.8686,10.8C12.8286,12.16,13.6686,13.64,14.4686,15.32L3.50857,15.32L3.50857,18.12L39.3086,18.12L39.3086,15.32L28.5086,15.32C29.4686,14.04,30.3886,12.6,31.2286,11L28.4286,10.04ZM17.3886,46.76C19.6686,46.76,20.8286,45.4,20.8286,42.68L20.8286,21.36L6.30857,21.36L6.30857,47.08L9.10857,47.08L9.10857,38.32L18.0286,38.32L18.0286,42.04C18.0286,43.36,17.5086,44.04,16.468600000000002,44.04L13.4686,43.92L14.2286,46.76L17.3886,46.76ZM9.10857,35.76L9.10857,31.2L18.0286,31.2L18.0286,35.76L9.10857,35.76ZM9.10857,28.64L9.10857,24.04L18.0286,24.04L18.0286,28.64L9.10857,28.64ZM32.9486,46.64C35.3086,46.64,36.5086,45.4,36.5086,42.96L36.5086,20.24L33.6286,20.24L33.6286,42.24C33.6286,43.44,33.0686,44.08,31.9486,44.08C30.3486,44.08,28.7086,44,27.0286,43.88L27.6286,46.64L32.9486,46.64ZM25.3086,23.24L25.3086,40.48L28.1086,40.48L28.1086,23.24L25.3086,23.24ZM37.6743,32.480000000000004L37.6743,35.28L62.0343,35.28L62.0343,43.04C62.0343,44,61.4343,44.48,60.2743,44.48C58.7543,44.48,57.1943,44.4,55.5143,44.28L56.1543,47.12L61.2743,47.12C63.6743,47.12,64.9143,46,64.9143,43.76L64.9143,35.28L73.7143,35.28L73.7143,32.480000000000004L64.9143,32.480000000000004L64.9143,29.96L62.0343,29.96L62.0343,32.480000000000004L37.6743,32.480000000000004ZM67.6743,11.88L41.8743,11.88L41.8743,25.32C41.8743,27.48,43.0343,28.6,45.4343,28.6L68.7143,28.6C70.3943,28.52,71.5143,27.92,72.0743,26.72C72.3943,25.92,72.6743,24.64,72.8743,22.84L70.1543,21.96C69.9943,23.64,69.7543,24.68,69.5143,25.12C69.1943,25.6,68.6743,25.88,67.8743,25.92L46.4743,25.92C45.3543,25.92,44.7543,25.36,44.7543,24.28L44.7543,21.4L67.6743,21.4L67.6743,11.88ZM44.7543,18.76L44.7543,14.48L64.79429999999999,14.48L64.79429999999999,18.76L44.7543,18.76ZM46.8743,36.48L44.8343,38.44C47.6343,40.72,49.8743,42.88,51.4743,44.92L53.6343,42.76C51.7943,40.68,49.5543,38.56,46.8743,36.48ZM102.36,19.08L90.6,19.08C91,17.72,91.28,16.240000000000002,91.52,14.72L107.6,14.72L107.6,12L72.4,12L72.4,14.72L88.48,14.72C88.28,16.240000000000002,88,17.68,87.6,19.08L77.48,19.08L77.48,38.08L80.36,38.08L80.36,21.88L99.48,21.88L99.48,38L102.36,38L102.36,19.08ZM92.64,38.08L91.04,40.44C95.8,42.04,100.44,44.28,105,47.12L106.76,44.4C102.52,41.92,97.8,39.84,92.64,38.08ZM88.52,24.28L88.52,30.64C88.4,34.16,87.28,37,85.12,39.2C82.84,41.32,78.8,43,73,44.28L74.64,46.84C80.48,45.48,84.68,43.6,87.24,41.16C89.88,38.52,91.32,35.04,91.48,30.64L91.48,24.28L88.52,24.28Z" stroke="url(#master_svg1_8_43375)" fill-opacity="0" fill="none" stroke-width="2"/></g></svg>