<svg xmlns="http://www.w3.org/2000/svg" xmlns:xlink="http://www.w3.org/1999/xlink" fill="none" version="1.1" width="10.09268569946289" height="13.991418838500977" viewBox="0 0 10.09268569946289 13.991418838500977"><g transform="matrix(1,0,0,-1,0,27.982837677001953)"><path d="M5.27198,14.093084838500976L10.019,19.532778838500978C10.0959,19.620598838500975,10.1143,19.745288838500976,10.0661,19.851578838500977C10.0178,19.95786883850098,9.91187,20.026098838500978,9.79514,20.026028838500977L7.46185,20.026028838500977C7.31347,20.024748838500976,7.18743,20.13428883850098,7.168,20.281388838500977C6.99309,21.547738838500976,5.93664,27.148318838500977,0.934215,27.977418838500977C0.799753,28.003418838500977,0.664953,27.93411883850098,0.607723,27.809718838500977C0.550493,27.685318838500976,0.585635,27.53791883850098,0.69284,27.452718838500978C1.5499,26.781018838500977,2.66932,25.47971883850098,2.98416,23.163908838500976C3.10503,22.223128838500976,3.16346,21.275368838500977,3.15907,20.326868838500978C3.15911,20.161478838500976,3.02707,20.026328838500977,2.86172,20.022528838500975L0.297543,20.022528838500975C0.180813,20.022598838500976,0.0748374,19.954368838500976,0.0265913,19.848078838500975C-0.0216548,19.741788838500977,-0.00324574,19.617098838500976,0.0736583,19.52927883850098L4.82421,14.093084838500976C4.94269,13.957530138500976,5.1535,13.957530138500976,5.27198,14.093084838500976Z" fill="#349B34" fill-opacity="1"/></g></svg>