<svg
  xmlns="http://www.w3.org/2000/svg"
  xmlns:xlink="http://www.w3.org/1999/xlink"
  fill="none"
  version="1.1"
  width="14"
  height="14"
  viewBox="0 0 14 14"
>
  <defs>
    <clipPath id="master_svg0_116_06119">
      <rect x="0" y="0" width="14" height="14" rx="0" />
    </clipPath>
  </defs>
  <g clip-path="url(#master_svg0_116_06119)">
    <g>
      <path
        d="M7.000190537109375,1.75C10.145580537109375,1.75,12.762400537109375,4.01319,13.311000537109376,7C12.762400537109375,9.98678,10.145580537109375,12.25,7.000190537109375,12.25C3.854750537109375,12.25,1.2379315371093749,9.98678,0.689300537109375,7C1.2379315371093749,4.01319,3.854750537109375,1.75,7.000190537109375,1.75ZM7.000190537109375,11.08333C9.470950537109376,11.08333,11.585200537109374,9.363669999999999,12.120300537109374,7C11.585200537109374,4.63635,9.470950537109376,2.91667,7.000190537109375,2.91667C4.529360537109374,2.91667,2.415140537109375,4.63635,1.879970537109375,7C2.415140537109375,9.363669999999999,4.529360537109374,11.08333,7.000190537109375,11.08333ZM7.000190537109375,9.625C5.550410537109375,9.625,4.375160537109375,8.449760000000001,4.375160537109375,7C4.375160537109375,5.55025,5.550410537109375,4.375,7.000190537109375,4.375C8.449890537109376,4.375,9.625180537109374,5.55025,9.625180537109374,7C9.625180537109374,8.449760000000001,8.449890537109376,9.625,7.000190537109375,9.625ZM7.000190537109375,8.45833C7.805590537109375,8.45833,8.458520537109376,7.80541,8.458520537109376,7C8.458520537109376,6.19459,7.805590537109375,5.54167,7.000190537109375,5.54167C6.194780537109375,5.54167,5.541830537109375,6.19459,5.541830537109375,7C5.541830537109375,7.80541,6.194780537109375,8.45833,7.000190537109375,8.45833Z"
        fill="#0064FF"
        fill-opacity="1"
        style="mix-blend-mode: passthrough"
      />
    </g>
  </g>
</svg>
