<svg xmlns="http://www.w3.org/2000/svg" xmlns:xlink="http://www.w3.org/1999/xlink" fill="none" version="1.1" width="14" height="14" viewBox="0 0 14 14"><defs><clipPath id="master_svg0_116_00750"><rect x="0" y="0" width="14" height="14" rx="0"/></clipPath></defs><g clip-path="url(#master_svg0_116_00750)"><g><path d="M10.25732375,4.2220035156249995C10.19170375,4.156373515625,10.08232375,4.200133515625,10.08232375,4.287623515625C10.08232375,4.834503515625,10.30107375,5.622003515625,9.40420375,5.972003515625Q9.53545375,2.297003515625,5.55420375,1.728253325625C5.466703750000001,1.706378315625,5.40107375,1.793878315625,5.42295375,1.881378515625C5.57607375,2.406378515625,5.86045375,4.025133515625,4.43857375,5.031373515625C4.351073749999999,5.0970035156249995,4.28545375,5.140753515625001,4.19795375,5.206373515625C3.7823237499999998,4.681383515625,3.16982375,4.484503515625001,2.90732675,4.4407535156249995C2.86357675,4.418883515625,2.81982675,4.484503515625001,2.84170175,4.528253515625Q3.23545375,5.622003515625,2.46982675,6.825133515625L2.49170175,6.825133515625C1.98857705,7.568883515625,1.79170175,8.443883515625,2.14170175,9.690753515625001Q2.84170175,11.768853515625,5.466703750000001,12.272053515625L5.37920375,12.184553515625Q3.7823237499999998,10.565753515625,4.48232375,8.684503515625Q4.87607375,7.678253515625,5.7073237500000005,7.131383515625Q5.31357375,8.443883515625,6.23232375,8.837633515625Q6.07920375,6.868883515625,7.76357375,6.168883515625Q7.56670375,7.197003515625,8.419823749999999,8.400133515625C9.294823749999999,9.625133515625,9.88545375,11.134503515625,8.726073750000001,12.118853515625C8.68232375,12.140753515625,8.66045375,12.184553515625,8.61670375,12.206353515625C9.90732375,11.878253515625,10.71670375,11.134503515625,11.26358375,10.390753515625C12.09484375,9.231383515625,12.46674375,6.628253515625,10.25732375,4.2220035156249995Z" fill="#EB3737" fill-opacity="1"/></g></g></svg>