<svg xmlns="http://www.w3.org/2000/svg" xmlns:xlink="http://www.w3.org/1999/xlink" fill="none" version="1.1" width="18" height="17.11865234375" viewBox="0 0 18 17.11865234375"><g><g><path d="M17.49035533320904,17.118381611328125L0.5504723332090378,17.118381611328125C0.26878533320903775,17.118381611328125,0.04085533320903778,16.890454611328124,0.04085533320903778,16.608768611328124C0.04085533320903778,16.327081611328126,0.26878533320903775,16.099151611328125,0.5504723332090378,16.099151611328125L17.49035533320904,16.099151611328125C17.77205533320904,16.099151611328125,17.999955333209037,16.327081611328126,17.999955333209037,16.608768611328124C17.999955333209037,16.890454611328124,17.77205533320904,17.118381611328125,17.49035533320904,17.118381611328125Z" fill="#0064FF" fill-opacity="1"/></g><g><path d="M0,16.5163C0,16.813,0.240831,17.0539,0.53757,17.0539C0.834309,17.0539,1.07514,16.813,1.07514,16.5163L1.07514,0.53757C1.07514,0.240831,0.834309,0,0.53757,0C0.240831,0,0,0.240831,0,0.53757L0,16.5163ZM8.93012,17.1188L10.2977,17.1188C10.9148,17.1188,11.4201,16.6156,11.4201,15.9985L11.4201,1.55506C11.4201,0.935783,10.917,0.432617,10.2977,0.432617L8.93012,0.432617C8.31084,0.432617,7.80768,0.935783,7.80768,1.55506L7.80768,15.9963C7.80768,16.6156,8.31084,17.1188,8.93012,17.1188ZM8.82904,1.55224C8.82904,1.49848,8.8742,1.45117,8.9301,1.45117L8.9301,1.45332L10.2977,1.45332C10.3514,1.45332,10.3987,1.49848,10.3987,1.55439L10.3987,15.9957C10.3987,16.0494,10.3536,16.0967,10.2977,16.0967L8.9301,16.0967C8.87635,16.0967,8.82904,16.0516,8.82904,15.9957L8.82904,1.55224ZM15.5078,17.1187L14.1403,17.1187C13.521,17.1187,13.0178,16.6155,13.0178,15.9963L13.0178,4.16542C13.0178,3.54613,13.521,3.04297,14.1403,3.04297L15.5078,3.04297C16.1271,3.04297,16.6303,3.54613,16.6303,4.16542L16.6303,15.9963C16.6303,16.6155,16.1271,17.1187,15.5078,17.1187ZM14.0392,4.16552C14.0392,4.11176,14.0843,4.06445,14.1402,4.06445L15.5078,4.06445C15.5616,4.06445,15.6089,4.10961,15.6089,4.16552L15.6089,15.9964C15.6089,16.0501,15.5637,16.0974,15.5078,16.0974L14.1402,16.0974C14.0865,16.0974,14.0392,16.0523,14.0392,15.9964L14.0392,4.16552ZM3.67695,17.1183L5.04453,17.1183C5.66381,17.1183,6.16698,16.6151,6.16698,15.9958L6.16698,8.08924C6.16698,7.46996,5.66381,6.9668,5.04453,6.9668L3.67695,6.9668C3.05767,6.9668,2.5545,7.46996,2.5545,8.08924L2.5545,15.9958C2.5545,16.6151,3.05767,17.1183,3.67695,17.1183ZM3.57593,8.08934C3.57593,8.03559,3.62108,7.98828,3.67699,7.98828L5.04457,7.98828C5.09833,7.98828,5.14563,8.03344,5.14563,8.08934L5.14563,15.9959C5.14563,16.0497,5.10048,16.097,5.04457,16.097L3.67699,16.097C3.62323,16.097,3.57593,16.0518,3.57593,15.9959L3.57593,8.08934Z" fill-rule="evenodd" fill="#0064FF" fill-opacity="1"/></g></g></svg>