<svg xmlns="http://www.w3.org/2000/svg" xmlns:xlink="http://www.w3.org/1999/xlink" fill="none" version="1.1" width="14" height="14" viewBox="0 0 14 14"><defs><clipPath id="master_svg0_117_09332"><rect x="14" y="0" width="14" height="14" rx="0"/></clipPath></defs><g transform="matrix(-1,0,0,1,28,0)" clip-path="url(#master_svg0_117_09332)"><g><path d="M21.23438234375,0.101666L25.98140234375,5.54136C26.05830234375,5.62918,26.07670234375,5.75387,26.02850234375,5.86016C25.98020234375,5.96645,25.87427234375,6.03468,25.75754234375,6.03461L23.42425234375,6.03461C23.27587234375,6.03333,23.14983234375,6.14287,23.13040234375,6.28997C22.95549234375,7.55632,21.89904234375,13.1569,16.896617343750002,13.986C16.76215534375,14.012,16.62735534375,13.9427,16.57012534375,13.8183C16.51289534375,13.6939,16.54803734375,13.5465,16.65524234375,13.4613C17.51230234375,12.7896,18.63172234375,11.4883,18.94656234375,9.17249C19.06743234375,8.23171,19.12586234375,7.28395,19.12147234375,6.33545C19.12151234375,6.17006,18.989472343750002,6.03491,18.82412234375,6.03111L16.25994534375,6.03111C16.14321534375,6.03118,16.03723974375,5.96295,15.98899364375,5.85666C15.94074754375,5.75037,15.95915660375,5.62568,16.03606064375,5.53786L20.78661234375,0.101666C20.90509234375,-0.0338887,21.11590234375,-0.0338887,21.23438234375,0.101666Z" fill="#EB3737" fill-opacity="1"/></g></g></svg>