<svg xmlns="http://www.w3.org/2000/svg" xmlns:xlink="http://www.w3.org/1999/xlink" fill="none" version="1.1" width="12" height="12" viewBox="0 0 12 12"><g><g><path d="M9.319794387893676,4.2C9.216534387893677,4.1985,9.118034387893676,4.15538,9.045754387893677,4.08003L6.000004387893677,0.968935L2.954244387893677,4.08003C2.880736387893677,4.15574,2.7806743878936766,4.19832,2.676289387893677,4.19832C2.5719043878936767,4.19832,2.471842387893677,4.15574,2.3983353878936766,4.08003C2.2481741878936767,3.92183,2.2481741878936767,3.6704,2.3983353878936766,3.5122L5.725964387893677,0.12118C5.797004387893677,0.0438604,5.896184387893676,1.77584e-16,6.000004387893677,0C6.103814387893676,-1.77584e-16,6.202994387893677,0.0438604,6.274044387893676,0.12118L9.601664387893678,3.5122C9.751824387893677,3.6704,9.751824387893677,3.92183,9.601664387893678,4.08003C9.526974387893677,4.15659,9.425604387893678,4.19974,9.319794387893676,4.2Z" fill="#0064FF" fill-opacity="1"/></g><g><path d="M6,9.00000361328125C5.723858,9.00000361328125,5.5,8.82480361328125,5.5,8.60869361328125L5.5,0.49999961328125C5.5,0.28388861328125004,5.723858,0.10870361328125,6,0.10870361328125C6.276142,0.10870361328125,6.5,0.28388861328125004,6.5,0.49999961328125L6.5,8.60869361328125C6.5,8.82480361328125,6.276142,9.00000361328125,6,9.00000361328125Z" fill="#0064FF" fill-opacity="1"/></g><g><path d="M11.6058,11.99995L0.394218,11.99995C0.176497,11.99995,0,11.81783,0,11.59317L0,7.606731Q0.000650158,7.572191,0.000897217,7.500758C0.00185111,7.224961,0.219201,7,0.495,7Q0.4975,7,0.5,7Q0.5025,7,0.505,7C0.781142,7,1,7.224245,1,7.500387Q1,7.571928,1,7.60675L1,11L11,11L11,7.60675Q11,7.570805,11,7.495734C11,7.2211,11.2226,7,11.4973,7C11.774,7,11.996,7.22414,11.9986,7.500886Q11.9991,7.557706,12,7.606731L12,11.59317C12,11.81783,11.8235,11.99995,11.6058,11.99995L11.6058,11.99995Z" fill="#0064FF" fill-opacity="1"/></g></g></svg>