<svg xmlns="http://www.w3.org/2000/svg" xmlns:xlink="http://www.w3.org/1999/xlink" fill="none" version="1.1" width="14" height="14.00006103515625" viewBox="0 0 14 14.00006103515625"><g><g><path d="M1.07991,8.714341467266083C0.791613,8.714341467266083,0.638985,8.714341467266083,0.57115,8.682881467266082C0.223497,8.651421467266083,-0.0308837,8.360391467266084,0.00303364,8.037911467266083C0.036951,7.715421467266083,0.350687,7.479461467266082,0.69834,7.5109214672660825C0.95272,7.5423814672660825,7.15112,7.982851467266083,11.8063,1.0533384672660828C11.9928,0.7859116592660828,12.3744,0.6993910672660828,12.6881,0.8802977672660828C12.9764,1.0533384672660828,13.0697,1.4072864672660828,12.8747,1.698310467266083C8.54173,8.187351467266083,2.81818,8.714341467266083,1.07991,8.714341467266083ZM13.1631,14.000111467266082C12.8154,14.000111467266082,12.5271,13.732611467266082,12.5271,13.410111467266082L12.5271,4.899671467266082C12.5271,4.577191467266083,12.8154,4.309761467266083,13.1631,4.309761467266083C13.5107,4.309761467266083,13.799,4.577191467266083,13.799,4.899671467266082L13.799,13.410111467266082C13.799,13.732611467266082,13.5107,14.000111467266082,13.1631,14.000111467266082ZM9.6694,14.000011467266082C9.32174,14.000011467266082,9.03345,13.732611467266082,9.03345,13.410111467266082L9.03345,8.124521467266081C9.03345,7.802041467266083,9.32174,7.534611467266083,9.6694,7.534611467266083C10.0171,7.534611467266083,10.3053,7.802041467266083,10.3053,8.124521467266081L10.3053,13.410111467266082C10.2969,13.732611467266082,10.0171,14.000011467266082,9.6694,14.000011467266082ZM5.54004,13.410111467266082C5.54004,13.732611467266082,5.82834,14.000011467266082,6.17599,14.000011467266082C6.52364,14.000011467266082,6.80346,13.732611467266082,6.81194,13.410111467266082L6.81194,9.886361467266083C6.81194,9.563881467266082,6.52364,9.296451467266083,6.17599,9.296451467266083C5.82834,9.296451467266083,5.54004,9.563881467266082,5.54004,9.886361467266083L5.54004,13.410111467266082ZM2.1145,13.410111467266082C2.1145,13.732611467266082,2.4028,14.000111467266082,2.75045,14.000111467266082C3.09811,14.000111467266082,3.3864,13.732611467266082,3.3864,13.410111467266082L3.3864,11.058411467266083C3.3864,10.735881467266083,3.09811,10.468451467266084,2.75045,10.468451467266084C2.4028,10.468451467266084,2.1145,10.735881467266083,2.1145,11.058411467266083L2.1145,13.410111467266082Z" fill-rule="evenodd" fill="#EB3737" fill-opacity="1"/></g><g><path d="M13.38331890625,3.08268C13.12893890625,3.08268,12.87455890625,2.93323,12.78127890625,2.67367L12.27251890625,1.29721L10.63600890625,1.8242C10.32227290625,1.94218,9.94070290625,1.76914,9.84742970625,1.47025C9.72023950625,1.17923,9.90678510625,0.825278,10.22899990625,0.738758L12.47602890625,0.0308622C12.63713890625,-0.0241963,12.82367890625,-0.000599821,12.950868906250001,0.0623242C13.11197890625,0.117383,13.20524890625,0.266827,13.26460890625,0.416272L13.95990890625,2.35119C14.087098906249999,2.64221,13.90055890625,2.99616,13.54442890625,3.08268L13.38331890625,3.08268Z" fill="#EB3737" fill-opacity="1"/></g></g></svg>