<svg xmlns="http://www.w3.org/2000/svg" xmlns:xlink="http://www.w3.org/1999/xlink" fill="none" version="1.1" width="14" height="14.07861328125" viewBox="0 0 14 14.07861328125"><g><g><path d="M13.5595,2.36772C13.5759,2.35299,13.607,2.33499,13.6201,2.31698C13.8575,2.06644,13.9967,1.72748,14,1.382C14,1.0234,13.869,0.672982,13.6152,0.41918C13.3614,0.165393,13.0241,0,12.6655,0L1.34271,0C0.60259,0,0.0000148887,0.628785,0.0000148887,1.37053C-0.00161728,1.71767,0.131005,2.0517,0.368437,2.30549C0.373938,2.31335,0.37114,2.32311,0.368373,2.33275C0.365376,2.34319,0.362416,2.35351,0.370069,2.36117L4.24913,6.29099L4.24913,8.63251C4.24913,9.00583,4.59299,9.31041,4.96632,9.31041C5.3331,9.31041,5.62457,9.01403,5.63275,8.64069C5.63275,8.63743,5.62292,8.63251,5.62292,8.62924L5.62292,5.87344C5.62292,5.78175,5.61638,5.69496,5.55088,5.62947L1.38363,1.42948C1.37381,1.41474,1.37545,1.37544,1.36235,1.37544L12.6442,1.37544C12.6311,1.37544,12.618,1.41637,12.6065,1.43113L8.37873,5.62292C8.31322,5.68678,8.23135,5.78012,8.23135,5.87181L8.23135,5.98808C8.23135,6.64631,8.23462,9.93918,8.24444,12.7048C8.22644,12.6884,8.21988,12.6753,8.20516,12.6622L7.19977,11.6208C7.06549,11.4915,6.85263,11.4931,6.72001,11.6225L6.25171,12.094C6.11744,12.2316,6.11907,12.4493,6.25497,12.5836L7.35533,13.6709C7.37075,13.6863,7.38777,13.7,7.40608,13.7118C7.6566,13.9476,7.94806,14.0786,8.29193,14.0786C9.03532,14.0786,9.60351,13.476,9.60351,12.7343L9.60351,6.29099L13.5595,2.36772ZM5.73585,10.3584C5.75059,9.94574,5.42801,9.60023,5.01539,9.58551C4.62241,9.5986,4.30802,9.91463,4.29492,10.306C4.28018,10.7186,4.60276,11.0641,5.01539,11.0788C5.40673,11.0657,5.72276,10.7514,5.73585,10.3584Z" fill-rule="evenodd" fill="#666666" fill-opacity="1"/></g></g></svg>