<svg xmlns="http://www.w3.org/2000/svg" xmlns:xlink="http://www.w3.org/1999/xlink" fill="none" version="1.1" width="14" height="12.727294921875" viewBox="0 0 14 12.727294921875"><g><g><path d="M0.178869,3.63967C0.289798,3.75856,0.448523,3.8237,0.612915,3.81781C0.75814,3.81008,0.89421,3.74595,0.990955,3.63967L3.65124,1.03599C3.77311,0.926954,3.84254,0.772791,3.84254,0.611181C3.84254,0.449572,3.77311,0.295408,3.65124,0.186371C3.54236,0.0677528,3.38711,0,3.22419,0C3.06127,0,2.90602,0.0677528,2.79715,0.186371L0.178869,2.79005C-0.059623,3.02516,-0.059623,3.40456,0.178869,3.63967ZM6.68951,1.51565L13.3822,1.51565C13.7225,1.51565,13.9983,1.2457,13.9983,0.912692C14.011,0.749274,13.9502,0.588558,13.8318,0.472668C13.7134,0.356778,13.5492,0.297268,13.3822,0.309735L6.68951,0.309735C6.52254,0.297268,6.35833,0.356778,6.23992,0.472668C6.12151,0.588558,6.0607,0.749274,6.07344,0.912692C6.0607,1.07611,6.12151,1.23683,6.23992,1.35272C6.35833,1.46861,6.52254,1.52812,6.68951,1.51565Z" fill-rule="evenodd" fill="#0064FF" fill-opacity="1"/></g><g><path d="M3.182797502105713,12.7256C3.012963502105713,12.7379,2.845980502105713,12.677,2.724225502105713,12.5583C2.6024703021057127,12.4396,2.537647242105713,12.2745,2.546206567105713,12.1049L2.546206567105713,0.622357C2.537647242105713,0.452769,2.6024703021057127,0.287671,2.724225502105713,0.168959C2.845980502105713,0.0502476,3.012963502105713,-0.0106656,3.182797502105713,0.00167773C3.3514975021057127,-0.0111557,3.517407502105713,0.0501035,3.637044502105713,0.1694C3.756674502105713,0.288696,3.818114502105713,0.454135,3.8052445021057126,0.622357L3.8052445021057126,12.1049C3.818114502105713,12.2731,3.756674502105713,12.4386,3.637044502105713,12.5579C3.517407502105713,12.6772,3.3514975021057127,12.7384,3.182797502105713,12.7256ZM11.995994502105713,4.953L6.549604502105713,4.953C6.379534502105713,4.96153,6.213964502105712,4.89689,6.094914502105713,4.77548C5.975864502105713,4.65407,5.914774502105713,4.48756,5.927154502105713,4.31821C5.918974502105713,4.15123,5.981914502105713,3.98857,6.100474502105713,3.87036C6.219024502105713,3.75214,6.382144502105713,3.68937,6.549604502105713,3.69753L11.995994502105713,3.69753C12.243424502105713,3.66044,12.489694502105714,3.77133,12.625454502105713,3.98093C12.761154502105713,4.19054,12.761154502105713,4.45999,12.625454502105713,4.6696C12.489694502105714,4.8792,12.243424502105713,4.99009,11.995994502105713,4.953ZM10.623754502105713,8.36673L6.549574502105713,8.36673C6.238034502105712,8.32003,6.007614502105713,8.05314,6.007614502105713,7.739C6.007614502105713,7.42486,6.238034502105712,7.15797,6.549574502105713,7.11127L10.623754502105713,7.11127C10.935284502105713,7.15797,11.165714502105713,7.42486,11.165714502105713,7.739C11.165714502105713,8.05314,10.935284502105713,8.32003,10.623754502105713,8.36673ZM9.308204502105713,11.7382L6.6203745021057125,11.7382C6.308834502105713,11.6915,6.078414502105713,11.4246,6.078414502105713,11.1104C6.078414502105713,10.7963,6.308834502105713,10.5294,6.6203745021057125,10.4827L9.308204502105713,10.4827C9.476904502105713,10.4699,9.642814502105713,10.5311,9.762444502105712,10.6504C9.882084502105712,10.7697,9.943514502105714,10.9352,9.930644502105713,11.1034C9.930734502105713,11.4485,9.654244502105712,11.7305,9.308204502105713,11.7382Z" fill-rule="evenodd" fill="#0064FF" fill-opacity="1"/></g></g></svg>