<svg xmlns="http://www.w3.org/2000/svg" xmlns:xlink="http://www.w3.org/1999/xlink" fill="none" version="1.1" width="12" height="12" viewBox="0 0 12 12"><g><g><path d="M0 2C1.2263184908229826e-16 0.8954305003384131 0.8954305003384133 0 2 0L10 0C11.104569499661586 0 12 0.8954305003384133 12 2L12 10C12 11.104569499661586 11.104569499661586 12 10 12L2 12C0.8954305003384133 12 0 11.104569499661586 0 10Z" fill="#0064FF" fill-opacity="1"/></g><g><g transform="matrix(1,0,0,-1,0,18.7841796875)"><path d="M10.32874,13.60935984375L9.49999,14.67434984375L9.49999,9.76714384375C9.50001,9.63315684375,9.42854,9.50933884375,9.31251,9.44233944375C9.196480000000001,9.37533994375,9.05351,9.37533994375,8.93748,9.44233944375C8.821449999999999,9.50933884375,8.74998,9.63315684375,8.75,9.76714384375L8.75,15.22071984375C8.75,15.75620984375,9.427620000000001,15.98870984375,9.75649,15.56608984375L10.92085,14.06984984375C11.00318,13.96414984375,11.02286,13.82254984375,10.97248,13.69839984375C10.9221,13.57424984375,10.80932,13.48640984375,10.67661,13.46796984375C10.5439,13.44951984375,10.41144,13.50327984375,10.32911,13.60897984375L10.32874,13.60935984375ZM2,10.14208584375C2,10.24154184375,2.0395084,10.33692284375,2.109834,10.40724984375C2.180159,10.47756984375,2.275541,10.51707984375,2.374996,10.51707984375L7.24995,10.51707984375C7.38394,10.51709984375,7.50775,10.44562984375,7.57475,10.32960084375C7.64175,10.21356784375,7.64175,10.07060384375,7.57475,9.95457184375C7.50775,9.83853884375,7.38394,9.76706884375,7.24995,9.76708984375L2.374996,9.76708984375C2.167892,9.76708984375,2,9.93498184375,2,10.14208584375ZM2.374996,12.39208984375L7.24995,12.39208984375C7.45705,12.39208984375,7.62495,12.55997984375,7.62495,12.76708984375C7.62495,12.97418984375,7.45705,13.14207984375,7.24995,13.14207984375L2.374996,13.14207984375C2.167892,13.14207984375,2,12.97418984375,2,12.76708984375C2,12.55997984375,2.167892,12.39208984375,2.374996,12.39208984375ZM2.375054,15.76707984375C2.241067,15.76709984375,2.117249,15.69562984375,2.0502496,15.57959984375C1.9832501,15.463569843750001,1.9832501,15.32059984375,2.0502496,15.20456984375C2.117249,15.088539843749999,2.241067,15.01706984375,2.375054,15.01708984375L7.25001,15.01708984375C7.38399,15.01706984375,7.50781,15.088539843749999,7.57481,15.20456984375C7.64181,15.32059984375,7.64181,15.463569843750001,7.57481,15.57959984375C7.50781,15.69562984375,7.38399,15.76709984375,7.25001,15.76707984375L2.375054,15.76707984375Z" fill-rule="evenodd" fill="#FFFFFF" fill-opacity="1"/></g></g></g></svg>