<svg xmlns="http://www.w3.org/2000/svg" xmlns:xlink="http://www.w3.org/1999/xlink" fill="none" version="1.1" width="13.43505859375" height="12.727294921875" viewBox="0 0 13.43505859375 12.727294921875"><g><g><g transform="matrix(-1,0,0,-1,26.870192050933838,24.418346405029297)"><path d="M20.74553602546692,13.416713202514648L14.052827025466918,13.416713202514648C13.88585602546692,13.429183202514649,13.721646025466919,13.36967320251465,13.60323702546692,13.253783202514649C13.48482712546692,13.137893202514649,13.424023225466918,12.977178202514649,13.436761285466918,12.813759202514648C13.424023225466918,12.650341202514648,13.48482712546692,12.489626202514648,13.60323702546692,12.373736202514648C13.721646025466919,12.257846102514648,13.88585602546692,12.19833600251465,14.052827025466918,12.210803022514648L20.74553602546692,12.210803022514648C20.912506025466918,12.19833600251465,21.07671602546692,12.257846102514648,21.19512602546692,12.373736202514648C21.31353602546692,12.489626202514648,21.374336025466917,12.650341202514648,21.36160602546692,12.813759202514648C21.36160602546692,13.146763202514649,21.08577602546692,13.416713202514648,20.74553602546692,13.416713202514648L20.74553602546692,13.416713202514648Z" fill="#0064FF" fill-opacity="1"/></g><g transform="matrix(-1,0,0,-1,7.922940731048584,25.454545974731445)"><path d="M4.5988133655242915,25.452872987365723C4.428979365524292,25.465172987365722,4.261996365524292,25.404272987365722,4.140241365524292,25.285572987365722C4.018486165524292,25.16687298736572,3.953663105524292,25.001772987365722,3.962222430524292,24.832172987365723L3.962222430524292,13.349629987365724C3.953663105524292,13.180041987365723,4.018486165524292,13.014943987365722,4.140241365524292,12.896231987365722C4.261996365524292,12.777520587365723,4.428979365524292,12.716607387365723,4.5988133655242915,12.728950717365723C4.767513365524292,12.716117287365723,4.933423365524292,12.777376487365723,5.053060365524292,12.896672987365722C5.172690365524292,13.015968987365722,5.234130365524292,13.181407987365723,5.221260365524292,13.349629987365724L5.221260365524292,24.832172987365723C5.234130365524292,25.000372987365722,5.172690365524292,25.165872987365724,5.053060365524292,25.285172987365723C4.933423365524292,25.404472987365722,4.767513365524292,25.46567298736572,4.5988133655242915,25.452872987365723Z" fill="#0064FF" fill-opacity="1"/></g><g transform="matrix(-1,0,0,-1,24.617117404937744,17.85481071472168)"><path d="M18.37896870246887,10.18994535736084L12.932576702468872,10.18994535736084C12.762506702468873,10.19847535736084,12.596938702468872,10.133835357360839,12.477889702468872,10.01242535736084C12.358840402468871,9.89101835736084,12.297753902468871,9.72450935736084,12.310132382468872,9.555157357360839C12.301948852468872,9.388174357360839,12.364895502468872,9.22551635736084,12.483446702468871,9.10730135736084C12.601998702468872,8.98908575736084,12.765119702468873,8.92631765736084,12.932576702468872,8.93447796736084L18.37896870246887,8.93447796736084C18.626398702468872,8.89738785736084,18.87267870246887,9.00827315736084,19.008398702468874,9.21787935736084C19.144118702468873,9.42748535736084,19.144118702468873,9.69693535736084,19.008398702468874,9.90654135736084C18.87267870246887,10.116145357360839,18.626398702468872,10.22703535736084,18.37896870246887,10.18994535736084L18.37896870246887,10.18994535736084Z" fill="#0064FF" fill-opacity="1"/></g><g transform="matrix(-1,0,0,-1,21.330047130584717,11.170401573181152)"><path d="M15.281163565292358,6.840660786590576L11.206981565292358,6.840660786590576C10.895448565292359,6.793970786590576,10.665023565292358,6.527072786590576,10.665023565292358,6.212932786590576C10.665023565292358,5.898793786590576,10.895448565292359,5.631899686590576,11.206981565292358,5.585200786590576L15.281163565292358,5.585200786590576C15.592693565292358,5.631899686590576,15.82312356529236,5.898793786590576,15.82312356529236,6.212932786590576C15.82312356529236,6.527072786590576,15.592693565292358,6.793970786590576,15.281163565292358,6.840660786590576L15.281163565292358,6.840660786590576Z" fill="#0064FF" fill-opacity="1"/></g><g transform="matrix(-1,0,0,-1,18.721678256988525,4.514283657073975)"><path d="M12.590629128494262,3.514281828536987L9.902797128494262,3.514281828536987C9.591264128494263,3.4675818285369875,9.360839128494263,3.2006908285369873,9.360839128494263,2.8865518285369873C9.360839128494263,2.5724118285369872,9.591264128494263,2.3055184285369874,9.902797128494262,2.2588195585369872L12.590629128494262,2.2588195585369872C12.759329128494262,2.245986128536987,12.925239128494262,2.3072453285369874,13.044869128494263,2.4265418285369873C13.164509128494263,2.545837828536987,13.225939128494263,2.7112768285369873,13.213069128494263,2.8794988285369874C13.213159128494263,3.224644828536987,12.936669128494263,3.5066118285369874,12.590629128494262,3.514281828536987Z" fill="#0064FF" fill-opacity="1"/></g></g><g transform="matrix(1,0,0,-1,0,25.454545974731445)"><path d="M0.612915,16.545082987365724C0.448523,16.55097298736572,0.289798,16.485832987365722,0.178869,16.36694298736572C-0.059623,16.131832987365723,-0.059623,15.752432987365722,0.178869,15.517322987365723L2.79715,12.913643987365722C2.90602,12.795025787365722,3.06127,12.727272987365723,3.22419,12.727272987365723C3.38711,12.727272987365723,3.54236,12.795025787365722,3.65124,12.913643987365722C3.77311,13.022680987365723,3.84254,13.176844987365723,3.84254,13.338453987365723C3.84254,13.500063987365722,3.77311,13.654226987365723,3.65124,13.763262987365723L0.990955,16.36694298736572C0.89421,16.473222987365723,0.75814,16.537352987365722,0.612915,16.545082987365724L0.612915,16.545082987365724Z" fill="#0064FF" fill-opacity="1"/></g></g></svg>