<svg xmlns="http://www.w3.org/2000/svg" xmlns:xlink="http://www.w3.org/1999/xlink" fill="none" version="1.1" width="50" height="50" viewBox="0 0 50 50"><defs><clipPath id="master_svg0_211_50373"><rect x="13" y="13" width="24" height="24" rx="0"/></clipPath></defs><g><rect x="0" y="0" width="50" height="50" rx="8" fill="#EFF3FF" fill-opacity="1"/><g clip-path="url(#master_svg0_211_50373)"><path d="M24.995361328125,23.900585137500002C22.424267328124998,23.900585137500002,20.333642528125,21.8099603375,20.333642528125,19.238866837499998C20.333642528125,16.6677732375,22.426610928125,14.5771484375,24.995361328125,14.5771484375C27.566455328125002,14.5771484375,29.657079328125,16.6677732375,29.657079328125,19.238866837499998C29.657079328125,21.8099603375,27.566455328125002,23.900585137500002,24.995361328125,23.900585137500002ZM24.995361328125,16.0771483375C23.251610728125,16.0771483375,21.833642528125,17.4951169375,21.833642528125,19.238866837499998C21.833642528125,20.9826164375,23.251610728125,22.400585137500002,24.995361328125,22.400585137500002C26.739111328125,22.400585137500002,28.157079328125,20.9826164375,28.157079328125,19.238866837499998C28.157079328125,17.4951169375,26.739111328125,16.0771483375,24.995361328125,16.0771483375ZM15.292236328125,35.408395437500005C14.877392558125,35.408395437500005,14.542236328125,35.073240437500004,14.542236328125,34.6583974375C14.542236328125,33.2427714375,14.818798808125,31.8716774375,15.367236318125,30.5779284375C15.894580028125,29.328709437500002,16.651611328125,28.2083964375,17.612548828125,27.245116437500002C18.575830028125,26.281834437500002,19.696142628125,25.5271474375,20.945361128125,24.9998034375C22.239110928125,24.4537105375,23.610204728124998,24.1748037375,25.025830328125,24.1748037375C26.694580328125,24.1748037375,28.356298328125,24.5779284375,29.830516328125,25.3396474375C30.198486328125,25.5294914375,30.343798328125,25.9818354375,30.151611328125,26.3498034375C29.961767328125,26.717772437500003,29.509423328125,26.8630844375,29.141454328125,26.670897437500003C27.859423328125,26.0099604375,26.474267328125002,25.6748034375,25.023486328125,25.6748034375C20.071142628125,25.6748034375,16.042236328125,29.703709437500002,16.042236328125,34.6560534375C16.042236328125,35.0708964375,15.704736328125,35.408395437500005,15.292236328125,35.408395437500005ZM28.928173328125,35.429491437500005C28.735985328125,35.429491437500005,28.543798328125,35.3568344375,28.398486328125,35.2091774375C28.105517328125,34.9162084375,28.105517328125,34.4404274375,28.398486328125,34.147459437500004L33.667236328125,28.8787094375L32.811767328125,28.023241437499998L27.540673328125,33.291990437500004C27.247704328125,33.584959437500004,26.771924328125,33.584959437500004,26.478955328125,33.291990437500004C26.185986328125,32.999021437500005,26.185986328125,32.523241437500005,26.478955328125,32.2302724375L32.277391328125,26.4318354375C32.570360328125,26.1388664375,33.046142328125,26.1388664375,33.339111328125,26.4318354375L35.256298328125,28.3490214375C35.549266328125,28.6419904375,35.549266328125,29.1177724375,35.256298328125,29.4107404375L29.457861328125,35.2091774375C29.312548328125,35.3568344375,29.120361328125,35.429491437500005,28.928173328125,35.429491437500005Z" fill="#5D87FF" fill-opacity="1" style="mix-blend-mode:passthrough"/><path d="M28.79453115,35.50478504375L26.93359375,35.50478504375C26.51874998,35.50478504375,26.18359375,35.16962864375,26.18359375,34.75478504375L26.18359375,32.89384744375C26.18359375,32.47900394375,26.51874998,32.14384744375,26.93359375,32.14384744375C27.34843745,32.14384744375,27.68359375,32.47900394375,27.68359375,32.89384744375L27.68359375,34.00478504375L28.79453115,34.00478504375C29.20937495,34.00478504375,29.54453115,34.33994104375,29.54453115,34.75478504375C29.54453115,35.16962864375,29.20937495,35.50478504375,28.79453115,35.50478504375ZM33.22890615,31.13134764375C33.03671835,31.13134764375,32.84453105,31.05869124375,32.69921875,30.91103504375L30.78203105,28.99384764375C30.48906235,28.70087885375,30.48906235,28.22509765375,30.78203105,27.93212890375C31.07499985,27.63916015575,31.55078125,27.63916015575,31.84374995,27.93212890375L33.76093725,29.84931634375C34.05390595,30.14228514375,34.05390595,30.61806634375,33.76093725,30.91103504375C33.61093715,31.05634764375,33.41874985,31.13134764375,33.22890615,31.13134764375Z" fill="#5D87FF" fill-opacity="1" style="mix-blend-mode:passthrough"/></g></g></svg>