<svg xmlns="http://www.w3.org/2000/svg" xmlns:xlink="http://www.w3.org/1999/xlink" fill="none" version="1.1" width="50" height="50" viewBox="0 0 50 50"><defs><clipPath id="master_svg0_211_49736"><rect x="13" y="13" width="24" height="24" rx="0"/></clipPath></defs><g><rect x="0" y="0" width="50" height="50" rx="8" fill="#EFF3FF" fill-opacity="1"/><g clip-path="url(#master_svg0_211_49736)"><path d="M27.011550007890627,36.685261825C26.831536297890626,36.684816825,26.655558167890625,36.631897525,26.505159017890627,36.532978525L26.493163767890625,36.524634325C26.086383970890626,36.240123225,25.987369687890624,35.679666695,26.272041017890626,35.272998635C26.408768627890623,35.076513675,26.618630407890624,34.943119495,26.854573727890624,34.902722775L26.860832277890626,34.902722775C27.061716317890625,34.871029045,27.260848187890623,34.829077758,27.457445787890624,34.777037352L27.469440887890624,34.773908081C27.536450287890624,34.755588379,27.605463587890625,34.7456036377,27.674918287890627,34.744180908201C28.089990987890626,34.7402770997,28.454167587890623,35.020080565,28.557321787890626,35.422150855L28.557321787890626,35.429451285C28.612145387890624,35.660402175,28.574726087890625,35.903628425,28.453019587890626,36.107421325L28.445197387890623,36.119938325C28.314382087890625,36.318144425,28.113304887890624,36.459401225,27.882482087890626,36.515246525C27.662402987890626,36.567398625,27.429285087890626,36.613812225,27.189388487890625,36.658142125C27.164320487890624,36.664909625,27.138902687890624,36.670305725,27.113246787890624,36.674308425L27.104902687890625,36.674308425L27.062660277890625,36.687867425L27.011550007890627,36.685261825Z" fill="#5D87FF" fill-opacity="1" style="mix-blend-mode:passthrough"/><path d="M35.52894105703125,22.5624701875C35.33443903703125,22.5673536875,35.14461910703125,22.5024151875,34.99386656703125,22.3794185875C34.84425657703125,22.2678157875,34.73234435703125,22.1131393875,34.67313536703125,21.9361303875C34.61107542703125,21.753599887500002,34.53597655703125,21.5632470875,34.46452880603125,21.3791519875L34.46452880603125,21.3739370875C34.36704895103125,21.1531878875,34.36704895103125,20.9015918375,34.46452880603125,20.6808435275C34.55795471703125,20.4639871375,34.73402708703125,20.2933584575,34.95370971703125,20.2067861925C35.06199276703125,20.1580485555,35.17970394703125,20.1338296508,35.29843139703125,20.13586029053C35.66855705703125,20.131835632,36.00389825703125,20.3534005875,36.14537285703125,20.6954461975C36.23507265703125,20.9160470975,36.31277885703125,21.1309112875,36.39778565703125,21.3692440875C36.47558525703125,21.5941012875,36.45922305703125,21.8408560875,36.35241385703125,22.0534717875C36.24472225703125,22.2693438875,36.05559265703125,22.4335190875,35.82672725703125,22.5097970875C35.73322995703125,22.5443133875,35.63434755703125,22.561970187500002,35.53467955703125,22.5619482875L35.52894105703125,22.5624701875Z" fill="#5D87FF" fill-opacity="1" style="mix-blend-mode:passthrough"/><path d="M30.54586612984375,35.39836433125C30.36066960984375,35.39779113125,30.18043702984375,35.33844473125,30.03113099984375,35.22887263125C29.92154785984375,35.15685353125,29.83029357984375,35.06024173125,29.76463745984375,34.94673273125C29.51136229984375,34.51422123125,29.66517272984375,33.95795774125,30.10466613984375,33.71700010125L30.10988100984375,33.71439269125C30.28690921984375,33.62134400125,30.45858340984375,33.51844421125,30.62409424984375,33.40617676125C30.77172128984375,33.30146423325,30.94845278984375,33.24565551762,31.12944338984375,33.246593017578C31.42769288984375,33.24985046385,31.70664498984375,33.39465026125,31.88094658984375,33.63668638125L31.89033458984375,33.64920348125L31.89867878984375,33.66276243125C32.02341198984375,33.86414730125,32.065104989843746,34.10608458125,32.01497628984375,34.33760313125C31.96362258984375,34.56468693125,31.82863158984375,34.76410343125,31.63687808984375,34.89614613125L31.63009778984375,34.90136103125L31.62331738984375,34.90553403125C31.48563668984375,34.99314823125,31.33804818984375,35.08024223125,31.19515268984375,35.16629083125L31.00949288984375,35.27633003125C30.86989318984375,35.36004213125,30.70966128984375,35.40303513125,30.54690801984375,35.40044973125L30.54586612984375,35.39836433125Z" fill="#5D87FF" fill-opacity="1" style="mix-blend-mode:passthrough"/><path d="M36.06766844140625,26.217707825C35.88543087140625,26.218377125,35.70757872140625,26.161829725,35.55919188140625,26.056038625C35.32260680140625,25.888060325,35.17659118540625,25.620462825,35.16336181637625,25.330611325L35.16336181637625,25.294105625C35.17393432540625,25.096941225,35.17393432540625,24.899351225,35.16336181637625,24.702185985L35.16336181637625,24.698013965C35.15389709450625,24.460334775,35.24033935340625,24.228822645,35.40325928140625,24.055506915C35.56644103140625,23.879040835,35.79354673140625,23.7753491215,36.03377193140625,23.76763031006L36.06767028140625,23.76763031006C36.55230109140625,23.7624356076,36.95331299140625,24.143350835,36.97302059140625,24.627608955C36.984493991406254,24.863333425,36.984493991406254,25.102188125,36.984493991406254,25.333740625C36.97204829140625,25.825141625,36.57017949140625,26.217061525,36.07862180140625,26.217186925L36.06714845140625,26.217186925L36.06766844140625,26.217707825Z" fill="#5D87FF" fill-opacity="1" style="mix-blend-mode:passthrough"/><path d="M33.45175104984375,33.0315851875C33.27354186984375,33.0325629875,33.09876036984375,32.9826264875,32.94796752984375,32.8876478875C32.91262083984375,32.8681780875,32.87985595984375,32.8443505875,32.85044371984375,32.8167218875C32.67283507984375,32.6707537875,32.56031677084375,32.4603454875,32.53753479014375,32.2315827875C32.51350585884375,31.989013687499998,32.58876586684375,31.7470581875,32.74614135984375,31.5609149375L32.75031432984375,31.5557001275C32.89112424984375,31.3955945375,33.02150266984375,31.2360107875,33.13936399984375,31.0785144275L33.14249324984375,31.0743414475C33.31480466984375,30.8487023975,33.58192808984375,30.715621338,33.86583498984375,30.71397521973C34.06416558984375,30.7108843992,34.25789668984375,30.7738104275,34.41655578984375,30.8928546175C34.80561998984375,31.1935248075,34.88822268984375,31.7475818875,34.60377928984375,32.1486633875L34.600650089843754,32.1528362875C34.46192738984375,32.3317156875,34.30599488984375,32.5324999875,34.13650138984375,32.7223310875L34.13180838984375,32.7275457875C33.95651058984375,32.9186126875,33.70999028984375,33.0286590875,33.45070921984375,33.0315887875L33.45175104984375,33.0315851875Z" fill="#5D87FF" fill-opacity="1" style="mix-blend-mode:passthrough"/><path d="M35.34901857226563,29.83827139375C35.24484622226562,29.83734299375,35.14149415226562,29.81973579375,35.04289001226562,29.78611919375L35.02359438226563,29.77986069375L35.005340572265624,29.77099489375C34.94837466226563,29.74538949375,34.89330202226562,29.71576099375,34.84054202226562,29.68233709375C34.499328617265625,29.45013359375,34.36246459926563,29.01385009375,34.50990112526563,28.62835439375L34.50990112526563,28.62366059375C34.58291261226562,28.43852259375,34.644452522265624,28.25859952375,34.718507702265626,28.04269254375C34.83834657226563,27.66727325375,35.18965822226563,27.41443023695,35.583701222265624,27.42000305175C35.67883732226562,27.41632720945,35.77382152226563,27.43047759975,35.86375562226563,27.46172454575C36.094259722265626,27.53980163375,36.28466012226563,27.70565214375,36.39361522226562,27.92326569375C36.49786452226562,28.13014739375,36.51367382226562,28.37048518375,36.43742322226562,28.58924039375C36.36388982226563,28.80671199375,36.28357612226562,29.03148499375,36.199613122265625,29.25677979375L36.19648382226563,29.26408019375C36.057744822265626,29.61049559375,35.72218752226563,29.83764149375,35.34902227226563,29.83774589375L35.34901857226563,29.83827139375Z" fill="#5D87FF" fill-opacity="1" style="mix-blend-mode:passthrough"/><path d="M23.027691763671875,36.6873605C22.969078063671873,36.6890145,22.910504363671876,36.6828745,22.853506063671873,36.669107499999996C21.142347363671874,36.3730255,19.516886263671875,35.7054675,18.091550363671875,34.7134265C17.547884963671876,34.3366475,17.035170563671876,33.917058499999996,16.558295763671875,33.4586605L16.542128763671876,33.4424955C14.780755563671875,31.7423625,13.605037923671874,29.5266155,13.184614643671875,27.1149505C13.137614173671874,26.8843475,13.102798213671875,26.6514305,13.080311603671875,26.4171625L13.069359779671874,26.374398499999998L13.069359779671874,26.348322500000002C13.044848572671874,26.0979955,13.023466450671876,25.8727005,13.011993123671875,25.6500135L13.011993123671875,25.6051635C12.903140351671874,23.1729383,13.566916043671874,20.7686691,14.908222463671875,18.7368083L14.930125963671875,18.6940441L14.938991663671874,18.6804843C15.018261863671874,18.5579286,15.095446063671876,18.437458,15.188276063671875,18.315424C15.223024863671874,18.259636399999998,15.260623663671876,18.205674600000002,15.300923363671874,18.1537542L15.386973363671874,18.0291119L15.391667163671876,18.0228539C17.028523463671874,15.867082400000001,19.354702963671876,14.3373404,21.982575463671875,13.68854135L22.013866463671874,13.67863256L22.022732763671875,13.67863256C22.302264163671875,13.60457739,22.587011363671877,13.55138285,22.861849763671877,13.49975283L22.932775463671874,13.48671496C23.619785763671874,13.364373658,24.316325763671877,13.3034634399,25.014142763671877,13.304706168174C27.379216763671877,13.302690862,29.693116763671874,13.99325329,31.670240763671874,15.2911575L31.725000763671876,15.3266203L32.830091763671874,13.76207498L33.86060476367187,17.3912988C33.91201976367188,17.5354376,33.892703763671875,17.6953592,33.80845276367187,17.8231134C33.71787276367188,17.950231600000002,33.57377976367188,18.028531100000002,33.41783676367187,18.0353699L29.602431763671873,18.4004307L30.705957763671876,16.825454999999998L30.656934763671874,16.7936425C28.983650763671875,15.6966331,27.025393763671875,15.1144139,25.024570763671875,15.1190573C22.955381363671876,15.1141224,20.932495163671874,15.7313631,19.218542063671876,16.8906441L19.182035963671876,16.914634C18.213675463671876,17.573525,17.369393863671874,18.3983855,16.688150363671873,19.3511529C15.129377863671875,21.4962244,14.513101263671874,24.184340499999998,14.981755763671876,26.7942185C15.444942963671874,29.4174865,16.944271063671874,31.7440125,19.141881963671874,33.2495325C19.431078863671875,33.4512445,19.730856863671875,33.6373405,20.039930863671877,33.8070315L20.052968963671873,33.8070315L20.131196063671876,33.852926499999995C20.276177363671877,33.9384535,20.450884863671874,34.0198095,20.608903863671877,34.0928235L20.672529263671876,34.0928235L20.738240263671877,34.1590555C21.517338763671873,34.5119955,22.337928763671876,34.765024499999996,23.180494763671874,34.912122499999995C23.414931763671873,34.9520135,23.624518763671873,35.0818825,23.764592763671875,35.2740555L23.770850763671874,35.2823985L23.776587763671877,35.2912655C23.900699763671874,35.4824775,23.950422763671874,35.7125475,23.916353763671875,35.9379445L23.916353763671875,35.944725500000004C23.841511763671875,36.3762135,23.465081763671876,36.6899415,23.027170763671876,36.685798500000004L23.027691763671875,36.6873605Z" fill="#5D87FF" fill-opacity="1" style="mix-blend-mode:passthrough"/><path d="M31.129426041406248,29.48623534375C31.011546641406248,29.488804343749997,30.895100641406252,29.460009343750002,30.792006541406252,29.402793343749998L23.68218994140625,25.79130074375L23.68218994140625,18.15684050375C23.68218994140625,17.75605377375,24.00709137140625,17.43115234375,24.40787810140625,17.43115234375C24.80866484140625,17.43115234375,25.13356624140625,17.75605377375,25.13356624140625,18.15684050375L25.13356624140625,24.92245674375L31.46058894140625,28.13238334375C31.635123241406248,28.22120334375,31.76665874140625,28.37641534375,31.82565024140625,28.563153343750002C31.88151554140625,28.74242534375,31.86271194140625,28.936652343749998,31.77349754140625,29.10187934375C31.64899544140625,29.34097634375,31.40107774140625,29.49021034375,31.13151164140625,29.488321343750002L31.129426041406248,29.48623534375Z" fill="#5D87FF" fill-opacity="1" style="mix-blend-mode:passthrough"/></g></g></svg>