<svg xmlns="http://www.w3.org/2000/svg" xmlns:xlink="http://www.w3.org/1999/xlink" fill="none" version="1.1" width="50" height="50" viewBox="0 0 50 50"><defs><clipPath id="master_svg0_211_49785"><rect x="13" y="13" width="24" height="24.000001907348633" rx="0"/></clipPath></defs><g><rect x="0" y="0" width="50" height="50" rx="8" fill="#EFF3FF" fill-opacity="1"/><g clip-path="url(#master_svg0_211_49785)"><path d="M24.999997235839842,14.0908203125C18.975070435839843,14.09082042694093,14.090904235839844,18.9749870125,14.090904235839844,24.9999123125C14.090904235839844,31.0248373125,18.975070035839842,35.9090023125,24.999995235839844,35.9090023125C31.024923235839843,35.9090023125,35.909086235839844,31.0248373125,35.909088235839846,24.9999123125C35.909086235839844,18.9749865125,31.024923235839843,14.09082042694093,24.999997235839842,14.0908203125ZM24.999997235839842,34.2726423125C19.878810435839846,34.2726423125,15.727269435839844,30.1210993125,15.727269435839844,24.9999133125C15.727269435839844,19.878726512500002,19.878810435839846,15.7271846125,24.999997235839842,15.7271846125C30.121183235839844,15.7271846125,34.27272623583984,19.878726512500002,34.27272623583984,24.9999133125C34.27272623583984,30.1210993125,30.121183235839844,34.2726423125,24.999997235839842,34.2726423125Z" fill="#5D87FF" fill-opacity="1" style="mix-blend-mode:passthrough"/><path d="M29.592733380273437,21.6287170525L24.389096780273437,26.8323531125L21.498186980273438,23.9414437125C21.178931480273437,23.6202390125,20.65968007027344,23.6188373125,20.33869615027344,23.9383142125C20.017712243273436,24.2577922125,20.016669914273436,24.7770448125,20.336368870273436,25.0978076125L23.810914280273437,28.5723534125C24.13035198027344,28.8913927125,24.64783998027344,28.8913927125,24.967277480273438,28.5723534125L30.754549780273436,22.7850803125C31.073493780273438,22.4641889125,31.072092780273437,21.9455554525,30.751422780273437,21.6263897825C30.43075178027344,21.3072241175,29.912116080273435,21.3082659915,29.592733380273437,21.6287170525Z" fill="#5D87FF" fill-opacity="1" style="mix-blend-mode:passthrough"/></g></g></svg>