<svg xmlns="http://www.w3.org/2000/svg" xmlns:xlink="http://www.w3.org/1999/xlink" fill="none" version="1.1" width="50" height="50" viewBox="0 0 50 50"><defs><clipPath id="master_svg0_211_50400"><rect x="13" y="13" width="24" height="24" rx="0"/></clipPath></defs><g><rect x="0" y="0" width="50" height="50" rx="8" fill="#EFF3FF" fill-opacity="1"/><g clip-path="url(#master_svg0_211_50400)"><path d="M25,37C18.4260001,37,13,31.574001,13,25C13,18.4259992,18.4260001,13,25,13C31.573999,13,37,18.4260001,37,25C37,31.573999,31.573999,37,25,37ZM25,15.0869994C19.5739999,15.0869994,15.0870004,19.573999399999998,15.0870004,24.999999000000003C15.0870004,30.425999,19.5739999,34.913,25,34.913C30.426001,34.913,34.913,30.426001,34.913,25.000000999999997C34.913,19.5740008,30.425999,15.0869999,25,15.0869994ZM25.104,26.773999C24.478,26.773999,24.061,26.356999000000002,24.061,25.73L24.061,18.8429999C24.061,18.2169995,24.478,17.7999997,25.104,17.7999997C25.73,17.7999997,26.148,18.2169995,26.148,18.8429999L26.148,25.625999C26.148,26.252000000000002,25.625999,26.773999,25.104,26.773999ZM23.644,29.799999C23.644,30.606611,24.297888,31.2605,25.1045,31.2605C25.911113,31.2605,26.565001000000002,30.606611,26.565001000000002,29.799999C26.565001000000002,28.993111,25.910888999999997,28.339,25.104001,28.339C24.297112,28.339,23.643000999999998,28.993111,23.643000999999998,29.799999L23.644,29.799999Z" fill="#5D87FF" fill-opacity="1" style="mix-blend-mode:passthrough"/></g></g></svg>