<svg xmlns="http://www.w3.org/2000/svg" xmlns:xlink="http://www.w3.org/1999/xlink" fill="none" version="1.1" width="18" height="18" viewBox="0 0 18 18"><defs><clipPath id="master_svg0_55_14910"><rect x="0" y="0" width="18" height="18" rx="0"/></clipPath></defs><g clip-path="url(#master_svg0_55_14910)"><g><path d="M14.625,4.5L11.25,4.5L11.25,2.826563C11.25,2.517188,10.99687,2.25,10.67344,2.25L7.3125,2.25C7.00313,2.25,6.73594,2.503125,6.73594,2.826563L6.73594,4.5L3.375,4.5L2.25,14.625C2.25,15.2438,2.75625,15.75,3.375,15.75L14.625,15.75C15.2438,15.75,15.75,15.2438,15.75,14.625L14.625,4.5ZM7.875,3.375L10.125,3.375L10.125,4.5L7.875,4.5L7.875,3.375ZM13.6125,5.625L14.6109,14.625L3.375,14.625L4.37344,5.625" fill="#999999" fill-opacity="1" style="mix-blend-mode:passthrough"/></g><g><path d="M7.86094,6.19921875L6.75,6.19921875L6.75,7.31015875L7.86094,7.31015875L7.86094,6.19921875ZM11.25,6.19921875L10.13906,6.19921875L10.13906,7.31015875L11.25,7.31015875L11.25,6.19921875Z" fill="#999999" fill-opacity="1" style="mix-blend-mode:passthrough"/></g></g></svg>