<svg xmlns="http://www.w3.org/2000/svg" xmlns:xlink="http://www.w3.org/1999/xlink" fill="none" version="1.1" width="12" height="12" viewBox="0 0 12 12"><g transform="matrix(-1,0,0,-1,24,24)"><g><path d="M18,24Q18.147289999999998,24,18.29441,23.992800000000003Q18.44152,23.985500000000002,18.5881,23.9711Q18.73469,23.956699999999998,18.88038,23.9351Q19.02608,23.9134,19.17054,23.884700000000002Q19.315,23.856,19.45788,23.8202Q19.60076,23.784399999999998,19.74171,23.7416Q19.88266,23.698900000000002,20.021340000000002,23.6493Q20.16002,23.599600000000002,20.2961,23.543300000000002Q20.432180000000002,23.4869,20.56533,23.4239Q20.69848,23.361,20.82838,23.2915Q20.958280000000002,23.222099999999998,21.08462,23.1464Q21.21095,23.0706,21.33342,22.988799999999998Q21.45589,22.907,21.574199999999998,22.819200000000002Q21.692500000000003,22.7315,21.806359999999998,22.6381Q21.92022,22.544600000000003,22.029400000000003,22.445700000000002Q22.1385,22.3468,22.2426,22.2426Q22.3468,22.1385,22.445700000000002,22.029400000000003Q22.544600000000003,21.92022,22.6381,21.806359999999998Q22.7315,21.692500000000003,22.819200000000002,21.57419Q22.907,21.45589,22.988799999999998,21.33342Q23.0706,21.21095,23.1464,21.08462Q23.222099999999998,20.958280000000002,23.2915,20.82838Q23.361,20.69848,23.4239,20.56533Q23.4869,20.432180000000002,23.543300000000002,20.2961Q23.599600000000002,20.16002,23.6493,20.021340000000002Q23.698900000000002,19.88266,23.7416,19.74171Q23.784399999999998,19.60076,23.8202,19.45788Q23.856,19.315,23.884700000000002,19.17054Q23.9134,19.02608,23.9351,18.88038Q23.956699999999998,18.73469,23.9711,18.5881Q23.985500000000002,18.44152,23.992800000000003,18.29441Q24,18.147289999999998,24,18Q24,17.852710000000002,23.992800000000003,17.70559Q23.985500000000002,17.55848,23.9711,17.4119Q23.956699999999998,17.26531,23.9351,17.11962Q23.9134,16.97392,23.884700000000002,16.82946Q23.856,16.685,23.8202,16.54212Q23.784399999999998,16.39924,23.7416,16.25829Q23.698900000000002,16.11734,23.6493,15.97866Q23.599600000000002,15.83998,23.543300000000002,15.7039Q23.4869,15.567820000000001,23.4239,15.43467Q23.361,15.30152,23.2915,15.17162Q23.222099999999998,15.04172,23.1464,14.915379999999999Q23.0706,14.78905,22.988799999999998,14.66658Q22.907,14.54411,22.819200000000002,14.4258Q22.7315,14.307500000000001,22.6381,14.19364Q22.544600000000003,14.07978,22.445700000000002,13.97065Q22.3468,13.861509999999999,22.2426,13.75736Q22.1385,13.65321,22.029400000000003,13.55429Q21.92022,13.45538,21.806359999999998,13.36194Q21.692500000000003,13.2685,21.57419,13.18075Q21.45589,13.09301,21.33342,13.01118Q21.21095,12.929351,21.08462,12.853628Q20.958280000000002,12.777905,20.82838,12.708472Q20.69848,12.63904,20.56533,12.576064Q20.432180000000002,12.513089,20.2961,12.456723Q20.16002,12.400357,20.021340000000002,12.350736Q19.88266,12.301114,19.74171,12.258358Q19.60076,12.215601,19.45788,12.179812Q19.315,12.144023,19.17054,12.115288Q19.02608,12.0865531,18.88038,12.0649409Q18.73469,12.0433288,18.5881,12.0288916Q18.44152,12.0144545,18.29441,12.00722726Q18.147289999999998,12,18,12Q17.852710000000002,12,17.70559,12.00722726Q17.55848,12.0144545,17.4119,12.0288916Q17.26531,12.0433288,17.11962,12.0649409Q16.97392,12.0865531,16.82946,12.115288Q16.685,12.144023,16.54212,12.179812Q16.39924,12.215601,16.25829,12.258358Q16.11734,12.301114,15.97866,12.350736Q15.83998,12.400357,15.7039,12.456723Q15.567820000000001,12.513089,15.43467,12.576064Q15.30152,12.63904,15.17162,12.708472Q15.04172,12.777905,14.915379999999999,12.853628Q14.78905,12.929351,14.66658,13.01118Q14.54411,13.09301,14.4258,13.18075Q14.307500000000001,13.2685,14.19364,13.36194Q14.07978,13.45538,13.97065,13.55429Q13.861509999999999,13.65321,13.75736,13.75736Q13.65321,13.861509999999999,13.55429,13.97065Q13.45538,14.07978,13.36194,14.19364Q13.2685,14.307500000000001,13.18075,14.4258Q13.09301,14.54411,13.01118,14.66658Q12.929351,14.78905,12.853628,14.915379999999999Q12.777905,15.04172,12.708472,15.17162Q12.63904,15.30152,12.576064,15.43467Q12.513089,15.567820000000001,12.456723,15.7039Q12.400357,15.83998,12.350736,15.97866Q12.301114,16.11734,12.258358,16.25829Q12.215601,16.39924,12.179812,16.54212Q12.144023,16.685,12.115288,16.82946Q12.0865531,16.97392,12.0649409,17.11962Q12.0433288,17.26532,12.0288916,17.4119Q12.0144545,17.55848,12.00722726,17.70559Q12,17.852710000000002,12,18Q12,18.147289999999998,12.00722726,18.29441Q12.0144545,18.44152,12.0288916,18.5881Q12.0433288,18.73469,12.0649409,18.88038Q12.0865531,19.02608,12.115288,19.17054Q12.144023,19.315,12.179812,19.45788Q12.215601,19.60076,12.258358,19.74171Q12.301114,19.88266,12.350736,20.021340000000002Q12.400357,20.16002,12.456723,20.2961Q12.513089,20.432180000000002,12.576064,20.56533Q12.63904,20.69848,12.708472,20.82838Q12.777905,20.958280000000002,12.853628,21.08462Q12.929351,21.21095,13.01118,21.33342Q13.09301,21.45589,13.18075,21.574199999999998Q13.2685,21.692500000000003,13.36194,21.806359999999998Q13.45538,21.92022,13.55429,22.029400000000003Q13.65321,22.1385,13.75736,22.2426Q13.861509999999999,22.3468,13.97065,22.445700000000002Q14.07978,22.544600000000003,14.19364,22.6381Q14.307500000000001,22.7315,14.4258,22.819200000000002Q14.54411,22.907,14.66658,22.988799999999998Q14.78905,23.0706,14.915379999999999,23.1464Q15.04172,23.222099999999998,15.17162,23.2915Q15.30152,23.361,15.43467,23.4239Q15.567820000000001,23.4869,15.7039,23.543300000000002Q15.83998,23.599600000000002,15.97866,23.6493Q16.11734,23.698900000000002,16.25829,23.7416Q16.39924,23.784399999999998,16.54212,23.8202Q16.685,23.856,16.82946,23.884700000000002Q16.97392,23.9134,17.11962,23.9351Q17.26532,23.956699999999998,17.4119,23.9711Q17.55848,23.985500000000002,17.70559,23.992800000000003Q17.852710000000002,24,18,24ZM23.182000000000002,18.00018C23.182000000000002,15.142,20.858359999999998,12.818359,18.00018,12.818359C15.142,12.818359,12.818359,15.142,12.818359,18.00018C12.818359,20.858359999999998,15.142,23.182000000000002,18.00018,23.182000000000002C20.858359999999998,23.182000000000002,23.182000000000002,20.858359999999998,23.182000000000002,18.00018Z" fill-rule="evenodd" fill="#0064FF" fill-opacity="1"/></g><g><path d="M18.00035,19.5C17.90091,19.5,17.801470000000002,19.46599,17.72137,19.39796L15.13592,17.184368C14.9674243,17.037842,14.9536132,16.791888,15.105536,16.629663C15.26022,16.4674379,15.519870000000001,16.4569718,15.691127999999999,16.600881L18.00035,18.57898L20.30681,16.603498C20.47531,16.4595883,20.73772,16.4700545,20.892400000000002,16.63228C21.04709,16.791888,21.03328,17.040459,20.86202,17.186985L18.27657,19.400570000000002C18.19923,19.46599,18.09979,19.5,18.00035,19.5Z" fill="#0064FF" fill-opacity="1"/></g></g></svg>