<svg xmlns="http://www.w3.org/2000/svg" xmlns:xlink="http://www.w3.org/1999/xlink" fill="none" version="1.1" width="18" height="18.000003814697266" viewBox="0 0 18 18.000003814697266"><defs><clipPath id="master_svg0_69_16159"><rect x="0" y="0" width="18" height="18.000003814697266" rx="0"/></clipPath></defs><g clip-path="url(#master_svg0_69_16159)"><g><path d="M16.749828125,6.1975825C16.749828125,6.1885125,16.746828125,6.1824625,16.746828125,6.1733925C16.740828125,6.1401325,16.731728125,6.1098925,16.719628125,6.0796625L15.398228125,2.7959325C15.168428125,2.1156045,14.515328125,1.69833614,13.747328125,1.6953125L4.491838125,1.6953125C3.714758125,1.6953125,3.110018125,2.1095575,2.892308125,2.7626725L1.474202125,6.1129125C1.468155125,6.1340825,1.459083125,6.1612925,1.4530361250000001,6.1915325C1.350230725,6.5090225,1.298828125,6.8325525,1.298828125,7.1591125C1.298828125,8.3050925,1.927755125,9.3512825,2.937668125,9.8895025C3.351908125,10.1102325,3.841748125,10.2221025,4.392058125,10.2221025C5.314278125,10.2190825,6.169988125,9.8139125,6.753558125,9.1184625C7.334108125,9.8078625,8.180738125000001,10.2100125,9.102958125,10.2160625C10.016118125,10.2100125,10.862748125,9.8048425,11.440228125,9.1154425C12.023828125,9.8108825,12.879528125,10.2130325,13.807828125,10.2130325C14.370228125,10.2100125,14.866128125,10.0920925,15.286428125,9.8622925C16.281228125,9.3180225,16.898028125,8.2778825,16.898028125,7.1439925C16.901028125,6.8204625,16.846628125000002,6.4939025,16.749828125,6.1975825ZM14.751228125,8.879592500000001C14.497228125,9.0186825,14.179728125,9.0912425,13.807828125,9.0912425C13.121428125,9.0912425,12.498528125,8.743522500000001,12.132728125,8.153902500000001C12.105528125,8.0994825,12.063128125,8.0057425,11.981528125,7.9180625C11.887728125,7.8152525,11.721428125,7.6912825,11.443328125,7.6912825C11.219538125,7.6912825,11.016958125,7.7819925,10.902058125,7.9241025C10.826458125,8.0087725,10.784128125,8.093432499999999,10.753898125,8.1569325C10.394078125,8.7405025,9.774218125,9.0912425,9.102958125,9.094272499999999C8.422628125,9.0912425,7.802778125,8.7405025,7.439938125,8.153902500000001C7.415748125,8.1025025,7.373418125,8.0148125,7.306888125,7.9422425C7.043828125,7.6277825,6.451188125,7.6429025,6.221388125,7.9180625C6.136728125,8.0117925,6.091368125,8.1055225,6.064158125,8.1690225C5.701318125,8.7525925,5.075408125,9.1003225,4.3950781249999995,9.1033425C4.032238125,9.1033425,3.720798125,9.0338025,3.469838125,8.9007525C2.825788125,8.559082499999999,2.426668125,7.8908425,2.426668125,7.1621325C2.426668125,6.9474525,2.462948125,6.7297525,2.5355181250000003,6.5180925C2.541568125,6.5029725,2.5445881249999998,6.4848325,2.547608125,6.4697125L3.944558125,3.1678425C3.971768125,3.0831825,4.059458125,2.8261725,4.494868125,2.8261725L13.753428125,2.8261725C13.931828125,2.8382625,14.240228125,2.8685025,14.349028125,3.1890125L15.655328125,6.4455225C15.661328125,6.4697125,15.667428125,6.4908825,15.673428125,6.5090225C15.746028125,6.7206825,15.782328125,6.9353625,15.782328125,7.1500425C15.776228125,7.8696825,15.383128125,8.531862499999999,14.751228125,8.879592500000001Z" fill="#999999" fill-opacity="1" style="mix-blend-mode:passthrough"/></g><g><path d="M15.1707953125,10.685546875C14.8593953125,10.685546875,14.6083953125,10.936512875,14.6083953125,11.247951875L14.6083953125,14.316996875000001C14.6083953125,14.492366875,14.4662953125,14.634476875,14.2908953125,14.634476875L3.7080153124999997,14.640526874999999C3.5326453124999997,14.640526874999999,3.3905353125,14.498416875,3.3905353125,14.326066875L3.3875053125,11.311450875C3.3875053125,11.000010875,3.1335173125,10.749045775,2.8251013125,10.749045775C2.5136613125,10.749045775,2.2626953125,11.003034875,2.2626953125,11.311450875L2.2657189525,14.326066875C2.2657189525,15.118266875,2.9127873125,15.765336875,3.7080153124999997,15.765336875L14.2938953125,15.759296875C15.0861953125,15.756266875,15.7331953125,15.112226875000001,15.7331953125,14.316996875000001L15.7331953125,11.247953875C15.7331953125,10.939536875,15.4822953125,10.685546875,15.1707953125,10.685546875Z" fill="#999999" fill-opacity="1" style="mix-blend-mode:passthrough"/></g><g><path d="M13.50142,6.74981L4.499906,6.74981C4.188466,6.74981,3.9375,6.498845,3.9375,6.187406C3.9375,5.875966,4.188466,5.625,4.499906,5.625L13.49839,5.625C13.80983,5.625,14.0608,5.875966,14.0608,6.187406C14.0638,6.498845,13.80984,6.74981,13.50142,6.74981Z" fill="#999999" fill-opacity="1" style="mix-blend-mode:passthrough"/></g></g></svg>