<svg xmlns="http://www.w3.org/2000/svg" xmlns:xlink="http://www.w3.org/1999/xlink" fill="none" version="1.1" width="16" height="16.000001907348633" viewBox="0 0 16 16.000001907348633"><defs><clipPath id="master_svg0_69_16909"><rect x="0" y="0" width="16" height="16.000001907348633" rx="0"/></clipPath></defs><g clip-path="url(#master_svg0_69_16909)"><g><path d="M13.5827684375,11.1782721875L10.3508884375,11.1782721875C9.2979184375,11.1782721875,8.4411984375,10.3215621875,8.4411984375,9.268592187500001C8.4411984375,8.2156221875,9.2979184375,7.3589021875,10.3508884375,7.3589021875L13.5826084375,7.3589021875C13.8260484375,7.3589021875,14.0232384375,7.5560921875,14.0232384375,7.7995221875C14.0232384375,8.042962187499999,13.8260484375,8.2401521875,13.5826084375,8.2401521875L10.3508884375,8.2401521875C9.7840184375,8.2401521875,9.3226084375,8.701552187499999,9.3226084375,9.2684321875C9.3226084375,9.8353021875,9.7840184375,10.2967121875,10.3508884375,10.2967121875L13.5826084375,10.2967121875C13.8260484375,10.2967121875,14.0232384375,10.4939021875,14.0232384375,10.7373421875C14.0233884375,10.9810921875,13.8262084375,11.1782721875,13.5827684375,11.1782721875ZM12.7193284375,5.0731221875C12.5393284375,5.0731221875,12.3702684375,4.9618721875,12.3051084375,4.7831221875L11.606828437499999,2.8643691875C11.5887084375,2.8145251875,11.5515184375,2.7910871875,11.5308884375,2.7814001875C11.510268437499999,2.7717121875,11.4682384375,2.7578061875,11.4185484375,2.7765561874999998L5.2001094375,5.0399921875C4.9713594375,5.1228021875,4.7183904375,5.0053021875,4.6351092375,4.7765521875C4.5518280375,4.5478021875,4.6697967375,4.2949921875,4.8985464375,4.211552187500001L11.1169884375,1.9481187875C11.3752684375,1.8543687875,11.654638437500001,1.8667124875,11.9032384375,1.9823374875C12.1521384375,2.0984311875,12.3410484375,2.3045251875,12.4349584375,2.5626501875L13.1332384375,4.4814021875000005C13.2165184375,4.7101521875,13.0985484375,4.9629621875000005,12.8697984375,5.0464021875C12.8215484375,5.0640721875,12.7706084375,5.0731221875,12.7193284375,5.0731221875Z" fill="#FFFFFF" fill-opacity="1" style="mix-blend-mode:passthrough"/></g><g><path d="M13.2893703125,14.1160584375L2.7128503125,14.1160584375C2.1459763125,14.1160584375,1.6845703125,13.6546484375,1.6845703125,13.0877784375L1.6845703125,5.4491784375000005C1.6845703125,4.8823044375,2.1459763125,4.4208984375,2.7128503125,4.4208984375L13.2895703125,4.4208984375C13.8564703125,4.4208984375,14.3178703125,4.8823044375,14.3178703125,5.4491784375000005L14.3178703125,13.0879284375C14.3176703125,13.6548084375,13.8564703125,14.1160584375,13.2893703125,14.1160584375ZM2.7128503125,5.3021484375C2.6317583125,5.3021484375,2.5659763125,5.3679294375,2.5659763125,5.4490284375L2.5659763125,13.0877784375C2.5659763125,13.1688684375,2.6317583125,13.2346484375,2.7128503125,13.2346484375L13.2895703125,13.2346484375C13.3706703125,13.2346484375,13.4364703125,13.1688684375,13.4364703125,13.0877784375L13.4364703125,5.4491784375000005C13.4364703125,5.3680864375,13.3706703125,5.3023044375,13.2895703125,5.3023044375L2.7128503125,5.3023044375L2.7128503125,5.3021484375Z" fill="#FFFFFF" fill-opacity="1" style="mix-blend-mode:passthrough"/></g></g></svg>