<svg xmlns="http://www.w3.org/2000/svg" xmlns:xlink="http://www.w3.org/1999/xlink" fill="none" version="1.1" width="14.000000953674316" height="14.000000953674316" viewBox="0 0 14.000000953674316 14.000000953674316"><defs><clipPath id="master_svg0_69_16936"><rect x="14.000000953674316" y="14.000000953674316" width="14.000000953674316" height="14.000000953674316" rx="0"/></clipPath></defs><g transform="matrix(-1,0,0,-1,28.000001907348633,28.000001907348633)" clip-path="url(#master_svg0_69_16936)"><g><path d="M20.998370016174317,26.826857203674315C17.776710016174317,26.826857203674315,15.165040016174316,24.215127203674317,15.165040016174316,20.993487203674317C15.165040016174316,17.771827203674317,17.776710016174317,15.160157203674316,20.998370016174317,15.160157203674316C24.220010016174317,15.160157203674316,26.831740016174315,17.771827203674317,26.831740016174315,20.993487203674317C26.831740016174315,24.215127203674317,24.220010016174317,26.826857203674315,20.998370016174317,26.826857203674315ZM20.998370016174317,25.660157203674316C23.575720016174316,25.660157203674316,25.665040016174316,23.570837203674316,25.665040016174316,20.993487203674317C25.665040016174316,18.416157203674317,23.575720016174316,16.326827203674316,20.998370016174317,16.326827203674316C18.421040016174317,16.326827203674316,16.331710016174316,18.416157203674317,16.331710016174316,20.993487203674317C16.331710016174316,23.570837203674316,18.421040016174317,25.660157203674316,20.998370016174317,25.660157203674316ZM20.415040016174316,22.743487203674317L21.581710016174316,22.743487203674317L21.581710016174316,23.910157203674316L20.415040016174316,23.910157203674316L20.415040016174316,22.743487203674317ZM20.415040016174316,18.076827203674316L21.581710016174316,18.076827203674316L21.581710016174316,21.576827203674316L20.415040016174316,21.576827203674316L20.415040016174316,18.076827203674316Z" fill="#999999" fill-opacity="1"/></g></g></svg>