<svg xmlns="http://www.w3.org/2000/svg" xmlns:xlink="http://www.w3.org/1999/xlink" fill="none" version="1.1" width="12" height="12" viewBox="0 0 12 12"><g transform="matrix(1,5.2146120310681e-8,-5.2146120310681e-8,1,0,0)"><g><path d="M6,12Q6.14729,12,6.29441,11.9928Q6.44152,11.9855,6.5881,11.9711Q6.73469,11.9567,6.88038,11.9351Q7.02608,11.9134,7.17054,11.8847Q7.315,11.856,7.45788,11.8202Q7.60076,11.7844,7.74171,11.7416Q7.88266,11.6989,8.02134,11.6493Q8.16002,11.5996,8.2961,11.5433Q8.43218,11.4869,8.56533,11.4239Q8.69848,11.361,8.82838,11.2915Q8.95828,11.2221,9.08462,11.1464Q9.21095,11.0706,9.33342,10.9888Q9.45589,10.907,9.5742,10.8192Q9.6925,10.7315,9.80636,10.6381Q9.92022,10.5446,10.0294,10.4457Q10.1385,10.3468,10.2426,10.2426Q10.3468,10.1385,10.4457,10.0294Q10.5446,9.92022,10.6381,9.80636Q10.7315,9.6925,10.8192,9.57419Q10.907,9.45589,10.9888,9.33342Q11.0706,9.21095,11.1464,9.08462Q11.2221,8.95828,11.2915,8.82838Q11.361,8.69848,11.4239,8.56533Q11.4869,8.43218,11.5433,8.2961Q11.5996,8.16002,11.6493,8.02134Q11.6989,7.88266,11.7416,7.74171Q11.7844,7.60076,11.8202,7.45788Q11.856,7.315,11.8847,7.17054Q11.9134,7.02608,11.9351,6.88038Q11.9567,6.73469,11.9711,6.5881Q11.9855,6.44152,11.9928,6.29441Q12,6.14729,12,6Q12,5.85271,11.9928,5.70559Q11.9855,5.55848,11.9711,5.4119Q11.9567,5.26531,11.9351,5.11962Q11.9134,4.97392,11.8847,4.82946Q11.856,4.685,11.8202,4.54212Q11.7844,4.39924,11.7416,4.25829Q11.6989,4.11734,11.6493,3.97866Q11.5996,3.83998,11.5433,3.7039Q11.4869,3.56782,11.4239,3.43467Q11.361,3.30152,11.2915,3.17162Q11.2221,3.04172,11.1464,2.91538Q11.0706,2.78905,10.9888,2.66658Q10.907,2.54411,10.8192,2.4258Q10.7315,2.3075,10.6381,2.19364Q10.5446,2.07978,10.4457,1.97065Q10.3468,1.86151,10.2426,1.75736Q10.1385,1.65321,10.0294,1.55429Q9.92022,1.45538,9.80636,1.36194Q9.6925,1.2685,9.57419,1.18075Q9.45589,1.09301,9.33342,1.01118Q9.21095,0.929351,9.08462,0.853628Q8.95828,0.777905,8.82838,0.708472Q8.69848,0.63904,8.56533,0.576064Q8.43218,0.513089,8.2961,0.456723Q8.16002,0.400357,8.02134,0.350736Q7.88266,0.301114,7.74171,0.258358Q7.60076,0.215601,7.45788,0.179812Q7.315,0.144023,7.17054,0.115288Q7.02608,0.0865531,6.88038,0.0649409Q6.73469,0.0433288,6.5881,0.0288916Q6.44152,0.0144545,6.29441,0.00722726Q6.14729,0,6,0Q5.85271,0,5.70559,0.00722726Q5.55848,0.0144545,5.4119,0.0288916Q5.26531,0.0433288,5.11962,0.0649409Q4.97392,0.0865531,4.82946,0.115288Q4.685,0.144023,4.54212,0.179812Q4.39924,0.215601,4.25829,0.258358Q4.11734,0.301114,3.97866,0.350736Q3.83998,0.400357,3.7039,0.456723Q3.56782,0.513089,3.43467,0.576064Q3.30152,0.63904,3.17162,0.708472Q3.04172,0.777905,2.91538,0.853628Q2.78905,0.929351,2.66658,1.01118Q2.54411,1.09301,2.4258,1.18075Q2.3075,1.2685,2.19364,1.36194Q2.07978,1.45538,1.97065,1.55429Q1.86151,1.65321,1.75736,1.75736Q1.65321,1.86151,1.55429,1.97065Q1.45538,2.07978,1.36194,2.19364Q1.2685,2.3075,1.18075,2.4258Q1.09301,2.54411,1.01118,2.66658Q0.929351,2.78905,0.853628,2.91538Q0.777905,3.04172,0.708472,3.17162Q0.63904,3.30152,0.576064,3.43467Q0.513089,3.56782,0.456723,3.7039Q0.400357,3.83998,0.350736,3.97866Q0.301114,4.11734,0.258358,4.25829Q0.215601,4.39924,0.179812,4.54212Q0.144023,4.685,0.115288,4.82946Q0.0865531,4.97392,0.0649409,5.11962Q0.0433288,5.26532,0.0288916,5.4119Q0.0144545,5.55848,0.00722726,5.70559Q0,5.85271,0,6Q0,6.14729,0.00722726,6.29441Q0.0144545,6.44152,0.0288916,6.5881Q0.0433288,6.73469,0.0649409,6.88038Q0.0865531,7.02608,0.115288,7.17054Q0.144023,7.315,0.179812,7.45788Q0.215601,7.60076,0.258358,7.74171Q0.301114,7.88266,0.350736,8.02134Q0.400357,8.16002,0.456723,8.2961Q0.513089,8.43218,0.576064,8.56533Q0.63904,8.69848,0.708472,8.82838Q0.777905,8.95828,0.853628,9.08462Q0.929351,9.21095,1.01118,9.33342Q1.09301,9.45589,1.18075,9.5742Q1.2685,9.6925,1.36194,9.80636Q1.45538,9.92022,1.55429,10.0294Q1.65321,10.1385,1.75736,10.2426Q1.86151,10.3468,1.97065,10.4457Q2.07978,10.5446,2.19364,10.6381Q2.3075,10.7315,2.4258,10.8192Q2.54411,10.907,2.66658,10.9888Q2.78905,11.0706,2.91538,11.1464Q3.04172,11.2221,3.17162,11.2915Q3.30152,11.361,3.43467,11.4239Q3.56782,11.4869,3.7039,11.5433Q3.83998,11.5996,3.97866,11.6493Q4.11734,11.6989,4.25829,11.7416Q4.39924,11.7844,4.54212,11.8202Q4.685,11.856,4.82946,11.8847Q4.97392,11.9134,5.11962,11.9351Q5.26532,11.9567,5.4119,11.9711Q5.55848,11.9855,5.70559,11.9928Q5.85271,12,6,12ZM11.182,6.00018C11.182,3.142,8.85836,0.818359,6.00018,0.818359C3.142,0.818359,0.818359,3.142,0.818359,6.00018C0.818359,8.85836,3.142,11.182,6.00018,11.182C8.85836,11.182,11.182,8.85836,11.182,6.00018Z" fill-rule="evenodd" fill="#0064FF" fill-opacity="1"/></g><g><path d="M6.00035,7.5C5.90091,7.5,5.80147,7.46599,5.72137,7.397959999999999L3.13592,5.184368C2.9674243,5.037842,2.9536132,4.791888,3.105536,4.629663C3.26022,4.4674379,3.51987,4.4569718,3.691128,4.600881L6.00035,6.57898L8.306809999999999,4.603498C8.47531,4.4595883,8.73772,4.4700545,8.8924,4.63228C9.04709,4.791888,9.033280000000001,5.040459,8.862020000000001,5.186985L6.2765699999999995,7.40057C6.19923,7.46599,6.0997900000000005,7.5,6.00035,7.5Z" fill="#0064FF" fill-opacity="1"/></g></g></svg>