<svg xmlns="http://www.w3.org/2000/svg" xmlns:xlink="http://www.w3.org/1999/xlink" fill="none" version="1.1" width="38" height="37.81817626953125" viewBox="0 0 38 37.81817626953125"><defs><clipPath id="master_svg0_55_24237"><rect x="9" y="9" width="20" height="20" rx="0"/></clipPath></defs><g><path d="M0 6C4.90527396329193e-16 2.686291501015239 2.6862915010152397 0 6 0L32 0C35.31370849898476 0 38 2.6862915010152397 38 6L38 31.818180084228516C38 35.131888583213275 35.31370849898476 37.818180084228516 32 37.818180084228516L6 37.818180084228516C2.6862915010152397 37.818180084228516 0 35.131888583213275 0 31.818180084228516Z" fill="#FCF5EA" fill-opacity="1"/><g><g clip-path="url(#master_svg0_55_24237)"><path d="M23.084029196875,13.868000518798828L26.400030296875002,13.868000518798828L21.788029696875,9.256000518798828L21.788029696875,12.572000518798827C21.788029696875,13.28800061879883,22.368029096875,13.868000518798828,23.084029196875,13.868000518798828ZM17.192029696875,12.696000318798827C15.864029796875,12.696000318798827,14.780029296875,13.776000518798828,14.780029296875,15.108000718798827C14.780029296875,16.440001918798828,15.860029596875,17.520001418798827,17.192029696875,17.520001418798827C18.524029496875,17.520001418798827,19.604030096875,16.440001018798828,19.604030096875,15.108000718798827C19.604030096875,13.776000518798828,18.520029496875,12.696000318798827,17.192029696875,12.696000318798827Z" fill="#EBA941" fill-opacity="1" style="mix-blend-mode:passthrough"/><path d="M21.108088490625,13.203999750805664L21.108088490625,9.235999774933664L12.776087760625,9.235999774933664C12.260087790625,9.231999778605664,11.840087890625,9.651999770805665,11.840087890625,10.171999870805664L11.840087890625,27.708000450805663C11.840087890625,28.224000450805665,12.260087790625,28.644001450805664,12.776087760625,28.644001450805664L25.460087890624997,28.644001450805664C25.976088890625,28.644001450805664,26.396087890624997,28.224000450805665,26.396087890624997,27.708000450805663L26.396087890624997,14.499999550805665L22.404086890625003,14.499999550805665C21.692087190625,14.499999550805665,21.108087490625,13.919999550805663,21.108088490625,13.203999750805664ZM13.600087990625,22.072000450805664L19.956088090625002,22.072000450805664C20.320087390624998,22.072000450805664,20.612087290625,22.368001450805664,20.612087290625,22.728000450805666C20.612087290625,23.092000450805664,20.316087690625,23.383999450805664,19.956088090625002,23.383999450805664L13.600087990625,23.383999450805664C13.236087990625,23.383999450805664,12.944087890625,23.087999450805665,12.944087890625,22.728000450805666C12.940087690624999,22.368000450805663,13.236087990625,22.072000450805664,13.600087990625,22.072000450805664ZM25.080088890625,25.624000450805664C25.080088890625,25.988000450805664,24.784087890625003,26.280000450805662,24.424088890625,26.280000450805662L13.600087990625,26.280000450805662C13.236087990625,26.280000450805662,12.944087890625,25.984001450805664,12.944087890625,25.624000450805664C12.944087890625,25.260002450805665,13.240087790625001,24.968001450805666,13.600087990625,24.968001450805666L24.424086890625,24.968001450805666C24.784087890625003,24.964001450805664,25.080087890625002,25.260002450805665,25.080088890625,25.624000450805664ZM22.572087890625,20.376000450805662C22.400087890625002,20.548001450805664,22.124087890625,20.548001450805664,21.952087890625002,20.376000450805662L19.244088190625,17.66800025080566C18.680088090625,18.119999850805662,17.968087690625,18.392000150805664,17.192087690625,18.392000150805664C15.380087390625,18.392000150805664,13.904087790625,16.915999850805665,13.904087790625,15.104000050805663C13.904087790625,13.292000250805664,15.380087390625,11.816000250805665,17.192087690625,11.816000250805665C19.004087890625,11.816000250805665,20.480088190625,13.292000250805664,20.480088190625,15.104000050805663C20.480088190625,15.824000350805665,20.248087890625,16.492000150805666,19.852087990625,17.032000550805662L22.572087890625,19.751999450805663C22.744087890625,19.928000450805662,22.744087890625,20.203999450805664,22.572087890625,20.376000450805662Z" fill="#EBA941" fill-opacity="1" style="mix-blend-mode:passthrough"/></g></g></g></svg>