<svg xmlns="http://www.w3.org/2000/svg" xmlns:xlink="http://www.w3.org/1999/xlink" fill="none" version="1.1" width="38" height="37.81817626953125" viewBox="0 0 38 37.81817626953125"><g><path d="M0 6C4.90527396329193e-16 2.686291501015239 2.6862915010152397 0 6 0L32 0C35.31370849898476 0 38 2.6862915010152397 38 6L38 31.818180084228516C38 35.131888583213275 35.31370849898476 37.818180084228516 32 37.818180084228516L6 37.818180084228516C2.6862915010152397 37.818180084228516 0 35.131888583213275 0 31.818180084228516Z" fill="#FCF5EA" fill-opacity="1"/><path d="M26,26.868475L26,28L12.000020078742,28L12.000020078742,26.868475L13.0218425,26.868475C13.1968753,26.356213,13.336049899999999,25.948753,13.4752045,25.541453C12.93452162,22.758827,13.8356942,20.557092,16.4039016,19.017147100000003C13.6977937,17.1625156,13.0683914,15.633503000000001,13.6361324,12.3768458C13.5711812,12.3909357,13.5060863,12.4049253,13.4409914,12.4190545C13.3131043,12.0160322,13.1853404,11.612889599999999,13.0333359,11.1340028L12,11.1340028L12,10L25.999981,10L25.999981,11.1340033C25.62298,11.1514504,25.246228000000002,11.1688974,24.990558,11.1806688C24.813057999999998,11.6793411,24.674212,12.0692132,24.53549,12.4589257C25.084705,15.245749499999999,24.19336,17.4542408,21.5980949,19.016346900000002C24.200637,20.573439999999998,25.081001,22.788284,24.546343,25.575668Q24.766,26.222046,24.985107,26.868515C25.2834,26.868475,25.641607999999998,26.868475,26,26.868475ZM19.6162949,22.192565000000002C20.306926699999998,22.739462,20.9953175,23.088744,21.374475500000003,23.639197C21.7664232,24.208636,21.8581638,24.973413,22.098907,25.706632C23.074387,25.840792,23.140798,25.799084,23.359974,24.816968C23.805377999999997,22.823179,22.751935,20.80243,20.833524699999998,19.9724216C20.6180077,19.879250499999998,20.3993654,19.7927341,20.2388287,19.7266035C20.015664100000002,18.822071100000002,20.1657572,18.2926617,21.1243343,17.8754091C23.041798,17.0406847,23.894941,14.7733574,23.251186,12.8251345C23.123258999999997,12.4381599,22.955464,12.2525172,22.494247,12.2572138C20.1623421,12.2808964,17.8299036,12.2778385,15.4978139,12.2590125C15.0790761,12.2556751,14.9016175,12.4129591,14.774408600000001,12.7777498C14.0383379,14.8882332,15.1148102,17.2274675,17.2987399,18.0835953C17.802681,18.281029699999998,17.8552341,18.5561066,17.8474002,18.9844704C17.8394027,19.419488899999997,17.852684,19.7361164,17.2887883,19.9539948C15.2796037,20.730122,14.2061126,22.769197,14.645801800000001,24.785252C14.865286600000001,25.791307,15.0142486,25.883121,16.095346499999998,25.656487C16.0271263,24.160992,16.6192107,23.057726000000002,18.1301293,22.509889C18.2513552,22.46588,18.4001937,22.287553000000003,18.4016118,22.169859000000002C18.4202809,20.735538,18.4138665,19.3008165,18.4138665,17.8727508C17.0554876,17.563718299999998,16.053032899999998,16.9393392,15.4626553,15.6924796L22.540692999999997,15.6924796C21.948505400000002,16.9817286,20.9013529,17.572053,19.616293,17.878427000000002L19.6162949,22.192565000000002Z" fill="#EBA941" fill-opacity="1" style="mix-blend-mode:passthrough"/></g></svg>