<svg xmlns="http://www.w3.org/2000/svg" xmlns:xlink="http://www.w3.org/1999/xlink" fill="none" version="1.1" width="18" height="17.118408203125" viewBox="0 0 18 17.118408203125"><g><path d="M17.49038333320904,17.118384711328126L0.5504718832090377,17.118384711328126C0.26878509320903776,17.118384711328126,0.04085533320903778,16.890454951328124,0.04085533320903778,16.608768161328126C0.04085533320903778,16.327081371328124,0.26878509320903776,16.099151611328125,0.5504718832090377,16.099151611328125L17.49038333320904,16.099151611328125C17.772070333209037,16.099151611328125,18.000000333209037,16.327081371328124,18.000000333209037,16.608768161328126C18.000000333209037,16.890454951328124,17.772070333209037,17.118384711328126,17.49038333320904,17.118384711328126Z" fill="#0064FF" fill-opacity="1"/><g><path d="M0,16.516306C0,16.813046,0.24083143,17.053877,0.53757018,17.053877C0.83430892,17.053877,1.0751404,16.813046,1.0751404,16.516306L1.0751404,0.53757018C1.0751404,0.24083143,0.83430892,0,0.53757018,0C0.24083143,0,0,0.24083143,0,0.53757018L0,16.516306ZM8.9300632,17.118399L10.297642,17.118399C10.914773,17.118399,11.420089,16.615232,11.420089,15.998103L11.420089,1.554667C11.420089,0.93538612,10.916924,0.43222046,10.297642,0.43222046L8.9300632,0.43222046C8.3107824,0.43222046,7.8076172,0.93538612,7.8076172,1.554667L7.8076172,15.995953C7.8076172,16.615232,8.3107824,17.118399,8.9300632,17.118399ZM8.8291016,1.5525098C8.8291016,1.4987527,8.8742571,1.4514465,8.9301643,1.4514465L8.9301643,1.4535968L10.297743,1.4535968C10.351501,1.4535968,10.398807,1.4987527,10.398807,1.55466L10.398807,15.995945C10.398807,16.049702,10.353651,16.097008,10.297743,16.097008L8.9301643,16.097008C8.8764076,16.097008,8.8291016,16.051853,8.8291016,15.995945L8.8291016,1.5525098ZM15.507603,17.11837L14.140024,17.11837C13.520743,17.11837,13.017578,16.615204,13.017578,15.995924L13.017578,4.1650796C13.017578,3.5457988,13.520743,3.0426331,14.140024,3.0426331L15.507603,3.0426331C16.126884,3.0426331,16.630051,3.5457988,16.630051,4.1650796L16.630051,15.995924C16.630051,16.615204,16.126884,17.11837,15.507603,17.11837ZM14.039062,4.1650891C14.039062,4.1113319,14.084218,4.0640259,14.140125,4.0640259L15.507704,4.0640259C15.561461,4.0640259,15.608768,4.1091819,15.608768,4.1650891L15.608768,15.995934C15.608768,16.04969,15.563612,16.096996,15.507704,16.096996L14.140125,16.096996C14.086369,16.096996,14.039062,16.051842,14.039062,15.995934L14.039062,4.1650891ZM3.677134,17.118393L5.0447125,17.118393C5.6639934,17.118393,6.1671591,16.615229,6.1671591,15.995948L6.1671591,8.089365C6.1671591,7.4700847,5.6639934,6.9669189,5.0447125,6.9669189L3.677134,6.9669189C3.0578532,6.9669189,2.5546875,7.4700847,2.5546875,8.089365L2.5546875,15.995948C2.5546875,16.615229,3.0578532,17.118393,3.677134,17.118393ZM3.5756836,8.089344C3.5756836,8.0355873,3.6208396,7.9882812,3.6767468,7.9882812L5.0443254,7.9882812C5.0980825,7.9882812,5.1453886,8.0334368,5.1453886,8.089344L5.1453886,15.995927C5.1453886,16.049683,5.1002326,16.096989,5.0443254,16.096989L3.6767468,16.096989C3.6229897,16.096989,3.5756836,16.051834,3.5756836,15.995927L3.5756836,8.089344Z" fill-rule="evenodd" fill="#0064FF" fill-opacity="1"/></g></g></svg>