<svg xmlns="http://www.w3.org/2000/svg" xmlns:xlink="http://www.w3.org/1999/xlink" fill="none" version="1.1" width="16" height="16" viewBox="0 0 16 16"><path d="M14.000001,0C15.104569,0,16,0.89543045,16,2L16,14.000001C16,15.104569,15.104569,16,14.000001,16L2,16C0.89543045,16,0,15.104569,0,14.000001L0,2C0,0.89543045,0.89543045,0,2,0L14.000001,0ZM5,11.000001L1,11.000001L1,14.000001C1.0000668,14.506974,1.3795068,14.933685,1.8830001,14.993001L2,15L5,15L5,11.000001ZM10,11.000001L6.0000005,11.000001L6.0000005,15L10,15L10,11.000001ZM15,11.000001L11.000001,11.000001L11.000001,15L14.000001,15C14.506974,14.999933,14.933685,14.620493,14.993001,14.117L15,14.000001L15,11.000001ZM5,6.0000005L1,6.0000005L1,10L5,10L5,6.0000005ZM10,6.0000005L6.0000005,6.0000005L6.0000005,10L10,10L10,6.0000005ZM15,6.0000005L11.000001,6.0000005L11.000001,10L15,10L15,6.0000005ZM14.000001,1L2,1C1.4930251,1.0000668,1.066316,1.3795071,1.007,1.8830001L1,2L1,5L15,5L15,2C15,1.4477152,14.552285,1,14.000001,1ZM3.0000002,2.5C3.2761424,2.5,3.5000002,2.7238579,3.5000002,3.0000002C3.5000002,3.2761424,3.2761424,3.5000002,3.0000002,3.5000002L2,3.5000002C1.7238576,3.5000002,1.5000001,3.2761424,1.5000001,3.0000002C1.5000001,2.7238579,1.7238576,2.5,2,2.5L3.0000002,2.5ZM5.7500005,2.5C6.0261426,2.5,6.2500005,2.7238579,6.2500005,3.0000002C6.2500005,3.2761424,6.0261426,3.5000002,5.7500005,3.5000002L4.75,3.5000002C4.4738579,3.5000002,4.25,3.2761424,4.25,3.0000002C4.25,2.7238579,4.4738579,2.5,4.75,2.5L5.7500005,2.5ZM8.5,2.5C8.7761421,2.5,9,2.7238579,9,3.0000002C9,3.2761424,8.7761421,3.5000002,8.5,3.5000002L7.5,3.5000002C7.2238574,3.5000002,7.0000005,3.2761424,7.0000005,3.0000002C7.0000005,2.7238579,7.2238574,2.5,7.5,2.5L8.5,2.5Z" fill="#0064FF" fill-opacity="1"/></svg>