<?xml version="1.0" encoding="UTF-8"?>
<svg width="15px" height="14px" viewBox="0 0 15 14" version="1.1" xmlns="http://www.w3.org/2000/svg" xmlns:xlink="http://www.w3.org/1999/xlink">
    <!-- Generator: Sketch 60 (88103) - https://sketch.com -->
    <title>编组</title>
    <desc>Created with Sketch.</desc>
    <g id="页面-4" stroke="none" stroke-width="1" fill="none" fill-rule="evenodd">
        <g id="产品分析-编辑" transform="translate(-1850.000000, -654.000000)" fill="#0064FF" fill-rule="nonzero">
            <g id="编组-115" transform="translate(979.000000, 585.000000)">
                <g id="编组-96" transform="translate(20.870010, 60.000000)">
                    <g id="编组-95">
                        <g id="编组-92" transform="translate(841.000000, 0.000000)">
                            <g id="编组" transform="translate(10.000000, 9.000000)">
                                <path d="M11.7976474,13.9981357 L2.18461026,13.9981357 C0.961132813,13.9981357 0,13.036661 0,11.8131836 L0,2.20014648 C0,0.976669034 0.961132813,0.0152099609 2.18461026,0.0152099609 L11.7976474,0.0152099609 C13.0211248,0.0152099609 13.9825994,0.976669034 13.9825994,2.20014648 L13.9825994,11.8131836 C13.9825994,13.036661 13.0211248,13.9981357 11.7976474,13.9981357 Z M13.029126,2.24010565 C13.029126,1.51633523 12.4814742,0.968994501 11.75803,0.968994501 L2.22456942,0.968994501 C1.4968062,0.965684925 0.910873136,1.50901767 0.932499556,2.24908558 C0.93051092,2.47280717 0.953473455,11.7735662 0.953473455,11.7735662 C0.953473455,12.4970104 1.50112527,13.0446622 2.22456942,13.0446622 L11.75803,13.0446622 C12.4814742,13.0446622 13.029126,12.4970104 13.029126,11.7735662 L13.029126,2.24010565 Z M10.3328147,7.64138184 L7.62584561,7.64138184 L7.62584561,10.3483509 C7.62584561,10.6116899 7.41244007,10.8250799 7.14910112,10.8250799 L7.14543457,10.8250799 C6.88214799,10.8250799 6.66871419,10.6116375 6.66870561,10.3483509 L6.66870561,7.64138184 L3.64976918,7.64138184 C3.38647653,7.64137326 3.17304022,7.42792999 3.17304022,7.16463734 L3.17304022,7.16097079 C3.17304022,6.89763184 3.38643022,6.68424183 3.64976918,6.68424183 L6.66869007,6.68424183 L6.66869007,3.6653054 C6.66869007,3.40196644 6.88208008,3.18857644 7.14541903,3.18857644 L7.14908558,3.18857644 C7.41242454,3.18857644 7.62583008,3.40196644 7.62583008,3.6653054 L7.62583008,6.6842263 L10.3327992,6.6842263 C10.5961381,6.6842263 10.8095281,6.8976163 10.8095281,7.16095526 L10.8095281,7.1646218 C10.8095281,7.42796076 10.5961381,7.6413663 10.3327992,7.6413663 L10.3328147,7.64138184 Z" id="形状"></path>
                            </g>
                        </g>
                    </g>
                </g>
            </g>
        </g>
    </g>
</svg>