<?xml version="1.0" encoding="UTF-8"?>
<svg width="14px" height="13px" viewBox="0 0 14 13" version="1.1" xmlns="http://www.w3.org/2000/svg" xmlns:xlink="http://www.w3.org/1999/xlink">
    <!-- Generator: Sketch 60 (88103) - https://sketch.com -->
    <title>编组</title>
    <desc>Created with Sketch.</desc>
    <g id="页面-4" stroke="none" stroke-width="1" fill="none" fill-rule="evenodd">
        <g id="产品分析-编辑" transform="translate(-290.000000, -478.000000)" fill="#0064FF" fill-rule="nonzero">
            <g id="编组-23" transform="translate(270.000000, 453.000000)">
                <g id="编组-271" transform="translate(20.000000, 21.000000)">
                    <g id="编组" transform="translate(0.000000, 4.000000)">
                        <path d="M12.8721164,2.22932783e-13 L1.04376317,2.22932783e-13 C0.467393785,2.22932783e-13 9.57456336e-13,0.467409147 9.57456336e-13,1.04376317 L9.57456336e-13,11.2851497 C9.57456336e-13,11.861473 0.467409147,12.3287899 1.04376317,12.3287899 L12.8721164,12.3287899 C13.4484397,12.3287899 13.9154034,11.861473 13.9154034,11.2851497 L13.9154034,1.04376317 C13.9154034,0.467393785 13.4484243,2.22932783e-13 12.8721164,2.22932783e-13 L12.8721164,2.22932783e-13 Z M3.9406645,2.40307014 C4.46257681,2.40307014 4.88493021,2.82589975 4.88493021,3.34776598 C4.88493021,3.86918671 4.46253072,4.29224675 3.9406645,4.29224675 C3.41875219,4.29224675 2.99639879,3.86918671 2.99639879,3.34776598 C2.99639879,2.82589975 3.41875219,2.40307014 3.9406645,2.40307014 L3.9406645,2.40307014 Z M11.9400171,9.95684252 L2.10843355,9.95911605 C1.84008076,9.95911605 1.74823341,9.78625132 1.90310964,9.57315441 L4.04917925,6.60373069 C4.1401049,6.44940748 4.33825492,6.39796129 4.49227089,6.48861043 C4.53985509,6.51655264 4.57952108,6.55617633 4.60751404,6.60373069 L5.77105205,8.21441582 L8.1782852,4.92537746 C8.27100816,4.77000966 8.47239949,4.71910112 8.62810525,4.81208524 C8.67473259,4.83970891 8.71361131,4.87868275 8.74112096,4.92537746 L12.1421765,9.57192547 C12.2984199,9.78485341 12.2074328,9.95684252 11.9400171,9.95684252 L11.9400171,9.95684252 Z" id="形状"></path>
                    </g>
                </g>
            </g>
        </g>
    </g>
</svg>