<?xml version="1.0" encoding="UTF-8"?>
<svg width="12px" height="11px" viewBox="0 0 12 11" version="1.1" xmlns="http://www.w3.org/2000/svg" xmlns:xlink="http://www.w3.org/1999/xlink">
    <!-- Generator: Sketch 60 (88103) - https://sketch.com -->
    <title>编组</title>
    <desc>Created with Sketch.</desc>
    <g id="页面-4" stroke="none" stroke-width="1" fill="none" fill-rule="evenodd">
        <g id="产品分析-编辑" transform="translate(-1015.000000, -2794.000000)" fill="#0064FF" fill-rule="nonzero">
            <g id="编组-17" transform="translate(979.000000, 2541.000000)">
                <g id="编组-16">
                    <g id="编组-127">
                        <g id="编组-125" transform="translate(24.870010, 58.000000)">
                            <g id="编组" transform="translate(12.000000, 195.000000)">
                                <path d="M5.49489759,10.9897952 C2.46014945,10.9897952 -5.37109325e-09,8.52964574 -5.37109325e-09,5.4948976 C-5.37109325e-09,2.46014945 2.46014945,0 5.49489759,0 C8.52964573,0 10.9897952,2.46014945 10.9897952,5.4948976 C10.9897952,8.52964574 8.52964573,10.9897952 5.49489759,10.9897952 Z M5.49489759,9.94262471 C7.09813947,9.96392317 8.58879472,9.12080532 9.39662703,7.73579806 C10.2044593,6.3507908 10.2044593,4.63821941 9.39662703,3.25321214 C8.58879472,1.86820488 7.09813947,1.02508703 5.49489759,1.0463855 C3.06131269,1.07871475 1.10547708,3.06070547 1.10547708,5.4945051 C1.10547708,7.92830473 3.06131269,9.91029546 5.49489759,9.94262471 L5.49489759,9.94262471 Z M4.97131235,2.76157853 C4.97131235,2.47241038 5.20572945,2.23799329 5.4948976,2.23799329 C5.78406574,2.23799329 6.01848284,2.47241038 6.01848284,2.76157853 L6.01848284,5.90152001 C6.01848284,6.19068816 5.78406574,6.42510526 5.4948976,6.42510526 C5.20572945,6.42510526 4.97131235,6.19068816 4.97131235,5.90152001 L4.97131235,2.76157853 Z M5.49489759,8.7839863 C5.13354579,8.7839863 4.84061228,8.49105279 4.84061228,8.12970099 C4.84061228,7.7683492 5.13354579,7.47541569 5.49489759,7.47541569 C5.85624939,7.47541569 6.1491829,7.7683492 6.1491829,8.12970099 C6.1491829,8.49105279 5.85624939,8.7839863 5.49489759,8.7839863 Z" id="形状"></path>
                            </g>
                        </g>
                    </g>
                </g>
            </g>
        </g>
    </g>
</svg>