<?xml version="1.0" encoding="UTF-8"?>
<svg width="12px" height="11px" viewBox="0 0 12 11" version="1.1" xmlns="http://www.w3.org/2000/svg" xmlns:xlink="http://www.w3.org/1999/xlink">
    <!-- Generator: Sketch 60 (88103) - https://sketch.com -->
    <title>编组</title>
    <desc>Created with Sketch.</desc>
    <g id="页面-4" stroke="none" stroke-width="1" fill="none" fill-rule="evenodd">
        <g id="产品分析-编辑" transform="translate(-1119.000000, -1674.000000)" fill="#0064FF" fill-rule="nonzero">
            <g id="编组-15" transform="translate(979.000000, 1576.000000)">
                <g id="编组-107" transform="translate(140.000000, 95.000000)">
                    <g id="编组" transform="translate(0.000000, 3.000000)">
                        <path d="M3.8369906,5.053125 L1.27899687,5.053125 C0.601880878,5.053125 0,4.503125 0,3.884375 L0,1.546875 C0,0.928125 0.601880878,0.378125 1.27899687,0.378125 L3.8369906,0.378125 C4.51410658,0.378125 5.11598746,0.928125 5.11598746,1.546875 L5.11598746,3.884375 C5.11598746,4.503125 4.58934169,5.053125 3.8369906,5.053125 Z M1.27899687,1.134375 C1.05329154,1.134375 0.827586207,1.340625 0.827586207,1.546875 L0.827586207,3.884375 C0.827586207,4.090625 1.05329154,4.296875 1.27899687,4.296875 L3.8369906,4.296875 C4.06269592,4.296875 4.28840125,4.090625 4.28840125,3.884375 L4.28840125,1.546875 C4.28840125,1.340625 4.06269592,1.134375 3.8369906,1.134375 L1.27899687,1.134375 Z M3.8369906,10.896875 L1.27899687,10.896875 C0.601880878,10.896875 0,10.346875 0,9.728125 L0,7.390625 C0,6.771875 0.601880878,6.221875 1.27899687,6.221875 L3.8369906,6.221875 C4.51410658,6.221875 5.11598746,6.771875 5.11598746,7.390625 L5.11598746,9.728125 C5.11598746,10.415625 4.58934169,10.896875 3.8369906,10.896875 Z M1.27899687,6.978125 C1.05329154,6.978125 0.827586207,7.184375 0.827586207,7.390625 L0.827586207,9.728125 C0.827586207,9.934375 1.05329154,10.140625 1.27899687,10.140625 L3.8369906,10.140625 C4.06269592,10.140625 4.28840125,9.934375 4.28840125,9.728125 L4.28840125,7.390625 C4.28840125,7.184375 4.06269592,6.978125 3.8369906,6.978125 L1.27899687,6.978125 Z M10.30721,10.896875 L7.7492163,10.896875 C7.07210031,10.896875 6.47021944,10.346875 6.47021944,9.728125 L6.47021944,7.390625 C6.47021944,6.771875 7.07210031,6.221875 7.7492163,6.221875 L10.30721,6.221875 C10.984326,6.221875 11.5862069,6.771875 11.5862069,7.390625 L11.5862069,9.728125 C11.5862069,10.415625 10.984326,10.896875 10.30721,10.896875 Z M7.7492163,6.978125 C7.52351097,6.978125 7.29780564,7.184375 7.29780564,7.390625 L7.29780564,9.728125 C7.29780564,9.934375 7.52351097,10.140625 7.7492163,10.140625 L10.30721,10.140625 C10.5329154,10.140625 10.7586207,9.934375 10.7586207,9.728125 L10.7586207,7.390625 C10.7586207,7.184375 10.5329154,6.978125 10.30721,6.978125 L7.7492163,6.978125 Z M9.02821317,5.465625 C8.87774295,5.465625 8.80250784,5.396875 8.72727273,5.328125 L6.169279,2.990625 C6.01880878,2.853125 6.01880878,2.578125 6.169279,2.440625 L8.72727273,0.103125 C8.87774295,-0.034375 9.17868339,-0.034375 9.32915361,0.103125 L11.8871473,2.440625 C12.0376176,2.578125 12.0376176,2.853125 11.8871473,2.990625 L9.32915361,5.328125 C9.2539185,5.396875 9.10344828,5.465625 9.02821317,5.465625 Z M7.07210031,2.715625 L9.02821317,4.503125 L10.984326,2.715625 L9.02821317,0.859375 L7.07210031,2.715625 Z" id="形状"></path>
                    </g>
                </g>
            </g>
        </g>
    </g>
</svg>