<?xml version="1.0" encoding="UTF-8"?>
<svg width="12px" height="11px" viewBox="0 0 12 11" version="1.1" xmlns="http://www.w3.org/2000/svg" xmlns:xlink="http://www.w3.org/1999/xlink">
    <!-- Generator: Sketch 60 (88103) - https://sketch.com -->
    <title>编组</title>
    <desc>Created with Sketch.</desc>
    <g id="页面-4" stroke="none" stroke-width="1" fill="none" fill-rule="evenodd">
        <g id="产品分析-编辑" transform="translate(-1015.000000, -2715.000000)" fill="#0064FF" fill-rule="nonzero">
            <g id="编组-17" transform="translate(979.000000, 2541.000000)">
                <g id="编组-16">
                    <g id="编组-127">
                        <g id="编组-125" transform="translate(24.870010, 58.000000)">
                            <g id="编组" transform="translate(12.000000, 116.000000)">
                                <path d="M3.57555512,5.05033185 C3.18472849,5.05259853 2.80926025,4.89828624 2.53299564,4.62182906 C2.25673102,4.34537189 2.10268039,3.96979621 2.10524457,3.57897127 C2.10277302,3.18817432 2.25685341,2.81265257 2.53309783,2.5362156 C2.80934224,2.25977864 3.18475654,2.10543663 3.57555512,2.10761267 C3.96632271,2.1054357 4.34170264,2.25978845 4.61789303,2.53623559 C4.89408342,2.81268272 5.04808732,3.1882059 5.04552407,3.57897127 C5.04552407,4.39884705 4.39440606,5.05033185 3.57555512,5.05033185 L3.57555512,5.05033185 Z M3.57555512,2.94835016 C3.21856755,2.94835016 2.94561724,3.22164208 2.94561724,3.57897127 C2.94561724,3.93664208 3.21856755,4.20959239 3.57555512,4.20959239 C3.93288432,4.20959239 4.20549301,3.93630047 4.20549301,3.57897127 C4.20549301,3.22164208 3.93220109,2.94835016 3.57555512,2.94835016 L3.57555512,2.94835016 Z M9.6662073,10.9370148 L1.26589674,10.9370148 C0.57026719,10.934388 0.0072108364,10.3707213 0.00533773292,9.67508929 L0.00533773292,1.26657997 C0.00683767266,0.571170339 0.569805914,0.00759150313 1.26521351,0.00533773292 L9.6662073,0.00533773292 C10.3616706,0.00759064453 10.9247371,0.571115054 10.9264247,1.26657997 L10.9264247,9.67508929 C10.9264247,10.3689092 10.3593439,10.9366731 9.6662073,10.9366731 L9.6662073,10.9370148 Z M1.26589674,0.846052019 C1.03401275,0.84680299 0.846272928,1.03469544 0.845710404,1.26657997 L0.845710404,9.67508929 C0.846272928,9.90697381 1.03401275,10.0948663 1.26589674,10.0956172 L9.6662073,10.0956172 C9.89795843,10.0948672 10.0856436,9.90718203 10.0863936,9.6754309 L10.0863936,1.26623835 C10.0856436,1.03448722 9.89795843,0.846802028 9.6662073,0.846052019 L1.26589674,0.846052019 Z M4.66769798,8.16173525 C4.33154891,8.16173525 3.99539984,8.01484084 3.74328804,7.76204581 L3.23940606,7.23664208 C3.15866877,7.15580585 3.04910611,7.1103842 2.93485637,7.1103842 C2.82060662,7.1103842 2.71104396,7.15580585 2.63030668,7.23664208 L1.97918866,7.93012034 C1.82058174,8.09353614 1.56140001,8.10302391 1.39126941,7.95164208 C1.22319488,7.80474767 1.22319488,7.53145575 1.37008929,7.3630396 L2.0212073,6.66956134 C2.25391316,6.41715695 2.58079776,6.27245207 2.9240955,6.26987189 C3.26024457,6.26987189 3.59605202,6.4167663 3.84816382,6.66956134 L4.35238742,7.19496506 C4.43311086,7.27569674 4.54260029,7.32105202 4.6567663,7.32105202 C4.77093232,7.32105202 4.88042174,7.27569674 4.96114519,7.19496506 L7.06207686,4.98744953 C7.30059529,4.73097836 7.63556717,4.58603861 7.98580357,4.58774493 C8.34279115,4.58774493 8.65810171,4.73499612 8.90987189,4.98744953 L10.8215489,7.0057104 C10.9892818,7.17412655 10.9684433,7.44741848 10.8000272,7.59431289 C10.6319526,7.76272904 10.3593439,7.74154891 10.2121079,7.57313276 L8.30111413,5.55487189 C8.22039069,5.47414021 8.11090126,5.42878494 7.99673525,5.42878494 C7.88256924,5.42878494 7.77307981,5.47414021 7.69235637,5.55487189 L5.59210792,7.78322593 C5.33999612,8.01449922 5.00384705,8.16173525 4.6680396,8.16173525 L4.66769798,8.16173525 Z" id="形状"></path>
                            </g>
                        </g>
                    </g>
                </g>
            </g>
        </g>
    </g>
</svg>