<?xml version="1.0" encoding="UTF-8"?>
<svg width="12px" height="12px" viewBox="0 0 12 12" version="1.1" xmlns="http://www.w3.org/2000/svg" xmlns:xlink="http://www.w3.org/1999/xlink">
    <!-- Generator: Sketch 60 (88103) - https://sketch.com -->
    <title>编组</title>
    <desc>Created with Sketch.</desc>
    <g id="页面-4" stroke="none" stroke-width="1" fill="none" fill-rule="evenodd">
        <g id="产品分析-编辑" transform="translate(-1115.000000, -2631.000000)" fill="#0064FF" fill-rule="nonzero">
            <g id="编组-17" transform="translate(979.000000, 2541.000000)">
                <g id="编组-16">
                    <g id="编组-127">
                        <g id="编组-125" transform="translate(24.870010, 58.000000)">
                            <g id="编组-120" transform="translate(112.000000, 29.000000)">
                                <g id="编组" transform="translate(0.000000, 3.000000)">
                                    <path d="M9.2791411,3.37423313 L8.43558282,3.37423313 L8.43558282,2.95245399 C8.43558282,1.3243865 7.11119632,0 5.48312883,0 C3.85506135,0 2.53067485,1.3243865 2.53067485,2.95245399 L2.53067485,3.37423313 L1.68711656,3.37423313 C0.759202454,3.37423313 0,4.13343558 0,5.06134969 L0,10.1226994 C0,11.0506135 0.759202454,11.809816 1.68711656,11.809816 L9.2791411,11.809816 C10.2070552,11.809816 10.9662577,11.0506135 10.9662577,10.1226994 L10.9662577,5.06134969 C10.9662577,4.13343558 10.2070552,3.37423313 9.2791411,3.37423313 Z M3.37423313,2.95245399 C3.37423313,1.78834356 4.3190184,0.843558282 5.48312883,0.843558282 C6.64723926,0.843558282 7.59202454,1.78834356 7.59202454,2.95245399 L7.59202454,3.37423313 L3.37423313,3.37423313 L3.37423313,2.95245399 Z M10.1226994,10.1226994 C10.1226994,10.5866564 9.74309816,10.9662577 9.2791411,10.9662577 L1.68711656,10.9662577 C1.22315951,10.9662577 0.843558282,10.5866564 0.843558282,10.1226994 L0.843558282,5.06134969 C0.843558282,4.59739264 1.22315951,4.21779141 1.68711656,4.21779141 L2.53067485,4.21779141 L2.53067485,5.48312883 C2.53067485,5.71932515 2.71625767,5.90490798 2.95245399,5.90490798 C3.18865031,5.90490798 3.37423313,5.71932515 3.37423313,5.48312883 L3.37423313,4.21779141 L7.59202454,4.21779141 L7.59202454,5.48312883 C7.59202454,5.71932515 7.77760736,5.90490798 8.01380368,5.90490798 C8.25,5.90490798 8.43558282,5.71932515 8.43558282,5.48312883 L8.43558282,4.21779141 L9.2791411,4.21779141 C9.74309816,4.21779141 10.1226994,4.59739264 10.1226994,5.06134969 L10.1226994,10.1226994 Z" id="形状"></path>
                                </g>
                            </g>
                        </g>
                    </g>
                </g>
            </g>
        </g>
    </g>
</svg>