<svg xmlns="http://www.w3.org/2000/svg" xmlns:xlink="http://www.w3.org/1999/xlink" fill="none" version="1.1" width="16" height="16" viewBox="0 0 16 16"><defs><clipPath id="master_svg0_355_48616"><rect x="0" y="0" width="16" height="16" rx="0"/></clipPath></defs><g clip-path="url(#master_svg0_355_48616)"><g><path d="M13.119997,5.4583426L15.279999,4.1666828C15.679995,3.91668916,15.999999,4.125011,15.999999,4.5416925L15.999999,11.0833549C15.999999,11.5416899,15.679995,11.7083578,15.279999,11.4583645L13.119996,10.1667047C12.72,9.9167113,12.399995,9.666698499999999,12.399995,9.2500353L12.399995,6.3333395C12.399995,5.916677,12.72,5.7083364,13.119997,5.4583426ZM9.6799955,3L1.5199935,3C0.67999554,3,0,3.7083283099999997,0,4.5833257L0,11.4166555C0,12.2916517,0.67999554,13,1.5199935,13L9.6799955,13C10.519995,13,11.19999,12.2916708,11.19999,11.4166555L11.19999,4.5833449C11.200008,3.7083283099999997,10.519995,3,9.6799955,3ZM4.7599874,6.8333464C4.6399908,7.416678,4.1999893,7.8750124,3.6799774,8.0000091C2.6799774,8.2083497,1.8399795,7.2916803,2.039968,6.2916675C2.1599653,5.7083356,2.5999668,5.2500014,3.1199787,5.1666567C4.119997,4.9166632,4.9599948,5.7916794,4.7599874,6.8333464Z" fill="#0064FF" fill-opacity="1"/></g></g></svg>