<svg xmlns="http://www.w3.org/2000/svg" xmlns:xlink="http://www.w3.org/1999/xlink" fill="none" version="1.1" width="90" height="90" viewBox="0 0 90 90"><defs><clipPath id="master_svg0_2_3598"><rect x="18" y="18" width="54" height="54" rx="0"/></clipPath><clipPath id="master_svg1_2_3606"><rect x="46" y="46" width="30" height="30" rx="0"/></clipPath></defs><g><g><rect x="0" y="0" width="90" height="90" rx="10" fill="#0064FF" fill-opacity="1"/></g><g><g clip-path="url(#master_svg0_2_3598)"><g><g><path d="M18,50.0625L18,64.575L30.4875,72L42.975,64.575L42.975,50.0625L30.4875,42.975L18,50.0625ZM57.4875,25.425L45,18L32.5125,25.425L32.5125,39.9375L45,47.025L57.4875,39.6L57.4875,25.425Z" fill="#FFFFFF" fill-opacity="1" style="mix-blend-mode:passthrough"/></g><g clip-path="url(#master_svg1_2_3606)"><g><path d="M70.9488,55.82423C70.88929999999999,55.34268,70.5881,54.92244,70.047,54.8016L69.9875,54.8016C68.9054,54.56173,68.12440000000001,53.96114,67.52199999999999,52.93851C66.98089999999999,52.03673,66.8006,50.89507,67.1613,49.87244C67.3417,49.45221,67.2226,48.91114,66.8006,48.55042C65.6297,47.44661,64.2362,46.605983,62.7137,46.0849427C62.2917,45.9045856,61.8119,46.0254248,61.3899,46.445657C60.7298,47.28792,59.7071,47.70816,58.5655,47.70816C57.5429,47.70816,56.5816,47.2266,55.73928,46.386139C55.25773,45.9045856,54.77798,45.9641033,54.41727,46.0849427C52.85357,46.746853,51.53155,47.5278,50.38809,48.4891C49.96786,48.7903,49.7875,49.33137,49.96786,49.81292C50.26905,50.954589999999996,50.14821,52.03673,49.60714,52.99803C49.12559,53.8403,48.2238,54.50221,47.14166,54.8016C47.08214,54.8016,47.08214,54.8016,47.02262,54.86292C46.661911,55.043279999999996,46.420232,55.34268,46.239875,55.76471L46.239875,55.82423C46.0595179,56.726,46,57.507,46,58.289699999999996C46,59.0707,46.0595179,59.9724,46.239875,60.6939C46.301196,61.175399999999996,46.600589,61.5957,47.14166,61.716499999999996L47.20298,61.716499999999996C48.28513,61.9564,49.066069999999996,62.557,49.66666,63.5796C50.20773,64.48140000000001,50.38809,65.623,50.02737,66.6457C49.84702,67.0659,49.96786,67.607,50.38809,67.96770000000001C51.53155,69.0498,52.91309,69.8921,54.5363,70.4332C54.59762,70.4332,54.65714,70.4927,54.77798,70.4927L54.95834,70.4927C55.321690000000004,70.485,55.66727,70.334,55.91964,70.0724C56.5816,69.2915,57.6024,68.8099,58.7458,68.8099C59.7667,68.8099,60.7298,69.2915,61.5702,70.132C61.8119,70.3736,62.1113,70.554,62.4125,70.554C62.5333,70.554,62.7137,70.554,62.8327,70.4927C64.3964,69.8326,65.7184,69.0498,66.86189999999999,68.0885C67.2821,67.8486,67.4625,67.2462,67.2821,66.76650000000001C66.98089999999999,65.623,67.1018,64.5409,67.6429,63.5796C68.12440000000001,62.737300000000005,69.0262,62.077200000000005,70.1083,61.775999999999996C70.1679,61.775999999999996,70.1679,61.775999999999996,70.2274,61.716499999999996C70.5881,61.5361,70.8298,61.234899999999996,71.0101,60.8147L71.0101,60.7534C71.1905,59.8516,71.25,59.0707,71.25,58.289699999999996C71.1905,57.4474,71.1292,56.605199999999996,70.9488,55.82423ZM58.5655,62.4379C56.2344,62.4531,54.34081,60.5595,54.355940000000004,58.2284C54.355940000000004,55.88375,56.2208,54.02066,58.5655,54.02066C60.9101,54.02066,62.7732,55.88375,62.7732,58.2284C62.7732,60.573,60.9101,62.4379,58.5655,62.4379Z" fill="#FFFFFF" fill-opacity="1" style="mix-blend-mode:passthrough"/></g></g></g></g></g></g></svg>