<svg xmlns="http://www.w3.org/2000/svg" xmlns:xlink="http://www.w3.org/1999/xlink" fill="none" version="1.1" width="40" height="40" viewBox="0 0 40 40"><defs><clipPath id="master_svg0_257_36019"><rect x="7" y="7" width="26" height="26" rx="0"/></clipPath></defs><rect x="0" y="0" width="40" height="40" rx="6" fill="#2932E1" fill-opacity="1"/><g clip-path="url(#master_svg0_257_36019)"><path d="M11.68914076875,20.679420999999998C14.51199146875,20.073259,14.127378968750001,16.6997814,14.04289436875,15.9624615C13.90464736875,14.825759399999999,12.56766266875,12.8388934,10.75212956875,12.9960465C8.46749955875,13.2010541,8.13369664875,16.5012732,8.13369664875,16.5012732C7.82470738875,18.026723,8.87338029875,21.286175999999998,11.68914076875,20.679420999999998ZM14.68686816875,26.547264C14.60415596875,26.784176,14.41982646875,27.390928,14.57934286875,27.919106C14.894240368750001,29.104252,15.92282536875,29.157425,15.92282536875,29.157425L17.401010468750002,29.157425L17.401010468750002,25.544083L15.818253468750001,25.544083C15.106928368750001,25.75618,14.76367286875,26.309759,14.68686816875,26.547264ZM16.92836956875,15.0224962C18.48749396875,15.0224962,19.747674968749998,13.228231000000001,19.747674968749998,11.0097709C19.747674968749998,8.793674,18.48749396875,7,16.92836956875,7C15.37160686875,7,14.108472868749999,8.7936738,14.108472868749999,11.0097709C14.108472868749999,13.228231000000001,15.372197668750001,15.0224962,16.92836956875,15.0224962ZM23.64342096875,15.2877655C25.72717896875,15.5583534,27.06711596875,13.3345757,27.33356696875,11.6490183C27.60533496875,9.9658239,26.26066996875,8.0108615,24.78543896875,7.67469531C23.30725396875,7.33557519,21.461589968749998,9.7035081,21.29321096875,11.247273C21.09233896875,13.1342936,21.56320796875,15.0201321,23.64342096875,15.2877655ZM28.74912796875,25.195511C28.74912796875,25.195511,25.52512396875,22.701145,23.64282996875,20.005318000000003C21.09174796875,16.0304031,17.467770568749998,17.648020000000002,16.25544546875,19.669742C15.04843756875,21.690874,13.16732546875,22.969369999999998,12.90028286875,23.307898C12.62910506875,23.641109,9.00571852875,25.597254,9.81039036875,29.169832C10.61447116875,32.740047000000004,13.43968486875,32.672104000000004,13.43968486875,32.672104000000004C13.43968486875,32.672104000000004,15.52167036875,32.87711,17.93686676875,32.336529C20.353245968750002,31.800671,22.433457968749998,32.470049,22.433457968749998,32.470049C22.433457968749998,32.470049,28.07738696875,34.360023,29.62174196875,30.721867C31.16432596875,27.082529,28.74912796875,25.195509,28.74912796875,25.195511ZM19.09247496875,30.610209L15.42300606875,30.610209C13.838476168749999,30.294128,13.207499468750001,29.212961,13.127741768749999,29.028631C13.04975606875,28.841349,12.59956546875,27.972279,12.837657968750001,26.493502C13.52239746875,24.277994,15.47499706875,24.119068,15.47499706875,24.119068L17.428187368750002,24.119068L17.428187368750002,21.718051000000003L19.09188596875,21.743456000000002L19.09188596875,30.610207L19.09247496875,30.610209ZM25.92627696875,30.584803L21.70381896875,30.584803C20.067297968749997,30.162971,19.991084968750002,29.000273,19.991084968750002,29.000273L19.991084968750002,24.331167L21.70381896875,24.3034L21.70381896875,28.499865C21.80839096875,28.947691,22.36433496875,29.028631,22.36433496875,29.028631L24.10424596875,29.028631L24.10424596875,24.331167L25.92627896875,24.331167L25.92627696875,30.584803ZM31.90341796875,18.118298C31.90341796875,17.311853,31.23344796875,14.8836579,28.74912796875,14.8836579C26.26067196875,14.8836579,25.92805096875,17.175378000000002,25.92805096875,18.795355999999998C25.92805096875,20.341485,26.05861896875,22.499682,29.14969296875,22.431148999999998C32.241948968749995,22.362617,31.90341996875,18.928877999999997,31.90341796875,18.118298Z" fill="#FFFFFF" fill-opacity="1" style="mix-blend-mode:passthrough"/></g></svg>