<svg xmlns="http://www.w3.org/2000/svg" xmlns:xlink="http://www.w3.org/1999/xlink" fill="none" version="1.1" width="40" height="40" viewBox="0 0 40 40"><defs><clipPath id="master_svg0_1_0881"><rect x="0" y="0" width="40" height="40" rx="0"/></clipPath></defs><g clip-path="url(#master_svg0_1_0881)"><g><path d="M40,32.7343L40,7.26714C40,3.27,36.73,0,32.7329,0L7.26714,0C3.27,0,0,3.27,0,7.26714L0,32.7343C0,36.6914,3.20571,39.9371,7.15,40L32.85,40C36.7929,39.9372,40,36.6929,40,32.7343Z" fill="#040000" fill-opacity="1" style="mix-blend-mode:passthrough"/></g><g><path d="M6.68796,13.41623L6.68796,12.0732313L4,12L4.0374583,12.708769L4.0749165,13.41623L6.6866699999999994,13.41623L6.68796,13.41623ZM13.76758,19.46169C17.1685,19.45908,18.2755,19.42116,18.3478,19.30346C18.3956,19.23285,18.424,17.66362,18.4279,16.017229999999998L18.4279,15.032540000000001C18.424,13.63069,18.4021,12.383155,18.3607,12.221C18.3155,12.0444619,18.0327,12.0170006,14.6123,12.0117696L8.24441,12.0117696L8.24441,16.369C8.24958,18.75423,8.29091,19.46169,8.40458,19.46169L13.76758,19.46169ZM23.5507,27.810000000000002C23.561,29.0758,23.663,29.0392,24.6822,28.9634L25.2298,28.9268L25.2673,27.2412C25.2918,25.665399999999998,25.3164,25.5673,25.5411,25.5673C25.7517,25.5673,25.7891,25.482300000000002,25.7891,24.957900000000002C25.7891,24.615299999999998,25.802,24.3106,25.8279,24.249200000000002C25.8395,24.2008,25.7271,24.1145,25.5773,24.0412L25.2918,23.919600000000003L25.2918,18.56069L25.2918,17.65446C25.2983,14.981539999999999,25.328,14.62585,25.4778,14.581389999999999L25.5101,14.57746L25.5282,14.57746C25.802,14.57746,25.8899,14.40615,25.8511,13.90531C25.8382,13.69738,25.815,13.41623,25.815,13.258C25.802,13.07492,25.7142,12.988615,25.5527,12.988615C25.3538,12.988615,25.3047,12.891846,25.2673,12.525692L25.2285,12.0732305L24.4832,12.0366152C24.0596,12.0117688,23.6863,12.0366152,23.6372,12.085C23.5868,12.134692,23.5494,12.354384,23.5494,12.562308L23.5494,12.952001L22.8157,12.978155C22.1311,13.00169,22.0691,12.978155,22.0317,12.72054C21.9929,12.464231999999999,21.9322,12.439386,21.1856,12.439386L20.3757,12.439386L20.3757,22.453699999999998L21.2231,22.490299999999998L22.0562,22.526899999999998L22.0562,14.57616L23.5494,14.57616L23.5494,23.968L21.9697,24.0046L20.3757,24.0412L20.3396,24.7016C20.3137,25.1528,20.3525,25.3973,20.4636,25.4588C20.5501,25.518900000000002,21.2851,25.5686,22.0937,25.5686L23.5494,25.5686L23.5507,27.810000000000002ZM32.6104,28.9699C33.5172,28.966,34.1346,28.9307,34.2896,28.8784L34.3645,28.8496L34.435500000000005,28.8195C34.4464,28.8145,34.4572,28.8093,34.4678,28.8038L34.531099999999995,28.7698C34.9302,28.5227,34.9961,27.8505,35,23.5875L35,22.197400000000002C35,21.69654,35,21.15646,34.9974,20.573230000000002C34.9845,16.55469,34.9354,13.20961,34.8863,13.12331C34.8114,13.01346,34.0777,12.976846,31.9736,12.988614C30.4185,12.988614,29.0247,12.965074,28.8504,12.915383C28.614,12.866999,28.5275,12.757153,28.5016,12.464229C28.4655,12.0732289,28.4655,12.0732289,27.6814,12.0366136C27.1338,12.0117672,26.8845,12.0496906,26.847,12.158229C26.825,12.210537,26.8108,13.32469,26.807,14.993310000000001L26.8057,15.56869L26.8057,17.844079999999998C26.8082,18.19323,26.8082,18.55023,26.8095,18.91246L26.8483,25.507199999999997L28.4655,25.507199999999997L28.5016,20.03577L28.5275,14.57746L30.0206,14.57746L30.0465,20.03577L30.0826,25.507199999999997L31.6998,25.507199999999997L31.7385,20.03577L31.7631,14.57746L33.2562,14.57746L33.2562,21.66515C33.2511,25.7425,33.2123,27.1509,33.1064,27.2542C33.007000000000005,27.351,32.4477,27.4007,31.4272,27.4007C30.1692,27.4007,29.8708,27.3641,29.8217,27.217599999999997C29.7597,27.0698,29.46,27.0345,28.2652,27.0345L28.0818,27.0345C27.3585,27.0398,26.7863,27.0738,26.7979,27.119500000000002C26.7979,27.1705,27.1518,27.467399999999998,27.6375,27.8401L27.9423,28.0715L29.0868,28.9268L31.5138,28.9634L32.0873,28.9699L32.6104,28.9699ZM16.7048,15.06523L9.985579999999999,15.06523L9.985579999999999,13.477689999999999L16.7048,13.477689999999999L16.7048,15.06523ZM6.68796,28.9268L6.68796,15.12669L5.43117,15.09008C4.746583,15.077,4.149833,15.09008,4.10075,15.13846C4.0490832,15.18815,4.0129167,15.51769,4.0129167,15.88384L4.0129167,16.53115L5.0075,16.53115L5.03333,22.723100000000002L5.07079,28.9268L6.6866699999999994,28.9268L6.68796,28.9268ZM16.7048,17.99577L9.985579999999999,17.99577L9.985579999999999,16.53115L16.7048,16.53115L16.7048,17.99577ZM10.64563,29L13.93033,28.9634L17.228,28.9268L17.5263,28.5842C17.8002,28.2677,17.8247,28.1448,17.8247,26.8998L17.8247,26.678800000000003C17.8273,25.6432,17.853099999999998,25.5673,18.073999999999998,25.5673C18.285800000000002,25.5673,18.3233,25.482300000000002,18.3233,24.957900000000002C18.3233,24.615299999999998,18.336199999999998,24.3106,18.336199999999998,24.249200000000002C18.3491,24.2008,18.235500000000002,24.1145,18.0869,24.0412C17.8622,23.944499999999998,17.8247,23.8215,17.8247,23.2239C17.8247,22.6002,17.8505,22.5152,18.073999999999998,22.5152C18.210900000000002,22.5152,18.3233,22.4785,18.334899999999998,22.417099999999998C18.4357,21.72139,18.422800000000002,21.22054,18.3104,21.08585C18.198,20.96423,17.228,20.927619999999997,13.28321,20.927619999999997L12.97708,20.927619999999997C10.43896,20.93023,8.365829999999999,20.96685,8.330960000000001,21.01262C8.28058,21.04923,8.243120000000001,21.415390000000002,8.243120000000001,21.80639L8.243120000000001,22.5152L16.0835,22.5152L16.0835,23.979799999999997L12.20079,24.0059L8.30513,24.0412L8.30513,25.507199999999997L12.20079,25.543799999999997L16.0952,25.5686L16.0577,26.4592L16.0215,27.339199999999998L13.66942,27.375799999999998C11.653120000000001,27.4007,11.29275,27.375799999999998,11.204920000000001,27.2163C11.118369999999999,27.0698,10.81871,27.0332,9.67429,27.0332L9.480540000000001,27.0345C8.78692,27.0398,8.243120000000001,27.0738,8.243120000000001,27.1065C8.243120000000001,27.2045,8.31804,27.2778,9.61229,28.2311L10.64563,29Z" fill="#FFFFFF" fill-opacity="1" style="mix-blend-mode:passthrough"/></g></g></svg>