<svg xmlns="http://www.w3.org/2000/svg" xmlns:xlink="http://www.w3.org/1999/xlink" fill="none" version="1.1" width="40" height="40" viewBox="0 0 40 40"><g><g><path d="M7.2,0L32.8,0C37.6,0,40,2.4,40,7.2L40,32.8C40,37.6,37.6,40,32.8,40L7.2,40C2.4,40,0,37.6,0,32.8L0,7.2C0,2.4,2.4,2.22045e-15,7.2,2.22045e-15L7.2,0Z" fill="#111111" fill-opacity="1"/></g><g><path d="M8,26.199C8.00594533,20.831,12.29956,16.4809,17.597839999999998,16.474899999999998L17.597839999999998,22.3091C15.47864,22.3116,13.761289999999999,24.0515,13.75887,26.1986C13.75887,28.1097,14.77894,30.1658,17.01888,30.1658C17.167920000000002,30.1658,20.6693,30.131,20.6693,27.1139L20.6693,5L26.8057,5C26.8125,7.9028,29.1349,10.25352,32,10.25775L31.9948,16.081400000000002C30.0355,16.0967,28.1099,15.5644,26.4297,14.54313L26.4273,27.1139C26.4273,32.8857,21.5795,36,17.018079999999998,36C11.87733,36.0012,8.000000000000007,31.7871,8.000000000000007,26.199L8,26.199Z" fill="#FF4040" fill-opacity="1"/></g><g><path d="M6,25.199C6.00594533,19.831,10.29956,15.4809,15.59784,15.4749L15.59784,21.3091C13.47864,21.3116,11.761289999999999,23.0515,11.75887,25.1986C11.75887,27.1097,12.77894,29.1658,15.01888,29.1658C15.16792,29.1658,18.6693,29.131,18.6693,26.1139L18.6693,4L24.8057,4C24.8125,6.9028,27.1349,9.25352,30,9.25775L29.9948,15.0814C28.0355,15.0967,26.1099,14.5644,24.4297,13.54313L24.4273,26.1139C24.4273,31.8857,19.5795,35,15.01808,35C9.87733,35.0012,6.000000000000008,30.7871,6.000000000000008,25.199L6,25.199Z" fill="#00F5FF" fill-opacity="1"/></g><g><path d="M16.295920000000002,16.4251C9.97233,17.2092,4.97054,25.0908,10.15988,32.183099999999996C14.95374,36.014700000000005,25.0385,33.7863,25.3177,25.4964L25.3108,12.884350000000001C27.0355,13.87363,29.0002,14.39262,31,14.38719L31,9.95237C29.8242,9.564309999999999,28.8077,8.81629,28.1012,7.81923C27.0644,7.152810000000001,26.2951,6.1569199999999995,25.9232,5L20.999299999999998,5L20.996000000000002,26.8438C20.991500000000002,29.8969,15.78139,30.9842,14.45878,28.0212C11.14654,26.4737,11.8955,20.592599999999997,16.30285,20.5285L16.295920000000002,16.4251Z" fill="#FFFFFF" fill-opacity="1"/></g></g></svg>