<svg xmlns="http://www.w3.org/2000/svg" xmlns:xlink="http://www.w3.org/1999/xlink" fill="none" version="1.1" width="40" height="40" viewBox="0 0 40 40"><rect x="0" y="0" width="40" height="40" rx="6" fill="#FFFFFF" fill-opacity="1"/><rect x="0.5" y="0.5" width="39" height="39" rx="5.5" fill-opacity="0" stroke-opacity="1" stroke="#EFEFEF" fill="none" stroke-width="1"/><path d="M39.028519,7.4384765625L39.028519,30.9606685625C38.618195,30.9797435625,38.207798,30.9966585625,37.797634,31.0184265625C37.102146,31.0553305625,36.4067,31.0941275625,35.711517,31.1343325625C35.07383,31.1711945625,34.436371,31.2132525625,33.798611,31.2487545625C32.721891,31.3086355625,31.645023,31.3640075625,30.568306,31.4233645625C29.911316,31.4596215625,29.254589,31.5004675625,28.597675,31.5380915625C27.578682,31.5965345625,26.559725,31.6540295625,25.540657,31.7119405625C24.864515,31.7503605625,24.188408,31.7884385625,23.512262,31.8272725625C22.512499,31.8848815625,21.512772,31.9428725625,20.513006,32.000972562499996C19.856129,32.0391275625,19.199327,32.0792145625,18.542376,32.1158505625C17.484924,32.1749385625,16.427284,32.2311075625,15.369833,32.2901595625C14.712879,32.3269085625,14.056116,32.368171562499995,13.399201,32.4048075625C12.341714,32.4639335625,11.284111,32.5200655625,10.2266617,32.5790765625C9.5696697,32.615865562500005,8.9129448,32.6570525625,8.2559919,32.6938015625C7.198503,32.7528915625,6.1408629,32.809059562499996,5.0834503,32.868072562500004C4.426459299999999,32.904821562500004,3.7697339,32.9456305625,3.112781,32.982833562500005C2.4086483000000003,33.022659562499996,1.70432585,33.0603965625,1.0001172352,33.0990045625C1,25.2198185625,1,17.3405179625,1,9.4612555625C1.23696119,9.4421028625,1.47358108,9.4175267625,1.7108836200000002,9.4048594625C2.8358803999999997,9.3448226625,3.9611425,9.2887303625,5.0861778,9.2298315625C5.79141,9.1928540625,6.496491,9.1528795625,7.2016478,9.1150294625C8.2882257,9.0567372625,9.3748035,8.9985967625,10.4614582,8.9412532625C11.20507,8.9020376625,11.948798,8.8649840625,12.692412,8.8258446625C13.779028,8.7684627625,14.865643,8.7107010625,15.952222,8.651878462500001C16.63815,8.6147488625,17.323927,8.5740160625,18.009932,8.5373799625C18.763102,8.4970649625,19.516462,8.4595938625,20.269672,8.4210609825C21.022993,8.3824144025,21.776392,8.3451709125,22.52964,8.3053870825C23.606623,8.2484980825,24.683527,8.1899406325,25.760511,8.1319898325C26.475302,8.0935331025,27.189976,8.0545451025,27.904842,8.0168088125C28.648457,7.9775177825,29.392109,7.9390226025,30.135798,7.9010209725C30.898714,7.8619575825,31.661634,7.8242589525,32.424551,7.7852332025C33.16824,7.7471932125,33.911892,7.7087748625,34.655502,7.6695592425C35.370293,7.6317852325,36.085011,7.5923420325,36.799873,7.5545296025C37.542728,7.5152763055,38.285625,7.4771224935,39.028519,7.4384765625ZM30.327627,17.3701391625C30.66547,17.2091054625,30.955791,17.0734815625,31.243839,16.9329671625C32.288585999999995,16.4232044625,33.329006,15.9043025625,34.379101,15.4056525625C34.692368,15.2569455625,34.854729,15.0823340625,34.819801,14.7028097625C34.776756,14.234956262499999,34.809521,13.7601227625,34.809521,13.2882857625L34.809521,11.982988862500001C34.568542,12.0121164625,34.364765,12.047766662499999,34.159588,12.0596370625C33.092693,12.1215700625,32.025232,12.1759939625,30.958223,12.2359175625C30.330019,12.2712259625,29.702456,12.3184442625,29.074062,12.3489360625C28.157471,12.3934993625,27.240421,12.427632362499999,26.323639,12.466923762499999C26.228176,12.471058362499999,26.132757,12.488806762500001,26.037979,12.4850520625C25.883587,12.4788317625,25.71216,12.4994263625,25.578545,12.4400339625C24.889774,12.133592162500001,24.210825,11.8053054625,23.500889,11.4718227625C23.462242,11.5204439625,23.415213,11.5692543625,23.379904,11.6255369625C22.513979,13.0064577625,21.654577,14.3915128625,20.778109,15.7657966625C20.657618,15.9547433625,20.741928,15.9957780625,20.880356,16.045878362499998C21.490091,16.2667970625,22.110941,16.461054762499998,22.707703,16.712656062500002C23.020136,16.8443717625,23.125458,16.7249431625,23.26897,16.482444762500002C23.64785,15.8418760625,24.05377,15.2171220625,24.456203,14.5907006625C24.50016,14.5222811625,24.586935,14.4466576625,24.661079,14.4384274625C24.973286,14.4036483625,25.288338,14.3927259625,25.602325,14.373915162500001C26.249493,14.3351917625,26.896507,14.291690862500001,27.544094,14.260061262499999C28.44146,14.216143562500001,29.339279,14.1820478625,30.236834,14.1416191625C30.340635,14.1369914625,30.443644,14.1135916625,30.547447,14.1075606625C31.019587,14.080253562500001,31.491766,14.0560946625,31.946007,14.031747362499999C32.060125,14.335609962500001,31.909063,14.4447603625,31.686098,14.5525073625C30.453163,15.1481356625,29.228348,15.7602596625,27.995865,16.3567199625C27.892782,16.4065151625,27.738918,16.4239225625,27.634281,16.385847062499998C26.830326,16.0930194625,26.033236,15.7813825625,25.232964,15.4783553625C24.60157,15.239193462500001,24.601004,15.2410902625,24.226105,15.7967815625C24.178545,15.8672866625,24.126627,15.9349460625,24.080395,16.0062084625C23.872107,16.3267955625,23.66507,16.6482171625,23.449875,16.9814357625C24.09234,17.2192687625,24.698017,17.4433735625,25.327513,17.6763895625C24.275372,18.200754562500002,23.258427,18.7121095625,22.235752,19.2111375625C22.114124,19.2704915625,21.960752,19.2744365625,21.820692,19.2839945625C21.492785,19.306521562500002,21.16412,19.316913562499998,20.837351,19.3321585625L20.837351,21.1199485625C21.412533,21.1199485625,21.973156,21.125978562500002,22.533398,21.115322562499998C22.660183,21.1128945625,22.795277,21.0718225625,22.910381,21.015462562499998C24.300251,20.334996562500002,25.690125,19.6546445625,27.072903,18.9599165625C27.564272,18.7130565625,28.003607,18.6120215625,28.566654,18.858957562500002C29.623459,19.3225635625,30.723881,19.6901045625,31.816906,20.0665555625C32.363913,20.2548975625,32.881941,20.5777605625,33.500969,20.5015675625C33.736717,20.472590562500002,33.97485,20.4628055625,34.211548,20.4418705625C34.464024,20.4195335625,34.716232,20.3942745625,34.960247,20.371139562499998L34.960247,18.509735562499998C34.71767,18.5381405625,34.501682,18.5803905625,34.284935,18.5844105625C34.029617,18.5890755625,33.761406,18.6046635625,33.520767,18.5371565625C33.069073,18.410407562499998,32.632126,18.229955562500002,32.190859,18.0669885625C31.584761,17.8429605625,30.980375,17.6144575625,30.327627,17.3701391625ZM13.010914,13.2342405625L13.010914,21.1554485625C12.273785,21.2080135625,11.570411,21.2648655625,10.866127,21.3070025625C9.7989664,21.3708305625,8.731389499999999,21.4277975625,7.663661,21.4809675625C7.1188173,21.5082005625,6.5729494,21.515103562500002,6.0280676,21.5424475625C5.6880231,21.5595125625,5.3489661,21.5978575625,5.005888,21.6268315625L5.005888,23.4831175625L10.5168667,23.1758035625C9.8297615,24.0876155625,9.1494465,24.9706095625,8.4931393,25.8711225625C8.223409700000001,26.2412435625,7.936348,26.4571175625,7.4384575,26.4083445625C6.986115,26.3640475625,6.5223184,26.4280285625,6.0642114,26.4547675625C5.7332315,26.4741115625,5.4032383,26.5106295625,5.0460896,26.5418455625C5.0460896,27.1048525625,5.0400972,27.6707095625,5.0548124,28.2360325625C5.0564051,28.2958795625,5.1826229,28.4063205625,5.2457695,28.4026775625C6.3383775,28.3390765625,7.4298854,28.2565475625,8.5223041,28.1885855625C9.0282736,28.1571065625,9.5358372,28.1519465625,10.0420713,28.1237675625C10.1120834,28.1198275625,10.1990099,28.0674495625,10.2432699,28.0105205625C10.5739079,27.5852205625,10.8943443,27.1519565625,11.220582,26.7232415625C12.021995,25.6699985625,12.819842,24.6140265625,13.630434,23.5679185625C13.846232,23.289426562499997,14.0081,22.9418355625,14.453844,22.9236325625C15.521952,22.879980562500002,16.588922,22.8105745625,17.656536,22.7545585625C18.105238,22.7310445625,18.554926,22.7226235625,19.00268,22.6881135625C19.074018,22.6825765625,19.193863,22.5767995625,19.195759,22.5145625625C19.211233,21.9949415625,19.208693,21.4745195625,19.197464,20.9546695625C19.196327,20.9040385625,19.098669,20.8108165625,19.048569,20.812749562500002C18.44858,20.8350875625,17.848972,20.8689185625,17.249552,20.9053665625C16.775627999999998,20.934189562500002,16.302201,20.970788562499997,15.790315,21.0065545625L15.790315,13.0830693625L13.010914,13.2342405625ZM20.830177,23.5052265625C20.927193,23.5052265625,21.001905,23.5093235625,21.076126,23.5045435625C21.646193,23.4674495625,22.215916,23.4212205625,22.786434,23.3924345625C23.359798,23.363456562499998,23.934072,23.3524225625,24.507816,23.3308025625C24.611849,23.3268985625,24.715082,23.305622562499998,24.819036,23.2999345625C25.367596,23.2692135625,25.916235,23.2409575625,26.497183,23.210161562499998L26.497183,27.1729655625L29.324636,27.0186085625L29.324636,23.0701775625C29.581432,23.0393435625,29.806143,23.002215562499998,30.032524,22.987080562499997C30.688793,22.9432775625,31.345558,22.902773562500002,32.002545999999995,22.8712935625C32.918988999999996,22.8272605625,33.835812,22.7928615625,34.752403,22.7533815625C34.825527,22.7502715625,34.898304,22.739763562500002,34.969074,22.7329395625L34.969074,20.8399025625C34.454571,20.8814335625,33.955849,20.933200562499998,33.455826,20.9594095625C32.54936,21.007006562500003,31.641947,21.0384475625,30.734983,21.0790645625C30.641041,21.0833115625,30.548122,21.1100125625,30.454103,21.1158535625C30.080458,21.1388745625,29.706585,21.1577225625,29.310978,21.1793035625L29.310978,20.2670335625C28.361729,20.3244145625,27.435658,20.3804695625,26.480453,20.4383055625L26.480453,21.3313105625C25.735548,21.3831515625,25.023413,21.4422445625,24.310102,21.4799045625C23.394041,21.5283345625,22.476839,21.5559055625,21.560474,21.6005435625C21.317671,21.6123785625,21.076197,21.6540195625,20.830173,21.682503562500003L20.830177,23.5052265625ZM14.316401,23.3318275625C14.306351,23.3684635625,14.296263,23.405213562500002,14.286137,23.4418505625L16.473969,27.7344225625L19.544565,27.5674325625C19.538042,27.4949955625,19.541683,27.4739475625,19.534021,27.4588525625C18.893152,26.1968285625,18.245871,24.9379905625,17.613682,23.6717585625C17.462585,23.369069562500002,17.27652,23.2166085625,16.9185,23.2675025625C16.570607000000003,23.3169975625,16.215241,23.3229545625,15.862794,23.3294775625C15.347494,23.3388815625,14.83189,23.3318275625,14.316401,23.3318275625ZM20.802002,27.4929845625C20.957003,27.4929845625,21.06263,27.4976135625,21.167797,27.4922655625C21.891802,27.4551315625,22.615238,27.4053745625,23.339661,27.3840975625C23.543552,27.3782195625,23.632679,27.3108615625,23.722523,27.1326125625C24.1556,26.2723765625,24.609838,25.4228745625,25.054216,24.5683265625C25.191889,24.3035655625,25.322239,24.0348225625,25.480314,23.7192405625C25.187183,23.7480255625,24.952724,23.7812115625,24.717129,23.7921335625C24.163033,23.8177695625,23.608213,23.8286955625,23.054041,23.8539905625C22.794588,23.8658635625,22.584934,23.9319305625,22.476847,24.2288495625C22.364735,24.5365825625,22.174881,24.8155635625,22.023592,25.1094535625C21.622753,25.8883765625,21.224379,26.6685145625,20.802002,27.4929845625ZM35.500801,26.6531925625C35.493027,26.6070385625,35.497883,26.5545485625,35.476074,26.5181355625C34.865467,25.5006195625,34.252205,24.4845845625,33.639286,23.4684355625C33.556835,23.3317525625,33.456902,23.2562015625,33.275578,23.2694775625C32.590937,23.319387562499998,31.904783,23.3493125625,31.219536,23.3909155625C31.057552,23.400737562499998,30.896599,23.426793562500002,30.706171,23.4487155625C31.356262,24.5280875625,31.980711,25.5704445625,32.61434,26.6072635625C32.665426,26.6908135625,32.779318,26.7908975625,32.863398000000004,26.7904055625C33.466156,26.7867275625,34.068989,26.7648045625,34.671291,26.7364005625C34.943977,26.7235795625,35.215374,26.6827335625,35.500801,26.6531925625ZM11.453869,20.2992725625C11.447079,20.2617245625,11.449772,20.2388185625,11.439684,20.2260365625C10.8535776,19.4825005625,10.2525263,18.7502245625,9.6853819,17.9925785625C9.4113674,17.6265935625,9.1175556,17.427520762500002,8.6360478,17.486836562500002C8.0410657,17.5602225625,7.4383097,17.5699705625,6.8392315,17.6112715625C6.6284389,17.6257595625,6.4184051,17.652421562500002,6.2052999,17.673772562499998C6.2151985,17.733241562499998,6.2120881,17.756414562499998,6.2221384,17.7691565625C6.8221273,18.526044562499997,7.4322791,19.2751565625,8.0197515,20.0416775625C8.2675595,20.3649965625,8.521739,20.5580025625,8.968696600000001,20.510482562500002C9.6987324,20.432810562500002,10.4360886,20.4251475625,11.169918,20.3807355625C11.266894,20.374934562500002,11.361405,20.3268445625,11.453869,20.2992725625ZM11.487015,16.8350419625C11.393224,16.7032508625,11.327195,16.601910562500002,11.252671,16.507134462499998C10.7620602,15.8833293625,10.2596941,15.268434562500001,9.7814484,14.6353764625C9.4762592,14.2313904625,9.1911688,13.8916492625,8.5857959,14.0125193625C8.123251400000001,14.1048688625,7.6341209,14.0598878625,7.1574297,14.0871958625C6.8411655,14.1053619625,6.526001,14.1434016625,6.1682081,14.176434562499999C6.9077253,15.1195769625,7.6210737,16.0339708625,8.3437901,16.9407796625C8.3911982,17.0002851625,8.5119162,17.0308170625,8.5962253,17.0266828625C9.2039127,16.9969863625,9.8111067,16.9564447625,10.4182625,16.9160909625C10.7585335,16.893525162499998,11.098426,16.8647022625,11.487015,16.8350419625Z" fill="#D81E06" fill-opacity="1" style="mix-blend-mode:passthrough"/></svg>