<svg xmlns="http://www.w3.org/2000/svg" xmlns:xlink="http://www.w3.org/1999/xlink" fill="none" version="1.1" width="40" height="40" viewBox="0 0 40 40"><path d="M13.85062564375,8.8941917419C14.04973604375,8.8755249025,14.07462624375,8.9617469835,14.17862544375,9.0248581025C14.919958543749999,9.4719688325,13.52173614375,10.1253028625,13.19729232375,10.1333023625C13.07462540375,10.1368576625,12.92262573375,10.0666359625,12.87462539975,10.0017471625C12.67818069375,9.7546364025,12.90662536375,9.6595245625,13.04973679375,9.5190803425L13.13418123375,9.4150802525C13.18218156375,9.2719688425,13.67373657375,8.9057472225,13.85062564375,8.8941917419Z" fill="#000000" fill-opacity="1" style="mix-blend-mode:passthrough"/><rect x="0" y="0" width="40" height="40" rx="6" fill="#F2C81C" fill-opacity="1"/><path d="M22.8550049125,13.5573019625C23.0096711125,13.4213023625,23.4070053125,12.8897471625,23.5074494125,12.7075242625C23.5261154125,12.6701903625,23.6390045125,12.5137467625,23.6390045125,12.5137467625C23.6914489125,12.2550797625,23.5367828125,11.973302562499999,23.5074494125,11.7964134625C23.4994491125,11.7919692625,23.5998933125,11.6666359625,23.5074494125,11.5341911625C23.4167832125,11.402636062500001,23.1181167125,11.6053025625,22.9225601125,11.7315246625C22.8470048125,11.7741913625,22.8638931125,11.8755249625,22.7927827125,11.9244134625C22.3003387425,12.267524762499999,22.2034484725,12.3021912625,21.6816711425,12.055079662499999C21.6087829595,11.9475242625,21.5385604835,11.882635562499999,21.6816711425,11.6648576625C21.8247818025,11.4444129625,22.5367828625,11.0773017625,22.9874496125,10.8817467625C22.9767822125,10.7190804625,23.0345611125,10.445302762499999,22.9874496125,10.2941909625C22.9767822125,10.2675239625,22.8123382125,10.1839691625,22.7927827125,10.1617462625C21.9785598825,9.2168571325,22.3314499225,8.9893021025,22.3314499225,8.9893021025C22.3314499225,8.9893021025,22.8185608125,8.7190795825,23.1181167125,8.8586357225C23.4114503125,8.997302232500001,23.7225616125,10.5315246625,24.0950057125,9.5759689625C24.1261170125,9.4968582625,24.2452285125,9.2328575225,24.2256729125,9.1190803625C24.2105622125,9.0355247825,23.9803390125,8.9128578325,23.9661178125,8.8586357225C23.9447846125,8.8044136125,23.9696731125,8.5937469625,23.9696731125,8.5937469625L24.0292282125,8.4693023725L24.2896728125,8.33774719242C24.2896728125,8.33774719242,24.5545623125,8.3244140625,24.6852281125,8.4044136035C24.7696731125,8.4550804125,25.0638947125,9.1075248725,25.0754502125,9.2533027525C25.0914504125,9.4524139625,25.0194504125,9.8106361625,24.9456727125,9.9715248625C24.9038956125,10.0488579625,24.7198944125,10.1226357625,24.6843400125,10.2319694625C24.6158950125,10.3973030625,24.6887848125,10.4808585625,24.6158950125,10.6213028625C24.5714509125,10.7039697625,24.3767838125,10.7733025625,24.3563402125,10.8835251625C24.2292282125,11.4746360625,24.7456727125,12.256858062500001,24.8141174125,12.7759699625C25.0461182125,14.6088585625,24.7296722125,16.7661924625,23.6390061125,17.4755258625C23.623005612500002,17.4835262625,23.4718948125,17.5039701625,23.4523392125,17.5155248625L23.0514496125,17.4088582625C22.9883393125,17.3039693625,22.8603378125,17.2346372625,22.7936722125,17.1501912625C22.7021164125,17.0346364625,22.6834503125,16.8790807625,22.5945617525,16.7581920625C22.5376724625,16.679080962500002,22.3047836425,16.579524962500003,22.2692291125,16.4959697625C21.9527847425,15.7990808625,22.6203400125,15.8275246625,22.9883407125,16.0381922625C23.0665635125,16.0835261625,23.2096741125,16.2915263625,23.3154526125,16.300414562500002C23.4532302125,16.3128595625,23.5021194125,16.2079706625,23.5758972125,16.1697473625C24.1296754125,15.8728585625,23.7936752125,15.5937476625,23.8354523125,15.0604133625C23.8425629125,14.9581918625,24.0150087125,14.6897468625,24.0301194125,14.6044134625C24.1083419125,14.1279687625,23.9990082125,13.6959695625,23.9030075125,13.3617472625C23.8905625125,13.3777475625,23.7234514125,13.4079689625,23.7038972125,13.4284143625C23.6176743125,13.5128593625,23.6345641125,13.7093024625,23.5750077125,13.8204140625C23.4710083125,13.9919700625,23.2638962125,14.1404137625,23.118118312500002,14.279080862499999C22.911007712500002,14.4595255625,22.698562612499998,14.8061928625,22.3990066625,14.8657479625C22.2887848025,14.8844141625,21.9998962625,14.798192462500001,22.0087845025,14.798192462500001C21.9998962625,14.7901925625,21.7927841225,14.873748262500001,21.6807846055,14.538637662500001C21.5670074445,14.2035269625,22.0985626325,14.1288599625,22.5936737025,13.7555260625L22.8550049125,13.5573019625Z" fill="#000000" fill-opacity="1" style="mix-blend-mode:passthrough"/><path d="M29.9694685625,8.46936492925C30.5321364625,8.37958679325,30.7899126625,8.74047621625,30.6228012625,9.18669813625C30.3739123625,9.85247580625,29.1516890625,9.764476106250001,28.3383560625,9.90580900625C28.2281327625,9.92358710625,27.9285781625,10.08536460625,27.8183548625,10.09958650625C27.4707991625,10.13869790625,27.2281327625,10.03647540625,26.9028000625,10.16447530625C26.741911362499998,10.22669760625,26.6343551625,10.32803120625,26.5125778625,10.42669760625C26.3916885625,10.52269740625,26.2699111625,10.57514190625,26.1854660625,10.68803100625C26.1054657625,10.79825280625,26.1223556625,10.94669790625,26.1223556625,10.94669790625C26.1223556625,10.94669790625,26.1916885625,11.568031306249999,26.2521346625,11.798253806249999C26.2983566625,11.97780920625,26.5436905625,12.28447580625,26.5792465625,12.515586806249999C26.7463576625,13.62225440625,26.1463577625,16.94758700625,25.7330245625,17.34225370625C25.3641357425,17.68803210625,25.1339142025,17.67114350625,24.9499130225,17.539587006250002C24.7614685075,17.408031506249998,24.8272461025,17.42047500625,24.7508026135,17.27914240625C24.6891235355,17.15898420625,24.6673294065,17.022301706249998,24.6885803221,16.88891980625C24.7463577315,16.76003070625,24.6885803221,16.67647460625,24.7508026135,16.56358720625C24.8432464625,16.39469860625,25.1161361625,16.26492070625,25.2094696125,16.10492040625C25.2370254425,16.05514290625,25.1970245225,15.95825430625,25.2094696125,15.909365206250001C25.2494689825,15.72892090625,25.483247402499998,15.46047590625,25.5330246125,15.25781010625C25.7801360625,14.31114290625,25.9321349625,13.51114270625,25.8601363625,12.44981000625C25.7988036625,11.60447690625,25.0699142525,10.97958750625,25.3401367025,10.10136570625C25.3632476925,10.00892100625,25.5205810625,9.68269880625,25.6005813525,9.57958760625C25.9525817625,9.11647647625,27.2681381625,9.51381000625,28.0148026625,9.32003176625C28.0699143625,9.30314254625,28.2139146625,9.14403152625,28.2770249625,9.12358707625C28.5214707625,9.04447632625,28.6770248625,9.125364716250001,28.927690062499998,9.05692064625C29.2325792625,8.97425383625,29.5010237625,8.75380936625,29.7774672625,8.60269851625C29.8423571625,8.55914306625,29.869023362500002,8.48447647125,29.9694685625,8.46936492925Z" fill="#000000" fill-opacity="1" style="mix-blend-mode:passthrough"/><path d="M30.10041805625,10.42578125C30.10041805625,10.42578125,30.314639356249998,10.42578125,30.42841795625,10.489781193C30.83375235625,10.72000352,30.45952775625,11.19022602,30.36086125625,11.47022555C30.28886105625,11.67822575,30.15552685625,11.99733665,30.10041805625,12.18933645C30.06752945625,12.30044785,30.127972356249998,12.40000305,30.10041805625,12.51466985C30.086196856249998,12.575114450000001,30.02219555625,12.75466995,29.90575265625,12.77600335C29.789306656249998,12.79467015,29.68797615625,12.714669950000001,29.64353035625,12.64622565C29.41953135625,12.28444825,29.45508745625,11.11644822,29.64353035625,10.75378114C29.71908565625,10.60889207,30.10041805625,10.42578125,30.10041805625,10.42578125ZM28.12975155625,10.8062256C28.12975155625,10.8062256,28.34752805625,10.85244751,28.40619505625,10.94578093C28.48086245625,11.06933671,28.439971956249998,11.19467014,28.47197265625,11.33955842C28.59108285625,11.91289135,28.55197145625,12.73955845,28.40619505625,13.29778145C28.34841625625,13.50933695,28.11730655625,13.80800315,28.08175055625,14.01511545C28.06486215625,14.08622595,28.103973356250002,14.20533755,28.08175055625,14.27822735C27.996417256249998,14.512893649999999,27.73419493625,14.91556115,27.68708497625,15.188449349999999C27.57864075625,15.821338149999999,27.84086304625,16.37067125,28.53597415625,16.16889335C28.63730775625,16.13956025,28.71375115625,15.96356055,28.79819645625,15.90756085C28.71997375625,15.337782350000001,28.29864205625,14.624005350000001,29.05863955625,14.99644945C29.62130735625,15.26756005,29.73152775625,15.89067075,29.84352735625,16.62489315C29.80530405625,16.70667125,29.74397275625,16.803559749999998,29.58041695625,16.82044835C29.41686105625,16.84267135,29.38308405625,16.79822545,29.31997375625,16.75822595C29.26752925625,16.72444775,29.26930855625,16.71555945,29.19019485625,16.56267115C29.10752865625,16.40800475,29.01864025625,16.456892449999998,28.99375005625,16.56267115C28.95552685625,16.58755975,28.92797245625,16.75822595,28.92797245625,16.75822595C28.92797245625,16.75822595,28.40530705625,17.27822585,27.36086121625,16.88800385C26.98930664025,16.64622645,26.82752685625,15.656002950000001,27.03552856325,15.05955985C27.08975219625,14.90755935,27.29597169625,14.70044855,27.36086121625,14.53778215C27.49152833625,14.19378205,27.49152833625,13.90044855,27.62397158625,13.55733795C27.66575014625,13.44089365,27.85774844625,13.24356075,27.88530582625,13.10044865C27.99819335625,12.44800425,27.61241763625,12.14311525,27.55819398625,11.66578225C27.51552736625,11.29422683,27.56086122625,11.08622664,27.75552672625,10.94489288C27.85419314625,10.87022629,27.84086000625,10.87200394,28.01596985625,10.81600419L28.12975155625,10.8062256ZM29.84086295625,12.96978165C29.85152885625,12.98844765,30.01597285625,13.01778105,30.03552865625,13.037336849999999C30.27286075625,13.26400305,30.25952765625,14.06311485,30.36086125625,14.472003449999999C30.55286265625,15.21866945,31.024862756250002,16.04089215,31.53775025625,16.49422595C31.62130455625,16.566226450000002,31.68619395625,16.71378185,31.79819345625,16.75644825C32.13597105625,16.87822585,32.45063785625,16.80533745,32.58219285625,17.14844845C32.85952755625,17.87822585,31.78219315625,17.87022545,31.34308195625,17.60267015C31.15108065625,17.48711535,30.59730525625,16.93778085,30.49241635625,16.75644825C30.30486155625,16.430226349999998,30.29597165625,16.08000325,30.16885995625,15.71289205C30.08797005625,15.49066925,29.83641675625,15.201780750000001,29.77597045625,14.99555825C29.66574715625,14.62577965,29.59641435625,13.32622525,29.71019295625,13.03733515L29.84086295625,12.96978165Z" fill="#000000" fill-opacity="1" style="mix-blend-mode:passthrough"/><path d="M15.09125229375,8.044658661C15.188140893749999,8.007324982,15.53658629375,7.921102904,15.678807293750001,8.17532502C15.81836269375,8.43043596,15.61302949375,10.0233247,15.61302949375,11.0473251C15.61302949375,11.2402139,15.553474393750001,11.577102700000001,15.61302949375,11.7637696C15.62369679375,11.8002136,15.96414039375,12.1433253,16.00414129375,12.1557693C16.28058619375,12.226880600000001,17.29925249375,12.096213800000001,17.37569709375,11.9602134C17.46636389375,11.7877693,17.40769859375,11.5975473,17.43880939375,11.372657799999999C16.85480979375,11.372657799999999,16.23791979375,11.1513245,16.19969799375,11.1113243C16.163253793750002,11.0722129,16.06280849375,10.9957688,16.19969799375,10.8517685C16.34192039375,10.7042129,17.01569839375,10.6251016,17.506364793750002,10.6535461C17.47436429375,10.265990500000001,17.603253393750002,9.8242127,17.37569709375,9.8073243C17.149919493749998,9.7913239,16.41836409375,9.6846573,16.329475393750002,9.6108795C16.21855499375,9.5136681,16.16919279375,9.3638786,16.20058579375,9.2197685C16.23880769375,9.0464356,16.32325319375,9.0464356,16.397030793749998,9.0251015C16.74547579375,8.91399002,17.18814279375,9.0731019,17.37569709375,9.154879C18.18103029375,9.5077683,18.366808893749997,9.808212300000001,18.28858659375,10.851767800000001C18.20147609375,11.982434,18.46369839375,12.295323400000001,17.63525299375,12.743323799999999C17.37747479375,12.88199,17.34103109375,12.970878599999999,16.85303019375,12.938879499999999C16.64858529375,12.9246573,16.10725259375,12.769990400000001,15.806808493750001,12.874879400000001C15.774807893750001,12.8837686,15.71169759375,13.0695467,15.590808393749999,13.0979905C15.51703019375,13.177990900000001,15.57569739375,13.171768199999999,15.54636379375,13.1984344C15.51703019375,13.2295456,15.54636379375,13.3317676,15.54636379375,13.3317676C15.77036429375,13.396657000000001,15.91614249375,13.373544200000001,16.13391879375,13.4606566L16.91614059375,13.918434099999999C17.135696393750003,14.2055449,17.16947459375,14.9673233,16.98369599375,15.2882128C16.877917293750002,15.4668794,16.573918293749998,15.5673232,16.45925139375,15.7468796C16.41925189375,15.810879700000001,16.43614049375,15.9406571,16.39613959375,16.0064344C16.478805493750002,16.0686569,16.44947389375,16.1468801,16.52502919375,16.2055454C16.641473793750002,16.285545300000003,16.75969599375,16.2144337,16.91614059375,16.271323199999998C17.101918193750002,16.3344336,17.35169699375,16.4962111,17.56947519375,16.595767000000002L17.56947519375,16.6615448C17.736586593749998,16.699767100000003,17.92236329375,16.622433700000002,18.09302999375,16.6615448C18.14636419375,16.6722126,18.34636399375,16.836656599999998,18.41836259375,16.8588781C18.82013959375,16.9602118,19.059251593749998,16.8277664,19.20325159375,17.1824331C19.31258559375,17.465098400000002,19.24947359375,17.919321099999998,19.00591959375,18.031322C18.28769679375,18.350433000000002,17.38991829375,17.6064329,16.983697893749998,17.3797674C16.805920593750002,17.2793226,16.63169769375,17.2899885,16.45925279375,17.182434100000002C16.17658709375,17.0082121,15.87791919375,16.595767000000002,15.22014189375,16.792212499999998C15.106364693749999,16.825100900000002,14.89302969375,17.1157675,14.762364393750001,17.182434100000002C14.60147569375,17.262435,14.48680879375,17.2348785,14.305474793750001,17.312212000000002C13.879696893750001,17.4935455,13.241475093750001,18.114879000000002,12.41303039375,17.8339891C12.38814159375,17.8277664,12.29747459375,17.6588774,12.284141493749999,17.6419897C12.063697093750001,17.361989,12.13836359375,17.335322400000003,12.21658639375,16.9877672C12.485031093749999,16.9877672,12.82814169375,16.9433231,13.00058599375,16.9210997C13.637030093749999,16.8313217,14.27880859375,16.6526556,14.501029993749999,16.4002104C14.72147369375,16.146876300000002,14.36236289375,15.7842102,14.04680779375,15.3575439C13.97480769375,15.262433099999999,13.99614099375,15.165544,13.91347499375,15.0962114C13.70014189375,14.910434200000001,13.41925379375,14.869544999999999,13.19525289375,14.7059894C13.150808793749999,14.670433,13.15525289375,14.6490998,13.11080889375,14.6437669C12.83614209375,14.6064334,12.940142193749999,14.1388779,13.45747519375,14.180655C13.76414199375,14.208210900000001,15.27169799375,15.4970994,15.35169699375,15.5522113C15.42725229375,15.607322700000001,15.56680779375,15.595767500000001,15.67702959375,15.5522113C15.75080729375,15.523767,15.79969649375,15.428656100000001,15.847695793749999,15.3824325C15.96147299375,15.2695436,16.13302949375,15.1193223,16.198806793750002,14.966432099999999C16.26813979375,14.7984328,16.198806793750002,14.4437652,16.198806793750002,14.4437652C16.12502909375,14.3939881,16.03791809375,14.158432000000001,15.87080719375,14.1184325C15.52858449375,14.029544399999999,14.83525089375,14.2322097,14.69747309375,14.1184325C14.55791809375,14.0037661,14.66547249375,13.6837664,14.760585293750001,13.5317659L15.21925209375,13.3353209C15.18991849375,13.3157654,15.206807093750001,13.272210600000001,15.13480709375,13.1646547C15.069029293749999,13.057098400000001,15.09214019375,13.058876,15.022807593749999,13.009098999999999C14.567695593749999,12.6837654,13.81125209375,13.0926547,13.26014089375,12.8793216C12.62636329375,12.6286545,12.73836279375,12.4028773,12.73836279375,11.5735435C12.73836279375,11.579766,12.71525189375,11.211766,12.73836279375,11.1824327C12.760585293750001,11.1486549,12.678807293750001,10.529099200000001,12.870807693749999,10.3308771C13.06102989375,10.1379883,13.325918693750001,10.214432500000001,13.52414079375,10.8553216C13.91080809375,10.8553216,14.44325259375,10.8917656,14.56591799375,10.9202104C14.68858479375,10.9522102,14.74102929375,11.1317658,14.63169579375,11.2473214C14.518806493749999,11.3610992,14.308140793749999,11.4277656,13.97836159375,11.5068772C13.898361193749999,11.5255439,13.69036099375,11.5628769,13.52413939375,11.572654700000001C13.48769519375,12.021543999999999,13.52413939375,12.2357659,13.650361493750001,12.2908769C13.77925109375,12.3406549,14.84325119375,12.2446551,14.958805993750001,11.8330986C15.06280519375,11.4437654,14.98458429375,10.7993209,14.958805993750001,10.3975434C14.92502739375,9.967321,14.73302789375,8.47043228,14.89125059375,8.1788765C14.921472093750001,8.12465439,14.99436189375,8.08376541,15.09125229375,8.044658661ZM10.77480699375,8.71843642C10.95258499375,8.66332549,10.99880669375,8.62865829,11.23969579375,8.82776946C11.48236249375,9.0268806,11.405029293750001,10.0837693,11.36858439375,10.523769399999999C11.44147349375,10.5575471,11.51702879375,10.7042139,11.56591799375,10.721103C11.72414019375,10.7726586,11.92680669375,10.6757698,12.090362593750001,10.721103C12.22366259375,10.7703438,12.33768009375,10.860997,12.41569589375,10.9797699C12.46725149375,11.0846589,12.489473793750001,11.2144363,12.41569589375,11.307769799999999C12.329153493749999,11.4037263,12.21583099375,11.471534,12.090362593750001,11.5024369C11.56591799375,11.6135483,11.32325149375,11.4988816,11.174807093750001,11.9602144C11.09480669375,12.207325,11.06280689375,12.6019921,11.174807093750001,12.809103499999999C11.20236279375,12.858881499999999,11.22991799375,12.902436699999999,11.36858439375,12.937992099999999C11.51702879375,12.9744372,11.78102879375,12.8579917,11.82814029375,12.8748813C11.86458449375,12.8864365,11.95791789375,13.0046587,11.95791789375,13.0046587C11.95791789375,13.0046587,11.97836229375,13.3175478,11.89391779375,13.459770200000001C11.76680679375,13.663325799999999,11.381917693750001,13.614436600000001,11.30547329375,13.9175477C11.25747299375,14.1104369,11.36502909375,14.4179916,11.36858439375,14.5051026C11.381028893749999,14.720213399999999,11.35436249375,15.1531024,11.35791779375,15.2011032C11.38547369375,15.4739914,11.36858439375,15.2864366,11.36858439375,15.2864366C11.48947309375,15.7753253,11.34102869375,17.1468811,11.174807093750001,17.3771029C11.174807093750001,17.3771029,11.01391839375,17.5824356,10.98636249375,17.6037693L10.84680719375,17.701547599999998C10.59347389375,17.7762146,10.20858469375,17.9273252,9.80502929375,17.8304367C9.46636277375,17.753992099999998,8.94458466375,17.126437199999998,9.15169602375,16.5264378C9.15614014375,16.500659,9.28236240375,16.3966599,9.28236240375,16.3966599C9.28236240375,16.3966599,9.46725160375,16.3762159,9.54458459375,16.3966599C9.72236249375,16.445549,9.96502909375,16.938882800000002,10.06458439375,16.9842148C10.14894869375,17.0168352,10.24244239375,17.0168352,10.326806693750001,16.9842148C10.797918093749999,16.8206587,10.60413979375,15.133548300000001,10.652140093749999,14.5042148C10.58280639375,14.4713259,10.50458459375,14.3211031,10.45569539375,14.3086596C9.66991739375,14.0455489,9.39258426375,15.2482147,8.56591796875,14.5042148C8.41480712575,14.369103899999999,8.54991760475,14.1913257,8.62991790375,14.046437300000001C8.78191757375,13.7726593,9.03169554375,13.878438,9.39258426375,13.7815475C9.44147342375,13.7691026,9.64413989375,13.5984359,9.67436219375,13.590436C9.85569539375,13.5122132,10.02102889375,13.609101800000001,10.19791789375,13.5264359C10.30369569375,13.4704361,10.62902899375,12.993103,10.652140093749999,12.873991499999999C10.74725129375,12.3771029,10.55969549375,11.4499917,10.19791789375,11.372657799999999C9.93391799375,11.316658,9.81125109375,11.4766579,9.67436219375,11.5024354C9.43702852375,11.550435799999999,9.01213991375,11.6535461,8.76058426375,11.568213C8.73125076375,11.5584352,8.62991790375,11.4348793,8.62991790375,11.4348793C8.62991790375,11.4348793,8.60680695375,11.0535462,8.69569550375,10.915768400000001L8.82547304375,10.8117683C8.87169495375,10.7922127,9.00680619375,10.7371018,9.08591765375,10.7211015C9.41925126375,10.6473236,9.78991779375,10.7788789,10.12947309375,10.7211015C10.24325109375,10.6971016,10.42102899375,10.5619905,10.522361793750001,10.5237679C10.471694993749999,10.174434699999999,10.36236189375,9.0251015,10.58547279375,8.82776797C10.64325019375,8.77621233,10.59525089375,8.76999056,10.77480699375,8.71843642Z" fill="#000000" fill-opacity="1" style="mix-blend-mode:passthrough"/><path d="M7.0931286,23.94661281875C7.3669063999999995,23.90127901875,9.997128700000001,28.94127821875,19.450462,19.70039061875C24.982908,14.29150081875,34.978464,17.80794679875,35.017576,24.94305751875C35.031797,27.43638921875,34.658463,27.711947218749998,34.694019,27.70039121875C32.566908,26.43994811875,30.056684,25.30305771875,25.451351,28.62039221875C15.8869066,34.98839221875,9.1126835,32.25328021875,6.58646125,27.32172621875C5.0175724,24.26128101875,7.0931277999999995,23.94661421875,7.0931286,23.94661281875Z" fill="#E60000" fill-opacity="1" style="mix-blend-mode:passthrough"/><path d="M25.629211381250002,25.9381504375C24.00787808125,24.9834842375,22.40165568125,25.4430389375,22.33232288125,25.4519271375C23.11632228125,22.9834823375,25.73765568125,22.1550383375,25.73765568125,22.1550383375C24.32343288125,21.5239272375,21.19898828125,22.1008162375,21.19898828125,22.1008162375C22.14298868125,19.8572602375,24.81854388125,19.3434829375,24.81854388125,19.3434829375C22.46387788125,18.5301498375,20.22032165125,19.1292603375,20.06298828125,19.1274826375C26.758988881249998,14.0439269375,34.65943128125,18.2208160375,35.08876528125,24.3159270375C35.30209828125,27.3461489375,34.51276428125,28.4892609375,34.54832028125,28.4777039375C30.96965528125,26.651038137500002,27.81854388125,27.2634829375,23.35898588125,29.883925937500003C23.34031988125,26.820816037500002,25.62920858125,25.9381504375,25.629211381250002,25.9381504375C25.60254238125,25.8039274375,25.62920858125,25.9381504375,25.629211381250002,25.9381504375Z" fill="#000000" fill-opacity="1" style="mix-blend-mode:passthrough"/></svg>