<svg xmlns="http://www.w3.org/2000/svg" xmlns:xlink="http://www.w3.org/1999/xlink" fill="none" version="1.1" width="40" height="40" viewBox="0 0 40 40"><g><g><rect x="6" y="9" width="29" height="24" rx="0" fill="#FFFFFF" fill-opacity="1"/></g><g><path d="M5.33333,0L34.6667,0C37.6122,0,40,2.38778,40,5.33333L40,34.6667C40,37.6122,37.6122,40,34.6667,40L5.33333,40C2.38778,40,0,37.6122,0,34.6667L0,5.33333C0,2.38778,2.38778,0,5.33333,0ZM23.6949,29.7782C23.6949,29.7782,32.3507,32.2491,33.0598,25.5962C33.7664,18.9413,32.8807,14.6998,32.8807,14.6998C32.8807,14.6998,32.1007,8.55933,18.6567,12.366C19.2264,11.3667,19.5089,10.7118,19.5089,10.7118L16.1489,9.77311C16.1489,9.77311,14.7951,14.1878,12.3811,16.25C12.3811,16.25,14.7167,17.5958,14.692,17.5584C15.3263,16.9226,15.9245,16.2518,16.4838,15.5491C16.9998,15.3214,17.519,15.1011,18.0413,14.8882C17.4231,16.0084,16.418,17.68,15.4133,18.7364L16.8278,19.9736C16.8278,19.9736,17.7884,19.0473,18.8433,17.9284L20.0467,17.9284L20.0467,19.9916L15.36,19.9916L15.36,21.6391L20.0467,21.6391L20.0467,25.5922C19.9864,25.59,19.9249,25.59,19.8675,25.5822C19.3522,25.5591,18.5424,25.4729,18.2322,24.9769C17.9486,24.5284,18.0286,23.8014,18.0974,23.1765C18.1213,22.9592,18.1439,22.7543,18.1493,22.5778L14.9198,22.5778L14.8022,22.6393C14.8022,22.6393,13.624,27.9387,18.22,27.8211C22.5187,27.9369,24.9853,26.6253,26.1675,25.7171L26.6398,27.4704L29.2929,26.3676L27.5015,21.9698L25.3431,22.6396L25.748,24.1482C25.1938,24.5591,24.5538,24.868,23.8722,25.0969L23.8722,21.6391L28.4391,21.6391L28.4391,19.9916L23.872,19.9916L23.872,17.9287L28.4589,17.9287L28.4589,16.2811L20.3109,16.2811C20.8964,15.5656,21.3573,14.9142,21.482,14.4953L20.0631,14.1122C26.1529,11.9338,29.5469,12.3053,29.5158,15.8804L29.5158,25.2993C29.5158,25.2993,29.8778,28.5404,26.1678,28.3047L24.1642,27.8729L23.6949,29.7782ZM13.6875,12.2927C13.6875,11.1087,12.6149,10.1427,11.2895,10.1427C9.96643,10.1427,8.89377,11.1089,8.89377,12.2927C8.89377,13.4762,9.96621,14.4409,11.2895,14.4409C12.6149,14.4409,13.6875,13.476,13.6875,12.2927ZM13.2895,23.0509C12.6571,25.0104,12.8142,24.2838,10.3033,29.7382L6.66666,27.4704C6.66666,27.4704,10.7222,23.7791,11.5573,22.0933C12.438,20.3136,10.5833,19.3658,10.5833,19.3658L7.79821,17.6293L9.30266,15.3093C11.4044,16.8691,11.5618,17.0002,12.9804,18.4202C14.076,19.5202,13.938,21.048,13.2895,23.0509Z" fill-rule="evenodd" fill="#FF5000" fill-opacity="1"/></g></g></svg>