<svg xmlns="http://www.w3.org/2000/svg" xmlns:xlink="http://www.w3.org/1999/xlink" fill="none" version="1.1" width="40" height="40" viewBox="0 0 40 40"><defs><clipPath id="master_svg0_1_0852"><rect x="0" y="0" width="40" height="40" rx="0"/></clipPath></defs><g clip-path="url(#master_svg0_1_0852)"><g><path d="M34.1406,40L5.85938,40C2.625,40,0,37.375,0,34.1406L0,5.85938C0,2.625,2.625,0,5.85938,0L34.1406,0C37.375,0,40,2.625,40,5.85938L40,34.1406C40,37.375,37.375,40,34.1406,40Z" fill="#FF6146" fill-opacity="1" style="mix-blend-mode:passthrough"/></g><g><path d="M35.68360625,16.58985625C35.68360625,18.60545625,34.015606250000005,20.30465625,31.76560625,20.773456250000002C31.36330625,20.859356249999998,30.94140625,20.90235625,30.50780625,20.90235625C29.92970625,20.90235625,29.37500625,20.824256249999998,28.85550625,20.67575625C27.25390625,20.22265625,26.00390625,19.14065625,25.53520625,17.78125625C25.49220625,17.65625625,25.45700625,17.52735625,25.42970625,17.398456250000002C25.39840625,17.48825625,25.36330625,17.58205625,25.32420625,17.671856249999998C24.53910625,19.48825625,22.44920625,20.79295625,20.00390625,20.79295625C17.55860625,20.79295625,15.46870625,19.48825625,14.67970625,17.671856249999998C14.64450625,17.585956250000002,14.60940625,17.496056250000002,14.57810625,17.40625625C14.55080625,17.53125625,14.51560625,17.65625625,14.47260625,17.78125625C14.00781625,19.15235625,12.74609625,20.24215625,11.13671625,20.69535625C10.62109625,20.83985625,10.06640625,20.91795625,9.49218625,20.91795625C9.05468625,20.91795625,8.63671625,20.87495625,8.23046625,20.78905625C5.98437625,20.31245625,4.31640625,18.61715625,4.31640625,16.60155625C4.31640625,16.074256249999998,4.42968725,15.57035625,4.64062525,15.10155625L4.64843725,15.08593625L7.85937625,7.88671625C8.593746249999999,6.24218625,10.24218625,5.09765625,12.156246249999999,5.09765625L27.83980625,5.09765625C29.75390625,5.09765625,31.40230625,6.24218625,32.13280625,7.882816249999999C32.14840625,7.91015625,32.16020625,7.937496250000001,32.17190625,7.968746250000001L35.355506250000005,15.08203625C35.56640625,15.55075625,35.68360625,16.058556250000002,35.68360625,16.58985625ZM32.51170625,25.17575625C32.51170625,25.20705625,32.51170625,25.24215625,32.50390625,25.27345625C32.50390625,25.29685625,32.50390625,25.32035625,32.49610625,25.34375625L32.49610625,25.35545625C31.92970625,30.70705625,26.55080625,34.90235625,19.99610625,34.90235625C13.44140625,34.90235625,8.06249625,30.70705625,7.49609625,25.35545625L7.49609625,25.34375625C7.48828625,25.32035625,7.48828625,25.29685625,7.48828625,25.27345625C7.48046625,25.24215625,7.48046625,25.20705625,7.48046625,25.17575625C7.48046625,24.48435625,8.04296625,23.92185625,8.73437625,23.92185625C9.374996249999999,23.92185625,9.90234625,24.40235625,9.98046625,25.01955625C9.98437625,25.03905625,9.98437625,25.05855625,9.98828625,25.08205625C10.41796625,29.16795625,14.74220625,32.39065625,20.00000625,32.39065625C25.25780625,32.39065625,29.58200625,29.16795625,30.00390625,25.08205625C30.00390625,25.05855625,30.00390625,25.03905625,30.01170625,25.01955625C30.08980625,24.40235625,30.61720625,23.92185625,31.25780625,23.92185625C31.94920625,23.92185625,32.51170625,24.48435625,32.51170625,25.17575625Z" fill="#FFFFFF" fill-opacity="1" style="mix-blend-mode:passthrough"/></g></g></svg>