<svg xmlns="http://www.w3.org/2000/svg" xmlns:xlink="http://www.w3.org/1999/xlink" fill="none" version="1.1" width="40" height="40" viewBox="0 0 40 40"><defs><clipPath id="master_svg0_1_0869"><rect x="0" y="0" width="40" height="40" rx="0"/></clipPath></defs><g clip-path="url(#master_svg0_1_0869)"><g><rect x="6" y="9" width="29" height="24" rx="0" fill="#FFFFFF" fill-opacity="1"/></g><g><path d="M28.37958701171875,17.8692108175C28.11778601171875,17.8662109375,27.85638701171875,17.8692108175,27.59818701171875,17.8662109375C27.50558781171875,17.8662109375,27.47918701171875,17.9076110375,27.47918701171875,17.9924099375C27.48218689171875,18.1920109375,27.48218689171875,18.3882099375,27.48218689171875,18.5874099375L27.48218689171875,18.5878099375C27.48498840171875,18.7784099375,27.48218689171875,18.9688109375,27.48498840171875,19.156610937499998C27.48498840171875,19.3092109375,27.51158751171875,19.3390109375,27.65918901171875,19.3390109375C27.93819001171875,19.3420109375,28.21678801171875,19.3390109375,28.49578701171875,19.3420109375C28.60038701171875,19.3420109375,28.64138701171875,19.2920109375,28.63838701171875,19.1952109375C28.63498701171875,18.8372099375,28.63498701171875,18.4796099375,28.63218701171875,18.1216109375C28.626287011718752,17.9846569375,28.51654701171875,17.8750045775,28.37958701171875,17.8692108175Z" fill="#FF2E4D" fill-opacity="1" style="mix-blend-mode:passthrough"/></g><g><path d="M34.6667,0L5.33333,0C2.38778,0,0,2.38778,0,5.33333L0,34.6667C0,37.6122,2.38778,40,5.33333,40L34.6667,40C37.6122,40,40,37.6122,40,34.6667L40,5.33333C40,2.38778,37.6122,0,34.6667,0ZM8.66267,19.728C8.63067,20.1878,8.60133,20.6504,8.54956,21.1102C8.45889,21.9084,8.27867,22.6842,7.914,23.4047C7.82022,23.5838,7.69111,23.7431,7.55889,23.9453C7.47844,23.7758,7.41067,23.6424,7.34933,23.5056C7.13255,23.0212,6.91855,22.5355,6.70733,22.0487C6.68444,21.9964,6.66844,21.9218,6.69133,21.876C6.83,21.5796,6.83956,21.2631,6.85867,20.9469C6.88489,20.5493,6.91733,20.1551,6.94622,19.7578C6.96867,19.4538,6.98133,19.1511,7.00689,18.848C7.03622,18.4962,7.07178,18.1442,7.10067,17.7956C7.10711,17.7102,7.146,17.6844,7.22333,17.6844C7.70444,17.6844,8.18156,17.6844,8.66267,17.6813C8.76556,17.6813,8.79489,17.724,8.78844,17.8216C8.74644,18.4567,8.70756,19.0924,8.66267,19.728ZM11.7569,23.5182C11.7249,23.9289,11.534,24.2776,11.2113,24.5382C10.9756,24.7271,10.7016,24.8056,10.4013,24.8022C10.1464,24.8022,9.89489,24.7989,9.64,24.8022C9.55311,24.8022,9.498,24.776,9.46245,24.6913C9.31422,24.3591,9.16267,24.0262,9.01445,23.6942C8.99156,23.6451,8.98511,23.5929,8.96533,23.5442C8.89444,23.3651,8.89756,23.3582,9.09445,23.3549L9.698,23.3549C9.95622,23.3549,10.066,23.2478,10.0691,22.9831C10.0722,22.7847,10.0722,22.586,10.0722,22.3869L10.0722,19.2289C10.0787,19.2358,10.0818,19.2358,10.0851,19.2358L10.0851,15.5138C10.0851,15.3278,10.0916,15.3213,10.2756,15.3213L11.5436,15.3213C11.7664,15.3213,11.7696,15.3278,11.7696,15.556C11.7696,16.736,11.7696,17.9156,11.7729,19.0924C11.7762,20.1287,11.7858,21.1653,11.7858,22.2013C11.7858,22.6416,11.7922,23.0809,11.7569,23.5182ZM15.0376,22.2636C14.8211,22.7653,14.5949,23.2607,14.3727,23.7591C14.3529,23.8084,14.3209,23.8571,14.2693,23.9511L14.2693,23.9516C14.1402,23.756,14.0049,23.5964,13.9173,23.4136C13.7947,23.1471,13.7207,22.8564,13.598,22.5891C13.4658,22.2991,13.4176,21.9867,13.356,21.68C13.3049,21.4187,13.2951,21.1482,13.276,20.8844C13.2238,20.2162,13.1789,19.5482,13.1267,18.8838C13.0986,18.5196,13.0686,18.1555,13.0367,17.7916C13.0302,17.7264,13.0467,17.6971,13.1209,17.6971C13.6211,17.6971,14.118,17.6907,14.6182,17.6876C14.7116,17.6876,14.7504,17.7296,14.7536,17.8176C14.7664,18.0196,14.776,18.2218,14.792,18.424C14.8049,18.5904,14.824,18.7562,14.8373,18.9193C14.8598,19.154,14.8827,19.3887,14.8987,19.62C14.9211,19.9198,14.9211,20.2198,14.9631,20.5158C15.0213,20.9691,14.976,21.4318,15.1338,21.8756C15.1725,21.9798,15.0918,22.1398,15.0376,22.2636ZM18.6956,23.2191C18.5698,23.5091,18.4342,23.7927,18.3053,24.0796C18.234,24.2422,18.1667,24.4049,18.0984,24.568C18.018,24.7638,17.9631,24.8027,17.7567,24.8027L16.7889,24.8027C16.4624,24.8027,16.1367,24.8129,15.8109,24.7993C15.6562,24.7931,15.5042,24.744,15.3496,24.7113C15.2718,24.6953,15.2558,24.6496,15.2882,24.5749C15.4846,24.1531,15.6792,23.7304,15.872,23.3069C15.9173,23.2093,15.9524,23.1049,16.0042,23.0071C16.0171,22.9804,16.0656,22.9516,16.0911,22.958C16.6302,23.0949,17.182,23.0784,17.7302,23.0722C18.0207,23.0689,18.3111,23.0689,18.6016,23.0722C18.7402,23.0724,18.7536,23.092,18.6956,23.2191ZM18.8622,22.27C18.8311,22.3043,18.7888,22.3263,18.7429,22.3322C18.1398,22.3356,17.5329,22.3387,16.9298,22.3289C16.7458,22.3251,16.5587,22.2831,16.42,22.1429C16.2744,21.9962,16.2036,21.8233,16.2776,21.6247C16.4112,21.2739,16.5499,20.9252,16.6936,20.5784C16.862,20.1811,17.0327,19.7833,17.2167,19.3529C17.1164,19.3464,17.0556,19.34,16.9976,19.34C16.82,19.3369,16.6424,19.3529,16.4649,19.33C16.2713,19.3076,16.0747,19.2847,15.9231,19.122C15.7744,18.962,15.7518,18.7729,15.81,18.5871C15.9033,18.2907,16.026,18.0038,16.1487,17.7169C16.2649,17.4498,16.3971,17.1891,16.5167,16.9251C16.6458,16.6413,16.7713,16.3578,16.8973,16.074C17.0098,15.824,17.1206,15.5731,17.2296,15.3216C17.2616,15.2431,17.3107,15.214,17.3976,15.214C17.8722,15.2171,18.3493,15.214,18.824,15.214C18.9818,15.214,18.9851,15.23,18.9238,15.374C18.6498,16.0091,18.3718,16.6416,18.1009,17.2771C18.0683,17.343,18.0506,17.4154,18.0491,17.4889C18.0587,17.6584,18.0944,17.6845,18.2689,17.6845C18.6236,17.6878,18.9787,17.6845,19.33,17.6845C19.4015,17.6845,19.4755,17.694,19.5464,17.6973C19.6467,17.7007,19.6596,17.7433,19.6173,17.8307C19.4209,18.2521,19.2272,18.6747,19.0362,19.0987C18.9044,19.3989,18.7787,19.7018,18.6496,20.002C18.5613,20.2022,18.472,20.402,18.3818,20.6013C18.2976,20.7838,18.3556,20.8753,18.562,20.8787C18.8233,20.8787,19.0847,20.882,19.3458,20.8787C19.4364,20.8787,19.4818,20.9049,19.4364,21.0025C19.2787,21.3607,19.1233,21.7222,18.9655,22.0811C18.9364,22.1462,18.9044,22.2145,18.8622,22.27ZM24.7136,24.8193L19.2736,24.8193C19.1989,24.8098,19.1222,24.8098,19.0156,24.8098L19.0156,24.8091C19.0538,24.6956,19.0769,24.6173,19.1089,24.5458C19.3127,24.0989,19.5189,23.6558,19.7189,23.2093C19.7642,23.108,19.8287,23.0825,19.9253,23.0825L21.1709,23.0825C21.3682,23.0825,21.3773,23.0725,21.3773,22.8767L21.3773,17.8151C21.3773,17.6424,21.374,17.6391,21.2002,17.6391C20.9353,17.6391,20.6678,17.6358,20.4031,17.6391C20.3029,17.6391,20.2611,17.6167,20.2611,17.5024C20.2676,17.0262,20.2645,16.5507,20.2645,16.0751C20.2645,15.9056,20.2678,15.9056,20.432,15.9056L23.6004,15.9056C23.7844,15.9056,23.9716,15.9089,24.1556,15.9056C24.2431,15.9056,24.2782,15.9413,24.2749,16.0293C24.2716,16.5247,24.2716,17.02,24.2716,17.5187C24.2716,17.6067,24.2396,17.6391,24.1489,17.6391C23.8622,17.6358,23.5784,17.6422,23.2904,17.6422C23.1909,17.6422,23.1456,17.6882,23.1456,17.7927C23.1489,18.5909,23.1518,19.386,23.1518,20.1847C23.1518,21.0907,23.1518,21.9967,23.1551,22.9058C23.1551,23.0689,23.1711,23.0887,23.3364,23.0887L24.7009,23.0887C24.8491,23.0887,24.8689,23.1047,24.8718,23.2544C24.8756,23.7307,24.8718,24.2062,24.8756,24.682C24.8751,24.8064,24.8073,24.8193,24.7136,24.8193ZM33.3376,23.3033C33.3311,24.014,32.8598,24.5713,32.1922,24.7309C32.0049,24.7767,31.8109,24.7896,31.6173,24.7964C31.3209,24.806,31.0207,24.7996,30.7238,24.7996C30.5398,24.7996,30.4884,24.7633,30.4204,24.5971C30.2756,24.252,30.124,23.9067,29.9751,23.5609L29.9464,23.4927C29.8947,23.3593,29.9111,23.3358,30.0529,23.3358C30.4624,23.3327,30.8756,23.3427,31.2851,23.3231C31.5304,23.3102,31.6338,23.1991,31.6404,22.948C31.65,22.4687,31.6276,21.9898,31.634,21.5109C31.6373,21.2727,31.3371,21.0151,31.1242,21.0022C31.0845,20.9985,31.0447,20.9964,31.0049,20.996C30.1918,20.996,29.3753,20.996,28.5627,20.9991C28.3335,20.9991,28.3173,21.0222,28.3173,21.2536L28.3264,24.6198C28.3264,24.7996,28.3231,24.8027,28.1424,24.8027L26.7873,24.8027C26.6131,24.8027,26.6007,24.7893,26.6007,24.6167L26.6007,22.8831C26.6033,22.8893,26.6064,22.8893,26.6098,22.8893L26.6098,21.11C26.6098,20.9893,26.5293,20.9824,26.4455,20.9824C26.0031,20.9862,25.5582,20.996,25.1164,20.996C24.816,20.996,24.8482,21.0316,24.8449,20.7187C24.8415,20.2889,24.8449,19.8549,24.8449,19.4251C24.8449,19.2689,24.8609,19.2491,25.0162,19.2458C25.4807,19.2427,25.9422,19.2458,26.4069,19.2427C26.5844,19.2427,26.594,19.2358,26.5971,19.0598C26.6004,18.63,26.5938,18.1998,26.5971,17.7693C26.5971,17.6616,26.5518,17.6291,26.4489,17.6291C26.1518,17.6324,25.8515,17.626,25.5547,17.6291C25.4613,17.6291,25.4289,17.5967,25.4289,17.5022C25.4329,17.0131,25.4329,16.5273,25.4262,16.0384C25.4262,15.9211,25.4711,15.8956,25.5744,15.8956C25.8484,15.8989,26.1233,15.8956,26.3973,15.8956C26.5811,15.8956,26.5909,15.8822,26.594,15.6898C26.594,15.5762,26.6004,15.4622,26.594,15.348C26.5909,15.2402,26.6393,15.2109,26.7391,15.2109C27.1331,15.2142,27.53,15.2142,27.9233,15.2142L28.1393,15.2142C28.3107,15.2142,28.3138,15.2142,28.3204,15.3902C28.3233,15.4947,28.3138,15.602,28.3167,15.7064C28.32,15.8531,28.3589,15.892,28.504,15.8958C28.7493,15.8991,28.9947,15.8991,29.2429,15.8991C29.8784,15.9022,30.4307,16.1204,30.8495,16.6062C31.082,16.8764,31.2271,17.206,31.2495,17.5676C31.2724,17.9356,31.2564,18.3071,31.2629,18.6756C31.2629,18.8127,31.2724,18.9529,31.2789,19.0893C31.2851,19.2264,31.3178,19.262,31.4564,19.2589C31.7382,19.2489,32.019,19.2955,32.2824,19.396C32.8471,19.6147,33.1953,20.0118,33.3084,20.6118C33.3304,20.731,33.3412,20.8521,33.3404,20.9733C33.344,21.7498,33.3433,22.5264,33.3376,23.3033ZM32.9402,17.4667C32.6822,17.6362,32.4113,17.6298,32.098,17.6267C32.0009,17.6267,31.8722,17.6298,31.7464,17.6233C31.7142,17.6202,31.6593,17.5807,31.6558,17.5544C31.6269,17.1704,31.5789,16.7822,31.7145,16.4107C31.834,16.0818,32.1305,15.8891,32.4791,15.8829C32.8661,15.8801,33.2082,16.1339,33.3178,16.5051C33.418,16.864,33.2502,17.2613,32.9402,17.4667Z" fill="#FF2E4D" fill-opacity="1" style="mix-blend-mode:passthrough"/></g></g></svg>