<svg xmlns="http://www.w3.org/2000/svg" xmlns:xlink="http://www.w3.org/1999/xlink" fill="none" version="1.1" width="40" height="40" viewBox="0 0 40 40"><defs><clipPath id="master_svg0_257_36531"><rect x="7" y="7" width="26" height="26" rx="0"/></clipPath></defs><rect x="0" y="0" width="40" height="40" rx="6" fill="#FFFFFF" fill-opacity="1"/><rect x="0.5" y="0.5" width="39" height="39" rx="5.5" fill-opacity="0" stroke-opacity="1" stroke="#E5E5E5" fill="none" stroke-width="1"/><g clip-path="url(#master_svg0_257_36531)"><path d="M7.41650390625,20.78298553125L7.41650390625,20.015109531249998C7.41650390625,13.10423133125,13.04759070625,7.47314453125,19.958469906250002,7.47314453125C26.86935090625,7.47314453125,32.50043690625,13.10423133125,32.50043690625,20.015109531249998C32.50043690625,26.92599153125,26.86935090625,32.55707753125,19.958469906250002,32.55707753125L19.446552906249998,32.55707753125C17.91080190625,32.49308753125,16.69499870625,31.40526353125,16.37505050625,29.99749153125C15.79914380625,26.73402253125,13.23955920625,24.17443653125,9.91209940625,23.59852753125C8.56831730625,23.27858053125,7.48049354525,22.12676753125,7.416503968238828,20.655005531249998L7.416503968238828,20.463036531249998" fill="#FE163E" fill-opacity="1" style="mix-blend-mode:passthrough"/><path d="M19.062661925,24.750561668750002C21.302298525,24.23864456875,23.285976425,23.022841468750002,24.821728725,21.42310096875C25.589604424999997,20.65522626875,25.589604424999997,19.31144336875,24.821728725,18.54356816875C23.285977325,16.94382796875,21.302299525,15.79201399875,19.062662825,15.21610805375C17.974839225,14.96014973875,16.887015585,15.60004603875,16.567067925,16.62387926875C16.247120275,17.64771246875,16.119140625,18.79952646875,16.119140625,19.95133926875C16.119140625,21.10315226875,16.311109615,22.190976168749998,16.567067925,23.27879996875C16.887015585,24.36662386875,17.974839225,25.00652126875,19.062661925,24.750561668750002Z" fill="#FFFFFF" fill-opacity="1" style="mix-blend-mode:passthrough"/></g></svg>