<svg xmlns="http://www.w3.org/2000/svg" xmlns:xlink="http://www.w3.org/1999/xlink" fill="none" version="1.1" width="40" height="40" viewBox="0 0 40 40"><rect x="0" y="0" width="40" height="40" rx="6" fill="#FFFFFF" fill-opacity="1"/><rect x="0.5" y="0.5" width="39" height="39" rx="5.5" fill-opacity="0" stroke-opacity="1" stroke="#E5E5E5" fill="none" stroke-width="1"/><path d="M16.68875315534668,19.743083C15.36652855534668,19.74028,14.08352115534668,19.552592,12.88735475534668,18.958710699999997C11.98532795534668,18.510499,11.276592825346679,17.874598499999998,11.00766602534668,16.8577175C10.83393260134668,16.1850448,10.875074237346679,15.4748664,11.12532165534668,14.8267565C11.45027565534668,13.9415369,11.834056615346679,13.081531,12.19822935534668,12.2103188C12.29318365534668,11.9934583,12.43361615534668,11.7995272,12.61002335534668,11.6416497C12.69406355534668,11.566014299999999,12.78650685534668,11.49318,12.90136125534668,11.5351996C13.02742095534668,11.5800214,13.02181815534668,11.7032795,13.02181815534668,11.8153329C13.02181815534668,12.0226307,13.01341435534668,12.2299287,13.02181815534668,12.4400284C13.02181815534668,12.580094299999999,13.07224225534668,12.711757200000001,13.22631505534668,12.7565777C13.38318965534668,12.8041999,13.48123545534668,12.708955,13.56807685534668,12.5941005C13.69133515534668,12.4344249,13.75576545534668,12.2439351,13.82860065534668,12.0590477C13.99667955534668,11.6248419,14.17316265534668,11.1990409,14.42808365534668,10.8096565C14.55063415534668,10.5952137,14.73656205534668,10.4239652,14.960336255346679,10.319425C15.15642925534668,10.2353855,15.29369255534668,10.2970145,15.341315755346681,10.5183185C15.39734215534668,10.7760403,15.313302955346678,11.0225575,15.31610345534668,11.2774775C15.31610345534668,11.4455576,15.260077455346678,11.6416497,15.456169155346679,11.7424979C15.66066595534668,11.8461468,15.83995155534668,11.7481003,15.99962665534668,11.6108356C16.27135565534668,11.3727231,16.43663405534668,11.0561728,16.62432285534668,10.7592324C16.96048165534668,10.226981,17.33025595534668,9.72274226,17.82889075534668,9.33055657C18.06266065534668,9.12698215,18.35947175534668,9.01023636,18.669288155346678,9C18.97463325534668,9,19.08388615534668,9.12605952,19.05026915534668,9.42299989C19.02225585534668,9.70593381,18.91860675534668,9.96925801,18.82055995534668,10.2325828C18.72028065534668,10.4858239,18.64612765534668,10.748644800000001,18.59925605534668,11.0169542C18.57124325534668,11.199040199999999,18.56283855534668,11.3923314,18.75052645534668,11.5043845C18.92701145534668,11.6080337,19.10349465534668,11.549206,19.26597025534668,11.4539604C19.47887225534668,11.3250995,19.635745055346682,11.134609900000001,19.801024455346678,10.9553245C20.151189755346678,10.5743439,20.51536175534668,10.2073706,20.92715685534668,9.89082122C21.19276385534668,9.66942465,21.511299855346678,9.52077526,21.85159285534668,9.45941731C22.18775285534668,9.40899342,22.341825855346677,9.55466264,22.28299785534668,9.8880198C22.24063085534668,10.0748519,22.16263685534668,10.251763,22.05328985534668,10.4090662C21.84238785534668,10.7266345,21.67823185534668,11.0728705,21.56585885534668,11.4371531C21.523837855346677,11.588424700000001,21.48181785534668,11.7452984,21.62188385534668,11.8685567C21.753546855346677,11.9806097,21.913221855346677,11.9610007,22.06449385534668,11.913378C22.30260685534668,11.8377423,22.484693855346677,11.6696627,22.68078485534668,11.5267947C23.14580585534668,11.1850331,23.63323585534668,10.8936952,24.199103855346678,10.750828C24.28623085534668,10.7271155,24.375287855346677,10.711178499999999,24.46522785534668,10.7032053C24.835004855346682,10.6751924,25.00588485534668,10.9105036,24.87422285534668,11.2550662C24.79668885534668,11.4398746,24.692906855346678,11.6125326,24.566075855346682,11.7677088C24.47363485534668,11.8881657,24.38399185534668,12.0170264,24.27754085534668,12.1262782C23.84893885534668,12.5688875,23.764897855346682,13.003092800000001,24.02542285534668,13.616582900000001C24.75376785534668,15.3085847,24.218713855346678,16.880127899999998,22.610752855346682,18.0258703C21.42579085534668,18.8662663,20.07555295534668,19.303272,18.66368485534668,19.563797C18.01307865534668,19.689827,17.35141615534668,19.749893999999998,16.68875315534668,19.743083Z" fill="#FE3D06" fill-opacity="1" style="mix-blend-mode:passthrough"/><path d="M23.507191,26.737932246374513C23.16263,26.737932246374513,22.818064,26.72952654637451,22.470699,26.740732146374512C22.29982,26.74633594637451,22.254999,26.71832184637451,22.313828,26.53343534637451C22.683601,25.368084946374513,23.042171,24.19993114637451,23.397942,23.031779546374512C23.498789,22.692819846374512,23.591232,22.35105804637451,23.605238,21.995289346374513C23.619247,21.59469934637451,23.451164,21.37899794637451,23.056177,21.32017014637451C22.395475,21.23692254637451,21.724909,21.35095794637451,21.128864,21.647924946374513C21.016813,21.69834784637451,21.000004,21.787990546374512,20.971992,21.886037846374514C20.498569,23.415561246374512,20.025145000000002,24.945086046374513,19.560125,26.48021074637451C19.504099,26.66789964637451,19.428461,26.749136946374513,19.209958,26.74353594637451C18.537641999999998,26.72392654637451,17.865321,26.73513124637451,17.193004000000002,26.74353594637451C17.041733,26.74353594637451,16.991308,26.726727046374513,17.044534,26.553044346374513C17.66923,24.547295546374514,18.285519999999998,22.53874654637451,18.899012,20.53019614637451C18.935428,20.41254049637451,18.997058000000003,20.353712796374513,19.111913,20.314494606374513C20.793002,19.724455776374512,22.569988,19.455532831374512,24.350389,19.521720059374513C24.686548,19.532925225374512,25.014305,19.605760176374513,25.333656,19.715011286374512C26.08161,19.96713030637451,26.386955,20.432150246374512,26.336531,21.21932224637451C26.308517,21.71515724637451,26.14044,22.17737504637451,25.99757,22.642394746374514C25.596981,23.93100454637451,25.196388,25.21961404637451,24.807007,26.508224446374513C24.75098,26.695914246374514,24.675344,26.75194024637451,24.487656,26.740735546374513C24.162703,26.726728446374512,23.834946,26.737934146374513,23.507191,26.737932246374513ZM31.675856,22.11014274637451C31.549797,22.53594444637451,31.42934,22.905719246374513,31.334093,23.281096446374512C31.294874,23.43236754637451,31.199627,23.421162346374512,31.090378,23.43236754637451C30.628143,23.452229746374513,30.170473,23.53227564637451,29.728935,23.670480746374512C29.355722,23.77896404637451,29.062693,24.068832846374512,28.950165,24.44084544637451C28.824104,24.861042546374513,28.97818,25.14117814637451,29.409582,25.21681304637451C30.143532,25.34847454637451,30.829857,25.197203146374513,31.476959,24.83583214637451C31.58061,24.77980614637451,31.60582,24.69016214637451,31.633835,24.59771964637451C31.891556,23.74891854637451,32.152080999999995,22.90011644637451,32.401402000000004,22.051316246374512C32.54987,21.547077846374513,32.401402000000004,21.27254724637451,31.88315,21.143686446374513C30.883076,20.894368246374512,29.885809,21.003620746374512,28.896942,21.233329246374513C28.6,21.30336244637451,28.308662,21.393005046374512,27.989311,21.47984574637451L28.457134,19.958725806374513C28.485144,19.85787793637451,28.549574,19.813057156374512,28.644823,19.79624941637451C30.26959,19.51051487737451,31.89436,19.34803725637451,33.535936,19.672991216374513L33.563953,19.678593816374512C34.810542999999996,19.964328316374512,35.241946999999996,20.701077146374512,34.872169,21.928057946374512C34.597639,22.838488146374512,34.311903,23.743317146374512,34.040176,24.653746146374512C33.990564,24.828235646374512,33.886532,24.98232034637451,33.743233000000004,25.093553546374512C32.687726999999995,25.931148546374512,31.42569,26.46828654637451,30.090305,26.64828724637451C29.235901,26.777148246374512,28.378696,26.83317514637451,27.527092,26.597863246374512C26.496206,26.312127546374512,26.098415,25.594988346374514,26.403761,24.569703546374512C26.655884,23.70689584637451,27.235756,23.14102794637451,28.028532,22.77965644637451C29.177073,22.255808846374514,30.409658,22.191378546374512,31.675856,22.10733794637451M13.1086721,21.88043404637451C12.5484066,21.35378444637451,11.881691499999999,21.115672546374512,11.1645517,21.00922174637451C10.6042871,20.92518184637451,10.0440226,20.92518184637451,9.4949613,21.090460046374513C9.3738093,21.12754194637451,9.2572718,21.178292146374513,9.1475978,21.241731246374513C8.9816134,21.327405046374512,8.882501099999999,21.503605346374513,8.8954787,21.689943046374513C8.9094851,21.888837346374512,9.0747633,21.953267846374512,9.231638,22.00369234637451C9.6798496,22.152162546374512,10.1504726,22.205387846374514,10.6126909,22.28382444637451C11.0048771,22.35385724637451,11.3970623,22.423890346374513,11.775240400000001,22.558353646374513C12.7136846,22.90011544637451,13.0330362,23.58643964637451,12.677268,24.519281346374513C12.3579168,25.35967974637451,11.696804,25.847109346374513,10.912433100000001,26.20007564637451C9.8563337,26.67630194637451,8.733001699999999,26.777148246374512,7.5900612,26.737928846374512C6.7643995,26.710666646374513,5.94794083,26.555691746374514,5.16971633,26.27851434637451C5.0072395089,26.222489346374513,4.968020909,26.158059146374512,5.024047431,25.98717684637451C5.20613362,25.421308946374513,5.36861047,24.84984064637451,5.54789519,24.25035574637451C6.1893988,24.762997146374513,6.8981338,25.073946946374512,7.685306300000001,25.20280744637451C8.2819886,25.300853246374512,8.8758698,25.30365374637451,9.469750399999999,25.171992346374513C9.6673527,25.13631484637451,9.8486891,25.03927664637451,9.9879956,24.894661446374514C10.2233067,24.636940046374512,10.1644793,24.37641624637451,9.8367233,24.26156234637451C9.388511699999999,24.104688646374512,8.9178889,24.059866946374513,8.4528692,23.98143054637451C8.0675209,23.927323846374513,7.6884432,23.83537004637451,7.3211338999999995,23.70690064637451C6.2734385,23.314713446374512,5.94008076,22.468712346374513,6.4415177,21.46023604637451C6.7636701,20.81313014637451,7.3071275,20.390130226374513,7.9430282000000005,20.10159361637451C9.758287,19.269599736374513,11.6127634,19.31722238637451,13.4868517,19.89149468637451C13.6325197,19.936315416374512,13.6801424,19.99514329637451,13.6269159,20.16042148637451C13.4476328,20.71788494637451,13.2907581,21.280952046374512,13.1114731,21.880435446374513" fill="#211915" fill-opacity="1" style="mix-blend-mode:passthrough"/><path d="M17.467500188739013,20.488208485700685C17.232189688739012,21.188539685700682,17.016488588739016,21.860857955700684,16.786779388739014,22.521970955700684C16.02481818873901,24.729414455700685,15.257254888739013,26.93405865570068,14.276791588739014,29.054661755700685C14.102381788739013,29.442274055700686,13.900158348739014,29.81676105570068,13.671705658739013,30.175190955700685C13.608350578739014,30.274998655700685,13.537159088739013,30.369608855700683,13.458804848739014,30.458124155700684C13.363559548739014,30.564574155700683,13.262712358739014,30.718646155700682,13.105837968739014,30.654216155700684C12.968573269739014,30.600991155700683,12.982579739739014,30.421705155700685,12.971374561739013,30.290043855700684C12.932155804739013,29.774600955700684,12.976977152739014,29.259157155700684,13.038606263739014,28.746514355700683C13.374765428739014,25.973204155700685,13.988255288739014,23.250315155700683,14.593342388739014,20.530227245700683C14.615752688739013,20.432181324700682,14.629759788739014,20.356544462700683,14.761421288739013,20.384558684200684C15.641037988739013,20.586254415700683,16.529057988739012,20.653485475700684,17.464700688739015,20.488207205700682" fill="#211915" fill-opacity="1" style="mix-blend-mode:passthrough"/><path d="M16.64947555054321,19.065133598303223C15.596177850543214,19.05392839830322,14.447633950543214,18.88864989830322,13.453163380543213,18.168709798303222C12.315824960543212,17.345120398303223,12.170156330543213,16.059311398303223,13.100196420543213,15.008815198303223C13.904176950543214,14.098384978303223,14.954673750543213,13.636165648303223,16.11442235054321,13.389649198303223C17.487072450543213,13.098311418303222,18.834509850543213,13.140331462303223,20.142728850543214,13.703397308303222C20.434066750543213,13.829456928303223,20.70859575054321,13.989132528303223,20.955112950543214,14.193628848303224C21.966392050543213,15.036828198303223,22.067239250543214,16.269410398303222,21.198830150543213,17.263880698303222C20.439670050543214,18.132290798303224,19.439597150543214,18.580502498303222,18.347079250543214,18.852231998303225C17.834436850543213,18.981092898303224,17.310588350543213,19.037119898303224,16.64947555054321,19.065133598303223Z" fill="#F8F8F8" fill-opacity="1" style="mix-blend-mode:passthrough"/><path d="M18.750484436376954,16.129371092163087C18.750484436376954,17.474007892163087,17.32180933637695,18.670172692163085,15.991178436376954,18.448868292163084C14.968695346376952,18.280789392163086,14.352402970376954,17.535636392163084,14.444847586576953,16.563575992163088C14.495270881376953,16.031323792163086,14.722178846376954,15.569105792163086,15.103158656376953,15.196529092163086C15.792284736376953,14.529813412163087,16.596264336376954,14.216064602163087,17.554318436376953,14.501800462163086C18.279123336376955,14.705789092163085,18.772218736376953,15.376721142163086,18.750484436376954,16.129371092163087Z" fill="#211915" fill-opacity="1" style="mix-blend-mode:passthrough"/><path d="M15.2656250398584,16.989334223347168C15.254419863258398,16.557929873347167,15.635399724858399,16.148937095847167,16.0527969648584,16.143334507869167C16.386154304858398,16.137731919547168,16.6410752048584,16.395453543347166,16.652280304858397,16.74842041334717C16.6634855048584,17.171420243347168,16.276903004858397,17.588817643347166,15.862306474858398,17.594420343347167C15.531749874858399,17.600022643347167,15.271226346458398,17.336698743347167,15.262823104858398,16.989334223347168" fill="#F7F7F6" fill-opacity="1" style="mix-blend-mode:passthrough"/><path d="M16.8343999795459,16.459873793614502C16.7027372565459,16.459873793614502,16.6299036061459,16.395443353614503,16.6243010178159,16.2833903136145C16.618698429745898,16.126516583614503,16.6999365985459,16.020066134614503,16.859612289545897,16.0032583697145C16.9772679195459,15.989251256614502,17.0501028595459,16.056483596614502,17.0557054295459,16.1741392336145C17.064109949545898,16.3366155636145,16.9716653195459,16.426258263614503,16.8315993395459,16.459873793614502" fill="#F4F3F0" fill-opacity="1" style="mix-blend-mode:passthrough"/></svg>