<svg xmlns="http://www.w3.org/2000/svg" xmlns:xlink="http://www.w3.org/1999/xlink" fill="none" version="1.1" width="40" height="40" viewBox="0 0 40 40"><defs><clipPath id="master_svg0_1_0888"><rect x="0" y="0" width="40" height="40" rx="0"/></clipPath></defs><g clip-path="url(#master_svg0_1_0888)"><g><path d="M35.215,39.98053125L4.74609,39.98053125C2.1359,39.98053125,0.000062361,37.84483125,0.000062361,35.23443125L0.000062361,4.76556125C0.000062361,2.15537125,2.1357,0.01953125,4.74609,0.01953125L35.2152,0.01953125C37.8254,0.01953125,39.961,2.15517125,39.961,4.76556125L39.961,35.23463125C39.961,37.84483125,37.8254,39.98053125,35.215,39.98053125Z" fill="#FF0000" fill-opacity="1" style="mix-blend-mode:passthrough"/></g><g><path d="M22.081448535156248,21.2110615234375C22.11574853515625,21.2110615234375,22.14334853515625,21.1869615234375,22.14334853515625,21.1559615234375C22.14334853515625,21.1250615234375,22.11574853515625,21.1009615234375,22.081448535156248,21.1009615234375C22.04714853515625,21.1009615234375,22.01964853515625,21.1250615234375,22.01964853515625,21.1559615234375C22.01964853515625,21.1869615234375,22.04694853515625,21.2110615234375,22.081448535156248,21.2110615234375ZM22.02974853515625,21.2352615234375L21.99184853515625,21.2936615234375L22.06414853515625,21.3383615234375Q22.112248535156247,21.3625615234375,22.08824853515625,21.4072615234375Q22.067748535156248,21.4519615234375,21.96094853515625,21.5449615234375L22.05734853515625,21.6033615234375C22.122748535156248,21.4623615234375,22.11914853515625,21.4794615234375,22.13654853515625,21.4313615234375C22.15374853515625,21.3796615234375,22.15714853515625,21.3383615234375,22.12974853515625,21.3108615234375C22.08844853515625,21.2799615234375,22.084848535156247,21.2765615234375,22.02974853515625,21.2352615234375ZM22.642648535156248,21.2178615234375Q22.62204853515625,21.0595615234375,22.27084853515625,21.1559615234375L22.29144853515625,21.1146615234375L22.20534853515625,21.0905615234375Q22.171048535156253,21.2040615234375,22.109048535156248,21.2591615234375Q22.17084853515625,21.2934615234375,22.16744853515625,21.2934615234375C22.18464853515625,21.2763615234375,22.201848535156252,21.2591615234375,22.215548535156252,21.2417615234375C22.229348535156248,21.2350615234375,22.24314853515625,21.2314615234375,22.25684853515625,21.2246615234375C22.239748535156252,21.2521615234375,22.215548535156252,21.2968615234375,22.18804853515625,21.3244615234375L22.22594853515625,21.3553615234375Q22.25004853515625,21.3277615234375,22.27764853515625,21.3036615234375L22.29814853515625,21.3036615234375L22.29814853515625,21.3553615234375L22.16744853515625,21.3553615234375L22.16744853515625,21.3828615234375L22.30174853515625,21.3828615234375L22.30174853515625,21.4998615234375L22.30174853515625,21.4964615234375C22.28654853515625,21.4960615234375,22.27254853515625,21.4883615234375,22.26384853515625,21.4758615234375C22.253448535156252,21.4587615234375,22.26044853515625,21.4345615234375,22.26044853515625,21.4070615234375L22.17784853515625,21.4070615234375L22.17444853515625,21.4174615234375Q22.14354853515625,21.5618615234375,22.26404853515625,21.5584615234375C22.374248535156248,21.5618615234375,22.439648535156252,21.5275615234375,22.47064853515625,21.5034615234375L22.48434853515625,21.5481615234375L22.54284853515625,21.5239615234375C22.546248535156252,21.5101615234375,22.54284853515625,21.4964615234375,22.54284853515625,21.4930615234375L22.50854853515625,21.4070615234375L22.453448535156248,21.4241615234375L22.463848535156252,21.4621615234375C22.45004853515625,21.4724615234375,22.41214853515625,21.4792615234375,22.41214853515625,21.4862615234375L22.41214853515625,21.3794615234375L22.518948535156248,21.3794615234375L22.518948535156248,21.3519615234375L22.41214853515625,21.3519615234375L22.41214853515625,21.3002615234375L22.518948535156248,21.3002615234375L22.518948535156248,21.2485615234375L22.32274853515625,21.2485615234375C22.33654853515625,21.2485615234375,22.346848535156248,21.2176615234375,22.35024853515625,21.2072615234375L22.30894853515625,21.2038615234375C22.46724853515625,21.1488615234375,22.54644853515625,21.1557615234375,22.54644853515625,21.2485615234375L22.54644853515625,21.4930615234375L22.55684853515625,21.5205615234375L22.54644853515625,21.5239615234375C22.543048535156252,21.5481615234375,22.52224853515625,21.5720615234375,22.46724853515625,21.5686615234375L22.422548535156253,21.5582615234375L22.40874853515625,21.6063615234375Q22.63244853515625,21.6718615234375,22.65324853515625,21.4996615234375Q22.666548535156252,21.3280615234375,22.642648535156248,21.2178615234375ZM30.70404853515625,14.7225615234375C30.51124853515625,14.7362615234375,30.31854853515625,14.7568615234375,30.12574853515625,14.7809615234375C28.50094853515625,14.9737615234375,26.87634853515625,15.1769615234375,25.25164853515625,15.3592615234375C24.28094853515625,15.4694615234375,23.68194853515625,14.9394615234375,23.73694853515625,14.0202915234375C23.78864853515625,13.1115115234375,23.88144853515625,12.2063315234375,23.94694853515625,11.2975515234375C24.03294853515625,10.1375415234375,24.14304853515625,8.977521523437499,24.18774853515625,7.8141115234375C24.25324853515625,6.1171015234374995,23.25504853515625,4.8952185234375,21.62684853515625,4.6164398234375C20.26034853515625,4.3823615234375,19.268948535156248,5.1706055234375,19.03844853515625,6.5441415234375C18.68384853515625,8.6610315234375,18.30184853515625,10.7779115234375,17.837148535156253,12.8708515234375C17.454948535156248,14.5746515234375,16.85949853515625,16.2233615234375,15.97845853515625,17.7447615234375C15.43466853515625,18.6844615234375,14.804678535156249,19.562361523437502,13.78933853515625,20.0338615234375C13.44170853515625,20.1957615234375,13.35570853515625,20.3849615234375,13.35570853515625,20.7395615234375C13.36607853515625,25.2177615234375,13.362488535156249,29.6993615234375,13.362488535156249,34.177561523437504L13.362488535156249,34.6525615234375C13.59317853515625,34.6249615234375,13.751418535156251,34.6078615234375,13.90986853515625,34.5836615234375C19.15554853515625,33.7816615234375,24.39814853515625,32.9796615234375,29.64384853515625,32.1810615234375C31.02754853515625,31.9710615234375,31.89164853515625,30.8867615234375,31.72974853515625,29.4962615234375C31.66434853515625,28.9282615234375,31.73314853515625,28.4016615234375,31.99474853515625,27.8921615234375C32.42844853515625,27.0384615234375,32.49044853515625,26.1470615234375,32.34934853515625,25.1935615234375C32.25974853515625,24.6048615234375,32.24604853515625,23.9337615234375,32.44574853515625,23.3898615234375C32.91734853515625,22.1092615234375,33.006948535156255,20.8770615234375,32.69704853515625,19.5345615234375C32.54214853515625,18.8531615234375,32.73834853515625,18.0612615234375,32.88974853515625,17.3418615234375C33.24774853515625,15.7139615234375,32.366548535156255,14.6193615234375,30.70404853515625,14.7225615234375ZM11.85484853515625,21.1318615234375L11.85484853515625,20.550161523437502C11.63453853515625,20.5844615234375,11.50382853515625,20.6018615234375,11.37291853515625,20.6259615234375C10.30928853515625,20.8257615234375,9.24226853515625,21.0182615234375,8.17863853515625,21.2318615234375C7.40755653515625,21.3866615234375,6.99447708515625,21.8961615234375,6.99447708515625,22.6809615234375C6.99108428515625,26.4845615234375,6.99108428515625,30.2916615234375,6.99786987515625,34.0951615234375C6.99786987515625,34.9935615234375,7.57618153515625,35.5201615234375,8.46080853515625,35.4100615234375C9.43483853515625,35.289461523437495,10.39869853515625,35.1037615234375,11.36932853515625,34.9901615234375C11.77901853515625,34.9420615234375,11.86143853515625,34.7630615234375,11.85803853515625,34.3809615234375C11.84806853515625,29.9677615234375,11.851458535156251,25.5481615234375,11.85484853515625,21.1318615234375Z" fill="#FFFFFF" fill-opacity="1" style="mix-blend-mode:passthrough"/></g></g></svg>