<svg xmlns="http://www.w3.org/2000/svg" xmlns:xlink="http://www.w3.org/1999/xlink" fill="none" version="1.1" width="40" height="40" viewBox="0 0 40 40"><rect x="0" y="0" width="40" height="40" rx="6" fill="#0078D1" fill-opacity="1"/><path d="M10.009031799999999,19.794837L14.2864509,19.794837C14.379354,18.36258,14.2864509,15.285161500000001,14.2864509,13.1058059L12.1961284,13.1058059C11.6116128,14.390967400000001,11.0658064,15.4283867,9.985806,15.854192300000001C9.4834238,16.0778971,8.92060673,16.126955000000002,8.38709652,15.9935484C8.8593542,16.051612900000002,10.4812896,10.187096799999999,11.2748382,9.1109676C11.8186316,8.43717033,12.6276331,8.031964168,13.4929032,8C13.3350496,9.1487862,13.0157676,10.2695277,12.5445156,11.3290324L20.464516,11.3290324L20.464516,13.1058059L16.1716137,13.1058059C16.1716137,15.2541928,16.2529039,18.331612,16.1716137,19.794837L21.138064,19.794837L21.11484,21.590967L16.0825806,21.563871C16.036129000000003,21.950966,15.993550800000001,22.895485,15.9470987,23.255482C15.9470987,23.255482,18.583227,26.011614,19.984517,27.800001L19.984517,30.896778C18.490324,28.907099,15.3780646,25.194839,15.3780646,25.194839C13.5006456,29.956131,10.883871599999999,31.670967,10.883871599999999,31.670967L8,31.670967C8,31.670967,13.701935299999999,25.423227,14.1354837,21.606453000000002L8.17419271,21.606453000000002L10.009031799999999,19.794837ZM22.074837000000002,11.2167735L32,11.2167735L32,29.166447L27.95871,29.185804L24.95484,31.651611L23.735483000000002,29.166451L22.074837000000002,29.166451L22.074837000000002,11.2167735ZM30.169031,12.9432263L23.917417999999998,12.9432263L23.917417999999998,27.056774L24.277418,27.056774L25.341932,29.274836L28.094189,27.056774L30.169027,27.056774L30.169031,12.9432263Z" fill="#FFFFFF" fill-opacity="1" style="mix-blend-mode:passthrough"/></svg>