<svg xmlns="http://www.w3.org/2000/svg" xmlns:xlink="http://www.w3.org/1999/xlink" fill="none" version="1.1" width="12" height="12" viewBox="0 0 12 12"><g><g><path d="M6,0C2.69333,0,0,2.69333,0,6C0,9.30667,2.69333,12,6,12C9.30667,12,12,9.30667,12,6C12,2.69333,9.30667,0,6,0ZM6.0001,3.86689C5.77343,3.86689,5.6001,3.69356,5.6001,3.46689C5.6001,3.24023,5.77343,3.06689,6.0001,3.06689C6.22676,3.06689,6.4001,3.24023,6.4001,3.46689C6.4001,3.69356,6.22676,3.86689,6.0001,3.86689ZM6.0001,8.93327C6.22676,8.93327,6.4001,8.7466,6.4001,8.53327L6.4001,4.6666C6.4001,4.43993,6.22676,4.2666,6.0001,4.2666C5.77343,4.2666,5.6001,4.45327,5.6001,4.6666L5.6001,8.53327C5.6001,8.75994,5.77343,8.93327,6.0001,8.93327Z" fill-rule="evenodd" fill="#2F8DF5" fill-opacity="1"/></g></g></svg>