<svg xmlns="http://www.w3.org/2000/svg" xmlns:xlink="http://www.w3.org/1999/xlink" fill="none" version="1.1" width="22" height="22" viewBox="0 0 22 22"><g><g><path d="M19,11Q19,11.19639,18.9904,11.39254Q18.9807,11.58869,18.9615,11.78414Q18.9422,11.97958,18.9134,12.17384Q18.8846,12.36811,18.8463,12.56072Q18.808,12.75334,18.760199999999998,12.94384Q18.7125,13.1343,18.6555,13.3223Q18.5985,13.5102,18.532400000000003,13.6951Q18.4662,13.88,18.391,14.0615Q18.3159,14.2429,18.2319,14.4204Q18.1479,14.598,18.0554,14.7712Q17.9628,14.9444,17.861800000000002,15.1128Q17.7609,15.2813,17.6518,15.4446Q17.5426,15.6079,17.4257,15.7656Q17.3087,15.9233,17.1841,16.0751Q17.0595,16.227,16.927599999999998,16.372500000000002Q16.7957,16.518,16.6569,16.6569Q16.518,16.7957,16.372500000000002,16.927599999999998Q16.227,17.0595,16.0751,17.1841Q15.9233,17.3087,15.7656,17.4257Q15.6079,17.5426,15.4446,17.6518Q15.2813,17.7609,15.1128,17.861800000000002Q14.9444,17.9628,14.7712,18.0554Q14.598,18.1479,14.4204,18.2319Q14.2429,18.3159,14.0615,18.391Q13.88,18.4662,13.6951,18.532400000000003Q13.5102,18.5985,13.3223,18.6555Q13.1343,18.7125,12.94384,18.760199999999998Q12.75334,18.808,12.56072,18.8463Q12.36811,18.8846,12.17384,18.9134Q11.97958,18.9422,11.78414,18.9615Q11.58869,18.9807,11.39254,18.9904Q11.19639,19,11,19Q10.803609999999999,19,10.60746,18.9904Q10.41131,18.9807,10.21586,18.9615Q10.02042,18.9422,9.82616,18.9134Q9.63189,18.8846,9.43928,18.8463Q9.24666,18.808,9.05616,18.760199999999998Q8.865649999999999,18.7125,8.67772,18.6555Q8.48979,18.5985,8.30488,18.532400000000003Q8.11997,18.4662,7.93853,18.391Q7.75709,18.3159,7.57956,18.2319Q7.40203,18.1479,7.22883,18.0554Q7.05563,17.9628,6.88718,17.861800000000002Q6.71873,17.7609,6.55544,17.6518Q6.39215,17.5426,6.2344100000000005,17.4257Q6.07666,17.3087,5.92485,17.1841Q5.77304,17.0595,5.62753,16.927599999999998Q5.48201,16.7957,5.34315,16.6569Q5.20428,16.518,5.07239,16.372500000000002Q4.9405,16.227,4.81592,16.0751Q4.69133,15.9233,4.57434,15.7656Q4.45735,15.6079,4.3482400000000005,15.4446Q4.23914,15.2813,4.13817,15.1128Q4.03721,14.9444,3.94463,14.7712Q3.8520529999999997,14.598,3.7680860000000003,14.4204Q3.684118,14.2429,3.608964,14.0615Q3.5338089999999998,13.88,3.467647,13.6951Q3.4014860000000002,13.5102,3.344477,13.3223Q3.2874689999999998,13.1343,3.23975,12.94384Q3.192031,12.75334,3.153718,12.56072Q3.115404,12.36811,3.0865879,12.17384Q3.0577717,11.97958,3.0385222,11.78414Q3.0192727,11.58869,3.00963635,11.39254Q3,11.19639,3,11Q3,10.803609999999999,3.00963635,10.60746Q3.0192727,10.41131,3.0385222,10.21586Q3.0577717,10.02042,3.0865879,9.82616Q3.115404,9.63189,3.153718,9.43928Q3.192031,9.24666,3.23975,9.05616Q3.2874689999999998,8.865649999999999,3.344477,8.67772Q3.4014860000000002,8.48979,3.467647,8.30488Q3.5338089999999998,8.11997,3.608964,7.93853Q3.684118,7.75709,3.7680860000000003,7.57956Q3.8520529999999997,7.40203,3.94463,7.22883Q4.03721,7.05563,4.13817,6.88718Q4.23914,6.71873,4.3482400000000005,6.55544Q4.45735,6.39215,4.57434,6.2344100000000005Q4.69133,6.07666,4.81592,5.92485Q4.9405,5.77304,5.07239,5.62753Q5.20428,5.48201,5.34315,5.34315Q5.48201,5.20428,5.62753,5.07239Q5.77304,4.9405,5.92485,4.81592Q6.07666,4.69133,6.2344100000000005,4.57434Q6.39215,4.45735,6.55544,4.3482400000000005Q6.71873,4.23914,6.88718,4.13817Q7.05563,4.03721,7.22883,3.94463Q7.40203,3.8520529999999997,7.57956,3.7680860000000003Q7.75709,3.684118,7.93853,3.608964Q8.11997,3.5338089999999998,8.30488,3.467647Q8.48979,3.4014860000000002,8.67772,3.344477Q8.865649999999999,3.2874689999999998,9.05616,3.23975Q9.24666,3.192031,9.43928,3.153718Q9.63189,3.115404,9.82616,3.0865879Q10.02042,3.0577717,10.21586,3.0385222Q10.41131,3.0192727,10.60746,3.00963635Q10.803609999999999,3,11,3Q11.19639,3,11.39254,3.00963635Q11.58869,3.0192727,11.78414,3.0385222Q11.97958,3.0577717,12.17384,3.0865879Q12.36811,3.115404,12.56072,3.153718Q12.75334,3.192031,12.94384,3.23975Q13.1343,3.2874689999999998,13.3223,3.344477Q13.5102,3.4014860000000002,13.6951,3.467647Q13.88,3.5338089999999998,14.0615,3.608964Q14.2429,3.684118,14.4204,3.7680860000000003Q14.598,3.8520529999999997,14.7712,3.94463Q14.9444,4.03721,15.1128,4.13817Q15.2813,4.23914,15.4446,4.3482400000000005Q15.6079,4.45735,15.7656,4.57434Q15.9233,4.69133,16.0751,4.81592Q16.227,4.9405,16.372500000000002,5.07239Q16.518,5.20428,16.6569,5.34315Q16.7957,5.48201,16.927599999999998,5.62753Q17.0595,5.77304,17.1841,5.92485Q17.3087,6.07666,17.4257,6.2344100000000005Q17.5426,6.39215,17.6518,6.55544Q17.7609,6.71873,17.861800000000002,6.88718Q17.9628,7.05563,18.0554,7.22883Q18.1479,7.40203,18.2319,7.57956Q18.3159,7.75709,18.391,7.93853Q18.4662,8.11997,18.532400000000003,8.30488Q18.5985,8.48979,18.6555,8.67772Q18.7125,8.865649999999999,18.760199999999998,9.05616Q18.808,9.24666,18.8463,9.43928Q18.8846,9.63189,18.9134,9.82616Q18.9422,10.02042,18.9615,10.21586Q18.9807,10.41131,18.9904,10.60746Q19,10.803609999999999,19,11Z" fill="#E43636" fill-opacity="1"/><path d="M11.0076,22Q11.27751,21.9998,11.5471,21.9864Q11.81668,21.973,12.08528,21.9463Q12.35388,21.9197,12.62085,21.8799Q12.88782,21.8402,13.1525,21.7873Q13.4172,21.7345,13.679,21.6688Q13.9408,21.603,14.199,21.5245Q14.4573,21.4461,14.7114,21.355Q14.9655,21.2639,15.2148,21.1605Q15.4641,21.0571,15.708,20.9415Q15.952,20.826,16.189999999999998,20.6987Q16.428,20.5713,16.659399999999998,20.4324Q16.890900000000002,20.2936,17.1152,20.1435Q17.3396,19.9935,17.5563,19.8326Q17.773,19.6717,17.9816,19.5004Q18.1902,19.3291,18.3901,19.1478Q18.5901,18.9664,18.780900000000003,18.7755Q18.9717,18.584600000000002,19.1529,18.3845Q19.3341,18.1845,19.5052,17.9758Q19.6764,17.7671,19.8371,17.5502Q19.9979,17.333399999999997,20.1477,17.1089Q20.2976,16.8844,20.4364,16.652900000000002Q20.5751,16.421300000000002,20.7023,16.1833Q20.8294,15.9452,20.9448,15.7012Q21.0602,15.4572,21.1634,15.2078Q21.2666,14.9584,21.3575,14.7042Q21.4484,14.4501,21.5268,14.1918Q21.6051,13.9335,21.6706,13.6716Q21.7362,13.4098,21.7888,13.1451Q21.8415,12.88033,21.881,12.61333Q21.9206,12.34633,21.9471,12.07772Q21.9735,11.8091,21.9868,11.53951Q22,11.26992,22,11Q22,10.72997,21.9867,10.46026Q21.9735,10.19055,21.947,9.92181Q21.9206,9.65308,21.8809,9.38596Q21.8413,9.11885,21.7886,8.854009999999999Q21.736,8.58916,21.6703,8.32722Q21.6047,8.06528,21.5263,7.80687Q21.448,7.54846,21.357,7.29421Q21.266,7.03996,21.1627,6.7904800000000005Q21.0593,6.541,20.9439,6.296889999999999Q20.8284,6.05279,20.7011,5.81464Q20.5738,5.57649,20.435,5.34487Q20.2962,5.11325,20.1462,4.88873Q19.9961,4.6642,19.8353,4.44731Q19.6744,4.23041,19.5031,4.02167Q19.3318,3.8129340000000003,19.1505,3.612852Q18.969099999999997,3.412769,18.7782,3.221825Q18.5872,3.030882,18.3871,2.849538Q18.1871,2.668193,17.9783,2.496885Q17.7696,2.325577,17.5527,2.164717Q17.3358,2.003858,17.1113,1.85383Q16.886699999999998,1.70381,16.655099999999997,1.56499Q16.4235,1.42616,16.1854,1.29887Q15.9472,1.17157,15.7031,1.05612Q15.459,0.9406599999999998,15.2095,0.8373300000000001Q14.96,0.7339899999999999,14.7058,0.6430199999999999Q14.4515,0.5520399999999999,14.1931,0.4736600000000002Q13.9347,0.39527,13.6728,0.32966000000000006Q13.4108,0.26404000000000005,13.146,0.21136Q12.88115,0.15867999999999993,12.61403,0.11906000000000017Q12.34692,0.07943999999999996,12.07819,0.052970000000000184Q11.80945,0.026499999999999968,11.53974,0.013250000000000206Q11.27003,0,11,0Q10.46261,0,9.92778,0.05237999999999987Q9.392949999999999,0.10476000000000019,8.86578,0.20902999999999983Q8.3386,0.31328999999999985,7.8241,0.4684400000000002Q7.3096,0.6236000000000002,6.81267,0.82816Q6.31574,1.03273,5.8411100000000005,1.28476Q5.366490000000001,1.53679,4.9187,1.83388Q4.4709,2.130974,4.05419,2.470301Q3.6374880000000003,2.809627,3.255843,3.187956Q3.238889,3.204784,3.221976,3.221696Q3.205256,3.238415,3.188625,3.255168Q2.810221,3.636823,2.470825,4.0535499999999995Q2.13143,4.47027,1.83428,4.9181Q1.53712,5.3659300000000005,1.28504,5.840590000000001Q1.03295,6.31525,0.8283499999999999,6.81223Q0.6237400000000002,7.3092,0.46855,7.82376Q0.31335999999999986,8.33831,0.2090700000000001,8.86554Q0.10478999999999994,9.39278,0.05238999999999994,9.92766Q0,10.46255,0,11Q0,11.5374,0.05237999999999987,12.07224Q0.10476999999999981,12.60707,0.20902999999999983,13.1343Q0.3132999999999999,13.6614,0.4684599999999999,14.176Q0.6236199999999998,14.6905,0.8281900000000002,15.1874Q1.03276,15.6843,1.2848,16.159Q1.53684,16.6336,1.83394,17.081400000000002Q2.131043,17.5292,2.47038,17.9459Q2.809717,18.3626,3.188058,18.744300000000003Q3.204925,18.7613,3.221975,18.7783Q3.23918,18.7955,3.25641,18.8126Q3.6380470000000003,19.1909,4.05473,19.5301Q4.47142,19.8694,4.91919,20.1664Q5.366960000000001,20.4635,5.84155,20.7155Q6.31614,20.9675,6.81304,21.172Q7.30993,21.3765,7.82438,21.5316Q8.338840000000001,21.6868,8.86597,21.791Q9.3931,21.8953,9.92788,21.9476Q10.46266,22,11,22L11.0076,22ZM11,19Q10.803609999999999,19,10.60746,18.9904Q10.41131,18.9807,10.21586,18.9615Q10.02042,18.9422,9.82616,18.9134Q9.63189,18.8846,9.43928,18.8463Q9.24666,18.808,9.05616,18.760199999999998Q8.865649999999999,18.7125,8.67772,18.6555Q8.48979,18.5985,8.30488,18.532400000000003Q8.11997,18.4662,7.93853,18.391Q7.75709,18.3159,7.57956,18.2319Q7.40203,18.1479,7.22883,18.0554Q7.05563,17.9628,6.88718,17.861800000000002Q6.71873,17.7609,6.55544,17.6518Q6.39215,17.5426,6.2344100000000005,17.4257Q6.07666,17.3087,5.92485,17.1841Q5.77304,17.0595,5.62753,16.927599999999998Q5.48201,16.7957,5.34315,16.6569Q5.20428,16.518,5.07239,16.372500000000002Q4.9405,16.227,4.81592,16.0751Q4.69133,15.9233,4.57434,15.7656Q4.45735,15.6079,4.3482400000000005,15.4446Q4.23914,15.2813,4.13817,15.1128Q4.03721,14.9444,3.94463,14.7712Q3.8520529999999997,14.598,3.7680860000000003,14.4204Q3.684118,14.2429,3.608964,14.0615Q3.5338089999999998,13.88,3.467647,13.6951Q3.4014860000000002,13.5102,3.344477,13.3223Q3.2874689999999998,13.1343,3.23975,12.94384Q3.192031,12.75334,3.153718,12.56072Q3.115404,12.36811,3.0865879,12.17384Q3.0577717,11.97958,3.0385222,11.78414Q3.0192727,11.58869,3.00963635,11.39254Q3,11.19639,3,11Q3,10.803609999999999,3.00963635,10.60746Q3.0192727,10.41131,3.0385222,10.21586Q3.0577717,10.02042,3.0865879,9.82616Q3.115404,9.63189,3.153718,9.43928Q3.192031,9.24666,3.23975,9.05616Q3.2874689999999998,8.865649999999999,3.344477,8.67772Q3.4014860000000002,8.48979,3.467647,8.30488Q3.5338089999999998,8.11997,3.608964,7.93853Q3.684118,7.75709,3.7680860000000003,7.57956Q3.8520529999999997,7.40203,3.94463,7.22883Q4.03721,7.05563,4.13817,6.88718Q4.23914,6.71873,4.3482400000000005,6.55544Q4.45735,6.39215,4.57434,6.2344100000000005Q4.69133,6.07666,4.81592,5.92485Q4.9405,5.77304,5.07239,5.62753Q5.20428,5.48201,5.34315,5.34315Q5.48201,5.20428,5.62753,5.07239Q5.77304,4.9405,5.92485,4.81592Q6.07666,4.69133,6.2344100000000005,4.57434Q6.39215,4.45735,6.55544,4.3482400000000005Q6.71873,4.23914,6.88718,4.13817Q7.05563,4.03721,7.22883,3.94463Q7.40203,3.8520529999999997,7.57956,3.7680860000000003Q7.75709,3.684118,7.93853,3.608964Q8.11997,3.5338089999999998,8.30488,3.467647Q8.48979,3.4014860000000002,8.67772,3.344477Q8.865649999999999,3.2874689999999998,9.05616,3.23975Q9.24666,3.192031,9.43928,3.153718Q9.63189,3.115404,9.82616,3.0865879Q10.02042,3.0577717,10.21586,3.0385222Q10.41131,3.0192727,10.60746,3.00963635Q10.803609999999999,3,11,3Q11.19639,3,11.39254,3.00963635Q11.58869,3.0192727,11.78414,3.0385222Q11.97958,3.0577717,12.17384,3.0865879Q12.36811,3.115404,12.56072,3.153718Q12.75334,3.192031,12.94384,3.23975Q13.1343,3.2874689999999998,13.3223,3.344477Q13.5102,3.4014860000000002,13.6951,3.467647Q13.88,3.5338089999999998,14.0615,3.608964Q14.2429,3.684118,14.4204,3.7680860000000003Q14.598,3.8520529999999997,14.7712,3.94463Q14.9444,4.03721,15.1128,4.13817Q15.2813,4.23914,15.4446,4.3482400000000005Q15.6079,4.45735,15.7656,4.57434Q15.9233,4.69133,16.0751,4.81592Q16.227,4.9405,16.372500000000002,5.07239Q16.518,5.20428,16.6569,5.34315Q16.7957,5.48201,16.927599999999998,5.62753Q17.0595,5.77304,17.1841,5.92485Q17.3087,6.07666,17.4257,6.2344100000000005Q17.5426,6.39215,17.6518,6.55544Q17.7609,6.71873,17.861800000000002,6.88718Q17.9628,7.05563,18.0554,7.22883Q18.1479,7.40203,18.2319,7.57956Q18.3159,7.75709,18.391,7.93853Q18.4662,8.11997,18.532400000000003,8.30488Q18.5985,8.48979,18.6555,8.67772Q18.7125,8.865649999999999,18.760199999999998,9.05616Q18.808,9.24666,18.8463,9.43928Q18.8846,9.63189,18.9134,9.82616Q18.9422,10.02042,18.9615,10.21586Q18.9807,10.41131,18.9904,10.60746Q19,10.803609999999999,19,11Q19,11.19639,18.9904,11.39254Q18.9807,11.58869,18.9615,11.78414Q18.9422,11.97958,18.9134,12.17384Q18.8846,12.36811,18.8463,12.56072Q18.808,12.75334,18.760199999999998,12.94384Q18.7125,13.1343,18.6555,13.3223Q18.5985,13.5102,18.532400000000003,13.6951Q18.4662,13.88,18.391,14.0615Q18.3159,14.2429,18.2319,14.4204Q18.1479,14.598,18.0554,14.7712Q17.9628,14.9444,17.861800000000002,15.1128Q17.7609,15.2813,17.6518,15.4446Q17.5426,15.6079,17.4257,15.7656Q17.3087,15.9233,17.1841,16.0751Q17.0595,16.227,16.927599999999998,16.372500000000002Q16.7957,16.518,16.6569,16.6569Q16.518,16.7957,16.372500000000002,16.927599999999998Q16.227,17.0595,16.0751,17.1841Q15.9233,17.3087,15.7656,17.4257Q15.6079,17.5426,15.4446,17.6518Q15.2813,17.7609,15.1128,17.861800000000002Q14.9444,17.9628,14.7712,18.0554Q14.598,18.1479,14.4204,18.2319Q14.2429,18.3159,14.0615,18.391Q13.88,18.4662,13.6951,18.532400000000003Q13.5102,18.5985,13.3223,18.6555Q13.1343,18.7125,12.94384,18.760199999999998Q12.75334,18.808,12.56072,18.8463Q12.36811,18.8846,12.17384,18.9134Q11.97958,18.9422,11.78414,18.9615Q11.58869,18.9807,11.39254,18.9904Q11.19639,19,11,19Z" fill-rule="evenodd" fill="#FBFBFB" fill-opacity="1"/></g><g><path d="M14.231856789703368,9.030792L14.232316789703368,9.03033Q14.337806789703368,8.924841,14.39489678970337,8.787013Q14.45198678970337,8.649184,14.45198678970337,8.5Q14.45198678970337,8.350816,14.39489678970337,8.212987Q14.337806789703368,8.075159,14.232316789703368,7.96967Q14.22888678970337,7.966237,14.225406789703369,7.9628499999999995Q14.120366789703368,7.860495,13.984506789703369,7.805247Q13.84864678970337,7.75,13.70198678970337,7.75Q13.552806789703368,7.75,13.414976789703369,7.80709Q13.27714678970337,7.864181,13.17165678970337,7.96967L13.17119678970337,7.9701319999999996L8.172118789703369,12.96921L8.17165678970337,12.96967Q8.06616778970337,13.07516,8.00907678970337,13.21299Q7.951986789703369,13.350819999999999,7.951986789703369,13.5Q7.951986789703369,13.649180000000001,8.00907678970337,13.78701Q8.06616778970337,13.92484,8.17165678970337,14.03033Q8.277145789703368,14.135819999999999,8.41497378970337,14.192910000000001Q8.55280278970337,14.25,8.70198678970337,14.25Q8.85117078970337,14.25,8.988999789703369,14.192910000000001Q9.12682778970337,14.135819999999999,9.232316789703368,14.03033L9.232778789703369,14.029869999999999L14.231856789703368,9.030792Z" fill-rule="evenodd" fill="#FFFFFF" fill-opacity="1"/></g><g><path d="M9.232470789703369,7.969824L9.232316789703368,7.96967Q9.12682778970337,7.864181,8.988999789703369,7.80709Q8.85117078970337,7.75,8.70198678970337,7.75Q8.55280278970337,7.75,8.41497378970337,7.80709Q8.277145789703368,7.864181,8.17165678970337,7.96967Q8.06616778970337,8.075159,8.00907678970337,8.212987Q7.951986789703369,8.350816,7.951986789703369,8.5Q7.951986789703369,8.649184,8.00907678970337,8.787013Q8.06616778970337,8.924841,8.17165678970337,9.03033L8.171810789703368,9.030484L13.171026789703369,14.0297L13.17165678970337,14.03033Q13.27714678970337,14.135819999999999,13.414976789703369,14.192910000000001Q13.552806789703368,14.25,13.70198678970337,14.25Q13.85116678970337,14.25,13.98899678970337,14.192910000000001Q14.126826789703369,14.135819999999999,14.232316789703368,14.03033Q14.337806789703368,13.92484,14.39489678970337,13.78701Q14.45198678970337,13.649180000000001,14.45198678970337,13.5Q14.45198678970337,13.350819999999999,14.39489678970337,13.21299Q14.337806789703368,13.07516,14.232316789703368,12.96967L14.23168678970337,12.96904L9.232470789703369,7.969824Z" fill-rule="evenodd" fill="#FFFFFF" fill-opacity="1"/></g></g></svg>