<svg xmlns="http://www.w3.org/2000/svg" xmlns:xlink="http://www.w3.org/1999/xlink" fill="none" version="1.1" width="22" height="22" viewBox="0 0 22 22"><g><g><g><g><ellipse cx="11" cy="11" rx="11" ry="11" fill="#FCFCFC" fill-opacity="1"/></g><g style="opacity:0.5;"><ellipse cx="11" cy="11" rx="8" ry="8" fill="#E5E5E5" fill-opacity="1"/></g></g><g><path d="" fill="#4181FF" fill-opacity="1"/><path d="M8,11.75L14,11.75Q14.0738683,11.75,14.1463175,11.73558891Q14.218766200000001,11.72117788,14.2870121,11.6929096Q14.3552575,11.66464132,14.416677,11.62360215Q14.4780965,11.58256298,14.5303297,11.53033006Q14.5825624,11.47809708,14.6236014,11.41667762Q14.6646404,11.35525817,14.6929088,11.28701252Q14.7211771,11.21876688,14.735588100000001,11.14631772Q14.749999500000001,11.073868543,14.75,11Q14.749999500000001,10.926131457,14.735588100000001,10.85368228Q14.7211771,10.78123312,14.6929088,10.71298748Q14.6646404,10.64474183,14.6236014,10.58332238Q14.5825624,10.52190292,14.5303297,10.46966994Q14.4780965,10.41743702,14.416677,10.37639785Q14.3552575,10.33535868,14.2870121,10.3070904Q14.218766200000001,10.27882212,14.146317,10.26441109Q14.0738683,10.25,14,10.25L8,10.25Q7.926131457,10.25,7.85368228,10.26441109Q7.78123312,10.27882212,7.71298748,10.3070904Q7.64474183,10.33535868,7.58332238,10.37639785Q7.52190292,10.41743702,7.46966994,10.46966994Q7.41743702,10.52190292,7.37639785,10.58332238Q7.33535868,10.64474183,7.3070904,10.71298748Q7.27882212,10.78123312,7.26441109,10.85368228Q7.25,10.926131457,7.25,11Q7.25,11.073868543,7.26441109,11.14631772Q7.27882212,11.21876688,7.3070904,11.28701252Q7.33535868,11.35525817,7.37639785,11.41667762Q7.41743702,11.47809708,7.46966994,11.53033006Q7.52190292,11.58256298,7.58332238,11.62360215Q7.64474183,11.66464132,7.71298748,11.6929096Q7.78123312,11.72117788,7.85368228,11.73558891Q7.926131457,11.75,8,11.75Z" fill-rule="evenodd" fill="#999999" fill-opacity="0.699999988079071"/></g></g></g></svg>