<svg xmlns="http://www.w3.org/2000/svg" xmlns:xlink="http://www.w3.org/1999/xlink" fill="none" version="1.1" width="50" height="49.7607421875" viewBox="0 0 50 49.7607421875"><path d="M0 8C4.90527396329193e-16 3.5817220013536524 3.5817220013536533 0 8 0L42.000003814697266 0C46.41828181334361 0 50.000003814697266 3.5817220013536533 50.000003814697266 8L50.000003814697266 41.760765075683594C50.000003814697266 46.17904307432994 46.41828181334361 49.760765075683594 42.000003814697266 49.760765075683594L8 49.760765075683594C3.5817220013536533 49.760765075683594 0 46.17904307432994 0 41.760765075683594Z" fill="#EBF0FF" fill-opacity="1"/><path d="M35.4,14L14.5999999,14C13.1916666,14,12,15.1916666,12,16.5999999L12,40L17.1999998,34.799999L35.4,34.799999C36.808332,34.799999,38,33.608334,38,32.200001L38,16.5999999C38,15.1916666,36.808332,14,35.4,14ZM25,31.766666C24.025,31.766666,23.266666,31.008333,23.266666,30.033333C23.266666,29.058332999999998,24.025,28.3,25,28.3C25.974999,28.3,26.733334,29.058332999999998,26.733334,30.033333C26.733334,31.008333,25.974999,31.766666,25,31.766666ZM25,26.891666C24.241667,26.891666,23.7,26.349999,23.7,25.591666L23.7,18.6583333C23.7,17.8999999,24.241667,17.358333299999998,25,17.358333299999998C25.758333,17.358333299999998,26.3,17.8999999,26.3,18.6583333L26.3,25.591666C26.3,26.349999,25.758333,26.891666,25,26.891666Z" fill="#678FFF" fill-opacity="1" style="mix-blend-mode:passthrough"/></svg>