<svg xmlns="http://www.w3.org/2000/svg" xmlns:xlink="http://www.w3.org/1999/xlink" fill="none" version="1.1" width="50" height="50" viewBox="0 0 50 50"><defs><clipPath id="master_svg0_530_31867"><rect x="10" y="10" width="30" height="30" rx="0"/></clipPath></defs><rect x="0" y="0" width="50" height="50" rx="8" fill="#EFF3FF" fill-opacity="1"/><g clip-path="url(#master_svg0_530_31867)"><path d="M37.948036,22.701802C37.948036,22.372249,37.896072000000004,22.16411,37.809465,21.9733162C37.705538000000004,21.7825232,37.497682999999995,21.5743847,37.047329000000005,21.5570393L37.012686,21.5570393C36.752869000000004,21.5570393,36.527691000000004,21.6264191,36.371801000000005,21.7825232C36.11198,22.025351999999998,36.094660000000005,22.389594000000002,36.094660000000005,22.719148L36.094660000000005,25.581055C36.094660000000005,26.899268,36.094660000000005,28.252167,36.111982,29.587725C36.111982,29.934624,36.042696,30.056038,35.765556000000004,30.194798C33.444503999999995,31.408937,31.106133,32.675117,28.819725,33.871914000000004C27.780448,34.426950000000005,26.70653,34.999331999999995,25.649932,35.554369C25.615289,35.571714,25.580647,35.606404999999995,25.528683,35.623751C25.511361,35.641096000000005,25.49404,35.641096000000005,25.476717999999998,35.65844L25.476717999999998,33.074049C25.476717999999998,30.593729,25.476717999999998,28.026682,25.459397,25.494329999999998C25.459397,25.164778,25.546003,25.026018,25.875107,24.852569000000003C29.425968,22.961975000000002,32.907545,21.1060715,36.146624,19.3542366L36.354481,19.2501669C36.700907,19.0940628,37.151258,18.8859239,37.116617000000005,18.2961974C37.081974,17.7411604,36.614301999999995,17.5503659,36.285196,17.4116073C36.198591,17.3769183,36.129305,17.3422279,36.06002,17.324883C35.332527,16.9779849,34.587711,16.6310868,33.877539,16.2841897L31.695059,15.2434955C30.049538,14.4629753,28.404015,13.6477649,26.793138,12.86724448L24.974401,12.017344881L24.922435999999998,12L24.177621000000002,12L24.108335,12.1040694C24.056372,12.17344902,23.987085999999998,12.20813879,23.848516,12.24282856C23.796553,12.260173439999999,23.744588999999998,12.27751833,23.675303,12.31220818C23.08638,12.58972663,22.497457,12.86724496,21.925853699999998,13.1447632C18.9985585,14.5323551,15.9846554,15.9719822,13.0053958,17.359573400000002C12.27790201,17.706471,11.983440218,18.1400933,12.00076159369,18.9206142C12.03540412,22.580387,12.03540412,26.309541,12.00076159369,29.969313C11.98344033,30.697802,12.26058075,31.148767,12.936110620000001,31.530354C16.7467918,33.681122,20.488188700000002,35.814544999999995,24.004407,37.826550999999995C24.194941999999998,37.947966,24.385476,38,24.59333,38C24.783865,38,24.99172,37.947966,25.216897,37.826550999999995C28.507938,36.074717,32.838259,33.7505,37.237864,31.408937C37.774823999999995,31.131422,38,30.767179,38,30.229486C37.948036,27.714475999999998,37.948036,25.164778,37.948036,22.701802ZM23.657983,32.640429L23.657983,35.623751C22.913168,35.207471999999996,22.185674,34.773849,21.475501100000002,34.357574C19.3969479,33.160776,17.4396429,32.016012,15.378410800000001,30.957973C14.113957599999999,30.316214,13.698246600000001,29.605072,13.7675316,28.234827C13.8714592,26.378923,13.854138,24.488329999999998,13.8368168,22.649771C13.8194956,21.8345604,13.8194956,21.0020065,13.8194956,20.1867952C13.8194956,20.1174154,13.8194956,20.0653811,13.8021742,20.013345700000002C13.8021742,19.9439669,13.784853,19.8745875,13.8021742,19.8225527C13.8194956,19.8398967,13.854138,19.8572426,13.8887806,19.8745875C13.9234229,19.8919315,13.9753869,19.9266219,14.0100293,19.9613109C15.4130533,20.7071428,16.8333983,21.4703169,18.2191,22.216148C19.881943200000002,23.100738,21.6140709,24.037362,23.328876,24.939297C23.606017,25.078055,23.692625,25.164780999999998,23.675303,25.424953000000002C23.657982,27.801203,23.657982,30.264177,23.657983,32.640429ZM24.731901999999998,23.569046C24.679937000000002,23.603735999999998,24.627974000000002,23.603735999999998,24.593331,23.603735999999998C24.524046,23.603735999999998,24.454762000000002,23.569046,24.350834,23.517013C21.1637192,21.7998676,17.941960299999998,20.082722699999998,14.8414519,18.417613C14.8760943,18.400268099999998,14.9107368,18.3829226,14.9627008,18.3655777C16.6255436,17.567711799999998,18.3057079,16.7698469,19.9339085,16.006671C21.336931200000002,15.3475657,22.774597,14.6537695,24.194941999999998,13.9773184C24.350834,13.9079388,24.472082,13.8559041,24.593331,13.8559041C24.679937000000002,13.8559041,24.766545,13.8732489,24.853151,13.9252836C27.295448999999998,15.104736299999999,29.772392,16.2841897,32.18005,17.4116082C32.872901999999996,17.7411613,33.583073,18.070714,34.275926999999996,18.4002671L34.293249,18.4176121L32.249336,19.5103407C29.789715,20.845898599999998,27.226165,22.216144999999997,24.731901999999998,23.569046Z" fill="#5D87FF" fill-opacity="1" style="mix-blend-mode:passthrough"/><path d="M20.0714493,27C19.7978873,27,19.5060878,26.876107,19.2872372,26.7345142C18.6124504,26.3628325,17.9376633,25.9911516,17.2811143,25.6194696C16.7157521,25.3185842,16.1321528,25.000001,15.5667907,24.6814167C14.983191345,24.3628324,14.946716417,23.93805397,15.037903499,23.63716853C15.11085336,23.35398293,15.34794062,23.035398662,15.94977766,23L16.0227275,23C16.2415771,23,16.4421895,23.10619508,16.6063268,23.21238922C16.624564499999998,23.23008808,16.6428018,23.23008808,16.6610395,23.24778788C17.8647137,23.92035425,19.0866251,24.5752215,20.2720609,25.2300889C20.4909105,25.3539829,20.7279983,25.4955757,20.873898,25.7079649C21.0015602,25.8849564,21.092747199999998,26.1681421,20.8374224,26.5575218C20.6368098,26.8407073,20.381484999999998,27,20.0714493,27Z" fill="#5D87FF" fill-opacity="1" style="mix-blend-mode:passthrough"/></g></svg>