<svg xmlns="http://www.w3.org/2000/svg" xmlns:xlink="http://www.w3.org/1999/xlink" fill="none" version="1.1" width="50" height="50" viewBox="0 0 50 50"><defs><clipPath id="master_svg0_530_31872"><rect x="10" y="10" width="30" height="30" rx="0"/></clipPath></defs><rect x="0" y="0" width="50" height="50" rx="8" fill="#EFF3FF" fill-opacity="1"/><g clip-path="url(#master_svg0_530_31872)"><path d="M19.849609375,14.2626953125L27.147460975,14.2626953125L27.147460975,15.7275391125L19.849609375,15.7275391125L19.849609375,14.2626953125Z" fill="#5D87FF" fill-opacity="1" style="mix-blend-mode:passthrough"/><path d="M35.975586125,24.6513673125C35.615234125,24.2910153125,35.222656125,23.9716797125,34.806640125,23.6992187125L34.806640125,16.0058594125C34.806640125,15.0449218725,34.024414125,14.2626953125,33.063476125,14.2626953125L31.141601125,14.2626953125L31.141601125,15.7275391125L33.063476125,15.7275391125C33.215820125,15.7275391125,33.341797125,15.8505859125,33.341797125,16.0058594125L33.341797125,19.1406250125L15.391601525,19.1406250125L15.391601525,16.0058594125C15.391601525,15.8535156125,15.514648425,15.7275391125,15.669921925,15.7275391125L17.855468725,15.7275391125L17.855468725,14.2626953125L15.666992225,14.2626953125C14.706054685,14.2626953125,13.923828125,15.0449218725,13.923828125,16.0058594125L13.923828125,31.8818363125C13.923828125,32.8427733125,14.706054685,33.6250003125,15.666992225,33.6250003125L24.453125125,33.6250003125C24.760742125,34.1376953125,25.135742125,34.6181643125,25.569336125,35.0546873125C26.958008125,36.4433593125,28.806640125,37.2080073125,30.769531125,37.2080073125C32.732422125,37.2080073125,34.581055125,36.4433593125,35.969726125,35.0546873125C37.358398125,33.6660153125,38.128906125,31.8173833125,38.128906125,29.8515623125C38.128906125,27.8886723125,37.364258125,26.0400393125,35.975586125,24.6513673125ZM15.666992225,32.1601563125C15.514648425,32.1601563125,15.388671925,32.0371093125,15.388671925,31.8818363125L15.388671925,20.6054687125L33.338867125,20.6054687125L33.338867125,22.9550781125C32.527344125,22.6533203125,31.660156125,22.4951172125,30.769531125,22.4951172125C28.803711125,22.4951172125,26.958008125,23.2597656125,25.569336125,24.6484373125C24.180664125,26.0371093125,23.416015625,27.8857423125,23.416015625,29.8486333125C23.416015625,30.6455073125,23.541992225,31.4218753125,23.782226525,32.1542973125L15.666992225,32.1542973125L15.666992225,32.1601563125ZM30.772461125,35.7431643125C28.958984125,35.7431643125,27.333008125,34.9199223125,26.251953125,33.6250003125C25.885742125,33.1855473125,25.581055125,32.6933593125,25.352539125,32.1601563125C25.050781125,31.4511723125,24.880859125,30.6718753125,24.880859125,29.8544923125C24.880859125,26.6054683125,27.523437125,23.9628906125,30.772461125,23.9628906125C31.692383125,23.9628906125,32.565430125,24.1738281125,33.341797125,24.5517573125C33.880859125,24.8154293125,34.375976125,25.1552733125,34.806640125,25.5625003125C35.949219125,26.6376953125,36.664062125,28.1640623125,36.664062125,29.8515623125C36.664062125,33.1005863125,34.021484125,35.7431643125,30.772461125,35.7431643125Z" fill="#5D87FF" fill-opacity="1" style="mix-blend-mode:passthrough"/><path d="M19.3525390675,16.711914025C19.7568359875,16.711914025,20.0849609875,16.383789025,20.0849609875,15.979492225L20.0849609875,13.632812505C20.0849609875,13.430664065,20.0029296875,13.246093745,19.8710937875,13.114257815C19.7392577875,12.982421875,19.5546874975,12.900390625,19.3525390675,12.900390625C18.9482421875,12.900390625,18.6201171875,13.228515625,18.6201171875,13.632812505L18.6201171875,15.976562525C18.6201171875,16.383789025,18.9482421875,16.711914025,19.3525390675,16.711914025ZM29.6474611875,16.711914025C30.0517581875,16.711914025,30.3798831875,16.383789025,30.3798831875,15.979492225L30.3798831875,13.632812505C30.3798831875,13.430664065,30.2978511875,13.246093745,30.1660151875,13.114257815C30.0341791875,12.982421875,29.8496091875,12.900390625,29.6474611875,12.900390625C29.2431641875,12.900390625,28.9150391875,13.228515625,28.9150391875,13.632812505L28.9150391875,15.976562525C28.9150391875,16.383789025,29.2402341875,16.711914025,29.6474611875,16.711914025ZM34.0273441875,28.662109625C33.7285151875,28.670898625,33.4648441875,28.867187625,33.3740231875,29.151367625C33.3125001875,29.347656625,33.2246091875,29.555663625,33.1103511875,29.675781625C32.8525391875,29.948242625,32.5068361875,30.103515625,32.1318361875,30.112304625C31.7568361875,30.121093625,31.4023441875,29.986328625,31.1298831875,29.728515625C30.8574221875,29.470702625,30.7021481875,29.124999625,30.6933591875,28.749999625C30.6845701875,28.374999625,30.8193361875,28.020507625,31.0771481875,27.748046625C31.2089841875,27.607421625,31.3671871875,27.499023625,31.5400391875,27.422851625C31.8125001875,27.305663625,31.9824221875,27.027343625,31.9736331875,26.731445625C31.9589841875,26.212890625,31.4228511875,25.875976625,30.9482421875,26.083984625C30.5996091875,26.236328625,30.2832031875,26.456054625,30.0136721875,26.740234625C29.4804691875,27.302734625,29.2021481875,28.043945625,29.2314451875,28.820312625C29.2490231875,29.318359625,29.3984371875,29.798828625,29.6591791875,30.217773625L27.8427733875,32.136718625C27.5644530875,32.429687625,27.5761718875,32.892578625,27.8720702875,33.170898625C28.1650390875,33.449218625,28.6279291875,33.437499625,28.9062501875,33.141601625L30.7226561875,31.225585625C31.1386721875,31.454101625,31.6074221875,31.574218625,32.0937501875,31.574218625L32.1728511875,31.574218625C32.9375001875,31.553710625,33.6494141875,31.234374625,34.1738281875,30.680663625C34.4111331875,30.428710625,34.5957031875,29.986328625,34.7246091875,29.576171625C34.8681641875,29.116210625,34.5107421875,28.647460625,34.0273441875,28.662109625Z" fill="#5D87FF" fill-opacity="1" style="mix-blend-mode:passthrough"/></g></svg>