<svg xmlns="http://www.w3.org/2000/svg" xmlns:xlink="http://www.w3.org/1999/xlink" fill="none" version="1.1" width="50" height="50" viewBox="0 0 50 50"><defs><clipPath id="master_svg0_530_31882"><rect x="9.75" y="9.75" width="30.5" height="30.5" rx="0"/></clipPath></defs><rect x="0" y="0" width="50" height="50" rx="8" fill="#FAE4E4" fill-opacity="1"/><g clip-path="url(#master_svg0_530_31882)"><path d="M19.8676567,18.896875404632567C19.2001572,18.896875404632567,18.559844,19.16125010463257,18.0887508,19.63187500463257L14.6973448,23.016250604632567C14.2262893,23.48601340463257,13.9613581,24.123803104632568,13.9609375,24.789062504632568L13.9609375,30.235936904632567C13.9619727,31.057557904632567,14.6290045,31.72269990463257,15.450624900000001,31.721404904632568L17.5037498,31.721404904632568C17.7774382,30.23752890463257,19.0717211,29.160735904632567,20.5806246,29.16156190463257C22.0895586,29.160466904632568,23.3840495,30.237073904632567,23.657968500000003,31.720936904632566L27.7642175,31.720936904632566C28.0381055,30.23724690463257,29.3323365,29.160693904632566,30.8410935,29.16156190463257C32.349849500000005,29.160693904632566,33.6440815,30.23724690463257,33.9179685,31.720936904632566L34.432188499999995,31.720936904632566C35.2536235,31.72223190463257,35.9205795,31.057374904632567,35.9218755,30.235936904632567L35.9218755,26.63921690463257L25.6468755,26.63921690463257C24.7702195,26.63973570463257,24.0590575,25.929624104632566,24.0582815,25.052967104632568L24.0582815,18.896875404632567L19.8676567,18.896875404632567ZM17.294219,18.835937504632568C17.9773617,18.154536244632567,18.9028292,17.77187538146973,19.8676567,17.77187490463257L24.6207815,17.77187490463257C24.9314425,17.77187538146973,25.1832825,18.023715014632568,25.1832815,18.33437538463257L25.1832815,25.05343820463257C25.1832815,25.30656340463257,25.3895325,25.514688504632566,25.6468755,25.514688504632566L36.4843755,25.514688504632566C36.7950345,25.514688504632566,37.0468755,25.76652810463257,37.0468755,26.077188004632568L37.0468755,30.236407904632568C37.0468755,31.679219904632568,35.8749995,32.84687790463257,34.432188499999995,32.84687790463257L33.4060935,32.84687790463257C33.095434499999996,32.84687790463257,32.8435935,32.595036904632565,32.8435935,32.28437790463257C32.8435935,31.18234590463257,31.9482805,30.28703490463257,30.8410935,30.28703490463257C29.7366965,30.285479904632567,28.8401455,31.17951190463257,28.8385925,32.283909904632566C28.8385945,32.594569904632564,28.5867535,32.846409904632566,28.2760925,32.846409904632566L23.1460935,32.846409904632566C22.835433000000002,32.846409904632566,22.583593399999998,32.594569904632564,22.583593399999998,32.283909904632566C22.583593399999998,31.182347904632568,21.688281099999998,30.28703490463257,20.5806246,30.28703490463257C19.4762268,30.285479904632567,18.5796757,31.17951190463257,18.578125,32.283909904632566C18.578125,32.594569904632564,18.3262854,32.846409904632566,18.015625,32.846409904632566L15.450624900000001,32.846409904632566C14.0078669,32.847704904632565,12.8372313976,31.679167904632568,12.8359375,30.236409904632566L12.8359375,24.789535504632568C12.8359375,23.825316404632567,13.21984386,22.900941804632566,13.9028125,22.219847704632567L17.294219,18.835937504632568L17.294219,18.835937504632568Z" fill="#F16E6E" fill-opacity="1" style="mix-blend-mode:passthrough"/><path d="M13.72627902,22.042828604632568L13.72623152,22.04287580463257Q12.5859375,23.180073304632568,12.5859375,24.789536004632566L12.58593711,30.23663390463257Q12.58700064,31.422255904632568,13.42611396,32.259864904632565Q14.265228,33.09747490463257,15.450624900000001,33.096409904632566L18.015625,33.096409904632566Q18.3521738,33.096409904632566,18.5901499,32.85843390463257Q18.828125,32.62045990463257,18.828125,32.28426090463257Q18.829143000000002,31.559516904632567,19.342334700000002,31.04776490463257Q19.8555274,30.536014904632566,20.5806251,30.53703490463257Q21.3074951,30.53703490463257,21.8208895,31.04934990463257Q22.333593399999998,31.56097590463257,22.333593399999998,32.283909904632566Q22.333593399999998,32.620457904632566,22.5715694,32.85843390463257Q22.8095455,33.096409904632566,23.1460935,33.096409904632566L28.2760925,33.096409904632566Q28.6126425,33.096409904632566,28.8506185,32.85843390463257Q29.0885965,32.62045690463257,29.0885925,32.28426090463257Q29.0896115,31.559516904632567,29.6028045,31.04776490463257Q30.1159975,30.536014904632566,30.8410935,30.53703490463257Q31.5676615,30.53703490463257,32.0809195,31.04937890463257Q32.5935935,31.56114190463257,32.5935935,32.28437790463257Q32.5935935,32.62092590463257,32.8315695,32.85890190463257Q33.069545500000004,33.09687790463257,33.4060935,33.09687790463257L34.432188499999995,33.09687790463257Q35.6180915,33.09687790463257,36.4571665,32.25967090463257Q37.2968755,31.421832904632566,37.2968755,30.23640890463257L37.2968755,26.077188004632568Q37.2968755,25.74064210463257,37.0588975,25.50266410463257Q36.8209205,25.26468900463257,36.4843755,25.26468900463257L25.646876499999998,25.26468900463257Q25.4332825,25.26468900463257,25.4332825,25.05343870463257L25.4332825,18.33437645463257Q25.4332835,17.99782674463257,25.1953075,17.75985087963257Q24.957331500000002,17.521875414632568,24.6207825,17.52187490463257L19.8676567,17.52187490463257Q18.2576342,17.521875624632568,17.1176381,18.65896528463257L13.72627902,22.042828604632568ZM13.0859375,24.789536004632566Q13.0859375,23.387549904632568,14.0793462,22.39686730463257L14.0793935,22.39681960463257L17.4708004,19.012909804632567Q18.4643669,18.02187556463257,19.8676567,18.02187490463257L24.6207825,18.02187490463257Q24.7502245,18.021875114632568,24.8417535,18.113404514632567Q24.9332825,18.20493349463257,24.9332825,18.33437436463257L24.9332825,25.05343870463257Q24.9332825,25.34739060463257,25.1418605,25.555823804632567Q25.3508725,25.76468900463257,25.646876499999998,25.76468900463257L36.4843755,25.76468900463257Q36.7968755,25.76468900463257,36.7968755,26.077188004632568L36.7968755,30.23640890463257Q36.7968755,31.21439790463257,36.1040075,31.90572290463257Q35.411308500000004,32.59687790463257,34.432188499999995,32.59687790463257L33.4060935,32.59687790463257Q33.0935935,32.59687790463257,33.0935935,32.28437790463257Q33.0935935,31.353771904632566,32.434158499999995,30.69550990463257Q31.7745075,30.03703490463257,30.8410935,30.03703490463257Q29.9095955,30.03572390463257,29.2497485,30.69371590463257Q28.5899025,31.35170790463257,28.5885925,32.28355890463257Q28.5885945,32.413350904632566,28.4970645,32.50488090463257Q28.4055345,32.596409904632566,28.2760925,32.596409904632566L23.1460935,32.596409904632566Q22.833593399999998,32.596409904632566,22.833593399999998,32.283909904632566Q22.833593399999998,31.35356190463257,22.174070399999998,30.695424904632567Q21.5142937,30.03703490463257,20.5806251,30.03703490463257Q19.649125599999998,30.03572390463257,18.9892797,30.69371590463257Q18.3294334,31.35170790463257,18.328125,32.28355890463257Q18.328125,32.596409904632566,18.015625,32.596409904632566L15.450624900000001,32.596409904632566Q14.4718846,32.59728990463257,13.77935016,31.90599590463257Q13.08681464,31.21470190463257,13.08593693,30.236186904632568L13.0859375,24.789536004632566ZM24.3082825,25.05274680463257L24.3082825,18.64687538463257L19.8676567,18.64687538463257Q18.7210007,18.64687538463257,17.9120622,19.45501060463257L14.5207517,22.83929110463257Q13.71166003,23.646162504632567,13.71093762,24.788904704632568L13.7109375,30.235936904632567Q13.71184462,30.95604390463257,14.221536,31.46429090463257Q14.7312282,31.97253990463257,15.4510193,31.971404904632568L17.711856400000002,31.971404904632568L17.7496033,31.76674990463257Q17.938458400000002,30.742817904632567,18.7388725,30.07690490463257Q19.5392857,29.41099090463257,20.580488199999998,29.41156190463257Q21.6220303,29.410805904632568,22.4225693,30.07660090463257Q23.223108500000002,30.74239490463257,23.412122500000002,31.76632090463257L23.4498955,31.970936904632566L27.9722915,31.970936904632566L28.0100635,31.76632090463257Q28.199056499999998,30.742516904632566,28.9994525,30.07674090463257Q29.7998485,29.41096290463257,30.8409505,29.41156190463257Q31.8823395,29.41096290463257,32.6827355,30.07674090463257Q33.4831315,30.742516904632566,33.6721225,31.76632090463257L33.7098965,31.970936904632566L34.432188499999995,31.970936904632566Q35.151424500000005,31.97207290463257,35.661083500000004,31.46401690463257Q36.1707425,30.955962904632568,36.1718755,30.236331904632568L36.1718755,26.38921690463257L25.646876499999998,26.38921690463257Q25.0927685,26.389545004632566,24.7007705,25.998126504632566Q24.3087725,25.60670610463257,24.3082825,25.05274680463257ZM23.8082825,19.146875404632567L19.8676567,19.146875404632567Q18.9279613,19.146875404632567,18.2654395,19.80873970463257L14.8739381,23.193211104632567Q14.2115288,23.85380220463257,14.2109375,24.78922130463257L14.2109375,30.235936904632567Q14.2115834,30.748260904632566,14.574587600000001,31.11023690463257Q14.9375923,31.47221290463257,15.4502308,31.471404904632568L17.3015871,31.471404904632568Q17.560791000000002,30.40660890463257,18.4190917,29.69253590463257Q19.3586102,28.91089290463257,20.5807619,28.91156190463257Q21.8026218,28.91067590463257,22.7422867,29.69217790463257Q23.6007355,30.406136904632568,23.8601015,31.470936904632566L27.5620865,31.470936904632566Q27.8214215,30.40627190463257,28.6797065,29.692340904632566Q29.6192035,28.910859904632566,30.8412365,28.91156190463257Q32.0629845,28.910859904632566,33.0024795,29.692340904632566Q33.8607655,30.40627190463257,34.1201005,31.470936904632566L34.432188499999995,31.470936904632566Q34.9451045,31.47174590463257,35.3080865,31.109906904632567Q35.671066499999995,30.748066904632566,35.6718755,30.235542904632567L35.6718755,26.88921690463257L25.646876499999998,26.88921690463257Q24.8860005,26.88966700463257,24.3474785,26.351940604632567Q23.8089555,25.81421230463257,23.8082825,25.053187804632568L23.8082825,19.146875404632567Z" fill-rule="evenodd" fill="#F16E6E" fill-opacity="1"/><path d="M20.533749532806397,30.25C19.429351832806397,30.248446,18.532800632806396,31.142479,18.531250032806398,32.246876C18.531250032806398,33.348907,19.426562332806398,34.244219,20.533750532806398,34.244219C21.638148332806395,34.245774999999995,22.534700432806396,33.351742,22.536251032806398,32.247343C22.536251032806398,31.145311,21.640938732806397,30.25,20.533749532806397,30.25ZM17.406250002806395,32.246876C17.406250002806395,30.521875,18.807812732806397,29.125,20.533750532806398,29.125C22.260156632806396,29.125,23.661251032806398,30.521875,23.661251032806398,32.246876C23.661251032806398,33.972345000000004,22.259688332806398,35.369219,20.533750532806398,35.369219C18.807812732806397,35.369219,17.406250472806395,33.972342999999995,17.406250002806395,32.246876L17.406250002806395,32.246876ZM30.846250032806395,30.25C29.741851032806395,30.248446,28.845302032806394,31.142477,28.843749032806397,32.246876C28.843749032806397,33.348907,29.739063032806396,34.244219,30.846250032806395,34.244219C31.950832032806396,34.246035,32.847669032806394,33.351925,32.8492200328064,32.247343C32.8492200328064,31.145311,31.9539070328064,30.25,30.846250032806395,30.25ZM27.718749032806397,32.246876C27.718749032806397,30.521875,29.1203110328064,29.125,30.846250032806395,29.125C32.57265603280639,29.125,33.9737510328064,30.521875,33.9737510328064,32.246876C33.9737510328064,33.972345000000004,32.57218903280639,35.369219,30.846250032806395,35.369219C29.120313032806397,35.369219,27.718749032806397,33.972342999999995,27.718749032806397,32.246876L27.718749032806397,32.246876ZM19.865312532806396,21.32125C20.084705332806397,21.5411758,20.084285732806396,21.8973103,19.864375132806398,22.1167183L17.780312542806396,24.196561799999998C17.560321332806396,24.415685699999997,17.204408172806396,24.4151764,16.985044002806397,24.195425C16.765680312806396,23.9756727,16.765800475806397,23.619759600000002,16.985312462806398,23.400156000000003L19.069843332806396,21.3207808C19.289640432806397,21.1012592,19.645774832806396,21.101469,19.865312532806396,21.32125ZM24.085937532806398,16.09375C24.085937532806398,15.26532269,24.757510232806396,14.59375,25.5859370328064,14.59375L35.5468740328064,14.59375C36.3753010328064,14.59375,37.0468740328064,15.26532269,37.0468740328064,16.09375L37.0468740328064,25.9375C37.0468740328064,26.248159,36.7950340328064,26.5,36.4843740328064,26.5L25.5859370328064,26.5C24.757510232806396,26.5,24.085937532806398,25.828426999999998,24.085937532806398,25L24.085937532806398,16.09375ZM25.5859370328064,15.71875C25.378831432806397,15.71875,25.2109370328064,15.8866434,25.2109370328064,16.09375L25.2109370328064,25C25.2109370328064,25.207107,25.378831432806397,25.375,25.5859370328064,25.375L35.9218740328064,25.375L35.9218740328064,16.09375C35.9218740328064,15.8866434,35.7539820328064,15.71875,35.5468740328064,15.71875L25.5859370328064,15.71875Z" fill="#F16E6E" fill-opacity="1" style="mix-blend-mode:passthrough"/><path d="M23.835937932806395,16.09375L23.835937932806395,25Q23.835937932806395,25.724874,24.348500232806398,26.237437Q24.861063432806397,26.75,25.5859370328064,26.75L36.484376032806395,26.75Q36.820924032806396,26.75,37.05890003280639,26.512024Q37.296876032806395,26.274048,37.296876032806395,25.9375L37.296876032806395,16.09375Q37.296876032806395,15.36887681,36.7843110328064,14.85631299Q36.2717490328064,14.34375,35.546876032806395,14.34375L25.5859370328064,14.34375Q24.861063432806397,14.34374994,24.348500232806398,14.85631317Q23.835937932806395,15.36887586,23.835937932806395,16.09375ZM24.702054032806394,25.883883Q24.335937932806395,25.517767,24.335937932806395,25L24.335937932806395,16.09375Q24.335937932806395,15.57598281,24.702054032806394,15.20986646Q25.068170032806396,14.84375,25.5859370328064,14.84375L35.546876032806395,14.84375Q36.06464103280639,14.84375,36.4307570328064,15.20986652Q36.796876032806395,15.57598436,36.796876032806395,16.09375L36.796876032806395,25.9375Q36.796876032806395,26.25,36.484376032806395,26.25L25.5859370328064,26.25Q25.068171032806397,26.25,24.702054032806394,25.883883ZM36.171876032806395,16.09375Q36.171876032806395,15.46875,35.546876032806395,15.46875L25.5859370328064,15.46875Q24.9609370328064,15.46875,24.9609370328064,16.09375L24.9609370328064,25Q24.9609370328064,25.625,25.5859370328064,25.625L36.171876032806395,25.625L36.171876032806395,16.09375ZM25.5859370328064,15.96875L35.546876032806395,15.96875Q35.671876032806395,15.96875,35.671876032806395,16.09375L35.671876032806395,25.125L25.5859370328064,25.125Q25.4609370328064,25.125,25.4609370328064,25L25.4609370328064,16.09375Q25.4609370328064,15.96875,25.5859370328064,15.96875ZM18.893286032806397,21.143785L18.893177732806397,21.1438932L16.808498779806396,23.2234163Q16.570713412806395,23.4613018,16.570599852806396,23.7976503Q16.570486302806398,24.1339989,16.808111508806398,24.3720455Q17.045737232806395,24.610091,17.382085682806398,24.610571999999998Q17.718434812806397,24.611053,17.956910132806396,24.373518L20.040949132806396,22.2936974Q20.279185732806397,22.0560055,20.279582532806398,21.7194729Q20.279979232806397,21.3829412,20.0421872328064,21.1445708Q19.804354932806397,20.9064751,19.467822832806398,20.9062767Q19.131367732806396,20.9060783,18.893286032806397,21.143785ZM17.162126152806398,23.5768967L19.246401032806396,21.497776L19.246509032806397,21.4976683Q19.467604132806397,21.2768507,19.688438432806397,21.4979286Q19.909009932806395,21.7190361,19.687800932806397,21.939739199999998L17.603715062806398,24.0196066Q17.382615982806396,24.2398338,17.161976512806397,24.0188046Q16.941338882806395,23.7977762,17.162126152806398,23.5768967ZM18.146189532806396,34.632069Q19.135492332806397,35.619220999999996,20.533750732806396,35.619220999999996Q21.932009232806397,35.619220999999996,22.921311832806396,34.632069Q23.911251532806396,33.644279,23.911251532806396,32.246876Q23.911251532806396,30.849707,22.921487332806397,29.862094Q21.932243832806396,28.875,20.533750732806396,28.875Q19.135535732806396,28.875,18.146198532806395,29.862085Q17.156250002806395,30.849781,17.156250182806396,32.246877999999995Q17.156250472806395,33.644279,18.146189532806396,34.632069ZM28.458690032806395,34.632069Q29.447992032806397,35.619220999999996,30.846250032806395,35.619220999999996Q32.244510032806396,35.619220999999996,33.2338120328064,34.632069Q34.2237510328064,33.644281,34.2237510328064,32.246876Q34.2237510328064,30.849705,33.2339870328064,29.862094Q32.244744032806395,28.875,30.846250032806395,28.875Q29.448036032806396,28.875,28.458699032806397,29.862085Q27.468750032806398,30.849781,27.468750032806398,32.246877999999995Q27.468750032806398,33.644279,28.458690032806395,34.632069ZM22.568143332806397,34.278130000000004Q21.725221132806396,35.119220999999996,20.533750732806396,35.119220999999996Q19.342280432806398,35.119220999999996,18.499358032806395,34.278130000000004Q17.656250592806398,33.436855,17.656250182806396,32.246877999999995Q17.656250002806395,31.05722,18.499348832806398,30.216041Q19.342308532806396,29.375,20.533750732806396,29.375Q21.725455732806395,29.375,22.568318832806398,30.216032Q23.411251532806396,31.057133,23.411251532806396,32.246876Q23.411251532806396,33.436855,22.568143332806397,34.278130000000004ZM32.8806430328064,34.278130000000004Q32.0377200328064,35.119220999999996,30.846250032806395,35.119220999999996Q29.654782032806395,35.119220999999996,28.811860032806397,34.278130000000004Q27.968750032806398,33.436853,27.968750032806398,32.246877999999995Q27.968750032806398,31.05722,28.811848032806395,30.216041Q29.654808032806397,29.375,30.846250032806395,29.375Q32.0379540328064,29.375,32.8808190328064,30.216032Q33.7237510328064,31.057133,33.7237510328064,32.246876Q33.7237510328064,33.436855,32.8806430328064,34.278130000000004ZM22.125096832806395,33.837540000000004Q22.784943132806397,33.179546,22.786251532806396,32.247693999999996L22.786251532806396,32.247343Q22.786251532806396,31.316738,22.126815332806395,30.658476Q21.467165432806397,30,20.533749532806397,30Q19.602249432806396,29.99869,18.942404032806397,30.656681Q18.282558332806396,31.314674,18.281249832806395,32.246525Q18.281250032806398,33.177482999999995,18.9406855328064,33.835745Q19.600334632806398,34.494220999999996,20.533750732806396,34.494220999999996Q21.465250532806397,34.495532999999995,22.125096832806395,33.837540000000004ZM32.43787903280639,33.837727Q33.097913032806396,33.179701,33.099222032806395,32.247693999999996L33.099222032806395,32.247343Q33.099222032806395,31.316689,32.4397120328064,30.658463Q31.7799690328064,30,30.846250032806395,30Q29.914751032806397,29.99869,29.2549050328064,30.656681Q28.595059032806397,31.314674,28.593750032806398,32.246525Q28.593750032806398,33.177482999999995,29.253186032806397,33.835745Q29.9128350328064,34.494220999999996,30.846250032806395,34.494220999999996Q31.777845032806397,34.495751999999996,32.43787903280639,33.837727ZM22.286251532806396,32.246992L22.286251532806396,32.247343Q22.285109532806395,32.971863,21.772040832806397,33.48349Q21.258848632806398,33.995241,20.533750732806396,33.994220999999996Q19.807181832806396,33.994220999999996,19.293923832806396,33.481876Q18.781250032806398,32.970113999999995,18.781249332806397,32.247226999999995Q18.782266932806397,31.522484,19.295460032806396,31.010731Q19.808651932806395,30.498981,20.533749532806397,30.5Q21.260318732806397,30.5,21.773577232806396,31.012344Q22.286127132806396,31.523983,22.286251532806396,32.246992ZM32.5992210328064,32.246992L32.5992210328064,32.247343Q32.598077032806394,32.971983,32.0848650328064,33.483635Q31.571527032806397,33.995411000000004,30.846250032806395,33.994220999999996Q30.119682032806395,33.994220999999996,29.606424032806395,33.481876Q29.093750032806398,32.970113999999995,29.093750032806398,32.247226999999995Q29.094769032806397,31.522482,29.607960032806396,31.010731Q30.121152032806396,30.498981,30.846250032806395,30.5Q31.5731460328064,30.5,32.08650203280639,31.01236Q32.5990970328064,31.523958,32.5992210328064,32.246992Z" fill-rule="evenodd" fill="#F16E6E" fill-opacity="1"/><path d="M30.2734375,17.40625C30.58409691,17.40625,30.8359375,17.65808964,30.8359375,17.96875L30.8359375,20.7498436L33.3985939,20.7498436C33.7092552,20.7498446,33.9610939,21.0016842,33.9610939,21.3123446C33.9610939,21.623004899999998,33.7092533,21.8748446,33.3985939,21.8748436L30.2734375,21.8748436C29.96277809,21.8748446,29.7109375,21.623004,29.7109375,21.3123436L29.7109375,17.96875C29.7109375,17.65808964,29.96277809,17.40625,30.2734375,17.40625Z" fill="#F16E6E" fill-opacity="1" style="mix-blend-mode:passthrough"/><path d="M29.698913632,17.394225562Q29.4609375,17.63220134,29.4609375,17.96875L29.4609375,21.3123441Q29.46093754,21.6488919,29.698913632,21.886868Q29.93689021,22.1248441,30.2734375,22.1248431L33.3985932,22.1248431Q33.7351418,22.1248441,33.9731178,21.886869Q34.2110939,21.6488938,34.2110939,21.3123446Q34.2110939,20.9757955,33.9731188,20.7378204Q33.7351437,20.4998446,33.3985939,20.4998434L31.0859375,20.4998434L31.0859375,17.96875Q31.0859375,17.63220133,30.8479614,17.394225562Q30.60998553,17.15625,30.2734375,17.15625Q29.93688953,17.15624997,29.698913632,17.394225562ZM29.9609375,21.3123441L29.9609375,17.96875Q29.9609375,17.83930838,30.05246681,17.74777919Q30.14399612,17.65624999,30.2734375,17.65625Q30.40287894,17.65625,30.49440825,17.74777919Q30.58593756,17.83930838,30.58593756,17.96875L30.58593756,20.9998436L33.3985939,20.9998436Q33.5280359,20.9998441,33.619565,21.091373400000002Q33.7110939,21.1829026,33.7110939,21.3123446Q33.7110939,21.4417863,33.6195648,21.5333152Q33.5280356,21.6248441,33.3985946,21.6248436L30.2734375,21.6248436Q30.14399618,21.6248441,30.05246687,21.5333147Q29.96093753,21.4417853,29.9609375,21.3123441Z" fill-rule="evenodd" fill="#F16E6E" fill-opacity="1"/></g></svg>