<svg xmlns="http://www.w3.org/2000/svg" xmlns:xlink="http://www.w3.org/1999/xlink" fill="none" version="1.1" width="14" height="14" viewBox="0 0 14 14"><defs><clipPath id="master_svg0_580_34671"><rect x="0" y="14" width="14" height="14" rx="0"/></clipPath></defs><g transform="matrix(1,0,0,-1,0,28)" clip-path="url(#master_svg0_580_34671)"><path d="M7.23437974375,14.10166616L11.98143134375,19.5413609C12.05833434375,19.6291757,12.07674334375,19.7538652,12.02849734375,19.8601575C11.98025134375,19.9664502,11.87427524375,20.0346813,11.75754644375,20.034606L9.424250143750001,20.034606C9.27587414375,20.0333295,9.149827943750001,20.1428704,9.13040254375,20.2899742C8.955492543750001,21.556321099999998,7.89903734375,27.156933000000002,2.89661747375,27.986005C2.76215505375,28.011960000000002,2.62735492375,27.942723,2.57012504375,27.818311C2.51289516375,27.693898,2.54803776375,27.546487,2.65524184375,27.461275999999998C3.51229994375,26.789622,4.63172264375,25.488294,4.94655964375,23.1724882C5.06743094375,22.2317076,5.12586214375,21.2839541,5.12146954375,20.3354506C5.121513343749999,20.1700616,4.98946854375,20.0349097,4.82412294375,20.031107900000002L2.25994518375,20.031107900000002C2.14321568375,20.0311832,2.03723970075,19.9629521,1.98899360575,19.856659399999998C1.94074750875,19.7503672,1.95915660865,19.6256776,2.03606063875,19.5378628L6.78661064375,14.10166616C6.90508844375,13.966111273,7.11590054375,13.966111273,7.23437974375,14.10166616Z" fill="#349B34" fill-opacity="1"/></g></svg>