<svg xmlns="http://www.w3.org/2000/svg" xmlns:xlink="http://www.w3.org/1999/xlink" fill="none" version="1.1" width="50" height="50" viewBox="0 0 50 50"><defs><clipPath id="master_svg0_530_31878"><rect x="10" y="10" width="30" height="30" rx="0"/></clipPath></defs><rect x="0" y="0" width="50" height="50" rx="8" fill="#FAE4E4" fill-opacity="1"/><g clip-path="url(#master_svg0_530_31878)"><path d="M26.991249,38.125L16.5625,38.125C15.0091991,38.125,13.75000023841858,36.865801000000005,13.75,35.3125L13.75,14.6875C13.75,13.1341991,15.0091991,11.87500011920929,16.5625,11.875L32.5,11.875C34.053301000000005,11.87500011920929,35.3125,13.1341991,35.3125,14.6875L35.3125,25.707812C38.359003,28.141512,39.032461,32.503674000000004,36.861771000000005,35.742836C34.691082,38.981998000000004,30.400427,40.017509000000004,26.991249,38.125ZM33.4375,24.608125L33.4375,14.6875C33.437501999999995,14.169733,33.017767,13.75,32.5,13.75L16.5625,13.75C16.044733,13.7499998,15.6250005,14.1697326,15.625,14.6875L15.625,35.3125C15.6250005,35.830267,16.0447335,36.250001999999995,16.5625,36.25L24.770312,36.25C22.6362114,33.586842000000004,22.5691366,29.818687,24.607104,27.081263999999997C26.645073,24.343840999999998,30.274176,23.327434,33.4375,24.608125ZM19.84375,19.375C19.0670996,19.375,18.4375,18.7454004,18.4375,17.9687505C18.4375,17.1921,19.0670996,16.5625005,19.84375,16.5625C20.6204004,16.5625005,21.25,17.1921,21.25,17.9687505C21.25,18.7454004,20.6204004,19.375,19.84375,19.375ZM24.53125,19.375C23.754601,19.375,23.125000999999997,18.7454004,23.125000999999997,17.9687505C23.125000999999997,17.1921,23.7546,16.5625005,24.53125,16.5625C25.307901,16.5625005,25.937500999999997,17.1921,25.937500999999997,17.9687505C25.937500999999997,18.7454004,25.307901,19.375,24.53125,19.375ZM29.21875,19.375C28.442099,19.375,27.8125,18.7454004,27.8125,17.9687505C27.8125,17.1921,28.442099,16.5625005,29.21875,16.5625C29.995401,16.5625005,30.625,17.1921,30.625,17.9687505C30.625,18.7454004,29.995401,19.375,29.21875,19.375ZM19.375,23.125L22.1875,23.125C22.7049103,23.125505,23.1240854,23.545091,23.1240854,24.0625C23.1240854,24.579909999999998,22.7049103,24.999495,22.1875,25L19.375,25C18.8575916,24.999495,18.4384165,24.579909999999998,18.4384165,24.0625C18.4384165,23.545090000000002,18.8575916,23.125505,19.375,23.125ZM19.375,28.75L20.3125,28.75C20.8302679,28.750002,21.250001,29.169735,21.250001,29.687502C21.250001,30.205269,20.830267,30.625002,20.3125,30.625L19.375,30.625C18.857234,30.625002,18.437501,30.205269,18.437501,29.687502C18.437501,29.169735,18.857233,28.750002,19.375,28.75ZM30.625,37.1875C33.731604000000004,37.1875,36.250001999999995,34.669101999999995,36.250001999999995,31.5625C36.250001999999995,28.455898,33.731604000000004,25.937500999999997,30.625,25.9375C27.518397999999998,25.937500999999997,25,28.455898,25,31.5625C25,34.669101999999995,27.518397999999998,37.1875,30.625,37.1875ZM30.834999,31.09375L33.138436999999996,31.09375C33.526762000000005,31.09375,33.841561999999996,31.40855,33.841561999999996,31.796875C33.841561999999996,32.185199999999995,33.526762000000005,32.5,33.138436999999996,32.5L29.428749,32.5L29.428749,27.578125C29.428749,27.189799999999998,29.743549,26.875,30.131874,26.875C30.520199,26.875,30.834999,27.189799999999998,30.834999,27.578125L30.834999,31.09375Z" fill="#F16E6E" fill-opacity="1" style="mix-blend-mode:passthrough"/></g></svg>