<svg
  xmlns="http://www.w3.org/2000/svg"
  xmlns:xlink="http://www.w3.org/1999/xlink"
  fill="none"
  version="1.1"
  width="14"
  height="14"
  viewBox="0 0 14 14"
>
  <defs>
    <clipPath id="master_svg0_530_34362">
      <rect x="14" y="0" width="14" height="14" rx="0" />
    </clipPath>
  </defs>
  <g transform="matrix(-1,0,0,1,28,0)" clip-path="url(#master_svg0_530_34362)">
    <path
      d="M21.23437974375,0.10166616L25.98143134375,5.5413609C26.058334343749998,5.6291757,26.07674334375,5.7538652,26.02849734375,5.8601575C25.98025134375,5.9664502,25.87427524375,6.0346813,25.75754644375,6.034606L23.42425014375,6.034606C23.275874143750002,6.0333295,23.14982794375,6.1428704,23.13040254375,6.2899742C22.95549254375,7.5563211,21.89903734375,13.156933,16.89661747375,13.986005C16.76215505375,14.01196,16.62735492375,13.942723,16.57012504375,13.818311C16.51289516375,13.693898,16.54803776375,13.546487,16.65524184375,13.461276C17.51229994375,12.789622,18.63172264375,11.488294,18.94655964375,9.1724882C19.06743094375,8.2317076,19.12586214375,7.2839541,19.12146954375,6.3354506C19.12151334375,6.1700616,18.98946854375,6.0349097,18.824122943749998,6.0311079L16.25994518375,6.0311079C16.14321568375,6.0311832,16.03723970075,5.9629521,15.98899360575,5.8566594C15.94074750875,5.7503672,15.95915660865,5.6256776,16.03606063875,5.5378628L20.78661064375,0.10166616C20.90508844375,-0.033888727,21.11590054375,-0.033888727,21.23437974375,0.10166616Z"
      fill="#EB3737"
      fill-opacity="1"
    />
  </g>
</svg>