<?xml version="1.0" encoding="UTF-8"?>
<svg width="16px" height="12px" viewBox="0 0 16 12" version="1.1" xmlns="http://www.w3.org/2000/svg" xmlns:xlink="http://www.w3.org/1999/xlink">
    <title>路径</title>
    <g id="页面-1" stroke="none" stroke-width="1" fill="none" fill-rule="evenodd">
        <g id="首页" transform="translate(-476.000000, -540.000000)" fill="#FFFFFF" fill-rule="nonzero">
            <g id="编组-5" transform="translate(260.000000, 430.000000)">
                <g id="编组备份-2" transform="translate(216.000000, 110.000000)">
                    <path d="M13.7235629,6.58396667 L9.52772354,10.7276574 C9.3593388,10.8941845 9.29370414,11.1367777 9.35554349,11.3640543 C9.41738284,11.5913309 9.59730133,11.7687623 9.82752542,11.8295117 C10.0577495,11.8902612 10.3033027,11.8250995 10.4716874,11.6585723 L15.8048165,6.39172681 C16.0650612,6.13463901 16.0650612,5.71789967 15.8048165,5.46081187 L10.4716874,0.193966357 C10.346795,0.0698156722 10.1769113,0 9.99970546,0 C9.82249967,0 9.6526159,0.0698156722 9.52772354,0.193966357 C9.26836621,0.450902667 9.26836621,0.866628279 9.52772354,1.12356459 L13.7235629,5.2672553 L0.666729528,5.2672553 C0.428540538,5.26722412 0.208431322,5.39269918 0.0893277095,5.59640795 C-0.0297759032,5.80011671 -0.0297759032,6.05110527 0.0893277095,6.25481403 C0.208431322,6.4585228 0.428540538,6.58399786 0.666729528,6.58396667 L13.7235629,6.58396667 Z" id="路径"></path>
                </g>
            </g>
        </g>
    </g>
</svg>