<svg xmlns="http://www.w3.org/2000/svg" xmlns:xlink="http://www.w3.org/1999/xlink" fill="none" version="1.1" width="16" height="16" viewBox="0 0 16 16"><defs><clipPath id="master_svg0_98_01966"><rect x="0" y="0" width="16" height="16" rx="0"/></clipPath></defs><g clip-path="url(#master_svg0_98_01966)"><g><path d="" fill="#FFFFFF" fill-opacity="0" style="mix-blend-mode:passthrough"/></g><g><path d="M10.11909488125,1.9999982118606687C10.29303548125,1.9997907876954688,10.45980168125,2.069306969605469,10.58209518125,2.192998290605469L14.81209428125,6.468997970605469C15.06408328125,6.724771470605469,15.06274328125,7.135870970605469,14.80909428125,7.389997970605469L14.77209428125,7.426998170605469L14.66609428125,7.532998070605469L14.27609428125,7.9229979706054685L14.00709428125,8.192997970605468L13.35709428125,8.844998370605468L12.98909428125,9.21199797060547L12.79809428125,9.403998370605468L12.40609428125,9.79599857060547L12.20709428125,9.994998970605469L11.02509408125,11.17799857060547L10.83909418125,11.36499877060547L10.31609438125,11.887998570605468L9.620094281250001,12.58399837060547L9.42509458125,12.779998370605469L9.34809498125,12.856998370605469L9.24209498125,12.962998370605469L9.20509528125,12.99999837060547L14.50000028125,13.000000370605468C14.77614228125,13.000000370605468,15.00000028125,13.223858370605468,15.00000028125,13.500000370605468C15.00000028125,13.776142370605468,14.77614228125,14.000000370605468,14.50000028125,14.000000370605468L5.86809468125,13.99999837060547C5.6948339812499995,14.000246370605469,5.52859998125,13.931521370605468,5.40609478125,13.808998370605469L5.362094681249999,13.764998370605468L4.9350945812500004,13.335998370605468L3.71509458125,12.11599837060547L3.2280945812499997,11.627998370605468L2.79009461125,11.188998270605468L2.35809469125,10.755998570605469L2.19109464125,10.58899877060547C1.93695271025,10.333814670605468,1.93695271025,9.921182670605468,2.19109464125,9.66599847060547L2.39209461125,9.463998770605468L2.68509459125,9.171998970605468L3.5700945812500002,8.284998870605468L4.1270944812499994,7.727998770605469L5.16009448125,6.692997970605469L5.3770944812499994,6.4759979706054684L5.81409428125,6.037997770605469L7.32109448125,4.5309977706054685L7.72109418125,4.128997770605469L7.91409398125,3.9369979706054687L8.76509378125,3.083998070605469L8.90909388125,2.9409982006054687L9.52709388125,2.3219982406054687L9.58309368125,2.2659982406054686L9.64909358125,2.1999982606054687L9.65709398125,2.1909982006054687C9.77971838125,2.0680407286054687,9.94644358125,1.9992619752854688,10.11909488125,1.9999982118606687L10.11909488125,1.9999982118606687ZM4.66909528125,8.599998470605469L4.27309538125,8.99599837060547L3.90609528125,9.363998370605469L3.33609538125,9.933998070605469L3.14309528125,10.127998370605468L3.1530952812499997,10.137998570605468L3.23509528125,10.21899887060547L3.38509538125,10.368998570605468L3.59109548125,10.575998270605469L3.71109538125,10.69699857060547L4.57709528125,11.563998270605468L4.73109508125,11.716998070605468L5.44309498125,12.43099737060547L5.85309478125,12.840997370605468L6.00109478125,12.98899737060547L6.01109508125,12.999997370605469L7.79109478125,12.999997370605469L7.98309518125,12.80899737060547L8.23709488125,12.554997370605468L8.37209508125,12.418997370605469L8.42809488125,12.36299837060547L8.26609518125,12.201997370605469L7.84109498125,11.774997670605469L7.70309548125,11.637997670605468L6.89909558125,10.831997870605468L6.72409538125,10.657998070605469L6.19809528125,10.130997670605469L6.02609538125,9.957997370605469L5.39409518125,9.324996970605469L4.91609498125,8.846997270605469L4.76209518125,8.692996970605469L4.66909528125,8.599998470605469ZM10.11709498125,3.1459985706054687L9.377095181249999,3.886998570605469L9.06009488125,4.203998570605469L7.55009458125,5.715998670605469L6.97009468125,6.295998570605469L6.78409478125,6.481998470605469L6.27009488125,6.996998270605468L5.8440949812500005,7.422998470605469L5.6250950812500005,7.642998170605469L5.37609508125,7.891998270605469L5.4690949812500005,7.984998270605469L5.53809478125,8.052998570605467L5.96409488125,8.479998570605469L6.10109518125,8.616998670605469L6.90509508125,9.422998470605469L7.08009528125,9.596998170605469L7.60609528125,10.12499807060547L7.77809528125,10.296998070605468L8.41009518125,10.92999837060547L8.88809488125,11.407998070605469L9.04209518125,11.561998370605469L9.135095581249999,11.654998770605468L9.22809598125,11.561998370605469L9.60109618125,11.188998270605468L9.73109628125,11.058998070605469L10.72209648125,10.065998070605469L10.91209598125,9.875998470605468L11.69309618125,9.094998370605468L11.88809588125,8.898998270605468L12.63409628125,8.152997970605469L12.96709628125,7.818997870605469L13.26209628125,7.523997770605469L13.39209628125,7.393997670605469L13.76509628125,7.019997570605469L13.85809728125,6.926997670605469L12.16309728125,5.213997870605469L11.81309698125,4.859997770605469L10.11709498125,3.1459985706054687Z" fill="#666666" fill-opacity="1" style="mix-blend-mode:passthrough"/></g></g></svg>