<svg xmlns="http://www.w3.org/2000/svg" xmlns:xlink="http://www.w3.org/1999/xlink" fill="none" version="1.1" width="24" height="24" viewBox="0 0 24 24"><defs><clipPath id="master_svg0_98_02601"><rect x="4" y="4" width="16" height="16" rx="0"/></clipPath></defs><g><g><ellipse cx="12" cy="12" rx="12" ry="12" fill="#EB3737" fill-opacity="1"/></g><g clip-path="url(#master_svg0_98_02601)"><g style="opacity:0.009999999776482582;"><path d="M4,4L20,4L20,20L4,20L4,4Z" fill="#202425" fill-opacity="1" style="mix-blend-mode:passthrough"/></g><g><path d="M13.578185799081421,5.865099069140625C15.507682599081422,6.537211369140625,16.80058469908142,8.356733069140624,16.80058469908142,10.400032069140625L16.80058469908142,14.165365169140625C17.71098669908142,14.332832369140625,18.40058569908142,15.130697869140626,18.40058569908142,16.089098869140624C18.40058569908142,16.187230869140627,18.32058569908142,16.266697869140625,18.222984699081422,16.266697869140625L5.778185639081421,16.266697869140625C5.6800998600814205,16.266697869140625,5.600585546493531,16.187183869140625,5.600585699081421,16.089098869140624C5.600498723994421,15.146014869140625,6.2732744790814206,14.337114369140625,7.2005856990814205,14.165363269140625L7.2005856990814205,10.400032069140625C7.200553199081421,8.356778169140625,8.49345609908142,6.5372562691406255,10.42298579908142,5.865098669140625C10.553164199081422,5.095324869140625,11.219881299081422,4.531890869140625,12.00058579908142,4.531890869140625C12.78128979908142,4.531890907287593,13.448007299081421,5.095324869140625,13.578185799081421,5.865099069140625ZM9.33349589908142,17.002715869140623C9.36295439908142,16.883556869140627,9.46994899908142,16.799898869140627,9.592695699081421,16.800048869140625L14.407627799081421,16.800048869140625C14.530374299081421,16.799898869140627,14.637368899081421,16.883556869140627,14.666828899081422,17.002715869140623C14.55839989908142,18.394700869140625,13.396364499081422,19.468421869140627,12.000162799081421,19.466714869140624C10.60396079908142,19.468421869140627,9.44192479908142,18.394699869140624,9.33349589908142,17.002715869140623Z" fill="#FFFFFF" fill-opacity="1" style="mix-blend-mode:passthrough"/></g></g></g></svg>