<svg xmlns="http://www.w3.org/2000/svg" xmlns:xlink="http://www.w3.org/1999/xlink" fill="none" version="1.1" width="42" height="42" viewBox="0 0 42 42"><defs><linearGradient x1="0.044109806418418884" y1="1" x2="1" y2="0.07608617842197418" id="master_svg0_2_0641"><stop offset="0%" stop-color="#FF4500" stop-opacity="1"/><stop offset="100%" stop-color="#FFAA29" stop-opacity="1"/></linearGradient><linearGradient x1="1" y1="0" x2="0.5351723526543639" y2="1.0160901877927335" id="master_svg1_98_06781"><stop offset="0%" stop-color="#FFFFFF" stop-opacity="1"/><stop offset="100%" stop-color="#FFD7BD" stop-opacity="1"/></linearGradient></defs><g><g><path d="M0 8C4.90527396329193e-16 3.5817220013536524 3.5817220013536533 0 8 0L34 0C38.418277998646346 0 42 3.5817220013536533 42 8L42 34C42 38.418277998646346 38.418277998646346 42 34 42L8 42C3.5817220013536533 42 0 38.418277998646346 0 34Z" fill="url(#master_svg0_2_0641)" fill-opacity="1"/></g><g><g><path d="M17.050005900000002,11.1219511Q17.050005900000002,10,15.950006,10Q14.8500061,10,14.8500061,11.1219511L14.8500061,12.8048778Q14.8500061,13.9268289,15.950006,13.9268289Q17.050005900000002,13.9268289,17.050005900000002,12.8048778L17.050005900000002,11.1219511ZM22.550006,11.1219511Q22.550006,10,21.450006000000002,10Q20.3500061,10,20.3500061,11.1219511L20.3500061,12.8048778Q20.3500061,13.9268289,21.450006000000002,13.9268289Q22.550006,13.9268289,22.550006,12.8048778L22.550006,11.1219511ZM28.050007,11.1219511Q28.050007,10,26.950006000000002,10Q25.850006,10,25.850006,11.1219511L25.850006,12.8048778Q25.850006,13.9268289,26.950006000000002,13.9268289Q28.050007,13.9268289,28.050007,12.8048778L28.050007,11.1219511ZM14.3000002,12.8048735L14.3000002,11.6829224L13.2000003,11.6829224C11.98497391,11.6829224,11,12.687552,11,13.9268248L11,30.756092C11,31.995363,11.98497391,32.999994,13.2000003,32.999994L25.337714,32.999994Q25.067888,32.810379,24.822651999999998,32.58988Q24.577416,32.369381000000004,24.360284999999998,32.121155Q24.143155999999998,31.872932,23.957241,31.600542Q23.771328,31.32815,23.619295,31.035492Q23.467263000000003,30.742838,23.35129,30.434113Q23.235318,30.125387,23.157066,29.805014Q23.078816,29.484646,23.039408,29.157219Q23.000000999999997,28.829792,23,28.5Q23,28.364983,23.006624000000002,28.230129Q23.013249000000002,28.095274,23.026484,27.960907Q23.039717,27.826538,23.059528,27.692982Q23.079340000000002,27.559425,23.10568,27.427002Q23.132021,27.294579,23.164827000000002,27.163609Q23.197635,27.032639,23.236829,26.903435Q23.276021999999998,26.774231,23.321507,26.647106Q23.366993,26.519981,23.418661,26.395241Q23.47033,26.2705,23.528058,26.148445Q23.585786,26.026392,23.649433000000002,25.907318Q23.713079,25.788242,23.782493000000002,25.672434000000003Q23.851906,25.556625,23.926917,25.444363Q24.001928,25.3321,24.082359,25.223653Q24.162788,25.115206,24.248444,25.010837000000002Q24.334097,24.906466,24.424768,24.806425Q24.515439999999998,24.706384,24.610912,24.610912Q24.706384,24.515441,24.806425,24.424768999999998Q24.906467,24.334097,25.010838,24.248444Q25.115206999999998,24.162788,25.223654,24.082359Q25.3321,24.001928,25.444363,23.926916Q25.556625,23.851903999999998,25.672434000000003,23.782491999999998Q25.788242,23.713079,25.907317,23.649431999999997Q26.026392,23.585785,26.148446,23.528058Q26.2705,23.47033,26.39524,23.418661Q26.519979,23.366993,26.647104,23.321507Q26.774229,23.276021,26.903434,23.236828Q27.032637,23.197634,27.163609,23.164827000000002Q27.294579,23.132021,27.427002,23.10568Q27.559425,23.079340000000002,27.692982,23.059528Q27.826538,23.039718999999998,27.960907,23.026484Q28.095274,23.01325,28.230127,23.006626Q28.364983,23,28.5,23Q28.959232,23,29.412106,23.076159Q29.864977,23.152315,30.298948,23.302521Q30.732922,23.452727,31.135975,23.672823Q31.539028,23.892918,31.9,24.176806L31.9,13.9268248C31.9,12.687552,30.915026,11.6829224,29.700001,11.6829224L28.600002,11.6829224L28.600002,12.8048735C28.600002,13.7343302,27.861271,14.487802,26.950003000000002,14.487802C26.038733,14.487802,25.300003,13.7343302,25.300001,12.8048735L25.300001,11.6829224L23.1,11.6829224L23.1,12.8048735C23.100002,13.7343283,22.361273,14.487802,21.450003000000002,14.487802C20.538732500000002,14.487802,19.8000011,13.7343302,19.8000011,12.8048735L19.8000011,11.6829224L17.6000004,11.6829224L17.6000004,12.8048735C17.6000004,13.7343302,16.861270400000002,14.487802,15.9500003,14.487802C15.0387301,14.487802,14.3000002,13.7343302,14.3000002,12.8048735ZM14.8499999,16.73172L24.75,16.73172Q25.849999,16.73172,25.849999,17.8536711Q25.849999,18.9756222,24.75,18.9756222L14.8499999,18.9756222Q13.75,18.9756222,13.75,17.8536711Q13.75,16.73172,14.8499999,16.73172ZM20.3499994,22.341461000000002L14.8499999,22.341461000000002Q13.75,22.341461000000002,13.75,23.463411999999998Q13.75,24.585363,14.8499999,24.585363L20.3499994,24.585363Q21.449999,24.585363,21.449999,23.463411999999998Q21.449999,22.341461000000002,20.3499994,22.341461000000002ZM28.5,33Q28.61047,33,28.720804,32.994579Q28.831141,32.989159,28.941078,32.978333Q29.051014,32.967503,29.160286,32.951294000000004Q29.269558,32.935083,29.377905,32.913532000000004Q29.486252,32.891982999999996,29.593409,32.865141Q29.700569,32.838299,29.80628,32.806232Q29.911991,32.774164,30.016003,32.736948Q30.120014,32.699732,30.222075,32.657457Q30.324135,32.615181,30.423998,32.567951Q30.523861,32.520721,30.621284,32.468647000000004Q30.71871,32.416573,30.813461,32.359777Q30.908215,32.302986000000004,31.000065,32.241611Q31.091917,32.180239,31.180647,32.114433Q31.269377,32.048626,31.354771,31.978546Q31.440163,31.908466,31.522015,31.83428Q31.603867,31.760092,31.68198,31.681978Q31.760094,31.603865,31.834278,31.522013Q31.908466,31.440161,31.978546,31.354767Q32.048626,31.269375,32.114433,31.180645Q32.180239,31.091915,32.241611,31.000063Q32.302986000000004,30.908211,32.359777,30.813459Q32.416571000000005,30.718708,32.468644999999995,30.621284Q32.52072,30.523859,32.567951,30.423996Q32.615181,30.324133,32.657455,30.222073Q32.69973,30.120014,32.736946,30.016003Q32.774162000000004,29.911991,32.806231,29.80628Q32.838297,29.700569,32.865137000000004,29.593409Q32.891979,29.486252,32.913532000000004,29.377905Q32.935083,29.269558,32.951294000000004,29.160286Q32.967503,29.051014,32.978333,28.941076Q32.989159,28.831139,32.994579,28.720804Q33,28.61047,33,28.5Q33,28.38953,32.994579,28.279196Q32.989159,28.168861,32.978333,28.058926Q32.967503,27.948986,32.951291999999995,27.839714Q32.935083,27.730438,32.913532000000004,27.622093Q32.891979,27.513746,32.865139,27.406588Q32.838297,27.299431,32.806231,27.193718Q32.774162000000004,27.088005,32.736946,26.983994Q32.69973,26.879982,32.657455,26.777924Q32.615181,26.675863,32.567951,26.576Q32.52072,26.476139,32.468644999999995,26.378714Q32.416571000000005,26.281288,32.359777,26.186535Q32.302986000000004,26.091784,32.241611,25.999933Q32.180239,25.908081,32.114433,25.819352000000002Q32.048626,25.730623,31.978546,25.645229999999998Q31.908464,25.559836,31.834278,25.477983000000002Q31.76009,25.396132,31.681978,25.318019Q31.603865,25.239905999999998,31.522013,25.16572Q31.440161,25.091534,31.354767,25.021454Q31.269375,24.951372,31.180645,24.885567Q31.091915,24.819758999999998,31.000063,24.758386Q30.908211,24.697012,30.813459,24.640221Q30.718708,24.583427999999998,30.621283,24.531354Q30.523857,24.479279,30.423994,24.432047Q30.324131,24.384815,30.222073,24.342541Q30.120012,24.300266,30.016001,24.263052000000002Q29.911991,24.225836,29.806278,24.193769Q29.700567,24.161701,29.593409,24.134859Q29.486252,24.108017,29.377905,24.086466Q29.269558,24.064915,29.160286,24.048706Q29.051014,24.032496000000002,28.941078,24.021669Q28.831141,24.010841,28.720804,24.005421Q28.61047,24,28.5,24Q28.38953,24,28.279196,24.005421Q28.168861,24.010841,28.058924,24.021669Q27.948986,24.032496000000002,27.839712,24.048706Q27.730438,24.064915,27.622093,24.086466Q27.513746,24.108017,27.406588,24.134859Q27.299429,24.161701,27.193718,24.193769Q27.088005,24.225836,26.983994,24.263051Q26.879982,24.300266,26.777923,24.342541Q26.675863,24.384815,26.576,24.432047Q26.476137,24.479279,26.378712999999998,24.531353Q26.281288,24.583427,26.186535,24.640219000000002Q26.091784,24.697011,25.999931,24.758385Q25.908079,24.819757,25.81935,24.885565Q25.730621,24.951371,25.645228,25.021452Q25.559834000000002,25.091532,25.477983000000002,25.165718Q25.396131,25.239904,25.318018000000002,25.318018000000002Q25.239904,25.396132,25.165718,25.477983000000002Q25.091532,25.559835,25.021452,25.645229Q24.951371,25.730622,24.885565,25.819350999999997Q24.819758,25.908079999999998,24.758385,25.999932Q24.697012,26.091782,24.64022,26.186535Q24.583427,26.281288,24.531354,26.378714Q24.479279,26.476139,24.432047,26.576Q24.384815,26.675863,24.342541,26.777924Q24.300266,26.879982,24.263052000000002,26.983994Q24.225836,27.088005,24.193769,27.19372Q24.161701,27.299431,24.134859,27.40659Q24.108017,27.513746,24.086465,27.622093Q24.064914,27.730438,24.048706,27.839714Q24.032496000000002,27.948986,24.021669,28.058924Q24.010841,28.168859,24.005421,28.279196Q24,28.38953,24,28.5Q24,28.61047,24.005421,28.720804Q24.010841,28.831141,24.021669,28.941078Q24.032496000000002,29.051014,24.048706,29.160286Q24.064914,29.26956,24.086465,29.377907Q24.108017,29.486252,24.134859,29.59341Q24.161701,29.700569,24.193769,29.806282Q24.225836,29.911995,24.263051,30.016005Q24.300266,30.120014,24.342541,30.222075Q24.384815,30.324135,24.432047,30.423998Q24.479279,30.523861,24.531354,30.621286Q24.583427,30.718712,24.640219000000002,30.813463Q24.697012,30.908215,24.758385,31.000065Q24.819758,31.091917,24.885565,31.180647Q24.951371,31.269377,25.021452,31.354771Q25.091532,31.440165,25.165718,31.522017Q25.239904,31.603867,25.318018000000002,31.68198Q25.396131,31.760094,25.477983000000002,31.83428Q25.559835,31.908466,25.645229,31.978546Q25.730622,32.048626,25.819350999999997,32.114430999999996Q25.908081,32.180239,25.999932,32.241611Q26.091784,32.302986000000004,26.186536,32.359777Q26.281288,32.416573,26.378714000000002,32.468647000000004Q26.476137,32.520721,26.576,32.567951Q26.675863,32.615181,26.777923,32.657457Q26.879982,32.699732,26.983994,32.736948Q27.088005,32.774164,27.193718,32.806232Q27.299429,32.838299,27.406588,32.865143Q27.513746,32.891982999999996,27.622093,32.913534Q27.730438,32.935085,27.839712,32.951296Q27.948986,32.967505,28.058924,32.978333Q28.168861,32.989159,28.279196,32.994581Q28.38953,33,28.5,33ZM32,29.421738C32,29.108562,31.749977,28.889709,31.4939,28.916204L28.973185,28.916203L28.93128,26.519423C28.92614,26.226761,28.713516,25.994256,28.456375,26.000109C28.199236,26.00596,27.994951,26.247955,28.000095,26.540619L28.051311,29.480556C28.056673,29.788061,28.290163,30.025797,28.559273,29.997749L31.579105,29.997749C31.835182,29.971252,32,29.734913,32,29.421738Z" fill-rule="evenodd" fill="url(#master_svg1_98_06781)" fill-opacity="1"/></g></g></g></svg>