<svg xmlns="http://www.w3.org/2000/svg" xmlns:xlink="http://www.w3.org/1999/xlink" fill="none" version="1.1" width="16" height="16" viewBox="0 0 16 16"><defs><clipPath id="master_svg0_28_9510"><rect x="0" y="0" width="16" height="16" rx="0"/></clipPath></defs><g clip-path="url(#master_svg0_28_9510)"><g transform="matrix(0.7071067094802856,-0.7071068286895752,0.7071068286895752,0.7071067094802856,-6.233330237717169,1.00101956738402)"><path d="M7.23970426287384,16.21820261529541L3.8250213628738408,12.82658581529541C2.20157016287384,12.349602715295411,0.4405606628738403,12.71992921529541,-0.8540713371261597,13.80905051529541C0.8511882628738405,15.478846515295409,3.13925326287384,17.78558631529541,4.83822886287384,19.498073115295412C5.3841472628738405,20.048612115295413,5.87192876287384,20.54037511529541,6.26426996287384,20.93437911529541C7.36935536287384,19.62842711529541,7.7381383628738405,17.86972521529541,7.23970426287384,16.21820261529541ZM4.04558816287384,11.99590821529541L7.53285226287384,8.51633855529541C7.847981562873841,8.20122419529541,8.292337062873841,8.02455997467541,8.75180206287384,8.02455997467541C9.18900806287384,8.02455997467541,9.59097606287384,8.18800114529541,9.88343306287384,8.48045882529541L11.66484906287384,10.26291391529541C11.96530206287384,10.56314251529541,12.144029062873841,10.999518615295411,12.15517306287384,11.459191115295411C12.166701062873841,11.93019981529541,11.999903062873841,12.37391471529541,11.69757906287384,12.67623761529541L8.12349006287384,16.18660351529541C8.65483206287384,18.21672111529541,8.081793862873841,20.35757111529541,6.5804244628738395,21.858761115295408C6.4998379628738405,21.939299115295412,6.39053646287384,21.98464411529541,6.2766133628738405,21.98464411529541C6.16246716287384,21.98464411529541,6.053389162873841,21.939299115295412,5.972595762873841,21.858761115295408C5.541256562873841,21.427389115295412,4.93302886287384,20.81438111529541,4.22811476287384,20.10358211529541C3.6808620628738407,19.551870115295408,3.07239206287384,18.93843611529541,2.4420748628738407,18.30462411529541C2.4370618628738407,18.310099115295408,2.4318805628738405,18.31547411529541,2.4265318628738406,18.32074311529541L0.7508517628738405,19.944970115295412C0.6671486628738403,20.02761711529541,0.5581880628738403,20.069970115295412,0.4490939628738402,20.069970115295412C0.3457525628738405,20.069970115295412,0.2436188628738405,20.03249011529541,0.16213146287384017,19.95854711529541L0.16604146287384047,19.962455115295413Q0.23177016287384022,20.02818411529541,0.29569136287384046,20.095154115295408Q0.35961236287384013,20.162124115295413,0.4211746628738404,20.22975411529541Q0.4827371628738404,20.29738911529541,0.5414105628738404,20.36510211529541Q0.6000834628738403,20.43281411529541,0.6553612628738401,20.50002411529541Q0.7106391628738402,20.56723511529541,0.7620452628738401,20.633361115295408Q0.8134511628738403,20.69948811529541,0.8605419628738402,20.76396011529541Q0.9076329628738402,20.82843411529541,0.9500027628738401,20.89069811529541Q0.9923726628738403,20.95296311529541,1.0296555628738404,21.012481115295408Q1.0669389628738402,21.071999115295412,1.0988143628738403,21.12825911529541Q1.1306899628738405,21.18451811529541,1.1568826628738402,21.23703311529541Q1.1830755628738405,21.289550115295413,1.2033599628738405,21.33786811529541Q1.2236443628738405,21.38618611529541,1.2378448628738403,21.429891115295412Q1.2520457628738404,21.473596115295408,1.2600408628738404,21.51231011529541Q1.2680359628738405,21.55102511529541,1.2697559628738402,21.58441511529541Q1.2714763628738401,21.61780611529541,1.2669068628738405,21.64558511529541Q1.2623375628738405,21.67336411529541,1.2515178628738401,21.69529011529541Q1.2416652628738403,21.715258115295413,1.2267016628738405,21.730222115295412Q1.2117377628738404,21.74518511529541,1.1917701628738402,21.75503811529541Q1.1698428628738404,21.76585911529541,1.1420642628738404,21.77042811529541Q1.1142855628738402,21.77499711529541,1.0808948628738402,21.77327611529541Q1.0475042628738405,21.77155711529541,1.0087896628738404,21.76356211529541Q0.9700747628738404,21.75556611529541,0.9263695628738402,21.74136411529541Q0.8826647628738402,21.72716411529541,0.8343461628738402,21.706880115295412Q0.7860275628738402,21.68659511529541,0.7335122628738402,21.660402115295412Q0.6809970628738404,21.63421011529541,0.6247376628738404,21.60233511529541Q0.5684782628738403,21.57045911529541,0.5089596628738402,21.53317511529541Q0.4494415628738402,21.495892115295412,0.38717706287384024,21.45352311529541Q0.32491266287384013,21.41115311529541,0.26043926287384034,21.36406111529541Q0.1959661628738405,21.31697211529541,0.12983956287384046,21.26556611529541Q0.06371306287384026,21.21416011529541,-0.003496637126159774,21.158882115295413Q-0.07070603712615964,21.10360411529541,-0.13841903712615977,21.044931115295412Q-0.20613203712615968,20.98625811529541,-0.2737649371261597,20.92469611529541Q-0.34139763712615956,20.863133115295412,-0.4083670371261596,20.79921211529541Q-0.4753364371261597,20.73529111529541,-0.5410651371261597,20.66956211529541Q-0.6067937371261596,20.60383511529541,-0.6707148371261598,20.53686511529541Q-0.7346359371261597,20.469895115295408,-0.7961986371261596,20.40226211529541Q-0.8577610371261597,20.33463011529541,-0.9164341071261597,20.26691611529541Q-0.9751071971261597,20.19920311529541,-1.0303850171261597,20.13199311529541Q-1.0856627271261596,20.06478411529541,-1.1370686271261596,19.99865811529541Q-1.1884745971261597,19.93253111529541,-1.2355654871261597,19.868058115295412Q-1.2826563071261596,19.80358611529541,-1.3250260371261597,19.74132111529541Q-1.3673957571261597,19.67905711529541,-1.4046791771261598,19.619538115295413Q-1.4419624771261597,19.56002011529541,-1.4738379671261597,19.50376011529541Q-1.5057134371261598,19.44750111529541,-1.5319062471261597,19.394985115295412Q-1.5580990271261597,19.34247111529541,-1.5783832971261598,19.29415211529541Q-1.5986675571261597,19.24583311529541,-1.6128684271261597,19.20212711529541Q-1.6270692971261598,19.15842311529541,-1.6350643071261597,19.11970811529541Q-1.6430593171261596,19.08099311529541,-1.6447795671261596,19.047602115295412Q-1.6464997871261597,19.014212115295408,-1.6419303971261596,18.986433115295412Q-1.6373610471261597,18.95865411529541,-1.6265414671261595,18.93672611529541Q-1.6166887571261597,18.91675811529541,-1.6017250671261596,18.90179511529541Q-1.5867612971261598,18.886831115295408,-1.5667935571261595,18.876979115295413Q-1.5235213071261597,18.855626115295408,-1.4579578071261596,18.858640115295408Q-1.3923943071261595,18.86165411529541,-1.3067274071261596,18.88893511529541Q-1.2210605771261598,18.916215115295408,-1.1181490471261597,18.966850115295408Q-1.0152375071261597,19.017486115295412,-0.8985153371261596,19.089788115295413Q-0.7817933371261596,19.16208911529541,-0.6551557371261596,19.25364411529541Q-0.5285180371261597,19.345199115295408,-0.3961907371261597,19.45295011529541Q-0.26386353712615973,19.56070211529541,-0.1302622371261597,19.68105811529541Q0.0033388628738404424,19.80141211529541,0.1337557628738404,19.93035211529541C-0.022020237126159747,19.76064611529541,-0.016900037126159617,19.496832115295412,0.14831266287384048,19.33388611529541L1.8225279628738402,17.70892711529541C1.8270248628738401,17.704485915295407,1.8315950628738404,17.70016481529541,1.8362349628738404,17.69596291529541C0.5655444628738402,16.42058181529541,-0.7419574371261597,15.11664341529541,-1.7784522871261597,14.10739231529541C-1.8609083931261596,14.02723881529541,-1.9076926708761597,13.91752151529541,-1.9083162546171597,13.80255891529541C-1.9091636537961596,13.68759731529541,-1.8638343851261596,13.57703211529541,-1.7824336471261597,13.49582341529541C-0.2506309371261597,11.96363501529541,1.9895592628738403,11.40049051529541,4.04558816287384,11.99590821529541ZM4.79352006287384,12.47942831529541L8.14043906287384,9.13230471529541C8.29567806287384,8.97727388529541,8.51848706287384,8.88810235529541,8.75180206287384,8.88810235529541C8.95950006287384,8.88810235529541,9.145598062873841,8.95986169529541,9.27587806287384,9.09014131529541L11.05726306287384,10.87154221529541C11.20099006287384,11.01525281529541,11.29036806287384,11.24289011529541,11.29604406287384,11.48060111529541C11.30191306287384,11.71767211529541,11.226811062873841,11.93229461529541,11.08999206287384,12.06908181529541L7.66522606287384,15.493447815295411L4.796843162873841,12.61727671529541C4.80330096287384,12.57076881529541,4.8019457628738405,12.52426151529541,4.79352006287384,12.47942831529541ZM6.711245662873841,11.63970951529541C6.753217862873841,11.68168041529541,6.80817236287384,11.70265841529541,6.86314306287384,11.70265841529541C6.91811386287384,11.70265841529541,6.973068362873841,11.68166471529541,7.01503956287384,11.63970951529541L8.41649006287384,10.23824361529541C8.57679806287384,10.07836791529541,8.858350062873841,10.068086815295409,9.007097062873841,10.21662621529541L9.92097406287384,11.130518415295409C10.004885062873841,11.21444561529541,10.14085706287384,11.21444561529541,10.22476806287384,11.130518415295409C10.308679062873841,11.04659131529541,10.308679062873841,10.91065171529541,10.22476806287384,10.82672451529541L9.310891062873841,9.91283221529541C8.99197206287384,9.59372071529541,8.44335206287384,9.60379381529541,8.112696062873841,9.93444971529541L6.711245662873841,11.33591561529541C6.62733476287384,11.41984271529541,6.62733476287384,11.55578231529541,6.711245662873841,11.63970951529541ZM6.205062962873841,12.14552021529541C6.24703416287384,12.187699315295411,6.302212862873841,12.208677315295411,6.35739146287384,12.208677315295411C6.412139062873841,12.208677315295411,6.467109762873841,12.18790771529541,6.50885686287384,12.14595221529541L6.59195246287384,12.06328821529541C6.67608746287384,11.97958521529541,6.676262962873841,11.84362931529541,6.59257616287384,11.75949431529541C6.5086651628738394,11.67537541529541,6.37246906287384,11.67494341529541,6.2887822628738395,11.75907851529541L6.205686662873841,11.84172631529541C6.121583062873841,11.92544551529541,6.12137616287384,12.06138511529541,6.205062962873841,12.14552021529541Z" fill-rule="evenodd" fill="#0064FF" fill-opacity="1" style="mix-blend-mode:passthrough"/></g></g></svg>