<svg xmlns="http://www.w3.org/2000/svg" xmlns:xlink="http://www.w3.org/1999/xlink" fill="none" version="1.1" width="14" height="14" viewBox="0 0 14 14"><defs><clipPath id="master_svg0_17_6972"><rect x="0" y="0" width="14" height="14" rx="0"/></clipPath></defs><g clip-path="url(#master_svg0_17_6972)"><g><path d="M2.39986171875,8.09990234375C1.39985871875,9.09990234375,1.39985871875,10.69990234375,2.39986171875,11.59990234375C3.39986171875,12.49990234375,4.99986171875,12.59990234375,5.89986171875,11.59990234375L7.59986171875,9.89990234375L8.29986171875,10.59990234375L6.59986171875,12.29990234375C5.19986171875,13.69990234375,2.99986171875,13.69990234375,1.69986171875,12.29990234375C0.39985871875,10.89990234375,0.29985871875,8.69990234375,1.69986171875,7.39990234375L3.49986171875,5.59990234375L4.19986171875,6.29990234375L2.39986171875,8.09990234375ZM9.79986171875,7.69990234375L11.59981171875,5.89990234375C12.59981171875,4.89990234375,12.59981171875,3.29990234375,11.59981171875,2.39990234375C10.59986171875,1.49990234375,8.99986171875,1.39990234375,8.099861718749999,2.39990234375L6.29986171875,4.19990234375L5.59986171875,3.49990234375L7.39986171875,1.69990234375C8.79986171875,0.29990234375,10.99981171875,0.29990234375,12.29981171875,1.69990234375C13.59981171875,3.09990234375,13.69981171875,5.29990234375,12.29981171875,6.59990234375L10.49986171875,8.39990234375L9.79986171875,7.69990234375ZM7.69986171875,6.99990234375L11.19981171875,10.49990234375L10.49986171875,11.19990234375L6.99986171875,7.69990234375L7.69986171875,6.99990234375ZM6.29986171875,6.99990234375L2.79986171875,3.49990234375L3.49986171875,2.79990234375L6.99986171875,6.29990234375L6.29986171875,6.99990234375Z" fill="#0064FF" fill-opacity="1" style="mix-blend-mode:passthrough"/></g></g></svg>