<svg xmlns="http://www.w3.org/2000/svg" xmlns:xlink="http://www.w3.org/1999/xlink" fill="none" version="1.1" width="16" height="16" viewBox="0 0 16 16"><defs><clipPath id="master_svg0_28_4790"><rect x="0" y="0" width="16" height="16" rx="0"/></clipPath></defs><g clip-path="url(#master_svg0_28_4790)"><g><path d="M10.40913686217804,1.49959111L6.92206296217804,4.9789717C4.86598216217804,4.3834643,2.6257008621780393,4.9465964,1.0938509721780396,6.4788318C1.0124502181780395,6.5600405,0.9671209454580395,6.6706057,0.9679683446880396,6.7855678C0.9685919284780395,6.9005299,1.0153762101780395,7.0102477,1.0978323221780395,7.0904012C2.1187484621780395,8.0844831,3.4025863621780394,9.36446,4.65519966217804,10.6214457L1.2589561921780397,13.9699335C1.0900627421780396,14.1365085,1.0881760121780395,14.4083885,1.2547510821780397,14.5774895C1.3388700521780397,14.6626805,1.4496589921780396,14.7054675,1.5606397421780396,14.7054675C1.6697337621780397,14.7054675,1.7786200021780396,14.6643595,1.8623231621780394,14.5817115L5.261448062178039,11.2304105C5.91203276217804,11.8845025,6.54069336217804,12.5182925,7.10439976217804,13.0865915C7.80931386217804,13.7973895,8.417541662178039,14.4103985,8.848880862178039,14.8417705C8.92967426217804,14.9223075,9.03875266217804,14.9676535,9.15289886217804,14.9676535C9.266821962178039,14.9676535,9.376123562178039,14.9223075,9.45670996217804,14.8417705C10.95803176217804,13.3406275,11.53108066217804,11.1998685,10.99982666217804,9.1698074L14.573864662178039,5.6594906C14.87618866217804,5.3571677,15.04298666217804,4.913452599999999,15.03145866217804,4.4424437999999995C15.02031466217804,3.9827714,14.84158766217804,3.5463953,14.54113466217804,3.2461667L12.75971866217804,1.46371138C12.46726166217804,1.17125368,12.06529366217804,1.0078125,11.62808666217804,1.0078125C11.16862166217804,1.0078125,10.72426716217804,1.18447673,10.40913686217804,1.49959111ZM11.01672466217804,2.1155573L7.66984376217804,5.4626422C7.67824806217804,5.5074811,7.679580362178039,5.5539923,7.673098162178039,5.6005006L10.54151066217804,8.4767008L13.96627766217804,5.0523348C14.10309566217804,4.9155473999999995,14.17819766217804,4.7009249,14.17232966217804,4.4638538C14.166653662178039,4.2261429,14.07727466217804,3.9985056,13.93354766217804,3.854795L12.15216266217804,2.0733939C12.02188266217804,1.94311428,11.835784662178039,1.87135494,11.62808666217804,1.87135494C11.39477266217804,1.87135494,11.17196366217804,1.96052647,11.01672466217804,2.1155573ZM9.73942766217804,4.6859112C9.68445696217804,4.6859112,9.62950246217804,4.6649332,9.58753026217804,4.622961999999999C9.50361936217804,4.5390348,9.50361936217804,4.4030952,9.58753026217804,4.319168100000001L10.98898066217804,2.9177022C11.31963666217804,2.5870464,11.86825666217804,2.5769732000000003,12.18717566217804,2.8960847999999997L13.10105266217804,3.8099771C13.18496366217804,3.8939042,13.18496366217804,4.0298438,13.10105266217804,4.113771C13.01714166217804,4.1976981,12.88116966217804,4.1976981,12.79725866217804,4.113771L11.88338166217804,3.1998787C11.73463466217804,3.0513394,11.453082662178039,3.0616205,11.29277466217804,3.2214961L9.891324162178039,4.622961999999999C9.84935296217804,4.6649175,9.794398462178039,4.6859112,9.73942766217804,4.6859112ZM9.23367606217804,5.1916857C9.17849746217804,5.1916857,9.12331876217804,5.1707077,9.08134756217804,5.1285286C8.99766076217804,5.0443935,8.99786766217804,4.9084539,9.08197126217804,4.8247347000000005L9.165066862178039,4.7420869C9.24875366217804,4.6579518,9.384949762178039,4.6583838,9.46886076217804,4.7425027C9.55254756217804,4.8266377,9.552372062178039,4.9625936,9.468237062178039,5.0462966L9.385141462178039,5.1289606C9.34339436217804,5.1709161,9.28842366217804,5.1916857,9.23367606217804,5.1916857ZM6.7009564621780395,5.8094912L10.11609566217804,9.2015629C10.61437146217804,10.8529844,10.24556176217804,12.6115305,9.140555462178039,13.9173885C8.74821386217804,13.5233845,8.26043236217804,13.0316215,7.714513862178039,12.4810825C6.01553836217804,10.7685947,3.7274731621780397,8.461855400000001,2.0222133621780394,6.7920594C3.3167523621780397,5.7030158,5.07760246217804,5.332664,6.7009564621780395,5.8094912Z" fill-rule="evenodd" fill="#666666" fill-opacity="1" style="mix-blend-mode:passthrough"/></g></g></svg>