<svg xmlns="http://www.w3.org/2000/svg" xmlns:xlink="http://www.w3.org/1999/xlink" fill="none" version="1.1" width="14" height="14" viewBox="0 0 14 14"><defs><clipPath id="master_svg0_17_6963"><rect x="0" y="0" width="14" height="14" rx="0"/></clipPath></defs><g clip-path="url(#master_svg0_17_6963)"><g><path d="M12.448340625,2.9194523437499997C10.994540625,1.12394734375,8.360330625,0.84701034375,6.564390625,2.30126034375L5.186700625,3.41688234375L5.874890625,4.26695234375L7.252580625,3.15132234375C8.578690625,2.07670234375,10.524930625,2.28092134375,11.599140625,3.60740234375C12.673240625,4.93388234375,12.468340625,6.88005234375,11.141540625,7.95376234375L9.665390625,9.14901234375L10.353580625,9.99907234375L11.829740625,8.80382234375C13.625640625,7.34985234375,13.902640625,4.71513234375,12.448340625,2.9194523437499997ZM7.059640625,11.25951234375C5.733480625,12.33345234375,3.787850625,12.12895234375,2.713950625,10.80276234375C1.6400546249999999,9.47660234375,1.8445476250000001,7.53097234375,3.170700625,6.45707234375L4.687950625,5.22857234375L3.999770625,4.37851234375L2.4825206250000003,5.60701234375C0.687016625,7.06082234375,0.41007962499999995,9.69545234375,1.863891625,11.49095234375C3.317700625,13.28645234375,5.952330625,13.56335234375,7.747830625,12.10955234375L9.185020625,10.94582234375L8.496830625000001,10.09576234375L7.059640625,11.25951234375Z" fill="#333333" fill-opacity="1" style="mix-blend-mode:passthrough"/></g><g><path d="M9.2444115625,4.830078125L9.9448515625,5.670078125L5.2478515625,9.584388125L4.5478515625,8.744388125L9.2444115625,4.830078125Z" fill="#333333" fill-opacity="1" style="mix-blend-mode:passthrough"/></g></g></svg>