<svg xmlns="http://www.w3.org/2000/svg" xmlns:xlink="http://www.w3.org/1999/xlink" fill="none" version="1.1" width="42" height="42" viewBox="0 0 42 42"><defs><mask id="master_svg0_329_55836" style="mask-type:alpha" maskUnits="objectBoundingBox"><g><ellipse cx="21" cy="21" rx="21" ry="21" fill="#FFFFFF" fill-opacity="1"/></g></mask></defs><g><g><g mask="url(#master_svg0_329_55836)"><g><ellipse cx="21" cy="21" rx="21" ry="21" fill="#080808" fill-opacity="1"/></g><g><path d="M13.5652938,19.5149169L13.0358822,19.5149169C11.89529413,19.5149169,11,20.540905000000002,11,21.7456913L11,27.769024C11,29.017012,11.936470570000001,29.999802,13.0364707,29.999802L13.5247059,29.999802C14.6382351,29.996799,15.553528799999999,29.014612,15.6023526,27.769024L15.6023526,21.7456913C15.6017642,20.497105599999998,14.6652939,19.5149159,13.5652938,19.5149169ZM30.059412,19.2665195C29.464117,18.6113267,28.622942,18.2591305,27.731176,18.2591305L24.117058999999998,18.208131299999998C24.361753999999998,17.445447899999998,24.445940999999998,16.638689,24.364117999999998,15.8405578C24.117646999999998,13.4711838,22.383529,11.85840155,21.047059,12.0095998878C20.3541183,12.060599312,19.6105881,12.61439312,19.7094116,13.975778C19.7094116,14.0255775,19.9582357,16.9481444,18.0258827,19.1657205C17.4317651,19.7705131,17.1358829,20.576304399999998,17.1358829,21.433694799999998L17.1358829,26.674037C17.1352234,28.4862,18.5780625,29.954115,20.354706800000002,29.948799L26.592941,29.999802C29.217646,29.999802,30.850588,26.824635,30.999998,21.5338936C30.949409,20.7281027,30.652941,19.8707128,30.059412,19.2665195L30.059412,19.2665195Z" fill="#FFFFFF" fill-opacity="1" style="mix-blend-mode:passthrough"/></g></g></g></g></svg>