<svg xmlns="http://www.w3.org/2000/svg" xmlns:xlink="http://www.w3.org/1999/xlink" fill="none" version="1.1" width="42" height="42" viewBox="0 0 42 42"><defs><mask id="master_svg0_329_55824" style="mask-type:alpha" maskUnits="objectBoundingBox"><g><ellipse cx="21" cy="21" rx="21" ry="21" fill="#FFFFFF" fill-opacity="1"/></g></mask></defs><g><g><g mask="url(#master_svg0_329_55824)"><g><ellipse cx="21" cy="21" rx="21" ry="21" fill="#080808" fill-opacity="1"/></g><g><path d="M29.394867,14.3275142L20.768949,14.3275142L18.4070911,11.8125L12.6051342,11.8125C11.47555012,11.8125,10.5,12.73638272,10.5,13.9168997L10.5,28.083101C10.5,29.212292,11.4242053,30.1875,12.6051342,30.1875L29.394867,30.1875C30.52445,30.1875,31.5,29.263618,31.5,28.083101L31.5,16.431913899999998C31.5,15.2513971,30.52445,14.3275142,29.394867,14.3275142Z" fill="#FFFFFF" fill-opacity="1" style="mix-blend-mode:passthrough"/></g><g><path d="M19.6139321,20.3412491C19.5451765,20.4693637,19.4417565,20.5526626,19.3327892,20.5639999L17.71423155,20.7988112C17.090395065,20.9025934,16.84420738,21.6803858,17.28911427,22.1432548L18.4529757,23.3150001C18.5466166,23.4124694,18.5910399,23.5439415,18.5681244,23.662990100000002L18.2863076,25.3241062C18.1864557,25.9732027,18.8350768,26.464826600000002,19.3849316,26.1528268L20.8242574,25.3750334C20.9409339,25.3076954,21.05948,25.3076954,21.1715331,25.3724294L22.6188297,26.154685C23.1653566,26.464826600000002,23.8139677,25.9732027,23.7146082,25.327171800000002L23.4330831,23.6673021C23.421113,23.537529,23.463123799999998,23.4027605,23.5496893,23.312748L24.7091484,22.1455159C25.1562262,21.6804161,24.910049,20.9026136,24.2899313,20.7994342L22.674911,20.5649347C22.546414900000002,20.5378587,22.4350748,20.4546096,22.3892946,20.3474709L21.6745415,18.82091087C21.4010863,18.22614874,20.5993257,18.22614874,20.3252881,18.82219738L19.6139321,20.3412491Z" fill="#080808" fill-opacity="1" style="mix-blend-mode:passthrough"/></g></g></g></g></svg>