<svg xmlns="http://www.w3.org/2000/svg" xmlns:xlink="http://www.w3.org/1999/xlink" fill="none" version="1.1" width="42" height="42" viewBox="0 0 42 42"><defs><mask id="master_svg0_337_49503" style="mask-type:alpha" maskUnits="objectBoundingBox"><g><ellipse cx="21" cy="21" rx="21" ry="21" fill="#FFFFFF" fill-opacity="1"/></g></mask></defs><g><g><g mask="url(#master_svg0_337_49503)"><g><ellipse cx="21" cy="21" rx="21" ry="21" fill="#080808" fill-opacity="1"/></g><g transform="matrix(1,0,0,-1,0,64)"><path d="M13.5652938,39.5149169L13.0358822,39.5149169C11.89529413,39.5149169,11,40.540905,11,41.745691300000004L11,47.769024C11,49.017012,11.936470570000001,49.999802,13.0364707,49.999802L13.5247059,49.999802C14.6382351,49.996798999999996,15.553528799999999,49.014612,15.6023526,47.769024L15.6023526,41.745691300000004C15.6017642,40.4971056,14.6652939,39.5149159,13.5652938,39.5149169ZM30.059412,39.2665195C29.464117,38.6113267,28.622942,38.2591305,27.731176,38.2591305L24.117058999999998,38.2081313C24.361753999999998,37.4454479,24.445940999999998,36.638689,24.364117999999998,35.8405578C24.117646999999998,33.4711838,22.383529,31.85840155,21.047059,32.0095998878C20.3541183,32.060599312,19.6105881,32.61439312,19.7094116,33.975778C19.7094116,34.0255775,19.9582357,36.948144400000004,18.0258827,39.1657205C17.4317651,39.7705131,17.1358829,40.5763044,17.1358829,41.4336948L17.1358829,46.674037C17.1352234,48.4862,18.5780625,49.954115,20.354706800000002,49.948799L26.592941,49.999802C29.217646,49.999802,30.850588,46.824635,30.999998,41.5338936C30.949409,40.7281027,30.652941,39.8707128,30.059412,39.2665195L30.059412,39.2665195Z" fill="#FFFFFF" fill-opacity="1" style="mix-blend-mode:passthrough"/></g></g></g></g></svg>