<svg xmlns="http://www.w3.org/2000/svg" xmlns:xlink="http://www.w3.org/1999/xlink" fill="none" version="1.1" width="13.3330078125" height="13.000244140625" viewBox="0 0 13.3330078125 13.000244140625"><g><g><path d="M3.9011891,12.822418C3.3400221,13.171084,2.6061888,12.990751,2.2653558,12.423084C2.1037815,12.153557,2.0535638,11.831687,2.125356,11.52575L2.8516893,8.4282513C2.8693135,8.3547935,2.8451796,8.2775917,2.788856,8.2272511L0.41135591,6.1555839C-0.082477413,5.725584,-0.13947739,4.9735837,0.28268921,4.4722509C0.48558593,4.2306671,0.77660638,4.0801764,1.0910227,4.0542512L4.2111888,3.8000844C4.2791891,3.7944179,4.3400226,3.7495847,4.367856,3.6814177L5.5700231,0.74125111C5.8205223,0.12875107,6.51719,-0.16374892,7.1250224,0.093417816C7.4149113,0.21661454,7.6442738,0.44951278,7.7630224,0.74125111L8.965189,3.6812513C8.993022,3.7495847,9.0538559,3.7945843,9.1218548,3.8000848L12.242357,4.0544186C12.896689,4.1077518,13.381188,4.6865854,13.329355,5.3437519C13.305008,5.6573601,13.158711,5.9489336,12.921855,6.1559186L10.544355,8.2275858C10.489021,8.2757521,10.464022,8.3537521,10.481522,8.4284191L11.207855,11.525919C11.358189,12.166754,10.967854,12.812419,10.330689,12.96692C10.02385,13.041389,9.699955,12.98938,9.4318562,12.822586L6.760355,11.162586C6.7029819,11.126575,6.6300607,11.126575,6.5726881,11.162586L3.9010212,12.822586L3.9011891,12.822418ZM7.2883558,10.313086L9.959856,11.973085C10.000856,11.998419,10.049189,12.006251,10.095023,11.995084C10.195189,11.970752,10.260021,11.863419,10.234522,11.754085L9.5081892,8.6565847C9.4058914,8.2223349,9.5518246,7.767096,9.8875227,7.4732518L12.265022,5.4017515C12.303855,5.3679175,12.328358,5.3187513,12.332691,5.2650847C12.341524,5.153584,12.262522,5.0592513,12.161189,5.051084L9.0406904,4.7965841C8.5948086,4.7591567,8.2078323,4.4742398,8.039691,4.0595837L6.8375244,1.1195836C6.8187275,1.0723506,6.7819953,1.0344799,6.7353568,1.0142504C6.6431904,0.97525042,6.5365238,1.0200837,6.4958572,1.1195836L5.2935233,4.0595837C5.1253829,4.4742403,4.7384062,4.7591572,4.2925239,4.7965841L1.1721905,5.051084C1.1235708,5.0553169,1.0786721,5.0788465,1.0475239,5.1164179C0.97687507,5.2017412,0.98606408,5.3275943,1.0683571,5.4017506L3.4458568,7.4734178C3.781554,7.7672625,3.9274869,8.2225008,3.8251905,8.6567507L3.0988569,11.754083C3.0864415,11.80665,3.0949268,11.861986,3.1225235,11.908418C3.1770239,11.998919,3.2878573,12.026084,3.3735242,11.972918L6.0451908,10.313083C6.4257469,10.076272,6.9078007,10.076272,7.2883558,10.313086Z" fill="#0064FF" fill-opacity="1"/></g><g><path d="M0.666748046875,4.5L0.666748046875,5.5L2.666748046875,7.5L3.166748046875,8L3.166748046875,10L2.166748046875,12L3.166748046875,12.5L4.166748046875,12L6.666748046875,11L9.666748046875,12.5L10.666748046875,12L10.166748046875,8L12.666748046875,5L8.666748046875,4.5L6.666748046875,0.5L6.166748046875,0.5L4.666748046875,4L0.666748046875,4.5Z" fill="#0064FF" fill-opacity="1"/></g></g></svg>