<svg xmlns="http://www.w3.org/2000/svg" xmlns:xlink="http://www.w3.org/1999/xlink" fill="none" version="1.1" width="14" height="14" viewBox="0 0 14 14"><g><path d="M11,7Q11,7.1965075,10.980739100000001,7.3920684Q10.9614778,7.5876293,10.923140499999999,7.7803607Q10.8848038,7.9730926,10.827760699999999,8.1611385Q10.770717600000001,8.349184000000001,10.6955171,8.530733099999999Q10.620317499999999,8.7122822,10.5276842,8.8855863Q10.435051399999999,9.0588903,10.3258772,9.222279499999999Q10.216704400000001,9.3856702,10.092041,9.5375729Q9.9673786,9.6894751,9.8284264,9.8284264Q9.6894751,9.9673786,9.5375729,10.092041Q9.3856702,10.216704400000001,9.222279499999999,10.3258772Q9.0588903,10.435051399999999,8.885586700000001,10.5276847Q8.7122822,10.620317499999999,8.530733099999999,10.695517500000001Q8.349184000000001,10.7707181,8.1611385,10.827761200000001Q7.9730926,10.8848042,7.7803607,10.923140499999999Q7.5876293,10.9614778,7.3920689,10.980739100000001Q7.1965075,11,7,11Q6.8034928,11,6.607931600000001,10.980739100000001Q6.4123702,10.9614778,6.2196386,10.923140499999999Q6.026907,10.8848038,5.8388612,10.827760699999999Q5.6508152,10.770717600000001,5.4692659,10.6955171Q5.2877168999999995,10.620317499999999,5.1144128,10.5276842Q4.9411089,10.435051399999999,4.7777189,10.3258772Q4.6143291,10.216704400000001,4.4624269000000005,10.092041Q4.3105247,9.9673786,4.1715728,9.8284264Q4.0326211,9.6894751,3.90795821,9.5375729Q3.78329521,9.3856702,3.6741215,9.222279499999999Q3.56494784,9.0588903,3.47231492,8.885586700000001Q3.37968194,8.7122822,3.30448183,8.530733099999999Q3.22928172,8.349184000000001,3.17223865,8.1611385Q3.11519556,7.9730926,3.0768588709999998,7.7803607Q3.038522184,7.5876293,3.019261092,7.3920689Q3,7.1965075,3,7Q3,6.8034928,3.019261092,6.607931600000001Q3.038522184,6.4123702,3.0768588709999998,6.2196386Q3.11519556,6.026907,3.17223865,5.8388612Q3.22928172,5.6508152,3.30448183,5.4692659Q3.37968194,5.2877168999999995,3.47231489,5.1144128Q3.56494784,4.9411089,3.6741215,4.7777189Q3.78329521,4.6143291,3.90795815,4.4624269000000005Q4.0326211,4.3105247,4.1715728,4.1715728Q4.3105247,4.0326211,4.4624269000000005,3.90795821Q4.6143292,3.78329521,4.777719,3.6741215Q4.9411089,3.56494784,5.1144128,3.47231492Q5.2877168999999995,3.37968194,5.4692659,3.30448183Q5.6508152,3.22928172,5.8388612,3.17223865Q6.026907,3.11519556,6.2196386,3.0768588709999998Q6.4123702,3.038522184,6.607931600000001,3.019261092Q6.8034928,3,7,3Q7.1965075,3,7.3920684,3.019261092Q7.5876293,3.038522184,7.7803607,3.0768588709999998Q7.9730926,3.11519556,8.1611385,3.17223865Q8.349184000000001,3.22928172,8.530733099999999,3.30448183Q8.7122822,3.37968194,8.8855863,3.47231489Q9.0588903,3.56494784,9.222279499999999,3.6741215Q9.3856702,3.78329521,9.5375729,3.90795815Q9.6894751,4.0326211,9.8284264,4.1715728Q9.9673786,4.3105247,10.092041,4.4624269000000005Q10.216704400000001,4.6143292,10.3258772,4.777719Q10.435051399999999,4.9411089,10.5276847,5.1144128Q10.620317499999999,5.2877168999999995,10.695517500000001,5.4692659Q10.7707181,5.6508152,10.827761200000001,5.8388612Q10.8848042,6.026907,10.923140499999999,6.2196386Q10.9614778,6.4123702,10.980739100000001,6.607931600000001Q11,6.8034928,11,7Z" fill="#A5BDFF" fill-opacity="1"/><path d="M7,14Q7.1718407,14,7.3434739,13.991568Q7.5151072,13.983136,7.68612,13.966293Q7.8571329,13.94945,8.027113400000001,13.924235Q8.197094,13.899021,8.3656321,13.865496Q8.5341702,13.831972,8.700861,13.790217Q8.867551299999999,13.748465,9.0319924,13.698582Q9.1964331,13.648699,9.3582287,13.590807Q9.5200233,13.532916,9.6787834,13.467155Q9.837543,13.401396,9.992885099999999,13.327925Q10.1482267,13.254454,10.299776999999999,13.173449Q10.4513264,13.092443,10.5987186,13.004099Q10.7461109,12.9157562,10.8889904,12.8202868Q11.0318699,12.7248173,11.1698942,12.6224527Q11.3079185,12.5200882,11.440753,12.4110737Q11.5735874,12.3020592,11.7009125,12.1866579Q11.8282375,12.0712566,11.9497471,11.9497471Q12.0712566,11.8282375,12.1866579,11.7009125Q12.3020592,11.5735874,12.4110737,11.440753Q12.5200882,11.3079185,12.6224537,11.1698952Q12.7248173,11.0318718,12.8202868,10.8889914Q12.9157562,10.7461109,13.004099,10.5987186Q13.092443,10.4513264,13.173449,10.299776600000001Q13.254454,10.1482267,13.327925,9.9928846Q13.401396,9.837543,13.467155,9.6787834Q13.532916,9.5200233,13.590807,9.3582282Q13.648699,9.196433500000001,13.698582,9.031992899999999Q13.748465,8.867551800000001,13.790217,8.700861Q13.831972,8.5341702,13.865496,8.3656321Q13.899021,8.197094,13.924234,8.027113400000001Q13.94945,7.8571329,13.966293,7.68612Q13.983136,7.5151072,13.991569,7.3434739Q14,7.1718407,14,7Q14,6.8281596,13.991568,6.6565262999999995Q13.983136,6.4848928,13.966293,6.31388Q13.94945,6.1428671,13.924235,5.9728863Q13.899021,5.802906,13.865496,5.6343675Q13.831972,5.4658289,13.790217,5.2991385Q13.748465,5.1324482,13.698582,4.9680073Q13.648699,4.8035662,13.590807,4.6417708Q13.532916,4.4799757,13.467155,4.3212159Q13.401396,4.162456,13.327925,4.0071143Q13.254454,3.85177243,13.173449,3.70022285Q13.092443,3.54867315,13.004099,3.40128079Q12.9157562,3.25388837,12.8202868,3.11100836Q12.7248173,2.968128331,12.6224527,2.83010487Q12.5200882,2.69208142,12.4110737,2.55924702Q12.3020592,2.42641264,12.1866579,2.2990873499999998Q12.0712566,2.17176205,11.9497471,2.05025256Q11.8282375,1.9287431,11.7009125,1.8133422Q11.5735874,1.6979413,11.440753,1.5889268Q11.3079185,1.4799125,11.1698952,1.3775474Q11.0318718,1.2751822,10.8889914,1.179713Q10.7461109,1.0842435,10.5987186,0.9958999Q10.4513264,0.9075563,10.299776600000001,0.8265511999999999Q10.1482267,0.7455463,9.9928846,0.6720752999999999Q9.837543,0.5986039999999999,9.6787834,0.5328436000000001Q9.5200233,0.46708300000000014,9.3582282,0.4091916000000002Q9.196433500000001,0.35130019999999984,9.031992899999999,0.3014176000000002Q8.867551800000001,0.2515352000000002,8.700861,0.20978139999999978Q8.5341702,0.16802789999999979,8.3656321,0.13450339999999983Q8.197094,0.10097889999999987,8.027113400000001,0.07576470000000013Q7.8571329,0.05055049999999994,7.68612,0.03370689999999987Q7.5151072,0.016863799999999873,7.3434739,0.008431900000000159Q7.1718407,0,7,0Q6.6578021,0,6.3172355,0.033377199999999885Q5.9766693,0.06675429999999993,5.6409822,0.13319040000000015Q5.3052955,0.1996264000000001,4.977689,0.29848810000000014Q4.6500827000000005,0.3973498000000002,4.3336811,0.5276939999999999Q4.0172796,0.6580381000000002,3.71510017,0.8186219000000001Q3.41292077,0.9792055999999998,3.12784521,1.1684977Q2.84276962,1.3577896,2.5775164999999998,1.5739847Q2.31226331,1.7901798,2.06936216,2.03121632Q2.05985099,2.0406649100000003,2.05035055,2.05016494Q2.04079115,2.0597239099999998,2.03126824,2.06930995Q1.790226,2.31221181,1.5740255,2.57746655Q1.357825,2.8427213,1.1685283,3.12779923Q0.9792314000000002,3.41287714,0.8186436000000001,3.71505958Q0.6580555000000001,4.0172419999999995,0.5277080999999999,4.333647Q0.3973602999999999,4.6500523000000005,0.2984960000000001,4.9776626Q0.19963169999999986,5.3052731,0.13319400000000003,5.640964Q0.06675580000000014,5.9766557,0.03337790000000007,6.3172266Q-2.0000000011677344e-7,6.6577978,0,7Q0,7.342114,0.033361000000000196,7.6825976Q0.06672190000000011,8.023080799999999,0.13312549999999979,8.3586888Q0.19952939999999986,8.694296399999999,0.29834320000000014,9.0218291Q0.397157,9.3493619,0.5274386,9.6656981Q0.6577206000000002,9.982034200000001,0.8182285,10.284158699999999Q0.9787363999999998,10.5862832,1.1679409,10.871316400000001Q1.3571453,11.1563492,1.5732425,11.4215736Q1.7893399,11.6867981,2.0302704,11.9296856Q2.04031485,11.9397993,2.05035043,11.9498348Q2.06028235,11.9597664,2.07035673,11.9697704Q2.31324381,12.2106972,2.57846674,12.4267902Q2.84368971,12.6428833,3.1287205399999998,12.8320827Q3.41375136,13.021284,3.71587336,13.181788Q4.0179954,13.342293,4.3343287,13.472572Q4.6506621,13.602852,4.9781919,13.701664Q5.305721500000001,13.800475,5.641325699999999,13.866877Q5.976930100000001,13.933279,6.317410000000001,13.96664Q6.6578897999999995,14,7,14ZM7,11Q6.8034928,11,6.607931600000001,10.980739100000001Q6.4123702,10.9614778,6.2196386,10.923140499999999Q6.026907,10.8848038,5.8388612,10.827760699999999Q5.6508152,10.770717600000001,5.4692659,10.6955171Q5.2877168999999995,10.620317499999999,5.1144128,10.5276842Q4.9411089,10.435051399999999,4.7777189,10.3258772Q4.6143291,10.216704400000001,4.4624269000000005,10.092041Q4.3105247,9.9673786,4.1715728,9.8284264Q4.0326211,9.6894751,3.90795821,9.5375729Q3.78329521,9.3856702,3.6741215,9.222279499999999Q3.56494784,9.0588903,3.47231492,8.885586700000001Q3.37968194,8.7122822,3.30448183,8.530733099999999Q3.22928172,8.349184000000001,3.17223865,8.1611385Q3.11519556,7.9730926,3.0768588709999998,7.7803607Q3.038522184,7.5876293,3.019261092,7.3920689Q3,7.1965075,3,7Q3,6.8034928,3.019261092,6.607931600000001Q3.038522184,6.4123702,3.0768588709999998,6.2196386Q3.11519556,6.026907,3.17223865,5.8388612Q3.22928172,5.6508152,3.30448183,5.4692659Q3.37968194,5.2877168999999995,3.47231489,5.1144128Q3.56494784,4.9411089,3.6741215,4.7777189Q3.78329521,4.6143291,3.90795815,4.4624269000000005Q4.0326211,4.3105247,4.1715728,4.1715728Q4.3105247,4.0326211,4.4624269000000005,3.90795821Q4.6143292,3.78329521,4.777719,3.6741215Q4.9411089,3.56494784,5.1144128,3.47231492Q5.2877168999999995,3.37968194,5.4692659,3.30448183Q5.6508152,3.22928172,5.8388612,3.17223865Q6.026907,3.11519556,6.2196386,3.0768588709999998Q6.4123702,3.038522184,6.607931600000001,3.019261092Q6.8034928,3,7,3Q7.1965075,3,7.3920684,3.019261092Q7.5876293,3.038522184,7.7803607,3.0768588709999998Q7.9730926,3.11519556,8.1611385,3.17223865Q8.349184000000001,3.22928172,8.530733099999999,3.30448183Q8.7122822,3.37968194,8.8855863,3.47231489Q9.0588903,3.56494784,9.222279499999999,3.6741215Q9.3856702,3.78329521,9.5375729,3.90795815Q9.6894751,4.0326211,9.8284264,4.1715728Q9.9673786,4.3105247,10.092041,4.4624269000000005Q10.216704400000001,4.6143292,10.3258772,4.777719Q10.435051399999999,4.9411089,10.5276847,5.1144128Q10.620317499999999,5.2877168999999995,10.695517500000001,5.4692659Q10.7707181,5.6508152,10.827761200000001,5.8388612Q10.8848042,6.026907,10.923140499999999,6.2196386Q10.9614778,6.4123702,10.980739100000001,6.607931600000001Q11,6.8034928,11,7Q11,7.1965075,10.980739100000001,7.3920684Q10.9614778,7.5876293,10.923140499999999,7.7803607Q10.8848038,7.9730926,10.827760699999999,8.1611385Q10.770717600000001,8.349184000000001,10.6955171,8.530733099999999Q10.620317499999999,8.7122822,10.5276842,8.8855863Q10.435051399999999,9.0588903,10.3258772,9.222279499999999Q10.216704400000001,9.3856702,10.092041,9.5375729Q9.9673786,9.6894751,9.8284264,9.8284264Q9.6894751,9.9673786,9.5375729,10.092041Q9.3856702,10.216704400000001,9.222279499999999,10.3258772Q9.0588903,10.435051399999999,8.885586700000001,10.5276847Q8.7122822,10.620317499999999,8.530733099999999,10.695517500000001Q8.349184000000001,10.7707181,8.1611385,10.827761200000001Q7.9730926,10.8848042,7.7803607,10.923140499999999Q7.5876293,10.9614778,7.3920689,10.980739100000001Q7.1965075,11,7,11Z" fill-rule="evenodd" fill="#FBFBFB" fill-opacity="1"/></g></svg>