<svg xmlns="http://www.w3.org/2000/svg" xmlns:xlink="http://www.w3.org/1999/xlink" fill="none" version="1.1" width="42" height="42" viewBox="0 0 42 42"><defs><mask id="master_svg0_385_60799" style="mask-type:alpha" maskUnits="objectBoundingBox"><g><ellipse cx="21" cy="21" rx="21" ry="21" fill="#FFFFFF" fill-opacity="1"/></g></mask><clipPath id="master_svg1_385_60793"><rect x="11" y="11" width="20" height="20" rx="0"/></clipPath></defs><g><g><g><g mask="url(#master_svg0_385_60799)"><g><ellipse cx="21" cy="21" rx="21" ry="21" fill="#080808" fill-opacity="1"/></g><g><path d="M19.6139321,20.3412491C19.5451765,20.4693637,19.4417565,20.5526626,19.3327892,20.5639999L17.71423155,20.7988112C17.090395065,20.9025934,16.84420738,21.6803858,17.28911427,22.1432548L18.4529757,23.3150001C18.5466166,23.4124694,18.5910399,23.5439415,18.5681244,23.662990100000002L18.2863076,25.3241062C18.1864557,25.9732027,18.8350768,26.464826600000002,19.3849316,26.1528268L20.8242574,25.3750334C20.9409339,25.3076954,21.05948,25.3076954,21.1715331,25.3724294L22.6188297,26.154685C23.1653566,26.464826600000002,23.8139677,25.9732027,23.7146082,25.327171800000002L23.4330831,23.6673021C23.421113,23.537529,23.463123799999998,23.4027605,23.5496893,23.312748L24.7091484,22.1455159C25.1562262,21.6804161,24.910049,20.9026136,24.2899313,20.7994342L22.674911,20.5649347C22.546414900000002,20.5378587,22.4350748,20.4546096,22.3892946,20.3474709L21.6745415,18.82091087C21.4010863,18.22614874,20.5993257,18.22614874,20.3252881,18.82219738L19.6139321,20.3412491Z" fill="#080808" fill-opacity="1" style="mix-blend-mode:passthrough"/></g></g></g></g><g><g clip-path="url(#master_svg1_385_60793)"><g><path d="M26.153126,18.671370056249998L23.121876,15.30511995625L14.1400001,23.56386915625L13.39062506,27.23449515625L17.1125002,26.98386915625L26.153126,18.671370056249998ZM29.163128,15.49136945625L26.600627,12.54324408625L26.595002,12.536994086250001C26.478279999999998,12.41008052625,26.280819,12.40168981225,26.153751,12.51824408025L23.591876,14.87324425625L26.622501,18.23949435625L29.138752,15.925744256249999C29.263523,15.811612556250001,29.274345,15.61874295625,29.163128,15.49136945625ZM12.875,28.50012015625L29.125002,28.50012015625L29.125002,29.75012015625L12.875,29.75012015625L12.875,28.50012015625Z" fill="#FFFFFF" fill-opacity="1" style="mix-blend-mode:passthrough"/></g></g></g></g></svg>