<svg xmlns="http://www.w3.org/2000/svg" xmlns:xlink="http://www.w3.org/1999/xlink" fill="none" version="1.1" width="50" height="50" viewBox="0 0 50 50"><rect x="0" y="0" width="50" height="50" rx="8" fill="#F5F7FE" fill-opacity="1"/><path d="M24.34999236134033,15.966389298439026L33.12499356134033,15.966389298439026C33.839993561340336,15.966389298439026,34.424994561340334,16.556305408439027,34.424994561340334,17.277313598439026L34.424994561340334,18.915969298439027C34.424994561340334,19.636977098439026,33.83999556134033,20.226893498439026,33.12499356134033,20.226893498439026L24.34999236134033,20.226893498439026C23.63499266134033,20.226893498439026,23.049992561340332,19.636977098439026,23.049992561340332,18.915969298439027L23.049992561340332,17.277313598439026C23.049992561340332,16.556305048439025,23.63499266134033,15.966389298439026,24.34999236134033,15.966389298439026Z" fill="#C1D6FF" fill-opacity="1" style="mix-blend-mode:passthrough"/><path d="M35.399998,36.285713L14.5999997,36.285713C13.1699998,36.285713,12,35.105881,12,33.663866L12,16.6218488C12,15.1798317,13.1700001,14,14.5999997,14L22.075,14C23.862499,14.4915967,23.504998,15.4092435,24.674999,16.6218488L25.4875,17.9327731L35.399998,17.9327731C36.83,17.9327731,38,19.112605600000002,38,20.5546222L38,33.663866C38,35.105881,36.83,36.285713,35.399998,36.285713Z" fill="#5C90F7" fill-opacity="1"/></svg>