<svg xmlns="http://www.w3.org/2000/svg" xmlns:xlink="http://www.w3.org/1999/xlink" fill="none" version="1.1" width="16" height="14.188393592834473" viewBox="0 0 16 14.188393592834473"><g><path d="M15.792319,1.4782971C15.659248,1.3452549,15.478762,1.2705462,15.29059,1.2706171L7.0874248,1.2706171L6.8587413,0.51075941C6.7708011,0.2094467,6.4953995,0.0017666543,6.1815233,0L0.70941007,0C0.52135956,0,0.34076816,0.074788369,0.20768024,0.20768005C0.074637897,0.34075189,-0.000070735179,0.52123857,1.9169427e-7,0.70940989L1.9169427e-7,13.478592C-0.00012728499,13.66683,0.074585944,13.8474,0.20768024,13.980517C0.34075403,14.113581,0.52122283,14.188353,0.70941007,14.188394L15.29059,14.188394C15.478837,14.188394,15.659231,14.113605,15.792319,13.980517C15.925367,13.84737,16.000072,13.666821,15.999999,13.478592L15.999999,1.980027C16.00016,1.7918376,15.925438,1.6113176,15.792319,1.4782971ZM14.894465,3.6650224L1.1090666,3.6650224L1.1090666,3.052386C1.1090883,2.660599,1.4266894,2.3429976,1.8184764,2.3429763L14.184861,2.3429763C14.576649,2.3429973,14.894249,2.6605983,14.89427,3.052386L14.89427,3.6650224L14.894465,3.6650224Z" fill="#666666" fill-opacity="1"/></g></svg>