<svg xmlns="http://www.w3.org/2000/svg" xmlns:xlink="http://www.w3.org/1999/xlink" fill="none" version="1.1" width="32" height="32" viewBox="0 0 32 32"><defs><filter id="master_svg0_439_58894" filterUnits="objectBoundingBox" color-interpolation-filters="sRGB" x="-0.5" y="-0.5" width="2" height="2"><feFlood flood-opacity="0" result="BackgroundImageFix"/><feColorMatrix in="SourceAlpha" type="matrix" values="0 0 0 0 0 0 0 0 0 0 0 0 0 0 0 0 0 0 127 0"/><feMorphology radius="1" operator="dilate"/><feOffset dy="0" dx="0"/><feGaussianBlur stdDeviation="2"/><feColorMatrix type="matrix" values="0 0 0 0 0.3686274588108063 0 0 0 0 0.46666666865348816 0 0 0 0 0.5647059082984924 0 0 0 0.1599999964237213 0"/><feBlend mode="normal" in2="BackgroundImageFix" result="effect1_dropShadow"/><feBlend mode="normal" in="SourceGraphic" in2="effect1_dropShadow" result="shape"/></filter></defs><g filter="url(#master_svg0_439_58894)"><rect x="7" y="7" width="18" height="18" rx="4" fill="#FFFFFF" fill-opacity="1"/><rect x="7.5" y="7.5" width="17" height="17" rx="3.5" fill-opacity="0" stroke-opacity="1" stroke="#EFF6FF" fill="none" stroke-width="1"/></g><path d="M16.5,16.5L16.5,19.5C16.5,19.7761431,16.2761426,20,16,20C15.7238576,20,15.5,19.7761431,15.5,19.5L15.5,16.5L12.5,16.5C12.22385775,16.5,12,16.2761426,12,16C12,15.7238576,12.22385775,15.5,12.5,15.5L15.5,15.5L15.5,12.5C15.5,12.22385775,15.7238576,12,16,12C16.2761426,12,16.5,12.22385775,16.5,12.5L16.5,15.5L19.5,15.5C19.7761431,15.5,20,15.7238576,20,16C20,16.2761426,19.7761431,16.5,19.5,16.5L16.5,16.5Z" fill="#0064FF" fill-opacity="1"/></svg>