<svg xmlns="http://www.w3.org/2000/svg" xmlns:xlink="http://www.w3.org/1999/xlink" fill="none" version="1.1" width="27" height="27.66793441772461" viewBox="0 0 27 27.66793441772461"><defs><clipPath id="master_svg0_448_96847"><rect x="0" y="0" width="27" height="27.66793441772461" rx="6"/></clipPath></defs><g clip-path="url(#master_svg0_448_96847)"><path d="M7.6670165,13.8339666Q7.6670167,13.9240637,7.6581869000000005,14.0137267Q7.6493573,14.103389700000001,7.6317825,14.1917555Q7.6142085,14.2801213,7.5880586999999995,14.366339Q7.5619087,14.4525564,7.5274353000000005,14.535795Q7.4929624,14.6190338,7.4504972,14.6984923Q7.4080324,14.7779508,7.3579848000000005,14.8528636Q7.3079376,14.9277768,7.2507896,14.9974227Q7.193641700000001,15.067068599999999,7.1299431,15.1307766Q7.0662451,15.194485199999999,6.9966097000000005,15.251642Q6.9269748,15.3087988,6.852073,15.3588538Q6.7771721,15.4089093,6.697725800000001,15.4513807Q6.6182795,15.4938519,6.5350535,15.5283303Q6.4518275,15.5628092,6.3656235,15.588963Q6.2794194,15.615117099999999,6.1910672,15.6326938Q6.1027153,15.6502709,6.0130661,15.6591022Q5.9234167,15.6679332,5.8333335,15.6679332Q5.7432505,15.6679332,5.6536010999999995,15.6591022Q5.5639517000000005,15.6502709,5.4755994999999995,15.6326938Q5.3872476,15.615117099999999,5.3010434,15.588963Q5.2148392,15.5628095,5.1316133,15.5283306Q5.0483874,15.4938521,4.96894127,15.4513807Q4.88949507,15.4089093,4.81459367,15.3588541Q4.73969239,15.308799,4.67005724,15.2516422Q4.6004220799999995,15.194485199999999,4.53672373,15.1307766Q4.47302544,15.067068599999999,4.41587734,14.9974227Q4.35872924,14.9277768,4.30868173,14.8528636Q4.25863427,14.7779508,4.21616942,14.6984923Q4.17370456,14.6190338,4.13923125,14.535795Q4.10475796,14.4525564,4.078608222,14.366339Q4.052458487,14.2801213,4.034884159,14.1917555Q4.017309826,14.103389700000001,4.0084801428,14.0137267Q3.9996504593,13.9240637,3.99965045933,13.8339666Q3.9996504593,13.7438695,4.0084801428,13.6542064Q4.017309826,13.5645432,4.034884159,13.4761773Q4.052458487,13.3878117,4.078608222,13.3015943Q4.10475796,13.215376599999999,4.13923125,13.1321379Q4.17370456,13.0488992,4.21616942,12.9694407Q4.25863427,12.88998222,4.30868173,12.81506926Q4.35872924,12.74015641,4.41587734,12.67051053Q4.47302544,12.60086459,4.53672373,12.53715634Q4.6004220799999995,12.47344819,4.67005724,12.41629127Q4.73969239,12.35913432,4.81459367,12.30907908Q4.88949507,12.25902387,4.96894121,12.21655245Q5.0483874,12.17408103,5.1316133,12.13960238Q5.2148392,12.10512376,5.3010434,12.078969978Q5.3872476,12.052816205,5.4755994999999995,12.035239149Q5.5639517000000005,12.017662099,5.6536012,12.0088310493Q5.7432505,12,5.8333335,12Q5.9234167,12,6.0130658,12.0088310493Q6.1027153,12.017662099,6.1910672,12.035239149Q6.2794194,12.052816205,6.3656235,12.078969985Q6.4518275,12.10512376,6.5350535,12.13960238Q6.6182795,12.17408103,6.697725800000001,12.21655245Q6.7771721,12.25902387,6.852073,12.30907905Q6.9269748,12.35913429,6.9966097000000005,12.41629124Q7.0662451,12.47344819,7.1299431,12.53715634Q7.193641700000001,12.60086459,7.2507896,12.67051047Q7.3079376,12.74015641,7.357985,12.8150692Q7.4080327,12.88998222,7.4504974,12.96944058Q7.4929624,13.0488991,7.5274355,13.1321378Q7.5619092000000006,13.215376599999999,7.5880586999999995,13.301594099999999Q7.6142087,13.3878117,7.6317825,13.4761773Q7.6493573,13.5645432,7.6581872,13.6542064Q7.6670167,13.7438695,7.6670165,13.8339666Z" fill="#BBBBBB" fill-opacity="1"/><path d="M15.334032784558104,13.8339661Q15.334032984558105,13.924063199999999,15.325201284558105,14.0137262Q15.316369984558106,14.1033893,15.298792084558105,14.1917551Q15.281214684558105,14.2801208,15.255059984558105,14.3663385Q15.228905184558105,14.4525559,15.194424884558106,14.5357945Q15.159945284558106,14.6190333,15.117472384558106,14.6984916Q15.074999584558105,14.7779503,15.024942384558106,14.8528628Q14.974885484558106,14.927776099999999,14.917726484558106,14.997422199999999Q14.860567584558105,15.0670681,14.796856884558105,15.1307759Q14.733146684558106,15.1944842,14.663498384558105,15.2516413Q14.593850184558105,15.3087983,14.518934284558105,15.358853100000001Q14.444018884558105,15.4089084,14.364557284558106,15.4513798Q14.285095884558105,15.4938512,14.201853984558106,15.5283296Q14.118612484558106,15.5628085,14.032391984558105,15.5889621Q13.946171484558105,15.6151161,13.857802384558106,15.632693100000001Q13.769433484558105,15.6502702,13.679767084558105,15.6591012Q13.590100984558106,15.6679323,13.500000684558106,15.6679323Q13.409900684558105,15.6679323,13.320234184558105,15.6591012Q13.230567884558106,15.6502702,13.142198784558106,15.632693100000001Q13.053829884558105,15.6151161,12.967609384558106,15.5889623Q12.881388784558105,15.5628085,12.798146984558105,15.5283296Q12.714905284558105,15.4938512,12.635444044558106,15.4513798Q12.555982704558106,15.4089084,12.481067064558106,15.3588529Q12.406151534558106,15.3087981,12.336503144558105,15.2516413Q12.266854764558106,15.1944842,12.203144254558106,15.1307759Q12.139433804558106,15.0670681,12.082274854558106,14.997422199999999Q12.025115874558105,14.927776099999999,11.975058854558105,14.8528628Q11.925001864558105,14.77795,11.882528914558106,14.6984916Q11.840055974558105,14.6190331,11.805576104558105,14.5357943Q11.771096254558106,14.4525557,11.744941540558106,14.366338299999999Q11.718786828558105,14.2801208,11.701209150558105,14.1917551Q11.683631472558105,14.1033893,11.674800108158106,14.0137262Q11.665968742278105,13.924063199999999,11.665968742338105,13.8339661Q11.665968742278105,13.7438692,11.674800107258106,13.654206Q11.683631472558105,13.5645429,11.701209150558105,13.476177Q11.718786828558105,13.3878113,11.744941540558106,13.3015939Q11.771096254558106,13.2153764,11.805576104558105,13.1321375Q11.840055974558105,13.0488989,11.882528934558106,12.96944046Q11.925001864558105,12.88998204,11.975058854558105,12.81506908Q12.025115874558105,12.74015629,12.082274854558106,12.67051035Q12.139433804558106,12.60086447,12.203144254558106,12.53715622Q12.266854764558106,12.47344807,12.336503144558105,12.41629112Q12.406151534558106,12.3591342,12.481067064558106,12.30907899Q12.555982704558106,12.25902382,12.635444044558106,12.21655241Q12.714905284558105,12.17408097,12.798146984558105,12.13960235Q12.881388784558105,12.10512374,12.967609284558105,12.078969963Q13.053829884558105,12.05281619,13.142198684558105,12.035239141Q13.230567784558106,12.017662095,13.320234184558105,12.0088310475Q13.409900684558105,12,13.500000684558106,12Q13.590100984558106,12,13.679767384558104,12.0088310475Q13.769433484558105,12.017662095,13.857802384558106,12.035239141Q13.946171484558105,12.05281619,14.032391984558105,12.078969963Q14.118612784558106,12.10512374,14.201854184558105,12.13960235Q14.285096184558105,12.17408097,14.364557484558105,12.21655239Q14.444018884558105,12.25902382,14.518934284558105,12.30907899Q14.593850184558105,12.3591342,14.663498384558105,12.41629112Q14.733146884558106,12.47344807,14.796857084558106,12.53715622Q14.860567784558105,12.60086447,14.917726784558106,12.67051041Q14.974885684558105,12.74015629,15.024942384558106,12.81506908Q15.074999584558105,12.88998204,15.117472384558106,12.96944046Q15.159945484558106,13.0488989,15.194425084558105,13.1321375Q15.228905184558105,13.2153764,15.255059984558105,13.3015938Q15.281214684558105,13.3878113,15.298792084558105,13.476177Q15.316369984558106,13.5645429,15.325201484558105,13.654206Q15.334032984558105,13.7438692,15.334032784558104,13.8339661Z" fill="#BBBBBB" fill-opacity="1"/><path d="M23.000001876464843,13.8333336Q23.000002176464843,13.923399700000001,22.991174176464845,14.013031699999999Q22.982346076464843,14.102664,22.964775076464843,14.190999Q22.947204076464843,14.279334500000001,22.921059376464843,14.3655221Q22.894914676464843,14.4517097,22.860447676464844,14.5349197Q22.825981176464843,14.61813,22.783524476464844,14.697561Q22.741067676464844,14.776992100000001,22.691029576464842,14.851878899999999Q22.640991676464843,14.9267664,22.583854676464846,14.9963882Q22.526717376464845,15.06601,22.463031076464844,15.1296961Q22.399344876464845,15.1933825,22.329723376464845,15.2505198Q22.260101276464844,15.3076568,22.185214076464845,15.3576946Q22.110327276464844,15.4077325,22.030895976464844,15.4501894Q21.951464876464843,15.492646,21.868254676464844,15.5271125Q21.785044876464845,15.5615795,21.698857276464842,15.5877242Q21.612669476464845,15.6138692,21.524334176464844,15.6314402Q21.435998876464843,15.6490111,21.34636687646484,15.6578393Q21.256734876464844,15.6666672,21.166668876464843,15.6666672Q21.076603176464843,15.6666672,20.986970876464845,15.6578393Q20.897338776464842,15.6490111,20.809003376464844,15.6314402Q20.720668076464843,15.6138692,20.634480376464843,15.587724399999999Q20.548292676464843,15.5615797,20.465082676464842,15.5271127Q20.381872676464845,15.4926462,20.302441656464843,15.4501896Q20.223010596464842,15.4077327,20.148123506464845,15.3576946Q20.073236526464843,15.3076568,20.003614666464845,15.2505198Q19.933992866464845,15.1933827,19.870306666464845,15.1296964Q19.806620506464842,15.066010200000001,19.749483316464843,14.9963884Q19.692346126464845,14.9267664,19.642308176464844,14.8518794Q19.592270286464842,14.7769923,19.549813526464845,14.6975613Q19.507356766464845,14.6181302,19.472890036464843,14.53492Q19.438423316464842,14.4517102,19.412278577464843,14.3655224Q19.386133842464844,14.279334500000001,19.368562854464844,14.1909993Q19.350991876464843,14.102664,19.342163876664845,14.013031699999999Q19.333335876464844,13.923399700000001,19.333335876464844,13.8333336Q19.333335876464844,13.7432678,19.342163876664845,13.6536356Q19.350991876464843,13.5640033,19.368562854464844,13.475668Q19.386133842464844,13.3873327,19.412278577464843,13.301145Q19.438423316464842,13.2149572,19.472890036464843,13.1317471Q19.507356766464845,13.0485371,19.549813506464844,12.96910608Q19.592270286464842,12.88967502,19.642308176464844,12.81478792Q19.692346126464845,12.73990095,19.749483316464843,12.67027903Q19.806620506464842,12.60065722,19.870306666464845,12.53697097Q19.933992866464845,12.47328478,20.003614726464843,12.41614759Q20.073236586464844,12.35901037,20.148123626464844,12.30897242Q20.223010656464844,12.2589345,20.302441596464845,12.21647772Q20.381872676464845,12.17402095,20.465082676464842,12.1395542Q20.548292676464843,12.10508748,20.634480376464843,12.078942731Q20.720668076464843,12.052797981,20.809003376464844,12.03522699Q20.897338776464842,12.017656006,20.986970876464845,12.008828003Q21.076603176464843,12,21.166668876464843,12Q21.256734876464844,12,21.34636687646484,12.008828003Q21.435999176464843,12.017656006,21.524334476464844,12.03522699Q21.612669676464844,12.052797981,21.698857276464842,12.078942731Q21.785045176464845,12.10508748,21.868254876464842,12.1395542Q21.951465176464843,12.17402095,22.030896176464843,12.21647772Q22.110327276464844,12.2589345,22.185214076464845,12.30897242Q22.260101276464844,12.35901037,22.329722876464842,12.41614759Q22.399344876464845,12.47328478,22.463030776464844,12.53697097Q22.526717176464842,12.60065722,22.583854176464843,12.67027903Q22.640991676464843,12.73990095,22.691029576464842,12.81478798Q22.741067676464844,12.88967508,22.783524276464846,12.96910608Q22.825981176464843,13.0485371,22.860447676464844,13.1317471Q22.894914676464843,13.2149572,22.921059176464844,13.301145Q22.947204076464843,13.3873327,22.964775076464843,13.475668Q22.982346076464843,13.5640033,22.991174176464845,13.6536356Q23.000002176464843,13.7432678,23.000001876464843,13.8333336Z" fill="#BBBBBB" fill-opacity="1"/></g></svg>