<svg xmlns="http://www.w3.org/2000/svg" xmlns:xlink="http://www.w3.org/1999/xlink" fill="none" version="1.1" width="41" height="30" viewBox="0 0 41 30"><g><g><rect x="0" y="0" width="41" height="30" rx="15" fill="#333333" fill-opacity="0.6000000238418579"/></g><g><path d="M14,13C12.9000001,13,12,13.89999962,12,15C12,16.1000004,12.9000001,17,14,17C15.0999999,17,16,16.1000004,16,15C16,13.89999962,15.0999999,13,14,13ZM28,13C26.9,13,26,13.89999962,26,15C26,16.1000004,26.9,17,28,17C29.1,17,30,16.1000004,30,15C30,13.89999962,29.1,13,28,13ZM21,13C19.8999996,13,19,13.89999962,19,15C19,16.1000004,19.8999996,17,21,17C22.1,17,23,16.1000004,23,15C23,13.89999962,22.1,13,21,13Z" fill="#FFFFFF" fill-opacity="1" style="mix-blend-mode:passthrough"/></g></g></svg>