<svg xmlns="http://www.w3.org/2000/svg" xmlns:xlink="http://www.w3.org/1999/xlink" fill="none" version="1.1" width="42" height="42" viewBox="0 0 42 42"><defs><mask id="master_svg0_385_99116" style="mask-type:alpha" maskUnits="objectBoundingBox"><g><ellipse cx="21" cy="21" rx="21" ry="21" fill="#FFFFFF" fill-opacity="1"/></g></mask></defs><g mask="url(#master_svg0_385_99116)"><g><ellipse cx="21" cy="21" rx="21" ry="21" fill="#080808" fill-opacity="1"/></g><g><g><rect x="15.373836755752563" y="13.513474225997925" width="12.148458480834961" height="7.959334850311279" rx="0" fill="#080808" fill-opacity="1"/></g><g><path d="M28.105981,11.00056969549L13.89088714,11.00056969549C13.41253731,10.983320625,13.012121543,11.35988748,13,11.8383944L13,29.619827C13.018861476,29.816668,13.079817027,30.007154,13.17873578,30.178377C13.4826,30.552649,14.0220939,30.632666,14.4215088,30.3627L19.9316049,26.081415C20.5680528,25.620204,21.428815800000002,25.620204,22.065265699999998,26.081415L27.572567,30.357113C27.711185999999998,30.499691,27.908672,30.568964,28.105983000000002,30.544226C28.584333,30.561476,28.984749,30.18491,28.996871,29.706402L28.996871,11.93334794C29.037127,11.45824161,28.684444,11.040528547,28.209313,11.00056969549L28.105981,11.00056969549ZM25.438907,20.3115959L16.5579634,20.3115959C16.0428042,20.3115959,15.625185,19.8939762,15.625185,19.378817599999998C15.625185,18.863658,16.0428042,18.4460392,16.5579634,18.4460392L25.438905,18.4460392C25.954062,18.4460392,26.371682,18.863658,26.371682,19.378817599999998C26.371682,19.8939762,25.954062,20.3115959,25.438907,20.3115959ZM25.438907,16.5860682L16.5579634,16.5860682C16.0428042,16.5860682,15.625185,16.1684489,15.625185,15.6532898C15.625185,15.1381307,16.0428042,14.7205114,16.5579634,14.7205114L25.438905,14.7205114C25.954062,14.7205114,26.371682,15.1381307,26.371682,15.6532898C26.371682,16.1684489,25.954062,16.5860682,25.438907,16.5860682Z" fill="#FFFFFF" fill-opacity="1" style="mix-blend-mode:passthrough"/></g></g></g></svg>