<svg xmlns="http://www.w3.org/2000/svg" xmlns:xlink="http://www.w3.org/1999/xlink" fill="none" version="1.1" width="16" height="14.896552085876465" viewBox="0 0 16 14.896552085876465"><path d="M14.896552,2.206897L6.5495172,2.206897L5.6811032,0.58317286C5.4893112,0.2239369,5.1150904,-0.00029886182,4.7078624,3.367457e-7L1.1034483,3.367457e-7C0.49489656,3.367457e-7,0,0.49489698,0,1.1034486L0,13.793104C0,14.401656,0.49489656,14.896552,1.1034483,14.896552L14.896552,14.896552C15.505104,14.896552,16,14.401656,16,13.793104L16,3.3103452C16,2.7017937,15.505104,2.206897,14.896552,2.206897ZM1.1034483,1.1034486L4.7078624,1.1034486L5.888,3.3103452L14.896552,3.3103452L14.896552,4.9997244C14.88938,4.9997244,14.882759,4.9975171,14.875587,4.9975171L1.1249655,4.9975171C1.1177932,4.9975171,1.1111724,4.9997244,1.1034483,4.9997244L1.1034483,1.1034486ZM1.1034483,13.793104L1.1034483,12.137932L1.1249655,6.100966L14.896552,6.1219316L14.896552,12.137932L14.897655,12.137932L14.897655,13.793104L1.1034483,13.793104Z" fill="#0064FF" fill-opacity="1"/></svg>