<svg
  xmlns="http://www.w3.org/2000/svg"
  xmlns:xlink="http://www.w3.org/1999/xlink"
  fill="none"
  version="1.1"
  width="14"
  height="14"
  viewBox="0 0 14 14"
>
  <ellipse
    cx="6.83349609375"
    cy="6.8333282470703125"
    rx="5.5"
    ry="5.5"
    fill="#FFFFFF"
    fill-opacity="1"
  />
  <path
    d="M7,0C3.1349998,0,0,3.1349998,0,7C0,10.864999,3.1349998,14,7,14C10.864999,14,14,10.865,14,7.0000005C14,3.1350002,10.865,0,7,0ZM4.5074992,8.6974993L4.6299992,7.9549994C4.6399989,7.8974991,4.6674991,7.8424993,4.7099991,7.7999997L9.477499,3.0324996C9.5874987,2.9224997,9.767499,2.9224997,9.8774977,3.0324996L10.497498,3.6524994C10.607497,3.7624996,10.607497,3.9424994,10.497498,4.0524993L5.7299995,8.8225002C5.6875,8.8649998,5.6349993,8.8924999,5.5749998,8.9025002L4.8325,9.0249996C4.6424994,9.0549994,4.4775,8.8899994,4.5074992,8.6974993ZM10.274999,10.594999L3.5749996,10.594999C3.2824996,10.594999,3.0474997,10.357499,3.0474997,10.067498C3.0474997,9.7774982,3.2849998,9.539999,3.5749996,9.539999L10.275,9.539999C10.567499,9.539999,10.8025,9.7774982,10.8025,10.067498C10.8025,10.357499,10.565,10.594999,10.274999,10.594999Z"
    fill="#CD8200"
    fill-opacity="1"
    style="mix-blend-mode: passthrough"
  />
</svg>
