<svg xmlns="http://www.w3.org/2000/svg" xmlns:xlink="http://www.w3.org/1999/xlink" fill="none" version="1.1" width="14" height="14" viewBox="0 0 14 14"><defs><clipPath id="master_svg0_8_20920"><rect x="0" y="0" width="14" height="14" rx="0"/></clipPath></defs><g clip-path="url(#master_svg0_8_20920)"><g><path d="M9.91668701171875,3.500078046875L12.83338701171875,3.500078046875L12.83338701171875,4.666748046875L11.66668701171875,4.666748046875L11.66668701171875,12.250048046875C11.66668701171875,12.572248046875,11.40548701171875,12.833448046875,11.08335701171875,12.833448046875L2.91668701171875,12.833448046875C2.5945270117187498,12.833448046875,2.33335701171875,12.572248046875,2.33335701171875,12.250048046875L2.33335701171875,4.666748046875L1.16668701171875,4.666748046875L1.16668701171875,3.500078046875L4.08335701171875,3.500078046875L4.08335701171875,1.750081046875C4.08335701171875,1.427918046875,4.34452701171875,1.166748046875,4.66668701171875,1.166748046875L9.33335701171875,1.166748046875C9.65552701171875,1.166748046875,9.91668701171875,1.427918046875,9.91668701171875,1.750081046875L9.91668701171875,3.500078046875ZM10.50001701171875,4.666748046875L3.50001701171875,4.666748046875L3.50001701171875,11.666748046875L10.50001701171875,11.666748046875L10.50001701171875,4.666748046875ZM5.25001701171875,6.416748046875L6.41668701171875,6.416748046875L6.41668701171875,9.916748046875L5.25001701171875,9.916748046875L5.25001701171875,6.416748046875ZM7.58335701171875,6.416748046875L8.75001701171875,6.416748046875L8.75001701171875,9.916748046875L7.58335701171875,9.916748046875L7.58335701171875,6.416748046875ZM5.25001701171875,2.333418046875L5.25001701171875,3.500078046875L8.75001701171875,3.500078046875L8.75001701171875,2.333418046875L5.25001701171875,2.333418046875Z" fill="#EB3737" fill-opacity="1"/></g></g></svg>