<svg xmlns="http://www.w3.org/2000/svg" xmlns:xlink="http://www.w3.org/1999/xlink" fill="none" version="1.1" width="14" height="14" viewBox="0 0 14 14"><defs><clipPath id="master_svg0_8_21001"><rect x="0" y="0" width="14" height="14" rx="0"/></clipPath></defs><g clip-path="url(#master_svg0_8_21001)"><g><path d="M4.08322,3.5003221875L4.08322,1.7503251875C4.08322,1.4281621875,4.344390000000001,1.1669921875,4.66655,1.1669921875L11.66655,1.1669921875C11.9887,1.1669921875,12.2499,1.4281621875,12.2499,1.7503251875L12.2499,9.9169921875C12.2499,10.2391621875,11.9887,10.5003221875,11.66655,10.5003221875L9.91655,10.5003221875L9.91655,12.2497921875C9.91655,12.5722921875,9.65411,12.8336921875,9.32925,12.8336921875L2.337218,12.8336921875C2.012844,12.8336921875,1.75,12.5742921875,1.75,12.2497921875L1.75151664,4.0841621875000005C1.75157505,3.7617221875,2.01404,3.5003221875,2.338828,3.5003221875L4.08322,3.5003221875ZM2.91808,4.6669921875L2.91678,11.6669921875L8.749880000000001,11.6669921875L8.749880000000001,4.6669921875L2.91808,4.6669921875ZM5.24988,3.5003221875L9.91655,3.5003221875L9.91655,9.3336621875L11.08322,9.3336621875L11.08322,2.3336621875L5.24988,2.3336621875L5.24988,3.5003221875ZM4.08333,6.4169921875L7.58333,6.4169921875L7.58333,7.5836621875L4.08333,7.5836621875L4.08333,6.4169921875ZM4.08333,8.7503221875L7.58333,8.7503221875L7.58333,9.9169921875L4.08333,9.9169921875L4.08333,8.7503221875Z" fill="#0064FF" fill-opacity="1"/></g></g></svg>