<svg
  xmlns="http://www.w3.org/2000/svg"
  xmlns:xlink="http://www.w3.org/1999/xlink"
  fill="none"
  version="1.1"
  width="14"
  height="14.000467300415039"
  viewBox="0 0 14 14.000467300415039"
>
  <g>
    <path
      d="M5.16036,0L1.48047,0C0.663142,0.00111537,0.00098902,0.663686,0.000389046,1.48101L0.000389046,5.16075C0.00150465,5.9777,0.663677,6.6396,1.48063,6.64037L5.16036,6.64037C5.97744,6.63977,6.6398,5.97782,6.64091,5.16075L6.64091,1.48101C6.64031,0.663504,5.97787,0.000858201,5.16036,0ZM5.52046,5.16075C5.52012,5.35922,5.35914,5.51992,5.16068,5.51992L1.48047,5.51992C1.28201,5.51992,1.12102,5.35922,1.12068,5.16075L1.12068,1.48101C1.12077,1.28227,1.28172,1.1211,1.48047,1.12076L5.16036,1.12076C5.35923,1.12093,5.52038,1.28215,5.52046,1.48101L5.52046,5.16075ZM5.16036,7.35995L1.48047,7.35995C0.663313,7.3608,0.00109088,8.02302,0.000233428,8.84018L0.000233428,12.5201C0.00109142,13.3373,0.663288,13.9995,1.48047,14.0005L5.16036,14.0005C5.97767,13.9997,6.64005,13.3374,6.64091,12.5201L6.64091,8.84002C6.63997,8.02281,5.97758,7.36063,5.16036,7.35995ZM5.52046,12.5201C5.52029,12.7187,5.35934,12.8798,5.16068,12.88L1.48047,12.88C1.28181,12.8798,1.12085,12.7187,1.12068,12.5201L1.12068,8.84002C1.12085,8.64139,1.28184,8.48041,1.48047,8.48024L5.16036,8.48024C5.35912,8.48024,5.52029,8.64127,5.52046,8.84002L5.52046,12.5201ZM12.52,7.35995L8.8401,7.35995C8.02295,7.3608,7.36073,8.02302,7.35987,8.84018L7.35987,12.5201C7.36073,13.3373,8.02292,13.9995,8.8401,14.0005L12.52,14.0005C13.3372,13.9995,13.9994,13.3373,14.0002,12.5201L14.0002,8.84002C13.9992,8.02297,13.3371,7.36089,12.52,7.35995ZM12.8798,12.5201C12.8796,12.7187,12.7187,12.8798,12.52,12.88L8.8401,12.88C8.64144,12.8798,8.48049,12.7187,8.48031,12.5201L8.48031,8.84002C8.48049,8.64139,8.64147,8.48041,8.8401,8.48024L12.52,8.48024C12.7186,8.48041,12.8796,8.64139,12.8798,8.84002L12.8798,12.5201ZM12.52,0L8.8401,0C8.02277,0.00111498,7.36062,0.663686,7.36002,1.48101L7.36002,5.16075C7.36114,5.9777,8.02331,6.6396,8.84026,6.64037L12.52,6.64037C13.3369,6.6396,13.9991,5.9777,14.0002,5.16075L14.0002,1.48101C13.9996,0.663625,13.3374,0.00102967,12.52,0ZM12.8798,5.16075C12.8794,5.35918,12.7184,5.51983,12.52,5.51992L8.8401,5.51992C8.64164,5.51992,8.48066,5.35922,8.48031,5.16075L8.48031,1.48101C8.4804,1.28227,8.64136,1.1211,8.8401,1.12076L12.52,1.12076C12.7187,1.1211,12.8797,1.28227,12.8798,1.48101L12.8798,5.16075Z"
      fill="#0064ff"
      fill-opacity="1"
      style="mix-blend-mode: passthrough"
    />
  </g>
</svg>
