<svg xmlns="http://www.w3.org/2000/svg" xmlns:xlink="http://www.w3.org/1999/xlink" fill="none" version="1.1" width="42" height="42" viewBox="0 0 42 42"><defs><mask id="master_svg0_337_49516" style="mask-type:alpha" maskUnits="objectBoundingBox"><g><ellipse cx="21" cy="21" rx="21" ry="21" fill="#FFFFFF" fill-opacity="1"/></g></mask></defs><g><g><g><g mask="url(#master_svg0_337_49516)"><g><ellipse cx="21" cy="21" rx="21" ry="21" fill="#080808" fill-opacity="1"/></g></g></g></g><g><g><path d="M20.5000029,15.6817679C15.8371432,15.6817679,12.13235737,19.300882299999998,12.13235737,23.840884000000003C12.13235737,28.382059,15.8383582,32,20.5000029,32C25.162860000000002,32,28.867647,28.382059,28.867647,23.840884000000003C28.867647,19.3008814,25.161645999999998,15.681767,20.5000029,15.6817679ZM24.764574,23.046531L23.118002,24.649298L23.529645000000002,26.919887C23.662002,27.7283,23.25036,27.99777,22.558218,27.587706L20.5000029,26.507477L18.4405723,27.585361C17.7496448,27.983707,17.3380008,27.585361,17.470358400000002,26.918715L17.883216400000002,24.648128L16.2645731,23.045362C15.7205722,22.506418,15.8529296,21.967475999999998,16.6774292,21.838599000000002L18.8680015,21.569129L19.8382154,19.5691843C20.1175022,18.9013638,20.661501899999998,18.9013638,21.073144900000003,19.5691843L22.044574,21.569129L24.367502,21.838599000000002C25.161645999999998,22.108071000000002,25.426358,22.506419,24.764574,23.045362L24.764574,23.046531ZM28.867647,11.92205995C29,11.79435396,29,11.65258873,29,11.65258873C29,11.383117649999999,28.720716,11.11364654,28.455999,11.11364654L23.234572,11.11364654C22.955285,11.11364654,22.691786,11.24135241,22.691786,11.51082355L21.044002499999998,14.462117899999999C21.044002499999998,14.462117899999999,24.470715,14.5898237,26.528930000000003,16.604999499999998C26.528930000000003,16.6190596,28.867645,11.92205995,28.867647,11.92205995ZM19.954786300000002,14.4761775L18.3094301,11.3983486C18.3094301,11.12887748,18.0301447,11,17.765430000000002,11L12.69214296,11C12.27928597,11,12,11.26947111,12,11.53894222C12,11.6678198,12,11.80841333,12.13235718,11.80841333L14.4552865,16.4913526C16.5147157,14.7315891,19.9560013,14.4761775,19.9560013,14.4761775L19.954786300000002,14.4761775Z" fill="#FFFFFF" fill-opacity="1" style="mix-blend-mode:passthrough"/></g></g></g></svg>