<svg xmlns="http://www.w3.org/2000/svg" xmlns:xlink="http://www.w3.org/1999/xlink" fill="none" version="1.1" width="16" height="16" viewBox="0 0 16 16"><defs><clipPath id="master_svg0_122_33690"><rect x="0" y="0" width="16" height="16" rx="0"/></clipPath></defs><g><g clip-path="url(#master_svg0_122_33690)"><g><path d="M5.234441053125,14.322418C4.6732740531250005,14.671084,3.939440753125,14.490751,3.598607753125,13.923084C3.437033453125,13.653557,3.386815753125,13.331687,3.458607953125,13.02575L4.184941253125,9.9282513C4.2025654531250005,9.8547935,4.178431553125,9.7775917,4.122107953125,9.7272511L1.744607863125,7.6555839C1.2507745401250001,7.225584,1.193774563125,6.4735837,1.615941163125,5.9722509C1.818837883125,5.7306671,2.109858333125,5.5801764,2.424274653125,5.5542512L5.544440753125,5.300084399999999C5.612441053125,5.2944179,5.673274553125,5.2495847,5.701107953125,5.1814177L6.903275053125,2.24125111C7.153774253125,1.62875107,7.850441953125,1.33625108,8.458274353124999,1.593417816C8.748163253125,1.71661454,8.977525753125,1.94951278,9.096274353125,2.24125111L10.298440953125,5.1812513C10.326273953125,5.2495847,10.387107853125,5.2945843,10.455106753125,5.3000848000000005L13.575608953125,5.5544186C14.229940953125,5.6077518,14.714439953125,6.1865854,14.662606953125,6.8437519C14.638259953125,7.1573601,14.491962953125,7.4489336,14.255106953125,7.6559186L11.877606953125,9.7275858C11.822272953125,9.7757521,11.797273953125,9.8537521,11.814773953125,9.9284191L12.541106953125,13.025919C12.691440953125,13.666754,12.301105953125,14.312419,11.663940953125,14.46692C11.357101953125,14.541389,11.033206953125,14.48938,10.765108153125,14.322586L8.093606953125,12.662586C8.036233853125001,12.626575,7.963312653125,12.626575,7.905940053125,12.662586L5.234273153125001,14.322586L5.234441053125,14.322418ZM8.621607753125,11.813086L11.293107953125,13.473085C11.334107953125,13.498419,11.382440953125,13.506251,11.428274953125,13.495084C11.528440953125,13.470752,11.593272953125,13.363419,11.567773953125,13.254085L10.841441153125,10.1565847C10.739143353125,9.7223349,10.885076553125,9.267095999999999,11.220774653125,8.9732518L13.598273953125,6.9017515C13.637106953125,6.8679175,13.661609953125,6.8187513,13.665942953125,6.7650847C13.674775953125,6.653584,13.595773953125,6.5592513,13.494440953125,6.551084L10.373942353125,6.2965841C9.928060553125,6.2591567,9.541084253125,5.9742398,9.372942953125,5.5595837L8.170776353125,2.6195836C8.151979453125,2.5723506,8.115247253125,2.5344799,8.068608753125,2.5142504C7.976442353125,2.47525042,7.869775753125,2.5200837,7.829109153125,2.6195836L6.626775253125,5.5595837C6.458634853125,5.9742403,6.071658153125,6.2591572,5.625775853125,6.2965841L2.505442453125,6.551084C2.456822753125,6.5553169,2.411924053125,6.5788465,2.380775853125,6.6164179C2.310127023125,6.7017412,2.3193160331250002,6.8275943,2.401609053125,6.9017506L4.779108753125,8.9734178C5.114805953125,9.267262500000001,5.260738853125,9.7225008,5.158442453125,10.1567507L4.4321088531249995,13.254083C4.419693453124999,13.30665,4.428178753125,13.361986,4.455775453125,13.408418C4.510275853125,13.498919,4.621109253125001,13.526084,4.706776153125,13.472918L7.378442753125,11.813083C7.758998853125,11.576272,8.241052653125,11.576272,8.621607753125,11.813086Z" fill="#333333" fill-opacity="1"/></g></g></g></svg>