<svg xmlns="http://www.w3.org/2000/svg" xmlns:xlink="http://www.w3.org/1999/xlink" fill="none" version="1.1" width="14" height="13.394227981567383" viewBox="0 0 14 13.394227981567383"><g><path d="M0,6.2644815L0,12.341765C0,12.923244,0.4709833,13.394228,1.0524626,13.394228L1.9999288,13.394228L1.9999288,5.2220187L1.0524626,5.212019C0.47120348,5.212019,0,5.6832223,0,6.2644815ZM12.394559,4.1075583L8.2102079,4.1340575C8.4067011,3.4425826,8.506197,2.8281043,8.506197,2.2871232C8.506197,1.059667,7.4307351,-0.14229016,6.3567734,0.013704194C5.4098067,0.1511993,5.3058109,0.96967024,5.3058109,1.9951336L5.3058109,2.9211009C5.3058109,4.1095581,4.3083463,5.1220222,3.1518877,5.2335186L2.9998932,5.2320185L2.9998932,13.394228L11.2426,13.394228C12.013725,13.394274,12.675888,12.845901,12.819544,12.088275L13.971502,6.0109906C14.158607,5.0225024,13.400599,4.1075587,12.394559,4.1075583Z" fill="#0064FF" fill-opacity="1"/></g></svg>