<svg xmlns="http://www.w3.org/2000/svg" xmlns:xlink="http://www.w3.org/1999/xlink" fill="none" version="1.1" width="16" height="16" viewBox="0 0 16 16"><defs><clipPath id="master_svg0_146_17507"><rect x="0" y="0" width="16" height="16" rx="0"/></clipPath></defs><g><g clip-path="url(#master_svg0_146_17507)"><g><path d="M13.395,5.39069124375L9.257,5.39069124375C9.4534998,4.69919104375,9.5529995,4.08469104375,9.5529995,3.54369114375C9.5529995,2.31619104375,8.4309998,1.14069107375,7.3569994,1.29669113075C6.4099994,1.43419112375,5.9579992,2.23269099375,5.9579992,3.25819124375L5.9579992,4.184691143749999C5.9579992,5.37319134375,5.0484991,6.38669104375,3.8919992,6.49819084375L2.0524991999999997,6.49519154375C1.47121978,6.49519154375,1,6.96641204375,1,7.54769134375L1,13.62519184375C1,14.20669184375,1.47100005,14.67769184375,2.0525,14.67769184375L12.243,14.67769184375C13.014153,14.67773784375,13.676339,14.12934484375,13.82,13.37169184375L14.971999,7.29419184375C15.159111,6.30566784375,14.401076,5.39069174375,13.395,5.39069124375ZM2,13.62519184375L2,7.54769134375C2,7.51869104375,2.0235000999999997,7.49519154375,2.0525,7.49519154375L3.25,7.49519154375L3.25,13.67769184375L2.0525,13.67769184375C2.0235051,13.67769184375,2,13.65418684375,2,13.62519184375ZM13.989499,7.10819104375L12.8375,13.18569184375C12.78322,13.47118984375,12.533613,13.67776084375,12.243,13.67769184375L4.25,13.67769184375L4.25,7.45119144375C5.8188453,7.15169284375,6.9547038,5.78136394375,6.9579997,4.18419094375L6.9579997,3.25819124375C6.9579997,2.6711911437499998,7.1464996,2.33769114375,7.5004997,2.2866913437500003C7.9229999,2.22519129375,8.5529995,2.88569114375,8.5529995,3.54419114375C8.5529995,4.12719104375,8.404499999999999,4.85669114375,8.1019998,5.72719144375C7.9891782,6.05212924375,8.2305326,6.39130214375,8.5745001,6.39119144375L13.395,6.39119144375C13.774005,6.39121914375,14.059662,6.73573734375,13.989499,7.10819104375Z" fill="#0064FF" fill-opacity="1"/></g></g></g></svg>