<svg xmlns="http://www.w3.org/2000/svg" xmlns:xlink="http://www.w3.org/1999/xlink" fill="none" version="1.1" width="14" height="14" viewBox="0 0 14 14"><defs><clipPath id="master_svg0_448_85781"><rect x="0" y="0" width="14" height="14" rx="0"/></clipPath></defs><g clip-path="url(#master_svg0_448_85781)"><path d="M12.441688,6.3183657836917C12.81739,6.3167251587,13.12323,6.619830635,13.124871,6.995533765C13.126512,7.353736875,12.84993,7.651783675,12.492683,7.677076675L12.441688,7.678717375L1.55832762,7.678717375C1.18262446,7.680357975,0.8766479015,7.377252475,0.8750072765351,7.001549365C0.8733666515,6.643346255,1.14994869,6.345299378,1.50719476,6.3200064087L1.55819088,6.3183657836917L12.441688,6.3183657836917Z" fill="#666666" fill-opacity="1"/><path d="M6.99999999875,0.876464910507202C7.35601571875,0.87632819176,7.65187501875,1.15072271375,7.67853511875,1.5056446237499999L7.6801758187499996,1.55664068375L7.6801758187499996,12.44013684375C7.6818164187499995,12.81583984375,7.37871101875,13.12167884375,7.00300782875,13.12345684375C6.64480468875,13.12509684375,6.34675781275,12.84851584375,6.32146484385,12.49126884375L6.31982421875,12.44027284375L6.31982421875,1.55664068375C6.31982421875,1.18107429375,6.62429687875,0.876464910507202,6.99999999875,0.876464910507202Z" fill="#666666" fill-opacity="1"/></g></svg>