<svg xmlns="http://www.w3.org/2000/svg" xmlns:xlink="http://www.w3.org/1999/xlink" fill="none" version="1.1" width="13.734375" height="13.066650390625" viewBox="0 0 13.734375 13.066650390625"><g><g><path d="M1.1999999,1.0666667C1.1263618,1.0666667,1.0666666,1.126362,1.0666666,1.1999999L1.0666666,11.866666C1.0666666,11.940444,1.1262221,12,1.1999999,12L12.533334,12C12.606971,12.000001,12.666667,11.940305,12.666667,11.866666L12.666667,3.1999998C12.666669,3.1263623,12.606973,3.0666666,12.533334,3.0666666L6.8666668,3.0666666C6.7086582,3.0663965,6.5589032,2.9960768,6.4577775,2.8746665L4.9493332,1.0666667L1.1999999,1.0666667ZM0,1.1999999C0,0.5368889,0.53688878,0,1.2,0L5.2000003,0C5.3580089,0.00026992799,5.5077643,0.070589595,5.6088896,0.19199997L7.1173334,2L12.534223,2C13.197333,2,13.734222,2.5368886,13.734222,3.1999998L13.734222,11.866667C13.734222,12.529408,13.196964,13.066668,12.534223,13.066668L1.1999999,13.066668C0.53725839,13.066668,7.6293944e-8,12.529408,0,11.866667L0,1.1999999Z" fill="#333333" fill-opacity="1" style="mix-blend-mode:passthrough"/></g><g><path d="M7.000102996875,4.31103515625C7.139385196875001,4.311010742189,7.2658562968750005,4.39231322725,7.323658496875,4.51903502625L7.9876584968749995,5.97414615625L9.576991596875,6.15636835625C9.715269096875,6.17222465625,9.831578696874999,6.26730585625,9.874616096875,6.39966795625C9.917653096875,6.53202985625,9.879501296874999,6.67733265625,9.776991396875001,6.7714793562499995L8.598324296874999,7.85236815625L8.915657996875,9.42036865625C8.942776196875,9.55650135625,8.888194596875,9.69596765625,8.775878396875001,9.77753015625C8.663561796875001,9.85909415625,8.514049496875,9.86783785625,8.392991096875,9.79992435625L7.000102996875,9.013257956250001L5.607214296875,9.79992435625C5.486155996875,9.86783785625,5.336644296875,9.85909415625,5.224327296875,9.77753165625C5.112011096875,9.69596905625,5.057429196875,9.55650135625,5.084547696875,9.42036865625L5.401881096875,7.85236855625L4.223214716875,6.771480056250001C4.120704955875,6.67733335625,4.082554015875,6.53203055625,4.125590819875,6.39966845625C4.168627928875,6.26730585625,4.284938346875,6.17222535625,4.423214706875,6.15636895625L6.013436196875,5.97325745625L6.677436396875001,4.51814634625C6.7353660968749995,4.39206359525,6.8613488968750005,4.31119873046,7.000102996875,4.31103515625ZM7.000102996875,5.52259085625L6.576102696875,6.45147945625C6.524404296875,6.56528305625,6.416744196874999,6.6435813562499995,6.292547496875001,6.65770125625L5.2783251968750005,6.7732567562499995L6.0303252968750005,7.46481255625C6.1222331968749995,7.54896715625,6.163376996875,7.67509575625,6.138769396875,7.79725695625L5.936102896875,8.798145756250001L6.824991896875,8.29592395625C6.933638296874999,8.23444315625,7.066568596874999,8.23444315625,7.175214096875,8.29592395625L8.064103396875,8.798145756250001L7.861436596875,7.79725695625C7.836829196875,7.67509575625,7.8779727968749995,7.54896715625,7.969880796875,7.46481255625L8.721880896875,6.77414605625L7.707658496875,6.65770125625C7.583462496875001,6.64358285625,7.475801896875,6.56528445625,7.424103296875,6.45147945625L7.000102996875,5.52259085625Z" fill="#333333" fill-opacity="1" style="mix-blend-mode:passthrough"/></g></g></svg>