<svg xmlns="http://www.w3.org/2000/svg" xmlns:xlink="http://www.w3.org/1999/xlink" fill="none" version="1.1" width="13.734375" height="13.066650390625" viewBox="0 0 13.734375 13.066650390625"><g><g><path d="M1.1999999,1.0666667C1.1263618,1.0666667,1.0666666,1.126362,1.0666666,1.1999999L1.0666666,11.866666C1.0666666,11.940444,1.1262221,12,1.1999999,12L12.533334,12C12.606971,12.000001,12.666667,11.940305,12.666667,11.866666L12.666667,3.1999998C12.666669,3.1263623,12.606973,3.0666666,12.533334,3.0666666L6.8666668,3.0666666C6.7086582,3.0663965,6.5589032,2.9960768,6.4577775,2.8746665L4.9493332,1.0666667L1.1999999,1.0666667ZM0,1.1999999C0,0.5368889,0.53688878,0,1.2,0L5.2000003,0C5.3580089,0.00026992799,5.5077643,0.070589595,5.6088896,0.19199997L7.1173334,2L12.534223,2C13.197333,2,13.734222,2.5368886,13.734222,3.1999998L13.734222,11.866667C13.734222,12.529408,13.196964,13.066668,12.534223,13.066668L1.1999999,13.066668C0.53725839,13.066668,7.6293944e-8,12.529408,0,11.866667L0,1.1999999Z" fill="#0064FF" fill-opacity="1"/></g><g><path d="M0.5,1.5L0.5,12.5L3,12.5L13,12.5L13.5,11L13,2.5L6.5,2.5L5,0.5L1,0.5L0.5,1.5Z" fill="#0064FF" fill-opacity="1"/></g><g><g><path d="M6.8919487,4.5C7.031230900000001,4.499975585939,7.1577020000000005,4.581278071,7.2155042,4.70799987L7.8795041999999995,6.163111L9.4688373,6.3453332C9.6071148,6.3611895,9.723424399999999,6.4562707,9.7664618,6.5886328C9.8094988,6.7209947,9.771346999999999,6.8662975,9.668837100000001,6.9604441999999995L8.490169999999999,8.041333L8.8075037,9.6093335C8.8346219,9.7454662,8.7800403,9.8849325,8.667724100000001,9.966495C8.555407500000001,10.048059,8.4058952,10.0568027,8.2848368,9.9888892L6.8919487,9.202222800000001L5.49906,9.9888892C5.3780017,10.0568027,5.22849,10.048059,5.116173,9.9664965C5.0038568,9.8849339,4.9492749,9.7454662,4.9763934,9.6093335L5.2937268,8.0413334L4.11506042,6.960444900000001C4.012550659,6.8662982,3.974399719,6.7209954,4.017436523,6.5886333C4.060473632,6.4562707,4.17678405,6.3611902,4.31506041,6.3453338L5.9052819,6.1622223L6.569282100000001,4.70711119C6.6272117999999995,4.581028439,6.7531946000000005,4.50016357421,6.8919487,4.5ZM6.8919487,5.7115557L6.4679484,6.6404443C6.41625,6.7542479,6.308589899999999,6.8325461999999995,6.184393200000001,6.8466661L5.1701709000000005,6.9622215999999995L5.9221710000000005,7.6537774C6.0140788999999995,7.737932,6.0552227,7.8640606,6.0306151,7.9862218L5.8279486,8.987110600000001L6.7168376,8.4848888C6.825483999999999,8.423408,6.958414299999999,8.423408,7.0670598,8.4848888L7.9559491,8.987110600000001L7.7532823,7.9862218C7.7286749,7.8640606,7.7698184999999995,7.737932,7.8617265,7.6537774L8.6137266,6.9631109L7.5995042,6.8466661C7.475308200000001,6.8325477,7.3676476,6.7542493,7.315949,6.6404443L6.8919487,5.7115557Z" fill="#FFFFFF" fill-opacity="1" style="mix-blend-mode:passthrough"/></g><g><path d="M5,6.68896484375L5.5,7.68896484375L5.5,9.18896484375L7,8.68896484375L8,9.68896484375L8,7.68896484375L9,7.18896484375L7.5,6.18896484375L7,5.18896484375L6,6.68896484375L5,6.68896484375Z" fill="#FFFFFF" fill-opacity="1"/></g></g></g></svg>