<svg xmlns="http://www.w3.org/2000/svg" xmlns:xlink="http://www.w3.org/1999/xlink" fill="none" version="1.1" width="42" height="42" viewBox="0 0 42 42"><defs><mask id="master_svg0_385_99207" style="mask-type:alpha" maskUnits="objectBoundingBox"><g><ellipse cx="21" cy="21" rx="21" ry="21" fill="#FFFFFF" fill-opacity="1"/></g></mask></defs><g><g><g><g><g mask="url(#master_svg0_385_99207)"><g><ellipse cx="21" cy="21" rx="21" ry="21" fill="#080808" fill-opacity="1"/></g><g><path d="M19.6139321,20.3412491C19.5451765,20.4693637,19.4417565,20.5526626,19.3327892,20.5639999L17.71423155,20.7988112C17.090395065,20.9025934,16.84420738,21.6803858,17.28911427,22.1432548L18.4529757,23.3150001C18.5466166,23.4124694,18.5910399,23.5439415,18.5681244,23.662990100000002L18.2863076,25.3241062C18.1864557,25.9732027,18.8350768,26.464826600000002,19.3849316,26.1528268L20.8242574,25.3750334C20.9409339,25.3076954,21.05948,25.3076954,21.1715331,25.3724294L22.6188297,26.154685C23.1653566,26.464826600000002,23.8139677,25.9732027,23.7146082,25.327171800000002L23.4330831,23.6673021C23.421113,23.537529,23.463123799999998,23.4027605,23.5496893,23.312748L24.7091484,22.1455159C25.1562262,21.6804161,24.910049,20.9026136,24.2899313,20.7994342L22.674911,20.5649347C22.546414900000002,20.5378587,22.4350748,20.4546096,22.3892946,20.3474709L21.6745415,18.82091087C21.4010863,18.22614874,20.5993257,18.22614874,20.3252881,18.82219738L19.6139321,20.3412491Z" fill="#080808" fill-opacity="1" style="mix-blend-mode:passthrough"/></g></g></g></g></g><g><g><rect x="15.373836755752563" y="13.513474225997925" width="12.148458480834961" height="7.959334850311279" rx="0" fill="#080808" fill-opacity="1"/></g><g><path d="M28.105981,11.00056969549L13.89088714,11.00056969549C13.41253731,10.983320625,13.012121543,11.35988748,13,11.8383944L13,29.619827C13.018861476,29.816668,13.079817027,30.007154,13.17873578,30.178377C13.4826,30.552649,14.0220939,30.632666,14.4215088,30.3627L19.9316049,26.081415C20.5680528,25.620204,21.428815800000002,25.620204,22.065265699999998,26.081415L27.572567,30.357113C27.711185999999998,30.499691,27.908672,30.568964,28.105983000000002,30.544226C28.584333,30.561476,28.984749,30.18491,28.996871,29.706402L28.996871,11.93334794C29.037127,11.45824161,28.684444,11.040528547,28.209313,11.00056969549L28.105981,11.00056969549ZM25.438907,20.3115959L16.5579634,20.3115959C16.0428042,20.3115959,15.625185,19.8939762,15.625185,19.378817599999998C15.625185,18.863658,16.0428042,18.4460392,16.5579634,18.4460392L25.438905,18.4460392C25.954062,18.4460392,26.371682,18.863658,26.371682,19.378817599999998C26.371682,19.8939762,25.954062,20.3115959,25.438907,20.3115959ZM25.438907,16.5860682L16.5579634,16.5860682C16.0428042,16.5860682,15.625185,16.1684489,15.625185,15.6532898C15.625185,15.1381307,16.0428042,14.7205114,16.5579634,14.7205114L25.438905,14.7205114C25.954062,14.7205114,26.371682,15.1381307,26.371682,15.6532898C26.371682,16.1684489,25.954062,16.5860682,25.438907,16.5860682Z" fill="#FD9B25" fill-opacity="1" style="mix-blend-mode:passthrough"/></g></g></g></svg>