<svg xmlns="http://www.w3.org/2000/svg" xmlns:xlink="http://www.w3.org/1999/xlink" fill="none" version="1.1" width="14" height="13.394227981567383" viewBox="0 0 14 13.394227981567383"><g transform="matrix(1,0,0,-1,0,26.788455963134766)"><path d="M0,19.65870948156738L0,25.735992981567385C0,26.317471981567383,0.4709833,26.78845598156738,1.0524626,26.78845598156738L1.9999288,26.78845598156738L1.9999288,18.616246681567382L1.0524626,18.60624698156738C0.47120348,18.60624698156738,0,19.077450281567383,0,19.65870948156738ZM12.394559,17.501786281567384L8.2102079,17.528285481567384C8.4067011,16.836810581567384,8.506197,16.222332281567382,8.506197,15.681351181567383C8.506197,14.453894981567382,7.4307351,13.251937821567383,6.3567734,13.407932175567383C5.4098067,13.545427281567383,5.3058109,14.363898221567382,5.3058109,15.389361581567382L5.3058109,16.315328881567382C5.3058109,17.503786081567384,4.3083463,18.516250181567383,3.1518877,18.627746581567383L2.9998932,18.62624648156738L2.9998932,26.78845598156738L11.2426,26.78845598156738C12.013725,26.788501981567382,12.675888,26.24012898156738,12.819544,25.482502981567382L13.971502,19.405218581567382C14.158607,18.416730381567383,13.400599,17.50178668156738,12.394559,17.501786281567384Z" fill="#0064FF" fill-opacity="1"/></g></svg>