<svg xmlns="http://www.w3.org/2000/svg" xmlns:xlink="http://www.w3.org/1999/xlink" fill="none" version="1.1" width="16" height="16" viewBox="0 0 16 16"><defs><clipPath id="master_svg0_122_33578"><rect x="0" y="16" width="16" height="16" rx="0"/></clipPath></defs><g transform="matrix(1,0,0,-1,0,32)"><g clip-path="url(#master_svg0_122_33578)"><g><path d="M13.395,21.39069124375L9.257,21.39069124375C9.4534998,20.699191043749998,9.5529995,20.08469104375,9.5529995,19.54369114375C9.5529995,18.31619104375,8.4309998,17.14069107375,7.3569994,17.29669113075C6.4099994,17.43419112375,5.9579992,18.23269099375,5.9579992,19.25819124375L5.9579992,20.18469114375C5.9579992,21.37319134375,5.0484991,22.386691043749998,3.8919992,22.49819084375L2.0524991999999997,22.49519154375C1.47121978,22.49519154375,1,22.96641204375,1,23.54769134375L1,29.625191843750002C1,30.20669184375,1.47100005,30.67769184375,2.0525,30.67769184375L12.243,30.67769184375C13.014153,30.677737843750002,13.676339,30.129344843749998,13.82,29.37169184375L14.971999,23.29419184375C15.159111,22.30566784375,14.401076,21.39069174375,13.395,21.39069124375ZM2,29.625191843750002L2,23.54769134375C2,23.51869104375,2.0235000999999997,23.49519154375,2.0525,23.49519154375L3.25,23.49519154375L3.25,29.67769184375L2.0525,29.67769184375C2.0235051,29.67769184375,2,29.65418684375,2,29.625191843750002ZM13.989499,23.10819104375L12.8375,29.18569184375C12.78322,29.47118984375,12.533613,29.67776084375,12.243,29.67769184375L4.25,29.67769184375L4.25,23.451191443749998C5.8188453,23.15169284375,6.9547038,21.78136394375,6.9579997,20.18419094375L6.9579997,19.25819124375C6.9579997,18.67119114375,7.1464996,18.33769114375,7.5004997,18.28669134375C7.9229999,18.22519129375,8.5529995,18.88569114375,8.5529995,19.544191143749998C8.5529995,20.12719104375,8.404499999999999,20.856691143749998,8.1019998,21.72719144375C7.9891782,22.05212924375,8.2305326,22.39130214375,8.5745001,22.39119144375L13.395,22.39119144375C13.774005,22.39121914375,14.059662,22.73573734375,13.989499,23.10819104375Z" fill="#333333" fill-opacity="1" style="mix-blend-mode:passthrough"/></g></g></g></svg>