<?xml version="1.0" encoding="UTF-8"?>
<svg width="15px" height="14px" viewBox="0 0 15 14" version="1.1" xmlns="http://www.w3.org/2000/svg" xmlns:xlink="http://www.w3.org/1999/xlink">
    <title>编组</title>
    <g id="页面-1" stroke="none" stroke-width="1" fill="none" fill-rule="evenodd">
        <g id="系统常量配置备份-4" transform="translate(-959.000000, -268.000000)" fill="#F56C6C" fill-rule="nonzero">
            <g id="编组-20" transform="translate(786.025294, 212.000000)">
                <g id="编组-10" transform="translate(0.000000, 48.000000)">
                    <g id="编组-119" transform="translate(127.000000, 7.000000)">
                        <g id="编组" transform="translate(46.642496, 1.000000)">
                            <path d="M7,0 C3.136,0 0,3.136 0,7 C0,10.864 3.136,14 7,14 C10.864,14 14,10.864 14,7 C14,3.136 10.864,0 7,0 Z M10.136,10.1266667 C9.94933333,10.3133333 9.65066667,10.3133333 9.47333333,10.1266667 L6.972,7.60666667 L4.43333333,10.1173333 C4.24666667,10.304 3.948,10.304 3.76133333,10.1173333 C3.57466667,9.93066667 3.57466667,9.632 3.76133333,9.45466667 L6.30933333,6.93466667 L3.90133333,4.52666667 C3.71466667,4.34 3.71466667,4.04133333 3.90133333,3.864 C4.088,3.67733333 4.38666667,3.67733333 4.564,3.864 L6.972,6.28133333 L9.41733333,3.864 C9.604,3.67733333 9.90266667,3.67733333 10.0893333,3.864 C10.276,4.05066667 10.276,4.34933333 10.0893333,4.52666667 L7.63466667,6.95333333 L10.1266667,9.464 C10.3133333,9.64133333 10.3133333,9.94 10.136,10.1266667 Z" id="形状"></path>
                        </g>
                    </g>
                </g>
            </g>
        </g>
    </g>
</svg>