<svg xmlns="http://www.w3.org/2000/svg" xmlns:xlink="http://www.w3.org/1999/xlink" fill="none" version="1.1" width="10.4399995803833" height="9.666666984558105" viewBox="0 0 10.4399995803833 9.666666984558105"><defs><clipPath id="master_svg0_2_14394"><rect x="0" y="0" width="10.4399995803833" height="9.666666984558105" rx="0"/></clipPath></defs><g clip-path="url(#master_svg0_2_14394)"><g><path d="M10.0533,8.89333L0.773333,8.89333L0.773333,0.386667C0.773333,0.174,0.599333,0,0.386667,0C0.174,0,0,0.174,0,0.386667L0,9.28C0,9.49267,0.174,9.66667,0.386667,9.66667L10.0533,9.66667C10.266,9.66667,10.44,9.49267,10.44,9.28C10.44,9.06733,10.266,8.89333,10.0533,8.89333Z" fill="#999999" fill-opacity="1" style="mix-blend-mode:passthrough"/></g><g><path d="M2.010848625,6.34128154296875L4.350185625,4.00195154296875L6.264185625,5.915951542968751C6.341515625,5.99328154296875,6.457515625,6.03195154296875,6.554185625,6.03195154296875C6.650845625,6.03195154296875,6.747515625,5.99328154296875,6.824845625,5.915951542968751L10.169515625,2.55195254296875C10.304845625,2.39728554296875,10.304845625,2.16528554296875,10.169515625,2.02995254296875C10.034185625,1.89461884296875,9.782845625,1.87528544296875,9.647515625,2.02995254296875L6.573515625,5.1232815429687495L4.640185625,3.1899515429687497C4.5435156249999995,3.13195154296875,4.446845625,3.09328154296875,4.350185625,3.09328154296875C4.253515625,3.09328154296875,4.156845625,3.13195154296875,4.079515625,3.20928154296875L1.469515625,5.79995154296875C1.314848925,5.95462154296875,1.314848925,6.18662154296875,1.469515625,6.34128154296875C1.624182625,6.49595154296875,1.856182625,6.49595154296875,2.010848625,6.34128154296875Z" fill="#999999" fill-opacity="1" style="mix-blend-mode:passthrough"/></g></g></svg>