<svg xmlns="http://www.w3.org/2000/svg" xmlns:xlink="http://www.w3.org/1999/xlink" fill="none" version="1.1" width="10" height="9.9970703125" viewBox="0 0 10 9.9970703125"><g><g><path d="M0,0L0,9.99709L10,9.99709L10,0L0,0ZM9.3292,0.670349L9.3292,2.80821L0.669922,2.80821L0.669922,0.670349L9.3292,0.670349ZM0.669922,3.47858L0.669922,9.32673L9.3292,9.32673L9.3292,3.47858L0.669922,3.47858Z" fill-rule="evenodd" fill="#0064FF" fill-opacity="1"/></g><g><path d="M2.2019822823028563,1.4310696125030518L1.2693092823028564,1.4310696125030518L1.2693092823028564,2.101427612503052L2.2019822823028563,2.101427612503052L2.2019822823028563,1.4310696125030518ZM4.067219282302856,1.4310696125030518L3.1345392823028564,1.4310696125030518L3.1345392823028564,2.101427612503052L4.067219282302856,2.101427612503052L4.067219282302856,1.4310696125030518ZM4.999779282302857,1.4310696125030518L5.932449282302857,1.4310696125030518L5.932449282302857,2.101427612503052L4.999779282302857,2.101427612503052L4.999779282302857,1.4310696125030518ZM4.067159282302857,4.6706596125030515L7.786189282302856,4.6706596125030515L7.786189282302856,5.341019612503052L4.067159282302857,5.341019612503052L4.067159282302857,4.6706596125030515ZM7.786239282302857,6.066749612503052L2.1902072823028567,6.066749612503052L2.1902072823028567,6.737109612503052L7.786239282302857,6.737109612503052L7.786239282302857,6.066749612503052ZM7.786239282302857,7.462839612503052L2.1902072823028567,7.462839612503052L2.1902072823028567,8.133199612503052L7.786239282302857,8.133199612503052L7.786239282302857,7.462839612503052Z" fill-rule="evenodd" fill="#0064FF" fill-opacity="1"/></g></g></svg>