<svg xmlns="http://www.w3.org/2000/svg" xmlns:xlink="http://www.w3.org/1999/xlink" fill="none" version="1.1" width="13" height="13" viewBox="0 0 13 13"><g><g><path d="M6.5,0C2.91015,0,0,2.91015,0,6.5C0,10.0899,2.91015,13,6.5,13C10.0899,13,13,10.0899,13,6.5C13,4.77609,12.3152,3.12279,11.0962,1.90381C9.87721,0.684819,8.22391,0,6.5,0ZM7.4612,6.79151C7.73724,6.5649,8.00029,6.3229,8.24908,6.06666L8.24908,6.07454C8.50214,5.75381,8.63832,5.35641,8.63514,4.94788C8.66128,4.44199,8.45534,3.95179,8.07575,3.61636C7.65778,3.28242,7.12757,3.12167,6.59454,3.16727C5.99769,3.13298,5.41319,3.34682,4.97938,3.75818C4.58023,4.18315,4.36994,4.7515,4.39635,5.33394L5.34181,5.33394C5.32339,5.00002,5.41169,4.6689,5.59393,4.38848C5.80767,4.1088,6.14921,3.95734,6.49999,3.98666C6.78909,3.9683,7.07332,4.06778,7.28787,4.26242C7.47568,4.45752,7.58265,4.7165,7.58726,4.98727C7.58013,5.23612,7.48842,5.4751,7.32726,5.66485L7.16969,5.83818C6.76154,6.16733,6.4102,6.56126,6.12969,7.00424C5.99453,7.27818,5.92955,7.5814,5.9406,7.88666L5.9406,8.04424L6.92544,8.04424L6.92544,7.88666C6.9216,7.67234,6.97316,7.46066,7.07514,7.27212C7.16746,7.08582,7.29919,6.92183,7.4612,6.79151ZM6.9097,9.6909C6.77983,9.81347,6.60767,9.8812,6.42909,9.87999C6.24857,9.8835,6.07463,9.81221,5.94849,9.68302C5.82051,9.5593,5.74925,9.38827,5.75152,9.21029C5.74419,9.03137,5.81628,8.85834,5.94849,8.73756C6.07596,8.61126,6.24973,8.54289,6.42909,8.54847C6.611,8.54164,6.78768,8.61003,6.91758,8.73756C7.04978,8.85834,7.12188,9.03137,7.11455,9.21029C7.11724,9.39453,7.04301,9.57156,6.9097,9.69877L6.9097,9.6909Z" fill-rule="evenodd" fill="#AAAAAA" fill-opacity="1"/></g></g></svg>