<svg xmlns="http://www.w3.org/2000/svg" xmlns:xlink="http://www.w3.org/1999/xlink" fill="none" version="1.1" width="12" height="12" viewBox="0 0 12 12"><defs><clipPath id="master_svg0_8_52906"><rect x="0" y="0" width="12" height="12" rx="0"/></clipPath></defs><g clip-path="url(#master_svg0_8_52906)"><g><path d="M1.33334,8L1.33334,10.6667L4.00001,10.6667L4.00001,12L0,12L0,8L1.33334,8ZM12,8L12,12L7.99999,12L7.99999,10.6667L10.6667,10.6667L10.6667,8L12,8ZM6.66665,2L6.66665,10L5.33332,10L5.33332,2L6.66665,2ZM4.00001,4L4.00001,8L2.66667,8L2.66667,4L4.00001,4ZM9.33333,4L9.33333,8L7.99999,8L7.99999,4L9.33333,4ZM4.00001,0L4.00001,1.33333L1.33334,1.33333L1.33334,4L0,4L0,0L4.00001,0ZM12,0L12,4L10.6667,4L10.6667,1.33333L7.99999,1.33333L7.99999,0L12,0Z" fill="#FFFFFF" fill-opacity="1" style="mix-blend-mode:passthrough"/></g></g></svg>