<svg xmlns="http://www.w3.org/2000/svg" xmlns:xlink="http://www.w3.org/1999/xlink" fill="none" version="1.1" width="18" height="18" viewBox="0 0 18 18"><defs><clipPath id="master_svg0_110_00036"><rect x="0" y="0" width="18" height="18" rx="0"/></clipPath></defs><g clip-path="url(#master_svg0_110_00036)"><g><path d="M9,1.125C13.3492,1.124999742508,16.875,4.65076,16.875,9C16.875,13.3492,13.3492,16.875,9,16.875C4.65076,16.875,1.125,13.3492,1.125,9C1.125,4.65076,4.65076,1.124999742508,9,1.125ZM12.15,8.21314L5.85,8.21314C5.41543,8.21314,5.063140000000001,8.56543,5.063140000000001,9C5.063140000000001,9.43457,5.41543,9.78686,5.85,9.78686L12.15,9.78686C12.5846,9.78686,12.9369,9.43457,12.9369,9C12.9369,8.56543,12.5846,8.21314,12.15,8.21314Z" fill="#BEBEBE" fill-opacity="1" style="mix-blend-mode:passthrough"/></g></g></svg>