<svg xmlns="http://www.w3.org/2000/svg" xmlns:xlink="http://www.w3.org/1999/xlink" fill="none" version="1.1" width="12" height="12" viewBox="0 0 12 12"><g><g><path d="M10.3636,0L1.63636,0C0.763636,0,0,0.763636,0,1.63636L0,10.3636C0,11.2364,0.763636,12,1.63636,12L10.3636,12C11.2364,12,12,11.2364,12,10.3636L12,1.63636C12,0.763636,11.2364,0,10.3636,0ZM10.9091,10.3636C10.9091,10.6909,10.6909,10.9091,10.3637,10.9091L1.6364,10.9091C1.30912,10.9091,1.09094,10.6909,1.09094,10.3636L1.09094,1.63636C1.09094,1.30909,1.30912,1.09091,1.6364,1.09091L10.3637,1.09091C10.6909,1.09091,10.9091,1.30909,10.9091,1.63636L10.9091,10.3636ZM6.54543,5.45455L8.1818,5.45455C8.50907,5.45455,8.72725,5.67273,8.72725,6C8.72725,6.32727,8.50907,6.54545,8.1818,6.54545L6.54543,6.54545L6.54543,8.18182C6.54543,8.50909,6.32725,8.72727,5.99998,8.72727C5.67271,8.72727,5.45452,8.50909,5.45452,8.18182L5.45452,6.54545L3.81816,6.54545C3.49089,6.54545,3.27271,6.32727,3.27271,6C3.27271,5.67273,3.49089,5.45455,3.81816,5.45455L5.45452,5.45455L5.45452,3.81818C5.45452,3.49091,5.67271,3.27273,5.99998,3.27273C6.32725,3.27273,6.54543,3.49091,6.54543,3.81818L6.54543,5.45455Z" fill-rule="evenodd" fill="#0064FF" fill-opacity="1"/></g></g></svg>