<svg xmlns="http://www.w3.org/2000/svg" xmlns:xlink="http://www.w3.org/1999/xlink" fill="none" version="1.1" width="12" height="12" viewBox="0 0 12 12"><g><g><path d="M0 2C1.2263184908229826e-16 0.8954305003384131 0.8954305003384133 0 2 0L10 0C11.104569499661586 0 12 0.8954305003384133 12 2L12 10C12 11.104569499661586 11.104569499661586 12 10 12L2 12C0.8954305003384133 12 0 11.104569499661586 0 10Z" fill="#0064FF" fill-opacity="1"/></g><g><g><path d="M10.32874,7.21727L9.49999,8.28226L9.49999,3.375054C9.50001,3.241067,9.42854,3.117249,9.31251,3.0502496C9.196480000000001,2.9832501,9.05351,2.9832501,8.93748,3.0502496C8.821449999999999,3.117249,8.74998,3.241067,8.75,3.375054L8.75,8.82863C8.75,9.36412,9.427620000000001,9.59662,9.75649,9.174L10.92085,7.67776C11.00318,7.57206,11.02286,7.43046,10.97248,7.30631C10.9221,7.18216,10.80932,7.09432,10.67661,7.07588C10.5439,7.05743,10.41144,7.11119,10.32911,7.21689L10.32874,7.21727ZM2,3.749996C2,3.849452,2.0395084,3.944833,2.109834,4.01516C2.180159,4.0854800000000004,2.275541,4.12499,2.374996,4.12499L7.24995,4.12499C7.38394,4.12501,7.50775,4.05354,7.57475,3.9375109999999998C7.64175,3.821478,7.64175,3.678514,7.57475,3.562482C7.50775,3.446449,7.38394,3.374979,7.24995,3.375L2.374996,3.375C2.167892,3.375,2,3.542892,2,3.749996ZM2.374996,6L7.24995,6C7.45705,6,7.62495,6.16789,7.62495,6.375C7.62495,6.5821000000000005,7.45705,6.74999,7.24995,6.74999L2.374996,6.74999C2.167892,6.74999,2,6.5821000000000005,2,6.375C2,6.16789,2.167892,6,2.374996,6ZM2.375054,9.37499C2.241067,9.37501,2.117249,9.30354,2.0502496,9.18751C1.9832501,9.071480000000001,1.9832501,8.92851,2.0502496,8.81248C2.117249,8.696449999999999,2.241067,8.62498,2.375054,8.625L7.25001,8.625C7.38399,8.62498,7.50781,8.696449999999999,7.57481,8.81248C7.64181,8.92851,7.64181,9.071480000000001,7.57481,9.18751C7.50781,9.30354,7.38399,9.37501,7.25001,9.37499L2.375054,9.37499Z" fill-rule="evenodd" fill="#FFFFFF" fill-opacity="1"/></g></g></g></svg>