<svg xmlns="http://www.w3.org/2000/svg" xmlns:xlink="http://www.w3.org/1999/xlink" fill="none" version="1.1" width="14" height="11.05267333984375" viewBox="0 0 14 11.05267333984375"><g><g><g><path d="M11.9682,10.8331C11.8268,10.9745,11.6347,11.0536,11.4347,11.0527L11.4284,11.0527C11.2318,11.0546,11.0424,10.9779,10.9026,10.8395C10.7629,10.7011,10.6842,10.5125,10.6842,10.3158L10.6842,0.736844C10.6842,0.329896,11.0141,0,11.4211,0L11.4763,0.00184211C11.8609,0.0307621,12.158,0.351245,12.1579,0.736844L12.1579,8.51202L12.7161,7.95644C12.8577,7.8152,13.0497,7.73624,13.2497,7.73707C13.4497,7.7379,13.6411,7.81845,13.7816,7.96086C14.0745,8.25781,14.0726,8.73676,13.7771,9.0315L11.9682,10.8331ZM9.57897,1.28946C9.57897,1.6964,9.24908,2.0263,8.84213,2.0263L0.736844,2.0263C0.329896,2.0263,0,1.6964,0,1.28946C0,0.882509,0.329896,0.552612,0.736844,0.552612L8.84213,0.552612C9.24908,0.552612,9.57897,0.882509,9.57897,1.28946ZM9.57897,5.71054C9.57897,6.11749,9.24908,6.44738,8.84213,6.44738L0.736844,6.44738C0.329896,6.44738,0,6.11749,0,5.71054C0,5.30359,0.329896,4.97369,0.736844,4.97369L8.84213,4.97369C9.24908,4.97369,9.57897,5.30359,9.57897,5.71054ZM8.84213,10.8685C9.10538,10.8685,9.34863,10.728,9.48026,10.5C9.61188,10.2721,9.61188,9.99118,9.48026,9.7632C9.34863,9.53522,9.10538,9.39478,8.84213,9.39478L0.736844,9.39478C0.473595,9.39478,0.230343,9.53522,0.0987184,9.7632C-0.0329061,9.99118,-0.0329061,10.2721,0.0987184,10.5C0.230343,10.728,0.473595,10.8685,0.736844,10.8685L8.84213,10.8685Z" fill-rule="evenodd" fill="#666666" fill-opacity="1"/></g></g></g></svg>