<svg xmlns="http://www.w3.org/2000/svg" xmlns:xlink="http://www.w3.org/1999/xlink" fill="none" version="1.1" width="24" height="24" viewBox="0 0 24 24"><defs><clipPath id="master_svg0_308_52881"><rect x="0" y="0" width="24" height="24" rx="0"/></clipPath></defs><g clip-path="url(#master_svg0_308_52881)"><path d="M19.091264250000002,10.776005315625L19.091264250000002,12.133719415625C19.091264250000002,12.510862315625,19.39983325,12.819434215625,19.77697725,12.819434215625C20.15411925,12.819434215625,20.46269025,12.510862315625,20.46269025,12.133719415625L20.46269025,10.776005315625C20.46269025,9.829719515625001,19.69469025,9.061719415625,18.748403250000003,9.061719415625L14.37012125,9.061719415625L14.37012125,6.212576515625C14.37012125,5.266290725625,13.60212125,4.498291015625,12.65583615,4.498291015625L6.46040655,4.498291015625C5.5141205499999995,4.498291015625,4.7461208500000005,5.266291205625,4.7461208500000005,6.212576515625L4.7461208500000005,19.745148015625L4.00212067,19.745148015625C3.62497789,19.745148015625,3.31640625,20.053720015625,3.31640625,20.430861015625C3.31640625,20.808004015625,3.62497765,21.116575015625,4.00212067,21.116575015625L13.34497725,21.116575015625C13.73926325,21.116575015625,14.07869225,20.893717015625,14.25012025,20.568005015625C14.32554925,20.458289015625,14.37012025,20.324576015625,14.37012025,20.184004015625L14.37012025,10.433147415625001L18.748405249999998,10.433147415625001C18.93354925,10.433147415625001,19.091264250000002,10.590861815625,19.091264250000002,10.776005315625ZM6.11754915,19.745148015625L6.11754915,6.212576115625C6.11754915,6.024004415625,6.271834849999999,5.8697189156250005,6.46040655,5.8697189156250005L12.65583515,5.8697189156250005C12.84440615,5.8697189156250005,12.99869155,6.024004415625,12.99869155,6.212576115625L12.99869155,19.745148015625L6.11754915,19.745148015625Z" fill="#5D87FF" fill-opacity="1" style="mix-blend-mode:passthrough"/><path d="M8.619654075,8.557708740234375L7.402511295,8.557708740234375C7.0253684849999996,8.557708740234375,6.716796875,8.866279900234375,6.716796875,9.243423160234375C6.716796875,9.620566340234376,7.0253684849999996,9.929137540234375,7.402511295,9.929137540234375L8.619654075,9.929137540234375C8.996797275,9.929137540234375,9.305368375,9.620566340234376,9.305368375,9.243423160234375C9.305368375,8.866279900234375,8.996797275,8.557708740234375,8.619654075,8.557708740234375ZM8.619654075,12.123423140234376L7.402511295,12.123423140234376C7.0253684849999996,12.123423140234376,6.716796875,12.431994240234374,6.716796875,12.809137340234376C6.716796875,13.186280740234375,7.0253684849999996,13.494852040234374,7.402511295,13.494852040234374L8.619654075,13.494852040234374C8.996797275,13.494852040234374,9.305368375,13.186280740234375,9.305368375,12.809137340234376C9.305368375,12.431994240234374,8.996797275,12.123423140234376,8.619654075,12.123423140234376ZM8.619654075,15.689137440234376L7.402511295,15.689137440234376C7.0253684849999996,15.689137440234376,6.716796875,15.997708840234374,6.716796875,16.374850740234375C6.716796875,16.751993140234376,7.0253684849999996,17.060564040234375,7.402511295,17.060564040234375L8.619654075,17.060564040234375C8.996797275,17.060564040234375,9.305368375,16.751993140234376,9.305368375,16.374850740234375C9.305368375,15.997708840234374,8.996797275,15.689137440234376,8.619654075,15.689137440234376ZM11.770510675,8.557708740234375L10.553367575,8.557708740234375C10.176224475,8.557708740234375,9.867653375,8.866279900234375,9.867653375,9.243423160234375C9.867653375,9.620566340234376,10.176224475,9.929137540234375,10.553367575,9.929137540234375L11.770510175,9.929137540234375C12.147653075000001,9.929137540234375,12.456224474999999,9.620566340234376,12.456224474999999,9.243423160234375C12.456224474999999,8.866279900234375,12.147653075000001,8.557708740234375,11.770510675,8.557708740234375ZM11.770510675,12.123423140234376L10.553367575,12.123423140234376C10.176224475,12.123423140234376,9.867653375,12.431994240234374,9.867653375,12.809137340234376C9.867653375,13.186280740234375,10.176224475,13.494852040234374,10.553367575,13.494852040234374L11.770510175,13.494852040234374C12.147653075000001,13.494852040234374,12.456224474999999,13.186280740234375,12.456224474999999,12.809137340234376C12.456224474999999,12.431994240234374,12.147653075000001,12.123423140234376,11.770510675,12.123423140234376ZM11.770510675,15.689137440234376L10.553367575,15.689137440234376C10.176224475,15.689137440234376,9.867653375,15.997708840234374,9.867653375,16.374850740234375C9.867653375,16.751993140234376,10.176224475,17.060564040234375,10.553367575,17.060564040234375L11.770510175,17.060564040234375C12.147653075000001,17.060564040234375,12.456224474999999,16.751993140234376,12.456224474999999,16.374850740234375C12.456224474999999,15.997708840234374,12.147653075000001,15.689137440234376,11.770510675,15.689137440234376ZM16.069939575,12.123423140234376C15.692796675,12.123423140234376,15.384225875,12.431994240234374,15.384225875,12.809137340234376C15.384225875,13.186280740234375,15.692796675,13.494852040234374,16.069939575,13.494852040234374L17.389938875,13.494852040234374C17.767080874999998,13.494852040234374,18.075652875,13.186280740234375,18.075652875,12.809137340234376C18.075652875,12.431994240234374,17.767080874999998,12.123423140234376,17.389938875,12.123423140234376L16.069939575,12.123423140234376Z" fill="#5D87FF" fill-opacity="1" style="mix-blend-mode:passthrough"/><g><path d="M22.328774,20.3287745Q23.499999,19.1575494,23.499999,17.5000014Q23.499999,15.8424511,22.3287745,14.67122579Q21.1575494,13.50000069,19.5000019,13.5Q17.842450499999998,13.5,16.67122507,14.671225549999999Q15.49999976,15.8424511,15.49999958,17.5000005Q15.5,19.1575503,16.67122602,20.3287749Q17.842451099999998,21.499999,19.4999998,21.499999Q21.1575484,21.499999,22.328774,20.3287745ZM21.6216669,15.3783324Q22.4999995,16.256664999999998,22.4999995,17.5000005Q22.4999995,18.7433352,21.6216674,19.6216669Q20.7433348,20.4999995,19.4999998,20.4999995Q18.2566648,20.4999995,17.3783325,19.6216679Q16.5,18.7433357,16.49999958,17.5000005Q16.49999973,16.2566645,17.3783319,15.3783323Q18.256664,14.5,19.500001,14.5Q20.7433352,14.50000066,21.6216669,15.3783324Z" fill-rule="evenodd" fill="#5D87FF" fill-opacity="1"/><g><path d="M21.435567726152037,16.580036107914122C21.411567526152037,16.304959177914125,21.28418362615204,16.053881977914124,21.07372102615204,15.872959167914123C20.85956702615204,15.688343904914124,20.58818252615204,15.597882242914123,20.30756672615204,15.618190041014124C20.026950726152037,15.638497583914123,19.770336036152038,15.767728487914123,19.58572059615204,15.981882277914124L19.450951636152038,16.140651697914123C19.402951656152037,16.197882117914123,19.37895142615204,16.269882317914124,19.384490726152038,16.343728657914124C19.390028536152037,16.417575237914125,19.42510580615204,16.485882517914124,19.48233622615204,16.533882377914125C19.60048979615204,16.633575097914125,19.775875386152038,16.618805497914124,19.87372152615204,16.502497557914122L20.010336826152038,16.341882047914122C20.09525992615204,16.240343867914124,20.21895262615204,16.177574577914122,20.34818342615204,16.166497527914125C20.47925952615204,16.155420717914122,20.612182926152038,16.197882117914123,20.71187552615204,16.282805267914124C20.81341382615204,16.367728347914124,20.876183626152038,16.487728057914122,20.88910642615204,16.620651397914123C20.900183826152038,16.753574497914123,20.85956822615204,16.882805097914122,20.77464532615204,16.984343697914124L20.11926052615204,17.76526609791412C19.94202992615204,17.975727897914123,19.62633770615204,18.003420497914124,19.415876326152038,17.826189397914124C19.386338356152038,17.800343397914123,19.35864597615204,17.772650797914125,19.338337866152038,17.746804097914122C19.26264548615204,17.647111497914125,19.12972211615204,17.612035797914125,19.01341566615204,17.660035697914125L19.00233808615204,17.665573497914124C18.987568806152037,17.672958297914125,18.96726126615204,17.682188897914124,18.94880033615204,17.696958397914123C18.89156938315204,17.741266397914124,18.852799884152038,17.804035997914124,18.84356941635204,17.877881897914122C18.83249234125204,17.951727797914124,18.852799884152038,18.027419897914122,18.89710766415204,18.086497697914123L18.89895324815204,18.088343297914122C18.950645916152038,18.152958497914124,19.004184176152037,18.208343397914124,19.05772241615204,18.252651097914125C19.247876226152037,18.411420497914122,19.491567726152038,18.498189797914122,19.737106326152038,18.498189797914122C19.774029736152038,18.498189797914122,19.81095272615204,18.496344197914123,19.846029526152037,18.492651597914122C20.12295332615204,18.464958997914124,20.37033762615204,18.332036397914123,20.54202922615204,18.121574997914124L21.19741352615204,17.340652297914122C21.37464482615204,17.124652397914122,21.459567626152037,16.855113697914124,21.435567726152037,16.580036107914122Z" fill="#5D87FF" fill-opacity="1" style="mix-blend-mode:passthrough"/><path d="M19.592661597914123,18.656955166821287C19.587123797914124,18.65141686682129,19.581584597914123,18.647724466821288,19.576046597914125,18.64403216682129C19.520661597914124,18.599724366821288,19.450507997914123,18.579416666821288,19.378507897914123,18.586801666821287C19.304661997914124,18.59418626682129,19.236354197914125,18.62926356682129,19.190199997914124,18.68649406682129L19.055430897914125,18.84710976682129C18.970507997914122,18.94864796682129,18.850507597914124,19.011417666821288,18.717584497914125,19.02434066682129C18.584661247914124,19.03541776682129,18.455430567914124,18.99480246682129,18.353892267914123,18.909879466821288C18.252353907914124,18.824956466821288,18.189584197914122,18.70495606682129,18.176661367914125,18.57203296682129C18.165584147914124,18.439109666821288,18.206199467914125,18.30987886682129,18.291122557914125,18.20834076682129L18.946506997914124,17.42741793682129C19.031429997914124,17.325879636821288,19.153275997914122,17.26310992682129,19.286198997914124,17.252033766821288C19.419122197914124,17.240956546821288,19.548353097914124,17.281571866821288,19.648045697914124,17.36649495682129C19.672045597914124,17.38680261682129,19.696045797914124,17.412648376821288,19.720045697914124,17.442187546821287C19.797583897914123,17.54188006682129,19.932354097914125,17.57695638682129,20.048661097914124,17.525264856821288L20.052352997914124,17.52341919682129C20.068968697914123,17.51418864682129,20.089276197914124,17.50311147682129,20.105891297914123,17.490188596821287L20.109583697914125,17.48834287682129C20.231429897914122,17.39418935682129,20.253584297914124,17.21880417682129,20.159429697914124,17.09880491682129C20.11881439791412,17.04526668682129,20.068968697914123,16.99357417682129,20.006198797914124,16.940035966821288C19.790199397914122,16.75911270082129,19.516968297914122,16.67234394282129,19.236352297914124,16.696343999821288C18.955737397914124,16.72034405882129,18.700967197914125,16.85326723682129,18.520044917914124,17.069266736821287L17.864660617914122,17.85018956682129C17.680044941914122,18.06618896682129,17.591429993914122,18.35418976682129,17.620968147214125,18.64034376682129C17.678199238914125,19.181266766821288,18.137891767914123,19.583728766821288,18.667737697914124,19.583728766821288C18.704660497914123,19.583728766821288,18.743430297914124,19.58188296682129,18.780353197914124,19.578190566821288C19.049891797914125,19.55049796682129,19.299121897914123,19.41757516682129,19.481891997914122,19.205267866821288L19.616660997914124,19.044652266821288C19.664661097914124,18.98742176682129,19.688661197914122,18.91542146682129,19.681276197914123,18.83972886682129C19.677583797914124,18.76772876682129,19.644353297914122,18.703113366821288,19.592661597914123,18.656955166821287Z" fill="#5D87FF" fill-opacity="1" style="mix-blend-mode:passthrough"/></g></g></g></svg>