<svg xmlns="http://www.w3.org/2000/svg" xmlns:xlink="http://www.w3.org/1999/xlink" fill="none" version="1.1" width="20" height="20" viewBox="0 0 20 20"><defs><clipPath id="master_svg0_301_003311"><rect x="0" y="0" width="20" height="20" rx="0"/></clipPath></defs><g clip-path="url(#master_svg0_301_003311)"><path d="M15.550841125,3.1231162853515624L13.099729125,3.1231162853515624C12.765067125,4.033129685351563,11.899328125,4.6386608853515625,10.929730125,4.6408943853515625L6.227508525,4.6408943853515625C5.258115725,4.6380147853515625,4.392707325,4.032716785351562,4.057508425,3.1231162853515624L1.606397625,3.1231162853515624L1.606397625,17.767557485351563L7.776397725,17.767557485351563C8.219451925,17.767557485351563,8.578619925,18.126728485351563,8.578619925,18.56978048535156C8.578619925,19.012836485351563,8.219451925,19.37200548535156,7.776397725,19.37200548535156L1.323064325,19.37200548535156C0.593868375,19.37200548535156,0.00256639364,18.78119648535156,0.001953125,18.05200548535156L0.001953125,2.8386726853515625C0.00256571826,2.1092967853515625,0.593688485,1.5181741853515625,1.323064325,1.5175614853515624L4.057508425,1.5175614853515624C4.392608125,0.6077302053515625,5.257934125,0.0020462903515625,6.227508525,-0.0013275146484375L10.929731125,-0.0013275146484375C11.926397125,-0.0013275146484375,12.771953125,0.6342279953515625,13.099731125,1.5175612853515625L15.834178125,1.5175612853515625C16.564176125,1.5175612853515625,17.155287125,2.1086723853515625,17.155287125,2.8386726853515625L17.155287125,7.976449485351562C16.691492125,7.6211833853515625,16.133617125,7.409855885351562,15.550842125,7.368672885351563L15.550841125,3.1231162853515624ZM10.929731125,1.5175612853515625L6.227508525,1.5175612853515625C5.784960225,1.5187822853515625,5.426507025,1.8772352853515626,5.425286325,2.3197836853515623C5.425286325,2.7608947853515624,5.786397925,3.1231166853515626,6.227509025,3.1231166853515626L10.929731125,3.1231166853515626C11.372894125,3.1218962853515624,11.731845125,2.7629460853515626,11.733065125,2.3197836853515623C11.731842125,1.8768024853515626,11.372714125,1.5181717853515626,10.929731125,1.5175612853515625ZM3.933064425,8.500894585351562C3.933064425,8.016448985351563,4.330842525,7.619781985351563,4.815286625,7.619781985351563L11.241954125,7.619781985351563C11.726398125,7.619781985351563,12.123065125,8.016448985351563,12.123065125,8.500894585351562C12.121847125,8.987193085351562,11.728250125,9.381285685351562,11.241954125,9.383116685351563L4.815286125,9.383116685351563C4.328807325,9.381288485351563,3.934891925,8.987372385351563,3.933064425,8.500894585351562ZM3.933064425,13.088671485351563C3.933064425,12.560894485351563,4.365286325,12.129782485351562,4.891953025,12.129782485351562L8.937509525,12.129782485351562C9.464176225,12.129782485351562,9.895286525,12.560894485351563,9.895286525,13.088671485351563C9.893461225,13.617059485351563,9.465895625,14.045123485351562,8.937509525,14.047560485351562L4.891952525,14.047560485351562C4.363133425,14.045731485351563,3.934893825,13.617492485351562,3.933064425,13.088671485351563Z" fill="#5D87FF" fill-opacity="1" style="mix-blend-mode:passthrough"/><g><path d="M10.50000006,17.2000046L10.5,17.7850046Q10.5,18.2430048,10.88068564,18.4082413Q11.034421224,18.474969899999998,11.31313476,18.4668064Q11.37463993,18.4650049,11.40500003,18.4650049L18.3599377,18.4650049L18.384751299999998,18.4625235Q18.412694000000002,18.459729199999998,18.4573903,18.4588699Q19.0438871,18.4475937,19.0378447,17.8190222Q19.0375004,17.7832112,19.0375004,17.7625046L19.0375004,17.2000046Q19.0375004,16.3175054,18.1550012,16.3175054L17.0496325,16.3175054Q16.9951596,16.197237,16.9295721,16.1235933L16.9296207,16.1235495Q16.589891,15.7449932,16.637166,15.4391146Q16.673625,15.2032189,17.0486603,14.5967035Q17.0958629,14.5203657,17.1254044,14.4722352Q17.3161511,14.2308121,17.4036875,14.0604963Q17.7775002,13.3903646,17.7775002,12.610005600000001Q17.7775002,11.3507015,16.9390221,10.44267249Q16.0685539,9.50000012,14.8027341,9.50000021Q13.546376500000001,9.5,12.6220046,10.41882405Q11.69250023,11.3427501,11.69250041,12.6100049Q11.69249982,13.6389685,12.3238587,14.4516416Q12.4110348,14.5874124,12.5784307,14.823367600000001Q12.983596,15.394473999999999,12.9993439,15.6205087Q13.0201633,15.919337299999999,12.5548755,16.3175054L11.38249996,16.3175054Q10.989768565,16.3175054,10.74488446,16.562388900000002Q10.5,16.8072729,10.50000006,17.2000046ZM11.50000006,17.4650049L18.0374999,17.4650049L18.0374999,17.3175049L16.6383328,17.3175049L16.5049992,17.2175045Q16.280571000000002,17.0491824,16.1460752,16.7468195Q15.5329223,16.0367627,15.6489005,15.2863717Q15.7163582,14.849910300000001,16.1981273,14.070781700000001Q16.2582598,13.9735339,16.288359200000002,13.9242797L16.304832,13.8973248L16.3245659,13.8726573Q16.4714727,13.6890237,16.5152864,13.6013973L16.5207367,13.5904963L16.5267119,13.5798738Q16.7775006,13.1340282,16.7775006,12.610005600000001Q16.7775006,11.7417877,16.2043386,11.1210825Q15.6308279,10.50000018,14.8027341,10.50000024Q13.958828,10.5,13.3269799,11.1280558Q12.6925002,11.7587276,12.6925004,12.6100049Q12.6924999,13.3049233,13.1249413,13.8526826L13.141217900000001,13.8732994L13.1552446,13.8955083Q13.228092,14.01085,13.3940294,14.244749500000001Q13.9616625,15.0448647,13.9969258,15.5510068Q14.0574956,16.4203835,13.039470399999999,17.2121811L12.904053900000001,17.3175049L11.50000006,17.3175049L11.50000006,17.4650049Z" fill-rule="evenodd" fill="#5D87FF" fill-opacity="1"/><path d="M11.302734375,19.66666692C11.302734375,19.851852,11.375273235,20,11.465946805,20L18.139522075000002,20C18.230195975,20,18.302734375,19.851852,18.302734375,19.66666692L18.302734375,19.33333391C18.302734375,19.14814889,18.230195975,19,18.157657175,19L11.465946805,19C11.375273235,19,11.302734375,19.14814889,11.302734375,19.33333391L11.302734375,19.66666692Z" fill="#5D87FF" fill-opacity="1" style="mix-blend-mode:passthrough"/></g></g></svg>