<svg xmlns="http://www.w3.org/2000/svg" xmlns:xlink="http://www.w3.org/1999/xlink" fill="none" version="1.1" width="24" height="24" viewBox="0 0 24 24"><g><g><g><path d="M22.000000474755858,17.001708984375Q22.00000097475586,17.173653084375,21.98287627475586,17.344768984375Q21.965751674755857,17.515884884374998,21.93166777475586,17.684524584374998Q21.89758397475586,17.853165184375,21.84686847475586,18.017705484375Q21.79615397475586,18.182245684375,21.729295774755858,18.341100684375Q21.662438374755858,18.499956584375,21.58008197475586,18.651597484375Q21.49772457475586,18.803238384375,21.40066197475586,18.946204184375Q21.30359937475586,19.089170484375,21.19276617475586,19.222085484375Q21.08193257475586,19.354999984375,20.95839497475586,19.476582484375Q20.83485797475586,19.598165484375002,20.69980717475586,19.707245384375Q20.56475587475586,19.816325184375,20.41949127475586,19.911851884375Q20.274227174755858,20.007379084375,20.12014867475586,20.088433284375Q19.96607017475586,20.169486984375,19.80466077475586,20.235286684374998Q19.64325237475586,20.301087384375002,19.47606757475586,20.351000284375Q19.30888267475586,20.400912784375002,19.137531274755858,20.434456784375Q18.96618077475586,20.468001884375,18.79231377475586,20.484855684375Q18.61844727475586,20.501708984375,18.44373917475586,20.501708984375Q18.26903147475586,20.501708984375,18.095164774755858,20.484855184375Q17.92129807475586,20.468001884375,17.74994687475586,20.434456784375Q17.578596074755858,20.400912284375,17.41141107475586,20.350999784375Q17.24422597475586,20.301086884375,17.08281657475586,20.235286284375Q16.92140767475586,20.169486484375,16.76732907475586,20.088432784375Q16.61325047475586,20.007379084375,16.46798607475586,19.911851884375Q16.322721974755858,19.816325184375,16.18767097475586,19.707245384375Q16.05261997475586,19.598165484375002,15.92908267475586,19.476582484375Q15.80554556475586,19.354999984375,15.694711984755859,19.222085484375Q15.58387851475586,19.089170484375,15.48681592475586,18.946204184375Q15.38975346475586,18.803238384375,15.307396714755859,18.651597484375Q15.225039954755859,18.499956584375,15.15818211475586,18.341100684375Q15.091324314755859,18.182245684375,15.04060928475586,18.017705484375Q14.989894254755859,17.853165184375,14.955810427755859,17.684524584374998Q14.92172661075586,17.515884884374998,14.904602242755859,17.344768984375Q14.88747787475586,17.173653084375,14.88747787475586,17.001708984375Q14.88747787475586,16.829765284375,14.904602242755859,16.658649184375Q14.92172661075586,16.487533084375,14.955810427755859,16.318892684375Q14.989894254755859,16.150252784375,15.04060928475586,15.985712484375Q15.091324314755859,15.821172484375,15.15818211475586,15.662316784375001Q15.225039954755859,15.503461384375,15.307396714755859,15.351820484375Q15.38975346475586,15.200179384375,15.48681592475586,15.057213084375Q15.58387851475586,14.914247084374999,15.694711984755859,14.781332484375Q15.80554556475586,14.648417984375,15.92908267475586,14.526835184375Q16.05261997475586,14.405252514375,16.18767097475586,14.296172384375Q16.322721974755858,14.187092304375,16.46798607475586,14.091565314375Q16.61325047475586,13.996038344375,16.76732897475586,13.914984524375Q16.92140767475586,13.833930674375,17.08281657475586,13.768130574375Q17.24422597475586,13.702330484375,17.411410774755858,13.652417774375Q17.578596074755858,13.602505084375,17.74994687475586,13.568960487375Q17.92129807475586,13.535415891375,18.095164774755858,13.518562438375Q18.26903147475586,13.501708984375,18.44373917475586,13.501708984375Q18.61844727475586,13.501708984375,18.79231377475586,13.518562438375Q18.96618077475586,13.535415891375,19.137531274755858,13.568960487375Q19.30888267475586,13.602505084375,19.47606757475586,13.652417774375Q19.64325237475586,13.702330484375,19.80466077475586,13.768130574375Q19.96607017475586,13.833930674375,20.12014867475586,13.914984494375Q20.274227174755858,13.996038314375,20.41949127475586,14.091565254375Q20.56475587475586,14.187092244375,20.69980717475586,14.296172384375Q20.83485797475586,14.405252514375,20.95839497475586,14.526835184375Q21.08193257475586,14.648417984375,21.19276617475586,14.781332484375Q21.30359937475586,14.914247084374999,21.40066197475586,15.057213084375Q21.49772457475586,15.200179384375,21.58008197475586,15.351820384375Q21.662438374755858,15.503461384375,21.729295774755858,15.662316784375001Q21.79615397475586,15.821172484375,21.84686897475586,15.985712484375Q21.89758397475586,16.150252784375,21.93166777475586,16.318892684375Q21.965751674755857,16.487533084375,21.98287627475586,16.658648984375Q22.00000097475586,16.829765284375,22.000000474755858,17.001708984375Z" fill="#FCE760" fill-opacity="1"/><path d="M21.30947117475586,19.833290584375Q22.49999947475586,18.661597284375,22.49999947475586,17.001710384375Q22.49999947475586,15.341821084375,21.30947157475586,14.170127094375Q20.12227247475586,13.001709674375,18.44374107475586,13.001708984375Q16.76520517475586,13.001708984375,15.578005794755859,14.170126914375Q14.387477634755859,15.341820584375,14.38747745475586,17.001709484375Q14.38747787475586,18.661598184375002,15.578007044755859,19.833291484375Q16.76520637475586,21.001707984375,18.44373897475586,21.001707984375Q20.122271074755858,21.001707984375,21.30947117475586,19.833290584375ZM20.608025074755858,14.882849084375Q21.49999997475586,15.760712384375001,21.49999997475586,17.001709484375Q21.49999997475586,18.242704884375,20.60802457475586,19.120568284375Q19.71272087475586,20.001708484375,18.44373897475586,20.001708484375Q17.17475677475586,20.001708484375,16.27945327475586,19.120569184375Q15.38747787475586,18.242705784374998,15.38747745475586,17.001709484375Q15.387477484755859,15.760712584375,16.27945247475586,14.882848884375Q17.17475607475586,14.001708984375,18.44374017475586,14.001708984375Q19.71272177475586,14.001709464375,20.608025074755858,14.882849084375Z" fill-rule="evenodd" fill="#5D87FF" fill-opacity="1"/><g><path d="M20.41042036954956,16.081745092289122C20.38603446954956,15.806668162289123,20.25660296954956,15.555590962289124,20.04275726954956,15.374668152289123C19.825160769549562,15.190052889289124,19.54941386954956,15.099591227289123,19.26428726954956,15.119899025389124C18.979160469549562,15.140206568289123,18.71842073954956,15.269437472289123,18.53083765954956,15.483591262289124L18.39390235954956,15.642360682289123C18.345130799549562,15.699591102289123,18.32074474954956,15.771591302289124,18.32637309954956,15.845437642289124C18.33199995954956,15.919284222289123,18.36764108954956,15.987591502289124,18.42579143954956,16.035591362289125C18.54584425954956,16.135284082289125,18.72404914954956,16.120514482289124,18.82346806954956,16.004206542289122L18.962279569549562,15.843591032289124C19.04856766954956,15.742052852289124,19.17424866954956,15.679283562289124,19.30555676954956,15.668206512289123C19.43873986954956,15.657129702289124,19.57380006954956,15.699591102289123,19.67509516954956,15.784514252289124C19.778265669549562,15.869437332289124,19.842044369549562,15.989437042289124,19.85517496954956,16.122360382289123C19.86643056954956,16.255283482289123,19.825161969549562,16.384514082289122,19.73887396954956,16.486052682289124L19.07295406954956,17.26697508228912C18.892874569549562,17.477436882289123,18.57210766954956,17.505129482289124,18.35826319954956,17.327898382289124C18.32825040954956,17.302052382289123,18.30011289954956,17.274359782289125,18.27947836954956,17.248513082289122C18.202569249549562,17.148820482289125,18.06750916954956,17.113744782289125,17.94933314954956,17.161744682289125L17.93807748954956,17.167282482289124C17.92307079954956,17.174667282289125,17.90243681954956,17.183897882289124,17.88367913954956,17.198667382289123C17.82552821954956,17.242975382289124,17.78613551554956,17.305744982289124,17.77675667034956,17.379590882289122C17.76550153544956,17.453436782289124,17.78613551554956,17.529128882289122,17.831155527549562,17.588206682289123L17.83303077854956,17.590052282289122C17.88555438954956,17.654667482289124,17.93995324954956,17.710052382289124,17.99435211954956,17.754360082289125C18.18756258954956,17.913129482289122,18.43517130954956,17.999898782289122,18.68465685954956,17.999898782289122C18.72217380954956,17.999898782289122,18.75969033954956,17.998053182289123,18.79533096954956,17.994360582289122C19.07670616954956,17.966667982289124,19.32806716954956,17.833745382289123,19.50251866954956,17.623283982289124L20.16843796954956,16.842361282289122C20.34851836954956,16.626361382289122,20.43480606954956,16.356822682289124,20.41042036954956,16.081745092289122Z" fill="#5D87FF" fill-opacity="1" style="mix-blend-mode:passthrough"/><path d="M18.537890236166383,18.158664151196287C18.532263536166383,18.15312585119629,18.526635136166384,18.149433451196288,18.521008136166383,18.14574115119629C18.46473283616638,18.101433351196288,18.39345153616638,18.081125651196288,18.320294136166382,18.088510651196287C18.24526123616638,18.09589525119629,18.175855436166383,18.13097255119629,18.128959136166383,18.18820305119629L17.992023836166382,18.34881875119629C17.90573573616638,18.45035695119629,17.783806436166383,18.513126651196288,17.648746636166383,18.52604965119629C17.51368665616638,18.53712675119629,17.382378636166383,18.49651145119629,17.279208186166382,18.411588451196288C17.176037606166382,18.326665451196288,17.11225890616638,18.20666505119629,17.099128366166383,18.07374195119629C17.087873046166383,17.940818651196288,17.129141266166382,17.81158785119629,17.21542942616638,17.71004975119629L17.881348936166383,16.92912692119629C17.96763703616638,16.827588621196288,18.091441636166383,16.76481891119629,18.226501336166383,16.753742751196288C18.361561336166382,16.742665531196288,18.49286953616638,16.783280851196288,18.594164636166383,16.86820394119629C18.618550336166383,16.88851160119629,18.64293623616638,16.914357361196288,18.66732193616638,16.943896531196287C18.74610663616638,17.04358905119629,18.88304333616638,17.07866537119629,19.001219736166384,17.026973841196288L19.00497103616638,17.02512818119629C19.02185393616638,17.01589763119629,19.04248783616638,17.00482046119629,19.05937003616638,16.991897581196287L19.06312183616638,16.99005186119629C19.186926636166383,16.89589834119629,19.209437136166382,16.72051316119629,19.11376903616638,16.60051390119629C19.072500736166383,16.54697567119629,19.02185393616638,16.49528316119629,18.958074836166382,16.441744951196288C18.73860333616638,16.26082168519629,18.46098013616638,16.17405292719629,18.175853536166382,16.198052984196288C17.890727736166383,16.22205304319629,17.631862136166383,16.35497622119629,17.448031666166383,16.570975721196287L16.782112266166383,17.35189855119629C16.594528973166383,17.56789795119629,16.50448956916638,17.85589875119629,16.53450253746638,18.14205275119629C16.592653602166383,18.682975751196288,17.059735536166382,19.085437751196288,17.598098536166383,19.085437751196288C17.635614836166383,19.085437751196288,17.675007836166383,19.08359195119629,17.712524336166382,19.079899551196288C17.986395736166383,19.05220695119629,18.23963203616638,18.91928415119629,18.425340036166382,18.706976851196288L18.56227543616638,18.546361251196288C18.611047036166383,18.48913075119629,18.63543293616638,18.41713045119629,18.627929436166383,18.34143785119629C18.62417773616638,18.26943775119629,18.590412836166383,18.204822351196288,18.537890236166383,18.158664151196287Z" fill="#5D87FF" fill-opacity="1" style="mix-blend-mode:passthrough"/></g></g><g><g><path d="M18.028433,10.2777143L18.028433,11.6354284C18.028433,12.0125713,18.341963,12.3211432,18.72517,12.3211432C19.108374,12.3211432,19.421906,12.0125713,19.421906,11.6354284L19.421906,10.2777143C19.421906,9.331428500000001,18.64156,8.5634284,17.680061000000002,8.5634284L13.2314,8.5634284L13.2314,5.7142855C13.2314,4.76799971,12.451055,4,11.4895582,4L5.1945391,4C4.2330418000000005,4,3.4526966999999997,4.76800019,3.4526966999999997,5.7142855L3.4526966999999997,19.246857L2.69673705,19.246857C2.31353182,19.246857,2,19.555429,2,19.93257C2,20.309713,2.31353158,20.618284,2.69673705,20.618284L12.189777,20.618284C12.590401,20.618284,12.935287,20.395426,13.109469,20.069714C13.186111,19.959998,13.231399,19.826285,13.231399,19.685713L13.231399,9.934856400000001L17.680063,9.934856400000001C17.868183000000002,9.934856400000001,18.028433,10.0925708,18.028433,10.2777143ZM4.8461704,19.246857L4.8461704,5.7142851C4.8461704,5.5257134,5.002936099999999,5.3714279000000005,5.1945391,5.3714279000000005L11.4895573,5.3714279000000005C11.681159,5.3714279000000005,11.837925,5.5257134,11.837925,5.7142851L11.837925,19.246857L4.8461704,19.246857Z" fill="#5D87FF" fill-opacity="1" style="mix-blend-mode:passthrough"/></g><path d="M5.455050706863403,8.745132144609375C5.455050706863403,9.122275324609376,5.768582496863403,9.430846524609375,6.151787756863404,9.430846524609375L7.388495706863403,9.430846524609375C7.771701306863403,9.430846524609375,8.085232706863403,9.122275324609376,8.085232706863403,8.745132144609375C8.085232706863403,8.367988884609375,7.771701306863403,8.059417724609375,7.388495706863403,8.059417724609375L6.151787756863404,8.059417724609375C5.768582496863403,8.059417724609375,5.455050706863403,8.367988884609375,5.455050706863403,8.745132144609375ZM8.656556106863404,8.745132144609375C8.656556106863404,9.122275324609376,8.970087506863404,9.430846524609375,9.353292906863404,9.430846524609375L10.590000906863402,9.430846524609375C10.973206306863403,9.430846524609375,11.286737706863402,9.122275324609376,11.286737706863402,8.745132144609375C11.286737706863402,8.367988884609375,10.973206306863403,8.059417724609375,10.590001306863403,8.059417724609375L9.353292906863404,8.059417724609375C8.970087506863404,8.059417724609375,8.656556106863404,8.367988884609375,8.656556106863404,8.745132144609375ZM5.455050706863403,12.310846324609376C5.455050706863403,12.687989724609375,5.768582496863403,12.996561024609374,6.151787756863404,12.996561024609374L7.388495706863403,12.996561024609374C7.771701306863403,12.996561024609374,8.085232706863403,12.687989724609375,8.085232706863403,12.310846324609376C8.085232706863403,11.933703224609374,7.771701306863403,11.625132124609376,7.388495706863403,11.625132124609376L6.151787756863404,11.625132124609376C5.768582496863403,11.625132124609376,5.455050706863403,11.933703224609374,5.455050706863403,12.310846324609376ZM8.656556106863404,12.310846324609376C8.656556106863404,12.687989724609375,8.970087506863404,12.996561024609374,9.353292906863404,12.996561024609374L10.590000906863402,12.996561024609374C10.973206306863403,12.996561024609374,11.286737706863402,12.687989724609375,11.286737706863402,12.310846324609376C11.286737706863402,11.933703224609374,10.973206306863403,11.625132124609376,10.590001306863403,11.625132124609376L9.353292906863404,11.625132124609376C8.970087506863404,11.625132124609376,8.656556106863404,11.933703224609374,8.656556106863404,12.310846324609376ZM14.261805806863403,12.310846324609376C14.261805806863403,12.687989724609375,14.575336706863403,12.996561024609374,14.958542106863403,12.996561024609374L16.299759706863405,12.996561024609374C16.6829647068634,12.996561024609374,16.996496706863404,12.687989724609375,16.996496706863404,12.310846324609376C16.996496706863404,11.933703224609374,16.6829647068634,11.625132124609376,16.299759706863405,11.625132124609376L14.958542106863403,11.625132124609376C14.575336706863403,11.625132124609376,14.261805806863403,11.933703224609374,14.261805806863403,12.310846324609376ZM5.455050706863403,15.876559724609375C5.455050706863403,16.253702124609376,5.768582496863403,16.562273024609375,6.151787756863404,16.562273024609375L7.388495706863403,16.562273024609375C7.771701306863403,16.562273024609375,8.085232706863403,16.253702124609376,8.085232706863403,15.876559724609375C8.085232706863403,15.499417824609374,7.771701306863403,15.190846424609376,7.388495706863403,15.190846424609376L6.151787756863404,15.190846424609376C5.768582496863403,15.190846424609376,5.455050706863403,15.499417824609374,5.455050706863403,15.876559724609375ZM8.656556106863404,15.876559724609375C8.656556106863404,16.253702124609376,8.970087506863404,16.562273024609375,9.353292906863404,16.562273024609375L10.590000906863402,16.562273024609375C10.973206306863403,16.562273024609375,11.286737706863402,16.253702124609376,11.286737706863402,15.876559724609375C11.286737706863402,15.499417824609374,10.973206306863403,15.190846424609376,10.590001306863403,15.190846424609376L9.353292906863404,15.190846424609376C8.970087506863404,15.190846424609376,8.656556106863404,15.499417824609374,8.656556106863404,15.876559724609375Z" fill="#5D87FF" fill-opacity="1" style="mix-blend-mode:passthrough"/></g></g></g></svg>