<svg xmlns="http://www.w3.org/2000/svg" xmlns:xlink="http://www.w3.org/1999/xlink" fill="none" version="1.1" width="9.9873046875" height="10.277242660522461" viewBox="0 0 9.9873046875 10.277242660522461"><g><path d="M3.3806841,10.277243C2.011045,10.277068,0.77681834,9.4505987,0.25504947,8.1842384C-0.26671937,6.9178782,0.027061323,5.4618354,0.99903864,4.4968629L4.8357477,0.68673635C5.7361817,-0.20941125,7.1846685,-0.23123929,8.1116972,0.63736928C8.5648241,1.0667909,8.8281269,1.659094,8.8433313,2.28319C8.8585358,2.9072859,8.6243877,3.511708,8.1927099,3.9626858L4.8060007,7.4981289C4.287622,8.0327616,3.4339876,8.0459375,2.8993552,7.5275593C2.3647225,7.0091805,2.351546,6.1555462,2.8699248,5.6209135L6.1256208,2.3044579C6.2193799,2.2021792,6.3614564,2.1591773,6.4961958,2.1922979C6.6309352,2.2254183,6.7368851,2.3293877,6.772542,2.4634783C6.8081985,2.5975688,6.7678847,2.7404318,6.6673932,2.8361034L3.4135957,6.153192C3.2666192,6.3042383,3.2113898,6.522222,3.2687118,6.7250304C3.3260336,6.9278393,3.4871984,7.084661,3.6914966,7.1364231C3.8957949,7.1881852,4.1121888,7.1270232,4.2591653,6.9759769L7.6452413,3.4405339C7.9383225,3.1355379,8.097434,2.7261086,8.0872135,2.3032439C8.076992,1.8803791,7.8982854,1.479115,7.5908108,1.1886351C6.9633846,0.60216606,5.9843097,0.61755157,5.3756208,1.2234452L1.5338488,5.0361032C1.0349019,5.5315962,0.75599062,6.2068019,0.7597993,6.9099712C0.76360792,7.6131401,1.0498168,8.285285,1.5541019,8.7753439C2.5816822,9.7654266,4.2108603,9.7570076,5.2281528,8.7563562L9.3306847,4.6835718C9.4257183,4.5823393,9.5684271,4.5410457,9.7028351,4.5758867C9.837244,4.6107278,9.9419203,4.7161479,9.9758101,4.8507996C10.009699,4.9854512,9.9673967,5.1278634,9.8654947,5.2221794L5.7635956,9.2955971C5.1355801,9.9215679,4.2857389,10.274152,3.3990386,10.276609L3.3806841,10.277243Z" fill="#0064FF" fill-opacity="1"/></g></svg>