<svg xmlns="http://www.w3.org/2000/svg" xmlns:xlink="http://www.w3.org/1999/xlink" fill="none" version="1.1" width="36" height="32" viewBox="0 0 36 32"><defs><linearGradient x1="0.5" y1="0" x2="0.5" y2="1" id="master_svg0_2_20905"><stop offset="0%" stop-color="#24BC29" stop-opacity="0.1899999976158142"/><stop offset="100%" stop-color="#E0F4E1" stop-opacity="0.14000000059604645"/></linearGradient></defs><g><path d="M34.792133,29.520144L33.584267,29.520144L33.584267,12.386965C33.584267,9.7018223,31.372513,7.4313574,28.756804,7.4313574L21.517609,7.4313574L21.517609,28.284323C21.517609,28.904285,20.913675,29.52425,20.309742,29.52425C19.705811,29.52425,19.101877,28.904285,19.101877,28.284323L19.101877,4.9556069C19.101877,2.2704644,16.890123,0,14.274413,0L7.2351956,0C4.6194868,0,2.4077325,2.2704644,2.4077325,4.9556069L2.4077325,29.520144L1.2078657,29.520144C0.60393286,29.520144,0,30.140108,0,30.760073C0,31.380035,0.60393286,32,1.2078657,32L34.792133,32C35.396065,32,36,31.380035,36,30.760073C35.995998,30.140108,35.396065,29.520144,34.792133,29.520144ZM13.274525,24.564537L8.4470615,24.564537C7.8431282,24.564537,7.2391953,23.944572,7.2391953,23.32461C7.2391953,22.704645,7.8431282,22.084681,8.4470615,22.084681L13.274525,22.084681C13.878457,22.084681,14.48239,22.704645,14.48239,23.32461C14.478391,24.153965,13.878457,24.564537,13.274525,24.564537ZM13.274525,17.342573L8.4470615,17.342573C7.6431503,17.342573,7.2391953,16.722609,7.2391953,16.102644C7.2391953,15.482679,7.8431282,14.862715,8.4470615,14.862715L13.274525,14.862715C13.878457,14.862715,14.48239,15.482679,14.48239,16.102644C14.478391,16.722609,13.878457,17.342573,13.274525,17.342573ZM13.274525,9.9112139L8.4470615,9.9112139C7.6431503,9.9112139,7.2391953,9.2912493,7.2391953,8.6712866C7.2391953,8.051322,7.8431282,7.4313574,8.4470615,7.4313574L13.274525,7.4313574C13.878457,7.4313574,14.48239,8.051322,14.48239,8.6712866C14.478391,9.2912493,13.878457,9.9112139,13.274525,9.9112139ZM29.96467,24.564537L25.137207,24.564537C24.533274,24.564537,23.92934,23.944572,23.92934,23.32461C23.92934,22.704645,24.533274,22.084681,25.137207,22.084681L29.96467,22.084681C30.568602,22.084681,31.172535,22.704645,31.172535,23.32461C31.172535,24.153965,30.568602,24.564537,29.96467,24.564537ZM29.96467,17.342573L25.137207,17.342573C24.533274,17.342573,23.92934,16.722609,23.92934,16.102644C23.92934,15.482679,24.533274,14.862715,25.137207,14.862715L29.96467,14.862715C30.568602,14.862715,31.172535,15.482679,31.172535,16.102644C31.172535,16.722609,30.568602,17.342573,29.96467,17.342573Z" fill="url(#master_svg0_2_20905)" fill-opacity="1" style="mix-blend-mode:passthrough"/></g></svg>