<svg xmlns="http://www.w3.org/2000/svg" xmlns:xlink="http://www.w3.org/1999/xlink" fill="none" version="1.1" width="18" height="18" viewBox="0 0 18 18"><g><g><g><path d="M9,17C4.582,17,1,13.4185,1,9C1,4.5815000999999995,4.582,1,9,1C13.4185,1,17,4.5815000999999995,17,9C17,13.4185,13.4185,17,9,17L9,17Z" fill-rule="evenodd" fill="#999999" fill-opacity="1"/><path d="M2.6361581999999997,15.364059Q5.272213,18,9,18Q12.728088,18,15.364044,15.364044Q18,12.728088,18,9Q18,5.2719116,15.364044,2.6359558Q12.728088,0,9,6.000000000172534e-7Q5.272213,4.799999999693938e-7,2.6361585,2.6359406Q0,5.2719851,-0.0000013000000000928935,9Q-0.0000012000000000345068,12.728015,2.6361581999999997,15.364059ZM1,9C1,13.4185,4.582,17,9,17C13.4185,17,17,13.4185,17,9C17,4.5815000999999995,13.4185,1,9,1C4.582,1,1,4.5815000999999995,1,9Z" fill-rule="evenodd" fill="#8C8E90" fill-opacity="1"/><path d="M2.6361581999999997,15.364059Q5.272213,18,9,18Q12.728088,18,15.364044,15.364044Q18,12.728088,18,9Q18,5.2719116,15.364044,2.6359558Q12.728088,0,9,6.000000000172534e-7Q5.272213,4.799999999693938e-7,2.6361585,2.6359406Q0,5.2719851,-0.0000013000000000928935,9Q-0.0000012000000000345068,12.728015,2.6361581999999997,15.364059ZM1,9C1,13.4185,4.582,17,9,17C13.4185,17,17,13.4185,17,9C17,4.5815000999999995,13.4185,1,9,1C4.582,1,1,4.5815000999999995,1,9Z" fill-rule="evenodd" fill="#FBFBFB" fill-opacity="1"/></g><g><path d="M8.8643196,11.876878699999999L12.804020399999999,7.5018784400000005Q12.8970447,7.39857578,12.946867000000001,7.26879621Q12.996688800000001,7.1390166,12.9966893,7.000002297121Q12.996688800000001,6.980381062,12.9956632,6.960788954Q12.9878635,6.81180876,12.923645,6.67715377Q12.859427499999999,6.54249877,12.748567600000001,6.44266891Q12.6452646,6.34964448,12.5154853,6.29982245Q12.3857055,6.25000036,12.2466912,6.24999994Q12.2270699,6.25,12.207478,6.25102568Q12.0584974,6.25882518,11.9238424,6.32304335Q11.7891874,6.3872614500000005,11.6893578,6.4981215L11.689157999999999,6.49834365L8.306988,10.2542107L6.55756515,8.3114934L6.55733114,8.3112335Q6.45750132,8.2003734,6.32284626,8.1361554Q6.18819119,8.0719371,6.039210901,8.0641376Q6.019619109,8.0631118,6.00000047925465,8.0631118Q5.983418608,8.063111899999999,5.966853417,8.0638447Q5.83652294,8.0696104,5.71579444,8.1190462Q5.59506589,8.1684821,5.4981215599999995,8.2557807Q5.38726151,8.3556104,5.32304341,8.4902655Q5.2588253,8.6249204,5.25102568,8.7739007Q5.25,8.7934928,5.25,8.8131118Q5.25,8.8296928,5.2507328399999995,8.8462583Q5.2564984599999995,8.9765887,5.30593431,9.097317199999999Q5.35537016,9.2180457,5.44266886,9.3149903L7.749657,11.876878699999999Q7.7759317,11.9060569,7.8051096,11.932331600000001Q7.8600018,11.9817619,7.9234829,12.019533599999999Q7.9869637,12.0573053,8.0565939,12.081966900000001Q8.126224,12.1066284,8.1993277,12.117232300000001Q8.2724314,12.1278358,8.346199,12.1239738Q8.4199667,12.120111900000001,8.4915633,12.1019325Q8.5631599,12.0837536,8.6298344,12.0519562Q8.6965089,12.0201588,8.7556989,11.975965Q8.814889,11.931771300000001,8.8643196,11.876878699999999Z" fill-rule="evenodd" fill="#FFFFFF" fill-opacity="1"/></g></g></g></svg>