<svg xmlns="http://www.w3.org/2000/svg" xmlns:xlink="http://www.w3.org/1999/xlink" fill="none" version="1.1" width="14" height="14" viewBox="0 0 14 14"><defs><clipPath id="master_svg0_1_02592"><rect x="0" y="14" width="14" height="14" rx="0"/></clipPath></defs><g transform="matrix(1,0,0,-1,0,28)" clip-path="url(#master_svg0_1_02592)"><g><path d="M7.23438234375,14.101666L11.98140234375,19.54136C12.05830234375,19.629179999999998,12.07670234375,19.75387,12.02850234375,19.86016C11.98020234375,19.966450000000002,11.87427234375,20.03468,11.75754234375,20.03461L9.42425234375,20.03461C9.275872343749999,20.03333,9.149832343749999,20.142870000000002,9.13040234375,20.28997C8.955492343749999,21.55632,7.89904234375,27.1569,2.89661734375,27.986C2.76215534375,28.012,2.62735534375,27.942700000000002,2.57012534375,27.8183C2.51289534375,27.6939,2.54803734375,27.5465,2.65524234375,27.4613C3.51230234375,26.7896,4.63172234375,25.488300000000002,4.94656234375,23.17249C5.06743234375,22.23171,5.125862343750001,21.28395,5.12147234375,20.33545C5.12151234375,20.17006,4.98947234375,20.03491,4.82412234375,20.031109999999998L2.25994534375,20.031109999999998C2.14321534375,20.03118,2.03723974375,19.96295,1.98899364375,19.856659999999998C1.94074754375,19.75037,1.95915660375,19.62568,2.03606064375,19.537860000000002L6.78661234375,14.101666C6.90509234375,13.9661113,7.11590234375,13.9661113,7.23438234375,14.101666Z" fill="#EB3737" fill-opacity="1"/></g></g></svg>